%TF.GenerationSoftware,KiCad,Pcbnew,(6.0.0-rc1-45-gbfad40bdcc)*%
%TF.CreationDate,2022-03-06T12:58:35+01:00*%
%TF.ProjectId,Bluster,426c7573-7465-4722-9e6b-696361645f70,rev?*%
%TF.SameCoordinates,Original*%
%TF.FileFunction,Legend,Top*%
%TF.FilePolarity,Positive*%
%FSLAX46Y46*%
G04 Gerber Fmt 4.6, Leading zero omitted, Abs format (unit mm)*
G04 Created by KiCad (PCBNEW (6.0.0-rc1-45-gbfad40bdcc)) date 2022-03-06 12:58:35*
%MOMM*%
%LPD*%
G01*
G04 APERTURE LIST*
%ADD10C,0.150000*%
%ADD11C,0.400000*%
%ADD12C,0.120000*%
%ADD13C,0.100000*%
G04 APERTURE END LIST*
D10*
X170801769Y-83491373D02*
X170801769Y-83062801D01*
X171551769Y-83277087D02*
X170801769Y-83277087D01*
X171551769Y-82812801D02*
X170801769Y-82812801D01*
X170801769Y-82634230D01*
X170837484Y-82527087D01*
X170908912Y-82455658D01*
X170980341Y-82419944D01*
X171123198Y-82384230D01*
X171230341Y-82384230D01*
X171373198Y-82419944D01*
X171444626Y-82455658D01*
X171516055Y-82527087D01*
X171551769Y-82634230D01*
X171551769Y-82812801D01*
X171551769Y-82062801D02*
X170801769Y-82062801D01*
X170801769Y-81183516D02*
X170801769Y-80754944D01*
X171551769Y-80969230D02*
X170801769Y-80969230D01*
X171551769Y-80504944D02*
X170801769Y-80504944D01*
X171337484Y-80254944D01*
X170801769Y-80004944D01*
X171551769Y-80004944D01*
X171516055Y-79683516D02*
X171551769Y-79576373D01*
X171551769Y-79397801D01*
X171516055Y-79326373D01*
X171480341Y-79290658D01*
X171408912Y-79254944D01*
X171337484Y-79254944D01*
X171266055Y-79290658D01*
X171230341Y-79326373D01*
X171194626Y-79397801D01*
X171158912Y-79540658D01*
X171123198Y-79612087D01*
X171087484Y-79647801D01*
X171016055Y-79683516D01*
X170944626Y-79683516D01*
X170873198Y-79647801D01*
X170837484Y-79612087D01*
X170801769Y-79540658D01*
X170801769Y-79362087D01*
X170837484Y-79254944D01*
X170801769Y-86245658D02*
X170801769Y-85817087D01*
X171551769Y-86031373D02*
X170801769Y-86031373D01*
X171551769Y-85567087D02*
X170801769Y-85567087D01*
X170801769Y-85388516D01*
X170837484Y-85281373D01*
X170908912Y-85209944D01*
X170980341Y-85174230D01*
X171123198Y-85138516D01*
X171230341Y-85138516D01*
X171373198Y-85174230D01*
X171444626Y-85209944D01*
X171516055Y-85281373D01*
X171551769Y-85388516D01*
X171551769Y-85567087D01*
X170801769Y-84674230D02*
X170801769Y-84531373D01*
X170837484Y-84459944D01*
X170908912Y-84388516D01*
X171051769Y-84352801D01*
X171301769Y-84352801D01*
X171444626Y-84388516D01*
X171516055Y-84459944D01*
X171551769Y-84531373D01*
X171551769Y-84674230D01*
X171516055Y-84745658D01*
X171444626Y-84817087D01*
X171301769Y-84852801D01*
X171051769Y-84852801D01*
X170908912Y-84817087D01*
X170837484Y-84745658D01*
X170801769Y-84674230D01*
X170801769Y-88767801D02*
X170801769Y-88339230D01*
X171551769Y-88553516D02*
X170801769Y-88553516D01*
X171480341Y-87660658D02*
X171516055Y-87696373D01*
X171551769Y-87803516D01*
X171551769Y-87874944D01*
X171516055Y-87982087D01*
X171444626Y-88053516D01*
X171373198Y-88089230D01*
X171230341Y-88124944D01*
X171123198Y-88124944D01*
X170980341Y-88089230D01*
X170908912Y-88053516D01*
X170837484Y-87982087D01*
X170801769Y-87874944D01*
X170801769Y-87803516D01*
X170837484Y-87696373D01*
X170873198Y-87660658D01*
X171551769Y-87339230D02*
X170801769Y-87339230D01*
X171551769Y-86910658D02*
X171123198Y-87232087D01*
X170801769Y-86910658D02*
X171230341Y-87339230D01*
X171266055Y-94376887D02*
X171266055Y-93805458D01*
X171551769Y-94091173D02*
X170980341Y-94091173D01*
X170801769Y-93519744D02*
X170801769Y-93055458D01*
X171087484Y-93305458D01*
X171087484Y-93198316D01*
X171123198Y-93126887D01*
X171158912Y-93091173D01*
X171230341Y-93055458D01*
X171408912Y-93055458D01*
X171480341Y-93091173D01*
X171516055Y-93126887D01*
X171551769Y-93198316D01*
X171551769Y-93412601D01*
X171516055Y-93484030D01*
X171480341Y-93519744D01*
X171480341Y-92734030D02*
X171516055Y-92698316D01*
X171551769Y-92734030D01*
X171516055Y-92769744D01*
X171480341Y-92734030D01*
X171551769Y-92734030D01*
X170801769Y-92448316D02*
X170801769Y-91984030D01*
X171087484Y-92234030D01*
X171087484Y-92126887D01*
X171123198Y-92055458D01*
X171158912Y-92019744D01*
X171230341Y-91984030D01*
X171408912Y-91984030D01*
X171480341Y-92019744D01*
X171516055Y-92055458D01*
X171551769Y-92126887D01*
X171551769Y-92341173D01*
X171516055Y-92412601D01*
X171480341Y-92448316D01*
X170837484Y-90914944D02*
X170801769Y-90986373D01*
X170801769Y-91093516D01*
X170837484Y-91200658D01*
X170908912Y-91272087D01*
X170980341Y-91307801D01*
X171123198Y-91343516D01*
X171230341Y-91343516D01*
X171373198Y-91307801D01*
X171444626Y-91272087D01*
X171516055Y-91200658D01*
X171551769Y-91093516D01*
X171551769Y-91022087D01*
X171516055Y-90914944D01*
X171480341Y-90879230D01*
X171230341Y-90879230D01*
X171230341Y-91022087D01*
X171551769Y-90557801D02*
X170801769Y-90557801D01*
X171551769Y-90129230D01*
X170801769Y-90129230D01*
X171551769Y-89772087D02*
X170801769Y-89772087D01*
X170801769Y-89593516D01*
X170837484Y-89486373D01*
X170908912Y-89414944D01*
X170980341Y-89379230D01*
X171123198Y-89343516D01*
X171230341Y-89343516D01*
X171373198Y-89379230D01*
X171444626Y-89414944D01*
X171516055Y-89486373D01*
X171551769Y-89593516D01*
X171551769Y-89772087D01*
D11*
X168699886Y-56299109D02*
X168818934Y-55941966D01*
X168937981Y-55822919D01*
X169176077Y-55703871D01*
X169533219Y-55703871D01*
X169771315Y-55822919D01*
X169890362Y-55941966D01*
X170009410Y-56180062D01*
X170009410Y-57132443D01*
X167509410Y-57132443D01*
X167509410Y-56299109D01*
X167628458Y-56061014D01*
X167747505Y-55941966D01*
X167985600Y-55822919D01*
X168223696Y-55822919D01*
X168461791Y-55941966D01*
X168580838Y-56061014D01*
X168699886Y-56299109D01*
X168699886Y-57132443D01*
X170009410Y-53441966D02*
X170009410Y-54632443D01*
X167509410Y-54632443D01*
X167509410Y-52608633D02*
X169533219Y-52608633D01*
X169771315Y-52489585D01*
X169890362Y-52370538D01*
X170009410Y-52132443D01*
X170009410Y-51656252D01*
X169890362Y-51418157D01*
X169771315Y-51299109D01*
X169533219Y-51180062D01*
X167509410Y-51180062D01*
X169890362Y-50108633D02*
X170009410Y-49751490D01*
X170009410Y-49156252D01*
X169890362Y-48918157D01*
X169771315Y-48799109D01*
X169533219Y-48680062D01*
X169295124Y-48680062D01*
X169057029Y-48799109D01*
X168937981Y-48918157D01*
X168818934Y-49156252D01*
X168699886Y-49632443D01*
X168580838Y-49870538D01*
X168461791Y-49989585D01*
X168223696Y-50108633D01*
X167985600Y-50108633D01*
X167747505Y-49989585D01*
X167628458Y-49870538D01*
X167509410Y-49632443D01*
X167509410Y-49037204D01*
X167628458Y-48680062D01*
X167509410Y-47965776D02*
X167509410Y-46537204D01*
X170009410Y-47251490D02*
X167509410Y-47251490D01*
X168699886Y-45703871D02*
X168699886Y-44870538D01*
X170009410Y-44513395D02*
X170009410Y-45703871D01*
X167509410Y-45703871D01*
X167509410Y-44513395D01*
X170009410Y-42013395D02*
X168818934Y-42846728D01*
X170009410Y-43441966D02*
X167509410Y-43441966D01*
X167509410Y-42489585D01*
X167628458Y-42251490D01*
X167747505Y-42132443D01*
X167985600Y-42013395D01*
X168342743Y-42013395D01*
X168580838Y-42132443D01*
X168699886Y-42251490D01*
X168818934Y-42489585D01*
X168818934Y-43441966D01*
D10*
X173003291Y-57537204D02*
X173003291Y-57156252D01*
X173231862Y-57613395D02*
X172431862Y-57346728D01*
X173231862Y-57080062D01*
X172508053Y-56851490D02*
X172469958Y-56813395D01*
X172431862Y-56737204D01*
X172431862Y-56546728D01*
X172469958Y-56470538D01*
X172508053Y-56432443D01*
X172584243Y-56394347D01*
X172660434Y-56394347D01*
X172774719Y-56432443D01*
X173231862Y-56889585D01*
X173231862Y-56394347D01*
X172431862Y-55899109D02*
X172431862Y-55822919D01*
X172469958Y-55746728D01*
X172508053Y-55708633D01*
X172584243Y-55670538D01*
X172736624Y-55632443D01*
X172927100Y-55632443D01*
X173079481Y-55670538D01*
X173155672Y-55708633D01*
X173193767Y-55746728D01*
X173231862Y-55822919D01*
X173231862Y-55899109D01*
X173193767Y-55975300D01*
X173155672Y-56013395D01*
X173079481Y-56051490D01*
X172927100Y-56089585D01*
X172736624Y-56089585D01*
X172584243Y-56051490D01*
X172508053Y-56013395D01*
X172469958Y-55975300D01*
X172431862Y-55899109D01*
X172431862Y-55137204D02*
X172431862Y-55061014D01*
X172469958Y-54984823D01*
X172508053Y-54946728D01*
X172584243Y-54908633D01*
X172736624Y-54870538D01*
X172927100Y-54870538D01*
X173079481Y-54908633D01*
X173155672Y-54946728D01*
X173193767Y-54984823D01*
X173231862Y-55061014D01*
X173231862Y-55137204D01*
X173193767Y-55213395D01*
X173155672Y-55251490D01*
X173079481Y-55289585D01*
X172927100Y-55327681D01*
X172736624Y-55327681D01*
X172584243Y-55289585D01*
X172508053Y-55251490D01*
X172469958Y-55213395D01*
X172431862Y-55137204D01*
X172431862Y-54375300D02*
X172431862Y-54299109D01*
X172469958Y-54222919D01*
X172508053Y-54184823D01*
X172584243Y-54146728D01*
X172736624Y-54108633D01*
X172927100Y-54108633D01*
X173079481Y-54146728D01*
X173155672Y-54184823D01*
X173193767Y-54222919D01*
X173231862Y-54299109D01*
X173231862Y-54375300D01*
X173193767Y-54451490D01*
X173155672Y-54489585D01*
X173079481Y-54527681D01*
X172927100Y-54565776D01*
X172736624Y-54565776D01*
X172584243Y-54527681D01*
X172508053Y-54489585D01*
X172469958Y-54451490D01*
X172431862Y-54375300D01*
X172812815Y-52889585D02*
X172850910Y-52775300D01*
X172889005Y-52737204D01*
X172965196Y-52699109D01*
X173079481Y-52699109D01*
X173155672Y-52737204D01*
X173193767Y-52775300D01*
X173231862Y-52851490D01*
X173231862Y-53156252D01*
X172431862Y-53156252D01*
X172431862Y-52889585D01*
X172469958Y-52813395D01*
X172508053Y-52775300D01*
X172584243Y-52737204D01*
X172660434Y-52737204D01*
X172736624Y-52775300D01*
X172774719Y-52813395D01*
X172812815Y-52889585D01*
X172812815Y-53156252D01*
X172698529Y-52013395D02*
X173231862Y-52013395D01*
X172698529Y-52356252D02*
X173117577Y-52356252D01*
X173193767Y-52318157D01*
X173231862Y-52241966D01*
X173231862Y-52127681D01*
X173193767Y-52051490D01*
X173155672Y-52013395D01*
X173193767Y-51670538D02*
X173231862Y-51594347D01*
X173231862Y-51441966D01*
X173193767Y-51365776D01*
X173117577Y-51327681D01*
X173079481Y-51327681D01*
X173003291Y-51365776D01*
X172965196Y-51441966D01*
X172965196Y-51556252D01*
X172927100Y-51632443D01*
X172850910Y-51670538D01*
X172812815Y-51670538D01*
X172736624Y-51632443D01*
X172698529Y-51556252D01*
X172698529Y-51441966D01*
X172736624Y-51365776D01*
X172698529Y-51099109D02*
X172698529Y-50794347D01*
X172431862Y-50984823D02*
X173117577Y-50984823D01*
X173193767Y-50946728D01*
X173231862Y-50870538D01*
X173231862Y-50794347D01*
X173193767Y-50222919D02*
X173231862Y-50299109D01*
X173231862Y-50451490D01*
X173193767Y-50527681D01*
X173117577Y-50565776D01*
X172812815Y-50565776D01*
X172736624Y-50527681D01*
X172698529Y-50451490D01*
X172698529Y-50299109D01*
X172736624Y-50222919D01*
X172812815Y-50184823D01*
X172889005Y-50184823D01*
X172965196Y-50565776D01*
X173231862Y-49841966D02*
X172698529Y-49841966D01*
X172850910Y-49841966D02*
X172774719Y-49803871D01*
X172736624Y-49765776D01*
X172698529Y-49689585D01*
X172698529Y-49613395D01*
X173231862Y-48737204D02*
X172698529Y-48737204D01*
X172850910Y-48737204D02*
X172774719Y-48699109D01*
X172736624Y-48661014D01*
X172698529Y-48584823D01*
X172698529Y-48508633D01*
X173193767Y-47937204D02*
X173231862Y-48013395D01*
X173231862Y-48165776D01*
X173193767Y-48241966D01*
X173117577Y-48280062D01*
X172812815Y-48280062D01*
X172736624Y-48241966D01*
X172698529Y-48165776D01*
X172698529Y-48013395D01*
X172736624Y-47937204D01*
X172812815Y-47899109D01*
X172889005Y-47899109D01*
X172965196Y-48280062D01*
X172698529Y-47556252D02*
X173498529Y-47556252D01*
X172736624Y-47556252D02*
X172698529Y-47480062D01*
X172698529Y-47327681D01*
X172736624Y-47251490D01*
X172774719Y-47213395D01*
X172850910Y-47175300D01*
X173079481Y-47175300D01*
X173155672Y-47213395D01*
X173193767Y-47251490D01*
X173231862Y-47327681D01*
X173231862Y-47480062D01*
X173193767Y-47556252D01*
X173231862Y-46718157D02*
X173193767Y-46794347D01*
X173117577Y-46832443D01*
X172431862Y-46832443D01*
X173231862Y-46070538D02*
X172812815Y-46070538D01*
X172736624Y-46108633D01*
X172698529Y-46184823D01*
X172698529Y-46337204D01*
X172736624Y-46413395D01*
X173193767Y-46070538D02*
X173231862Y-46146728D01*
X173231862Y-46337204D01*
X173193767Y-46413395D01*
X173117577Y-46451490D01*
X173041386Y-46451490D01*
X172965196Y-46413395D01*
X172927100Y-46337204D01*
X172927100Y-46146728D01*
X172889005Y-46070538D01*
X173193767Y-45346728D02*
X173231862Y-45422919D01*
X173231862Y-45575300D01*
X173193767Y-45651490D01*
X173155672Y-45689585D01*
X173079481Y-45727681D01*
X172850910Y-45727681D01*
X172774719Y-45689585D01*
X172736624Y-45651490D01*
X172698529Y-45575300D01*
X172698529Y-45422919D01*
X172736624Y-45346728D01*
X173193767Y-44699109D02*
X173231862Y-44775300D01*
X173231862Y-44927681D01*
X173193767Y-45003871D01*
X173117577Y-45041966D01*
X172812815Y-45041966D01*
X172736624Y-45003871D01*
X172698529Y-44927681D01*
X172698529Y-44775300D01*
X172736624Y-44699109D01*
X172812815Y-44661014D01*
X172889005Y-44661014D01*
X172965196Y-45041966D01*
X173231862Y-44318157D02*
X172698529Y-44318157D01*
X172774719Y-44318157D02*
X172736624Y-44280062D01*
X172698529Y-44203871D01*
X172698529Y-44089585D01*
X172736624Y-44013395D01*
X172812815Y-43975300D01*
X173231862Y-43975300D01*
X172812815Y-43975300D02*
X172736624Y-43937204D01*
X172698529Y-43861014D01*
X172698529Y-43746728D01*
X172736624Y-43670538D01*
X172812815Y-43632443D01*
X173231862Y-43632443D01*
X173193767Y-42946728D02*
X173231862Y-43022919D01*
X173231862Y-43175300D01*
X173193767Y-43251490D01*
X173117577Y-43289585D01*
X172812815Y-43289585D01*
X172736624Y-43251490D01*
X172698529Y-43175300D01*
X172698529Y-43022919D01*
X172736624Y-42946728D01*
X172812815Y-42908633D01*
X172889005Y-42908633D01*
X172965196Y-43289585D01*
X172698529Y-42565776D02*
X173231862Y-42565776D01*
X172774719Y-42565776D02*
X172736624Y-42527681D01*
X172698529Y-42451490D01*
X172698529Y-42337204D01*
X172736624Y-42261014D01*
X172812815Y-42222919D01*
X173231862Y-42222919D01*
X172698529Y-41956252D02*
X172698529Y-41651490D01*
X172431862Y-41841966D02*
X173117577Y-41841966D01*
X173193767Y-41803871D01*
X173231862Y-41727681D01*
X173231862Y-41651490D01*
X174100815Y-59994347D02*
X174138910Y-59880062D01*
X174177005Y-59841966D01*
X174253196Y-59803871D01*
X174367481Y-59803871D01*
X174443672Y-59841966D01*
X174481767Y-59880062D01*
X174519862Y-59956252D01*
X174519862Y-60261014D01*
X173719862Y-60261014D01*
X173719862Y-59994347D01*
X173757958Y-59918157D01*
X173796053Y-59880062D01*
X173872243Y-59841966D01*
X173948434Y-59841966D01*
X174024624Y-59880062D01*
X174062719Y-59918157D01*
X174100815Y-59994347D01*
X174100815Y-60261014D01*
X173986529Y-59537204D02*
X174519862Y-59346728D01*
X173986529Y-59156252D02*
X174519862Y-59346728D01*
X174710338Y-59422919D01*
X174748434Y-59461014D01*
X174786529Y-59537204D01*
X174519862Y-58241966D02*
X173719862Y-58241966D01*
X174291291Y-57975300D01*
X173719862Y-57708633D01*
X174519862Y-57708633D01*
X174519862Y-56984823D02*
X174100815Y-56984823D01*
X174024624Y-57022919D01*
X173986529Y-57099109D01*
X173986529Y-57251490D01*
X174024624Y-57327681D01*
X174481767Y-56984823D02*
X174519862Y-57061014D01*
X174519862Y-57251490D01*
X174481767Y-57327681D01*
X174405577Y-57365776D01*
X174329386Y-57365776D01*
X174253196Y-57327681D01*
X174215100Y-57251490D01*
X174215100Y-57061014D01*
X174177005Y-56984823D01*
X173986529Y-56718157D02*
X173986529Y-56413395D01*
X173719862Y-56603871D02*
X174405577Y-56603871D01*
X174481767Y-56565776D01*
X174519862Y-56489585D01*
X174519862Y-56413395D01*
X173986529Y-56261014D02*
X173986529Y-55956252D01*
X173719862Y-56146728D02*
X174405577Y-56146728D01*
X174481767Y-56108633D01*
X174519862Y-56032443D01*
X174519862Y-55956252D01*
X174519862Y-55080062D02*
X173719862Y-55080062D01*
X174100815Y-55080062D02*
X174100815Y-54622919D01*
X174519862Y-54622919D02*
X173719862Y-54622919D01*
X174519862Y-53899109D02*
X174100815Y-53899109D01*
X174024624Y-53937204D01*
X173986529Y-54013395D01*
X173986529Y-54165776D01*
X174024624Y-54241966D01*
X174481767Y-53899109D02*
X174519862Y-53975300D01*
X174519862Y-54165776D01*
X174481767Y-54241966D01*
X174405577Y-54280062D01*
X174329386Y-54280062D01*
X174253196Y-54241966D01*
X174215100Y-54165776D01*
X174215100Y-53975300D01*
X174177005Y-53899109D01*
X174519862Y-53518157D02*
X173986529Y-53518157D01*
X174138910Y-53518157D02*
X174062719Y-53480062D01*
X174024624Y-53441966D01*
X173986529Y-53365776D01*
X173986529Y-53289585D01*
X174519862Y-52908633D02*
X174481767Y-52984823D01*
X174405577Y-53022919D01*
X173719862Y-53022919D01*
X173986529Y-52261014D02*
X174519862Y-52261014D01*
X173986529Y-52603871D02*
X174405577Y-52603871D01*
X174481767Y-52565776D01*
X174519862Y-52489585D01*
X174519862Y-52375300D01*
X174481767Y-52299109D01*
X174443672Y-52261014D01*
X174519862Y-51880062D02*
X173986529Y-51880062D01*
X174062719Y-51880062D02*
X174024624Y-51841966D01*
X173986529Y-51765776D01*
X173986529Y-51651490D01*
X174024624Y-51575300D01*
X174100815Y-51537204D01*
X174519862Y-51537204D01*
X174100815Y-51537204D02*
X174024624Y-51499109D01*
X173986529Y-51422919D01*
X173986529Y-51308633D01*
X174024624Y-51232443D01*
X174100815Y-51194347D01*
X174519862Y-51194347D01*
X174215100Y-50203871D02*
X174215100Y-49594347D01*
X173757958Y-48184823D02*
X173719862Y-48261014D01*
X173719862Y-48375300D01*
X173757958Y-48489585D01*
X173834148Y-48565776D01*
X173910338Y-48603871D01*
X174062719Y-48641966D01*
X174177005Y-48641966D01*
X174329386Y-48603871D01*
X174405577Y-48565776D01*
X174481767Y-48489585D01*
X174519862Y-48375300D01*
X174519862Y-48299109D01*
X174481767Y-48184823D01*
X174443672Y-48146728D01*
X174177005Y-48146728D01*
X174177005Y-48299109D01*
X174519862Y-47803871D02*
X173986529Y-47803871D01*
X173719862Y-47803871D02*
X173757958Y-47841966D01*
X173796053Y-47803871D01*
X173757958Y-47765776D01*
X173719862Y-47803871D01*
X173796053Y-47803871D01*
X173986529Y-47537204D02*
X173986529Y-47232443D01*
X173719862Y-47422919D02*
X174405577Y-47422919D01*
X174481767Y-47384823D01*
X174519862Y-47308633D01*
X174519862Y-47232443D01*
X174519862Y-46965776D02*
X173719862Y-46965776D01*
X174519862Y-46622919D02*
X174100815Y-46622919D01*
X174024624Y-46661014D01*
X173986529Y-46737204D01*
X173986529Y-46851490D01*
X174024624Y-46927681D01*
X174062719Y-46965776D01*
X173986529Y-45899109D02*
X174519862Y-45899109D01*
X173986529Y-46241966D02*
X174405577Y-46241966D01*
X174481767Y-46203871D01*
X174519862Y-46127681D01*
X174519862Y-46013395D01*
X174481767Y-45937204D01*
X174443672Y-45899109D01*
X174519862Y-45518157D02*
X173719862Y-45518157D01*
X174024624Y-45518157D02*
X173986529Y-45441966D01*
X173986529Y-45289585D01*
X174024624Y-45213395D01*
X174062719Y-45175300D01*
X174138910Y-45137204D01*
X174367481Y-45137204D01*
X174443672Y-45175300D01*
X174481767Y-45213395D01*
X174519862Y-45289585D01*
X174519862Y-45441966D01*
X174481767Y-45518157D01*
X174443672Y-44794347D02*
X174481767Y-44756252D01*
X174519862Y-44794347D01*
X174481767Y-44832443D01*
X174443672Y-44794347D01*
X174519862Y-44794347D01*
X174481767Y-44070538D02*
X174519862Y-44146728D01*
X174519862Y-44299109D01*
X174481767Y-44375300D01*
X174443672Y-44413395D01*
X174367481Y-44451490D01*
X174138910Y-44451490D01*
X174062719Y-44413395D01*
X174024624Y-44375300D01*
X173986529Y-44299109D01*
X173986529Y-44146728D01*
X174024624Y-44070538D01*
X174519862Y-43613395D02*
X174481767Y-43689585D01*
X174443672Y-43727681D01*
X174367481Y-43765776D01*
X174138910Y-43765776D01*
X174062719Y-43727681D01*
X174024624Y-43689585D01*
X173986529Y-43613395D01*
X173986529Y-43499109D01*
X174024624Y-43422919D01*
X174062719Y-43384823D01*
X174138910Y-43346728D01*
X174367481Y-43346728D01*
X174443672Y-43384823D01*
X174481767Y-43422919D01*
X174519862Y-43499109D01*
X174519862Y-43613395D01*
X174519862Y-43003871D02*
X173986529Y-43003871D01*
X174062719Y-43003871D02*
X174024624Y-42965776D01*
X173986529Y-42889585D01*
X173986529Y-42775300D01*
X174024624Y-42699109D01*
X174100815Y-42661014D01*
X174519862Y-42661014D01*
X174100815Y-42661014D02*
X174024624Y-42622919D01*
X173986529Y-42546728D01*
X173986529Y-42432443D01*
X174024624Y-42356252D01*
X174100815Y-42318157D01*
X174519862Y-42318157D01*
X173681767Y-41365776D02*
X174710338Y-42051490D01*
X174519862Y-40718157D02*
X174519862Y-41099109D01*
X173719862Y-41099109D01*
X174519862Y-40451490D02*
X173719862Y-40451490D01*
X173719862Y-40184823D02*
X174519862Y-39918157D01*
X173719862Y-39651490D01*
X173796053Y-39422919D02*
X173757958Y-39384823D01*
X173719862Y-39308633D01*
X173719862Y-39118157D01*
X173757958Y-39041966D01*
X173796053Y-39003871D01*
X173872243Y-38965776D01*
X173948434Y-38965776D01*
X174062719Y-39003871D01*
X174519862Y-39461014D01*
X174519862Y-38965776D01*
%TO.C,U1*%
X174246057Y-63216538D02*
X174818477Y-62644118D01*
X174852149Y-62543103D01*
X174852149Y-62475759D01*
X174818477Y-62374744D01*
X174683790Y-62240057D01*
X174582775Y-62206385D01*
X174515431Y-62206385D01*
X174414416Y-62240057D01*
X173841996Y-62812477D01*
X173841996Y-61398263D02*
X174246057Y-61802324D01*
X174044027Y-61600294D02*
X173336920Y-62307400D01*
X173505279Y-62273729D01*
X173639966Y-62273729D01*
X173740981Y-62307400D01*
X170732410Y-69423925D02*
X170665066Y-69289238D01*
X170665066Y-69221895D01*
X170698738Y-69120879D01*
X170799753Y-69019864D01*
X170900769Y-68986192D01*
X170968112Y-68986192D01*
X171069127Y-69019864D01*
X171338501Y-69289238D01*
X170631395Y-69996345D01*
X170395692Y-69760643D01*
X170362021Y-69659627D01*
X170362021Y-69592284D01*
X170395692Y-69491269D01*
X170463036Y-69423925D01*
X170564051Y-69390253D01*
X170631395Y-69390253D01*
X170732410Y-69423925D01*
X170968112Y-69659627D01*
X170294677Y-68245414D02*
X170631395Y-68582131D01*
X169924288Y-69289238D01*
X169351868Y-68716818D02*
X169924288Y-68144399D01*
X169957960Y-68043383D01*
X169957960Y-67976040D01*
X169924288Y-67875025D01*
X169789601Y-67740338D01*
X169688586Y-67706666D01*
X169621242Y-67706666D01*
X169520227Y-67740338D01*
X168947807Y-68312757D01*
X169318196Y-67336277D02*
X169250853Y-67201590D01*
X169082494Y-67033231D01*
X168981479Y-66999559D01*
X168914135Y-66999559D01*
X168813120Y-67033231D01*
X168745777Y-67100574D01*
X168712105Y-67201590D01*
X168712105Y-67268933D01*
X168745777Y-67369948D01*
X168846792Y-67538307D01*
X168880464Y-67639322D01*
X168880464Y-67706666D01*
X168846792Y-67807681D01*
X168779448Y-67875025D01*
X168678433Y-67908696D01*
X168611090Y-67908696D01*
X168510074Y-67875025D01*
X168341716Y-67706666D01*
X168274372Y-67571979D01*
X168038670Y-67403620D02*
X167634609Y-66999559D01*
X168543746Y-66494483D02*
X167836639Y-67201590D01*
X167735624Y-66427139D02*
X167499922Y-66191437D01*
X167769296Y-65720033D02*
X168106013Y-66056750D01*
X167398907Y-66763857D01*
X167062189Y-66427139D01*
X167062189Y-65012926D02*
X166961174Y-65585346D01*
X167466250Y-65416987D02*
X166759143Y-66124094D01*
X166489769Y-65854720D01*
X166456098Y-65753704D01*
X166456098Y-65686361D01*
X166489769Y-65585346D01*
X166590785Y-65484330D01*
X166691800Y-65450659D01*
X166759143Y-65450659D01*
X166860159Y-65484330D01*
X167129533Y-65753704D01*
%TO.C,J2*%
X168608624Y-77332380D02*
X168608624Y-78046666D01*
X168561005Y-78189523D01*
X168465767Y-78284761D01*
X168322910Y-78332380D01*
X168227672Y-78332380D01*
X169037196Y-77427619D02*
X169084815Y-77380000D01*
X169180053Y-77332380D01*
X169418148Y-77332380D01*
X169513386Y-77380000D01*
X169561005Y-77427619D01*
X169608624Y-77522857D01*
X169608624Y-77618095D01*
X169561005Y-77760952D01*
X168989577Y-78332380D01*
X169608624Y-78332380D01*
D12*
%TO.C,U1*%
X166742039Y-60034187D02*
G75*
G03*
X166705346Y-60062836I-134704J134704D01*
G01*
D13*
X166742039Y-60034187D02*
X166472631Y-60034187D01*
X166472631Y-60034187D02*
X166472631Y-59764780D01*
X166472631Y-59764780D02*
X166742039Y-59764780D01*
X166742039Y-59764780D02*
X166742039Y-60034187D01*
G36*
X166742039Y-60034187D02*
G01*
X166472631Y-60034187D01*
X166472631Y-59764780D01*
X166742039Y-59764780D01*
X166742039Y-60034187D01*
G37*
X166742039Y-60034187D02*
X166472631Y-60034187D01*
X166472631Y-59764780D01*
X166742039Y-59764780D01*
X166742039Y-60034187D01*
D12*
%TO.C,J2*%
X167611958Y-94240000D02*
X170271958Y-94240000D01*
X167611958Y-81480000D02*
X170271958Y-81480000D01*
X167611958Y-80210000D02*
X167611958Y-78880000D01*
X167611958Y-81480000D02*
X167611958Y-94240000D01*
X167611958Y-78880000D02*
X168941958Y-78880000D01*
X170271958Y-81480000D02*
X170271958Y-94240000D01*
%TD*%
M02*
