%TF.GenerationSoftware,KiCad,Pcbnew,(5.1.9)-1*%
%TF.CreationDate,2021-02-10T01:52:36+01:00*%
%TF.ProjectId,Bluster,426c7573-7465-4722-9e6b-696361645f70,rev?*%
%TF.SameCoordinates,Original*%
%TF.FileFunction,Copper,L1,Top*%
%TF.FilePolarity,Positive*%
%FSLAX46Y46*%
G04 Gerber Fmt 4.6, Leading zero omitted, Abs format (unit mm)*
G04 Created by KiCad (PCBNEW (5.1.9)-1) date 2021-02-10 01:52:36*
%MOMM*%
%LPD*%
G01*
G04 APERTURE LIST*
%TA.AperFunction,ComponentPad*%
%ADD10O,1.600000X1.600000*%
%TD*%
%TA.AperFunction,ComponentPad*%
%ADD11R,1.600000X1.600000*%
%TD*%
%TA.AperFunction,ComponentPad*%
%ADD12O,1.700000X1.700000*%
%TD*%
%TA.AperFunction,ComponentPad*%
%ADD13R,1.700000X1.700000*%
%TD*%
%TA.AperFunction,ViaPad*%
%ADD14C,0.800000*%
%TD*%
%TA.AperFunction,Conductor*%
%ADD15C,0.127000*%
%TD*%
%TA.AperFunction,Conductor*%
%ADD16C,0.400000*%
%TD*%
%TA.AperFunction,Conductor*%
%ADD17C,0.254000*%
%TD*%
%TA.AperFunction,Conductor*%
%ADD18C,0.100000*%
%TD*%
G04 APERTURE END LIST*
%TO.P,U2,64*%
%TO.N,/DOE*%
%TA.AperFunction,SMDPad,CuDef*%
G36*
G01*
X169687818Y-104196749D02*
X170624734Y-103259833D01*
G75*
G02*
X170730800Y-103259833I53033J-53033D01*
G01*
X170836866Y-103365899D01*
G75*
G02*
X170836866Y-103471965I-53033J-53033D01*
G01*
X169899950Y-104408881D01*
G75*
G02*
X169793884Y-104408881I-53033J53033D01*
G01*
X169687818Y-104302815D01*
G75*
G02*
X169687818Y-104196749I53033J53033D01*
G01*
G37*
%TD.AperFunction*%
%TO.P,U2,63*%
%TO.N,/~DBOE*%
%TA.AperFunction,SMDPad,CuDef*%
G36*
G01*
X170041371Y-104550303D02*
X170978287Y-103613387D01*
G75*
G02*
X171084353Y-103613387I53033J-53033D01*
G01*
X171190419Y-103719453D01*
G75*
G02*
X171190419Y-103825519I-53033J-53033D01*
G01*
X170253503Y-104762435D01*
G75*
G02*
X170147437Y-104762435I-53033J53033D01*
G01*
X170041371Y-104656369D01*
G75*
G02*
X170041371Y-104550303I53033J53033D01*
G01*
G37*
%TD.AperFunction*%
%TO.P,U2,62*%
%TO.N,/D2P*%
%TA.AperFunction,SMDPad,CuDef*%
G36*
G01*
X170394925Y-104903856D02*
X171331841Y-103966940D01*
G75*
G02*
X171437907Y-103966940I53033J-53033D01*
G01*
X171543973Y-104073006D01*
G75*
G02*
X171543973Y-104179072I-53033J-53033D01*
G01*
X170607057Y-105115988D01*
G75*
G02*
X170500991Y-105115988I-53033J53033D01*
G01*
X170394925Y-105009922D01*
G75*
G02*
X170394925Y-104903856I53033J53033D01*
G01*
G37*
%TD.AperFunction*%
%TO.P,U2,61*%
%TO.N,/~RST*%
%TA.AperFunction,SMDPad,CuDef*%
G36*
G01*
X170748478Y-105257410D02*
X171685394Y-104320494D01*
G75*
G02*
X171791460Y-104320494I53033J-53033D01*
G01*
X171897526Y-104426560D01*
G75*
G02*
X171897526Y-104532626I-53033J-53033D01*
G01*
X170960610Y-105469542D01*
G75*
G02*
X170854544Y-105469542I-53033J53033D01*
G01*
X170748478Y-105363476D01*
G75*
G02*
X170748478Y-105257410I53033J53033D01*
G01*
G37*
%TD.AperFunction*%
%TO.P,U2,60*%
%TO.N,/~OWN*%
%TA.AperFunction,SMDPad,CuDef*%
G36*
G01*
X171102031Y-105610963D02*
X172038947Y-104674047D01*
G75*
G02*
X172145013Y-104674047I53033J-53033D01*
G01*
X172251079Y-104780113D01*
G75*
G02*
X172251079Y-104886179I-53033J-53033D01*
G01*
X171314163Y-105823095D01*
G75*
G02*
X171208097Y-105823095I-53033J53033D01*
G01*
X171102031Y-105717029D01*
G75*
G02*
X171102031Y-105610963I53033J53033D01*
G01*
G37*
%TD.AperFunction*%
%TO.P,U2,59*%
%TO.N,/~OVR*%
%TA.AperFunction,SMDPad,CuDef*%
G36*
G01*
X171455585Y-105964516D02*
X172392501Y-105027600D01*
G75*
G02*
X172498567Y-105027600I53033J-53033D01*
G01*
X172604633Y-105133666D01*
G75*
G02*
X172604633Y-105239732I-53033J-53033D01*
G01*
X171667717Y-106176648D01*
G75*
G02*
X171561651Y-106176648I-53033J53033D01*
G01*
X171455585Y-106070582D01*
G75*
G02*
X171455585Y-105964516I53033J53033D01*
G01*
G37*
%TD.AperFunction*%
%TO.P,U2,58*%
%TO.N,/~BOSS*%
%TA.AperFunction,SMDPad,CuDef*%
G36*
G01*
X171809138Y-106318070D02*
X172746054Y-105381154D01*
G75*
G02*
X172852120Y-105381154I53033J-53033D01*
G01*
X172958186Y-105487220D01*
G75*
G02*
X172958186Y-105593286I-53033J-53033D01*
G01*
X172021270Y-106530202D01*
G75*
G02*
X171915204Y-106530202I-53033J53033D01*
G01*
X171809138Y-106424136D01*
G75*
G02*
X171809138Y-106318070I53033J53033D01*
G01*
G37*
%TD.AperFunction*%
%TO.P,U2,57*%
%TO.N,/~UDS*%
%TA.AperFunction,SMDPad,CuDef*%
G36*
G01*
X172162691Y-106671623D02*
X173099607Y-105734707D01*
G75*
G02*
X173205673Y-105734707I53033J-53033D01*
G01*
X173311739Y-105840773D01*
G75*
G02*
X173311739Y-105946839I-53033J-53033D01*
G01*
X172374823Y-106883755D01*
G75*
G02*
X172268757Y-106883755I-53033J53033D01*
G01*
X172162691Y-106777689D01*
G75*
G02*
X172162691Y-106671623I53033J53033D01*
G01*
G37*
%TD.AperFunction*%
%TO.P,U2,56*%
%TO.N,/~LDS*%
%TA.AperFunction,SMDPad,CuDef*%
G36*
G01*
X172516245Y-107025177D02*
X173453161Y-106088261D01*
G75*
G02*
X173559227Y-106088261I53033J-53033D01*
G01*
X173665293Y-106194327D01*
G75*
G02*
X173665293Y-106300393I-53033J-53033D01*
G01*
X172728377Y-107237309D01*
G75*
G02*
X172622311Y-107237309I-53033J53033D01*
G01*
X172516245Y-107131243D01*
G75*
G02*
X172516245Y-107025177I53033J53033D01*
G01*
G37*
%TD.AperFunction*%
%TO.P,U2,55*%
%TO.N,+3V3*%
%TA.AperFunction,SMDPad,CuDef*%
G36*
G01*
X172869798Y-107378730D02*
X173806714Y-106441814D01*
G75*
G02*
X173912780Y-106441814I53033J-53033D01*
G01*
X174018846Y-106547880D01*
G75*
G02*
X174018846Y-106653946I-53033J-53033D01*
G01*
X173081930Y-107590862D01*
G75*
G02*
X172975864Y-107590862I-53033J53033D01*
G01*
X172869798Y-107484796D01*
G75*
G02*
X172869798Y-107378730I53033J53033D01*
G01*
G37*
%TD.AperFunction*%
%TO.P,U2,54*%
%TO.N,GND*%
%TA.AperFunction,SMDPad,CuDef*%
G36*
G01*
X173223352Y-107732283D02*
X174160268Y-106795367D01*
G75*
G02*
X174266334Y-106795367I53033J-53033D01*
G01*
X174372400Y-106901433D01*
G75*
G02*
X174372400Y-107007499I-53033J-53033D01*
G01*
X173435484Y-107944415D01*
G75*
G02*
X173329418Y-107944415I-53033J53033D01*
G01*
X173223352Y-107838349D01*
G75*
G02*
X173223352Y-107732283I53033J53033D01*
G01*
G37*
%TD.AperFunction*%
%TO.P,U2,53*%
%TO.N,/TDO*%
%TA.AperFunction,SMDPad,CuDef*%
G36*
G01*
X173576905Y-108085837D02*
X174513821Y-107148921D01*
G75*
G02*
X174619887Y-107148921I53033J-53033D01*
G01*
X174725953Y-107254987D01*
G75*
G02*
X174725953Y-107361053I-53033J-53033D01*
G01*
X173789037Y-108297969D01*
G75*
G02*
X173682971Y-108297969I-53033J53033D01*
G01*
X173576905Y-108191903D01*
G75*
G02*
X173576905Y-108085837I53033J53033D01*
G01*
G37*
%TD.AperFunction*%
%TO.P,U2,52*%
%TO.N,/~AS*%
%TA.AperFunction,SMDPad,CuDef*%
G36*
G01*
X173930458Y-108439390D02*
X174867374Y-107502474D01*
G75*
G02*
X174973440Y-107502474I53033J-53033D01*
G01*
X175079506Y-107608540D01*
G75*
G02*
X175079506Y-107714606I-53033J-53033D01*
G01*
X174142590Y-108651522D01*
G75*
G02*
X174036524Y-108651522I-53033J53033D01*
G01*
X173930458Y-108545456D01*
G75*
G02*
X173930458Y-108439390I53033J53033D01*
G01*
G37*
%TD.AperFunction*%
%TO.P,U2,51*%
%TO.N,/READ*%
%TA.AperFunction,SMDPad,CuDef*%
G36*
G01*
X174284012Y-108792943D02*
X175220928Y-107856027D01*
G75*
G02*
X175326994Y-107856027I53033J-53033D01*
G01*
X175433060Y-107962093D01*
G75*
G02*
X175433060Y-108068159I-53033J-53033D01*
G01*
X174496144Y-109005075D01*
G75*
G02*
X174390078Y-109005075I-53033J53033D01*
G01*
X174284012Y-108899009D01*
G75*
G02*
X174284012Y-108792943I53033J53033D01*
G01*
G37*
%TD.AperFunction*%
%TO.P,U2,50*%
%TO.N,/~A23*%
%TA.AperFunction,SMDPad,CuDef*%
G36*
G01*
X174637565Y-109146497D02*
X175574481Y-108209581D01*
G75*
G02*
X175680547Y-108209581I53033J-53033D01*
G01*
X175786613Y-108315647D01*
G75*
G02*
X175786613Y-108421713I-53033J-53033D01*
G01*
X174849697Y-109358629D01*
G75*
G02*
X174743631Y-109358629I-53033J53033D01*
G01*
X174637565Y-109252563D01*
G75*
G02*
X174637565Y-109146497I53033J53033D01*
G01*
G37*
%TD.AperFunction*%
%TO.P,U2,49*%
%TO.N,/~A22*%
%TA.AperFunction,SMDPad,CuDef*%
G36*
G01*
X174991119Y-109500050D02*
X175928035Y-108563134D01*
G75*
G02*
X176034101Y-108563134I53033J-53033D01*
G01*
X176140167Y-108669200D01*
G75*
G02*
X176140167Y-108775266I-53033J-53033D01*
G01*
X175203251Y-109712182D01*
G75*
G02*
X175097185Y-109712182I-53033J53033D01*
G01*
X174991119Y-109606116D01*
G75*
G02*
X174991119Y-109500050I53033J53033D01*
G01*
G37*
%TD.AperFunction*%
%TO.P,U2,48*%
%TO.N,/~A21*%
%TA.AperFunction,SMDPad,CuDef*%
G36*
G01*
X174991119Y-111373884D02*
X175097185Y-111267818D01*
G75*
G02*
X175203251Y-111267818I53033J-53033D01*
G01*
X176140167Y-112204734D01*
G75*
G02*
X176140167Y-112310800I-53033J-53033D01*
G01*
X176034101Y-112416866D01*
G75*
G02*
X175928035Y-112416866I-53033J53033D01*
G01*
X174991119Y-111479950D01*
G75*
G02*
X174991119Y-111373884I53033J53033D01*
G01*
G37*
%TD.AperFunction*%
%TO.P,U2,47*%
%TO.N,/~A20*%
%TA.AperFunction,SMDPad,CuDef*%
G36*
G01*
X174637565Y-111727437D02*
X174743631Y-111621371D01*
G75*
G02*
X174849697Y-111621371I53033J-53033D01*
G01*
X175786613Y-112558287D01*
G75*
G02*
X175786613Y-112664353I-53033J-53033D01*
G01*
X175680547Y-112770419D01*
G75*
G02*
X175574481Y-112770419I-53033J53033D01*
G01*
X174637565Y-111833503D01*
G75*
G02*
X174637565Y-111727437I53033J53033D01*
G01*
G37*
%TD.AperFunction*%
%TO.P,U2,46*%
%TO.N,/~A19*%
%TA.AperFunction,SMDPad,CuDef*%
G36*
G01*
X174284012Y-112080991D02*
X174390078Y-111974925D01*
G75*
G02*
X174496144Y-111974925I53033J-53033D01*
G01*
X175433060Y-112911841D01*
G75*
G02*
X175433060Y-113017907I-53033J-53033D01*
G01*
X175326994Y-113123973D01*
G75*
G02*
X175220928Y-113123973I-53033J53033D01*
G01*
X174284012Y-112187057D01*
G75*
G02*
X174284012Y-112080991I53033J53033D01*
G01*
G37*
%TD.AperFunction*%
%TO.P,U2,45*%
%TO.N,/~CBG*%
%TA.AperFunction,SMDPad,CuDef*%
G36*
G01*
X173930458Y-112434544D02*
X174036524Y-112328478D01*
G75*
G02*
X174142590Y-112328478I53033J-53033D01*
G01*
X175079506Y-113265394D01*
G75*
G02*
X175079506Y-113371460I-53033J-53033D01*
G01*
X174973440Y-113477526D01*
G75*
G02*
X174867374Y-113477526I-53033J53033D01*
G01*
X173930458Y-112540610D01*
G75*
G02*
X173930458Y-112434544I53033J53033D01*
G01*
G37*
%TD.AperFunction*%
%TO.P,U2,44*%
%TO.N,/~CBR*%
%TA.AperFunction,SMDPad,CuDef*%
G36*
G01*
X173576905Y-112788097D02*
X173682971Y-112682031D01*
G75*
G02*
X173789037Y-112682031I53033J-53033D01*
G01*
X174725953Y-113618947D01*
G75*
G02*
X174725953Y-113725013I-53033J-53033D01*
G01*
X174619887Y-113831079D01*
G75*
G02*
X174513821Y-113831079I-53033J53033D01*
G01*
X173576905Y-112894163D01*
G75*
G02*
X173576905Y-112788097I53033J53033D01*
G01*
G37*
%TD.AperFunction*%
%TO.P,U2,43*%
%TO.N,/~BR*%
%TA.AperFunction,SMDPad,CuDef*%
G36*
G01*
X173223352Y-113141651D02*
X173329418Y-113035585D01*
G75*
G02*
X173435484Y-113035585I53033J-53033D01*
G01*
X174372400Y-113972501D01*
G75*
G02*
X174372400Y-114078567I-53033J-53033D01*
G01*
X174266334Y-114184633D01*
G75*
G02*
X174160268Y-114184633I-53033J53033D01*
G01*
X173223352Y-113247717D01*
G75*
G02*
X173223352Y-113141651I53033J53033D01*
G01*
G37*
%TD.AperFunction*%
%TO.P,U2,42*%
%TO.N,/~BEER*%
%TA.AperFunction,SMDPad,CuDef*%
G36*
G01*
X172869798Y-113495204D02*
X172975864Y-113389138D01*
G75*
G02*
X173081930Y-113389138I53033J-53033D01*
G01*
X174018846Y-114326054D01*
G75*
G02*
X174018846Y-114432120I-53033J-53033D01*
G01*
X173912780Y-114538186D01*
G75*
G02*
X173806714Y-114538186I-53033J53033D01*
G01*
X172869798Y-113601270D01*
G75*
G02*
X172869798Y-113495204I53033J53033D01*
G01*
G37*
%TD.AperFunction*%
%TO.P,U2,41*%
%TO.N,GND*%
%TA.AperFunction,SMDPad,CuDef*%
G36*
G01*
X172516245Y-113848757D02*
X172622311Y-113742691D01*
G75*
G02*
X172728377Y-113742691I53033J-53033D01*
G01*
X173665293Y-114679607D01*
G75*
G02*
X173665293Y-114785673I-53033J-53033D01*
G01*
X173559227Y-114891739D01*
G75*
G02*
X173453161Y-114891739I-53033J53033D01*
G01*
X172516245Y-113954823D01*
G75*
G02*
X172516245Y-113848757I53033J53033D01*
G01*
G37*
%TD.AperFunction*%
%TO.P,U2,40*%
%TO.N,Net-(U2-Pad40)*%
%TA.AperFunction,SMDPad,CuDef*%
G36*
G01*
X172162691Y-114202311D02*
X172268757Y-114096245D01*
G75*
G02*
X172374823Y-114096245I53033J-53033D01*
G01*
X173311739Y-115033161D01*
G75*
G02*
X173311739Y-115139227I-53033J-53033D01*
G01*
X173205673Y-115245293D01*
G75*
G02*
X173099607Y-115245293I-53033J53033D01*
G01*
X172162691Y-114308377D01*
G75*
G02*
X172162691Y-114202311I53033J53033D01*
G01*
G37*
%TD.AperFunction*%
%TO.P,U2,39*%
%TO.N,Net-(U2-Pad39)*%
%TA.AperFunction,SMDPad,CuDef*%
G36*
G01*
X171809138Y-114555864D02*
X171915204Y-114449798D01*
G75*
G02*
X172021270Y-114449798I53033J-53033D01*
G01*
X172958186Y-115386714D01*
G75*
G02*
X172958186Y-115492780I-53033J-53033D01*
G01*
X172852120Y-115598846D01*
G75*
G02*
X172746054Y-115598846I-53033J53033D01*
G01*
X171809138Y-114661930D01*
G75*
G02*
X171809138Y-114555864I53033J53033D01*
G01*
G37*
%TD.AperFunction*%
%TO.P,U2,38*%
%TO.N,Net-(U2-Pad38)*%
%TA.AperFunction,SMDPad,CuDef*%
G36*
G01*
X171455585Y-114909418D02*
X171561651Y-114803352D01*
G75*
G02*
X171667717Y-114803352I53033J-53033D01*
G01*
X172604633Y-115740268D01*
G75*
G02*
X172604633Y-115846334I-53033J-53033D01*
G01*
X172498567Y-115952400D01*
G75*
G02*
X172392501Y-115952400I-53033J53033D01*
G01*
X171455585Y-115015484D01*
G75*
G02*
X171455585Y-114909418I53033J53033D01*
G01*
G37*
%TD.AperFunction*%
%TO.P,U2,37*%
%TO.N,+3V3*%
%TA.AperFunction,SMDPad,CuDef*%
G36*
G01*
X171102031Y-115262971D02*
X171208097Y-115156905D01*
G75*
G02*
X171314163Y-115156905I53033J-53033D01*
G01*
X172251079Y-116093821D01*
G75*
G02*
X172251079Y-116199887I-53033J-53033D01*
G01*
X172145013Y-116305953D01*
G75*
G02*
X172038947Y-116305953I-53033J53033D01*
G01*
X171102031Y-115369037D01*
G75*
G02*
X171102031Y-115262971I53033J53033D01*
G01*
G37*
%TD.AperFunction*%
%TO.P,U2,36*%
%TO.N,Net-(U2-Pad36)*%
%TA.AperFunction,SMDPad,CuDef*%
G36*
G01*
X170748478Y-115616524D02*
X170854544Y-115510458D01*
G75*
G02*
X170960610Y-115510458I53033J-53033D01*
G01*
X171897526Y-116447374D01*
G75*
G02*
X171897526Y-116553440I-53033J-53033D01*
G01*
X171791460Y-116659506D01*
G75*
G02*
X171685394Y-116659506I-53033J53033D01*
G01*
X170748478Y-115722590D01*
G75*
G02*
X170748478Y-115616524I53033J53033D01*
G01*
G37*
%TD.AperFunction*%
%TO.P,U2,35*%
%TO.N,Net-(U2-Pad35)*%
%TA.AperFunction,SMDPad,CuDef*%
G36*
G01*
X170394925Y-115970078D02*
X170500991Y-115864012D01*
G75*
G02*
X170607057Y-115864012I53033J-53033D01*
G01*
X171543973Y-116800928D01*
G75*
G02*
X171543973Y-116906994I-53033J-53033D01*
G01*
X171437907Y-117013060D01*
G75*
G02*
X171331841Y-117013060I-53033J53033D01*
G01*
X170394925Y-116076144D01*
G75*
G02*
X170394925Y-115970078I53033J53033D01*
G01*
G37*
%TD.AperFunction*%
%TO.P,U2,34*%
%TO.N,Net-(U2-Pad34)*%
%TA.AperFunction,SMDPad,CuDef*%
G36*
G01*
X170041371Y-116323631D02*
X170147437Y-116217565D01*
G75*
G02*
X170253503Y-116217565I53033J-53033D01*
G01*
X171190419Y-117154481D01*
G75*
G02*
X171190419Y-117260547I-53033J-53033D01*
G01*
X171084353Y-117366613D01*
G75*
G02*
X170978287Y-117366613I-53033J53033D01*
G01*
X170041371Y-116429697D01*
G75*
G02*
X170041371Y-116323631I53033J53033D01*
G01*
G37*
%TD.AperFunction*%
%TO.P,U2,33*%
%TO.N,Net-(U2-Pad33)*%
%TA.AperFunction,SMDPad,CuDef*%
G36*
G01*
X169687818Y-116677185D02*
X169793884Y-116571119D01*
G75*
G02*
X169899950Y-116571119I53033J-53033D01*
G01*
X170836866Y-117508035D01*
G75*
G02*
X170836866Y-117614101I-53033J-53033D01*
G01*
X170730800Y-117720167D01*
G75*
G02*
X170624734Y-117720167I-53033J53033D01*
G01*
X169687818Y-116783251D01*
G75*
G02*
X169687818Y-116677185I53033J53033D01*
G01*
G37*
%TD.AperFunction*%
%TO.P,U2,32*%
%TO.N,Net-(U2-Pad32)*%
%TA.AperFunction,SMDPad,CuDef*%
G36*
G01*
X166983134Y-117508035D02*
X167920050Y-116571119D01*
G75*
G02*
X168026116Y-116571119I53033J-53033D01*
G01*
X168132182Y-116677185D01*
G75*
G02*
X168132182Y-116783251I-53033J-53033D01*
G01*
X167195266Y-117720167D01*
G75*
G02*
X167089200Y-117720167I-53033J53033D01*
G01*
X166983134Y-117614101D01*
G75*
G02*
X166983134Y-117508035I53033J53033D01*
G01*
G37*
%TD.AperFunction*%
%TO.P,U2,31*%
%TO.N,Net-(U2-Pad31)*%
%TA.AperFunction,SMDPad,CuDef*%
G36*
G01*
X166629581Y-117154481D02*
X167566497Y-116217565D01*
G75*
G02*
X167672563Y-116217565I53033J-53033D01*
G01*
X167778629Y-116323631D01*
G75*
G02*
X167778629Y-116429697I-53033J-53033D01*
G01*
X166841713Y-117366613D01*
G75*
G02*
X166735647Y-117366613I-53033J53033D01*
G01*
X166629581Y-117260547D01*
G75*
G02*
X166629581Y-117154481I53033J53033D01*
G01*
G37*
%TD.AperFunction*%
%TO.P,U2,30*%
%TO.N,/TCK*%
%TA.AperFunction,SMDPad,CuDef*%
G36*
G01*
X166276027Y-116800928D02*
X167212943Y-115864012D01*
G75*
G02*
X167319009Y-115864012I53033J-53033D01*
G01*
X167425075Y-115970078D01*
G75*
G02*
X167425075Y-116076144I-53033J-53033D01*
G01*
X166488159Y-117013060D01*
G75*
G02*
X166382093Y-117013060I-53033J53033D01*
G01*
X166276027Y-116906994D01*
G75*
G02*
X166276027Y-116800928I53033J53033D01*
G01*
G37*
%TD.AperFunction*%
%TO.P,U2,29*%
%TO.N,/TMS*%
%TA.AperFunction,SMDPad,CuDef*%
G36*
G01*
X165922474Y-116447374D02*
X166859390Y-115510458D01*
G75*
G02*
X166965456Y-115510458I53033J-53033D01*
G01*
X167071522Y-115616524D01*
G75*
G02*
X167071522Y-115722590I-53033J-53033D01*
G01*
X166134606Y-116659506D01*
G75*
G02*
X166028540Y-116659506I-53033J53033D01*
G01*
X165922474Y-116553440D01*
G75*
G02*
X165922474Y-116447374I53033J53033D01*
G01*
G37*
%TD.AperFunction*%
%TO.P,U2,28*%
%TO.N,/TDI*%
%TA.AperFunction,SMDPad,CuDef*%
G36*
G01*
X165568921Y-116093821D02*
X166505837Y-115156905D01*
G75*
G02*
X166611903Y-115156905I53033J-53033D01*
G01*
X166717969Y-115262971D01*
G75*
G02*
X166717969Y-115369037I-53033J-53033D01*
G01*
X165781053Y-116305953D01*
G75*
G02*
X165674987Y-116305953I-53033J53033D01*
G01*
X165568921Y-116199887D01*
G75*
G02*
X165568921Y-116093821I53033J53033D01*
G01*
G37*
%TD.AperFunction*%
%TO.P,U2,27*%
%TO.N,Net-(U2-Pad27)*%
%TA.AperFunction,SMDPad,CuDef*%
G36*
G01*
X165215367Y-115740268D02*
X166152283Y-114803352D01*
G75*
G02*
X166258349Y-114803352I53033J-53033D01*
G01*
X166364415Y-114909418D01*
G75*
G02*
X166364415Y-115015484I-53033J-53033D01*
G01*
X165427499Y-115952400D01*
G75*
G02*
X165321433Y-115952400I-53033J53033D01*
G01*
X165215367Y-115846334D01*
G75*
G02*
X165215367Y-115740268I53033J53033D01*
G01*
G37*
%TD.AperFunction*%
%TO.P,U2,26*%
%TO.N,+3V3*%
%TA.AperFunction,SMDPad,CuDef*%
G36*
G01*
X164861814Y-115386714D02*
X165798730Y-114449798D01*
G75*
G02*
X165904796Y-114449798I53033J-53033D01*
G01*
X166010862Y-114555864D01*
G75*
G02*
X166010862Y-114661930I-53033J-53033D01*
G01*
X165073946Y-115598846D01*
G75*
G02*
X164967880Y-115598846I-53033J53033D01*
G01*
X164861814Y-115492780D01*
G75*
G02*
X164861814Y-115386714I53033J53033D01*
G01*
G37*
%TD.AperFunction*%
%TO.P,U2,25*%
%TO.N,/GBG*%
%TA.AperFunction,SMDPad,CuDef*%
G36*
G01*
X164508261Y-115033161D02*
X165445177Y-114096245D01*
G75*
G02*
X165551243Y-114096245I53033J-53033D01*
G01*
X165657309Y-114202311D01*
G75*
G02*
X165657309Y-114308377I-53033J-53033D01*
G01*
X164720393Y-115245293D01*
G75*
G02*
X164614327Y-115245293I-53033J53033D01*
G01*
X164508261Y-115139227D01*
G75*
G02*
X164508261Y-115033161I53033J53033D01*
G01*
G37*
%TD.AperFunction*%
%TO.P,U2,24*%
%TO.N,/~C4*%
%TA.AperFunction,SMDPad,CuDef*%
G36*
G01*
X164154707Y-114679607D02*
X165091623Y-113742691D01*
G75*
G02*
X165197689Y-113742691I53033J-53033D01*
G01*
X165303755Y-113848757D01*
G75*
G02*
X165303755Y-113954823I-53033J-53033D01*
G01*
X164366839Y-114891739D01*
G75*
G02*
X164260773Y-114891739I-53033J53033D01*
G01*
X164154707Y-114785673D01*
G75*
G02*
X164154707Y-114679607I53033J53033D01*
G01*
G37*
%TD.AperFunction*%
%TO.P,U2,23*%
%TO.N,/~C2*%
%TA.AperFunction,SMDPad,CuDef*%
G36*
G01*
X163801154Y-114326054D02*
X164738070Y-113389138D01*
G75*
G02*
X164844136Y-113389138I53033J-53033D01*
G01*
X164950202Y-113495204D01*
G75*
G02*
X164950202Y-113601270I-53033J-53033D01*
G01*
X164013286Y-114538186D01*
G75*
G02*
X163907220Y-114538186I-53033J53033D01*
G01*
X163801154Y-114432120D01*
G75*
G02*
X163801154Y-114326054I53033J53033D01*
G01*
G37*
%TD.AperFunction*%
%TO.P,U2,22*%
%TO.N,/C3*%
%TA.AperFunction,SMDPad,CuDef*%
G36*
G01*
X163447600Y-113972501D02*
X164384516Y-113035585D01*
G75*
G02*
X164490582Y-113035585I53033J-53033D01*
G01*
X164596648Y-113141651D01*
G75*
G02*
X164596648Y-113247717I-53033J-53033D01*
G01*
X163659732Y-114184633D01*
G75*
G02*
X163553666Y-114184633I-53033J53033D01*
G01*
X163447600Y-114078567D01*
G75*
G02*
X163447600Y-113972501I53033J53033D01*
G01*
G37*
%TD.AperFunction*%
%TO.P,U2,21*%
%TO.N,GND*%
%TA.AperFunction,SMDPad,CuDef*%
G36*
G01*
X163094047Y-113618947D02*
X164030963Y-112682031D01*
G75*
G02*
X164137029Y-112682031I53033J-53033D01*
G01*
X164243095Y-112788097D01*
G75*
G02*
X164243095Y-112894163I-53033J-53033D01*
G01*
X163306179Y-113831079D01*
G75*
G02*
X163200113Y-113831079I-53033J53033D01*
G01*
X163094047Y-113725013D01*
G75*
G02*
X163094047Y-113618947I53033J53033D01*
G01*
G37*
%TD.AperFunction*%
%TO.P,U2,20*%
%TO.N,/C1*%
%TA.AperFunction,SMDPad,CuDef*%
G36*
G01*
X162740494Y-113265394D02*
X163677410Y-112328478D01*
G75*
G02*
X163783476Y-112328478I53033J-53033D01*
G01*
X163889542Y-112434544D01*
G75*
G02*
X163889542Y-112540610I-53033J-53033D01*
G01*
X162952626Y-113477526D01*
G75*
G02*
X162846560Y-113477526I-53033J53033D01*
G01*
X162740494Y-113371460D01*
G75*
G02*
X162740494Y-113265394I53033J53033D01*
G01*
G37*
%TD.AperFunction*%
%TO.P,U2,19*%
%TO.N,/~CDAC*%
%TA.AperFunction,SMDPad,CuDef*%
G36*
G01*
X162386940Y-112911841D02*
X163323856Y-111974925D01*
G75*
G02*
X163429922Y-111974925I53033J-53033D01*
G01*
X163535988Y-112080991D01*
G75*
G02*
X163535988Y-112187057I-53033J-53033D01*
G01*
X162599072Y-113123973D01*
G75*
G02*
X162493006Y-113123973I-53033J53033D01*
G01*
X162386940Y-113017907D01*
G75*
G02*
X162386940Y-112911841I53033J53033D01*
G01*
G37*
%TD.AperFunction*%
%TO.P,U2,18*%
%TO.N,/~BG*%
%TA.AperFunction,SMDPad,CuDef*%
G36*
G01*
X162033387Y-112558287D02*
X162970303Y-111621371D01*
G75*
G02*
X163076369Y-111621371I53033J-53033D01*
G01*
X163182435Y-111727437D01*
G75*
G02*
X163182435Y-111833503I-53033J-53033D01*
G01*
X162245519Y-112770419D01*
G75*
G02*
X162139453Y-112770419I-53033J53033D01*
G01*
X162033387Y-112664353D01*
G75*
G02*
X162033387Y-112558287I53033J53033D01*
G01*
G37*
%TD.AperFunction*%
%TO.P,U2,17*%
%TO.N,/~SLAVE5*%
%TA.AperFunction,SMDPad,CuDef*%
G36*
G01*
X161679833Y-112204734D02*
X162616749Y-111267818D01*
G75*
G02*
X162722815Y-111267818I53033J-53033D01*
G01*
X162828881Y-111373884D01*
G75*
G02*
X162828881Y-111479950I-53033J-53033D01*
G01*
X161891965Y-112416866D01*
G75*
G02*
X161785899Y-112416866I-53033J53033D01*
G01*
X161679833Y-112310800D01*
G75*
G02*
X161679833Y-112204734I53033J53033D01*
G01*
G37*
%TD.AperFunction*%
%TO.P,U2,16*%
%TO.N,/~SLAVE4*%
%TA.AperFunction,SMDPad,CuDef*%
G36*
G01*
X161679833Y-108669200D02*
X161785899Y-108563134D01*
G75*
G02*
X161891965Y-108563134I53033J-53033D01*
G01*
X162828881Y-109500050D01*
G75*
G02*
X162828881Y-109606116I-53033J-53033D01*
G01*
X162722815Y-109712182D01*
G75*
G02*
X162616749Y-109712182I-53033J53033D01*
G01*
X161679833Y-108775266D01*
G75*
G02*
X161679833Y-108669200I53033J53033D01*
G01*
G37*
%TD.AperFunction*%
%TO.P,U2,15*%
%TO.N,/~SLAVE3*%
%TA.AperFunction,SMDPad,CuDef*%
G36*
G01*
X162033387Y-108315647D02*
X162139453Y-108209581D01*
G75*
G02*
X162245519Y-108209581I53033J-53033D01*
G01*
X163182435Y-109146497D01*
G75*
G02*
X163182435Y-109252563I-53033J-53033D01*
G01*
X163076369Y-109358629D01*
G75*
G02*
X162970303Y-109358629I-53033J53033D01*
G01*
X162033387Y-108421713D01*
G75*
G02*
X162033387Y-108315647I53033J53033D01*
G01*
G37*
%TD.AperFunction*%
%TO.P,U2,14*%
%TO.N,GND*%
%TA.AperFunction,SMDPad,CuDef*%
G36*
G01*
X162386940Y-107962093D02*
X162493006Y-107856027D01*
G75*
G02*
X162599072Y-107856027I53033J-53033D01*
G01*
X163535988Y-108792943D01*
G75*
G02*
X163535988Y-108899009I-53033J-53033D01*
G01*
X163429922Y-109005075D01*
G75*
G02*
X163323856Y-109005075I-53033J53033D01*
G01*
X162386940Y-108068159D01*
G75*
G02*
X162386940Y-107962093I53033J53033D01*
G01*
G37*
%TD.AperFunction*%
%TO.P,U2,13*%
%TO.N,/~SLAVE2*%
%TA.AperFunction,SMDPad,CuDef*%
G36*
G01*
X162740494Y-107608540D02*
X162846560Y-107502474D01*
G75*
G02*
X162952626Y-107502474I53033J-53033D01*
G01*
X163889542Y-108439390D01*
G75*
G02*
X163889542Y-108545456I-53033J-53033D01*
G01*
X163783476Y-108651522D01*
G75*
G02*
X163677410Y-108651522I-53033J53033D01*
G01*
X162740494Y-107714606D01*
G75*
G02*
X162740494Y-107608540I53033J53033D01*
G01*
G37*
%TD.AperFunction*%
%TO.P,U2,12*%
%TO.N,/~SLAVE1*%
%TA.AperFunction,SMDPad,CuDef*%
G36*
G01*
X163094047Y-107254987D02*
X163200113Y-107148921D01*
G75*
G02*
X163306179Y-107148921I53033J-53033D01*
G01*
X164243095Y-108085837D01*
G75*
G02*
X164243095Y-108191903I-53033J-53033D01*
G01*
X164137029Y-108297969D01*
G75*
G02*
X164030963Y-108297969I-53033J53033D01*
G01*
X163094047Y-107361053D01*
G75*
G02*
X163094047Y-107254987I53033J53033D01*
G01*
G37*
%TD.AperFunction*%
%TO.P,U2,11*%
%TO.N,/~BR5*%
%TA.AperFunction,SMDPad,CuDef*%
G36*
G01*
X163447600Y-106901433D02*
X163553666Y-106795367D01*
G75*
G02*
X163659732Y-106795367I53033J-53033D01*
G01*
X164596648Y-107732283D01*
G75*
G02*
X164596648Y-107838349I-53033J-53033D01*
G01*
X164490582Y-107944415D01*
G75*
G02*
X164384516Y-107944415I-53033J53033D01*
G01*
X163447600Y-107007499D01*
G75*
G02*
X163447600Y-106901433I53033J53033D01*
G01*
G37*
%TD.AperFunction*%
%TO.P,U2,10*%
%TO.N,/~BR4*%
%TA.AperFunction,SMDPad,CuDef*%
G36*
G01*
X163801154Y-106547880D02*
X163907220Y-106441814D01*
G75*
G02*
X164013286Y-106441814I53033J-53033D01*
G01*
X164950202Y-107378730D01*
G75*
G02*
X164950202Y-107484796I-53033J-53033D01*
G01*
X164844136Y-107590862D01*
G75*
G02*
X164738070Y-107590862I-53033J53033D01*
G01*
X163801154Y-106653946D01*
G75*
G02*
X163801154Y-106547880I53033J53033D01*
G01*
G37*
%TD.AperFunction*%
%TO.P,U2,9*%
%TO.N,/~BR3*%
%TA.AperFunction,SMDPad,CuDef*%
G36*
G01*
X164154707Y-106194327D02*
X164260773Y-106088261D01*
G75*
G02*
X164366839Y-106088261I53033J-53033D01*
G01*
X165303755Y-107025177D01*
G75*
G02*
X165303755Y-107131243I-53033J-53033D01*
G01*
X165197689Y-107237309D01*
G75*
G02*
X165091623Y-107237309I-53033J53033D01*
G01*
X164154707Y-106300393D01*
G75*
G02*
X164154707Y-106194327I53033J53033D01*
G01*
G37*
%TD.AperFunction*%
%TO.P,U2,8*%
%TO.N,/~BR2*%
%TA.AperFunction,SMDPad,CuDef*%
G36*
G01*
X164508261Y-105840773D02*
X164614327Y-105734707D01*
G75*
G02*
X164720393Y-105734707I53033J-53033D01*
G01*
X165657309Y-106671623D01*
G75*
G02*
X165657309Y-106777689I-53033J-53033D01*
G01*
X165551243Y-106883755D01*
G75*
G02*
X165445177Y-106883755I-53033J53033D01*
G01*
X164508261Y-105946839D01*
G75*
G02*
X164508261Y-105840773I53033J53033D01*
G01*
G37*
%TD.AperFunction*%
%TO.P,U2,7*%
%TO.N,/~BR1*%
%TA.AperFunction,SMDPad,CuDef*%
G36*
G01*
X164861814Y-105487220D02*
X164967880Y-105381154D01*
G75*
G02*
X165073946Y-105381154I53033J-53033D01*
G01*
X166010862Y-106318070D01*
G75*
G02*
X166010862Y-106424136I-53033J-53033D01*
G01*
X165904796Y-106530202D01*
G75*
G02*
X165798730Y-106530202I-53033J53033D01*
G01*
X164861814Y-105593286D01*
G75*
G02*
X164861814Y-105487220I53033J53033D01*
G01*
G37*
%TD.AperFunction*%
%TO.P,U2,6*%
%TO.N,/~BG5*%
%TA.AperFunction,SMDPad,CuDef*%
G36*
G01*
X165215367Y-105133666D02*
X165321433Y-105027600D01*
G75*
G02*
X165427499Y-105027600I53033J-53033D01*
G01*
X166364415Y-105964516D01*
G75*
G02*
X166364415Y-106070582I-53033J-53033D01*
G01*
X166258349Y-106176648D01*
G75*
G02*
X166152283Y-106176648I-53033J53033D01*
G01*
X165215367Y-105239732D01*
G75*
G02*
X165215367Y-105133666I53033J53033D01*
G01*
G37*
%TD.AperFunction*%
%TO.P,U2,5*%
%TO.N,/~BG4*%
%TA.AperFunction,SMDPad,CuDef*%
G36*
G01*
X165568921Y-104780113D02*
X165674987Y-104674047D01*
G75*
G02*
X165781053Y-104674047I53033J-53033D01*
G01*
X166717969Y-105610963D01*
G75*
G02*
X166717969Y-105717029I-53033J-53033D01*
G01*
X166611903Y-105823095D01*
G75*
G02*
X166505837Y-105823095I-53033J53033D01*
G01*
X165568921Y-104886179D01*
G75*
G02*
X165568921Y-104780113I53033J53033D01*
G01*
G37*
%TD.AperFunction*%
%TO.P,U2,4*%
%TO.N,/~BG3*%
%TA.AperFunction,SMDPad,CuDef*%
G36*
G01*
X165922474Y-104426560D02*
X166028540Y-104320494D01*
G75*
G02*
X166134606Y-104320494I53033J-53033D01*
G01*
X167071522Y-105257410D01*
G75*
G02*
X167071522Y-105363476I-53033J-53033D01*
G01*
X166965456Y-105469542D01*
G75*
G02*
X166859390Y-105469542I-53033J53033D01*
G01*
X165922474Y-104532626D01*
G75*
G02*
X165922474Y-104426560I53033J53033D01*
G01*
G37*
%TD.AperFunction*%
%TO.P,U2,3*%
%TO.N,+3V3*%
%TA.AperFunction,SMDPad,CuDef*%
G36*
G01*
X166276027Y-104073006D02*
X166382093Y-103966940D01*
G75*
G02*
X166488159Y-103966940I53033J-53033D01*
G01*
X167425075Y-104903856D01*
G75*
G02*
X167425075Y-105009922I-53033J-53033D01*
G01*
X167319009Y-105115988D01*
G75*
G02*
X167212943Y-105115988I-53033J53033D01*
G01*
X166276027Y-104179072D01*
G75*
G02*
X166276027Y-104073006I53033J53033D01*
G01*
G37*
%TD.AperFunction*%
%TO.P,U2,2*%
%TO.N,/~BG2*%
%TA.AperFunction,SMDPad,CuDef*%
G36*
G01*
X166629581Y-103719453D02*
X166735647Y-103613387D01*
G75*
G02*
X166841713Y-103613387I53033J-53033D01*
G01*
X167778629Y-104550303D01*
G75*
G02*
X167778629Y-104656369I-53033J-53033D01*
G01*
X167672563Y-104762435D01*
G75*
G02*
X167566497Y-104762435I-53033J53033D01*
G01*
X166629581Y-103825519D01*
G75*
G02*
X166629581Y-103719453I53033J53033D01*
G01*
G37*
%TD.AperFunction*%
%TO.P,U2,1*%
%TO.N,/~BG1*%
%TA.AperFunction,SMDPad,CuDef*%
G36*
G01*
X166983134Y-103365899D02*
X167089200Y-103259833D01*
G75*
G02*
X167195266Y-103259833I53033J-53033D01*
G01*
X168132182Y-104196749D01*
G75*
G02*
X168132182Y-104302815I-53033J-53033D01*
G01*
X168026116Y-104408881D01*
G75*
G02*
X167920050Y-104408881I-53033J53033D01*
G01*
X166983134Y-103471965D01*
G75*
G02*
X166983134Y-103365899I53033J53033D01*
G01*
G37*
%TD.AperFunction*%
%TD*%
D10*
%TO.P,U1,48*%
%TO.N,Net-(U1-Pad48)*%
X176520000Y-39570000D03*
%TO.P,U1,24*%
%TO.N,GND*%
X161280000Y-97990000D03*
%TO.P,U1,47*%
%TO.N,/DOE*%
X176520000Y-42110000D03*
%TO.P,U1,23*%
%TO.N,/GBG*%
X161280000Y-95450000D03*
%TO.P,U1,46*%
%TO.N,/~DBOE*%
X176520000Y-44650000D03*
%TO.P,U1,22*%
%TO.N,/~C4*%
X161280000Y-92910000D03*
%TO.P,U1,45*%
%TO.N,/D2P*%
X176520000Y-47190000D03*
%TO.P,U1,21*%
%TO.N,/~C2*%
X161280000Y-90370000D03*
%TO.P,U1,44*%
%TO.N,Net-(U1-Pad44)*%
X176520000Y-49730000D03*
%TO.P,U1,20*%
%TO.N,/C3*%
X161280000Y-87830000D03*
%TO.P,U1,43*%
%TO.N,Net-(U1-Pad43)*%
X176520000Y-52270000D03*
%TO.P,U1,19*%
%TO.N,/C1*%
X161280000Y-85290000D03*
%TO.P,U1,42*%
%TO.N,/~RST*%
X176520000Y-54810000D03*
%TO.P,U1,18*%
%TO.N,/~CDAC*%
X161280000Y-82750000D03*
%TO.P,U1,41*%
%TO.N,/~OWN*%
X176520000Y-57350000D03*
%TO.P,U1,17*%
%TO.N,/~BG*%
X161280000Y-80210000D03*
%TO.P,U1,40*%
%TO.N,/~OVR*%
X176520000Y-59890000D03*
%TO.P,U1,16*%
%TO.N,/~SLAVE5*%
X161280000Y-77670000D03*
%TO.P,U1,39*%
%TO.N,/~BOSS*%
X176520000Y-62430000D03*
%TO.P,U1,15*%
%TO.N,/~SLAVE4*%
X161280000Y-75130000D03*
%TO.P,U1,38*%
%TO.N,/~UDS*%
X176520000Y-64970000D03*
%TO.P,U1,14*%
%TO.N,/~SLAVE3*%
X161280000Y-72590000D03*
%TO.P,U1,37*%
%TO.N,/~LDS*%
X176520000Y-67510000D03*
%TO.P,U1,13*%
%TO.N,/~SLAVE2*%
X161280000Y-70050000D03*
%TO.P,U1,36*%
%TO.N,/~AS*%
X176520000Y-70050000D03*
%TO.P,U1,12*%
%TO.N,/~SLAVE1*%
X161280000Y-67510000D03*
%TO.P,U1,35*%
%TO.N,/READ*%
X176520000Y-72590000D03*
%TO.P,U1,11*%
%TO.N,/~BR5*%
X161280000Y-64970000D03*
%TO.P,U1,34*%
%TO.N,/~A23*%
X176520000Y-75130000D03*
%TO.P,U1,10*%
%TO.N,/~BR4*%
X161280000Y-62430000D03*
%TO.P,U1,33*%
%TO.N,/~A22*%
X176520000Y-77670000D03*
%TO.P,U1,9*%
%TO.N,/~BR3*%
X161280000Y-59890000D03*
%TO.P,U1,32*%
%TO.N,/~A21*%
X176520000Y-80210000D03*
%TO.P,U1,8*%
%TO.N,/~BR2*%
X161280000Y-57350000D03*
%TO.P,U1,31*%
%TO.N,/~A20*%
X176520000Y-82750000D03*
%TO.P,U1,7*%
%TO.N,/~BR1*%
X161280000Y-54810000D03*
%TO.P,U1,30*%
%TO.N,/~A19*%
X176520000Y-85290000D03*
%TO.P,U1,6*%
%TO.N,/~BG5*%
X161280000Y-52270000D03*
%TO.P,U1,29*%
%TO.N,/~CBG*%
X176520000Y-87830000D03*
%TO.P,U1,5*%
%TO.N,/~BG4*%
X161280000Y-49730000D03*
%TO.P,U1,28*%
%TO.N,/~CBR*%
X176520000Y-90370000D03*
%TO.P,U1,4*%
%TO.N,/~BG3*%
X161280000Y-47190000D03*
%TO.P,U1,27*%
%TO.N,/~BR*%
X176520000Y-92910000D03*
%TO.P,U1,3*%
%TO.N,/~BG2*%
X161280000Y-44650000D03*
%TO.P,U1,26*%
%TO.N,/~BEER*%
X176520000Y-95450000D03*
%TO.P,U1,2*%
%TO.N,/~BG1*%
X161280000Y-42110000D03*
%TO.P,U1,25*%
%TO.N,+5V*%
X176520000Y-97990000D03*
D11*
%TO.P,U1,1*%
%TO.N,GND*%
X161280000Y-39570000D03*
%TD*%
D12*
%TO.P,J1,6*%
%TO.N,+3V3*%
X175260000Y-120650000D03*
%TO.P,J1,5*%
%TO.N,GND*%
X172720000Y-120650000D03*
%TO.P,J1,4*%
%TO.N,/TCK*%
X170180000Y-120650000D03*
%TO.P,J1,3*%
%TO.N,/TDO*%
X167640000Y-120650000D03*
%TO.P,J1,2*%
%TO.N,/TDI*%
X165100000Y-120650000D03*
D13*
%TO.P,J1,1*%
%TO.N,/TMS*%
X162560000Y-120650000D03*
%TD*%
D14*
%TO.N,GND*%
X174284800Y-104263800D03*
X174726600Y-47853600D03*
X174726600Y-42265600D03*
X174726600Y-45262800D03*
X174726600Y-50393600D03*
X174726600Y-75793600D03*
X174726600Y-68173600D03*
X174726600Y-85953600D03*
X174726600Y-52933600D03*
X174726600Y-88493600D03*
X174726600Y-73253600D03*
X174726600Y-70713600D03*
X174726600Y-65633600D03*
X174726600Y-80873600D03*
X174726600Y-60553600D03*
X174726600Y-78333600D03*
X174726600Y-91033600D03*
X174726600Y-58013600D03*
X174726600Y-55473600D03*
X174726600Y-63093600D03*
X174726600Y-83413600D03*
X163068000Y-42164000D03*
X163068000Y-44704000D03*
X163068000Y-47752000D03*
X163068000Y-50292000D03*
X163068000Y-52832000D03*
X163068000Y-55372000D03*
X163068000Y-57912000D03*
X163068000Y-60452000D03*
X163068000Y-62992000D03*
X163068000Y-65532000D03*
X163068000Y-68072000D03*
X163068000Y-70612000D03*
X163068000Y-73152000D03*
X163068000Y-75692000D03*
X163068000Y-78232000D03*
X163068000Y-80772000D03*
X163068000Y-83312000D03*
X163068000Y-85852000D03*
X163068000Y-88392000D03*
X163068000Y-90932000D03*
X163235800Y-110461400D03*
X175758000Y-110486800D03*
X168950800Y-102866800D03*
X169128600Y-105965600D03*
X171897200Y-112645800D03*
X165775800Y-112645800D03*
X174437200Y-115744600D03*
X160746600Y-115719200D03*
%TO.N,+3V3*%
X166370000Y-114096800D03*
X170637200Y-114706400D03*
X167843200Y-105562400D03*
X172516800Y-107950000D03*
%TD*%
D15*
%TO.N,GND*%
X162961464Y-108430551D02*
X162509200Y-107978287D01*
X173797876Y-107369891D02*
X174462600Y-106705167D01*
X174462600Y-106705167D02*
X174462600Y-106041800D01*
X174462600Y-106041800D02*
X174386400Y-105965600D01*
X173090769Y-114398169D02*
X174437200Y-115744600D01*
X173090769Y-114317215D02*
X173090769Y-114398169D01*
X163668571Y-113256555D02*
X163679645Y-113256555D01*
X163679645Y-113256555D02*
X164820600Y-112115600D01*
X164820600Y-112115600D02*
X163804600Y-111099600D01*
X163235800Y-110461400D02*
X164007800Y-109689400D01*
X164007800Y-109476887D02*
X162961464Y-108430551D01*
X164007800Y-109689400D02*
X164007800Y-109476887D01*
D16*
%TO.N,+3V3*%
X165442478Y-115024322D02*
X166370000Y-114096800D01*
X171662229Y-115731429D02*
X170637200Y-114706400D01*
X166850551Y-104569751D02*
X167843200Y-105562400D01*
X173444322Y-107022478D02*
X172516800Y-107950000D01*
D15*
%TO.N,/TCK*%
X170180000Y-120650000D02*
X168706800Y-122123200D01*
X168706800Y-122123200D02*
X167182800Y-122123200D01*
X167182800Y-122123200D02*
X166370000Y-121310400D01*
X166370000Y-121310400D02*
X166370000Y-119227600D01*
X166370000Y-119227600D02*
X165658800Y-118516400D01*
X165658800Y-117630287D02*
X166850551Y-116438536D01*
X165658800Y-118516400D02*
X165658800Y-117630287D01*
%TO.N,/TDO*%
X174151429Y-107723445D02*
X168808400Y-113066474D01*
X168808400Y-119481600D02*
X167640000Y-120650000D01*
X168808400Y-113066474D02*
X168808400Y-119481600D01*
%TO.N,/TDI*%
X162748874Y-119126000D02*
X166143445Y-115731429D01*
X162041098Y-119126000D02*
X162748874Y-119126000D01*
X161188400Y-119978698D02*
X162041098Y-119126000D01*
X161188400Y-121818400D02*
X161188400Y-119978698D01*
X161442400Y-122072400D02*
X161188400Y-121818400D01*
X163677600Y-122072400D02*
X161442400Y-122072400D01*
X165100000Y-120650000D02*
X163677600Y-122072400D01*
%TO.N,/TMS*%
X162560000Y-120021980D02*
X164354190Y-118227790D01*
X162560000Y-120650000D02*
X162560000Y-120021980D01*
X164354190Y-118227790D02*
X166496998Y-116084982D01*
%TO.N,/DOE*%
X170262342Y-103834357D02*
X170262342Y-103803658D01*
X170262342Y-103803658D02*
X170789600Y-103276400D01*
X170789600Y-103276400D02*
X170789600Y-103124000D01*
X170789600Y-103124000D02*
X169621200Y-101955600D01*
X169962000Y-48768000D02*
X176620000Y-42110000D01*
X169621200Y-49108800D02*
X169621200Y-49377600D01*
X176620000Y-42110000D02*
X169621200Y-49108800D01*
X169621200Y-101955600D02*
X169621200Y-49377600D01*
%TO.N,/GBG*%
X163017200Y-97087200D02*
X161380000Y-95450000D01*
X163017200Y-99691407D02*
X163017200Y-97087200D01*
X159461131Y-113207698D02*
X159461132Y-103247475D01*
X159461132Y-103247475D02*
X163017200Y-99691407D01*
X161671033Y-115417600D02*
X159461131Y-113207698D01*
X164335954Y-115417600D02*
X161671033Y-115417600D01*
X165082785Y-114670769D02*
X164335954Y-115417600D01*
%TO.N,/~DBOE*%
X171094400Y-103709406D02*
X171094400Y-103069579D01*
X170615895Y-104187911D02*
X171094400Y-103709406D01*
X171094400Y-103069579D02*
X169875210Y-101850389D01*
X176620000Y-44650000D02*
X176679200Y-44650000D01*
X169875210Y-51453990D02*
X169875210Y-52679590D01*
X176679200Y-44650000D02*
X169875210Y-51453990D01*
X169875210Y-101850389D02*
X169875210Y-52679590D01*
%TO.N,/~C4*%
X164729231Y-114317215D02*
X163984446Y-115062000D01*
X161674657Y-115062000D02*
X159715140Y-113102483D01*
X163984446Y-115062000D02*
X161674657Y-115062000D01*
X159715140Y-113102483D02*
X159715140Y-113102481D01*
X159715141Y-103530459D02*
X159715141Y-103378000D01*
X159715140Y-113102481D02*
X159715141Y-103530459D01*
X163271200Y-94801200D02*
X161380000Y-92910000D01*
X163271200Y-99796631D02*
X163271200Y-94801200D01*
X159715141Y-103352690D02*
X163271200Y-99796631D01*
X159715141Y-103530459D02*
X159715141Y-103352690D01*
%TO.N,/D2P*%
X170969449Y-104541464D02*
X171500800Y-104010113D01*
X171500800Y-104010113D02*
X171500800Y-103116754D01*
X171500800Y-103116754D02*
X170129221Y-101745175D01*
X170129221Y-53680779D02*
X170129221Y-54508421D01*
X176620000Y-47190000D02*
X170129221Y-53680779D01*
X170129221Y-101745175D02*
X170129221Y-54508421D01*
%TO.N,/~C2*%
X163525200Y-92515200D02*
X161380000Y-90370000D01*
X163525200Y-99901855D02*
X163525200Y-92515200D01*
X159969150Y-103457905D02*
X163525200Y-99901855D01*
X161627481Y-114655600D02*
X159969149Y-112997268D01*
X163683740Y-114655600D02*
X161627481Y-114655600D01*
X159969149Y-112997268D02*
X159969150Y-103457905D01*
X164375678Y-113963662D02*
X163683740Y-114655600D01*
%TO.N,/C3*%
X160223159Y-103563120D02*
X163779200Y-100007079D01*
X160223159Y-112892054D02*
X160223159Y-103563120D01*
X163271200Y-114350800D02*
X161681904Y-114350799D01*
X163779200Y-90229200D02*
X161380000Y-87830000D01*
X163779200Y-100007079D02*
X163779200Y-90229200D01*
X164011891Y-113610109D02*
X163271200Y-114350800D01*
X161681904Y-114350799D02*
X160223159Y-112892054D01*
X164022124Y-113610109D02*
X164011891Y-113610109D01*
%TO.N,/C1*%
X160477170Y-103668334D02*
X164033200Y-100112304D01*
X160477170Y-112786840D02*
X160477170Y-103668334D01*
X161126738Y-113436409D02*
X160477170Y-112786840D01*
X162781610Y-113436410D02*
X161126738Y-113436409D01*
X163315018Y-112903002D02*
X162781610Y-113436410D01*
X164033200Y-87943200D02*
X161380000Y-85290000D01*
X164033200Y-100112304D02*
X164033200Y-87943200D01*
%TO.N,/~RST*%
X171856400Y-103113129D02*
X170383232Y-101639961D01*
X171856400Y-104361620D02*
X171856400Y-103113129D01*
X171323002Y-104895018D02*
X171856400Y-104361620D01*
X170419232Y-61010768D02*
X176620000Y-54810000D01*
X170383232Y-61010768D02*
X170419232Y-61010768D01*
X170383232Y-101639961D02*
X170383232Y-61010768D01*
%TO.N,/~CDAC*%
X164287200Y-85657200D02*
X161380000Y-82750000D01*
X164287200Y-100217529D02*
X164287200Y-85657200D01*
X160731181Y-103773548D02*
X164287200Y-100217529D01*
X160731181Y-112681626D02*
X160731181Y-103773548D01*
X161231953Y-113182399D02*
X160731181Y-112681626D01*
X162328514Y-113182399D02*
X161231953Y-113182399D01*
X162961464Y-112549449D02*
X162328514Y-113182399D01*
%TO.N,/~OWN*%
X172313600Y-104611540D02*
X171676555Y-105248571D01*
X172313600Y-103211104D02*
X172313600Y-104611540D01*
X170637243Y-101534747D02*
X172313600Y-103211104D01*
X170637243Y-63347557D02*
X170637243Y-101534747D01*
X176620000Y-57364800D02*
X170637243Y-63347557D01*
X176620000Y-57350000D02*
X176620000Y-57364800D01*
%TO.N,/~BG*%
X160985192Y-103878762D02*
X164541200Y-100322754D01*
X160985192Y-112576412D02*
X160985192Y-103878762D01*
X161235579Y-112826800D02*
X160985192Y-112576412D01*
X161977006Y-112826800D02*
X161235579Y-112826800D01*
X162607911Y-112195895D02*
X161977006Y-112826800D01*
X164541200Y-83371200D02*
X161380000Y-80210000D01*
X164541200Y-83972400D02*
X164541200Y-83371200D01*
X164541200Y-100322754D02*
X164541200Y-83972400D01*
X164541200Y-83972400D02*
X164541200Y-83791200D01*
%TO.N,/~OVR*%
X172567611Y-103105890D02*
X170891254Y-101429533D01*
X172030109Y-105602124D02*
X172567610Y-105064623D01*
X172567610Y-105064623D02*
X172567611Y-103105890D01*
X170891254Y-65618746D02*
X170891254Y-66293946D01*
X176620000Y-59890000D02*
X170891254Y-65618746D01*
X170891254Y-101429533D02*
X170891254Y-66293946D01*
%TO.N,/~SLAVE5*%
X164795200Y-81085200D02*
X161380000Y-77670000D01*
X164795200Y-81635600D02*
X164795200Y-81085200D01*
X164795200Y-81505200D02*
X164795200Y-81635600D01*
X164795200Y-100427979D02*
X164795200Y-81635600D01*
X161239203Y-103983976D02*
X164795200Y-100427979D01*
X161239202Y-112064802D02*
X161239203Y-103983976D01*
X161696400Y-112369600D02*
X161544000Y-112369600D01*
X162223658Y-111842342D02*
X161696400Y-112369600D01*
X161544000Y-112369600D02*
X161239202Y-112064802D01*
X162254357Y-111842342D02*
X162223658Y-111842342D01*
%TO.N,/~BOSS*%
X172923200Y-103102255D02*
X171145264Y-101324319D01*
X172923200Y-105416140D02*
X172923200Y-103102255D01*
X172383662Y-105955678D02*
X172923200Y-105416140D01*
X176620000Y-62430000D02*
X171145264Y-67904736D01*
X171145264Y-67904736D02*
X171145264Y-68376864D01*
X171145264Y-101324319D02*
X171145264Y-68376864D01*
%TO.N,/~SLAVE4*%
X161696400Y-103886003D02*
X165049200Y-100533203D01*
X161696400Y-108579701D02*
X161696400Y-103886003D01*
X162254357Y-109137658D02*
X161696400Y-108579701D01*
X165049200Y-79298800D02*
X165049200Y-78799200D01*
X165049200Y-100533203D02*
X165049200Y-79298800D01*
X165049200Y-78799200D02*
X161380000Y-75130000D01*
X165049200Y-79298800D02*
X165049200Y-79219200D01*
%TO.N,/~UDS*%
X173177210Y-105869236D02*
X172737215Y-106309231D01*
X173177209Y-102997040D02*
X173177210Y-105869236D01*
X171399274Y-101219105D02*
X173177209Y-102997040D01*
X171399274Y-70190726D02*
X171399274Y-101219105D01*
X176620000Y-64970000D02*
X171399274Y-70190726D01*
%TO.N,/~SLAVE3*%
X165303200Y-76513200D02*
X161380000Y-72590000D01*
X165303200Y-100638430D02*
X165303200Y-76513200D01*
X162052000Y-103889630D02*
X165303200Y-100638430D01*
X162052000Y-108228194D02*
X162052000Y-103889630D01*
X162607911Y-108784105D02*
X162052000Y-108228194D01*
%TO.N,/~LDS*%
X173685200Y-106068354D02*
X173090769Y-106662785D01*
X176620000Y-67510000D02*
X171653284Y-72476716D01*
X171653284Y-72476716D02*
X171653284Y-101113891D01*
X171653284Y-101113891D02*
X173685200Y-103145807D01*
X173685200Y-103145807D02*
X173685200Y-106068354D01*
%TO.N,/~SLAVE2*%
X165557200Y-74227200D02*
X161380000Y-70050000D01*
X165557200Y-100743655D02*
X165557200Y-74227200D01*
X162763200Y-103537655D02*
X165557200Y-100743655D01*
X162763200Y-107525180D02*
X162763200Y-103537655D01*
X163315018Y-108076998D02*
X162763200Y-107525180D01*
%TO.N,/~AS*%
X171907294Y-101008678D02*
X171907294Y-74762706D01*
X174504982Y-108076998D02*
X175056800Y-107525180D01*
X171907294Y-74762706D02*
X176620000Y-70050000D01*
X175056800Y-104158184D02*
X171907294Y-101008678D01*
X175056800Y-107525180D02*
X175056800Y-104158184D01*
%TO.N,/~SLAVE1*%
X165811200Y-71941200D02*
X161380000Y-67510000D01*
X165811200Y-100848880D02*
X165811200Y-71941200D01*
X163118800Y-103541280D02*
X165811200Y-100848880D01*
X163118800Y-107173674D02*
X163118800Y-103541280D01*
X163668571Y-107723445D02*
X163118800Y-107173674D01*
%TO.N,/READ*%
X172161305Y-100903464D02*
X172161305Y-77048695D01*
X172161305Y-77048695D02*
X176620000Y-72590000D01*
X175412410Y-104154569D02*
X172161305Y-100903464D01*
X174858536Y-108430551D02*
X175412410Y-107876676D01*
X175412410Y-107876676D02*
X175412410Y-104154569D01*
%TO.N,/~BR5*%
X166065200Y-69655200D02*
X161380000Y-64970000D01*
X166065200Y-100954105D02*
X166065200Y-69655200D01*
X163474400Y-103544905D02*
X166065200Y-100954105D01*
X163474400Y-106822167D02*
X163474400Y-103544905D01*
X164022124Y-107369891D02*
X163474400Y-106822167D01*
%TO.N,/~A23*%
X172415316Y-100798250D02*
X172415316Y-79334684D01*
X175768000Y-108228194D02*
X175768000Y-104150935D01*
X172415316Y-79334684D02*
X176620000Y-75130000D01*
X175212089Y-108784105D02*
X175768000Y-108228194D01*
X175768000Y-104150935D02*
X172415316Y-100798250D01*
%TO.N,/~BR4*%
X166319200Y-67369200D02*
X161380000Y-62430000D01*
X166319200Y-101059330D02*
X166319200Y-67369200D01*
X163830000Y-103548530D02*
X166319200Y-101059330D01*
X163830000Y-106470660D02*
X163830000Y-103548530D01*
X164375678Y-107016338D02*
X163830000Y-106470660D01*
%TO.N,/~A22*%
X172669327Y-81620673D02*
X176620000Y-77670000D01*
X172669327Y-100692977D02*
X172669327Y-81620673D01*
X176123600Y-108579701D02*
X176123600Y-104147249D01*
X175565643Y-109137658D02*
X176123600Y-108579701D01*
X176123600Y-104147249D02*
X172669327Y-100692977D01*
%TO.N,/~BR3*%
X166573200Y-65083200D02*
X161380000Y-59890000D01*
X166573200Y-101164555D02*
X166573200Y-65083200D01*
X164185600Y-103552155D02*
X166573200Y-101164555D01*
X164185600Y-106119154D02*
X164185600Y-103552155D01*
X164729231Y-106662785D02*
X164185600Y-106119154D01*
%TO.N,/~A21*%
X172923338Y-83906662D02*
X176620000Y-80210000D01*
X175565643Y-111842342D02*
X175565643Y-111862443D01*
X175565643Y-111862443D02*
X176123600Y-112420400D01*
X176682400Y-112217200D02*
X176682400Y-104346826D01*
X176123600Y-112420400D02*
X176479200Y-112420400D01*
X176479200Y-112420400D02*
X176682400Y-112217200D01*
X176682400Y-104346826D02*
X172923338Y-100587763D01*
X172923338Y-100587763D02*
X172923338Y-83906662D01*
%TO.N,/~BR2*%
X166827200Y-101269780D02*
X166827200Y-62797200D01*
X164541200Y-105767646D02*
X164541200Y-103555780D01*
X166827200Y-62797200D02*
X161380000Y-57350000D01*
X164541200Y-103555780D02*
X166827200Y-101269780D01*
X165082785Y-106309231D02*
X164541200Y-105767646D01*
%TO.N,/~A20*%
X175690603Y-112674409D02*
X176584415Y-112674409D01*
X173177349Y-86192651D02*
X176620000Y-82750000D01*
X176936410Y-112322414D02*
X176936410Y-104241618D01*
X176936410Y-104241618D02*
X173177348Y-100482556D01*
X173177348Y-100482556D02*
X173177349Y-86192651D01*
X176584415Y-112674409D02*
X176936410Y-112322414D01*
X175212089Y-112195895D02*
X175690603Y-112674409D01*
%TO.N,/~BR1*%
X167081200Y-60511200D02*
X161380000Y-54810000D01*
X167081200Y-101375005D02*
X167081200Y-60511200D01*
X164896800Y-105416140D02*
X164896800Y-103559405D01*
X164896800Y-103559405D02*
X167081200Y-101375005D01*
X165436338Y-105955678D02*
X164896800Y-105416140D01*
%TO.N,/~A19*%
X175389907Y-113080820D02*
X176537229Y-113080820D01*
X177190421Y-104136404D02*
X173431359Y-100377342D01*
X174858536Y-112549449D02*
X175389907Y-113080820D01*
X173431360Y-88478640D02*
X176620000Y-85290000D01*
X173431359Y-100377342D02*
X173431360Y-88478640D01*
X177190421Y-112427628D02*
X177190421Y-104136404D01*
X176537229Y-113080820D02*
X177190421Y-112427628D01*
%TO.N,/~BG5*%
X167335200Y-58225200D02*
X161380000Y-52270000D01*
X167335200Y-101480228D02*
X167335200Y-58225200D01*
X165252400Y-103563028D02*
X167335200Y-101480228D01*
X165252400Y-105064633D02*
X165252400Y-103563028D01*
X165789891Y-105602124D02*
X165252400Y-105064633D01*
%TO.N,/~CBG*%
X173685370Y-100272128D02*
X173685371Y-90764629D01*
X173685371Y-90764629D02*
X176620000Y-87830000D01*
X177444432Y-104031190D02*
X173685370Y-100272128D01*
X177444432Y-112532842D02*
X177444432Y-104031190D01*
X176591674Y-113385600D02*
X177444432Y-112532842D01*
X174987580Y-113385600D02*
X176591674Y-113385600D01*
X174504982Y-112903002D02*
X174987580Y-113385600D01*
%TO.N,/~BG4*%
X167589200Y-55939200D02*
X161380000Y-49730000D01*
X167589200Y-101585453D02*
X167589200Y-55939200D01*
X165608002Y-103566651D02*
X167589200Y-101585453D01*
X165608002Y-104713128D02*
X165608002Y-103566651D01*
X166143445Y-105248571D02*
X165608002Y-104713128D01*
%TO.N,/~CBR*%
X173939382Y-93050618D02*
X176620000Y-90370000D01*
X176546954Y-113789545D02*
X177698443Y-112638056D01*
X177698443Y-103925976D02*
X173939381Y-100166914D01*
X174684419Y-113789545D02*
X176546954Y-113789545D01*
X177698443Y-112638056D02*
X177698443Y-103925976D01*
X174151429Y-113256555D02*
X174684419Y-113789545D01*
X173939381Y-100166914D02*
X173939382Y-93050618D01*
%TO.N,/~BG3*%
X167843200Y-53653200D02*
X161380000Y-47190000D01*
X167843200Y-101697976D02*
X167843200Y-53653200D01*
X165963626Y-103577550D02*
X167843200Y-101697976D01*
X165963626Y-104361646D02*
X165963626Y-103577550D01*
X166496998Y-104895018D02*
X165963626Y-104361646D01*
%TO.N,/~BR*%
X173797876Y-113610109D02*
X174335367Y-114147600D01*
X174335367Y-114147600D02*
X176548123Y-114147600D01*
X174193392Y-100061700D02*
X174193392Y-95336608D01*
X176548123Y-114147600D02*
X177952454Y-112743270D01*
X177952454Y-112743270D02*
X177952454Y-103820762D01*
X177952454Y-103820762D02*
X174193392Y-100061700D01*
X174193392Y-95336608D02*
X176620000Y-92910000D01*
%TO.N,/~BG2*%
X168097200Y-51367200D02*
X161380000Y-44650000D01*
X168097200Y-101850376D02*
X168097200Y-51367200D01*
X166770657Y-103176919D02*
X168097200Y-101850376D01*
X166770657Y-103754463D02*
X166770657Y-103176919D01*
X167204105Y-104187911D02*
X166770657Y-103754463D01*
%TO.N,/~BEER*%
X174447402Y-99923802D02*
X174447402Y-99872800D01*
X174447402Y-97622598D02*
X176620000Y-95450000D01*
X174447402Y-99923802D02*
X174447402Y-97622598D01*
X174447403Y-99923803D02*
X174447402Y-99923802D01*
X178206400Y-103682800D02*
X174447403Y-99923803D01*
X178206400Y-103715477D02*
X178206400Y-103682800D01*
X176602547Y-114452400D02*
X178206465Y-112848484D01*
X173933060Y-114452400D02*
X176602547Y-114452400D01*
X173444322Y-113963662D02*
X173933060Y-114452400D01*
X178206465Y-103715542D02*
X178206400Y-103715477D01*
X178206465Y-112848484D02*
X178206465Y-103715542D01*
%TO.N,/~BG1*%
X168351200Y-101955600D02*
X167081200Y-103225600D01*
X160960000Y-42110000D02*
X160982000Y-42110000D01*
X167081200Y-103357899D02*
X167557658Y-103834357D01*
X167081200Y-103225600D02*
X167081200Y-103357899D01*
X168351200Y-49081200D02*
X168351200Y-50241200D01*
X161380000Y-42110000D02*
X168351200Y-49081200D01*
X168351200Y-50241200D02*
X168351200Y-101955600D01*
X168351200Y-49479200D02*
X168351200Y-50241200D01*
%TD*%
D17*
%TO.N,GND*%
X177394000Y-97193815D02*
X177272843Y-97072658D01*
X177079413Y-96943412D01*
X176864485Y-96854386D01*
X176636318Y-96809000D01*
X176403682Y-96809000D01*
X176175515Y-96854386D01*
X175960587Y-96943412D01*
X175767157Y-97072658D01*
X175602658Y-97237157D01*
X175473412Y-97430587D01*
X175384386Y-97645515D01*
X175339000Y-97873682D01*
X175339000Y-98106318D01*
X175384386Y-98334485D01*
X175473412Y-98549413D01*
X175602658Y-98742843D01*
X175767157Y-98907342D01*
X175960587Y-99036588D01*
X176175515Y-99125614D01*
X176403682Y-99171000D01*
X176636318Y-99171000D01*
X176864485Y-99125614D01*
X177079413Y-99036588D01*
X177272843Y-98907342D01*
X177394000Y-98786185D01*
X177394000Y-99040067D01*
X177392037Y-99060000D01*
X177394000Y-99079933D01*
X177394000Y-99079940D01*
X177399875Y-99139589D01*
X177423090Y-99216120D01*
X177460790Y-99286652D01*
X177511526Y-99348474D01*
X177527024Y-99361193D01*
X179934000Y-101768171D01*
X179934001Y-119360050D01*
X179934000Y-119360060D01*
X179934001Y-121751828D01*
X177631831Y-124054000D01*
X160188171Y-124054000D01*
X157886000Y-121751831D01*
X157886000Y-101768169D01*
X160292987Y-99361184D01*
X160308474Y-99348474D01*
X160359210Y-99286653D01*
X160396910Y-99216121D01*
X160420125Y-99139590D01*
X160420261Y-99138207D01*
X160424869Y-99142385D01*
X160666119Y-99287070D01*
X160930960Y-99381909D01*
X161153000Y-99260624D01*
X161153000Y-98117000D01*
X161133000Y-98117000D01*
X161133000Y-97863000D01*
X161153000Y-97863000D01*
X161153000Y-97843000D01*
X161407000Y-97843000D01*
X161407000Y-97863000D01*
X161427000Y-97863000D01*
X161427000Y-98117000D01*
X161407000Y-98117000D01*
X161407000Y-99260624D01*
X161629040Y-99381909D01*
X161893881Y-99287070D01*
X162135131Y-99142385D01*
X162343519Y-98953414D01*
X162511037Y-98727420D01*
X162572700Y-98596955D01*
X162572700Y-99507289D01*
X159162257Y-102917733D01*
X159145304Y-102931646D01*
X159131391Y-102948599D01*
X159131387Y-102948603D01*
X159089756Y-102999330D01*
X159048481Y-103076550D01*
X159023065Y-103160338D01*
X159014483Y-103247475D01*
X159016633Y-103269305D01*
X159016631Y-113185878D01*
X159014482Y-113207698D01*
X159016631Y-113229518D01*
X159016631Y-113229527D01*
X159023063Y-113294834D01*
X159040806Y-113353324D01*
X159048480Y-113378623D01*
X159089755Y-113455843D01*
X159131386Y-113506570D01*
X159131389Y-113506573D01*
X159145302Y-113523526D01*
X159162255Y-113537439D01*
X161341291Y-115716476D01*
X161355204Y-115733429D01*
X161372157Y-115747342D01*
X161372159Y-115747344D01*
X161398239Y-115768747D01*
X161422888Y-115788976D01*
X161500107Y-115830251D01*
X161583896Y-115855668D01*
X161649203Y-115862100D01*
X161649212Y-115862100D01*
X161671032Y-115864249D01*
X161692852Y-115862100D01*
X164314134Y-115862100D01*
X164335954Y-115864249D01*
X164357774Y-115862100D01*
X164357784Y-115862100D01*
X164423091Y-115855668D01*
X164506880Y-115830251D01*
X164584099Y-115788976D01*
X164601943Y-115774331D01*
X164697169Y-115869557D01*
X164766549Y-115926496D01*
X164845510Y-115968701D01*
X164887717Y-116047665D01*
X164944656Y-116117045D01*
X165036934Y-116209323D01*
X162564757Y-118681500D01*
X162062917Y-118681500D01*
X162041097Y-118679351D01*
X162019277Y-118681500D01*
X162019268Y-118681500D01*
X161953961Y-118687932D01*
X161870172Y-118713349D01*
X161792953Y-118754624D01*
X161792951Y-118754625D01*
X161792952Y-118754625D01*
X161742225Y-118796255D01*
X161742222Y-118796258D01*
X161725269Y-118810171D01*
X161711356Y-118827124D01*
X160889525Y-119648956D01*
X160872572Y-119662869D01*
X160858659Y-119679822D01*
X160858655Y-119679826D01*
X160817024Y-119730553D01*
X160775749Y-119807773D01*
X160750333Y-119891561D01*
X160741751Y-119978698D01*
X160743901Y-120000528D01*
X160743900Y-121796580D01*
X160741751Y-121818400D01*
X160743900Y-121840220D01*
X160743900Y-121840229D01*
X160750332Y-121905536D01*
X160760769Y-121939941D01*
X160775749Y-121989325D01*
X160817024Y-122066545D01*
X160824884Y-122076122D01*
X160872571Y-122134229D01*
X160889530Y-122148147D01*
X161112649Y-122371265D01*
X161126571Y-122388229D01*
X161194255Y-122443776D01*
X161271474Y-122485051D01*
X161355263Y-122510468D01*
X161420570Y-122516900D01*
X161420579Y-122516900D01*
X161442399Y-122519049D01*
X161464219Y-122516900D01*
X163655780Y-122516900D01*
X163677600Y-122519049D01*
X163699420Y-122516900D01*
X163699430Y-122516900D01*
X163764737Y-122510468D01*
X163848526Y-122485051D01*
X163925745Y-122443776D01*
X163993429Y-122388229D01*
X164007347Y-122371270D01*
X164602333Y-121776284D01*
X164740931Y-121833693D01*
X164978757Y-121881000D01*
X165221243Y-121881000D01*
X165459069Y-121833693D01*
X165683097Y-121740898D01*
X165884717Y-121606180D01*
X165975540Y-121515357D01*
X165998624Y-121558545D01*
X166016881Y-121580791D01*
X166054171Y-121626229D01*
X166071129Y-121640146D01*
X166853058Y-122422076D01*
X166866971Y-122439029D01*
X166883924Y-122452942D01*
X166883927Y-122452945D01*
X166934654Y-122494576D01*
X166980440Y-122519049D01*
X167011874Y-122535851D01*
X167095663Y-122561268D01*
X167160970Y-122567700D01*
X167160980Y-122567700D01*
X167182800Y-122569849D01*
X167204620Y-122567700D01*
X168684980Y-122567700D01*
X168706800Y-122569849D01*
X168728620Y-122567700D01*
X168728630Y-122567700D01*
X168793937Y-122561268D01*
X168877726Y-122535851D01*
X168954945Y-122494576D01*
X169022629Y-122439029D01*
X169036547Y-122422070D01*
X169682333Y-121776284D01*
X169820931Y-121833693D01*
X170058757Y-121881000D01*
X170301243Y-121881000D01*
X170539069Y-121833693D01*
X170763097Y-121740898D01*
X170964717Y-121606180D01*
X171136180Y-121434717D01*
X171270898Y-121233097D01*
X171318228Y-121118832D01*
X171375843Y-121281252D01*
X171524822Y-121531355D01*
X171719731Y-121747588D01*
X171953080Y-121921641D01*
X172215901Y-122046825D01*
X172363110Y-122091476D01*
X172593000Y-121970155D01*
X172593000Y-120777000D01*
X172573000Y-120777000D01*
X172573000Y-120523000D01*
X172593000Y-120523000D01*
X172593000Y-119329845D01*
X172847000Y-119329845D01*
X172847000Y-120523000D01*
X172867000Y-120523000D01*
X172867000Y-120777000D01*
X172847000Y-120777000D01*
X172847000Y-121970155D01*
X173076890Y-122091476D01*
X173224099Y-122046825D01*
X173486920Y-121921641D01*
X173720269Y-121747588D01*
X173915178Y-121531355D01*
X174064157Y-121281252D01*
X174121772Y-121118832D01*
X174169102Y-121233097D01*
X174303820Y-121434717D01*
X174475283Y-121606180D01*
X174676903Y-121740898D01*
X174900931Y-121833693D01*
X175138757Y-121881000D01*
X175381243Y-121881000D01*
X175619069Y-121833693D01*
X175843097Y-121740898D01*
X176044717Y-121606180D01*
X176216180Y-121434717D01*
X176350898Y-121233097D01*
X176443693Y-121009069D01*
X176491000Y-120771243D01*
X176491000Y-120528757D01*
X176443693Y-120290931D01*
X176350898Y-120066903D01*
X176216180Y-119865283D01*
X176044717Y-119693820D01*
X175843097Y-119559102D01*
X175619069Y-119466307D01*
X175381243Y-119419000D01*
X175138757Y-119419000D01*
X174900931Y-119466307D01*
X174676903Y-119559102D01*
X174475283Y-119693820D01*
X174303820Y-119865283D01*
X174169102Y-120066903D01*
X174121772Y-120181168D01*
X174064157Y-120018748D01*
X173915178Y-119768645D01*
X173720269Y-119552412D01*
X173486920Y-119378359D01*
X173224099Y-119253175D01*
X173076890Y-119208524D01*
X172847000Y-119329845D01*
X172593000Y-119329845D01*
X172363110Y-119208524D01*
X172215901Y-119253175D01*
X171953080Y-119378359D01*
X171719731Y-119552412D01*
X171524822Y-119768645D01*
X171375843Y-120018748D01*
X171318228Y-120181168D01*
X171270898Y-120066903D01*
X171136180Y-119865283D01*
X170964717Y-119693820D01*
X170763097Y-119559102D01*
X170539069Y-119466307D01*
X170301243Y-119419000D01*
X170058757Y-119419000D01*
X169820931Y-119466307D01*
X169596903Y-119559102D01*
X169395283Y-119693820D01*
X169223820Y-119865283D01*
X169089102Y-120066903D01*
X168996307Y-120290931D01*
X168949000Y-120528757D01*
X168949000Y-120771243D01*
X168996307Y-121009069D01*
X169053716Y-121147667D01*
X168522683Y-121678700D01*
X168316183Y-121678700D01*
X168424717Y-121606180D01*
X168596180Y-121434717D01*
X168730898Y-121233097D01*
X168823693Y-121009069D01*
X168871000Y-120771243D01*
X168871000Y-120528757D01*
X168823693Y-120290931D01*
X168766284Y-120152333D01*
X169107276Y-119811342D01*
X169124229Y-119797429D01*
X169138142Y-119780476D01*
X169138145Y-119780473D01*
X169179775Y-119729746D01*
X169183324Y-119723108D01*
X169221051Y-119652526D01*
X169246468Y-119568737D01*
X169252900Y-119503430D01*
X169252900Y-119503421D01*
X169255049Y-119481601D01*
X169252900Y-119459781D01*
X169252900Y-113250591D01*
X173673536Y-108829956D01*
X173765813Y-108922233D01*
X173835193Y-108979172D01*
X173914157Y-109021379D01*
X173956362Y-109100340D01*
X174013301Y-109169720D01*
X174119367Y-109275786D01*
X174188747Y-109332725D01*
X174267708Y-109374930D01*
X174309915Y-109453894D01*
X174366854Y-109523274D01*
X174472920Y-109629340D01*
X174542300Y-109686279D01*
X174621264Y-109728486D01*
X174663469Y-109807447D01*
X174720408Y-109876827D01*
X174826474Y-109982893D01*
X174895854Y-110039832D01*
X174975009Y-110082141D01*
X175060897Y-110108195D01*
X175150218Y-110116992D01*
X175239539Y-110108195D01*
X175325427Y-110082141D01*
X175404582Y-110039832D01*
X175473962Y-109982893D01*
X176237900Y-109218955D01*
X176237900Y-111761045D01*
X175473962Y-110997107D01*
X175404582Y-110940168D01*
X175325427Y-110897859D01*
X175239539Y-110871805D01*
X175150218Y-110863008D01*
X175060897Y-110871805D01*
X174975009Y-110897859D01*
X174895854Y-110940168D01*
X174826474Y-110997107D01*
X174720408Y-111103173D01*
X174663469Y-111172553D01*
X174621264Y-111251514D01*
X174542300Y-111293721D01*
X174472920Y-111350660D01*
X174366854Y-111456726D01*
X174309915Y-111526106D01*
X174267708Y-111605070D01*
X174188747Y-111647275D01*
X174119367Y-111704214D01*
X174013301Y-111810280D01*
X173956362Y-111879660D01*
X173914157Y-111958621D01*
X173835193Y-112000828D01*
X173765813Y-112057767D01*
X173659747Y-112163833D01*
X173602808Y-112233213D01*
X173560602Y-112312175D01*
X173481640Y-112354381D01*
X173412260Y-112411320D01*
X173306194Y-112517386D01*
X173249255Y-112586766D01*
X173207048Y-112665730D01*
X173128087Y-112707935D01*
X173058707Y-112764874D01*
X172952641Y-112870940D01*
X172895702Y-112940320D01*
X172853497Y-113019281D01*
X172774533Y-113061488D01*
X172774151Y-113061802D01*
X172684943Y-113051658D01*
X172560292Y-113062044D01*
X172440061Y-113096549D01*
X172328872Y-113153847D01*
X172248782Y-113218194D01*
X172248782Y-113442701D01*
X172486912Y-113680831D01*
X172499839Y-113723446D01*
X172503100Y-113729547D01*
X172496999Y-113726286D01*
X172454387Y-113713360D01*
X172216255Y-113475228D01*
X171991748Y-113475228D01*
X171927401Y-113555318D01*
X171870103Y-113666507D01*
X171835598Y-113786738D01*
X171825212Y-113911389D01*
X171835356Y-114000597D01*
X171835041Y-114000980D01*
X171792835Y-114079942D01*
X171713873Y-114122148D01*
X171644493Y-114179087D01*
X171538427Y-114285153D01*
X171481488Y-114354533D01*
X171439281Y-114433497D01*
X171382156Y-114464031D01*
X171329313Y-114336458D01*
X171243842Y-114208541D01*
X171135059Y-114099758D01*
X171007142Y-114014287D01*
X170865009Y-113955413D01*
X170714122Y-113925400D01*
X170560278Y-113925400D01*
X170409391Y-113955413D01*
X170267258Y-114014287D01*
X170139341Y-114099758D01*
X170030558Y-114208541D01*
X169945087Y-114336458D01*
X169886213Y-114478591D01*
X169856200Y-114629478D01*
X169856200Y-114783322D01*
X169886213Y-114934209D01*
X169945087Y-115076342D01*
X170030558Y-115204259D01*
X170139341Y-115313042D01*
X170267258Y-115398513D01*
X170400290Y-115453617D01*
X170378621Y-115494157D01*
X170299660Y-115536362D01*
X170230280Y-115593301D01*
X170124214Y-115699367D01*
X170067275Y-115768747D01*
X170025070Y-115847708D01*
X169946106Y-115889915D01*
X169876726Y-115946854D01*
X169770660Y-116052920D01*
X169713721Y-116122300D01*
X169671514Y-116201264D01*
X169592553Y-116243469D01*
X169523173Y-116300408D01*
X169417107Y-116406474D01*
X169360168Y-116475854D01*
X169317859Y-116555009D01*
X169291805Y-116640897D01*
X169283008Y-116730218D01*
X169291805Y-116819539D01*
X169317859Y-116905427D01*
X169360168Y-116984582D01*
X169417107Y-117053962D01*
X170354023Y-117990878D01*
X170423403Y-118047817D01*
X170502558Y-118090126D01*
X170588446Y-118116180D01*
X170677767Y-118124977D01*
X170767088Y-118116180D01*
X170852976Y-118090126D01*
X170932131Y-118047817D01*
X171001511Y-117990878D01*
X171107577Y-117884812D01*
X171164516Y-117815432D01*
X171206723Y-117736468D01*
X171285684Y-117694263D01*
X171355064Y-117637324D01*
X171461130Y-117531258D01*
X171518069Y-117461878D01*
X171560274Y-117382917D01*
X171639238Y-117340710D01*
X171708618Y-117283771D01*
X171814684Y-117177705D01*
X171871623Y-117108325D01*
X171913830Y-117029361D01*
X171992791Y-116987156D01*
X172062171Y-116930217D01*
X172168237Y-116824151D01*
X172225176Y-116754771D01*
X172267382Y-116675809D01*
X172346344Y-116633603D01*
X172415724Y-116576664D01*
X172521790Y-116470598D01*
X172578729Y-116401218D01*
X172620934Y-116322257D01*
X172699898Y-116280050D01*
X172769278Y-116223111D01*
X172875344Y-116117045D01*
X172932283Y-116047665D01*
X172974490Y-115968701D01*
X173053451Y-115926496D01*
X173122831Y-115869557D01*
X173228897Y-115763491D01*
X173285836Y-115694111D01*
X173328042Y-115615149D01*
X173407004Y-115572943D01*
X173407387Y-115572628D01*
X173496595Y-115582772D01*
X173621246Y-115572386D01*
X173741477Y-115537881D01*
X173852666Y-115480583D01*
X173932756Y-115416236D01*
X173932756Y-115191729D01*
X173694624Y-114953597D01*
X173681698Y-114910985D01*
X173678437Y-114904884D01*
X173684538Y-114908145D01*
X173727153Y-114921072D01*
X173965283Y-115159202D01*
X174189790Y-115159202D01*
X174254137Y-115079112D01*
X174311435Y-114967923D01*
X174331818Y-114896900D01*
X176580727Y-114896900D01*
X176602547Y-114899049D01*
X176624367Y-114896900D01*
X176624377Y-114896900D01*
X176689684Y-114890468D01*
X176773473Y-114865051D01*
X176850692Y-114823776D01*
X176918376Y-114768229D01*
X176932293Y-114751271D01*
X178505342Y-113178225D01*
X178522294Y-113164313D01*
X178536209Y-113147358D01*
X178577840Y-113096631D01*
X178619116Y-113019410D01*
X178623744Y-113004154D01*
X178644533Y-112935621D01*
X178650965Y-112870314D01*
X178650965Y-112870305D01*
X178653114Y-112848485D01*
X178650965Y-112826665D01*
X178650965Y-103737362D01*
X178653114Y-103715542D01*
X178651469Y-103698841D01*
X178653049Y-103682800D01*
X178650900Y-103660980D01*
X178650900Y-103660971D01*
X178644468Y-103595664D01*
X178629112Y-103545042D01*
X178619051Y-103511874D01*
X178577776Y-103434654D01*
X178536145Y-103383927D01*
X178536142Y-103383924D01*
X178522229Y-103366971D01*
X178505276Y-103353058D01*
X174891902Y-99739685D01*
X174891902Y-97806715D01*
X176131313Y-96567305D01*
X176175515Y-96585614D01*
X176403682Y-96631000D01*
X176636318Y-96631000D01*
X176864485Y-96585614D01*
X177079413Y-96496588D01*
X177272843Y-96367342D01*
X177394000Y-96246185D01*
X177394000Y-97193815D01*
%TA.AperFunction,Conductor*%
D18*
G36*
X177394000Y-97193815D02*
G01*
X177272843Y-97072658D01*
X177079413Y-96943412D01*
X176864485Y-96854386D01*
X176636318Y-96809000D01*
X176403682Y-96809000D01*
X176175515Y-96854386D01*
X175960587Y-96943412D01*
X175767157Y-97072658D01*
X175602658Y-97237157D01*
X175473412Y-97430587D01*
X175384386Y-97645515D01*
X175339000Y-97873682D01*
X175339000Y-98106318D01*
X175384386Y-98334485D01*
X175473412Y-98549413D01*
X175602658Y-98742843D01*
X175767157Y-98907342D01*
X175960587Y-99036588D01*
X176175515Y-99125614D01*
X176403682Y-99171000D01*
X176636318Y-99171000D01*
X176864485Y-99125614D01*
X177079413Y-99036588D01*
X177272843Y-98907342D01*
X177394000Y-98786185D01*
X177394000Y-99040067D01*
X177392037Y-99060000D01*
X177394000Y-99079933D01*
X177394000Y-99079940D01*
X177399875Y-99139589D01*
X177423090Y-99216120D01*
X177460790Y-99286652D01*
X177511526Y-99348474D01*
X177527024Y-99361193D01*
X179934000Y-101768171D01*
X179934001Y-119360050D01*
X179934000Y-119360060D01*
X179934001Y-121751828D01*
X177631831Y-124054000D01*
X160188171Y-124054000D01*
X157886000Y-121751831D01*
X157886000Y-101768169D01*
X160292987Y-99361184D01*
X160308474Y-99348474D01*
X160359210Y-99286653D01*
X160396910Y-99216121D01*
X160420125Y-99139590D01*
X160420261Y-99138207D01*
X160424869Y-99142385D01*
X160666119Y-99287070D01*
X160930960Y-99381909D01*
X161153000Y-99260624D01*
X161153000Y-98117000D01*
X161133000Y-98117000D01*
X161133000Y-97863000D01*
X161153000Y-97863000D01*
X161153000Y-97843000D01*
X161407000Y-97843000D01*
X161407000Y-97863000D01*
X161427000Y-97863000D01*
X161427000Y-98117000D01*
X161407000Y-98117000D01*
X161407000Y-99260624D01*
X161629040Y-99381909D01*
X161893881Y-99287070D01*
X162135131Y-99142385D01*
X162343519Y-98953414D01*
X162511037Y-98727420D01*
X162572700Y-98596955D01*
X162572700Y-99507289D01*
X159162257Y-102917733D01*
X159145304Y-102931646D01*
X159131391Y-102948599D01*
X159131387Y-102948603D01*
X159089756Y-102999330D01*
X159048481Y-103076550D01*
X159023065Y-103160338D01*
X159014483Y-103247475D01*
X159016633Y-103269305D01*
X159016631Y-113185878D01*
X159014482Y-113207698D01*
X159016631Y-113229518D01*
X159016631Y-113229527D01*
X159023063Y-113294834D01*
X159040806Y-113353324D01*
X159048480Y-113378623D01*
X159089755Y-113455843D01*
X159131386Y-113506570D01*
X159131389Y-113506573D01*
X159145302Y-113523526D01*
X159162255Y-113537439D01*
X161341291Y-115716476D01*
X161355204Y-115733429D01*
X161372157Y-115747342D01*
X161372159Y-115747344D01*
X161398239Y-115768747D01*
X161422888Y-115788976D01*
X161500107Y-115830251D01*
X161583896Y-115855668D01*
X161649203Y-115862100D01*
X161649212Y-115862100D01*
X161671032Y-115864249D01*
X161692852Y-115862100D01*
X164314134Y-115862100D01*
X164335954Y-115864249D01*
X164357774Y-115862100D01*
X164357784Y-115862100D01*
X164423091Y-115855668D01*
X164506880Y-115830251D01*
X164584099Y-115788976D01*
X164601943Y-115774331D01*
X164697169Y-115869557D01*
X164766549Y-115926496D01*
X164845510Y-115968701D01*
X164887717Y-116047665D01*
X164944656Y-116117045D01*
X165036934Y-116209323D01*
X162564757Y-118681500D01*
X162062917Y-118681500D01*
X162041097Y-118679351D01*
X162019277Y-118681500D01*
X162019268Y-118681500D01*
X161953961Y-118687932D01*
X161870172Y-118713349D01*
X161792953Y-118754624D01*
X161792951Y-118754625D01*
X161792952Y-118754625D01*
X161742225Y-118796255D01*
X161742222Y-118796258D01*
X161725269Y-118810171D01*
X161711356Y-118827124D01*
X160889525Y-119648956D01*
X160872572Y-119662869D01*
X160858659Y-119679822D01*
X160858655Y-119679826D01*
X160817024Y-119730553D01*
X160775749Y-119807773D01*
X160750333Y-119891561D01*
X160741751Y-119978698D01*
X160743901Y-120000528D01*
X160743900Y-121796580D01*
X160741751Y-121818400D01*
X160743900Y-121840220D01*
X160743900Y-121840229D01*
X160750332Y-121905536D01*
X160760769Y-121939941D01*
X160775749Y-121989325D01*
X160817024Y-122066545D01*
X160824884Y-122076122D01*
X160872571Y-122134229D01*
X160889530Y-122148147D01*
X161112649Y-122371265D01*
X161126571Y-122388229D01*
X161194255Y-122443776D01*
X161271474Y-122485051D01*
X161355263Y-122510468D01*
X161420570Y-122516900D01*
X161420579Y-122516900D01*
X161442399Y-122519049D01*
X161464219Y-122516900D01*
X163655780Y-122516900D01*
X163677600Y-122519049D01*
X163699420Y-122516900D01*
X163699430Y-122516900D01*
X163764737Y-122510468D01*
X163848526Y-122485051D01*
X163925745Y-122443776D01*
X163993429Y-122388229D01*
X164007347Y-122371270D01*
X164602333Y-121776284D01*
X164740931Y-121833693D01*
X164978757Y-121881000D01*
X165221243Y-121881000D01*
X165459069Y-121833693D01*
X165683097Y-121740898D01*
X165884717Y-121606180D01*
X165975540Y-121515357D01*
X165998624Y-121558545D01*
X166016881Y-121580791D01*
X166054171Y-121626229D01*
X166071129Y-121640146D01*
X166853058Y-122422076D01*
X166866971Y-122439029D01*
X166883924Y-122452942D01*
X166883927Y-122452945D01*
X166934654Y-122494576D01*
X166980440Y-122519049D01*
X167011874Y-122535851D01*
X167095663Y-122561268D01*
X167160970Y-122567700D01*
X167160980Y-122567700D01*
X167182800Y-122569849D01*
X167204620Y-122567700D01*
X168684980Y-122567700D01*
X168706800Y-122569849D01*
X168728620Y-122567700D01*
X168728630Y-122567700D01*
X168793937Y-122561268D01*
X168877726Y-122535851D01*
X168954945Y-122494576D01*
X169022629Y-122439029D01*
X169036547Y-122422070D01*
X169682333Y-121776284D01*
X169820931Y-121833693D01*
X170058757Y-121881000D01*
X170301243Y-121881000D01*
X170539069Y-121833693D01*
X170763097Y-121740898D01*
X170964717Y-121606180D01*
X171136180Y-121434717D01*
X171270898Y-121233097D01*
X171318228Y-121118832D01*
X171375843Y-121281252D01*
X171524822Y-121531355D01*
X171719731Y-121747588D01*
X171953080Y-121921641D01*
X172215901Y-122046825D01*
X172363110Y-122091476D01*
X172593000Y-121970155D01*
X172593000Y-120777000D01*
X172573000Y-120777000D01*
X172573000Y-120523000D01*
X172593000Y-120523000D01*
X172593000Y-119329845D01*
X172847000Y-119329845D01*
X172847000Y-120523000D01*
X172867000Y-120523000D01*
X172867000Y-120777000D01*
X172847000Y-120777000D01*
X172847000Y-121970155D01*
X173076890Y-122091476D01*
X173224099Y-122046825D01*
X173486920Y-121921641D01*
X173720269Y-121747588D01*
X173915178Y-121531355D01*
X174064157Y-121281252D01*
X174121772Y-121118832D01*
X174169102Y-121233097D01*
X174303820Y-121434717D01*
X174475283Y-121606180D01*
X174676903Y-121740898D01*
X174900931Y-121833693D01*
X175138757Y-121881000D01*
X175381243Y-121881000D01*
X175619069Y-121833693D01*
X175843097Y-121740898D01*
X176044717Y-121606180D01*
X176216180Y-121434717D01*
X176350898Y-121233097D01*
X176443693Y-121009069D01*
X176491000Y-120771243D01*
X176491000Y-120528757D01*
X176443693Y-120290931D01*
X176350898Y-120066903D01*
X176216180Y-119865283D01*
X176044717Y-119693820D01*
X175843097Y-119559102D01*
X175619069Y-119466307D01*
X175381243Y-119419000D01*
X175138757Y-119419000D01*
X174900931Y-119466307D01*
X174676903Y-119559102D01*
X174475283Y-119693820D01*
X174303820Y-119865283D01*
X174169102Y-120066903D01*
X174121772Y-120181168D01*
X174064157Y-120018748D01*
X173915178Y-119768645D01*
X173720269Y-119552412D01*
X173486920Y-119378359D01*
X173224099Y-119253175D01*
X173076890Y-119208524D01*
X172847000Y-119329845D01*
X172593000Y-119329845D01*
X172363110Y-119208524D01*
X172215901Y-119253175D01*
X171953080Y-119378359D01*
X171719731Y-119552412D01*
X171524822Y-119768645D01*
X171375843Y-120018748D01*
X171318228Y-120181168D01*
X171270898Y-120066903D01*
X171136180Y-119865283D01*
X170964717Y-119693820D01*
X170763097Y-119559102D01*
X170539069Y-119466307D01*
X170301243Y-119419000D01*
X170058757Y-119419000D01*
X169820931Y-119466307D01*
X169596903Y-119559102D01*
X169395283Y-119693820D01*
X169223820Y-119865283D01*
X169089102Y-120066903D01*
X168996307Y-120290931D01*
X168949000Y-120528757D01*
X168949000Y-120771243D01*
X168996307Y-121009069D01*
X169053716Y-121147667D01*
X168522683Y-121678700D01*
X168316183Y-121678700D01*
X168424717Y-121606180D01*
X168596180Y-121434717D01*
X168730898Y-121233097D01*
X168823693Y-121009069D01*
X168871000Y-120771243D01*
X168871000Y-120528757D01*
X168823693Y-120290931D01*
X168766284Y-120152333D01*
X169107276Y-119811342D01*
X169124229Y-119797429D01*
X169138142Y-119780476D01*
X169138145Y-119780473D01*
X169179775Y-119729746D01*
X169183324Y-119723108D01*
X169221051Y-119652526D01*
X169246468Y-119568737D01*
X169252900Y-119503430D01*
X169252900Y-119503421D01*
X169255049Y-119481601D01*
X169252900Y-119459781D01*
X169252900Y-113250591D01*
X173673536Y-108829956D01*
X173765813Y-108922233D01*
X173835193Y-108979172D01*
X173914157Y-109021379D01*
X173956362Y-109100340D01*
X174013301Y-109169720D01*
X174119367Y-109275786D01*
X174188747Y-109332725D01*
X174267708Y-109374930D01*
X174309915Y-109453894D01*
X174366854Y-109523274D01*
X174472920Y-109629340D01*
X174542300Y-109686279D01*
X174621264Y-109728486D01*
X174663469Y-109807447D01*
X174720408Y-109876827D01*
X174826474Y-109982893D01*
X174895854Y-110039832D01*
X174975009Y-110082141D01*
X175060897Y-110108195D01*
X175150218Y-110116992D01*
X175239539Y-110108195D01*
X175325427Y-110082141D01*
X175404582Y-110039832D01*
X175473962Y-109982893D01*
X176237900Y-109218955D01*
X176237900Y-111761045D01*
X175473962Y-110997107D01*
X175404582Y-110940168D01*
X175325427Y-110897859D01*
X175239539Y-110871805D01*
X175150218Y-110863008D01*
X175060897Y-110871805D01*
X174975009Y-110897859D01*
X174895854Y-110940168D01*
X174826474Y-110997107D01*
X174720408Y-111103173D01*
X174663469Y-111172553D01*
X174621264Y-111251514D01*
X174542300Y-111293721D01*
X174472920Y-111350660D01*
X174366854Y-111456726D01*
X174309915Y-111526106D01*
X174267708Y-111605070D01*
X174188747Y-111647275D01*
X174119367Y-111704214D01*
X174013301Y-111810280D01*
X173956362Y-111879660D01*
X173914157Y-111958621D01*
X173835193Y-112000828D01*
X173765813Y-112057767D01*
X173659747Y-112163833D01*
X173602808Y-112233213D01*
X173560602Y-112312175D01*
X173481640Y-112354381D01*
X173412260Y-112411320D01*
X173306194Y-112517386D01*
X173249255Y-112586766D01*
X173207048Y-112665730D01*
X173128087Y-112707935D01*
X173058707Y-112764874D01*
X172952641Y-112870940D01*
X172895702Y-112940320D01*
X172853497Y-113019281D01*
X172774533Y-113061488D01*
X172774151Y-113061802D01*
X172684943Y-113051658D01*
X172560292Y-113062044D01*
X172440061Y-113096549D01*
X172328872Y-113153847D01*
X172248782Y-113218194D01*
X172248782Y-113442701D01*
X172486912Y-113680831D01*
X172499839Y-113723446D01*
X172503100Y-113729547D01*
X172496999Y-113726286D01*
X172454387Y-113713360D01*
X172216255Y-113475228D01*
X171991748Y-113475228D01*
X171927401Y-113555318D01*
X171870103Y-113666507D01*
X171835598Y-113786738D01*
X171825212Y-113911389D01*
X171835356Y-114000597D01*
X171835041Y-114000980D01*
X171792835Y-114079942D01*
X171713873Y-114122148D01*
X171644493Y-114179087D01*
X171538427Y-114285153D01*
X171481488Y-114354533D01*
X171439281Y-114433497D01*
X171382156Y-114464031D01*
X171329313Y-114336458D01*
X171243842Y-114208541D01*
X171135059Y-114099758D01*
X171007142Y-114014287D01*
X170865009Y-113955413D01*
X170714122Y-113925400D01*
X170560278Y-113925400D01*
X170409391Y-113955413D01*
X170267258Y-114014287D01*
X170139341Y-114099758D01*
X170030558Y-114208541D01*
X169945087Y-114336458D01*
X169886213Y-114478591D01*
X169856200Y-114629478D01*
X169856200Y-114783322D01*
X169886213Y-114934209D01*
X169945087Y-115076342D01*
X170030558Y-115204259D01*
X170139341Y-115313042D01*
X170267258Y-115398513D01*
X170400290Y-115453617D01*
X170378621Y-115494157D01*
X170299660Y-115536362D01*
X170230280Y-115593301D01*
X170124214Y-115699367D01*
X170067275Y-115768747D01*
X170025070Y-115847708D01*
X169946106Y-115889915D01*
X169876726Y-115946854D01*
X169770660Y-116052920D01*
X169713721Y-116122300D01*
X169671514Y-116201264D01*
X169592553Y-116243469D01*
X169523173Y-116300408D01*
X169417107Y-116406474D01*
X169360168Y-116475854D01*
X169317859Y-116555009D01*
X169291805Y-116640897D01*
X169283008Y-116730218D01*
X169291805Y-116819539D01*
X169317859Y-116905427D01*
X169360168Y-116984582D01*
X169417107Y-117053962D01*
X170354023Y-117990878D01*
X170423403Y-118047817D01*
X170502558Y-118090126D01*
X170588446Y-118116180D01*
X170677767Y-118124977D01*
X170767088Y-118116180D01*
X170852976Y-118090126D01*
X170932131Y-118047817D01*
X171001511Y-117990878D01*
X171107577Y-117884812D01*
X171164516Y-117815432D01*
X171206723Y-117736468D01*
X171285684Y-117694263D01*
X171355064Y-117637324D01*
X171461130Y-117531258D01*
X171518069Y-117461878D01*
X171560274Y-117382917D01*
X171639238Y-117340710D01*
X171708618Y-117283771D01*
X171814684Y-117177705D01*
X171871623Y-117108325D01*
X171913830Y-117029361D01*
X171992791Y-116987156D01*
X172062171Y-116930217D01*
X172168237Y-116824151D01*
X172225176Y-116754771D01*
X172267382Y-116675809D01*
X172346344Y-116633603D01*
X172415724Y-116576664D01*
X172521790Y-116470598D01*
X172578729Y-116401218D01*
X172620934Y-116322257D01*
X172699898Y-116280050D01*
X172769278Y-116223111D01*
X172875344Y-116117045D01*
X172932283Y-116047665D01*
X172974490Y-115968701D01*
X173053451Y-115926496D01*
X173122831Y-115869557D01*
X173228897Y-115763491D01*
X173285836Y-115694111D01*
X173328042Y-115615149D01*
X173407004Y-115572943D01*
X173407387Y-115572628D01*
X173496595Y-115582772D01*
X173621246Y-115572386D01*
X173741477Y-115537881D01*
X173852666Y-115480583D01*
X173932756Y-115416236D01*
X173932756Y-115191729D01*
X173694624Y-114953597D01*
X173681698Y-114910985D01*
X173678437Y-114904884D01*
X173684538Y-114908145D01*
X173727153Y-114921072D01*
X173965283Y-115159202D01*
X174189790Y-115159202D01*
X174254137Y-115079112D01*
X174311435Y-114967923D01*
X174331818Y-114896900D01*
X176580727Y-114896900D01*
X176602547Y-114899049D01*
X176624367Y-114896900D01*
X176624377Y-114896900D01*
X176689684Y-114890468D01*
X176773473Y-114865051D01*
X176850692Y-114823776D01*
X176918376Y-114768229D01*
X176932293Y-114751271D01*
X178505342Y-113178225D01*
X178522294Y-113164313D01*
X178536209Y-113147358D01*
X178577840Y-113096631D01*
X178619116Y-113019410D01*
X178623744Y-113004154D01*
X178644533Y-112935621D01*
X178650965Y-112870314D01*
X178650965Y-112870305D01*
X178653114Y-112848485D01*
X178650965Y-112826665D01*
X178650965Y-103737362D01*
X178653114Y-103715542D01*
X178651469Y-103698841D01*
X178653049Y-103682800D01*
X178650900Y-103660980D01*
X178650900Y-103660971D01*
X178644468Y-103595664D01*
X178629112Y-103545042D01*
X178619051Y-103511874D01*
X178577776Y-103434654D01*
X178536145Y-103383927D01*
X178536142Y-103383924D01*
X178522229Y-103366971D01*
X178505276Y-103353058D01*
X174891902Y-99739685D01*
X174891902Y-97806715D01*
X176131313Y-96567305D01*
X176175515Y-96585614D01*
X176403682Y-96631000D01*
X176636318Y-96631000D01*
X176864485Y-96585614D01*
X177079413Y-96496588D01*
X177272843Y-96367342D01*
X177394000Y-96246185D01*
X177394000Y-97193815D01*
G37*
%TD.AperFunction*%
D17*
X175960587Y-38523412D02*
X175767157Y-38652658D01*
X175602658Y-38817157D01*
X175473412Y-39010587D01*
X175384386Y-39225515D01*
X175339000Y-39453682D01*
X175339000Y-39686318D01*
X175384386Y-39914485D01*
X175473412Y-40129413D01*
X175602658Y-40322843D01*
X175767157Y-40487342D01*
X175960587Y-40616588D01*
X176175515Y-40705614D01*
X176403682Y-40751000D01*
X176636318Y-40751000D01*
X176864485Y-40705614D01*
X177079413Y-40616588D01*
X177272843Y-40487342D01*
X177394001Y-40366184D01*
X177394001Y-41313816D01*
X177272843Y-41192658D01*
X177079413Y-41063412D01*
X176864485Y-40974386D01*
X176636318Y-40929000D01*
X176403682Y-40929000D01*
X176175515Y-40974386D01*
X175960587Y-41063412D01*
X175767157Y-41192658D01*
X175602658Y-41357157D01*
X175473412Y-41550587D01*
X175384386Y-41765515D01*
X175339000Y-41993682D01*
X175339000Y-42226318D01*
X175384386Y-42454485D01*
X175461274Y-42640108D01*
X169322330Y-48779053D01*
X169305371Y-48792971D01*
X169287385Y-48814887D01*
X169249824Y-48860655D01*
X169208550Y-48937874D01*
X169208549Y-48937875D01*
X169183132Y-49021664D01*
X169176700Y-49086971D01*
X169176700Y-49086980D01*
X169174551Y-49108800D01*
X169176700Y-49130620D01*
X169176700Y-49399430D01*
X169176701Y-49399440D01*
X169176700Y-101933780D01*
X169174551Y-101955600D01*
X169176700Y-101977420D01*
X169176700Y-101977429D01*
X169183132Y-102042736D01*
X169208549Y-102126525D01*
X169249824Y-102203745D01*
X169264613Y-102221765D01*
X169305371Y-102271429D01*
X169322329Y-102285347D01*
X170190064Y-103153081D01*
X169417107Y-103926038D01*
X169360168Y-103995418D01*
X169317859Y-104074573D01*
X169291805Y-104160461D01*
X169283008Y-104249782D01*
X169291805Y-104339103D01*
X169317859Y-104424991D01*
X169360168Y-104504146D01*
X169417107Y-104573526D01*
X169523173Y-104679592D01*
X169592553Y-104736531D01*
X169671514Y-104778736D01*
X169713721Y-104857700D01*
X169770660Y-104927080D01*
X169876726Y-105033146D01*
X169946106Y-105090085D01*
X170025070Y-105132292D01*
X170067275Y-105211253D01*
X170124214Y-105280633D01*
X170230280Y-105386699D01*
X170299660Y-105443638D01*
X170378621Y-105485843D01*
X170420828Y-105564807D01*
X170477767Y-105634187D01*
X170583833Y-105740253D01*
X170653213Y-105797192D01*
X170732175Y-105839398D01*
X170774381Y-105918360D01*
X170831320Y-105987740D01*
X170937386Y-106093806D01*
X171006766Y-106150745D01*
X171085730Y-106192952D01*
X171127935Y-106271913D01*
X171184874Y-106341293D01*
X171290940Y-106447359D01*
X171360320Y-106504298D01*
X171439281Y-106546503D01*
X171481488Y-106625467D01*
X171538427Y-106694847D01*
X171644493Y-106800913D01*
X171713873Y-106857852D01*
X171792835Y-106900058D01*
X171835041Y-106979020D01*
X171891980Y-107048400D01*
X171998046Y-107154466D01*
X172067426Y-107211405D01*
X172146389Y-107253611D01*
X172148345Y-107257271D01*
X172146858Y-107257887D01*
X172018941Y-107343358D01*
X171910158Y-107452141D01*
X171824687Y-107580058D01*
X171765813Y-107722191D01*
X171735800Y-107873078D01*
X171735800Y-108026922D01*
X171765813Y-108177809D01*
X171824687Y-108319942D01*
X171910158Y-108447859D01*
X172018941Y-108556642D01*
X172146858Y-108642113D01*
X172288991Y-108700987D01*
X172439878Y-108731000D01*
X172515256Y-108731000D01*
X168509530Y-112736727D01*
X168492571Y-112750645D01*
X168478655Y-112767602D01*
X168437024Y-112818329D01*
X168402175Y-112883527D01*
X168395749Y-112895549D01*
X168370332Y-112979338D01*
X168363900Y-113044645D01*
X168363900Y-113044654D01*
X168361751Y-113066474D01*
X168363900Y-113088294D01*
X168363901Y-116367482D01*
X168296827Y-116300408D01*
X168227447Y-116243469D01*
X168148486Y-116201264D01*
X168106279Y-116122300D01*
X168049340Y-116052920D01*
X167943274Y-115946854D01*
X167873894Y-115889915D01*
X167794930Y-115847708D01*
X167752725Y-115768747D01*
X167695786Y-115699367D01*
X167589720Y-115593301D01*
X167520340Y-115536362D01*
X167441379Y-115494157D01*
X167399172Y-115415193D01*
X167342233Y-115345813D01*
X167236167Y-115239747D01*
X167166787Y-115182808D01*
X167087825Y-115140602D01*
X167045619Y-115061640D01*
X166988680Y-114992260D01*
X166882614Y-114886194D01*
X166813234Y-114829255D01*
X166738712Y-114789422D01*
X166739942Y-114788913D01*
X166867859Y-114703442D01*
X166976642Y-114594659D01*
X167062113Y-114466742D01*
X167120987Y-114324609D01*
X167151000Y-114173722D01*
X167151000Y-114019878D01*
X167120987Y-113868991D01*
X167062113Y-113726858D01*
X166976642Y-113598941D01*
X166867859Y-113490158D01*
X166739942Y-113404687D01*
X166597809Y-113345813D01*
X166446922Y-113315800D01*
X166293078Y-113315800D01*
X166142191Y-113345813D01*
X166000058Y-113404687D01*
X165872141Y-113490158D01*
X165763358Y-113598941D01*
X165677887Y-113726858D01*
X165677271Y-113728345D01*
X165673611Y-113726389D01*
X165631405Y-113647426D01*
X165574466Y-113578046D01*
X165468400Y-113471980D01*
X165399020Y-113415041D01*
X165320058Y-113372835D01*
X165277852Y-113293873D01*
X165220913Y-113224493D01*
X165114847Y-113118427D01*
X165045467Y-113061488D01*
X164966503Y-113019281D01*
X164924298Y-112940320D01*
X164923984Y-112939938D01*
X164934128Y-112850729D01*
X164923742Y-112726078D01*
X164889237Y-112605847D01*
X164831939Y-112494658D01*
X164767592Y-112414568D01*
X164543085Y-112414568D01*
X164304954Y-112652699D01*
X164262340Y-112665626D01*
X164256240Y-112668886D01*
X164259501Y-112662786D01*
X164272428Y-112620171D01*
X164510558Y-112382041D01*
X164510558Y-112157534D01*
X164430468Y-112093187D01*
X164319279Y-112035889D01*
X164199048Y-112001384D01*
X164074397Y-111990998D01*
X163985189Y-112001142D01*
X163984807Y-112000828D01*
X163905843Y-111958621D01*
X163863638Y-111879660D01*
X163806699Y-111810280D01*
X163700633Y-111704214D01*
X163631253Y-111647275D01*
X163552292Y-111605070D01*
X163510085Y-111526106D01*
X163453146Y-111456726D01*
X163347080Y-111350660D01*
X163277700Y-111293721D01*
X163198736Y-111251514D01*
X163156531Y-111172553D01*
X163099592Y-111103173D01*
X162993526Y-110997107D01*
X162924146Y-110940168D01*
X162844991Y-110897859D01*
X162759103Y-110871805D01*
X162669782Y-110863008D01*
X162580461Y-110871805D01*
X162494573Y-110897859D01*
X162415418Y-110940168D01*
X162346038Y-110997107D01*
X161683701Y-111659444D01*
X161683702Y-109320557D01*
X162346038Y-109982893D01*
X162415418Y-110039832D01*
X162494573Y-110082141D01*
X162580461Y-110108195D01*
X162669782Y-110116992D01*
X162759103Y-110108195D01*
X162844991Y-110082141D01*
X162924146Y-110039832D01*
X162993526Y-109982893D01*
X163099592Y-109876827D01*
X163156531Y-109807447D01*
X163198736Y-109728486D01*
X163277700Y-109686279D01*
X163278083Y-109685965D01*
X163367290Y-109696108D01*
X163491941Y-109685722D01*
X163612172Y-109651217D01*
X163723361Y-109593919D01*
X163803451Y-109529572D01*
X163803451Y-109305065D01*
X163565321Y-109066935D01*
X163552394Y-109024321D01*
X163549133Y-109018220D01*
X163555234Y-109021481D01*
X163597848Y-109034408D01*
X163835978Y-109272538D01*
X164060485Y-109272538D01*
X164124832Y-109192448D01*
X164182130Y-109081259D01*
X164216635Y-108961028D01*
X164227021Y-108836377D01*
X164216878Y-108747170D01*
X164217192Y-108746787D01*
X164259398Y-108667825D01*
X164338360Y-108625619D01*
X164407740Y-108568680D01*
X164513806Y-108462614D01*
X164570745Y-108393234D01*
X164612952Y-108314270D01*
X164691913Y-108272065D01*
X164761293Y-108215126D01*
X164867359Y-108109060D01*
X164924298Y-108039680D01*
X164966503Y-107960719D01*
X165045467Y-107918512D01*
X165114847Y-107861573D01*
X165220913Y-107755507D01*
X165277852Y-107686127D01*
X165320058Y-107607165D01*
X165399020Y-107564959D01*
X165468400Y-107508020D01*
X165574466Y-107401954D01*
X165631405Y-107332574D01*
X165673611Y-107253611D01*
X165752574Y-107211405D01*
X165821954Y-107154466D01*
X165928020Y-107048400D01*
X165984959Y-106979020D01*
X166027165Y-106900058D01*
X166106127Y-106857852D01*
X166175507Y-106800913D01*
X166281573Y-106694847D01*
X166338512Y-106625467D01*
X166380719Y-106546503D01*
X166459680Y-106504298D01*
X166529060Y-106447359D01*
X166635126Y-106341293D01*
X166692065Y-106271913D01*
X166734270Y-106192952D01*
X166813234Y-106150745D01*
X166882614Y-106093806D01*
X166988680Y-105987740D01*
X167045619Y-105918360D01*
X167087825Y-105839398D01*
X167108099Y-105828561D01*
X167151087Y-105932342D01*
X167236558Y-106060259D01*
X167345341Y-106169042D01*
X167473258Y-106254513D01*
X167615391Y-106313387D01*
X167766278Y-106343400D01*
X167920122Y-106343400D01*
X168071009Y-106313387D01*
X168213142Y-106254513D01*
X168341059Y-106169042D01*
X168449842Y-106060259D01*
X168535313Y-105932342D01*
X168594187Y-105790209D01*
X168624200Y-105639322D01*
X168624200Y-105485478D01*
X168594187Y-105334591D01*
X168535313Y-105192458D01*
X168449842Y-105064541D01*
X168341059Y-104955758D01*
X168213142Y-104870287D01*
X168120142Y-104831765D01*
X168148486Y-104778736D01*
X168227447Y-104736531D01*
X168296827Y-104679592D01*
X168402893Y-104573526D01*
X168459832Y-104504146D01*
X168502141Y-104424991D01*
X168528195Y-104339103D01*
X168536992Y-104249782D01*
X168528195Y-104160461D01*
X168502141Y-104074573D01*
X168459832Y-103995418D01*
X168402893Y-103926038D01*
X167706136Y-103229281D01*
X168650070Y-102285347D01*
X168667029Y-102271429D01*
X168722576Y-102203745D01*
X168763851Y-102126526D01*
X168789268Y-102042737D01*
X168795700Y-101977430D01*
X168795700Y-101977421D01*
X168797849Y-101955601D01*
X168795700Y-101933781D01*
X168795700Y-49103020D01*
X168797849Y-49081200D01*
X168795700Y-49059380D01*
X168795700Y-49059370D01*
X168789268Y-48994063D01*
X168763851Y-48910274D01*
X168722576Y-48833054D01*
X168680945Y-48782327D01*
X168680942Y-48782324D01*
X168667029Y-48765371D01*
X168650077Y-48751459D01*
X162397305Y-42498688D01*
X162415614Y-42454485D01*
X162461000Y-42226318D01*
X162461000Y-41993682D01*
X162415614Y-41765515D01*
X162326588Y-41550587D01*
X162197342Y-41357157D01*
X162032843Y-41192658D01*
X161839413Y-41063412D01*
X161700335Y-41005804D01*
X162080000Y-41008072D01*
X162204482Y-40995812D01*
X162324180Y-40959502D01*
X162434494Y-40900537D01*
X162531185Y-40821185D01*
X162610537Y-40724494D01*
X162669502Y-40614180D01*
X162705812Y-40494482D01*
X162718072Y-40370000D01*
X162715000Y-39855750D01*
X162556250Y-39697000D01*
X161407000Y-39697000D01*
X161407000Y-39717000D01*
X161153000Y-39717000D01*
X161153000Y-39697000D01*
X161133000Y-39697000D01*
X161133000Y-39443000D01*
X161153000Y-39443000D01*
X161153000Y-39423000D01*
X161407000Y-39423000D01*
X161407000Y-39443000D01*
X162556250Y-39443000D01*
X162715000Y-39284250D01*
X162718072Y-38770000D01*
X162705812Y-38645518D01*
X162669502Y-38525820D01*
X162658908Y-38506000D01*
X176002623Y-38506000D01*
X175960587Y-38523412D01*
%TA.AperFunction,Conductor*%
D18*
G36*
X175960587Y-38523412D02*
G01*
X175767157Y-38652658D01*
X175602658Y-38817157D01*
X175473412Y-39010587D01*
X175384386Y-39225515D01*
X175339000Y-39453682D01*
X175339000Y-39686318D01*
X175384386Y-39914485D01*
X175473412Y-40129413D01*
X175602658Y-40322843D01*
X175767157Y-40487342D01*
X175960587Y-40616588D01*
X176175515Y-40705614D01*
X176403682Y-40751000D01*
X176636318Y-40751000D01*
X176864485Y-40705614D01*
X177079413Y-40616588D01*
X177272843Y-40487342D01*
X177394001Y-40366184D01*
X177394001Y-41313816D01*
X177272843Y-41192658D01*
X177079413Y-41063412D01*
X176864485Y-40974386D01*
X176636318Y-40929000D01*
X176403682Y-40929000D01*
X176175515Y-40974386D01*
X175960587Y-41063412D01*
X175767157Y-41192658D01*
X175602658Y-41357157D01*
X175473412Y-41550587D01*
X175384386Y-41765515D01*
X175339000Y-41993682D01*
X175339000Y-42226318D01*
X175384386Y-42454485D01*
X175461274Y-42640108D01*
X169322330Y-48779053D01*
X169305371Y-48792971D01*
X169287385Y-48814887D01*
X169249824Y-48860655D01*
X169208550Y-48937874D01*
X169208549Y-48937875D01*
X169183132Y-49021664D01*
X169176700Y-49086971D01*
X169176700Y-49086980D01*
X169174551Y-49108800D01*
X169176700Y-49130620D01*
X169176700Y-49399430D01*
X169176701Y-49399440D01*
X169176700Y-101933780D01*
X169174551Y-101955600D01*
X169176700Y-101977420D01*
X169176700Y-101977429D01*
X169183132Y-102042736D01*
X169208549Y-102126525D01*
X169249824Y-102203745D01*
X169264613Y-102221765D01*
X169305371Y-102271429D01*
X169322329Y-102285347D01*
X170190064Y-103153081D01*
X169417107Y-103926038D01*
X169360168Y-103995418D01*
X169317859Y-104074573D01*
X169291805Y-104160461D01*
X169283008Y-104249782D01*
X169291805Y-104339103D01*
X169317859Y-104424991D01*
X169360168Y-104504146D01*
X169417107Y-104573526D01*
X169523173Y-104679592D01*
X169592553Y-104736531D01*
X169671514Y-104778736D01*
X169713721Y-104857700D01*
X169770660Y-104927080D01*
X169876726Y-105033146D01*
X169946106Y-105090085D01*
X170025070Y-105132292D01*
X170067275Y-105211253D01*
X170124214Y-105280633D01*
X170230280Y-105386699D01*
X170299660Y-105443638D01*
X170378621Y-105485843D01*
X170420828Y-105564807D01*
X170477767Y-105634187D01*
X170583833Y-105740253D01*
X170653213Y-105797192D01*
X170732175Y-105839398D01*
X170774381Y-105918360D01*
X170831320Y-105987740D01*
X170937386Y-106093806D01*
X171006766Y-106150745D01*
X171085730Y-106192952D01*
X171127935Y-106271913D01*
X171184874Y-106341293D01*
X171290940Y-106447359D01*
X171360320Y-106504298D01*
X171439281Y-106546503D01*
X171481488Y-106625467D01*
X171538427Y-106694847D01*
X171644493Y-106800913D01*
X171713873Y-106857852D01*
X171792835Y-106900058D01*
X171835041Y-106979020D01*
X171891980Y-107048400D01*
X171998046Y-107154466D01*
X172067426Y-107211405D01*
X172146389Y-107253611D01*
X172148345Y-107257271D01*
X172146858Y-107257887D01*
X172018941Y-107343358D01*
X171910158Y-107452141D01*
X171824687Y-107580058D01*
X171765813Y-107722191D01*
X171735800Y-107873078D01*
X171735800Y-108026922D01*
X171765813Y-108177809D01*
X171824687Y-108319942D01*
X171910158Y-108447859D01*
X172018941Y-108556642D01*
X172146858Y-108642113D01*
X172288991Y-108700987D01*
X172439878Y-108731000D01*
X172515256Y-108731000D01*
X168509530Y-112736727D01*
X168492571Y-112750645D01*
X168478655Y-112767602D01*
X168437024Y-112818329D01*
X168402175Y-112883527D01*
X168395749Y-112895549D01*
X168370332Y-112979338D01*
X168363900Y-113044645D01*
X168363900Y-113044654D01*
X168361751Y-113066474D01*
X168363900Y-113088294D01*
X168363901Y-116367482D01*
X168296827Y-116300408D01*
X168227447Y-116243469D01*
X168148486Y-116201264D01*
X168106279Y-116122300D01*
X168049340Y-116052920D01*
X167943274Y-115946854D01*
X167873894Y-115889915D01*
X167794930Y-115847708D01*
X167752725Y-115768747D01*
X167695786Y-115699367D01*
X167589720Y-115593301D01*
X167520340Y-115536362D01*
X167441379Y-115494157D01*
X167399172Y-115415193D01*
X167342233Y-115345813D01*
X167236167Y-115239747D01*
X167166787Y-115182808D01*
X167087825Y-115140602D01*
X167045619Y-115061640D01*
X166988680Y-114992260D01*
X166882614Y-114886194D01*
X166813234Y-114829255D01*
X166738712Y-114789422D01*
X166739942Y-114788913D01*
X166867859Y-114703442D01*
X166976642Y-114594659D01*
X167062113Y-114466742D01*
X167120987Y-114324609D01*
X167151000Y-114173722D01*
X167151000Y-114019878D01*
X167120987Y-113868991D01*
X167062113Y-113726858D01*
X166976642Y-113598941D01*
X166867859Y-113490158D01*
X166739942Y-113404687D01*
X166597809Y-113345813D01*
X166446922Y-113315800D01*
X166293078Y-113315800D01*
X166142191Y-113345813D01*
X166000058Y-113404687D01*
X165872141Y-113490158D01*
X165763358Y-113598941D01*
X165677887Y-113726858D01*
X165677271Y-113728345D01*
X165673611Y-113726389D01*
X165631405Y-113647426D01*
X165574466Y-113578046D01*
X165468400Y-113471980D01*
X165399020Y-113415041D01*
X165320058Y-113372835D01*
X165277852Y-113293873D01*
X165220913Y-113224493D01*
X165114847Y-113118427D01*
X165045467Y-113061488D01*
X164966503Y-113019281D01*
X164924298Y-112940320D01*
X164923984Y-112939938D01*
X164934128Y-112850729D01*
X164923742Y-112726078D01*
X164889237Y-112605847D01*
X164831939Y-112494658D01*
X164767592Y-112414568D01*
X164543085Y-112414568D01*
X164304954Y-112652699D01*
X164262340Y-112665626D01*
X164256240Y-112668886D01*
X164259501Y-112662786D01*
X164272428Y-112620171D01*
X164510558Y-112382041D01*
X164510558Y-112157534D01*
X164430468Y-112093187D01*
X164319279Y-112035889D01*
X164199048Y-112001384D01*
X164074397Y-111990998D01*
X163985189Y-112001142D01*
X163984807Y-112000828D01*
X163905843Y-111958621D01*
X163863638Y-111879660D01*
X163806699Y-111810280D01*
X163700633Y-111704214D01*
X163631253Y-111647275D01*
X163552292Y-111605070D01*
X163510085Y-111526106D01*
X163453146Y-111456726D01*
X163347080Y-111350660D01*
X163277700Y-111293721D01*
X163198736Y-111251514D01*
X163156531Y-111172553D01*
X163099592Y-111103173D01*
X162993526Y-110997107D01*
X162924146Y-110940168D01*
X162844991Y-110897859D01*
X162759103Y-110871805D01*
X162669782Y-110863008D01*
X162580461Y-110871805D01*
X162494573Y-110897859D01*
X162415418Y-110940168D01*
X162346038Y-110997107D01*
X161683701Y-111659444D01*
X161683702Y-109320557D01*
X162346038Y-109982893D01*
X162415418Y-110039832D01*
X162494573Y-110082141D01*
X162580461Y-110108195D01*
X162669782Y-110116992D01*
X162759103Y-110108195D01*
X162844991Y-110082141D01*
X162924146Y-110039832D01*
X162993526Y-109982893D01*
X163099592Y-109876827D01*
X163156531Y-109807447D01*
X163198736Y-109728486D01*
X163277700Y-109686279D01*
X163278083Y-109685965D01*
X163367290Y-109696108D01*
X163491941Y-109685722D01*
X163612172Y-109651217D01*
X163723361Y-109593919D01*
X163803451Y-109529572D01*
X163803451Y-109305065D01*
X163565321Y-109066935D01*
X163552394Y-109024321D01*
X163549133Y-109018220D01*
X163555234Y-109021481D01*
X163597848Y-109034408D01*
X163835978Y-109272538D01*
X164060485Y-109272538D01*
X164124832Y-109192448D01*
X164182130Y-109081259D01*
X164216635Y-108961028D01*
X164227021Y-108836377D01*
X164216878Y-108747170D01*
X164217192Y-108746787D01*
X164259398Y-108667825D01*
X164338360Y-108625619D01*
X164407740Y-108568680D01*
X164513806Y-108462614D01*
X164570745Y-108393234D01*
X164612952Y-108314270D01*
X164691913Y-108272065D01*
X164761293Y-108215126D01*
X164867359Y-108109060D01*
X164924298Y-108039680D01*
X164966503Y-107960719D01*
X165045467Y-107918512D01*
X165114847Y-107861573D01*
X165220913Y-107755507D01*
X165277852Y-107686127D01*
X165320058Y-107607165D01*
X165399020Y-107564959D01*
X165468400Y-107508020D01*
X165574466Y-107401954D01*
X165631405Y-107332574D01*
X165673611Y-107253611D01*
X165752574Y-107211405D01*
X165821954Y-107154466D01*
X165928020Y-107048400D01*
X165984959Y-106979020D01*
X166027165Y-106900058D01*
X166106127Y-106857852D01*
X166175507Y-106800913D01*
X166281573Y-106694847D01*
X166338512Y-106625467D01*
X166380719Y-106546503D01*
X166459680Y-106504298D01*
X166529060Y-106447359D01*
X166635126Y-106341293D01*
X166692065Y-106271913D01*
X166734270Y-106192952D01*
X166813234Y-106150745D01*
X166882614Y-106093806D01*
X166988680Y-105987740D01*
X167045619Y-105918360D01*
X167087825Y-105839398D01*
X167108099Y-105828561D01*
X167151087Y-105932342D01*
X167236558Y-106060259D01*
X167345341Y-106169042D01*
X167473258Y-106254513D01*
X167615391Y-106313387D01*
X167766278Y-106343400D01*
X167920122Y-106343400D01*
X168071009Y-106313387D01*
X168213142Y-106254513D01*
X168341059Y-106169042D01*
X168449842Y-106060259D01*
X168535313Y-105932342D01*
X168594187Y-105790209D01*
X168624200Y-105639322D01*
X168624200Y-105485478D01*
X168594187Y-105334591D01*
X168535313Y-105192458D01*
X168449842Y-105064541D01*
X168341059Y-104955758D01*
X168213142Y-104870287D01*
X168120142Y-104831765D01*
X168148486Y-104778736D01*
X168227447Y-104736531D01*
X168296827Y-104679592D01*
X168402893Y-104573526D01*
X168459832Y-104504146D01*
X168502141Y-104424991D01*
X168528195Y-104339103D01*
X168536992Y-104249782D01*
X168528195Y-104160461D01*
X168502141Y-104074573D01*
X168459832Y-103995418D01*
X168402893Y-103926038D01*
X167706136Y-103229281D01*
X168650070Y-102285347D01*
X168667029Y-102271429D01*
X168722576Y-102203745D01*
X168763851Y-102126526D01*
X168789268Y-102042737D01*
X168795700Y-101977430D01*
X168795700Y-101977421D01*
X168797849Y-101955601D01*
X168795700Y-101933781D01*
X168795700Y-49103020D01*
X168797849Y-49081200D01*
X168795700Y-49059380D01*
X168795700Y-49059370D01*
X168789268Y-48994063D01*
X168763851Y-48910274D01*
X168722576Y-48833054D01*
X168680945Y-48782327D01*
X168680942Y-48782324D01*
X168667029Y-48765371D01*
X168650077Y-48751459D01*
X162397305Y-42498688D01*
X162415614Y-42454485D01*
X162461000Y-42226318D01*
X162461000Y-41993682D01*
X162415614Y-41765515D01*
X162326588Y-41550587D01*
X162197342Y-41357157D01*
X162032843Y-41192658D01*
X161839413Y-41063412D01*
X161700335Y-41005804D01*
X162080000Y-41008072D01*
X162204482Y-40995812D01*
X162324180Y-40959502D01*
X162434494Y-40900537D01*
X162531185Y-40821185D01*
X162610537Y-40724494D01*
X162669502Y-40614180D01*
X162705812Y-40494482D01*
X162718072Y-40370000D01*
X162715000Y-39855750D01*
X162556250Y-39697000D01*
X161407000Y-39697000D01*
X161407000Y-39717000D01*
X161153000Y-39717000D01*
X161153000Y-39697000D01*
X161133000Y-39697000D01*
X161133000Y-39443000D01*
X161153000Y-39443000D01*
X161153000Y-39423000D01*
X161407000Y-39423000D01*
X161407000Y-39443000D01*
X162556250Y-39443000D01*
X162715000Y-39284250D01*
X162718072Y-38770000D01*
X162705812Y-38645518D01*
X162669502Y-38525820D01*
X162658908Y-38506000D01*
X176002623Y-38506000D01*
X175960587Y-38523412D01*
G37*
%TD.AperFunction*%
D17*
X174612301Y-104342303D02*
X174612300Y-106248725D01*
X174559773Y-106206523D01*
X174448584Y-106149225D01*
X174328353Y-106114720D01*
X174203702Y-106104334D01*
X174127452Y-106113004D01*
X174129700Y-106090184D01*
X174129700Y-106090175D01*
X174131849Y-106068355D01*
X174129700Y-106046535D01*
X174129700Y-103859702D01*
X174612301Y-104342303D01*
%TA.AperFunction,Conductor*%
D18*
G36*
X174612301Y-104342303D02*
G01*
X174612300Y-106248725D01*
X174559773Y-106206523D01*
X174448584Y-106149225D01*
X174328353Y-106114720D01*
X174203702Y-106104334D01*
X174127452Y-106113004D01*
X174129700Y-106090184D01*
X174129700Y-106090175D01*
X174131849Y-106068355D01*
X174129700Y-106046535D01*
X174129700Y-103859702D01*
X174612301Y-104342303D01*
G37*
%TD.AperFunction*%
D17*
X177394000Y-89573815D02*
X177272843Y-89452658D01*
X177079413Y-89323412D01*
X176864485Y-89234386D01*
X176636318Y-89189000D01*
X176403682Y-89189000D01*
X176175515Y-89234386D01*
X175960587Y-89323412D01*
X175767157Y-89452658D01*
X175602658Y-89617157D01*
X175473412Y-89810587D01*
X175384386Y-90025515D01*
X175339000Y-90253682D01*
X175339000Y-90486318D01*
X175384386Y-90714485D01*
X175461274Y-90900109D01*
X174129871Y-92231512D01*
X174129871Y-90948746D01*
X176131313Y-88947305D01*
X176175515Y-88965614D01*
X176403682Y-89011000D01*
X176636318Y-89011000D01*
X176864485Y-88965614D01*
X177079413Y-88876588D01*
X177272843Y-88747342D01*
X177394000Y-88626185D01*
X177394000Y-89573815D01*
%TA.AperFunction,Conductor*%
D18*
G36*
X177394000Y-89573815D02*
G01*
X177272843Y-89452658D01*
X177079413Y-89323412D01*
X176864485Y-89234386D01*
X176636318Y-89189000D01*
X176403682Y-89189000D01*
X176175515Y-89234386D01*
X175960587Y-89323412D01*
X175767157Y-89452658D01*
X175602658Y-89617157D01*
X175473412Y-89810587D01*
X175384386Y-90025515D01*
X175339000Y-90253682D01*
X175339000Y-90486318D01*
X175384386Y-90714485D01*
X175461274Y-90900109D01*
X174129871Y-92231512D01*
X174129871Y-90948746D01*
X176131313Y-88947305D01*
X176175515Y-88965614D01*
X176403682Y-89011000D01*
X176636318Y-89011000D01*
X176864485Y-88965614D01*
X177079413Y-88876588D01*
X177272843Y-88747342D01*
X177394000Y-88626185D01*
X177394000Y-89573815D01*
G37*
%TD.AperFunction*%
D17*
X160527157Y-88747342D02*
X160720587Y-88876588D01*
X160935515Y-88965614D01*
X161163682Y-89011000D01*
X161396318Y-89011000D01*
X161624485Y-88965614D01*
X161810109Y-88888726D01*
X163334701Y-90413318D01*
X163334701Y-91696083D01*
X162397305Y-90758687D01*
X162415614Y-90714485D01*
X162461000Y-90486318D01*
X162461000Y-90253682D01*
X162415614Y-90025515D01*
X162326588Y-89810587D01*
X162197342Y-89617157D01*
X162032843Y-89452658D01*
X161839413Y-89323412D01*
X161624485Y-89234386D01*
X161396318Y-89189000D01*
X161163682Y-89189000D01*
X160935515Y-89234386D01*
X160720587Y-89323412D01*
X160527157Y-89452658D01*
X160426000Y-89553815D01*
X160426000Y-88646185D01*
X160527157Y-88747342D01*
%TA.AperFunction,Conductor*%
D18*
G36*
X160527157Y-88747342D02*
G01*
X160720587Y-88876588D01*
X160935515Y-88965614D01*
X161163682Y-89011000D01*
X161396318Y-89011000D01*
X161624485Y-88965614D01*
X161810109Y-88888726D01*
X163334701Y-90413318D01*
X163334701Y-91696083D01*
X162397305Y-90758687D01*
X162415614Y-90714485D01*
X162461000Y-90486318D01*
X162461000Y-90253682D01*
X162415614Y-90025515D01*
X162326588Y-89810587D01*
X162197342Y-89617157D01*
X162032843Y-89452658D01*
X161839413Y-89323412D01*
X161624485Y-89234386D01*
X161396318Y-89189000D01*
X161163682Y-89189000D01*
X160935515Y-89234386D01*
X160720587Y-89323412D01*
X160527157Y-89452658D01*
X160426000Y-89553815D01*
X160426000Y-88646185D01*
X160527157Y-88747342D01*
G37*
%TD.AperFunction*%
D17*
X177394000Y-87033815D02*
X177272843Y-86912658D01*
X177079413Y-86783412D01*
X176864485Y-86694386D01*
X176636318Y-86649000D01*
X176403682Y-86649000D01*
X176175515Y-86694386D01*
X175960587Y-86783412D01*
X175767157Y-86912658D01*
X175602658Y-87077157D01*
X175473412Y-87270587D01*
X175384386Y-87485515D01*
X175339000Y-87713682D01*
X175339000Y-87946318D01*
X175384386Y-88174485D01*
X175461274Y-88360109D01*
X173875860Y-89945523D01*
X173875860Y-88662757D01*
X176131313Y-86407305D01*
X176175515Y-86425614D01*
X176403682Y-86471000D01*
X176636318Y-86471000D01*
X176864485Y-86425614D01*
X177079413Y-86336588D01*
X177272843Y-86207342D01*
X177394000Y-86086185D01*
X177394000Y-87033815D01*
%TA.AperFunction,Conductor*%
D18*
G36*
X177394000Y-87033815D02*
G01*
X177272843Y-86912658D01*
X177079413Y-86783412D01*
X176864485Y-86694386D01*
X176636318Y-86649000D01*
X176403682Y-86649000D01*
X176175515Y-86694386D01*
X175960587Y-86783412D01*
X175767157Y-86912658D01*
X175602658Y-87077157D01*
X175473412Y-87270587D01*
X175384386Y-87485515D01*
X175339000Y-87713682D01*
X175339000Y-87946318D01*
X175384386Y-88174485D01*
X175461274Y-88360109D01*
X173875860Y-89945523D01*
X173875860Y-88662757D01*
X176131313Y-86407305D01*
X176175515Y-86425614D01*
X176403682Y-86471000D01*
X176636318Y-86471000D01*
X176864485Y-86425614D01*
X177079413Y-86336588D01*
X177272843Y-86207342D01*
X177394000Y-86086185D01*
X177394000Y-87033815D01*
G37*
%TD.AperFunction*%
D17*
X160527157Y-86207342D02*
X160720587Y-86336588D01*
X160935515Y-86425614D01*
X161163682Y-86471000D01*
X161396318Y-86471000D01*
X161624485Y-86425614D01*
X161810109Y-86348726D01*
X163588701Y-88127319D01*
X163588701Y-89410084D01*
X162397305Y-88218688D01*
X162415614Y-88174485D01*
X162461000Y-87946318D01*
X162461000Y-87713682D01*
X162415614Y-87485515D01*
X162326588Y-87270587D01*
X162197342Y-87077157D01*
X162032843Y-86912658D01*
X161839413Y-86783412D01*
X161624485Y-86694386D01*
X161396318Y-86649000D01*
X161163682Y-86649000D01*
X160935515Y-86694386D01*
X160720587Y-86783412D01*
X160527157Y-86912658D01*
X160426000Y-87013815D01*
X160426000Y-86106185D01*
X160527157Y-86207342D01*
%TA.AperFunction,Conductor*%
D18*
G36*
X160527157Y-86207342D02*
G01*
X160720587Y-86336588D01*
X160935515Y-86425614D01*
X161163682Y-86471000D01*
X161396318Y-86471000D01*
X161624485Y-86425614D01*
X161810109Y-86348726D01*
X163588701Y-88127319D01*
X163588701Y-89410084D01*
X162397305Y-88218688D01*
X162415614Y-88174485D01*
X162461000Y-87946318D01*
X162461000Y-87713682D01*
X162415614Y-87485515D01*
X162326588Y-87270587D01*
X162197342Y-87077157D01*
X162032843Y-86912658D01*
X161839413Y-86783412D01*
X161624485Y-86694386D01*
X161396318Y-86649000D01*
X161163682Y-86649000D01*
X160935515Y-86694386D01*
X160720587Y-86783412D01*
X160527157Y-86912658D01*
X160426000Y-87013815D01*
X160426000Y-86106185D01*
X160527157Y-86207342D01*
G37*
%TD.AperFunction*%
D17*
X177394000Y-84493815D02*
X177272843Y-84372658D01*
X177079413Y-84243412D01*
X176864485Y-84154386D01*
X176636318Y-84109000D01*
X176403682Y-84109000D01*
X176175515Y-84154386D01*
X175960587Y-84243412D01*
X175767157Y-84372658D01*
X175602658Y-84537157D01*
X175473412Y-84730587D01*
X175384386Y-84945515D01*
X175339000Y-85173682D01*
X175339000Y-85406318D01*
X175384386Y-85634485D01*
X175461274Y-85820109D01*
X173621849Y-87659534D01*
X173621849Y-86376768D01*
X176131313Y-83867305D01*
X176175515Y-83885614D01*
X176403682Y-83931000D01*
X176636318Y-83931000D01*
X176864485Y-83885614D01*
X177079413Y-83796588D01*
X177272843Y-83667342D01*
X177394000Y-83546185D01*
X177394000Y-84493815D01*
%TA.AperFunction,Conductor*%
D18*
G36*
X177394000Y-84493815D02*
G01*
X177272843Y-84372658D01*
X177079413Y-84243412D01*
X176864485Y-84154386D01*
X176636318Y-84109000D01*
X176403682Y-84109000D01*
X176175515Y-84154386D01*
X175960587Y-84243412D01*
X175767157Y-84372658D01*
X175602658Y-84537157D01*
X175473412Y-84730587D01*
X175384386Y-84945515D01*
X175339000Y-85173682D01*
X175339000Y-85406318D01*
X175384386Y-85634485D01*
X175461274Y-85820109D01*
X173621849Y-87659534D01*
X173621849Y-86376768D01*
X176131313Y-83867305D01*
X176175515Y-83885614D01*
X176403682Y-83931000D01*
X176636318Y-83931000D01*
X176864485Y-83885614D01*
X177079413Y-83796588D01*
X177272843Y-83667342D01*
X177394000Y-83546185D01*
X177394000Y-84493815D01*
G37*
%TD.AperFunction*%
D17*
X160527157Y-83667342D02*
X160720587Y-83796588D01*
X160935515Y-83885614D01*
X161163682Y-83931000D01*
X161396318Y-83931000D01*
X161624485Y-83885614D01*
X161810109Y-83808726D01*
X163842701Y-85841319D01*
X163842701Y-87124083D01*
X162397305Y-85678687D01*
X162415614Y-85634485D01*
X162461000Y-85406318D01*
X162461000Y-85173682D01*
X162415614Y-84945515D01*
X162326588Y-84730587D01*
X162197342Y-84537157D01*
X162032843Y-84372658D01*
X161839413Y-84243412D01*
X161624485Y-84154386D01*
X161396318Y-84109000D01*
X161163682Y-84109000D01*
X160935515Y-84154386D01*
X160720587Y-84243412D01*
X160527157Y-84372658D01*
X160426000Y-84473815D01*
X160426000Y-83566185D01*
X160527157Y-83667342D01*
%TA.AperFunction,Conductor*%
D18*
G36*
X160527157Y-83667342D02*
G01*
X160720587Y-83796588D01*
X160935515Y-83885614D01*
X161163682Y-83931000D01*
X161396318Y-83931000D01*
X161624485Y-83885614D01*
X161810109Y-83808726D01*
X163842701Y-85841319D01*
X163842701Y-87124083D01*
X162397305Y-85678687D01*
X162415614Y-85634485D01*
X162461000Y-85406318D01*
X162461000Y-85173682D01*
X162415614Y-84945515D01*
X162326588Y-84730587D01*
X162197342Y-84537157D01*
X162032843Y-84372658D01*
X161839413Y-84243412D01*
X161624485Y-84154386D01*
X161396318Y-84109000D01*
X161163682Y-84109000D01*
X160935515Y-84154386D01*
X160720587Y-84243412D01*
X160527157Y-84372658D01*
X160426000Y-84473815D01*
X160426000Y-83566185D01*
X160527157Y-83667342D01*
G37*
%TD.AperFunction*%
D17*
X177394000Y-81953815D02*
X177272843Y-81832658D01*
X177079413Y-81703412D01*
X176864485Y-81614386D01*
X176636318Y-81569000D01*
X176403682Y-81569000D01*
X176175515Y-81614386D01*
X175960587Y-81703412D01*
X175767157Y-81832658D01*
X175602658Y-81997157D01*
X175473412Y-82190587D01*
X175384386Y-82405515D01*
X175339000Y-82633682D01*
X175339000Y-82866318D01*
X175384386Y-83094485D01*
X175461274Y-83280109D01*
X173367838Y-85373545D01*
X173367838Y-84090779D01*
X176131313Y-81327305D01*
X176175515Y-81345614D01*
X176403682Y-81391000D01*
X176636318Y-81391000D01*
X176864485Y-81345614D01*
X177079413Y-81256588D01*
X177272843Y-81127342D01*
X177394000Y-81006185D01*
X177394000Y-81953815D01*
%TA.AperFunction,Conductor*%
D18*
G36*
X177394000Y-81953815D02*
G01*
X177272843Y-81832658D01*
X177079413Y-81703412D01*
X176864485Y-81614386D01*
X176636318Y-81569000D01*
X176403682Y-81569000D01*
X176175515Y-81614386D01*
X175960587Y-81703412D01*
X175767157Y-81832658D01*
X175602658Y-81997157D01*
X175473412Y-82190587D01*
X175384386Y-82405515D01*
X175339000Y-82633682D01*
X175339000Y-82866318D01*
X175384386Y-83094485D01*
X175461274Y-83280109D01*
X173367838Y-85373545D01*
X173367838Y-84090779D01*
X176131313Y-81327305D01*
X176175515Y-81345614D01*
X176403682Y-81391000D01*
X176636318Y-81391000D01*
X176864485Y-81345614D01*
X177079413Y-81256588D01*
X177272843Y-81127342D01*
X177394000Y-81006185D01*
X177394000Y-81953815D01*
G37*
%TD.AperFunction*%
D17*
X160527157Y-81127342D02*
X160720587Y-81256588D01*
X160935515Y-81345614D01*
X161163682Y-81391000D01*
X161396318Y-81391000D01*
X161624485Y-81345614D01*
X161810109Y-81268726D01*
X164096701Y-83555319D01*
X164096700Y-83769366D01*
X164096700Y-83994229D01*
X164096701Y-83994239D01*
X164096701Y-84838083D01*
X162397305Y-83138687D01*
X162415614Y-83094485D01*
X162461000Y-82866318D01*
X162461000Y-82633682D01*
X162415614Y-82405515D01*
X162326588Y-82190587D01*
X162197342Y-81997157D01*
X162032843Y-81832658D01*
X161839413Y-81703412D01*
X161624485Y-81614386D01*
X161396318Y-81569000D01*
X161163682Y-81569000D01*
X160935515Y-81614386D01*
X160720587Y-81703412D01*
X160527157Y-81832658D01*
X160426000Y-81933815D01*
X160426000Y-81026185D01*
X160527157Y-81127342D01*
%TA.AperFunction,Conductor*%
D18*
G36*
X160527157Y-81127342D02*
G01*
X160720587Y-81256588D01*
X160935515Y-81345614D01*
X161163682Y-81391000D01*
X161396318Y-81391000D01*
X161624485Y-81345614D01*
X161810109Y-81268726D01*
X164096701Y-83555319D01*
X164096700Y-83769366D01*
X164096700Y-83994229D01*
X164096701Y-83994239D01*
X164096701Y-84838083D01*
X162397305Y-83138687D01*
X162415614Y-83094485D01*
X162461000Y-82866318D01*
X162461000Y-82633682D01*
X162415614Y-82405515D01*
X162326588Y-82190587D01*
X162197342Y-81997157D01*
X162032843Y-81832658D01*
X161839413Y-81703412D01*
X161624485Y-81614386D01*
X161396318Y-81569000D01*
X161163682Y-81569000D01*
X160935515Y-81614386D01*
X160720587Y-81703412D01*
X160527157Y-81832658D01*
X160426000Y-81933815D01*
X160426000Y-81026185D01*
X160527157Y-81127342D01*
G37*
%TD.AperFunction*%
D17*
X177394000Y-79413815D02*
X177272843Y-79292658D01*
X177079413Y-79163412D01*
X176864485Y-79074386D01*
X176636318Y-79029000D01*
X176403682Y-79029000D01*
X176175515Y-79074386D01*
X175960587Y-79163412D01*
X175767157Y-79292658D01*
X175602658Y-79457157D01*
X175473412Y-79650587D01*
X175384386Y-79865515D01*
X175339000Y-80093682D01*
X175339000Y-80326318D01*
X175384386Y-80554485D01*
X175461274Y-80740109D01*
X173113827Y-83087556D01*
X173113827Y-81804790D01*
X176131313Y-78787305D01*
X176175515Y-78805614D01*
X176403682Y-78851000D01*
X176636318Y-78851000D01*
X176864485Y-78805614D01*
X177079413Y-78716588D01*
X177272843Y-78587342D01*
X177394000Y-78466185D01*
X177394000Y-79413815D01*
%TA.AperFunction,Conductor*%
D18*
G36*
X177394000Y-79413815D02*
G01*
X177272843Y-79292658D01*
X177079413Y-79163412D01*
X176864485Y-79074386D01*
X176636318Y-79029000D01*
X176403682Y-79029000D01*
X176175515Y-79074386D01*
X175960587Y-79163412D01*
X175767157Y-79292658D01*
X175602658Y-79457157D01*
X175473412Y-79650587D01*
X175384386Y-79865515D01*
X175339000Y-80093682D01*
X175339000Y-80326318D01*
X175384386Y-80554485D01*
X175461274Y-80740109D01*
X173113827Y-83087556D01*
X173113827Y-81804790D01*
X176131313Y-78787305D01*
X176175515Y-78805614D01*
X176403682Y-78851000D01*
X176636318Y-78851000D01*
X176864485Y-78805614D01*
X177079413Y-78716588D01*
X177272843Y-78587342D01*
X177394000Y-78466185D01*
X177394000Y-79413815D01*
G37*
%TD.AperFunction*%
D17*
X160527157Y-78587342D02*
X160720587Y-78716588D01*
X160935515Y-78805614D01*
X161163682Y-78851000D01*
X161396318Y-78851000D01*
X161624485Y-78805614D01*
X161810109Y-78728726D01*
X164350701Y-81269318D01*
X164350700Y-81483368D01*
X164350700Y-81657430D01*
X164350701Y-81657440D01*
X164350701Y-82552083D01*
X162397305Y-80598688D01*
X162415614Y-80554485D01*
X162461000Y-80326318D01*
X162461000Y-80093682D01*
X162415614Y-79865515D01*
X162326588Y-79650587D01*
X162197342Y-79457157D01*
X162032843Y-79292658D01*
X161839413Y-79163412D01*
X161624485Y-79074386D01*
X161396318Y-79029000D01*
X161163682Y-79029000D01*
X160935515Y-79074386D01*
X160720587Y-79163412D01*
X160527157Y-79292658D01*
X160426000Y-79393815D01*
X160426000Y-78486185D01*
X160527157Y-78587342D01*
%TA.AperFunction,Conductor*%
D18*
G36*
X160527157Y-78587342D02*
G01*
X160720587Y-78716588D01*
X160935515Y-78805614D01*
X161163682Y-78851000D01*
X161396318Y-78851000D01*
X161624485Y-78805614D01*
X161810109Y-78728726D01*
X164350701Y-81269318D01*
X164350700Y-81483368D01*
X164350700Y-81657430D01*
X164350701Y-81657440D01*
X164350701Y-82552083D01*
X162397305Y-80598688D01*
X162415614Y-80554485D01*
X162461000Y-80326318D01*
X162461000Y-80093682D01*
X162415614Y-79865515D01*
X162326588Y-79650587D01*
X162197342Y-79457157D01*
X162032843Y-79292658D01*
X161839413Y-79163412D01*
X161624485Y-79074386D01*
X161396318Y-79029000D01*
X161163682Y-79029000D01*
X160935515Y-79074386D01*
X160720587Y-79163412D01*
X160527157Y-79292658D01*
X160426000Y-79393815D01*
X160426000Y-78486185D01*
X160527157Y-78587342D01*
G37*
%TD.AperFunction*%
D17*
X177394000Y-76873815D02*
X177272843Y-76752658D01*
X177079413Y-76623412D01*
X176864485Y-76534386D01*
X176636318Y-76489000D01*
X176403682Y-76489000D01*
X176175515Y-76534386D01*
X175960587Y-76623412D01*
X175767157Y-76752658D01*
X175602658Y-76917157D01*
X175473412Y-77110587D01*
X175384386Y-77325515D01*
X175339000Y-77553682D01*
X175339000Y-77786318D01*
X175384386Y-78014485D01*
X175461274Y-78200109D01*
X172859816Y-80801567D01*
X172859816Y-79518801D01*
X176131313Y-76247305D01*
X176175515Y-76265614D01*
X176403682Y-76311000D01*
X176636318Y-76311000D01*
X176864485Y-76265614D01*
X177079413Y-76176588D01*
X177272843Y-76047342D01*
X177394000Y-75926185D01*
X177394000Y-76873815D01*
%TA.AperFunction,Conductor*%
D18*
G36*
X177394000Y-76873815D02*
G01*
X177272843Y-76752658D01*
X177079413Y-76623412D01*
X176864485Y-76534386D01*
X176636318Y-76489000D01*
X176403682Y-76489000D01*
X176175515Y-76534386D01*
X175960587Y-76623412D01*
X175767157Y-76752658D01*
X175602658Y-76917157D01*
X175473412Y-77110587D01*
X175384386Y-77325515D01*
X175339000Y-77553682D01*
X175339000Y-77786318D01*
X175384386Y-78014485D01*
X175461274Y-78200109D01*
X172859816Y-80801567D01*
X172859816Y-79518801D01*
X176131313Y-76247305D01*
X176175515Y-76265614D01*
X176403682Y-76311000D01*
X176636318Y-76311000D01*
X176864485Y-76265614D01*
X177079413Y-76176588D01*
X177272843Y-76047342D01*
X177394000Y-75926185D01*
X177394000Y-76873815D01*
G37*
%TD.AperFunction*%
D17*
X160527157Y-76047342D02*
X160720587Y-76176588D01*
X160935515Y-76265614D01*
X161163682Y-76311000D01*
X161396318Y-76311000D01*
X161624485Y-76265614D01*
X161810109Y-76188726D01*
X164604701Y-78983319D01*
X164604700Y-79197368D01*
X164604700Y-79320629D01*
X164604701Y-79320639D01*
X164604701Y-80266084D01*
X162397305Y-78058688D01*
X162415614Y-78014485D01*
X162461000Y-77786318D01*
X162461000Y-77553682D01*
X162415614Y-77325515D01*
X162326588Y-77110587D01*
X162197342Y-76917157D01*
X162032843Y-76752658D01*
X161839413Y-76623412D01*
X161624485Y-76534386D01*
X161396318Y-76489000D01*
X161163682Y-76489000D01*
X160935515Y-76534386D01*
X160720587Y-76623412D01*
X160527157Y-76752658D01*
X160426000Y-76853815D01*
X160426000Y-75946185D01*
X160527157Y-76047342D01*
%TA.AperFunction,Conductor*%
D18*
G36*
X160527157Y-76047342D02*
G01*
X160720587Y-76176588D01*
X160935515Y-76265614D01*
X161163682Y-76311000D01*
X161396318Y-76311000D01*
X161624485Y-76265614D01*
X161810109Y-76188726D01*
X164604701Y-78983319D01*
X164604700Y-79197368D01*
X164604700Y-79320629D01*
X164604701Y-79320639D01*
X164604701Y-80266084D01*
X162397305Y-78058688D01*
X162415614Y-78014485D01*
X162461000Y-77786318D01*
X162461000Y-77553682D01*
X162415614Y-77325515D01*
X162326588Y-77110587D01*
X162197342Y-76917157D01*
X162032843Y-76752658D01*
X161839413Y-76623412D01*
X161624485Y-76534386D01*
X161396318Y-76489000D01*
X161163682Y-76489000D01*
X160935515Y-76534386D01*
X160720587Y-76623412D01*
X160527157Y-76752658D01*
X160426000Y-76853815D01*
X160426000Y-75946185D01*
X160527157Y-76047342D01*
G37*
%TD.AperFunction*%
D17*
X177394000Y-74333815D02*
X177272843Y-74212658D01*
X177079413Y-74083412D01*
X176864485Y-73994386D01*
X176636318Y-73949000D01*
X176403682Y-73949000D01*
X176175515Y-73994386D01*
X175960587Y-74083412D01*
X175767157Y-74212658D01*
X175602658Y-74377157D01*
X175473412Y-74570587D01*
X175384386Y-74785515D01*
X175339000Y-75013682D01*
X175339000Y-75246318D01*
X175384386Y-75474485D01*
X175461274Y-75660109D01*
X172605805Y-78515578D01*
X172605805Y-77232812D01*
X176131313Y-73707305D01*
X176175515Y-73725614D01*
X176403682Y-73771000D01*
X176636318Y-73771000D01*
X176864485Y-73725614D01*
X177079413Y-73636588D01*
X177272843Y-73507342D01*
X177394000Y-73386185D01*
X177394000Y-74333815D01*
%TA.AperFunction,Conductor*%
D18*
G36*
X177394000Y-74333815D02*
G01*
X177272843Y-74212658D01*
X177079413Y-74083412D01*
X176864485Y-73994386D01*
X176636318Y-73949000D01*
X176403682Y-73949000D01*
X176175515Y-73994386D01*
X175960587Y-74083412D01*
X175767157Y-74212658D01*
X175602658Y-74377157D01*
X175473412Y-74570587D01*
X175384386Y-74785515D01*
X175339000Y-75013682D01*
X175339000Y-75246318D01*
X175384386Y-75474485D01*
X175461274Y-75660109D01*
X172605805Y-78515578D01*
X172605805Y-77232812D01*
X176131313Y-73707305D01*
X176175515Y-73725614D01*
X176403682Y-73771000D01*
X176636318Y-73771000D01*
X176864485Y-73725614D01*
X177079413Y-73636588D01*
X177272843Y-73507342D01*
X177394000Y-73386185D01*
X177394000Y-74333815D01*
G37*
%TD.AperFunction*%
D17*
X160527157Y-73507342D02*
X160720587Y-73636588D01*
X160935515Y-73725614D01*
X161163682Y-73771000D01*
X161396318Y-73771000D01*
X161624485Y-73725614D01*
X161810109Y-73648726D01*
X164858701Y-76697319D01*
X164858701Y-77980083D01*
X162397305Y-75518688D01*
X162415614Y-75474485D01*
X162461000Y-75246318D01*
X162461000Y-75013682D01*
X162415614Y-74785515D01*
X162326588Y-74570587D01*
X162197342Y-74377157D01*
X162032843Y-74212658D01*
X161839413Y-74083412D01*
X161624485Y-73994386D01*
X161396318Y-73949000D01*
X161163682Y-73949000D01*
X160935515Y-73994386D01*
X160720587Y-74083412D01*
X160527157Y-74212658D01*
X160426000Y-74313815D01*
X160426000Y-73406185D01*
X160527157Y-73507342D01*
%TA.AperFunction,Conductor*%
D18*
G36*
X160527157Y-73507342D02*
G01*
X160720587Y-73636588D01*
X160935515Y-73725614D01*
X161163682Y-73771000D01*
X161396318Y-73771000D01*
X161624485Y-73725614D01*
X161810109Y-73648726D01*
X164858701Y-76697319D01*
X164858701Y-77980083D01*
X162397305Y-75518688D01*
X162415614Y-75474485D01*
X162461000Y-75246318D01*
X162461000Y-75013682D01*
X162415614Y-74785515D01*
X162326588Y-74570587D01*
X162197342Y-74377157D01*
X162032843Y-74212658D01*
X161839413Y-74083412D01*
X161624485Y-73994386D01*
X161396318Y-73949000D01*
X161163682Y-73949000D01*
X160935515Y-73994386D01*
X160720587Y-74083412D01*
X160527157Y-74212658D01*
X160426000Y-74313815D01*
X160426000Y-73406185D01*
X160527157Y-73507342D01*
G37*
%TD.AperFunction*%
D17*
X177394000Y-71793815D02*
X177272843Y-71672658D01*
X177079413Y-71543412D01*
X176864485Y-71454386D01*
X176636318Y-71409000D01*
X176403682Y-71409000D01*
X176175515Y-71454386D01*
X175960587Y-71543412D01*
X175767157Y-71672658D01*
X175602658Y-71837157D01*
X175473412Y-72030587D01*
X175384386Y-72245515D01*
X175339000Y-72473682D01*
X175339000Y-72706318D01*
X175384386Y-72934485D01*
X175461274Y-73120109D01*
X172351794Y-76229589D01*
X172351794Y-74946823D01*
X176131313Y-71167305D01*
X176175515Y-71185614D01*
X176403682Y-71231000D01*
X176636318Y-71231000D01*
X176864485Y-71185614D01*
X177079413Y-71096588D01*
X177272843Y-70967342D01*
X177394000Y-70846185D01*
X177394000Y-71793815D01*
%TA.AperFunction,Conductor*%
D18*
G36*
X177394000Y-71793815D02*
G01*
X177272843Y-71672658D01*
X177079413Y-71543412D01*
X176864485Y-71454386D01*
X176636318Y-71409000D01*
X176403682Y-71409000D01*
X176175515Y-71454386D01*
X175960587Y-71543412D01*
X175767157Y-71672658D01*
X175602658Y-71837157D01*
X175473412Y-72030587D01*
X175384386Y-72245515D01*
X175339000Y-72473682D01*
X175339000Y-72706318D01*
X175384386Y-72934485D01*
X175461274Y-73120109D01*
X172351794Y-76229589D01*
X172351794Y-74946823D01*
X176131313Y-71167305D01*
X176175515Y-71185614D01*
X176403682Y-71231000D01*
X176636318Y-71231000D01*
X176864485Y-71185614D01*
X177079413Y-71096588D01*
X177272843Y-70967342D01*
X177394000Y-70846185D01*
X177394000Y-71793815D01*
G37*
%TD.AperFunction*%
D17*
X160527157Y-70967342D02*
X160720587Y-71096588D01*
X160935515Y-71185614D01*
X161163682Y-71231000D01*
X161396318Y-71231000D01*
X161624485Y-71185614D01*
X161810109Y-71108726D01*
X165112701Y-74411319D01*
X165112701Y-75694083D01*
X162397305Y-72978688D01*
X162415614Y-72934485D01*
X162461000Y-72706318D01*
X162461000Y-72473682D01*
X162415614Y-72245515D01*
X162326588Y-72030587D01*
X162197342Y-71837157D01*
X162032843Y-71672658D01*
X161839413Y-71543412D01*
X161624485Y-71454386D01*
X161396318Y-71409000D01*
X161163682Y-71409000D01*
X160935515Y-71454386D01*
X160720587Y-71543412D01*
X160527157Y-71672658D01*
X160426000Y-71773815D01*
X160426000Y-70866185D01*
X160527157Y-70967342D01*
%TA.AperFunction,Conductor*%
D18*
G36*
X160527157Y-70967342D02*
G01*
X160720587Y-71096588D01*
X160935515Y-71185614D01*
X161163682Y-71231000D01*
X161396318Y-71231000D01*
X161624485Y-71185614D01*
X161810109Y-71108726D01*
X165112701Y-74411319D01*
X165112701Y-75694083D01*
X162397305Y-72978688D01*
X162415614Y-72934485D01*
X162461000Y-72706318D01*
X162461000Y-72473682D01*
X162415614Y-72245515D01*
X162326588Y-72030587D01*
X162197342Y-71837157D01*
X162032843Y-71672658D01*
X161839413Y-71543412D01*
X161624485Y-71454386D01*
X161396318Y-71409000D01*
X161163682Y-71409000D01*
X160935515Y-71454386D01*
X160720587Y-71543412D01*
X160527157Y-71672658D01*
X160426000Y-71773815D01*
X160426000Y-70866185D01*
X160527157Y-70967342D01*
G37*
%TD.AperFunction*%
D17*
X177394000Y-69253815D02*
X177272843Y-69132658D01*
X177079413Y-69003412D01*
X176864485Y-68914386D01*
X176636318Y-68869000D01*
X176403682Y-68869000D01*
X176175515Y-68914386D01*
X175960587Y-69003412D01*
X175767157Y-69132658D01*
X175602658Y-69297157D01*
X175473412Y-69490587D01*
X175384386Y-69705515D01*
X175339000Y-69933682D01*
X175339000Y-70166318D01*
X175384386Y-70394485D01*
X175461274Y-70580108D01*
X172097784Y-73943599D01*
X172097784Y-72660833D01*
X176131313Y-68627305D01*
X176175515Y-68645614D01*
X176403682Y-68691000D01*
X176636318Y-68691000D01*
X176864485Y-68645614D01*
X177079413Y-68556588D01*
X177272843Y-68427342D01*
X177394001Y-68306184D01*
X177394000Y-69253815D01*
%TA.AperFunction,Conductor*%
D18*
G36*
X177394000Y-69253815D02*
G01*
X177272843Y-69132658D01*
X177079413Y-69003412D01*
X176864485Y-68914386D01*
X176636318Y-68869000D01*
X176403682Y-68869000D01*
X176175515Y-68914386D01*
X175960587Y-69003412D01*
X175767157Y-69132658D01*
X175602658Y-69297157D01*
X175473412Y-69490587D01*
X175384386Y-69705515D01*
X175339000Y-69933682D01*
X175339000Y-70166318D01*
X175384386Y-70394485D01*
X175461274Y-70580108D01*
X172097784Y-73943599D01*
X172097784Y-72660833D01*
X176131313Y-68627305D01*
X176175515Y-68645614D01*
X176403682Y-68691000D01*
X176636318Y-68691000D01*
X176864485Y-68645614D01*
X177079413Y-68556588D01*
X177272843Y-68427342D01*
X177394001Y-68306184D01*
X177394000Y-69253815D01*
G37*
%TD.AperFunction*%
D17*
X160527157Y-68427342D02*
X160720587Y-68556588D01*
X160935515Y-68645614D01*
X161163682Y-68691000D01*
X161396318Y-68691000D01*
X161624485Y-68645614D01*
X161810109Y-68568726D01*
X165366701Y-72125319D01*
X165366701Y-73408083D01*
X162397305Y-70438688D01*
X162415614Y-70394485D01*
X162461000Y-70166318D01*
X162461000Y-69933682D01*
X162415614Y-69705515D01*
X162326588Y-69490587D01*
X162197342Y-69297157D01*
X162032843Y-69132658D01*
X161839413Y-69003412D01*
X161624485Y-68914386D01*
X161396318Y-68869000D01*
X161163682Y-68869000D01*
X160935515Y-68914386D01*
X160720587Y-69003412D01*
X160527157Y-69132658D01*
X160426000Y-69233815D01*
X160426000Y-68326185D01*
X160527157Y-68427342D01*
%TA.AperFunction,Conductor*%
D18*
G36*
X160527157Y-68427342D02*
G01*
X160720587Y-68556588D01*
X160935515Y-68645614D01*
X161163682Y-68691000D01*
X161396318Y-68691000D01*
X161624485Y-68645614D01*
X161810109Y-68568726D01*
X165366701Y-72125319D01*
X165366701Y-73408083D01*
X162397305Y-70438688D01*
X162415614Y-70394485D01*
X162461000Y-70166318D01*
X162461000Y-69933682D01*
X162415614Y-69705515D01*
X162326588Y-69490587D01*
X162197342Y-69297157D01*
X162032843Y-69132658D01*
X161839413Y-69003412D01*
X161624485Y-68914386D01*
X161396318Y-68869000D01*
X161163682Y-68869000D01*
X160935515Y-68914386D01*
X160720587Y-69003412D01*
X160527157Y-69132658D01*
X160426000Y-69233815D01*
X160426000Y-68326185D01*
X160527157Y-68427342D01*
G37*
%TD.AperFunction*%
D17*
X177394001Y-66713816D02*
X177272843Y-66592658D01*
X177079413Y-66463412D01*
X176864485Y-66374386D01*
X176636318Y-66329000D01*
X176403682Y-66329000D01*
X176175515Y-66374386D01*
X175960587Y-66463412D01*
X175767157Y-66592658D01*
X175602658Y-66757157D01*
X175473412Y-66950587D01*
X175384386Y-67165515D01*
X175339000Y-67393682D01*
X175339000Y-67626318D01*
X175384386Y-67854485D01*
X175461274Y-68040108D01*
X171843774Y-71657609D01*
X171843774Y-70374843D01*
X176131313Y-66087305D01*
X176175515Y-66105614D01*
X176403682Y-66151000D01*
X176636318Y-66151000D01*
X176864485Y-66105614D01*
X177079413Y-66016588D01*
X177272843Y-65887342D01*
X177394001Y-65766184D01*
X177394001Y-66713816D01*
%TA.AperFunction,Conductor*%
D18*
G36*
X177394001Y-66713816D02*
G01*
X177272843Y-66592658D01*
X177079413Y-66463412D01*
X176864485Y-66374386D01*
X176636318Y-66329000D01*
X176403682Y-66329000D01*
X176175515Y-66374386D01*
X175960587Y-66463412D01*
X175767157Y-66592658D01*
X175602658Y-66757157D01*
X175473412Y-66950587D01*
X175384386Y-67165515D01*
X175339000Y-67393682D01*
X175339000Y-67626318D01*
X175384386Y-67854485D01*
X175461274Y-68040108D01*
X171843774Y-71657609D01*
X171843774Y-70374843D01*
X176131313Y-66087305D01*
X176175515Y-66105614D01*
X176403682Y-66151000D01*
X176636318Y-66151000D01*
X176864485Y-66105614D01*
X177079413Y-66016588D01*
X177272843Y-65887342D01*
X177394001Y-65766184D01*
X177394001Y-66713816D01*
G37*
%TD.AperFunction*%
D17*
X160527157Y-65887342D02*
X160720587Y-66016588D01*
X160935515Y-66105614D01*
X161163682Y-66151000D01*
X161396318Y-66151000D01*
X161624485Y-66105614D01*
X161810109Y-66028726D01*
X165620701Y-69839319D01*
X165620701Y-71122083D01*
X162397305Y-67898688D01*
X162415614Y-67854485D01*
X162461000Y-67626318D01*
X162461000Y-67393682D01*
X162415614Y-67165515D01*
X162326588Y-66950587D01*
X162197342Y-66757157D01*
X162032843Y-66592658D01*
X161839413Y-66463412D01*
X161624485Y-66374386D01*
X161396318Y-66329000D01*
X161163682Y-66329000D01*
X160935515Y-66374386D01*
X160720587Y-66463412D01*
X160527157Y-66592658D01*
X160426000Y-66693815D01*
X160426000Y-65786185D01*
X160527157Y-65887342D01*
%TA.AperFunction,Conductor*%
D18*
G36*
X160527157Y-65887342D02*
G01*
X160720587Y-66016588D01*
X160935515Y-66105614D01*
X161163682Y-66151000D01*
X161396318Y-66151000D01*
X161624485Y-66105614D01*
X161810109Y-66028726D01*
X165620701Y-69839319D01*
X165620701Y-71122083D01*
X162397305Y-67898688D01*
X162415614Y-67854485D01*
X162461000Y-67626318D01*
X162461000Y-67393682D01*
X162415614Y-67165515D01*
X162326588Y-66950587D01*
X162197342Y-66757157D01*
X162032843Y-66592658D01*
X161839413Y-66463412D01*
X161624485Y-66374386D01*
X161396318Y-66329000D01*
X161163682Y-66329000D01*
X160935515Y-66374386D01*
X160720587Y-66463412D01*
X160527157Y-66592658D01*
X160426000Y-66693815D01*
X160426000Y-65786185D01*
X160527157Y-65887342D01*
G37*
%TD.AperFunction*%
D17*
X177394001Y-64173816D02*
X177272843Y-64052658D01*
X177079413Y-63923412D01*
X176864485Y-63834386D01*
X176636318Y-63789000D01*
X176403682Y-63789000D01*
X176175515Y-63834386D01*
X175960587Y-63923412D01*
X175767157Y-64052658D01*
X175602658Y-64217157D01*
X175473412Y-64410587D01*
X175384386Y-64625515D01*
X175339000Y-64853682D01*
X175339000Y-65086318D01*
X175384386Y-65314485D01*
X175461274Y-65500108D01*
X171589764Y-69371619D01*
X171589764Y-68088853D01*
X176131313Y-63547305D01*
X176175515Y-63565614D01*
X176403682Y-63611000D01*
X176636318Y-63611000D01*
X176864485Y-63565614D01*
X177079413Y-63476588D01*
X177272843Y-63347342D01*
X177394001Y-63226184D01*
X177394001Y-64173816D01*
%TA.AperFunction,Conductor*%
D18*
G36*
X177394001Y-64173816D02*
G01*
X177272843Y-64052658D01*
X177079413Y-63923412D01*
X176864485Y-63834386D01*
X176636318Y-63789000D01*
X176403682Y-63789000D01*
X176175515Y-63834386D01*
X175960587Y-63923412D01*
X175767157Y-64052658D01*
X175602658Y-64217157D01*
X175473412Y-64410587D01*
X175384386Y-64625515D01*
X175339000Y-64853682D01*
X175339000Y-65086318D01*
X175384386Y-65314485D01*
X175461274Y-65500108D01*
X171589764Y-69371619D01*
X171589764Y-68088853D01*
X176131313Y-63547305D01*
X176175515Y-63565614D01*
X176403682Y-63611000D01*
X176636318Y-63611000D01*
X176864485Y-63565614D01*
X177079413Y-63476588D01*
X177272843Y-63347342D01*
X177394001Y-63226184D01*
X177394001Y-64173816D01*
G37*
%TD.AperFunction*%
D17*
X160527157Y-63347342D02*
X160720587Y-63476588D01*
X160935515Y-63565614D01*
X161163682Y-63611000D01*
X161396318Y-63611000D01*
X161624485Y-63565614D01*
X161810109Y-63488726D01*
X165874701Y-67553319D01*
X165874701Y-68836083D01*
X162397305Y-65358688D01*
X162415614Y-65314485D01*
X162461000Y-65086318D01*
X162461000Y-64853682D01*
X162415614Y-64625515D01*
X162326588Y-64410587D01*
X162197342Y-64217157D01*
X162032843Y-64052658D01*
X161839413Y-63923412D01*
X161624485Y-63834386D01*
X161396318Y-63789000D01*
X161163682Y-63789000D01*
X160935515Y-63834386D01*
X160720587Y-63923412D01*
X160527157Y-64052658D01*
X160426000Y-64153815D01*
X160426000Y-63246185D01*
X160527157Y-63347342D01*
%TA.AperFunction,Conductor*%
D18*
G36*
X160527157Y-63347342D02*
G01*
X160720587Y-63476588D01*
X160935515Y-63565614D01*
X161163682Y-63611000D01*
X161396318Y-63611000D01*
X161624485Y-63565614D01*
X161810109Y-63488726D01*
X165874701Y-67553319D01*
X165874701Y-68836083D01*
X162397305Y-65358688D01*
X162415614Y-65314485D01*
X162461000Y-65086318D01*
X162461000Y-64853682D01*
X162415614Y-64625515D01*
X162326588Y-64410587D01*
X162197342Y-64217157D01*
X162032843Y-64052658D01*
X161839413Y-63923412D01*
X161624485Y-63834386D01*
X161396318Y-63789000D01*
X161163682Y-63789000D01*
X160935515Y-63834386D01*
X160720587Y-63923412D01*
X160527157Y-64052658D01*
X160426000Y-64153815D01*
X160426000Y-63246185D01*
X160527157Y-63347342D01*
G37*
%TD.AperFunction*%
D17*
X177394001Y-61633816D02*
X177272843Y-61512658D01*
X177079413Y-61383412D01*
X176864485Y-61294386D01*
X176636318Y-61249000D01*
X176403682Y-61249000D01*
X176175515Y-61294386D01*
X175960587Y-61383412D01*
X175767157Y-61512658D01*
X175602658Y-61677157D01*
X175473412Y-61870587D01*
X175384386Y-62085515D01*
X175339000Y-62313682D01*
X175339000Y-62546318D01*
X175384386Y-62774485D01*
X175461274Y-62960108D01*
X171335754Y-67085629D01*
X171335754Y-65802863D01*
X176131313Y-61007305D01*
X176175515Y-61025614D01*
X176403682Y-61071000D01*
X176636318Y-61071000D01*
X176864485Y-61025614D01*
X177079413Y-60936588D01*
X177272843Y-60807342D01*
X177394001Y-60686184D01*
X177394001Y-61633816D01*
%TA.AperFunction,Conductor*%
D18*
G36*
X177394001Y-61633816D02*
G01*
X177272843Y-61512658D01*
X177079413Y-61383412D01*
X176864485Y-61294386D01*
X176636318Y-61249000D01*
X176403682Y-61249000D01*
X176175515Y-61294386D01*
X175960587Y-61383412D01*
X175767157Y-61512658D01*
X175602658Y-61677157D01*
X175473412Y-61870587D01*
X175384386Y-62085515D01*
X175339000Y-62313682D01*
X175339000Y-62546318D01*
X175384386Y-62774485D01*
X175461274Y-62960108D01*
X171335754Y-67085629D01*
X171335754Y-65802863D01*
X176131313Y-61007305D01*
X176175515Y-61025614D01*
X176403682Y-61071000D01*
X176636318Y-61071000D01*
X176864485Y-61025614D01*
X177079413Y-60936588D01*
X177272843Y-60807342D01*
X177394001Y-60686184D01*
X177394001Y-61633816D01*
G37*
%TD.AperFunction*%
D17*
X160527157Y-60807342D02*
X160720587Y-60936588D01*
X160935515Y-61025614D01*
X161163682Y-61071000D01*
X161396318Y-61071000D01*
X161624485Y-61025614D01*
X161810109Y-60948726D01*
X166128701Y-65267319D01*
X166128701Y-66550083D01*
X162397305Y-62818688D01*
X162415614Y-62774485D01*
X162461000Y-62546318D01*
X162461000Y-62313682D01*
X162415614Y-62085515D01*
X162326588Y-61870587D01*
X162197342Y-61677157D01*
X162032843Y-61512658D01*
X161839413Y-61383412D01*
X161624485Y-61294386D01*
X161396318Y-61249000D01*
X161163682Y-61249000D01*
X160935515Y-61294386D01*
X160720587Y-61383412D01*
X160527157Y-61512658D01*
X160426000Y-61613815D01*
X160426000Y-60706185D01*
X160527157Y-60807342D01*
%TA.AperFunction,Conductor*%
D18*
G36*
X160527157Y-60807342D02*
G01*
X160720587Y-60936588D01*
X160935515Y-61025614D01*
X161163682Y-61071000D01*
X161396318Y-61071000D01*
X161624485Y-61025614D01*
X161810109Y-60948726D01*
X166128701Y-65267319D01*
X166128701Y-66550083D01*
X162397305Y-62818688D01*
X162415614Y-62774485D01*
X162461000Y-62546318D01*
X162461000Y-62313682D01*
X162415614Y-62085515D01*
X162326588Y-61870587D01*
X162197342Y-61677157D01*
X162032843Y-61512658D01*
X161839413Y-61383412D01*
X161624485Y-61294386D01*
X161396318Y-61249000D01*
X161163682Y-61249000D01*
X160935515Y-61294386D01*
X160720587Y-61383412D01*
X160527157Y-61512658D01*
X160426000Y-61613815D01*
X160426000Y-60706185D01*
X160527157Y-60807342D01*
G37*
%TD.AperFunction*%
D17*
X177394001Y-59093816D02*
X177272843Y-58972658D01*
X177079413Y-58843412D01*
X176864485Y-58754386D01*
X176636318Y-58709000D01*
X176403682Y-58709000D01*
X176175515Y-58754386D01*
X175960587Y-58843412D01*
X175767157Y-58972658D01*
X175602658Y-59137157D01*
X175473412Y-59330587D01*
X175384386Y-59545515D01*
X175339000Y-59773682D01*
X175339000Y-60006318D01*
X175384386Y-60234485D01*
X175461274Y-60420108D01*
X171081743Y-64799640D01*
X171081743Y-63531674D01*
X176141778Y-58471640D01*
X176175515Y-58485614D01*
X176403682Y-58531000D01*
X176636318Y-58531000D01*
X176864485Y-58485614D01*
X177079413Y-58396588D01*
X177272843Y-58267342D01*
X177394001Y-58146184D01*
X177394001Y-59093816D01*
%TA.AperFunction,Conductor*%
D18*
G36*
X177394001Y-59093816D02*
G01*
X177272843Y-58972658D01*
X177079413Y-58843412D01*
X176864485Y-58754386D01*
X176636318Y-58709000D01*
X176403682Y-58709000D01*
X176175515Y-58754386D01*
X175960587Y-58843412D01*
X175767157Y-58972658D01*
X175602658Y-59137157D01*
X175473412Y-59330587D01*
X175384386Y-59545515D01*
X175339000Y-59773682D01*
X175339000Y-60006318D01*
X175384386Y-60234485D01*
X175461274Y-60420108D01*
X171081743Y-64799640D01*
X171081743Y-63531674D01*
X176141778Y-58471640D01*
X176175515Y-58485614D01*
X176403682Y-58531000D01*
X176636318Y-58531000D01*
X176864485Y-58485614D01*
X177079413Y-58396588D01*
X177272843Y-58267342D01*
X177394001Y-58146184D01*
X177394001Y-59093816D01*
G37*
%TD.AperFunction*%
D17*
X160527157Y-58267342D02*
X160720587Y-58396588D01*
X160935515Y-58485614D01*
X161163682Y-58531000D01*
X161396318Y-58531000D01*
X161624485Y-58485614D01*
X161810109Y-58408726D01*
X166382701Y-62981319D01*
X166382701Y-64264083D01*
X162397305Y-60278688D01*
X162415614Y-60234485D01*
X162461000Y-60006318D01*
X162461000Y-59773682D01*
X162415614Y-59545515D01*
X162326588Y-59330587D01*
X162197342Y-59137157D01*
X162032843Y-58972658D01*
X161839413Y-58843412D01*
X161624485Y-58754386D01*
X161396318Y-58709000D01*
X161163682Y-58709000D01*
X160935515Y-58754386D01*
X160720587Y-58843412D01*
X160527157Y-58972658D01*
X160426000Y-59073815D01*
X160426000Y-58166185D01*
X160527157Y-58267342D01*
%TA.AperFunction,Conductor*%
D18*
G36*
X160527157Y-58267342D02*
G01*
X160720587Y-58396588D01*
X160935515Y-58485614D01*
X161163682Y-58531000D01*
X161396318Y-58531000D01*
X161624485Y-58485614D01*
X161810109Y-58408726D01*
X166382701Y-62981319D01*
X166382701Y-64264083D01*
X162397305Y-60278688D01*
X162415614Y-60234485D01*
X162461000Y-60006318D01*
X162461000Y-59773682D01*
X162415614Y-59545515D01*
X162326588Y-59330587D01*
X162197342Y-59137157D01*
X162032843Y-58972658D01*
X161839413Y-58843412D01*
X161624485Y-58754386D01*
X161396318Y-58709000D01*
X161163682Y-58709000D01*
X160935515Y-58754386D01*
X160720587Y-58843412D01*
X160527157Y-58972658D01*
X160426000Y-59073815D01*
X160426000Y-58166185D01*
X160527157Y-58267342D01*
G37*
%TD.AperFunction*%
D17*
X177394001Y-56553816D02*
X177272843Y-56432658D01*
X177079413Y-56303412D01*
X176864485Y-56214386D01*
X176636318Y-56169000D01*
X176403682Y-56169000D01*
X176175515Y-56214386D01*
X175960587Y-56303412D01*
X175767157Y-56432658D01*
X175602658Y-56597157D01*
X175473412Y-56790587D01*
X175384386Y-57005515D01*
X175339000Y-57233682D01*
X175339000Y-57466318D01*
X175384386Y-57694485D01*
X175465608Y-57890574D01*
X170827732Y-62528451D01*
X170827732Y-61230885D01*
X176131312Y-55927305D01*
X176175515Y-55945614D01*
X176403682Y-55991000D01*
X176636318Y-55991000D01*
X176864485Y-55945614D01*
X177079413Y-55856588D01*
X177272843Y-55727342D01*
X177394001Y-55606184D01*
X177394001Y-56553816D01*
%TA.AperFunction,Conductor*%
D18*
G36*
X177394001Y-56553816D02*
G01*
X177272843Y-56432658D01*
X177079413Y-56303412D01*
X176864485Y-56214386D01*
X176636318Y-56169000D01*
X176403682Y-56169000D01*
X176175515Y-56214386D01*
X175960587Y-56303412D01*
X175767157Y-56432658D01*
X175602658Y-56597157D01*
X175473412Y-56790587D01*
X175384386Y-57005515D01*
X175339000Y-57233682D01*
X175339000Y-57466318D01*
X175384386Y-57694485D01*
X175465608Y-57890574D01*
X170827732Y-62528451D01*
X170827732Y-61230885D01*
X176131312Y-55927305D01*
X176175515Y-55945614D01*
X176403682Y-55991000D01*
X176636318Y-55991000D01*
X176864485Y-55945614D01*
X177079413Y-55856588D01*
X177272843Y-55727342D01*
X177394001Y-55606184D01*
X177394001Y-56553816D01*
G37*
%TD.AperFunction*%
D17*
X160527157Y-55727342D02*
X160720587Y-55856588D01*
X160935515Y-55945614D01*
X161163682Y-55991000D01*
X161396318Y-55991000D01*
X161624485Y-55945614D01*
X161810109Y-55868726D01*
X166636701Y-60695319D01*
X166636701Y-61978083D01*
X162397305Y-57738688D01*
X162415614Y-57694485D01*
X162461000Y-57466318D01*
X162461000Y-57233682D01*
X162415614Y-57005515D01*
X162326588Y-56790587D01*
X162197342Y-56597157D01*
X162032843Y-56432658D01*
X161839413Y-56303412D01*
X161624485Y-56214386D01*
X161396318Y-56169000D01*
X161163682Y-56169000D01*
X160935515Y-56214386D01*
X160720587Y-56303412D01*
X160527157Y-56432658D01*
X160426000Y-56533815D01*
X160426000Y-55626185D01*
X160527157Y-55727342D01*
%TA.AperFunction,Conductor*%
D18*
G36*
X160527157Y-55727342D02*
G01*
X160720587Y-55856588D01*
X160935515Y-55945614D01*
X161163682Y-55991000D01*
X161396318Y-55991000D01*
X161624485Y-55945614D01*
X161810109Y-55868726D01*
X166636701Y-60695319D01*
X166636701Y-61978083D01*
X162397305Y-57738688D01*
X162415614Y-57694485D01*
X162461000Y-57466318D01*
X162461000Y-57233682D01*
X162415614Y-57005515D01*
X162326588Y-56790587D01*
X162197342Y-56597157D01*
X162032843Y-56432658D01*
X161839413Y-56303412D01*
X161624485Y-56214386D01*
X161396318Y-56169000D01*
X161163682Y-56169000D01*
X160935515Y-56214386D01*
X160720587Y-56303412D01*
X160527157Y-56432658D01*
X160426000Y-56533815D01*
X160426000Y-55626185D01*
X160527157Y-55727342D01*
G37*
%TD.AperFunction*%
D17*
X177394001Y-48933816D02*
X177272843Y-48812658D01*
X177079413Y-48683412D01*
X176864485Y-48594386D01*
X176636318Y-48549000D01*
X176403682Y-48549000D01*
X176175515Y-48594386D01*
X175960587Y-48683412D01*
X175767157Y-48812658D01*
X175602658Y-48977157D01*
X175473412Y-49170587D01*
X175384386Y-49385515D01*
X175339000Y-49613682D01*
X175339000Y-49846318D01*
X175384386Y-50074485D01*
X175473412Y-50289413D01*
X175602658Y-50482843D01*
X175767157Y-50647342D01*
X175960587Y-50776588D01*
X176175515Y-50865614D01*
X176403682Y-50911000D01*
X176636318Y-50911000D01*
X176864485Y-50865614D01*
X177079413Y-50776588D01*
X177272843Y-50647342D01*
X177394001Y-50526184D01*
X177394001Y-51473816D01*
X177272843Y-51352658D01*
X177079413Y-51223412D01*
X176864485Y-51134386D01*
X176636318Y-51089000D01*
X176403682Y-51089000D01*
X176175515Y-51134386D01*
X175960587Y-51223412D01*
X175767157Y-51352658D01*
X175602658Y-51517157D01*
X175473412Y-51710587D01*
X175384386Y-51925515D01*
X175339000Y-52153682D01*
X175339000Y-52386318D01*
X175384386Y-52614485D01*
X175473412Y-52829413D01*
X175602658Y-53022843D01*
X175767157Y-53187342D01*
X175960587Y-53316588D01*
X176175515Y-53405614D01*
X176403682Y-53451000D01*
X176636318Y-53451000D01*
X176864485Y-53405614D01*
X177079413Y-53316588D01*
X177272843Y-53187342D01*
X177394001Y-53066184D01*
X177394001Y-54013816D01*
X177272843Y-53892658D01*
X177079413Y-53763412D01*
X176864485Y-53674386D01*
X176636318Y-53629000D01*
X176403682Y-53629000D01*
X176175515Y-53674386D01*
X175960587Y-53763412D01*
X175767157Y-53892658D01*
X175602658Y-54057157D01*
X175473412Y-54250587D01*
X175384386Y-54465515D01*
X175339000Y-54693682D01*
X175339000Y-54926318D01*
X175384386Y-55154485D01*
X175461274Y-55340109D01*
X170573721Y-60227662D01*
X170573721Y-53864896D01*
X176131313Y-48307305D01*
X176175515Y-48325614D01*
X176403682Y-48371000D01*
X176636318Y-48371000D01*
X176864485Y-48325614D01*
X177079413Y-48236588D01*
X177272843Y-48107342D01*
X177394001Y-47986184D01*
X177394001Y-48933816D01*
%TA.AperFunction,Conductor*%
D18*
G36*
X177394001Y-48933816D02*
G01*
X177272843Y-48812658D01*
X177079413Y-48683412D01*
X176864485Y-48594386D01*
X176636318Y-48549000D01*
X176403682Y-48549000D01*
X176175515Y-48594386D01*
X175960587Y-48683412D01*
X175767157Y-48812658D01*
X175602658Y-48977157D01*
X175473412Y-49170587D01*
X175384386Y-49385515D01*
X175339000Y-49613682D01*
X175339000Y-49846318D01*
X175384386Y-50074485D01*
X175473412Y-50289413D01*
X175602658Y-50482843D01*
X175767157Y-50647342D01*
X175960587Y-50776588D01*
X176175515Y-50865614D01*
X176403682Y-50911000D01*
X176636318Y-50911000D01*
X176864485Y-50865614D01*
X177079413Y-50776588D01*
X177272843Y-50647342D01*
X177394001Y-50526184D01*
X177394001Y-51473816D01*
X177272843Y-51352658D01*
X177079413Y-51223412D01*
X176864485Y-51134386D01*
X176636318Y-51089000D01*
X176403682Y-51089000D01*
X176175515Y-51134386D01*
X175960587Y-51223412D01*
X175767157Y-51352658D01*
X175602658Y-51517157D01*
X175473412Y-51710587D01*
X175384386Y-51925515D01*
X175339000Y-52153682D01*
X175339000Y-52386318D01*
X175384386Y-52614485D01*
X175473412Y-52829413D01*
X175602658Y-53022843D01*
X175767157Y-53187342D01*
X175960587Y-53316588D01*
X176175515Y-53405614D01*
X176403682Y-53451000D01*
X176636318Y-53451000D01*
X176864485Y-53405614D01*
X177079413Y-53316588D01*
X177272843Y-53187342D01*
X177394001Y-53066184D01*
X177394001Y-54013816D01*
X177272843Y-53892658D01*
X177079413Y-53763412D01*
X176864485Y-53674386D01*
X176636318Y-53629000D01*
X176403682Y-53629000D01*
X176175515Y-53674386D01*
X175960587Y-53763412D01*
X175767157Y-53892658D01*
X175602658Y-54057157D01*
X175473412Y-54250587D01*
X175384386Y-54465515D01*
X175339000Y-54693682D01*
X175339000Y-54926318D01*
X175384386Y-55154485D01*
X175461274Y-55340109D01*
X170573721Y-60227662D01*
X170573721Y-53864896D01*
X176131313Y-48307305D01*
X176175515Y-48325614D01*
X176403682Y-48371000D01*
X176636318Y-48371000D01*
X176864485Y-48325614D01*
X177079413Y-48236588D01*
X177272843Y-48107342D01*
X177394001Y-47986184D01*
X177394001Y-48933816D01*
G37*
%TD.AperFunction*%
D17*
X160527157Y-53187342D02*
X160720587Y-53316588D01*
X160935515Y-53405614D01*
X161163682Y-53451000D01*
X161396318Y-53451000D01*
X161624485Y-53405614D01*
X161810109Y-53328726D01*
X166890701Y-58409319D01*
X166890701Y-59692083D01*
X162397305Y-55198688D01*
X162415614Y-55154485D01*
X162461000Y-54926318D01*
X162461000Y-54693682D01*
X162415614Y-54465515D01*
X162326588Y-54250587D01*
X162197342Y-54057157D01*
X162032843Y-53892658D01*
X161839413Y-53763412D01*
X161624485Y-53674386D01*
X161396318Y-53629000D01*
X161163682Y-53629000D01*
X160935515Y-53674386D01*
X160720587Y-53763412D01*
X160527157Y-53892658D01*
X160426000Y-53993815D01*
X160426000Y-53086185D01*
X160527157Y-53187342D01*
%TA.AperFunction,Conductor*%
D18*
G36*
X160527157Y-53187342D02*
G01*
X160720587Y-53316588D01*
X160935515Y-53405614D01*
X161163682Y-53451000D01*
X161396318Y-53451000D01*
X161624485Y-53405614D01*
X161810109Y-53328726D01*
X166890701Y-58409319D01*
X166890701Y-59692083D01*
X162397305Y-55198688D01*
X162415614Y-55154485D01*
X162461000Y-54926318D01*
X162461000Y-54693682D01*
X162415614Y-54465515D01*
X162326588Y-54250587D01*
X162197342Y-54057157D01*
X162032843Y-53892658D01*
X161839413Y-53763412D01*
X161624485Y-53674386D01*
X161396318Y-53629000D01*
X161163682Y-53629000D01*
X160935515Y-53674386D01*
X160720587Y-53763412D01*
X160527157Y-53892658D01*
X160426000Y-53993815D01*
X160426000Y-53086185D01*
X160527157Y-53187342D01*
G37*
%TD.AperFunction*%
D17*
X160527157Y-50647342D02*
X160720587Y-50776588D01*
X160935515Y-50865614D01*
X161163682Y-50911000D01*
X161396318Y-50911000D01*
X161624485Y-50865614D01*
X161810109Y-50788726D01*
X167144701Y-56123319D01*
X167144701Y-57406083D01*
X162397305Y-52658688D01*
X162415614Y-52614485D01*
X162461000Y-52386318D01*
X162461000Y-52153682D01*
X162415614Y-51925515D01*
X162326588Y-51710587D01*
X162197342Y-51517157D01*
X162032843Y-51352658D01*
X161839413Y-51223412D01*
X161624485Y-51134386D01*
X161396318Y-51089000D01*
X161163682Y-51089000D01*
X160935515Y-51134386D01*
X160720587Y-51223412D01*
X160527157Y-51352658D01*
X160426000Y-51453815D01*
X160426000Y-50546185D01*
X160527157Y-50647342D01*
%TA.AperFunction,Conductor*%
D18*
G36*
X160527157Y-50647342D02*
G01*
X160720587Y-50776588D01*
X160935515Y-50865614D01*
X161163682Y-50911000D01*
X161396318Y-50911000D01*
X161624485Y-50865614D01*
X161810109Y-50788726D01*
X167144701Y-56123319D01*
X167144701Y-57406083D01*
X162397305Y-52658688D01*
X162415614Y-52614485D01*
X162461000Y-52386318D01*
X162461000Y-52153682D01*
X162415614Y-51925515D01*
X162326588Y-51710587D01*
X162197342Y-51517157D01*
X162032843Y-51352658D01*
X161839413Y-51223412D01*
X161624485Y-51134386D01*
X161396318Y-51089000D01*
X161163682Y-51089000D01*
X160935515Y-51134386D01*
X160720587Y-51223412D01*
X160527157Y-51352658D01*
X160426000Y-51453815D01*
X160426000Y-50546185D01*
X160527157Y-50647342D01*
G37*
%TD.AperFunction*%
D17*
X160527157Y-48107342D02*
X160720587Y-48236588D01*
X160935515Y-48325614D01*
X161163682Y-48371000D01*
X161396318Y-48371000D01*
X161624485Y-48325614D01*
X161810109Y-48248726D01*
X167398701Y-53837319D01*
X167398701Y-55120083D01*
X162397305Y-50118688D01*
X162415614Y-50074485D01*
X162461000Y-49846318D01*
X162461000Y-49613682D01*
X162415614Y-49385515D01*
X162326588Y-49170587D01*
X162197342Y-48977157D01*
X162032843Y-48812658D01*
X161839413Y-48683412D01*
X161624485Y-48594386D01*
X161396318Y-48549000D01*
X161163682Y-48549000D01*
X160935515Y-48594386D01*
X160720587Y-48683412D01*
X160527157Y-48812658D01*
X160426000Y-48913815D01*
X160426000Y-48006185D01*
X160527157Y-48107342D01*
%TA.AperFunction,Conductor*%
D18*
G36*
X160527157Y-48107342D02*
G01*
X160720587Y-48236588D01*
X160935515Y-48325614D01*
X161163682Y-48371000D01*
X161396318Y-48371000D01*
X161624485Y-48325614D01*
X161810109Y-48248726D01*
X167398701Y-53837319D01*
X167398701Y-55120083D01*
X162397305Y-50118688D01*
X162415614Y-50074485D01*
X162461000Y-49846318D01*
X162461000Y-49613682D01*
X162415614Y-49385515D01*
X162326588Y-49170587D01*
X162197342Y-48977157D01*
X162032843Y-48812658D01*
X161839413Y-48683412D01*
X161624485Y-48594386D01*
X161396318Y-48549000D01*
X161163682Y-48549000D01*
X160935515Y-48594386D01*
X160720587Y-48683412D01*
X160527157Y-48812658D01*
X160426000Y-48913815D01*
X160426000Y-48006185D01*
X160527157Y-48107342D01*
G37*
%TD.AperFunction*%
D17*
X177394001Y-46393816D02*
X177272843Y-46272658D01*
X177079413Y-46143412D01*
X176864485Y-46054386D01*
X176636318Y-46009000D01*
X176403682Y-46009000D01*
X176175515Y-46054386D01*
X175960587Y-46143412D01*
X175767157Y-46272658D01*
X175602658Y-46437157D01*
X175473412Y-46630587D01*
X175384386Y-46845515D01*
X175339000Y-47073682D01*
X175339000Y-47306318D01*
X175384386Y-47534485D01*
X175461274Y-47720108D01*
X170319710Y-52861673D01*
X170319710Y-51638107D01*
X176173174Y-45784644D01*
X176175515Y-45785614D01*
X176403682Y-45831000D01*
X176636318Y-45831000D01*
X176864485Y-45785614D01*
X177079413Y-45696588D01*
X177272843Y-45567342D01*
X177394001Y-45446184D01*
X177394001Y-46393816D01*
%TA.AperFunction,Conductor*%
D18*
G36*
X177394001Y-46393816D02*
G01*
X177272843Y-46272658D01*
X177079413Y-46143412D01*
X176864485Y-46054386D01*
X176636318Y-46009000D01*
X176403682Y-46009000D01*
X176175515Y-46054386D01*
X175960587Y-46143412D01*
X175767157Y-46272658D01*
X175602658Y-46437157D01*
X175473412Y-46630587D01*
X175384386Y-46845515D01*
X175339000Y-47073682D01*
X175339000Y-47306318D01*
X175384386Y-47534485D01*
X175461274Y-47720108D01*
X170319710Y-52861673D01*
X170319710Y-51638107D01*
X176173174Y-45784644D01*
X176175515Y-45785614D01*
X176403682Y-45831000D01*
X176636318Y-45831000D01*
X176864485Y-45785614D01*
X177079413Y-45696588D01*
X177272843Y-45567342D01*
X177394001Y-45446184D01*
X177394001Y-46393816D01*
G37*
%TD.AperFunction*%
D17*
X160527157Y-45567342D02*
X160720587Y-45696588D01*
X160935515Y-45785614D01*
X161163682Y-45831000D01*
X161396318Y-45831000D01*
X161624485Y-45785614D01*
X161810109Y-45708726D01*
X167652701Y-51551319D01*
X167652701Y-52834083D01*
X162397305Y-47578688D01*
X162415614Y-47534485D01*
X162461000Y-47306318D01*
X162461000Y-47073682D01*
X162415614Y-46845515D01*
X162326588Y-46630587D01*
X162197342Y-46437157D01*
X162032843Y-46272658D01*
X161839413Y-46143412D01*
X161624485Y-46054386D01*
X161396318Y-46009000D01*
X161163682Y-46009000D01*
X160935515Y-46054386D01*
X160720587Y-46143412D01*
X160527157Y-46272658D01*
X160426000Y-46373815D01*
X160426000Y-45466185D01*
X160527157Y-45567342D01*
%TA.AperFunction,Conductor*%
D18*
G36*
X160527157Y-45567342D02*
G01*
X160720587Y-45696588D01*
X160935515Y-45785614D01*
X161163682Y-45831000D01*
X161396318Y-45831000D01*
X161624485Y-45785614D01*
X161810109Y-45708726D01*
X167652701Y-51551319D01*
X167652701Y-52834083D01*
X162397305Y-47578688D01*
X162415614Y-47534485D01*
X162461000Y-47306318D01*
X162461000Y-47073682D01*
X162415614Y-46845515D01*
X162326588Y-46630587D01*
X162197342Y-46437157D01*
X162032843Y-46272658D01*
X161839413Y-46143412D01*
X161624485Y-46054386D01*
X161396318Y-46009000D01*
X161163682Y-46009000D01*
X160935515Y-46054386D01*
X160720587Y-46143412D01*
X160527157Y-46272658D01*
X160426000Y-46373815D01*
X160426000Y-45466185D01*
X160527157Y-45567342D01*
G37*
%TD.AperFunction*%
D17*
X177394001Y-43853816D02*
X177272843Y-43732658D01*
X177079413Y-43603412D01*
X176864485Y-43514386D01*
X176636318Y-43469000D01*
X176403682Y-43469000D01*
X176175515Y-43514386D01*
X175960587Y-43603412D01*
X175767157Y-43732658D01*
X175602658Y-43897157D01*
X175473412Y-44090587D01*
X175384386Y-44305515D01*
X175339000Y-44533682D01*
X175339000Y-44766318D01*
X175384386Y-44994485D01*
X175473412Y-45209413D01*
X175480525Y-45220058D01*
X170065700Y-50634883D01*
X170065700Y-49292917D01*
X176131313Y-43227305D01*
X176175515Y-43245614D01*
X176403682Y-43291000D01*
X176636318Y-43291000D01*
X176864485Y-43245614D01*
X177079413Y-43156588D01*
X177272843Y-43027342D01*
X177394001Y-42906184D01*
X177394001Y-43853816D01*
%TA.AperFunction,Conductor*%
D18*
G36*
X177394001Y-43853816D02*
G01*
X177272843Y-43732658D01*
X177079413Y-43603412D01*
X176864485Y-43514386D01*
X176636318Y-43469000D01*
X176403682Y-43469000D01*
X176175515Y-43514386D01*
X175960587Y-43603412D01*
X175767157Y-43732658D01*
X175602658Y-43897157D01*
X175473412Y-44090587D01*
X175384386Y-44305515D01*
X175339000Y-44533682D01*
X175339000Y-44766318D01*
X175384386Y-44994485D01*
X175473412Y-45209413D01*
X175480525Y-45220058D01*
X170065700Y-50634883D01*
X170065700Y-49292917D01*
X176131313Y-43227305D01*
X176175515Y-43245614D01*
X176403682Y-43291000D01*
X176636318Y-43291000D01*
X176864485Y-43245614D01*
X177079413Y-43156588D01*
X177272843Y-43027342D01*
X177394001Y-42906184D01*
X177394001Y-43853816D01*
G37*
%TD.AperFunction*%
D17*
X160527157Y-43027342D02*
X160720587Y-43156588D01*
X160935515Y-43245614D01*
X161163682Y-43291000D01*
X161396318Y-43291000D01*
X161624485Y-43245614D01*
X161810109Y-43168726D01*
X167906700Y-49265318D01*
X167906700Y-49457371D01*
X167906701Y-49869824D01*
X167906701Y-50219361D01*
X167906700Y-50219371D01*
X167906700Y-50548082D01*
X162397305Y-45038688D01*
X162415614Y-44994485D01*
X162461000Y-44766318D01*
X162461000Y-44533682D01*
X162415614Y-44305515D01*
X162326588Y-44090587D01*
X162197342Y-43897157D01*
X162032843Y-43732658D01*
X161839413Y-43603412D01*
X161624485Y-43514386D01*
X161396318Y-43469000D01*
X161163682Y-43469000D01*
X160935515Y-43514386D01*
X160720587Y-43603412D01*
X160527157Y-43732658D01*
X160426000Y-43833815D01*
X160426000Y-42926185D01*
X160527157Y-43027342D01*
%TA.AperFunction,Conductor*%
D18*
G36*
X160527157Y-43027342D02*
G01*
X160720587Y-43156588D01*
X160935515Y-43245614D01*
X161163682Y-43291000D01*
X161396318Y-43291000D01*
X161624485Y-43245614D01*
X161810109Y-43168726D01*
X167906700Y-49265318D01*
X167906700Y-49457371D01*
X167906701Y-49869824D01*
X167906701Y-50219361D01*
X167906700Y-50219371D01*
X167906700Y-50548082D01*
X162397305Y-45038688D01*
X162415614Y-44994485D01*
X162461000Y-44766318D01*
X162461000Y-44533682D01*
X162415614Y-44305515D01*
X162326588Y-44090587D01*
X162197342Y-43897157D01*
X162032843Y-43732658D01*
X161839413Y-43603412D01*
X161624485Y-43514386D01*
X161396318Y-43469000D01*
X161163682Y-43469000D01*
X160935515Y-43514386D01*
X160720587Y-43603412D01*
X160527157Y-43732658D01*
X160426000Y-43833815D01*
X160426000Y-42926185D01*
X160527157Y-43027342D01*
G37*
%TD.AperFunction*%
%TD*%
M02*
