%TF.GenerationSoftware,KiCad,Pcbnew,(5.1.9)-1*%
%TF.CreationDate,2021-10-06T21:40:27+02:00*%
%TF.ProjectId,Bluster,426c7573-7465-4722-9e6b-696361645f70,rev?*%
%TF.SameCoordinates,Original*%
%TF.FileFunction,Soldermask,Top*%
%TF.FilePolarity,Negative*%
%FSLAX46Y46*%
G04 Gerber Fmt 4.6, Leading zero omitted, Abs format (unit mm)*
G04 Created by KiCad (PCBNEW (5.1.9)-1) date 2021-10-06 21:40:27*
%MOMM*%
%LPD*%
G01*
G04 APERTURE LIST*
%ADD10O,1.200000X1.200000*%
%ADD11R,1.200000X1.200000*%
%ADD12O,1.700000X1.700000*%
%ADD13R,1.700000X1.700000*%
G04 APERTURE END LIST*
D10*
%TO.C,J1*%
X176520000Y-39570000D03*
X161280000Y-97990000D03*
X176520000Y-42110000D03*
X161280000Y-95450000D03*
X176520000Y-44650000D03*
X161280000Y-92910000D03*
X176520000Y-47190000D03*
X161280000Y-90370000D03*
X176520000Y-49730000D03*
X161280000Y-87830000D03*
X176520000Y-52270000D03*
X161280000Y-85290000D03*
X176520000Y-54810000D03*
X161280000Y-82750000D03*
X176520000Y-57350000D03*
X161280000Y-80210000D03*
X176520000Y-59890000D03*
X161280000Y-77670000D03*
X176520000Y-62430000D03*
X161280000Y-75130000D03*
X176520000Y-64970000D03*
X161280000Y-72590000D03*
X176520000Y-67510000D03*
X161280000Y-70050000D03*
X176520000Y-70050000D03*
X161280000Y-67510000D03*
X176520000Y-72590000D03*
X161280000Y-64970000D03*
X176520000Y-75130000D03*
X161280000Y-62430000D03*
X176520000Y-77670000D03*
X161280000Y-59890000D03*
X176520000Y-80210000D03*
X161280000Y-57350000D03*
X176520000Y-82750000D03*
X161280000Y-54810000D03*
X176520000Y-85290000D03*
X161280000Y-52270000D03*
X176520000Y-87830000D03*
X161280000Y-49730000D03*
X176520000Y-90370000D03*
X161280000Y-47190000D03*
X176520000Y-92910000D03*
X161280000Y-44650000D03*
X176520000Y-95450000D03*
X161280000Y-42110000D03*
X176520000Y-97990000D03*
D11*
X161280000Y-39570000D03*
%TD*%
%TO.C,U1*%
G36*
G01*
X169675118Y-61194549D02*
X170612034Y-60257633D01*
G75*
G02*
X170718100Y-60257633I53033J-53033D01*
G01*
X170824166Y-60363699D01*
G75*
G02*
X170824166Y-60469765I-53033J-53033D01*
G01*
X169887250Y-61406681D01*
G75*
G02*
X169781184Y-61406681I-53033J53033D01*
G01*
X169675118Y-61300615D01*
G75*
G02*
X169675118Y-61194549I53033J53033D01*
G01*
G37*
G36*
G01*
X170028671Y-61548103D02*
X170965587Y-60611187D01*
G75*
G02*
X171071653Y-60611187I53033J-53033D01*
G01*
X171177719Y-60717253D01*
G75*
G02*
X171177719Y-60823319I-53033J-53033D01*
G01*
X170240803Y-61760235D01*
G75*
G02*
X170134737Y-61760235I-53033J53033D01*
G01*
X170028671Y-61654169D01*
G75*
G02*
X170028671Y-61548103I53033J53033D01*
G01*
G37*
G36*
G01*
X170382225Y-61901656D02*
X171319141Y-60964740D01*
G75*
G02*
X171425207Y-60964740I53033J-53033D01*
G01*
X171531273Y-61070806D01*
G75*
G02*
X171531273Y-61176872I-53033J-53033D01*
G01*
X170594357Y-62113788D01*
G75*
G02*
X170488291Y-62113788I-53033J53033D01*
G01*
X170382225Y-62007722D01*
G75*
G02*
X170382225Y-61901656I53033J53033D01*
G01*
G37*
G36*
G01*
X170735778Y-62255210D02*
X171672694Y-61318294D01*
G75*
G02*
X171778760Y-61318294I53033J-53033D01*
G01*
X171884826Y-61424360D01*
G75*
G02*
X171884826Y-61530426I-53033J-53033D01*
G01*
X170947910Y-62467342D01*
G75*
G02*
X170841844Y-62467342I-53033J53033D01*
G01*
X170735778Y-62361276D01*
G75*
G02*
X170735778Y-62255210I53033J53033D01*
G01*
G37*
G36*
G01*
X171089331Y-62608763D02*
X172026247Y-61671847D01*
G75*
G02*
X172132313Y-61671847I53033J-53033D01*
G01*
X172238379Y-61777913D01*
G75*
G02*
X172238379Y-61883979I-53033J-53033D01*
G01*
X171301463Y-62820895D01*
G75*
G02*
X171195397Y-62820895I-53033J53033D01*
G01*
X171089331Y-62714829D01*
G75*
G02*
X171089331Y-62608763I53033J53033D01*
G01*
G37*
G36*
G01*
X171442885Y-62962316D02*
X172379801Y-62025400D01*
G75*
G02*
X172485867Y-62025400I53033J-53033D01*
G01*
X172591933Y-62131466D01*
G75*
G02*
X172591933Y-62237532I-53033J-53033D01*
G01*
X171655017Y-63174448D01*
G75*
G02*
X171548951Y-63174448I-53033J53033D01*
G01*
X171442885Y-63068382D01*
G75*
G02*
X171442885Y-62962316I53033J53033D01*
G01*
G37*
G36*
G01*
X171796438Y-63315870D02*
X172733354Y-62378954D01*
G75*
G02*
X172839420Y-62378954I53033J-53033D01*
G01*
X172945486Y-62485020D01*
G75*
G02*
X172945486Y-62591086I-53033J-53033D01*
G01*
X172008570Y-63528002D01*
G75*
G02*
X171902504Y-63528002I-53033J53033D01*
G01*
X171796438Y-63421936D01*
G75*
G02*
X171796438Y-63315870I53033J53033D01*
G01*
G37*
G36*
G01*
X172149991Y-63669423D02*
X173086907Y-62732507D01*
G75*
G02*
X173192973Y-62732507I53033J-53033D01*
G01*
X173299039Y-62838573D01*
G75*
G02*
X173299039Y-62944639I-53033J-53033D01*
G01*
X172362123Y-63881555D01*
G75*
G02*
X172256057Y-63881555I-53033J53033D01*
G01*
X172149991Y-63775489D01*
G75*
G02*
X172149991Y-63669423I53033J53033D01*
G01*
G37*
G36*
G01*
X172503545Y-64022977D02*
X173440461Y-63086061D01*
G75*
G02*
X173546527Y-63086061I53033J-53033D01*
G01*
X173652593Y-63192127D01*
G75*
G02*
X173652593Y-63298193I-53033J-53033D01*
G01*
X172715677Y-64235109D01*
G75*
G02*
X172609611Y-64235109I-53033J53033D01*
G01*
X172503545Y-64129043D01*
G75*
G02*
X172503545Y-64022977I53033J53033D01*
G01*
G37*
G36*
G01*
X172857098Y-64376530D02*
X173794014Y-63439614D01*
G75*
G02*
X173900080Y-63439614I53033J-53033D01*
G01*
X174006146Y-63545680D01*
G75*
G02*
X174006146Y-63651746I-53033J-53033D01*
G01*
X173069230Y-64588662D01*
G75*
G02*
X172963164Y-64588662I-53033J53033D01*
G01*
X172857098Y-64482596D01*
G75*
G02*
X172857098Y-64376530I53033J53033D01*
G01*
G37*
G36*
G01*
X173210652Y-64730083D02*
X174147568Y-63793167D01*
G75*
G02*
X174253634Y-63793167I53033J-53033D01*
G01*
X174359700Y-63899233D01*
G75*
G02*
X174359700Y-64005299I-53033J-53033D01*
G01*
X173422784Y-64942215D01*
G75*
G02*
X173316718Y-64942215I-53033J53033D01*
G01*
X173210652Y-64836149D01*
G75*
G02*
X173210652Y-64730083I53033J53033D01*
G01*
G37*
G36*
G01*
X173564205Y-65083637D02*
X174501121Y-64146721D01*
G75*
G02*
X174607187Y-64146721I53033J-53033D01*
G01*
X174713253Y-64252787D01*
G75*
G02*
X174713253Y-64358853I-53033J-53033D01*
G01*
X173776337Y-65295769D01*
G75*
G02*
X173670271Y-65295769I-53033J53033D01*
G01*
X173564205Y-65189703D01*
G75*
G02*
X173564205Y-65083637I53033J53033D01*
G01*
G37*
G36*
G01*
X173917758Y-65437190D02*
X174854674Y-64500274D01*
G75*
G02*
X174960740Y-64500274I53033J-53033D01*
G01*
X175066806Y-64606340D01*
G75*
G02*
X175066806Y-64712406I-53033J-53033D01*
G01*
X174129890Y-65649322D01*
G75*
G02*
X174023824Y-65649322I-53033J53033D01*
G01*
X173917758Y-65543256D01*
G75*
G02*
X173917758Y-65437190I53033J53033D01*
G01*
G37*
G36*
G01*
X174271312Y-65790743D02*
X175208228Y-64853827D01*
G75*
G02*
X175314294Y-64853827I53033J-53033D01*
G01*
X175420360Y-64959893D01*
G75*
G02*
X175420360Y-65065959I-53033J-53033D01*
G01*
X174483444Y-66002875D01*
G75*
G02*
X174377378Y-66002875I-53033J53033D01*
G01*
X174271312Y-65896809D01*
G75*
G02*
X174271312Y-65790743I53033J53033D01*
G01*
G37*
G36*
G01*
X174624865Y-66144297D02*
X175561781Y-65207381D01*
G75*
G02*
X175667847Y-65207381I53033J-53033D01*
G01*
X175773913Y-65313447D01*
G75*
G02*
X175773913Y-65419513I-53033J-53033D01*
G01*
X174836997Y-66356429D01*
G75*
G02*
X174730931Y-66356429I-53033J53033D01*
G01*
X174624865Y-66250363D01*
G75*
G02*
X174624865Y-66144297I53033J53033D01*
G01*
G37*
G36*
G01*
X174978419Y-66497850D02*
X175915335Y-65560934D01*
G75*
G02*
X176021401Y-65560934I53033J-53033D01*
G01*
X176127467Y-65667000D01*
G75*
G02*
X176127467Y-65773066I-53033J-53033D01*
G01*
X175190551Y-66709982D01*
G75*
G02*
X175084485Y-66709982I-53033J53033D01*
G01*
X174978419Y-66603916D01*
G75*
G02*
X174978419Y-66497850I53033J53033D01*
G01*
G37*
G36*
G01*
X174978419Y-68371684D02*
X175084485Y-68265618D01*
G75*
G02*
X175190551Y-68265618I53033J-53033D01*
G01*
X176127467Y-69202534D01*
G75*
G02*
X176127467Y-69308600I-53033J-53033D01*
G01*
X176021401Y-69414666D01*
G75*
G02*
X175915335Y-69414666I-53033J53033D01*
G01*
X174978419Y-68477750D01*
G75*
G02*
X174978419Y-68371684I53033J53033D01*
G01*
G37*
G36*
G01*
X174624865Y-68725237D02*
X174730931Y-68619171D01*
G75*
G02*
X174836997Y-68619171I53033J-53033D01*
G01*
X175773913Y-69556087D01*
G75*
G02*
X175773913Y-69662153I-53033J-53033D01*
G01*
X175667847Y-69768219D01*
G75*
G02*
X175561781Y-69768219I-53033J53033D01*
G01*
X174624865Y-68831303D01*
G75*
G02*
X174624865Y-68725237I53033J53033D01*
G01*
G37*
G36*
G01*
X174271312Y-69078791D02*
X174377378Y-68972725D01*
G75*
G02*
X174483444Y-68972725I53033J-53033D01*
G01*
X175420360Y-69909641D01*
G75*
G02*
X175420360Y-70015707I-53033J-53033D01*
G01*
X175314294Y-70121773D01*
G75*
G02*
X175208228Y-70121773I-53033J53033D01*
G01*
X174271312Y-69184857D01*
G75*
G02*
X174271312Y-69078791I53033J53033D01*
G01*
G37*
G36*
G01*
X173917758Y-69432344D02*
X174023824Y-69326278D01*
G75*
G02*
X174129890Y-69326278I53033J-53033D01*
G01*
X175066806Y-70263194D01*
G75*
G02*
X175066806Y-70369260I-53033J-53033D01*
G01*
X174960740Y-70475326D01*
G75*
G02*
X174854674Y-70475326I-53033J53033D01*
G01*
X173917758Y-69538410D01*
G75*
G02*
X173917758Y-69432344I53033J53033D01*
G01*
G37*
G36*
G01*
X173564205Y-69785897D02*
X173670271Y-69679831D01*
G75*
G02*
X173776337Y-69679831I53033J-53033D01*
G01*
X174713253Y-70616747D01*
G75*
G02*
X174713253Y-70722813I-53033J-53033D01*
G01*
X174607187Y-70828879D01*
G75*
G02*
X174501121Y-70828879I-53033J53033D01*
G01*
X173564205Y-69891963D01*
G75*
G02*
X173564205Y-69785897I53033J53033D01*
G01*
G37*
G36*
G01*
X173210652Y-70139451D02*
X173316718Y-70033385D01*
G75*
G02*
X173422784Y-70033385I53033J-53033D01*
G01*
X174359700Y-70970301D01*
G75*
G02*
X174359700Y-71076367I-53033J-53033D01*
G01*
X174253634Y-71182433D01*
G75*
G02*
X174147568Y-71182433I-53033J53033D01*
G01*
X173210652Y-70245517D01*
G75*
G02*
X173210652Y-70139451I53033J53033D01*
G01*
G37*
G36*
G01*
X172857098Y-70493004D02*
X172963164Y-70386938D01*
G75*
G02*
X173069230Y-70386938I53033J-53033D01*
G01*
X174006146Y-71323854D01*
G75*
G02*
X174006146Y-71429920I-53033J-53033D01*
G01*
X173900080Y-71535986D01*
G75*
G02*
X173794014Y-71535986I-53033J53033D01*
G01*
X172857098Y-70599070D01*
G75*
G02*
X172857098Y-70493004I53033J53033D01*
G01*
G37*
G36*
G01*
X172503545Y-70846557D02*
X172609611Y-70740491D01*
G75*
G02*
X172715677Y-70740491I53033J-53033D01*
G01*
X173652593Y-71677407D01*
G75*
G02*
X173652593Y-71783473I-53033J-53033D01*
G01*
X173546527Y-71889539D01*
G75*
G02*
X173440461Y-71889539I-53033J53033D01*
G01*
X172503545Y-70952623D01*
G75*
G02*
X172503545Y-70846557I53033J53033D01*
G01*
G37*
G36*
G01*
X172149991Y-71200111D02*
X172256057Y-71094045D01*
G75*
G02*
X172362123Y-71094045I53033J-53033D01*
G01*
X173299039Y-72030961D01*
G75*
G02*
X173299039Y-72137027I-53033J-53033D01*
G01*
X173192973Y-72243093D01*
G75*
G02*
X173086907Y-72243093I-53033J53033D01*
G01*
X172149991Y-71306177D01*
G75*
G02*
X172149991Y-71200111I53033J53033D01*
G01*
G37*
G36*
G01*
X171796438Y-71553664D02*
X171902504Y-71447598D01*
G75*
G02*
X172008570Y-71447598I53033J-53033D01*
G01*
X172945486Y-72384514D01*
G75*
G02*
X172945486Y-72490580I-53033J-53033D01*
G01*
X172839420Y-72596646D01*
G75*
G02*
X172733354Y-72596646I-53033J53033D01*
G01*
X171796438Y-71659730D01*
G75*
G02*
X171796438Y-71553664I53033J53033D01*
G01*
G37*
G36*
G01*
X171442885Y-71907218D02*
X171548951Y-71801152D01*
G75*
G02*
X171655017Y-71801152I53033J-53033D01*
G01*
X172591933Y-72738068D01*
G75*
G02*
X172591933Y-72844134I-53033J-53033D01*
G01*
X172485867Y-72950200D01*
G75*
G02*
X172379801Y-72950200I-53033J53033D01*
G01*
X171442885Y-72013284D01*
G75*
G02*
X171442885Y-71907218I53033J53033D01*
G01*
G37*
G36*
G01*
X171089331Y-72260771D02*
X171195397Y-72154705D01*
G75*
G02*
X171301463Y-72154705I53033J-53033D01*
G01*
X172238379Y-73091621D01*
G75*
G02*
X172238379Y-73197687I-53033J-53033D01*
G01*
X172132313Y-73303753D01*
G75*
G02*
X172026247Y-73303753I-53033J53033D01*
G01*
X171089331Y-72366837D01*
G75*
G02*
X171089331Y-72260771I53033J53033D01*
G01*
G37*
G36*
G01*
X170735778Y-72614324D02*
X170841844Y-72508258D01*
G75*
G02*
X170947910Y-72508258I53033J-53033D01*
G01*
X171884826Y-73445174D01*
G75*
G02*
X171884826Y-73551240I-53033J-53033D01*
G01*
X171778760Y-73657306D01*
G75*
G02*
X171672694Y-73657306I-53033J53033D01*
G01*
X170735778Y-72720390D01*
G75*
G02*
X170735778Y-72614324I53033J53033D01*
G01*
G37*
G36*
G01*
X170382225Y-72967878D02*
X170488291Y-72861812D01*
G75*
G02*
X170594357Y-72861812I53033J-53033D01*
G01*
X171531273Y-73798728D01*
G75*
G02*
X171531273Y-73904794I-53033J-53033D01*
G01*
X171425207Y-74010860D01*
G75*
G02*
X171319141Y-74010860I-53033J53033D01*
G01*
X170382225Y-73073944D01*
G75*
G02*
X170382225Y-72967878I53033J53033D01*
G01*
G37*
G36*
G01*
X170028671Y-73321431D02*
X170134737Y-73215365D01*
G75*
G02*
X170240803Y-73215365I53033J-53033D01*
G01*
X171177719Y-74152281D01*
G75*
G02*
X171177719Y-74258347I-53033J-53033D01*
G01*
X171071653Y-74364413D01*
G75*
G02*
X170965587Y-74364413I-53033J53033D01*
G01*
X170028671Y-73427497D01*
G75*
G02*
X170028671Y-73321431I53033J53033D01*
G01*
G37*
G36*
G01*
X169675118Y-73674985D02*
X169781184Y-73568919D01*
G75*
G02*
X169887250Y-73568919I53033J-53033D01*
G01*
X170824166Y-74505835D01*
G75*
G02*
X170824166Y-74611901I-53033J-53033D01*
G01*
X170718100Y-74717967D01*
G75*
G02*
X170612034Y-74717967I-53033J53033D01*
G01*
X169675118Y-73781051D01*
G75*
G02*
X169675118Y-73674985I53033J53033D01*
G01*
G37*
G36*
G01*
X166970434Y-74505835D02*
X167907350Y-73568919D01*
G75*
G02*
X168013416Y-73568919I53033J-53033D01*
G01*
X168119482Y-73674985D01*
G75*
G02*
X168119482Y-73781051I-53033J-53033D01*
G01*
X167182566Y-74717967D01*
G75*
G02*
X167076500Y-74717967I-53033J53033D01*
G01*
X166970434Y-74611901D01*
G75*
G02*
X166970434Y-74505835I53033J53033D01*
G01*
G37*
G36*
G01*
X166616881Y-74152281D02*
X167553797Y-73215365D01*
G75*
G02*
X167659863Y-73215365I53033J-53033D01*
G01*
X167765929Y-73321431D01*
G75*
G02*
X167765929Y-73427497I-53033J-53033D01*
G01*
X166829013Y-74364413D01*
G75*
G02*
X166722947Y-74364413I-53033J53033D01*
G01*
X166616881Y-74258347D01*
G75*
G02*
X166616881Y-74152281I53033J53033D01*
G01*
G37*
G36*
G01*
X166263327Y-73798728D02*
X167200243Y-72861812D01*
G75*
G02*
X167306309Y-72861812I53033J-53033D01*
G01*
X167412375Y-72967878D01*
G75*
G02*
X167412375Y-73073944I-53033J-53033D01*
G01*
X166475459Y-74010860D01*
G75*
G02*
X166369393Y-74010860I-53033J53033D01*
G01*
X166263327Y-73904794D01*
G75*
G02*
X166263327Y-73798728I53033J53033D01*
G01*
G37*
G36*
G01*
X165909774Y-73445174D02*
X166846690Y-72508258D01*
G75*
G02*
X166952756Y-72508258I53033J-53033D01*
G01*
X167058822Y-72614324D01*
G75*
G02*
X167058822Y-72720390I-53033J-53033D01*
G01*
X166121906Y-73657306D01*
G75*
G02*
X166015840Y-73657306I-53033J53033D01*
G01*
X165909774Y-73551240D01*
G75*
G02*
X165909774Y-73445174I53033J53033D01*
G01*
G37*
G36*
G01*
X165556221Y-73091621D02*
X166493137Y-72154705D01*
G75*
G02*
X166599203Y-72154705I53033J-53033D01*
G01*
X166705269Y-72260771D01*
G75*
G02*
X166705269Y-72366837I-53033J-53033D01*
G01*
X165768353Y-73303753D01*
G75*
G02*
X165662287Y-73303753I-53033J53033D01*
G01*
X165556221Y-73197687D01*
G75*
G02*
X165556221Y-73091621I53033J53033D01*
G01*
G37*
G36*
G01*
X165202667Y-72738068D02*
X166139583Y-71801152D01*
G75*
G02*
X166245649Y-71801152I53033J-53033D01*
G01*
X166351715Y-71907218D01*
G75*
G02*
X166351715Y-72013284I-53033J-53033D01*
G01*
X165414799Y-72950200D01*
G75*
G02*
X165308733Y-72950200I-53033J53033D01*
G01*
X165202667Y-72844134D01*
G75*
G02*
X165202667Y-72738068I53033J53033D01*
G01*
G37*
G36*
G01*
X164849114Y-72384514D02*
X165786030Y-71447598D01*
G75*
G02*
X165892096Y-71447598I53033J-53033D01*
G01*
X165998162Y-71553664D01*
G75*
G02*
X165998162Y-71659730I-53033J-53033D01*
G01*
X165061246Y-72596646D01*
G75*
G02*
X164955180Y-72596646I-53033J53033D01*
G01*
X164849114Y-72490580D01*
G75*
G02*
X164849114Y-72384514I53033J53033D01*
G01*
G37*
G36*
G01*
X164495561Y-72030961D02*
X165432477Y-71094045D01*
G75*
G02*
X165538543Y-71094045I53033J-53033D01*
G01*
X165644609Y-71200111D01*
G75*
G02*
X165644609Y-71306177I-53033J-53033D01*
G01*
X164707693Y-72243093D01*
G75*
G02*
X164601627Y-72243093I-53033J53033D01*
G01*
X164495561Y-72137027D01*
G75*
G02*
X164495561Y-72030961I53033J53033D01*
G01*
G37*
G36*
G01*
X164142007Y-71677407D02*
X165078923Y-70740491D01*
G75*
G02*
X165184989Y-70740491I53033J-53033D01*
G01*
X165291055Y-70846557D01*
G75*
G02*
X165291055Y-70952623I-53033J-53033D01*
G01*
X164354139Y-71889539D01*
G75*
G02*
X164248073Y-71889539I-53033J53033D01*
G01*
X164142007Y-71783473D01*
G75*
G02*
X164142007Y-71677407I53033J53033D01*
G01*
G37*
G36*
G01*
X163788454Y-71323854D02*
X164725370Y-70386938D01*
G75*
G02*
X164831436Y-70386938I53033J-53033D01*
G01*
X164937502Y-70493004D01*
G75*
G02*
X164937502Y-70599070I-53033J-53033D01*
G01*
X164000586Y-71535986D01*
G75*
G02*
X163894520Y-71535986I-53033J53033D01*
G01*
X163788454Y-71429920D01*
G75*
G02*
X163788454Y-71323854I53033J53033D01*
G01*
G37*
G36*
G01*
X163434900Y-70970301D02*
X164371816Y-70033385D01*
G75*
G02*
X164477882Y-70033385I53033J-53033D01*
G01*
X164583948Y-70139451D01*
G75*
G02*
X164583948Y-70245517I-53033J-53033D01*
G01*
X163647032Y-71182433D01*
G75*
G02*
X163540966Y-71182433I-53033J53033D01*
G01*
X163434900Y-71076367D01*
G75*
G02*
X163434900Y-70970301I53033J53033D01*
G01*
G37*
G36*
G01*
X163081347Y-70616747D02*
X164018263Y-69679831D01*
G75*
G02*
X164124329Y-69679831I53033J-53033D01*
G01*
X164230395Y-69785897D01*
G75*
G02*
X164230395Y-69891963I-53033J-53033D01*
G01*
X163293479Y-70828879D01*
G75*
G02*
X163187413Y-70828879I-53033J53033D01*
G01*
X163081347Y-70722813D01*
G75*
G02*
X163081347Y-70616747I53033J53033D01*
G01*
G37*
G36*
G01*
X162727794Y-70263194D02*
X163664710Y-69326278D01*
G75*
G02*
X163770776Y-69326278I53033J-53033D01*
G01*
X163876842Y-69432344D01*
G75*
G02*
X163876842Y-69538410I-53033J-53033D01*
G01*
X162939926Y-70475326D01*
G75*
G02*
X162833860Y-70475326I-53033J53033D01*
G01*
X162727794Y-70369260D01*
G75*
G02*
X162727794Y-70263194I53033J53033D01*
G01*
G37*
G36*
G01*
X162374240Y-69909641D02*
X163311156Y-68972725D01*
G75*
G02*
X163417222Y-68972725I53033J-53033D01*
G01*
X163523288Y-69078791D01*
G75*
G02*
X163523288Y-69184857I-53033J-53033D01*
G01*
X162586372Y-70121773D01*
G75*
G02*
X162480306Y-70121773I-53033J53033D01*
G01*
X162374240Y-70015707D01*
G75*
G02*
X162374240Y-69909641I53033J53033D01*
G01*
G37*
G36*
G01*
X162020687Y-69556087D02*
X162957603Y-68619171D01*
G75*
G02*
X163063669Y-68619171I53033J-53033D01*
G01*
X163169735Y-68725237D01*
G75*
G02*
X163169735Y-68831303I-53033J-53033D01*
G01*
X162232819Y-69768219D01*
G75*
G02*
X162126753Y-69768219I-53033J53033D01*
G01*
X162020687Y-69662153D01*
G75*
G02*
X162020687Y-69556087I53033J53033D01*
G01*
G37*
G36*
G01*
X161667133Y-69202534D02*
X162604049Y-68265618D01*
G75*
G02*
X162710115Y-68265618I53033J-53033D01*
G01*
X162816181Y-68371684D01*
G75*
G02*
X162816181Y-68477750I-53033J-53033D01*
G01*
X161879265Y-69414666D01*
G75*
G02*
X161773199Y-69414666I-53033J53033D01*
G01*
X161667133Y-69308600D01*
G75*
G02*
X161667133Y-69202534I53033J53033D01*
G01*
G37*
G36*
G01*
X161667133Y-65667000D02*
X161773199Y-65560934D01*
G75*
G02*
X161879265Y-65560934I53033J-53033D01*
G01*
X162816181Y-66497850D01*
G75*
G02*
X162816181Y-66603916I-53033J-53033D01*
G01*
X162710115Y-66709982D01*
G75*
G02*
X162604049Y-66709982I-53033J53033D01*
G01*
X161667133Y-65773066D01*
G75*
G02*
X161667133Y-65667000I53033J53033D01*
G01*
G37*
G36*
G01*
X162020687Y-65313447D02*
X162126753Y-65207381D01*
G75*
G02*
X162232819Y-65207381I53033J-53033D01*
G01*
X163169735Y-66144297D01*
G75*
G02*
X163169735Y-66250363I-53033J-53033D01*
G01*
X163063669Y-66356429D01*
G75*
G02*
X162957603Y-66356429I-53033J53033D01*
G01*
X162020687Y-65419513D01*
G75*
G02*
X162020687Y-65313447I53033J53033D01*
G01*
G37*
G36*
G01*
X162374240Y-64959893D02*
X162480306Y-64853827D01*
G75*
G02*
X162586372Y-64853827I53033J-53033D01*
G01*
X163523288Y-65790743D01*
G75*
G02*
X163523288Y-65896809I-53033J-53033D01*
G01*
X163417222Y-66002875D01*
G75*
G02*
X163311156Y-66002875I-53033J53033D01*
G01*
X162374240Y-65065959D01*
G75*
G02*
X162374240Y-64959893I53033J53033D01*
G01*
G37*
G36*
G01*
X162727794Y-64606340D02*
X162833860Y-64500274D01*
G75*
G02*
X162939926Y-64500274I53033J-53033D01*
G01*
X163876842Y-65437190D01*
G75*
G02*
X163876842Y-65543256I-53033J-53033D01*
G01*
X163770776Y-65649322D01*
G75*
G02*
X163664710Y-65649322I-53033J53033D01*
G01*
X162727794Y-64712406D01*
G75*
G02*
X162727794Y-64606340I53033J53033D01*
G01*
G37*
G36*
G01*
X163081347Y-64252787D02*
X163187413Y-64146721D01*
G75*
G02*
X163293479Y-64146721I53033J-53033D01*
G01*
X164230395Y-65083637D01*
G75*
G02*
X164230395Y-65189703I-53033J-53033D01*
G01*
X164124329Y-65295769D01*
G75*
G02*
X164018263Y-65295769I-53033J53033D01*
G01*
X163081347Y-64358853D01*
G75*
G02*
X163081347Y-64252787I53033J53033D01*
G01*
G37*
G36*
G01*
X163434900Y-63899233D02*
X163540966Y-63793167D01*
G75*
G02*
X163647032Y-63793167I53033J-53033D01*
G01*
X164583948Y-64730083D01*
G75*
G02*
X164583948Y-64836149I-53033J-53033D01*
G01*
X164477882Y-64942215D01*
G75*
G02*
X164371816Y-64942215I-53033J53033D01*
G01*
X163434900Y-64005299D01*
G75*
G02*
X163434900Y-63899233I53033J53033D01*
G01*
G37*
G36*
G01*
X163788454Y-63545680D02*
X163894520Y-63439614D01*
G75*
G02*
X164000586Y-63439614I53033J-53033D01*
G01*
X164937502Y-64376530D01*
G75*
G02*
X164937502Y-64482596I-53033J-53033D01*
G01*
X164831436Y-64588662D01*
G75*
G02*
X164725370Y-64588662I-53033J53033D01*
G01*
X163788454Y-63651746D01*
G75*
G02*
X163788454Y-63545680I53033J53033D01*
G01*
G37*
G36*
G01*
X164142007Y-63192127D02*
X164248073Y-63086061D01*
G75*
G02*
X164354139Y-63086061I53033J-53033D01*
G01*
X165291055Y-64022977D01*
G75*
G02*
X165291055Y-64129043I-53033J-53033D01*
G01*
X165184989Y-64235109D01*
G75*
G02*
X165078923Y-64235109I-53033J53033D01*
G01*
X164142007Y-63298193D01*
G75*
G02*
X164142007Y-63192127I53033J53033D01*
G01*
G37*
G36*
G01*
X164495561Y-62838573D02*
X164601627Y-62732507D01*
G75*
G02*
X164707693Y-62732507I53033J-53033D01*
G01*
X165644609Y-63669423D01*
G75*
G02*
X165644609Y-63775489I-53033J-53033D01*
G01*
X165538543Y-63881555D01*
G75*
G02*
X165432477Y-63881555I-53033J53033D01*
G01*
X164495561Y-62944639D01*
G75*
G02*
X164495561Y-62838573I53033J53033D01*
G01*
G37*
G36*
G01*
X164849114Y-62485020D02*
X164955180Y-62378954D01*
G75*
G02*
X165061246Y-62378954I53033J-53033D01*
G01*
X165998162Y-63315870D01*
G75*
G02*
X165998162Y-63421936I-53033J-53033D01*
G01*
X165892096Y-63528002D01*
G75*
G02*
X165786030Y-63528002I-53033J53033D01*
G01*
X164849114Y-62591086D01*
G75*
G02*
X164849114Y-62485020I53033J53033D01*
G01*
G37*
G36*
G01*
X165202667Y-62131466D02*
X165308733Y-62025400D01*
G75*
G02*
X165414799Y-62025400I53033J-53033D01*
G01*
X166351715Y-62962316D01*
G75*
G02*
X166351715Y-63068382I-53033J-53033D01*
G01*
X166245649Y-63174448D01*
G75*
G02*
X166139583Y-63174448I-53033J53033D01*
G01*
X165202667Y-62237532D01*
G75*
G02*
X165202667Y-62131466I53033J53033D01*
G01*
G37*
G36*
G01*
X165556221Y-61777913D02*
X165662287Y-61671847D01*
G75*
G02*
X165768353Y-61671847I53033J-53033D01*
G01*
X166705269Y-62608763D01*
G75*
G02*
X166705269Y-62714829I-53033J-53033D01*
G01*
X166599203Y-62820895D01*
G75*
G02*
X166493137Y-62820895I-53033J53033D01*
G01*
X165556221Y-61883979D01*
G75*
G02*
X165556221Y-61777913I53033J53033D01*
G01*
G37*
G36*
G01*
X165909774Y-61424360D02*
X166015840Y-61318294D01*
G75*
G02*
X166121906Y-61318294I53033J-53033D01*
G01*
X167058822Y-62255210D01*
G75*
G02*
X167058822Y-62361276I-53033J-53033D01*
G01*
X166952756Y-62467342D01*
G75*
G02*
X166846690Y-62467342I-53033J53033D01*
G01*
X165909774Y-61530426D01*
G75*
G02*
X165909774Y-61424360I53033J53033D01*
G01*
G37*
G36*
G01*
X166263327Y-61070806D02*
X166369393Y-60964740D01*
G75*
G02*
X166475459Y-60964740I53033J-53033D01*
G01*
X167412375Y-61901656D01*
G75*
G02*
X167412375Y-62007722I-53033J-53033D01*
G01*
X167306309Y-62113788D01*
G75*
G02*
X167200243Y-62113788I-53033J53033D01*
G01*
X166263327Y-61176872D01*
G75*
G02*
X166263327Y-61070806I53033J53033D01*
G01*
G37*
G36*
G01*
X166616881Y-60717253D02*
X166722947Y-60611187D01*
G75*
G02*
X166829013Y-60611187I53033J-53033D01*
G01*
X167765929Y-61548103D01*
G75*
G02*
X167765929Y-61654169I-53033J-53033D01*
G01*
X167659863Y-61760235D01*
G75*
G02*
X167553797Y-61760235I-53033J53033D01*
G01*
X166616881Y-60823319D01*
G75*
G02*
X166616881Y-60717253I53033J53033D01*
G01*
G37*
G36*
G01*
X166970434Y-60363699D02*
X167076500Y-60257633D01*
G75*
G02*
X167182566Y-60257633I53033J-53033D01*
G01*
X168119482Y-61194549D01*
G75*
G02*
X168119482Y-61300615I-53033J-53033D01*
G01*
X168013416Y-61406681D01*
G75*
G02*
X167907350Y-61406681I-53033J53033D01*
G01*
X166970434Y-60469765D01*
G75*
G02*
X166970434Y-60363699I53033J53033D01*
G01*
G37*
%TD*%
D12*
%TO.C,J2*%
X168941958Y-92910000D03*
X168941958Y-90370000D03*
X168941958Y-87830000D03*
X168941958Y-85290000D03*
X168941958Y-82750000D03*
D13*
X168941958Y-80210000D03*
%TD*%
M02*
