M48
; DRILL file {KiCad (5.1.9)-1} date 02/10/21 01:52:35
; FORMAT={-:-/ absolute / inch / decimal}
; #@! TF.CreationDate,2021-02-10T01:52:35+01:00
; #@! TF.GenerationSoftware,Kicad,Pcbnew,(5.1.9)-1
; #@! TF.FileFunction,Plated,1,2,PTH
FMAT,2
INCH
T1C0.0157
T2C0.0315
T3C0.0394
%
G90
G05
T1
X6.3286Y-4.5559
X6.42Y-1.66
X6.42Y-1.76
X6.42Y-1.88
X6.42Y-1.98
X6.42Y-2.08
X6.42Y-2.18
X6.42Y-2.28
X6.42Y-2.38
X6.42Y-2.48
X6.42Y-2.58
X6.42Y-2.68
X6.42Y-2.78
X6.42Y-2.88
X6.42Y-2.98
X6.42Y-3.08
X6.42Y-3.18
X6.42Y-3.28
X6.42Y-3.38
X6.42Y-3.48
X6.42Y-3.58
X6.4266Y-4.3489
X6.5266Y-4.4349
X6.55Y-4.492
X6.608Y-4.156
X6.6516Y-4.0499
X6.6586Y-4.1719
X6.718Y-4.516
X6.7676Y-4.4349
X6.792Y-4.25
X6.8616Y-4.1049
X6.8676Y-4.5569
X6.879Y-1.664
X6.879Y-1.782
X6.879Y-1.884
X6.879Y-1.984
X6.879Y-2.084
X6.879Y-2.184
X6.879Y-2.284
X6.879Y-2.384
X6.879Y-2.484
X6.879Y-2.584
X6.879Y-2.684
X6.879Y-2.784
X6.879Y-2.884
X6.879Y-2.984
X6.879Y-3.084
X6.879Y-3.184
X6.879Y-3.284
X6.879Y-3.384
X6.879Y-3.484
X6.879Y-3.584
X6.9196Y-4.3499
T2
X6.3496Y-1.5579
X6.3496Y-1.6579
X6.3496Y-1.7579
X6.3496Y-1.8579
X6.3496Y-1.9579
X6.3496Y-2.0579
X6.3496Y-2.1579
X6.3496Y-2.2579
X6.3496Y-2.3579
X6.3496Y-2.4579
X6.3496Y-2.5579
X6.3496Y-2.6579
X6.3496Y-2.7579
X6.3496Y-2.8579
X6.3496Y-2.9579
X6.3496Y-3.0579
X6.3496Y-3.1579
X6.3496Y-3.2579
X6.3496Y-3.3579
X6.3496Y-3.4579
X6.3496Y-3.5579
X6.3496Y-3.6579
X6.3496Y-3.7579
X6.3496Y-3.8579
X6.9496Y-1.5579
X6.9496Y-1.6579
X6.9496Y-1.7579
X6.9496Y-1.8579
X6.9496Y-1.9579
X6.9496Y-2.0579
X6.9496Y-2.1579
X6.9496Y-2.2579
X6.9496Y-2.3579
X6.9496Y-2.4579
X6.9496Y-2.5579
X6.9496Y-2.6579
X6.9496Y-2.7579
X6.9496Y-2.8579
X6.9496Y-2.9579
X6.9496Y-3.0579
X6.9496Y-3.1579
X6.9496Y-3.2579
X6.9496Y-3.3579
X6.9496Y-3.4579
X6.9496Y-3.5579
X6.9496Y-3.6579
X6.9496Y-3.7579
X6.9496Y-3.8579
T3
X6.4Y-4.75
X6.5Y-4.75
X6.6Y-4.75
X6.7Y-4.75
X6.8Y-4.75
X6.9Y-4.75
T0
M30
