M48
; DRILL file {KiCad (6.0.0-rc1-45-gbfad40bdcc)} date 2022 March 06, Sunday 12:58:26
; FORMAT={-:-/ absolute / inch / decimal}
; #@! TF.CreationDate,2022-03-06T12:58:26+01:00
; #@! TF.GenerationSoftware,Kicad,Pcbnew,(6.0.0-rc1-45-gbfad40bdcc)
; #@! TF.FileFunction,Plated,1,2,PTH
FMAT,2
INCH
; #@! TA.AperFunction,Plated,PTH,ViaDrill
T1C0.0157
; #@! TA.AperFunction,Plated,PTH,ComponentDrill
T2C0.0315
; #@! TA.AperFunction,Plated,PTH,ComponentDrill
T3C0.0394
%
G90
G05
T1
X6.3496Y-1.6079
X6.3496Y-1.7079
X6.3496Y-1.8079
X6.3496Y-1.9079
X6.3496Y-2.0079
X6.3496Y-2.1079
X6.3496Y-2.2079
X6.3496Y-2.3079
X6.3496Y-2.4079
X6.3496Y-2.7079
X6.3496Y-2.8079
X6.3496Y-2.9079
X6.3496Y-3.0079
X6.3496Y-3.1079
X6.3496Y-3.2079
X6.3496Y-3.3079
X6.3496Y-3.4079
X6.3496Y-3.5079
X6.3496Y-3.6079
X6.3496Y-3.7079
X6.3496Y-3.8079
X6.4471Y-1.7079
X6.4546Y-2.6129
X6.4796Y-2.7279
X6.4896Y-2.1079
X6.4896Y-2.2079
X6.4896Y-2.3079
X6.5071Y-2.9329
X6.5121Y-3.1079
X6.5121Y-3.2079
X6.5121Y-3.3079
X6.5121Y-3.4079
X6.5121Y-3.5079
X6.5121Y-3.6079
X6.5121Y-3.7079
X6.5527Y-2.7955
X6.6061Y-2.4602
X6.6496Y-3.0179
X6.7165Y-2.8219
X6.7744Y-3.0079
X6.7744Y-3.1079
X6.7744Y-3.2079
X6.7744Y-3.3079
X6.7744Y-3.4079
X6.7744Y-3.5079
X6.7744Y-3.6079
X6.7744Y-3.7079
X6.7791Y-2.7727
X6.7865Y-2.5617
X6.798Y-2.1079
X6.798Y-2.2079
X6.798Y-2.3079
X6.9496Y-1.6079
X6.9496Y-1.9079
X6.9496Y-2.0079
X6.9496Y-2.1079
X6.9496Y-2.2079
X6.9496Y-2.3079
X6.9496Y-2.4079
X6.9496Y-2.6079
X6.9496Y-2.8079
X6.9496Y-2.9079
X6.9496Y-3.0079
X6.9496Y-3.1079
X6.9496Y-3.2079
X6.9496Y-3.3079
X6.9496Y-3.4079
X6.9496Y-3.5079
X6.9496Y-3.6079
X6.9496Y-3.7079
X6.9496Y-3.8079
T2
X6.3496Y-1.5579
X6.3496Y-1.6579
X6.3496Y-1.7579
X6.3496Y-1.8579
X6.3496Y-1.9579
X6.3496Y-2.0579
X6.3496Y-2.1579
X6.3496Y-2.2579
X6.3496Y-2.3579
X6.3496Y-2.4579
X6.3496Y-2.5579
X6.3496Y-2.6579
X6.3496Y-2.7579
X6.3496Y-2.8579
X6.3496Y-2.9579
X6.3496Y-3.0579
X6.3496Y-3.1579
X6.3496Y-3.2579
X6.3496Y-3.3579
X6.3496Y-3.4579
X6.3496Y-3.5579
X6.3496Y-3.6579
X6.3496Y-3.7579
X6.3496Y-3.8579
X6.9496Y-1.5579
X6.9496Y-1.6579
X6.9496Y-1.7579
X6.9496Y-1.8579
X6.9496Y-1.9579
X6.9496Y-2.0579
X6.9496Y-2.1579
X6.9496Y-2.2579
X6.9496Y-2.3579
X6.9496Y-2.4579
X6.9496Y-2.5579
X6.9496Y-2.6579
X6.9496Y-2.7579
X6.9496Y-2.8579
X6.9496Y-2.9579
X6.9496Y-3.0579
X6.9496Y-3.1579
X6.9496Y-3.2579
X6.9496Y-3.3579
X6.9496Y-3.4579
X6.9496Y-3.5579
X6.9496Y-3.6579
X6.9496Y-3.7579
X6.9496Y-3.8579
T3
X6.6513Y-3.1579
X6.6513Y-3.2579
X6.6513Y-3.3579
X6.6513Y-3.4579
X6.6513Y-3.5579
X6.6513Y-3.6579
T0
M30
