%TF.GenerationSoftware,KiCad,Pcbnew,(5.1.9)-1*%
%TF.CreationDate,2021-02-10T01:52:36+01:00*%
%TF.ProjectId,Bluster,426c7573-7465-4722-9e6b-696361645f70,rev?*%
%TF.SameCoordinates,Original*%
%TF.FileFunction,Soldermask,Bot*%
%TF.FilePolarity,Negative*%
%FSLAX46Y46*%
G04 Gerber Fmt 4.6, Leading zero omitted, Abs format (unit mm)*
G04 Created by KiCad (PCBNEW (5.1.9)-1) date 2021-02-10 01:52:36*
%MOMM*%
%LPD*%
G01*
G04 APERTURE LIST*
%ADD10O,1.600000X1.600000*%
%ADD11R,1.600000X1.600000*%
%ADD12R,1.500000X2.000000*%
%ADD13R,3.800000X2.000000*%
%ADD14O,1.700000X1.700000*%
%ADD15R,1.700000X1.700000*%
G04 APERTURE END LIST*
D10*
%TO.C,U1*%
X176520000Y-39570000D03*
X161280000Y-97990000D03*
X176520000Y-42110000D03*
X161280000Y-95450000D03*
X176520000Y-44650000D03*
X161280000Y-92910000D03*
X176520000Y-47190000D03*
X161280000Y-90370000D03*
X176520000Y-49730000D03*
X161280000Y-87830000D03*
X176520000Y-52270000D03*
X161280000Y-85290000D03*
X176520000Y-54810000D03*
X161280000Y-82750000D03*
X176520000Y-57350000D03*
X161280000Y-80210000D03*
X176520000Y-59890000D03*
X161280000Y-77670000D03*
X176520000Y-62430000D03*
X161280000Y-75130000D03*
X176520000Y-64970000D03*
X161280000Y-72590000D03*
X176520000Y-67510000D03*
X161280000Y-70050000D03*
X176520000Y-70050000D03*
X161280000Y-67510000D03*
X176520000Y-72590000D03*
X161280000Y-64970000D03*
X176520000Y-75130000D03*
X161280000Y-62430000D03*
X176520000Y-77670000D03*
X161280000Y-59890000D03*
X176520000Y-80210000D03*
X161280000Y-57350000D03*
X176520000Y-82750000D03*
X161280000Y-54810000D03*
X176520000Y-85290000D03*
X161280000Y-52270000D03*
X176520000Y-87830000D03*
X161280000Y-49730000D03*
X176520000Y-90370000D03*
X161280000Y-47190000D03*
X176520000Y-92910000D03*
X161280000Y-44650000D03*
X176520000Y-95450000D03*
X161280000Y-42110000D03*
X176520000Y-97990000D03*
D11*
X161280000Y-39570000D03*
%TD*%
D12*
%TO.C,U3*%
X171200000Y-97638000D03*
X166600000Y-97638000D03*
X168900000Y-97638000D03*
D13*
X168900000Y-91338000D03*
%TD*%
D14*
%TO.C,J1*%
X175260000Y-120650000D03*
X172720000Y-120650000D03*
X170180000Y-120650000D03*
X167640000Y-120650000D03*
X165100000Y-120650000D03*
D15*
X162560000Y-120650000D03*
%TD*%
%TO.C,C6*%
G36*
G01*
X164803000Y-96524000D02*
X163853000Y-96524000D01*
G75*
G02*
X163603000Y-96274000I0J250000D01*
G01*
X163603000Y-95599000D01*
G75*
G02*
X163853000Y-95349000I250000J0D01*
G01*
X164803000Y-95349000D01*
G75*
G02*
X165053000Y-95599000I0J-250000D01*
G01*
X165053000Y-96274000D01*
G75*
G02*
X164803000Y-96524000I-250000J0D01*
G01*
G37*
G36*
G01*
X164803000Y-98599000D02*
X163853000Y-98599000D01*
G75*
G02*
X163603000Y-98349000I0J250000D01*
G01*
X163603000Y-97674000D01*
G75*
G02*
X163853000Y-97424000I250000J0D01*
G01*
X164803000Y-97424000D01*
G75*
G02*
X165053000Y-97674000I0J-250000D01*
G01*
X165053000Y-98349000D01*
G75*
G02*
X164803000Y-98599000I-250000J0D01*
G01*
G37*
%TD*%
%TO.C,C5*%
G36*
G01*
X173947000Y-96524000D02*
X172997000Y-96524000D01*
G75*
G02*
X172747000Y-96274000I0J250000D01*
G01*
X172747000Y-95599000D01*
G75*
G02*
X172997000Y-95349000I250000J0D01*
G01*
X173947000Y-95349000D01*
G75*
G02*
X174197000Y-95599000I0J-250000D01*
G01*
X174197000Y-96274000D01*
G75*
G02*
X173947000Y-96524000I-250000J0D01*
G01*
G37*
G36*
G01*
X173947000Y-98599000D02*
X172997000Y-98599000D01*
G75*
G02*
X172747000Y-98349000I0J250000D01*
G01*
X172747000Y-97674000D01*
G75*
G02*
X172997000Y-97424000I250000J0D01*
G01*
X173947000Y-97424000D01*
G75*
G02*
X174197000Y-97674000I0J-250000D01*
G01*
X174197000Y-98349000D01*
G75*
G02*
X173947000Y-98599000I-250000J0D01*
G01*
G37*
%TD*%
%TO.C,C4*%
G36*
G01*
X164067904Y-115676345D02*
X164739655Y-116348096D01*
G75*
G02*
X164739655Y-116701650I-176777J-176777D01*
G01*
X164262358Y-117178947D01*
G75*
G02*
X163908804Y-117178947I-176777J176777D01*
G01*
X163237053Y-116507196D01*
G75*
G02*
X163237053Y-116153642I176777J176777D01*
G01*
X163714350Y-115676345D01*
G75*
G02*
X164067904Y-115676345I176777J-176777D01*
G01*
G37*
G36*
G01*
X165535150Y-114209099D02*
X166206901Y-114880850D01*
G75*
G02*
X166206901Y-115234404I-176777J-176777D01*
G01*
X165729604Y-115711701D01*
G75*
G02*
X165376050Y-115711701I-176777J176777D01*
G01*
X164704299Y-115039950D01*
G75*
G02*
X164704299Y-114686396I176777J176777D01*
G01*
X165181596Y-114209099D01*
G75*
G02*
X165535150Y-114209099I176777J-176777D01*
G01*
G37*
%TD*%
%TO.C,C3*%
G36*
G01*
X166184478Y-103231927D02*
X165512727Y-103903678D01*
G75*
G02*
X165159173Y-103903678I-176777J176777D01*
G01*
X164681876Y-103426381D01*
G75*
G02*
X164681876Y-103072827I176777J176777D01*
G01*
X165353627Y-102401076D01*
G75*
G02*
X165707181Y-102401076I176777J-176777D01*
G01*
X166184478Y-102878373D01*
G75*
G02*
X166184478Y-103231927I-176777J-176777D01*
G01*
G37*
G36*
G01*
X167651724Y-104699173D02*
X166979973Y-105370924D01*
G75*
G02*
X166626419Y-105370924I-176777J176777D01*
G01*
X166149122Y-104893627D01*
G75*
G02*
X166149122Y-104540073I176777J176777D01*
G01*
X166820873Y-103868322D01*
G75*
G02*
X167174427Y-103868322I176777J-176777D01*
G01*
X167651724Y-104345619D01*
G75*
G02*
X167651724Y-104699173I-176777J-176777D01*
G01*
G37*
%TD*%
%TO.C,C2*%
G36*
G01*
X174745673Y-106342078D02*
X174073922Y-105670327D01*
G75*
G02*
X174073922Y-105316773I176777J176777D01*
G01*
X174551219Y-104839476D01*
G75*
G02*
X174904773Y-104839476I176777J-176777D01*
G01*
X175576524Y-105511227D01*
G75*
G02*
X175576524Y-105864781I-176777J-176777D01*
G01*
X175099227Y-106342078D01*
G75*
G02*
X174745673Y-106342078I-176777J176777D01*
G01*
G37*
G36*
G01*
X173278427Y-107809324D02*
X172606676Y-107137573D01*
G75*
G02*
X172606676Y-106784019I176777J176777D01*
G01*
X173083973Y-106306722D01*
G75*
G02*
X173437527Y-106306722I176777J-176777D01*
G01*
X174109278Y-106978473D01*
G75*
G02*
X174109278Y-107332027I-176777J-176777D01*
G01*
X173631981Y-107809324D01*
G75*
G02*
X173278427Y-107809324I-176777J176777D01*
G01*
G37*
%TD*%
%TO.C,C1*%
G36*
G01*
X172295922Y-117036873D02*
X172967673Y-116365122D01*
G75*
G02*
X173321227Y-116365122I176777J-176777D01*
G01*
X173798524Y-116842419D01*
G75*
G02*
X173798524Y-117195973I-176777J-176777D01*
G01*
X173126773Y-117867724D01*
G75*
G02*
X172773219Y-117867724I-176777J176777D01*
G01*
X172295922Y-117390427D01*
G75*
G02*
X172295922Y-117036873I176777J176777D01*
G01*
G37*
G36*
G01*
X170828676Y-115569627D02*
X171500427Y-114897876D01*
G75*
G02*
X171853981Y-114897876I176777J-176777D01*
G01*
X172331278Y-115375173D01*
G75*
G02*
X172331278Y-115728727I-176777J-176777D01*
G01*
X171659527Y-116400478D01*
G75*
G02*
X171305973Y-116400478I-176777J176777D01*
G01*
X170828676Y-115923181D01*
G75*
G02*
X170828676Y-115569627I176777J176777D01*
G01*
G37*
%TD*%
M02*
