%TF.GenerationSoftware,KiCad,Pcbnew,(5.1.9)-1*%
%TF.CreationDate,2021-02-10T01:52:36+01:00*%
%TF.ProjectId,Bluster,426c7573-7465-4722-9e6b-696361645f70,rev?*%
%TF.SameCoordinates,Original*%
%TF.FileFunction,Copper,L2,Bot*%
%TF.FilePolarity,Positive*%
%FSLAX46Y46*%
G04 Gerber Fmt 4.6, Leading zero omitted, Abs format (unit mm)*
G04 Created by KiCad (PCBNEW (5.1.9)-1) date 2021-02-10 01:52:36*
%MOMM*%
%LPD*%
G01*
G04 APERTURE LIST*
%TA.AperFunction,ComponentPad*%
%ADD10O,1.600000X1.600000*%
%TD*%
%TA.AperFunction,ComponentPad*%
%ADD11R,1.600000X1.600000*%
%TD*%
%TA.AperFunction,SMDPad,CuDef*%
%ADD12R,1.500000X2.000000*%
%TD*%
%TA.AperFunction,SMDPad,CuDef*%
%ADD13R,3.800000X2.000000*%
%TD*%
%TA.AperFunction,ComponentPad*%
%ADD14O,1.700000X1.700000*%
%TD*%
%TA.AperFunction,ComponentPad*%
%ADD15R,1.700000X1.700000*%
%TD*%
%TA.AperFunction,ViaPad*%
%ADD16C,0.800000*%
%TD*%
%TA.AperFunction,Conductor*%
%ADD17C,0.500000*%
%TD*%
%TA.AperFunction,Conductor*%
%ADD18C,0.254000*%
%TD*%
%TA.AperFunction,Conductor*%
%ADD19C,0.100000*%
%TD*%
G04 APERTURE END LIST*
D10*
%TO.P,U1,48*%
%TO.N,Net-(U1-Pad48)*%
X176520000Y-39570000D03*
%TO.P,U1,24*%
%TO.N,GND*%
X161280000Y-97990000D03*
%TO.P,U1,47*%
%TO.N,/DOE*%
X176520000Y-42110000D03*
%TO.P,U1,23*%
%TO.N,/GBG*%
X161280000Y-95450000D03*
%TO.P,U1,46*%
%TO.N,/~DBOE*%
X176520000Y-44650000D03*
%TO.P,U1,22*%
%TO.N,/~C4*%
X161280000Y-92910000D03*
%TO.P,U1,45*%
%TO.N,/D2P*%
X176520000Y-47190000D03*
%TO.P,U1,21*%
%TO.N,/~C2*%
X161280000Y-90370000D03*
%TO.P,U1,44*%
%TO.N,Net-(U1-Pad44)*%
X176520000Y-49730000D03*
%TO.P,U1,20*%
%TO.N,/C3*%
X161280000Y-87830000D03*
%TO.P,U1,43*%
%TO.N,Net-(U1-Pad43)*%
X176520000Y-52270000D03*
%TO.P,U1,19*%
%TO.N,/C1*%
X161280000Y-85290000D03*
%TO.P,U1,42*%
%TO.N,/~RST*%
X176520000Y-54810000D03*
%TO.P,U1,18*%
%TO.N,/~CDAC*%
X161280000Y-82750000D03*
%TO.P,U1,41*%
%TO.N,/~OWN*%
X176520000Y-57350000D03*
%TO.P,U1,17*%
%TO.N,/~BG*%
X161280000Y-80210000D03*
%TO.P,U1,40*%
%TO.N,/~OVR*%
X176520000Y-59890000D03*
%TO.P,U1,16*%
%TO.N,/~SLAVE5*%
X161280000Y-77670000D03*
%TO.P,U1,39*%
%TO.N,/~BOSS*%
X176520000Y-62430000D03*
%TO.P,U1,15*%
%TO.N,/~SLAVE4*%
X161280000Y-75130000D03*
%TO.P,U1,38*%
%TO.N,/~UDS*%
X176520000Y-64970000D03*
%TO.P,U1,14*%
%TO.N,/~SLAVE3*%
X161280000Y-72590000D03*
%TO.P,U1,37*%
%TO.N,/~LDS*%
X176520000Y-67510000D03*
%TO.P,U1,13*%
%TO.N,/~SLAVE2*%
X161280000Y-70050000D03*
%TO.P,U1,36*%
%TO.N,/~AS*%
X176520000Y-70050000D03*
%TO.P,U1,12*%
%TO.N,/~SLAVE1*%
X161280000Y-67510000D03*
%TO.P,U1,35*%
%TO.N,/READ*%
X176520000Y-72590000D03*
%TO.P,U1,11*%
%TO.N,/~BR5*%
X161280000Y-64970000D03*
%TO.P,U1,34*%
%TO.N,/~A23*%
X176520000Y-75130000D03*
%TO.P,U1,10*%
%TO.N,/~BR4*%
X161280000Y-62430000D03*
%TO.P,U1,33*%
%TO.N,/~A22*%
X176520000Y-77670000D03*
%TO.P,U1,9*%
%TO.N,/~BR3*%
X161280000Y-59890000D03*
%TO.P,U1,32*%
%TO.N,/~A21*%
X176520000Y-80210000D03*
%TO.P,U1,8*%
%TO.N,/~BR2*%
X161280000Y-57350000D03*
%TO.P,U1,31*%
%TO.N,/~A20*%
X176520000Y-82750000D03*
%TO.P,U1,7*%
%TO.N,/~BR1*%
X161280000Y-54810000D03*
%TO.P,U1,30*%
%TO.N,/~A19*%
X176520000Y-85290000D03*
%TO.P,U1,6*%
%TO.N,/~BG5*%
X161280000Y-52270000D03*
%TO.P,U1,29*%
%TO.N,/~CBG*%
X176520000Y-87830000D03*
%TO.P,U1,5*%
%TO.N,/~BG4*%
X161280000Y-49730000D03*
%TO.P,U1,28*%
%TO.N,/~CBR*%
X176520000Y-90370000D03*
%TO.P,U1,4*%
%TO.N,/~BG3*%
X161280000Y-47190000D03*
%TO.P,U1,27*%
%TO.N,/~BR*%
X176520000Y-92910000D03*
%TO.P,U1,3*%
%TO.N,/~BG2*%
X161280000Y-44650000D03*
%TO.P,U1,26*%
%TO.N,/~BEER*%
X176520000Y-95450000D03*
%TO.P,U1,2*%
%TO.N,/~BG1*%
X161280000Y-42110000D03*
%TO.P,U1,25*%
%TO.N,+5V*%
X176520000Y-97990000D03*
D11*
%TO.P,U1,1*%
%TO.N,GND*%
X161280000Y-39570000D03*
%TD*%
D12*
%TO.P,U3,1*%
%TO.N,+5V*%
X171200000Y-97638000D03*
%TO.P,U3,3*%
%TO.N,+3V3*%
X166600000Y-97638000D03*
%TO.P,U3,2*%
%TO.N,GND*%
X168900000Y-97638000D03*
D13*
X168900000Y-91338000D03*
%TD*%
D14*
%TO.P,J1,6*%
%TO.N,+3V3*%
X175260000Y-120650000D03*
%TO.P,J1,5*%
%TO.N,GND*%
X172720000Y-120650000D03*
%TO.P,J1,4*%
%TO.N,/TCK*%
X170180000Y-120650000D03*
%TO.P,J1,3*%
%TO.N,/TDO*%
X167640000Y-120650000D03*
%TO.P,J1,2*%
%TO.N,/TDI*%
X165100000Y-120650000D03*
D15*
%TO.P,J1,1*%
%TO.N,/TMS*%
X162560000Y-120650000D03*
%TD*%
%TO.P,C6,2*%
%TO.N,GND*%
%TA.AperFunction,SMDPad,CuDef*%
G36*
G01*
X164803000Y-96524000D02*
X163853000Y-96524000D01*
G75*
G02*
X163603000Y-96274000I0J250000D01*
G01*
X163603000Y-95599000D01*
G75*
G02*
X163853000Y-95349000I250000J0D01*
G01*
X164803000Y-95349000D01*
G75*
G02*
X165053000Y-95599000I0J-250000D01*
G01*
X165053000Y-96274000D01*
G75*
G02*
X164803000Y-96524000I-250000J0D01*
G01*
G37*
%TD.AperFunction*%
%TO.P,C6,1*%
%TO.N,+3V3*%
%TA.AperFunction,SMDPad,CuDef*%
G36*
G01*
X164803000Y-98599000D02*
X163853000Y-98599000D01*
G75*
G02*
X163603000Y-98349000I0J250000D01*
G01*
X163603000Y-97674000D01*
G75*
G02*
X163853000Y-97424000I250000J0D01*
G01*
X164803000Y-97424000D01*
G75*
G02*
X165053000Y-97674000I0J-250000D01*
G01*
X165053000Y-98349000D01*
G75*
G02*
X164803000Y-98599000I-250000J0D01*
G01*
G37*
%TD.AperFunction*%
%TD*%
%TO.P,C5,2*%
%TO.N,GND*%
%TA.AperFunction,SMDPad,CuDef*%
G36*
G01*
X173947000Y-96524000D02*
X172997000Y-96524000D01*
G75*
G02*
X172747000Y-96274000I0J250000D01*
G01*
X172747000Y-95599000D01*
G75*
G02*
X172997000Y-95349000I250000J0D01*
G01*
X173947000Y-95349000D01*
G75*
G02*
X174197000Y-95599000I0J-250000D01*
G01*
X174197000Y-96274000D01*
G75*
G02*
X173947000Y-96524000I-250000J0D01*
G01*
G37*
%TD.AperFunction*%
%TO.P,C5,1*%
%TO.N,+5V*%
%TA.AperFunction,SMDPad,CuDef*%
G36*
G01*
X173947000Y-98599000D02*
X172997000Y-98599000D01*
G75*
G02*
X172747000Y-98349000I0J250000D01*
G01*
X172747000Y-97674000D01*
G75*
G02*
X172997000Y-97424000I250000J0D01*
G01*
X173947000Y-97424000D01*
G75*
G02*
X174197000Y-97674000I0J-250000D01*
G01*
X174197000Y-98349000D01*
G75*
G02*
X173947000Y-98599000I-250000J0D01*
G01*
G37*
%TD.AperFunction*%
%TD*%
%TO.P,C4,2*%
%TO.N,GND*%
%TA.AperFunction,SMDPad,CuDef*%
G36*
G01*
X164067904Y-115676345D02*
X164739655Y-116348096D01*
G75*
G02*
X164739655Y-116701650I-176777J-176777D01*
G01*
X164262358Y-117178947D01*
G75*
G02*
X163908804Y-117178947I-176777J176777D01*
G01*
X163237053Y-116507196D01*
G75*
G02*
X163237053Y-116153642I176777J176777D01*
G01*
X163714350Y-115676345D01*
G75*
G02*
X164067904Y-115676345I176777J-176777D01*
G01*
G37*
%TD.AperFunction*%
%TO.P,C4,1*%
%TO.N,+3V3*%
%TA.AperFunction,SMDPad,CuDef*%
G36*
G01*
X165535150Y-114209099D02*
X166206901Y-114880850D01*
G75*
G02*
X166206901Y-115234404I-176777J-176777D01*
G01*
X165729604Y-115711701D01*
G75*
G02*
X165376050Y-115711701I-176777J176777D01*
G01*
X164704299Y-115039950D01*
G75*
G02*
X164704299Y-114686396I176777J176777D01*
G01*
X165181596Y-114209099D01*
G75*
G02*
X165535150Y-114209099I176777J-176777D01*
G01*
G37*
%TD.AperFunction*%
%TD*%
%TO.P,C3,2*%
%TO.N,GND*%
%TA.AperFunction,SMDPad,CuDef*%
G36*
G01*
X166184478Y-103231927D02*
X165512727Y-103903678D01*
G75*
G02*
X165159173Y-103903678I-176777J176777D01*
G01*
X164681876Y-103426381D01*
G75*
G02*
X164681876Y-103072827I176777J176777D01*
G01*
X165353627Y-102401076D01*
G75*
G02*
X165707181Y-102401076I176777J-176777D01*
G01*
X166184478Y-102878373D01*
G75*
G02*
X166184478Y-103231927I-176777J-176777D01*
G01*
G37*
%TD.AperFunction*%
%TO.P,C3,1*%
%TO.N,+3V3*%
%TA.AperFunction,SMDPad,CuDef*%
G36*
G01*
X167651724Y-104699173D02*
X166979973Y-105370924D01*
G75*
G02*
X166626419Y-105370924I-176777J176777D01*
G01*
X166149122Y-104893627D01*
G75*
G02*
X166149122Y-104540073I176777J176777D01*
G01*
X166820873Y-103868322D01*
G75*
G02*
X167174427Y-103868322I176777J-176777D01*
G01*
X167651724Y-104345619D01*
G75*
G02*
X167651724Y-104699173I-176777J-176777D01*
G01*
G37*
%TD.AperFunction*%
%TD*%
%TO.P,C2,2*%
%TO.N,GND*%
%TA.AperFunction,SMDPad,CuDef*%
G36*
G01*
X174745673Y-106342078D02*
X174073922Y-105670327D01*
G75*
G02*
X174073922Y-105316773I176777J176777D01*
G01*
X174551219Y-104839476D01*
G75*
G02*
X174904773Y-104839476I176777J-176777D01*
G01*
X175576524Y-105511227D01*
G75*
G02*
X175576524Y-105864781I-176777J-176777D01*
G01*
X175099227Y-106342078D01*
G75*
G02*
X174745673Y-106342078I-176777J176777D01*
G01*
G37*
%TD.AperFunction*%
%TO.P,C2,1*%
%TO.N,+3V3*%
%TA.AperFunction,SMDPad,CuDef*%
G36*
G01*
X173278427Y-107809324D02*
X172606676Y-107137573D01*
G75*
G02*
X172606676Y-106784019I176777J176777D01*
G01*
X173083973Y-106306722D01*
G75*
G02*
X173437527Y-106306722I176777J-176777D01*
G01*
X174109278Y-106978473D01*
G75*
G02*
X174109278Y-107332027I-176777J-176777D01*
G01*
X173631981Y-107809324D01*
G75*
G02*
X173278427Y-107809324I-176777J176777D01*
G01*
G37*
%TD.AperFunction*%
%TD*%
%TO.P,C1,2*%
%TO.N,GND*%
%TA.AperFunction,SMDPad,CuDef*%
G36*
G01*
X172295922Y-117036873D02*
X172967673Y-116365122D01*
G75*
G02*
X173321227Y-116365122I176777J-176777D01*
G01*
X173798524Y-116842419D01*
G75*
G02*
X173798524Y-117195973I-176777J-176777D01*
G01*
X173126773Y-117867724D01*
G75*
G02*
X172773219Y-117867724I-176777J176777D01*
G01*
X172295922Y-117390427D01*
G75*
G02*
X172295922Y-117036873I176777J176777D01*
G01*
G37*
%TD.AperFunction*%
%TO.P,C1,1*%
%TO.N,+3V3*%
%TA.AperFunction,SMDPad,CuDef*%
G36*
G01*
X170828676Y-115569627D02*
X171500427Y-114897876D01*
G75*
G02*
X171853981Y-114897876I176777J-176777D01*
G01*
X172331278Y-115375173D01*
G75*
G02*
X172331278Y-115728727I-176777J-176777D01*
G01*
X171659527Y-116400478D01*
G75*
G02*
X171305973Y-116400478I-176777J176777D01*
G01*
X170828676Y-115923181D01*
G75*
G02*
X170828676Y-115569627I176777J176777D01*
G01*
G37*
%TD.AperFunction*%
%TD*%
D16*
%TO.N,GND*%
X174284800Y-104263800D03*
X174726600Y-47853600D03*
X174726600Y-42265600D03*
X174726600Y-45262800D03*
X174726600Y-50393600D03*
X174726600Y-75793600D03*
X174726600Y-68173600D03*
X174726600Y-85953600D03*
X174726600Y-52933600D03*
X174726600Y-88493600D03*
X174726600Y-73253600D03*
X174726600Y-70713600D03*
X174726600Y-65633600D03*
X174726600Y-80873600D03*
X174726600Y-60553600D03*
X174726600Y-78333600D03*
X174726600Y-91033600D03*
X174726600Y-58013600D03*
X174726600Y-55473600D03*
X174726600Y-63093600D03*
X174726600Y-83413600D03*
X163068000Y-42164000D03*
X163068000Y-44704000D03*
X163068000Y-47752000D03*
X163068000Y-50292000D03*
X163068000Y-52832000D03*
X163068000Y-55372000D03*
X163068000Y-57912000D03*
X163068000Y-60452000D03*
X163068000Y-62992000D03*
X163068000Y-65532000D03*
X163068000Y-68072000D03*
X163068000Y-70612000D03*
X163068000Y-73152000D03*
X163068000Y-75692000D03*
X163068000Y-78232000D03*
X163068000Y-80772000D03*
X163068000Y-83312000D03*
X163068000Y-85852000D03*
X163068000Y-88392000D03*
X163068000Y-90932000D03*
X163235800Y-110461400D03*
X175758000Y-110486800D03*
X168950800Y-102866800D03*
X169128600Y-105965600D03*
X171897200Y-112645800D03*
X165775800Y-112645800D03*
X174437200Y-115744600D03*
X160746600Y-115719200D03*
%TO.N,+3V3*%
X166370000Y-114096800D03*
X170637200Y-114706400D03*
X167843200Y-105562400D03*
X172516800Y-107950000D03*
%TD*%
D17*
%TO.N,+3V3*%
X166319200Y-114096800D02*
X165455600Y-114960400D01*
X166370000Y-114096800D02*
X166319200Y-114096800D01*
X170637200Y-114706400D02*
X171579977Y-115649177D01*
X167843200Y-105562400D02*
X166900423Y-104619623D01*
X172516800Y-107899200D02*
X173357977Y-107058023D01*
X172516800Y-107950000D02*
X172516800Y-107899200D01*
X166226500Y-98011500D02*
X166600000Y-97638000D01*
X164328000Y-98011500D02*
X166226500Y-98011500D01*
X166600000Y-97638000D02*
X166600000Y-101786000D01*
X166600000Y-101786000D02*
X167376000Y-102562000D01*
X167376000Y-104144046D02*
X166900423Y-104619623D01*
X167376000Y-102562000D02*
X167376000Y-104144046D01*
X166144377Y-115649177D02*
X171579977Y-115649177D01*
X165455600Y-114960400D02*
X166144377Y-115649177D01*
X173357977Y-107058023D02*
X170919577Y-104619623D01*
X164328000Y-113832800D02*
X165455600Y-114960400D01*
X164328000Y-107192046D02*
X164328000Y-113832800D01*
X166900423Y-104619623D02*
X164328000Y-107192046D01*
X174488000Y-108188046D02*
X173357977Y-107058023D01*
X174488000Y-112741154D02*
X174488000Y-108188046D01*
X171579977Y-115649177D02*
X174488000Y-112741154D01*
X174488000Y-112741154D02*
X174837354Y-112741154D01*
X175260000Y-113163800D02*
X175260000Y-120650000D01*
X174837354Y-112741154D02*
X175260000Y-113163800D01*
X170919577Y-104619623D02*
X166900423Y-104619623D01*
%TO.N,+5V*%
X176498500Y-98011500D02*
X176520000Y-97990000D01*
X173472000Y-98011500D02*
X176498500Y-98011500D01*
X171573500Y-98011500D02*
X171200000Y-97638000D01*
X173472000Y-98011500D02*
X171573500Y-98011500D01*
%TD*%
D18*
%TO.N,GND*%
X175960587Y-38523412D02*
X175767157Y-38652658D01*
X175602658Y-38817157D01*
X175473412Y-39010587D01*
X175384386Y-39225515D01*
X175339000Y-39453682D01*
X175339000Y-39686318D01*
X175384386Y-39914485D01*
X175473412Y-40129413D01*
X175602658Y-40322843D01*
X175767157Y-40487342D01*
X175960587Y-40616588D01*
X176175515Y-40705614D01*
X176403682Y-40751000D01*
X176636318Y-40751000D01*
X176864485Y-40705614D01*
X177079413Y-40616588D01*
X177272843Y-40487342D01*
X177394001Y-40366184D01*
X177394001Y-41313816D01*
X177272843Y-41192658D01*
X177079413Y-41063412D01*
X176864485Y-40974386D01*
X176636318Y-40929000D01*
X176403682Y-40929000D01*
X176175515Y-40974386D01*
X175960587Y-41063412D01*
X175767157Y-41192658D01*
X175602658Y-41357157D01*
X175473412Y-41550587D01*
X175384386Y-41765515D01*
X175339000Y-41993682D01*
X175339000Y-42226318D01*
X175384386Y-42454485D01*
X175473412Y-42669413D01*
X175602658Y-42862843D01*
X175767157Y-43027342D01*
X175960587Y-43156588D01*
X176175515Y-43245614D01*
X176403682Y-43291000D01*
X176636318Y-43291000D01*
X176864485Y-43245614D01*
X177079413Y-43156588D01*
X177272843Y-43027342D01*
X177394001Y-42906184D01*
X177394001Y-43853816D01*
X177272843Y-43732658D01*
X177079413Y-43603412D01*
X176864485Y-43514386D01*
X176636318Y-43469000D01*
X176403682Y-43469000D01*
X176175515Y-43514386D01*
X175960587Y-43603412D01*
X175767157Y-43732658D01*
X175602658Y-43897157D01*
X175473412Y-44090587D01*
X175384386Y-44305515D01*
X175339000Y-44533682D01*
X175339000Y-44766318D01*
X175384386Y-44994485D01*
X175473412Y-45209413D01*
X175602658Y-45402843D01*
X175767157Y-45567342D01*
X175960587Y-45696588D01*
X176175515Y-45785614D01*
X176403682Y-45831000D01*
X176636318Y-45831000D01*
X176864485Y-45785614D01*
X177079413Y-45696588D01*
X177272843Y-45567342D01*
X177394001Y-45446184D01*
X177394001Y-46393816D01*
X177272843Y-46272658D01*
X177079413Y-46143412D01*
X176864485Y-46054386D01*
X176636318Y-46009000D01*
X176403682Y-46009000D01*
X176175515Y-46054386D01*
X175960587Y-46143412D01*
X175767157Y-46272658D01*
X175602658Y-46437157D01*
X175473412Y-46630587D01*
X175384386Y-46845515D01*
X175339000Y-47073682D01*
X175339000Y-47306318D01*
X175384386Y-47534485D01*
X175473412Y-47749413D01*
X175602658Y-47942843D01*
X175767157Y-48107342D01*
X175960587Y-48236588D01*
X176175515Y-48325614D01*
X176403682Y-48371000D01*
X176636318Y-48371000D01*
X176864485Y-48325614D01*
X177079413Y-48236588D01*
X177272843Y-48107342D01*
X177394001Y-47986184D01*
X177394001Y-48933816D01*
X177272843Y-48812658D01*
X177079413Y-48683412D01*
X176864485Y-48594386D01*
X176636318Y-48549000D01*
X176403682Y-48549000D01*
X176175515Y-48594386D01*
X175960587Y-48683412D01*
X175767157Y-48812658D01*
X175602658Y-48977157D01*
X175473412Y-49170587D01*
X175384386Y-49385515D01*
X175339000Y-49613682D01*
X175339000Y-49846318D01*
X175384386Y-50074485D01*
X175473412Y-50289413D01*
X175602658Y-50482843D01*
X175767157Y-50647342D01*
X175960587Y-50776588D01*
X176175515Y-50865614D01*
X176403682Y-50911000D01*
X176636318Y-50911000D01*
X176864485Y-50865614D01*
X177079413Y-50776588D01*
X177272843Y-50647342D01*
X177394001Y-50526184D01*
X177394001Y-51473816D01*
X177272843Y-51352658D01*
X177079413Y-51223412D01*
X176864485Y-51134386D01*
X176636318Y-51089000D01*
X176403682Y-51089000D01*
X176175515Y-51134386D01*
X175960587Y-51223412D01*
X175767157Y-51352658D01*
X175602658Y-51517157D01*
X175473412Y-51710587D01*
X175384386Y-51925515D01*
X175339000Y-52153682D01*
X175339000Y-52386318D01*
X175384386Y-52614485D01*
X175473412Y-52829413D01*
X175602658Y-53022843D01*
X175767157Y-53187342D01*
X175960587Y-53316588D01*
X176175515Y-53405614D01*
X176403682Y-53451000D01*
X176636318Y-53451000D01*
X176864485Y-53405614D01*
X177079413Y-53316588D01*
X177272843Y-53187342D01*
X177394001Y-53066184D01*
X177394001Y-54013816D01*
X177272843Y-53892658D01*
X177079413Y-53763412D01*
X176864485Y-53674386D01*
X176636318Y-53629000D01*
X176403682Y-53629000D01*
X176175515Y-53674386D01*
X175960587Y-53763412D01*
X175767157Y-53892658D01*
X175602658Y-54057157D01*
X175473412Y-54250587D01*
X175384386Y-54465515D01*
X175339000Y-54693682D01*
X175339000Y-54926318D01*
X175384386Y-55154485D01*
X175473412Y-55369413D01*
X175602658Y-55562843D01*
X175767157Y-55727342D01*
X175960587Y-55856588D01*
X176175515Y-55945614D01*
X176403682Y-55991000D01*
X176636318Y-55991000D01*
X176864485Y-55945614D01*
X177079413Y-55856588D01*
X177272843Y-55727342D01*
X177394001Y-55606184D01*
X177394001Y-56553816D01*
X177272843Y-56432658D01*
X177079413Y-56303412D01*
X176864485Y-56214386D01*
X176636318Y-56169000D01*
X176403682Y-56169000D01*
X176175515Y-56214386D01*
X175960587Y-56303412D01*
X175767157Y-56432658D01*
X175602658Y-56597157D01*
X175473412Y-56790587D01*
X175384386Y-57005515D01*
X175339000Y-57233682D01*
X175339000Y-57466318D01*
X175384386Y-57694485D01*
X175473412Y-57909413D01*
X175602658Y-58102843D01*
X175767157Y-58267342D01*
X175960587Y-58396588D01*
X176175515Y-58485614D01*
X176403682Y-58531000D01*
X176636318Y-58531000D01*
X176864485Y-58485614D01*
X177079413Y-58396588D01*
X177272843Y-58267342D01*
X177394001Y-58146184D01*
X177394001Y-59093816D01*
X177272843Y-58972658D01*
X177079413Y-58843412D01*
X176864485Y-58754386D01*
X176636318Y-58709000D01*
X176403682Y-58709000D01*
X176175515Y-58754386D01*
X175960587Y-58843412D01*
X175767157Y-58972658D01*
X175602658Y-59137157D01*
X175473412Y-59330587D01*
X175384386Y-59545515D01*
X175339000Y-59773682D01*
X175339000Y-60006318D01*
X175384386Y-60234485D01*
X175473412Y-60449413D01*
X175602658Y-60642843D01*
X175767157Y-60807342D01*
X175960587Y-60936588D01*
X176175515Y-61025614D01*
X176403682Y-61071000D01*
X176636318Y-61071000D01*
X176864485Y-61025614D01*
X177079413Y-60936588D01*
X177272843Y-60807342D01*
X177394001Y-60686184D01*
X177394001Y-61633816D01*
X177272843Y-61512658D01*
X177079413Y-61383412D01*
X176864485Y-61294386D01*
X176636318Y-61249000D01*
X176403682Y-61249000D01*
X176175515Y-61294386D01*
X175960587Y-61383412D01*
X175767157Y-61512658D01*
X175602658Y-61677157D01*
X175473412Y-61870587D01*
X175384386Y-62085515D01*
X175339000Y-62313682D01*
X175339000Y-62546318D01*
X175384386Y-62774485D01*
X175473412Y-62989413D01*
X175602658Y-63182843D01*
X175767157Y-63347342D01*
X175960587Y-63476588D01*
X176175515Y-63565614D01*
X176403682Y-63611000D01*
X176636318Y-63611000D01*
X176864485Y-63565614D01*
X177079413Y-63476588D01*
X177272843Y-63347342D01*
X177394001Y-63226184D01*
X177394001Y-64173816D01*
X177272843Y-64052658D01*
X177079413Y-63923412D01*
X176864485Y-63834386D01*
X176636318Y-63789000D01*
X176403682Y-63789000D01*
X176175515Y-63834386D01*
X175960587Y-63923412D01*
X175767157Y-64052658D01*
X175602658Y-64217157D01*
X175473412Y-64410587D01*
X175384386Y-64625515D01*
X175339000Y-64853682D01*
X175339000Y-65086318D01*
X175384386Y-65314485D01*
X175473412Y-65529413D01*
X175602658Y-65722843D01*
X175767157Y-65887342D01*
X175960587Y-66016588D01*
X176175515Y-66105614D01*
X176403682Y-66151000D01*
X176636318Y-66151000D01*
X176864485Y-66105614D01*
X177079413Y-66016588D01*
X177272843Y-65887342D01*
X177394001Y-65766184D01*
X177394001Y-66713816D01*
X177272843Y-66592658D01*
X177079413Y-66463412D01*
X176864485Y-66374386D01*
X176636318Y-66329000D01*
X176403682Y-66329000D01*
X176175515Y-66374386D01*
X175960587Y-66463412D01*
X175767157Y-66592658D01*
X175602658Y-66757157D01*
X175473412Y-66950587D01*
X175384386Y-67165515D01*
X175339000Y-67393682D01*
X175339000Y-67626318D01*
X175384386Y-67854485D01*
X175473412Y-68069413D01*
X175602658Y-68262843D01*
X175767157Y-68427342D01*
X175960587Y-68556588D01*
X176175515Y-68645614D01*
X176403682Y-68691000D01*
X176636318Y-68691000D01*
X176864485Y-68645614D01*
X177079413Y-68556588D01*
X177272843Y-68427342D01*
X177394001Y-68306184D01*
X177394000Y-69253815D01*
X177272843Y-69132658D01*
X177079413Y-69003412D01*
X176864485Y-68914386D01*
X176636318Y-68869000D01*
X176403682Y-68869000D01*
X176175515Y-68914386D01*
X175960587Y-69003412D01*
X175767157Y-69132658D01*
X175602658Y-69297157D01*
X175473412Y-69490587D01*
X175384386Y-69705515D01*
X175339000Y-69933682D01*
X175339000Y-70166318D01*
X175384386Y-70394485D01*
X175473412Y-70609413D01*
X175602658Y-70802843D01*
X175767157Y-70967342D01*
X175960587Y-71096588D01*
X176175515Y-71185614D01*
X176403682Y-71231000D01*
X176636318Y-71231000D01*
X176864485Y-71185614D01*
X177079413Y-71096588D01*
X177272843Y-70967342D01*
X177394000Y-70846185D01*
X177394000Y-71793815D01*
X177272843Y-71672658D01*
X177079413Y-71543412D01*
X176864485Y-71454386D01*
X176636318Y-71409000D01*
X176403682Y-71409000D01*
X176175515Y-71454386D01*
X175960587Y-71543412D01*
X175767157Y-71672658D01*
X175602658Y-71837157D01*
X175473412Y-72030587D01*
X175384386Y-72245515D01*
X175339000Y-72473682D01*
X175339000Y-72706318D01*
X175384386Y-72934485D01*
X175473412Y-73149413D01*
X175602658Y-73342843D01*
X175767157Y-73507342D01*
X175960587Y-73636588D01*
X176175515Y-73725614D01*
X176403682Y-73771000D01*
X176636318Y-73771000D01*
X176864485Y-73725614D01*
X177079413Y-73636588D01*
X177272843Y-73507342D01*
X177394000Y-73386185D01*
X177394000Y-74333815D01*
X177272843Y-74212658D01*
X177079413Y-74083412D01*
X176864485Y-73994386D01*
X176636318Y-73949000D01*
X176403682Y-73949000D01*
X176175515Y-73994386D01*
X175960587Y-74083412D01*
X175767157Y-74212658D01*
X175602658Y-74377157D01*
X175473412Y-74570587D01*
X175384386Y-74785515D01*
X175339000Y-75013682D01*
X175339000Y-75246318D01*
X175384386Y-75474485D01*
X175473412Y-75689413D01*
X175602658Y-75882843D01*
X175767157Y-76047342D01*
X175960587Y-76176588D01*
X176175515Y-76265614D01*
X176403682Y-76311000D01*
X176636318Y-76311000D01*
X176864485Y-76265614D01*
X177079413Y-76176588D01*
X177272843Y-76047342D01*
X177394000Y-75926185D01*
X177394000Y-76873815D01*
X177272843Y-76752658D01*
X177079413Y-76623412D01*
X176864485Y-76534386D01*
X176636318Y-76489000D01*
X176403682Y-76489000D01*
X176175515Y-76534386D01*
X175960587Y-76623412D01*
X175767157Y-76752658D01*
X175602658Y-76917157D01*
X175473412Y-77110587D01*
X175384386Y-77325515D01*
X175339000Y-77553682D01*
X175339000Y-77786318D01*
X175384386Y-78014485D01*
X175473412Y-78229413D01*
X175602658Y-78422843D01*
X175767157Y-78587342D01*
X175960587Y-78716588D01*
X176175515Y-78805614D01*
X176403682Y-78851000D01*
X176636318Y-78851000D01*
X176864485Y-78805614D01*
X177079413Y-78716588D01*
X177272843Y-78587342D01*
X177394000Y-78466185D01*
X177394000Y-79413815D01*
X177272843Y-79292658D01*
X177079413Y-79163412D01*
X176864485Y-79074386D01*
X176636318Y-79029000D01*
X176403682Y-79029000D01*
X176175515Y-79074386D01*
X175960587Y-79163412D01*
X175767157Y-79292658D01*
X175602658Y-79457157D01*
X175473412Y-79650587D01*
X175384386Y-79865515D01*
X175339000Y-80093682D01*
X175339000Y-80326318D01*
X175384386Y-80554485D01*
X175473412Y-80769413D01*
X175602658Y-80962843D01*
X175767157Y-81127342D01*
X175960587Y-81256588D01*
X176175515Y-81345614D01*
X176403682Y-81391000D01*
X176636318Y-81391000D01*
X176864485Y-81345614D01*
X177079413Y-81256588D01*
X177272843Y-81127342D01*
X177394000Y-81006185D01*
X177394000Y-81953815D01*
X177272843Y-81832658D01*
X177079413Y-81703412D01*
X176864485Y-81614386D01*
X176636318Y-81569000D01*
X176403682Y-81569000D01*
X176175515Y-81614386D01*
X175960587Y-81703412D01*
X175767157Y-81832658D01*
X175602658Y-81997157D01*
X175473412Y-82190587D01*
X175384386Y-82405515D01*
X175339000Y-82633682D01*
X175339000Y-82866318D01*
X175384386Y-83094485D01*
X175473412Y-83309413D01*
X175602658Y-83502843D01*
X175767157Y-83667342D01*
X175960587Y-83796588D01*
X176175515Y-83885614D01*
X176403682Y-83931000D01*
X176636318Y-83931000D01*
X176864485Y-83885614D01*
X177079413Y-83796588D01*
X177272843Y-83667342D01*
X177394000Y-83546185D01*
X177394000Y-84493815D01*
X177272843Y-84372658D01*
X177079413Y-84243412D01*
X176864485Y-84154386D01*
X176636318Y-84109000D01*
X176403682Y-84109000D01*
X176175515Y-84154386D01*
X175960587Y-84243412D01*
X175767157Y-84372658D01*
X175602658Y-84537157D01*
X175473412Y-84730587D01*
X175384386Y-84945515D01*
X175339000Y-85173682D01*
X175339000Y-85406318D01*
X175384386Y-85634485D01*
X175473412Y-85849413D01*
X175602658Y-86042843D01*
X175767157Y-86207342D01*
X175960587Y-86336588D01*
X176175515Y-86425614D01*
X176403682Y-86471000D01*
X176636318Y-86471000D01*
X176864485Y-86425614D01*
X177079413Y-86336588D01*
X177272843Y-86207342D01*
X177394000Y-86086185D01*
X177394000Y-87033815D01*
X177272843Y-86912658D01*
X177079413Y-86783412D01*
X176864485Y-86694386D01*
X176636318Y-86649000D01*
X176403682Y-86649000D01*
X176175515Y-86694386D01*
X175960587Y-86783412D01*
X175767157Y-86912658D01*
X175602658Y-87077157D01*
X175473412Y-87270587D01*
X175384386Y-87485515D01*
X175339000Y-87713682D01*
X175339000Y-87946318D01*
X175384386Y-88174485D01*
X175473412Y-88389413D01*
X175602658Y-88582843D01*
X175767157Y-88747342D01*
X175960587Y-88876588D01*
X176175515Y-88965614D01*
X176403682Y-89011000D01*
X176636318Y-89011000D01*
X176864485Y-88965614D01*
X177079413Y-88876588D01*
X177272843Y-88747342D01*
X177394000Y-88626185D01*
X177394000Y-89573815D01*
X177272843Y-89452658D01*
X177079413Y-89323412D01*
X176864485Y-89234386D01*
X176636318Y-89189000D01*
X176403682Y-89189000D01*
X176175515Y-89234386D01*
X175960587Y-89323412D01*
X175767157Y-89452658D01*
X175602658Y-89617157D01*
X175473412Y-89810587D01*
X175384386Y-90025515D01*
X175339000Y-90253682D01*
X175339000Y-90486318D01*
X175384386Y-90714485D01*
X175473412Y-90929413D01*
X175602658Y-91122843D01*
X175767157Y-91287342D01*
X175960587Y-91416588D01*
X176175515Y-91505614D01*
X176403682Y-91551000D01*
X176636318Y-91551000D01*
X176864485Y-91505614D01*
X177079413Y-91416588D01*
X177272843Y-91287342D01*
X177394000Y-91166185D01*
X177394000Y-92113815D01*
X177272843Y-91992658D01*
X177079413Y-91863412D01*
X176864485Y-91774386D01*
X176636318Y-91729000D01*
X176403682Y-91729000D01*
X176175515Y-91774386D01*
X175960587Y-91863412D01*
X175767157Y-91992658D01*
X175602658Y-92157157D01*
X175473412Y-92350587D01*
X175384386Y-92565515D01*
X175339000Y-92793682D01*
X175339000Y-93026318D01*
X175384386Y-93254485D01*
X175473412Y-93469413D01*
X175602658Y-93662843D01*
X175767157Y-93827342D01*
X175960587Y-93956588D01*
X176175515Y-94045614D01*
X176403682Y-94091000D01*
X176636318Y-94091000D01*
X176864485Y-94045614D01*
X177079413Y-93956588D01*
X177272843Y-93827342D01*
X177394000Y-93706185D01*
X177394000Y-94653815D01*
X177272843Y-94532658D01*
X177079413Y-94403412D01*
X176864485Y-94314386D01*
X176636318Y-94269000D01*
X176403682Y-94269000D01*
X176175515Y-94314386D01*
X175960587Y-94403412D01*
X175767157Y-94532658D01*
X175602658Y-94697157D01*
X175473412Y-94890587D01*
X175384386Y-95105515D01*
X175339000Y-95333682D01*
X175339000Y-95566318D01*
X175384386Y-95794485D01*
X175473412Y-96009413D01*
X175602658Y-96202843D01*
X175767157Y-96367342D01*
X175960587Y-96496588D01*
X176175515Y-96585614D01*
X176403682Y-96631000D01*
X176636318Y-96631000D01*
X176864485Y-96585614D01*
X177079413Y-96496588D01*
X177272843Y-96367342D01*
X177394000Y-96246185D01*
X177394000Y-97193815D01*
X177272843Y-97072658D01*
X177079413Y-96943412D01*
X176864485Y-96854386D01*
X176636318Y-96809000D01*
X176403682Y-96809000D01*
X176175515Y-96854386D01*
X175960587Y-96943412D01*
X175767157Y-97072658D01*
X175602658Y-97237157D01*
X175506879Y-97380500D01*
X174504239Y-97380500D01*
X174473190Y-97322411D01*
X174394488Y-97226512D01*
X174303220Y-97151611D01*
X174321482Y-97149812D01*
X174441180Y-97113502D01*
X174551494Y-97054537D01*
X174648185Y-96975185D01*
X174727537Y-96878494D01*
X174786502Y-96768180D01*
X174822812Y-96648482D01*
X174835072Y-96524000D01*
X174832000Y-96222250D01*
X174673250Y-96063500D01*
X173599000Y-96063500D01*
X173599000Y-96083500D01*
X173345000Y-96083500D01*
X173345000Y-96063500D01*
X172270750Y-96063500D01*
X172112000Y-96222250D01*
X172111288Y-96292199D01*
X172096508Y-96284299D01*
X172024689Y-96262513D01*
X171950000Y-96255157D01*
X170450000Y-96255157D01*
X170375311Y-96262513D01*
X170303492Y-96284299D01*
X170237304Y-96319678D01*
X170211285Y-96341031D01*
X170180537Y-96283506D01*
X170101185Y-96186815D01*
X170004494Y-96107463D01*
X169894180Y-96048498D01*
X169774482Y-96012188D01*
X169650000Y-95999928D01*
X169185750Y-96003000D01*
X169027000Y-96161750D01*
X169027000Y-97511000D01*
X169047000Y-97511000D01*
X169047000Y-97765000D01*
X169027000Y-97765000D01*
X169027000Y-99114250D01*
X169185750Y-99273000D01*
X169650000Y-99276072D01*
X169774482Y-99263812D01*
X169894180Y-99227502D01*
X170004494Y-99168537D01*
X170101185Y-99089185D01*
X170180537Y-98992494D01*
X170211285Y-98934969D01*
X170237304Y-98956322D01*
X170303492Y-98991701D01*
X170375311Y-99013487D01*
X170450000Y-99020843D01*
X171950000Y-99020843D01*
X172024689Y-99013487D01*
X172096508Y-98991701D01*
X172162696Y-98956322D01*
X172220711Y-98908711D01*
X172268322Y-98850696D01*
X172303701Y-98784508D01*
X172325487Y-98712689D01*
X172332400Y-98642500D01*
X172439761Y-98642500D01*
X172470810Y-98700589D01*
X172549512Y-98796488D01*
X172645411Y-98875190D01*
X172754821Y-98933671D01*
X172873538Y-98969683D01*
X172997000Y-98981843D01*
X173947000Y-98981843D01*
X174070462Y-98969683D01*
X174189179Y-98933671D01*
X174298589Y-98875190D01*
X174394488Y-98796488D01*
X174473190Y-98700589D01*
X174504239Y-98642500D01*
X175535611Y-98642500D01*
X175602658Y-98742843D01*
X175767157Y-98907342D01*
X175960587Y-99036588D01*
X176175515Y-99125614D01*
X176403682Y-99171000D01*
X176636318Y-99171000D01*
X176864485Y-99125614D01*
X177079413Y-99036588D01*
X177272843Y-98907342D01*
X177394000Y-98786185D01*
X177394000Y-99040067D01*
X177392037Y-99060000D01*
X177394000Y-99079933D01*
X177394000Y-99079940D01*
X177399875Y-99139589D01*
X177423090Y-99216120D01*
X177460790Y-99286652D01*
X177511526Y-99348474D01*
X177527024Y-99361193D01*
X179934000Y-101768171D01*
X179934001Y-119360050D01*
X179934000Y-119360060D01*
X179934001Y-121751828D01*
X177631831Y-124054000D01*
X160188171Y-124054000D01*
X157886000Y-121751831D01*
X157886000Y-119800000D01*
X161327157Y-119800000D01*
X161327157Y-121500000D01*
X161334513Y-121574689D01*
X161356299Y-121646508D01*
X161391678Y-121712696D01*
X161439289Y-121770711D01*
X161497304Y-121818322D01*
X161563492Y-121853701D01*
X161635311Y-121875487D01*
X161710000Y-121882843D01*
X163410000Y-121882843D01*
X163484689Y-121875487D01*
X163556508Y-121853701D01*
X163622696Y-121818322D01*
X163680711Y-121770711D01*
X163728322Y-121712696D01*
X163763701Y-121646508D01*
X163785487Y-121574689D01*
X163792843Y-121500000D01*
X163792843Y-120528757D01*
X163869000Y-120528757D01*
X163869000Y-120771243D01*
X163916307Y-121009069D01*
X164009102Y-121233097D01*
X164143820Y-121434717D01*
X164315283Y-121606180D01*
X164516903Y-121740898D01*
X164740931Y-121833693D01*
X164978757Y-121881000D01*
X165221243Y-121881000D01*
X165459069Y-121833693D01*
X165683097Y-121740898D01*
X165884717Y-121606180D01*
X166056180Y-121434717D01*
X166190898Y-121233097D01*
X166283693Y-121009069D01*
X166331000Y-120771243D01*
X166331000Y-120528757D01*
X166409000Y-120528757D01*
X166409000Y-120771243D01*
X166456307Y-121009069D01*
X166549102Y-121233097D01*
X166683820Y-121434717D01*
X166855283Y-121606180D01*
X167056903Y-121740898D01*
X167280931Y-121833693D01*
X167518757Y-121881000D01*
X167761243Y-121881000D01*
X167999069Y-121833693D01*
X168223097Y-121740898D01*
X168424717Y-121606180D01*
X168596180Y-121434717D01*
X168730898Y-121233097D01*
X168823693Y-121009069D01*
X168871000Y-120771243D01*
X168871000Y-120528757D01*
X168949000Y-120528757D01*
X168949000Y-120771243D01*
X168996307Y-121009069D01*
X169089102Y-121233097D01*
X169223820Y-121434717D01*
X169395283Y-121606180D01*
X169596903Y-121740898D01*
X169820931Y-121833693D01*
X170058757Y-121881000D01*
X170301243Y-121881000D01*
X170539069Y-121833693D01*
X170763097Y-121740898D01*
X170964717Y-121606180D01*
X171136180Y-121434717D01*
X171270898Y-121233097D01*
X171318228Y-121118832D01*
X171375843Y-121281252D01*
X171524822Y-121531355D01*
X171719731Y-121747588D01*
X171953080Y-121921641D01*
X172215901Y-122046825D01*
X172363110Y-122091476D01*
X172593000Y-121970155D01*
X172593000Y-120777000D01*
X172573000Y-120777000D01*
X172573000Y-120523000D01*
X172593000Y-120523000D01*
X172593000Y-119329845D01*
X172363110Y-119208524D01*
X172215901Y-119253175D01*
X171953080Y-119378359D01*
X171719731Y-119552412D01*
X171524822Y-119768645D01*
X171375843Y-120018748D01*
X171318228Y-120181168D01*
X171270898Y-120066903D01*
X171136180Y-119865283D01*
X170964717Y-119693820D01*
X170763097Y-119559102D01*
X170539069Y-119466307D01*
X170301243Y-119419000D01*
X170058757Y-119419000D01*
X169820931Y-119466307D01*
X169596903Y-119559102D01*
X169395283Y-119693820D01*
X169223820Y-119865283D01*
X169089102Y-120066903D01*
X168996307Y-120290931D01*
X168949000Y-120528757D01*
X168871000Y-120528757D01*
X168823693Y-120290931D01*
X168730898Y-120066903D01*
X168596180Y-119865283D01*
X168424717Y-119693820D01*
X168223097Y-119559102D01*
X167999069Y-119466307D01*
X167761243Y-119419000D01*
X167518757Y-119419000D01*
X167280931Y-119466307D01*
X167056903Y-119559102D01*
X166855283Y-119693820D01*
X166683820Y-119865283D01*
X166549102Y-120066903D01*
X166456307Y-120290931D01*
X166409000Y-120528757D01*
X166331000Y-120528757D01*
X166283693Y-120290931D01*
X166190898Y-120066903D01*
X166056180Y-119865283D01*
X165884717Y-119693820D01*
X165683097Y-119559102D01*
X165459069Y-119466307D01*
X165221243Y-119419000D01*
X164978757Y-119419000D01*
X164740931Y-119466307D01*
X164516903Y-119559102D01*
X164315283Y-119693820D01*
X164143820Y-119865283D01*
X164009102Y-120066903D01*
X163916307Y-120290931D01*
X163869000Y-120528757D01*
X163792843Y-120528757D01*
X163792843Y-119800000D01*
X163785487Y-119725311D01*
X163763701Y-119653492D01*
X163728322Y-119587304D01*
X163680711Y-119529289D01*
X163622696Y-119481678D01*
X163556508Y-119446299D01*
X163484689Y-119424513D01*
X163410000Y-119417157D01*
X161710000Y-119417157D01*
X161635311Y-119424513D01*
X161563492Y-119446299D01*
X161497304Y-119481678D01*
X161439289Y-119529289D01*
X161391678Y-119587304D01*
X161356299Y-119653492D01*
X161334513Y-119725311D01*
X161327157Y-119800000D01*
X157886000Y-119800000D01*
X157886000Y-118055638D01*
X172287614Y-118055638D01*
X172287614Y-118280144D01*
X172498811Y-118495686D01*
X172595502Y-118575039D01*
X172705816Y-118634003D01*
X172825515Y-118670312D01*
X172949996Y-118682573D01*
X173074477Y-118670312D01*
X173194175Y-118634003D01*
X173304490Y-118575039D01*
X173401181Y-118495686D01*
X173709605Y-118182917D01*
X173709605Y-117958410D01*
X173047223Y-117296028D01*
X172287614Y-118055638D01*
X157886000Y-118055638D01*
X157886000Y-117269633D01*
X163325972Y-117269633D01*
X163325972Y-117494140D01*
X163634396Y-117806909D01*
X163731087Y-117886262D01*
X163841402Y-117945226D01*
X163961100Y-117981535D01*
X164085581Y-117993796D01*
X164210062Y-117981535D01*
X164329761Y-117945226D01*
X164440075Y-117886262D01*
X164536766Y-117806909D01*
X164747963Y-117591367D01*
X164747963Y-117366861D01*
X163988354Y-116607251D01*
X163325972Y-117269633D01*
X157886000Y-117269633D01*
X157886000Y-116330419D01*
X162422204Y-116330419D01*
X162434465Y-116454900D01*
X162470774Y-116574598D01*
X162529738Y-116684913D01*
X162609091Y-116781604D01*
X162921860Y-117090028D01*
X163146367Y-117090028D01*
X163808749Y-116427646D01*
X163049139Y-115668037D01*
X162824633Y-115668037D01*
X162609091Y-115879234D01*
X162529738Y-115975925D01*
X162470774Y-116086239D01*
X162434465Y-116205938D01*
X162422204Y-116330419D01*
X157886000Y-116330419D01*
X157886000Y-103249604D01*
X163867027Y-103249604D01*
X163879288Y-103374085D01*
X163915597Y-103493784D01*
X163974561Y-103604098D01*
X164053914Y-103700789D01*
X164269456Y-103911986D01*
X164493962Y-103911986D01*
X165253572Y-103152377D01*
X164591190Y-102489995D01*
X164366683Y-102489995D01*
X164053914Y-102798419D01*
X163974561Y-102895110D01*
X163915597Y-103005425D01*
X163879288Y-103125123D01*
X163867027Y-103249604D01*
X157886000Y-103249604D01*
X157886000Y-101768169D01*
X160292987Y-99361184D01*
X160308474Y-99348474D01*
X160359210Y-99286653D01*
X160396910Y-99216121D01*
X160420125Y-99139590D01*
X160420261Y-99138207D01*
X160424869Y-99142385D01*
X160666119Y-99287070D01*
X160930960Y-99381909D01*
X161153000Y-99260624D01*
X161153000Y-98117000D01*
X161407000Y-98117000D01*
X161407000Y-99260624D01*
X161629040Y-99381909D01*
X161893881Y-99287070D01*
X162135131Y-99142385D01*
X162343519Y-98953414D01*
X162511037Y-98727420D01*
X162631246Y-98473087D01*
X162671904Y-98339039D01*
X162549915Y-98117000D01*
X161407000Y-98117000D01*
X161153000Y-98117000D01*
X161133000Y-98117000D01*
X161133000Y-97863000D01*
X161153000Y-97863000D01*
X161153000Y-97843000D01*
X161407000Y-97843000D01*
X161407000Y-97863000D01*
X162549915Y-97863000D01*
X162671904Y-97640961D01*
X162631246Y-97506913D01*
X162511037Y-97252580D01*
X162343519Y-97026586D01*
X162135131Y-96837615D01*
X161893881Y-96692930D01*
X161629040Y-96598091D01*
X161407002Y-96719375D01*
X161407002Y-96628875D01*
X161624485Y-96585614D01*
X161773234Y-96524000D01*
X162964928Y-96524000D01*
X162977188Y-96648482D01*
X163013498Y-96768180D01*
X163072463Y-96878494D01*
X163151815Y-96975185D01*
X163248506Y-97054537D01*
X163358820Y-97113502D01*
X163478518Y-97149812D01*
X163496780Y-97151611D01*
X163405512Y-97226512D01*
X163326810Y-97322411D01*
X163268329Y-97431821D01*
X163232317Y-97550538D01*
X163220157Y-97674000D01*
X163220157Y-98349000D01*
X163232317Y-98472462D01*
X163268329Y-98591179D01*
X163326810Y-98700589D01*
X163405512Y-98796488D01*
X163501411Y-98875190D01*
X163610821Y-98933671D01*
X163729538Y-98969683D01*
X163853000Y-98981843D01*
X164803000Y-98981843D01*
X164926462Y-98969683D01*
X165045179Y-98933671D01*
X165154589Y-98875190D01*
X165250488Y-98796488D01*
X165329190Y-98700589D01*
X165360239Y-98642500D01*
X165467600Y-98642500D01*
X165474513Y-98712689D01*
X165496299Y-98784508D01*
X165531678Y-98850696D01*
X165579289Y-98908711D01*
X165637304Y-98956322D01*
X165703492Y-98991701D01*
X165775311Y-99013487D01*
X165850000Y-99020843D01*
X165969000Y-99020843D01*
X165969001Y-101755000D01*
X165968292Y-101762201D01*
X165884898Y-101693761D01*
X165774584Y-101634797D01*
X165654885Y-101598488D01*
X165530404Y-101586227D01*
X165405923Y-101598488D01*
X165286225Y-101634797D01*
X165175910Y-101693761D01*
X165079219Y-101773114D01*
X164770795Y-102085883D01*
X164770795Y-102310390D01*
X165433177Y-102972772D01*
X165447319Y-102958629D01*
X165626925Y-103138235D01*
X165612782Y-103152377D01*
X165626925Y-103166520D01*
X165447320Y-103346125D01*
X165433177Y-103331982D01*
X164673568Y-104091592D01*
X164673568Y-104316098D01*
X164884765Y-104531640D01*
X164981456Y-104610993D01*
X165091770Y-104669957D01*
X165211469Y-104706266D01*
X165335950Y-104718527D01*
X165460431Y-104706266D01*
X165580129Y-104669957D01*
X165690444Y-104610993D01*
X165704629Y-104599352D01*
X165693056Y-104716850D01*
X165705216Y-104840312D01*
X165724336Y-104903342D01*
X163903737Y-106723941D01*
X163879657Y-106743703D01*
X163800804Y-106839786D01*
X163742211Y-106949405D01*
X163706130Y-107068349D01*
X163697000Y-107161049D01*
X163697000Y-107161056D01*
X163693948Y-107192046D01*
X163697000Y-107223036D01*
X163697001Y-113801800D01*
X163693948Y-113832800D01*
X163706130Y-113956497D01*
X163742211Y-114075441D01*
X163800804Y-114185060D01*
X163859897Y-114257065D01*
X163859900Y-114257068D01*
X163879658Y-114281143D01*
X163903733Y-114300901D01*
X164279513Y-114676681D01*
X164260393Y-114739711D01*
X164248233Y-114863173D01*
X164259806Y-114980671D01*
X164245621Y-114969030D01*
X164135306Y-114910066D01*
X164015608Y-114873757D01*
X163891127Y-114861496D01*
X163766646Y-114873757D01*
X163646947Y-114910066D01*
X163536633Y-114969030D01*
X163439942Y-115048383D01*
X163228745Y-115263925D01*
X163228745Y-115488431D01*
X163988354Y-116248041D01*
X164002497Y-116233899D01*
X164182102Y-116413504D01*
X164167959Y-116427646D01*
X164927569Y-117187255D01*
X165152075Y-117187255D01*
X165367617Y-116976058D01*
X165446970Y-116879367D01*
X165505934Y-116769053D01*
X165542243Y-116649354D01*
X165554504Y-116524873D01*
X165542243Y-116400392D01*
X165505934Y-116280694D01*
X165446970Y-116170379D01*
X165435329Y-116156194D01*
X165552827Y-116167767D01*
X165676289Y-116155607D01*
X165742383Y-116135558D01*
X165792116Y-116176373D01*
X165901735Y-116234966D01*
X166020679Y-116271047D01*
X166113379Y-116280177D01*
X166113386Y-116280177D01*
X166144377Y-116283229D01*
X166175367Y-116280177D01*
X170644250Y-116280177D01*
X171035262Y-116671189D01*
X171131161Y-116749891D01*
X171240571Y-116808372D01*
X171359288Y-116844384D01*
X171482750Y-116856544D01*
X171600248Y-116844971D01*
X171588607Y-116859156D01*
X171529643Y-116969471D01*
X171493334Y-117089169D01*
X171481073Y-117213650D01*
X171493334Y-117338131D01*
X171529643Y-117457830D01*
X171588607Y-117568144D01*
X171667960Y-117664835D01*
X171883502Y-117876032D01*
X172108008Y-117876032D01*
X172867618Y-117116423D01*
X173226828Y-117116423D01*
X173889210Y-117778805D01*
X174113717Y-117778805D01*
X174426486Y-117470381D01*
X174505839Y-117373690D01*
X174564803Y-117263375D01*
X174601112Y-117143677D01*
X174613373Y-117019196D01*
X174601112Y-116894715D01*
X174564803Y-116775016D01*
X174505839Y-116664702D01*
X174426486Y-116568011D01*
X174210944Y-116356814D01*
X173986438Y-116356814D01*
X173226828Y-117116423D01*
X172867618Y-117116423D01*
X172853476Y-117102281D01*
X173033081Y-116922676D01*
X173047223Y-116936818D01*
X173806832Y-116177208D01*
X173806832Y-115952702D01*
X173595635Y-115737160D01*
X173498944Y-115657807D01*
X173388630Y-115598843D01*
X173268931Y-115562534D01*
X173144450Y-115550273D01*
X173019969Y-115562534D01*
X172900271Y-115598843D01*
X172789956Y-115657807D01*
X172775771Y-115669448D01*
X172787344Y-115551950D01*
X172775184Y-115428488D01*
X172756064Y-115365458D01*
X174629000Y-113492523D01*
X174629001Y-119591109D01*
X174475283Y-119693820D01*
X174303820Y-119865283D01*
X174169102Y-120066903D01*
X174121772Y-120181168D01*
X174064157Y-120018748D01*
X173915178Y-119768645D01*
X173720269Y-119552412D01*
X173486920Y-119378359D01*
X173224099Y-119253175D01*
X173076890Y-119208524D01*
X172847000Y-119329845D01*
X172847000Y-120523000D01*
X172867000Y-120523000D01*
X172867000Y-120777000D01*
X172847000Y-120777000D01*
X172847000Y-121970155D01*
X173076890Y-122091476D01*
X173224099Y-122046825D01*
X173486920Y-121921641D01*
X173720269Y-121747588D01*
X173915178Y-121531355D01*
X174064157Y-121281252D01*
X174121772Y-121118832D01*
X174169102Y-121233097D01*
X174303820Y-121434717D01*
X174475283Y-121606180D01*
X174676903Y-121740898D01*
X174900931Y-121833693D01*
X175138757Y-121881000D01*
X175381243Y-121881000D01*
X175619069Y-121833693D01*
X175843097Y-121740898D01*
X176044717Y-121606180D01*
X176216180Y-121434717D01*
X176350898Y-121233097D01*
X176443693Y-121009069D01*
X176491000Y-120771243D01*
X176491000Y-120528757D01*
X176443693Y-120290931D01*
X176350898Y-120066903D01*
X176216180Y-119865283D01*
X176044717Y-119693820D01*
X175891000Y-119591110D01*
X175891000Y-113194790D01*
X175894052Y-113163800D01*
X175891000Y-113132809D01*
X175891000Y-113132802D01*
X175881870Y-113040102D01*
X175845789Y-112921158D01*
X175787196Y-112811539D01*
X175708343Y-112715457D01*
X175684264Y-112695696D01*
X175305459Y-112316891D01*
X175285697Y-112292811D01*
X175189615Y-112213958D01*
X175119000Y-112176213D01*
X175119000Y-108219036D01*
X175122052Y-108188046D01*
X175119000Y-108157055D01*
X175119000Y-108157048D01*
X175109870Y-108064348D01*
X175073789Y-107945404D01*
X175015196Y-107835785D01*
X175007246Y-107826098D01*
X174956103Y-107763780D01*
X174956101Y-107763778D01*
X174936343Y-107739703D01*
X174912268Y-107719945D01*
X174534064Y-107341742D01*
X174553184Y-107278712D01*
X174565344Y-107155250D01*
X174553771Y-107037752D01*
X174567956Y-107049393D01*
X174678271Y-107108357D01*
X174797969Y-107144666D01*
X174922450Y-107156927D01*
X175046931Y-107144666D01*
X175166630Y-107108357D01*
X175276944Y-107049393D01*
X175373635Y-106970040D01*
X175584832Y-106754498D01*
X175584832Y-106529992D01*
X174825223Y-105770382D01*
X174811081Y-105784525D01*
X174631476Y-105604920D01*
X174645618Y-105590777D01*
X175004828Y-105590777D01*
X175764438Y-106350386D01*
X175988944Y-106350386D01*
X176204486Y-106139189D01*
X176283839Y-106042498D01*
X176342803Y-105932184D01*
X176379112Y-105812485D01*
X176391373Y-105688004D01*
X176379112Y-105563523D01*
X176342803Y-105443825D01*
X176283839Y-105333510D01*
X176204486Y-105236819D01*
X175891717Y-104928395D01*
X175667210Y-104928395D01*
X175004828Y-105590777D01*
X174645618Y-105590777D01*
X173886008Y-104831168D01*
X173661502Y-104831168D01*
X173445960Y-105042365D01*
X173366607Y-105139056D01*
X173307643Y-105249370D01*
X173271334Y-105369069D01*
X173259073Y-105493550D01*
X173271334Y-105618031D01*
X173307643Y-105737729D01*
X173366607Y-105848044D01*
X173378248Y-105862229D01*
X173260750Y-105850656D01*
X173137288Y-105862816D01*
X173074258Y-105881936D01*
X171619378Y-104427056D01*
X174065614Y-104427056D01*
X174065614Y-104651562D01*
X174825223Y-105411172D01*
X175487605Y-104748790D01*
X175487605Y-104524283D01*
X175179181Y-104211514D01*
X175082490Y-104132161D01*
X174972175Y-104073197D01*
X174852477Y-104036888D01*
X174727996Y-104024627D01*
X174603515Y-104036888D01*
X174483816Y-104073197D01*
X174373502Y-104132161D01*
X174276811Y-104211514D01*
X174065614Y-104427056D01*
X171619378Y-104427056D01*
X171387680Y-104195358D01*
X171367920Y-104171280D01*
X171271838Y-104092427D01*
X171162219Y-104033834D01*
X171043275Y-103997753D01*
X170950575Y-103988623D01*
X170950567Y-103988623D01*
X170919577Y-103985571D01*
X170888587Y-103988623D01*
X168007000Y-103988623D01*
X168007000Y-102592990D01*
X168010052Y-102562000D01*
X168007000Y-102531009D01*
X168007000Y-102531002D01*
X167997870Y-102438302D01*
X167961789Y-102319358D01*
X167903196Y-102209739D01*
X167844535Y-102138261D01*
X167844103Y-102137734D01*
X167844101Y-102137732D01*
X167824343Y-102113657D01*
X167800269Y-102093900D01*
X167231000Y-101524632D01*
X167231000Y-99020843D01*
X167350000Y-99020843D01*
X167424689Y-99013487D01*
X167496508Y-98991701D01*
X167562696Y-98956322D01*
X167588715Y-98934969D01*
X167619463Y-98992494D01*
X167698815Y-99089185D01*
X167795506Y-99168537D01*
X167905820Y-99227502D01*
X168025518Y-99263812D01*
X168150000Y-99276072D01*
X168614250Y-99273000D01*
X168773000Y-99114250D01*
X168773000Y-97765000D01*
X168753000Y-97765000D01*
X168753000Y-97511000D01*
X168773000Y-97511000D01*
X168773000Y-96161750D01*
X168614250Y-96003000D01*
X168150000Y-95999928D01*
X168025518Y-96012188D01*
X167905820Y-96048498D01*
X167795506Y-96107463D01*
X167698815Y-96186815D01*
X167619463Y-96283506D01*
X167588715Y-96341031D01*
X167562696Y-96319678D01*
X167496508Y-96284299D01*
X167424689Y-96262513D01*
X167350000Y-96255157D01*
X165850000Y-96255157D01*
X165775311Y-96262513D01*
X165703492Y-96284299D01*
X165688712Y-96292199D01*
X165688000Y-96222250D01*
X165529250Y-96063500D01*
X164455000Y-96063500D01*
X164455000Y-96083500D01*
X164201000Y-96083500D01*
X164201000Y-96063500D01*
X163126750Y-96063500D01*
X162968000Y-96222250D01*
X162964928Y-96524000D01*
X161773234Y-96524000D01*
X161839413Y-96496588D01*
X162032843Y-96367342D01*
X162197342Y-96202843D01*
X162326588Y-96009413D01*
X162415614Y-95794485D01*
X162461000Y-95566318D01*
X162461000Y-95349000D01*
X162964928Y-95349000D01*
X162968000Y-95650750D01*
X163126750Y-95809500D01*
X164201000Y-95809500D01*
X164201000Y-94872750D01*
X164455000Y-94872750D01*
X164455000Y-95809500D01*
X165529250Y-95809500D01*
X165688000Y-95650750D01*
X165691072Y-95349000D01*
X172108928Y-95349000D01*
X172112000Y-95650750D01*
X172270750Y-95809500D01*
X173345000Y-95809500D01*
X173345000Y-94872750D01*
X173599000Y-94872750D01*
X173599000Y-95809500D01*
X174673250Y-95809500D01*
X174832000Y-95650750D01*
X174835072Y-95349000D01*
X174822812Y-95224518D01*
X174786502Y-95104820D01*
X174727537Y-94994506D01*
X174648185Y-94897815D01*
X174551494Y-94818463D01*
X174441180Y-94759498D01*
X174321482Y-94723188D01*
X174197000Y-94710928D01*
X173757750Y-94714000D01*
X173599000Y-94872750D01*
X173345000Y-94872750D01*
X173186250Y-94714000D01*
X172747000Y-94710928D01*
X172622518Y-94723188D01*
X172502820Y-94759498D01*
X172392506Y-94818463D01*
X172295815Y-94897815D01*
X172216463Y-94994506D01*
X172157498Y-95104820D01*
X172121188Y-95224518D01*
X172108928Y-95349000D01*
X165691072Y-95349000D01*
X165678812Y-95224518D01*
X165642502Y-95104820D01*
X165583537Y-94994506D01*
X165504185Y-94897815D01*
X165407494Y-94818463D01*
X165297180Y-94759498D01*
X165177482Y-94723188D01*
X165053000Y-94710928D01*
X164613750Y-94714000D01*
X164455000Y-94872750D01*
X164201000Y-94872750D01*
X164042250Y-94714000D01*
X163603000Y-94710928D01*
X163478518Y-94723188D01*
X163358820Y-94759498D01*
X163248506Y-94818463D01*
X163151815Y-94897815D01*
X163072463Y-94994506D01*
X163013498Y-95104820D01*
X162977188Y-95224518D01*
X162964928Y-95349000D01*
X162461000Y-95349000D01*
X162461000Y-95333682D01*
X162415614Y-95105515D01*
X162326588Y-94890587D01*
X162197342Y-94697157D01*
X162032843Y-94532658D01*
X161839413Y-94403412D01*
X161624485Y-94314386D01*
X161396318Y-94269000D01*
X161163682Y-94269000D01*
X160935515Y-94314386D01*
X160720587Y-94403412D01*
X160527157Y-94532658D01*
X160426000Y-94633815D01*
X160426000Y-93726185D01*
X160527157Y-93827342D01*
X160720587Y-93956588D01*
X160935515Y-94045614D01*
X161163682Y-94091000D01*
X161396318Y-94091000D01*
X161624485Y-94045614D01*
X161839413Y-93956588D01*
X162032843Y-93827342D01*
X162197342Y-93662843D01*
X162326588Y-93469413D01*
X162415614Y-93254485D01*
X162461000Y-93026318D01*
X162461000Y-92793682D01*
X162415614Y-92565515D01*
X162326588Y-92350587D01*
X162318178Y-92338000D01*
X166361928Y-92338000D01*
X166374188Y-92462482D01*
X166410498Y-92582180D01*
X166469463Y-92692494D01*
X166548815Y-92789185D01*
X166645506Y-92868537D01*
X166755820Y-92927502D01*
X166875518Y-92963812D01*
X167000000Y-92976072D01*
X168614250Y-92973000D01*
X168773000Y-92814250D01*
X168773000Y-91465000D01*
X169027000Y-91465000D01*
X169027000Y-92814250D01*
X169185750Y-92973000D01*
X170800000Y-92976072D01*
X170924482Y-92963812D01*
X171044180Y-92927502D01*
X171154494Y-92868537D01*
X171251185Y-92789185D01*
X171330537Y-92692494D01*
X171389502Y-92582180D01*
X171425812Y-92462482D01*
X171438072Y-92338000D01*
X171435000Y-91623750D01*
X171276250Y-91465000D01*
X169027000Y-91465000D01*
X168773000Y-91465000D01*
X166523750Y-91465000D01*
X166365000Y-91623750D01*
X166361928Y-92338000D01*
X162318178Y-92338000D01*
X162197342Y-92157157D01*
X162032843Y-91992658D01*
X161839413Y-91863412D01*
X161624485Y-91774386D01*
X161396318Y-91729000D01*
X161163682Y-91729000D01*
X160935515Y-91774386D01*
X160720587Y-91863412D01*
X160527157Y-91992658D01*
X160426000Y-92093815D01*
X160426000Y-91186185D01*
X160527157Y-91287342D01*
X160720587Y-91416588D01*
X160935515Y-91505614D01*
X161163682Y-91551000D01*
X161396318Y-91551000D01*
X161624485Y-91505614D01*
X161839413Y-91416588D01*
X162032843Y-91287342D01*
X162197342Y-91122843D01*
X162326588Y-90929413D01*
X162415614Y-90714485D01*
X162461000Y-90486318D01*
X162461000Y-90338000D01*
X166361928Y-90338000D01*
X166365000Y-91052250D01*
X166523750Y-91211000D01*
X168773000Y-91211000D01*
X168773000Y-89861750D01*
X169027000Y-89861750D01*
X169027000Y-91211000D01*
X171276250Y-91211000D01*
X171435000Y-91052250D01*
X171438072Y-90338000D01*
X171425812Y-90213518D01*
X171389502Y-90093820D01*
X171330537Y-89983506D01*
X171251185Y-89886815D01*
X171154494Y-89807463D01*
X171044180Y-89748498D01*
X170924482Y-89712188D01*
X170800000Y-89699928D01*
X169185750Y-89703000D01*
X169027000Y-89861750D01*
X168773000Y-89861750D01*
X168614250Y-89703000D01*
X167000000Y-89699928D01*
X166875518Y-89712188D01*
X166755820Y-89748498D01*
X166645506Y-89807463D01*
X166548815Y-89886815D01*
X166469463Y-89983506D01*
X166410498Y-90093820D01*
X166374188Y-90213518D01*
X166361928Y-90338000D01*
X162461000Y-90338000D01*
X162461000Y-90253682D01*
X162415614Y-90025515D01*
X162326588Y-89810587D01*
X162197342Y-89617157D01*
X162032843Y-89452658D01*
X161839413Y-89323412D01*
X161624485Y-89234386D01*
X161396318Y-89189000D01*
X161163682Y-89189000D01*
X160935515Y-89234386D01*
X160720587Y-89323412D01*
X160527157Y-89452658D01*
X160426000Y-89553815D01*
X160426000Y-88646185D01*
X160527157Y-88747342D01*
X160720587Y-88876588D01*
X160935515Y-88965614D01*
X161163682Y-89011000D01*
X161396318Y-89011000D01*
X161624485Y-88965614D01*
X161839413Y-88876588D01*
X162032843Y-88747342D01*
X162197342Y-88582843D01*
X162326588Y-88389413D01*
X162415614Y-88174485D01*
X162461000Y-87946318D01*
X162461000Y-87713682D01*
X162415614Y-87485515D01*
X162326588Y-87270587D01*
X162197342Y-87077157D01*
X162032843Y-86912658D01*
X161839413Y-86783412D01*
X161624485Y-86694386D01*
X161396318Y-86649000D01*
X161163682Y-86649000D01*
X160935515Y-86694386D01*
X160720587Y-86783412D01*
X160527157Y-86912658D01*
X160426000Y-87013815D01*
X160426000Y-86106185D01*
X160527157Y-86207342D01*
X160720587Y-86336588D01*
X160935515Y-86425614D01*
X161163682Y-86471000D01*
X161396318Y-86471000D01*
X161624485Y-86425614D01*
X161839413Y-86336588D01*
X162032843Y-86207342D01*
X162197342Y-86042843D01*
X162326588Y-85849413D01*
X162415614Y-85634485D01*
X162461000Y-85406318D01*
X162461000Y-85173682D01*
X162415614Y-84945515D01*
X162326588Y-84730587D01*
X162197342Y-84537157D01*
X162032843Y-84372658D01*
X161839413Y-84243412D01*
X161624485Y-84154386D01*
X161396318Y-84109000D01*
X161163682Y-84109000D01*
X160935515Y-84154386D01*
X160720587Y-84243412D01*
X160527157Y-84372658D01*
X160426000Y-84473815D01*
X160426000Y-83566185D01*
X160527157Y-83667342D01*
X160720587Y-83796588D01*
X160935515Y-83885614D01*
X161163682Y-83931000D01*
X161396318Y-83931000D01*
X161624485Y-83885614D01*
X161839413Y-83796588D01*
X162032843Y-83667342D01*
X162197342Y-83502843D01*
X162326588Y-83309413D01*
X162415614Y-83094485D01*
X162461000Y-82866318D01*
X162461000Y-82633682D01*
X162415614Y-82405515D01*
X162326588Y-82190587D01*
X162197342Y-81997157D01*
X162032843Y-81832658D01*
X161839413Y-81703412D01*
X161624485Y-81614386D01*
X161396318Y-81569000D01*
X161163682Y-81569000D01*
X160935515Y-81614386D01*
X160720587Y-81703412D01*
X160527157Y-81832658D01*
X160426000Y-81933815D01*
X160426000Y-81026185D01*
X160527157Y-81127342D01*
X160720587Y-81256588D01*
X160935515Y-81345614D01*
X161163682Y-81391000D01*
X161396318Y-81391000D01*
X161624485Y-81345614D01*
X161839413Y-81256588D01*
X162032843Y-81127342D01*
X162197342Y-80962843D01*
X162326588Y-80769413D01*
X162415614Y-80554485D01*
X162461000Y-80326318D01*
X162461000Y-80093682D01*
X162415614Y-79865515D01*
X162326588Y-79650587D01*
X162197342Y-79457157D01*
X162032843Y-79292658D01*
X161839413Y-79163412D01*
X161624485Y-79074386D01*
X161396318Y-79029000D01*
X161163682Y-79029000D01*
X160935515Y-79074386D01*
X160720587Y-79163412D01*
X160527157Y-79292658D01*
X160426000Y-79393815D01*
X160426000Y-78486185D01*
X160527157Y-78587342D01*
X160720587Y-78716588D01*
X160935515Y-78805614D01*
X161163682Y-78851000D01*
X161396318Y-78851000D01*
X161624485Y-78805614D01*
X161839413Y-78716588D01*
X162032843Y-78587342D01*
X162197342Y-78422843D01*
X162326588Y-78229413D01*
X162415614Y-78014485D01*
X162461000Y-77786318D01*
X162461000Y-77553682D01*
X162415614Y-77325515D01*
X162326588Y-77110587D01*
X162197342Y-76917157D01*
X162032843Y-76752658D01*
X161839413Y-76623412D01*
X161624485Y-76534386D01*
X161396318Y-76489000D01*
X161163682Y-76489000D01*
X160935515Y-76534386D01*
X160720587Y-76623412D01*
X160527157Y-76752658D01*
X160426000Y-76853815D01*
X160426000Y-75946185D01*
X160527157Y-76047342D01*
X160720587Y-76176588D01*
X160935515Y-76265614D01*
X161163682Y-76311000D01*
X161396318Y-76311000D01*
X161624485Y-76265614D01*
X161839413Y-76176588D01*
X162032843Y-76047342D01*
X162197342Y-75882843D01*
X162326588Y-75689413D01*
X162415614Y-75474485D01*
X162461000Y-75246318D01*
X162461000Y-75013682D01*
X162415614Y-74785515D01*
X162326588Y-74570587D01*
X162197342Y-74377157D01*
X162032843Y-74212658D01*
X161839413Y-74083412D01*
X161624485Y-73994386D01*
X161396318Y-73949000D01*
X161163682Y-73949000D01*
X160935515Y-73994386D01*
X160720587Y-74083412D01*
X160527157Y-74212658D01*
X160426000Y-74313815D01*
X160426000Y-73406185D01*
X160527157Y-73507342D01*
X160720587Y-73636588D01*
X160935515Y-73725614D01*
X161163682Y-73771000D01*
X161396318Y-73771000D01*
X161624485Y-73725614D01*
X161839413Y-73636588D01*
X162032843Y-73507342D01*
X162197342Y-73342843D01*
X162326588Y-73149413D01*
X162415614Y-72934485D01*
X162461000Y-72706318D01*
X162461000Y-72473682D01*
X162415614Y-72245515D01*
X162326588Y-72030587D01*
X162197342Y-71837157D01*
X162032843Y-71672658D01*
X161839413Y-71543412D01*
X161624485Y-71454386D01*
X161396318Y-71409000D01*
X161163682Y-71409000D01*
X160935515Y-71454386D01*
X160720587Y-71543412D01*
X160527157Y-71672658D01*
X160426000Y-71773815D01*
X160426000Y-70866185D01*
X160527157Y-70967342D01*
X160720587Y-71096588D01*
X160935515Y-71185614D01*
X161163682Y-71231000D01*
X161396318Y-71231000D01*
X161624485Y-71185614D01*
X161839413Y-71096588D01*
X162032843Y-70967342D01*
X162197342Y-70802843D01*
X162326588Y-70609413D01*
X162415614Y-70394485D01*
X162461000Y-70166318D01*
X162461000Y-69933682D01*
X162415614Y-69705515D01*
X162326588Y-69490587D01*
X162197342Y-69297157D01*
X162032843Y-69132658D01*
X161839413Y-69003412D01*
X161624485Y-68914386D01*
X161396318Y-68869000D01*
X161163682Y-68869000D01*
X160935515Y-68914386D01*
X160720587Y-69003412D01*
X160527157Y-69132658D01*
X160426000Y-69233815D01*
X160426000Y-68326185D01*
X160527157Y-68427342D01*
X160720587Y-68556588D01*
X160935515Y-68645614D01*
X161163682Y-68691000D01*
X161396318Y-68691000D01*
X161624485Y-68645614D01*
X161839413Y-68556588D01*
X162032843Y-68427342D01*
X162197342Y-68262843D01*
X162326588Y-68069413D01*
X162415614Y-67854485D01*
X162461000Y-67626318D01*
X162461000Y-67393682D01*
X162415614Y-67165515D01*
X162326588Y-66950587D01*
X162197342Y-66757157D01*
X162032843Y-66592658D01*
X161839413Y-66463412D01*
X161624485Y-66374386D01*
X161396318Y-66329000D01*
X161163682Y-66329000D01*
X160935515Y-66374386D01*
X160720587Y-66463412D01*
X160527157Y-66592658D01*
X160426000Y-66693815D01*
X160426000Y-65786185D01*
X160527157Y-65887342D01*
X160720587Y-66016588D01*
X160935515Y-66105614D01*
X161163682Y-66151000D01*
X161396318Y-66151000D01*
X161624485Y-66105614D01*
X161839413Y-66016588D01*
X162032843Y-65887342D01*
X162197342Y-65722843D01*
X162326588Y-65529413D01*
X162415614Y-65314485D01*
X162461000Y-65086318D01*
X162461000Y-64853682D01*
X162415614Y-64625515D01*
X162326588Y-64410587D01*
X162197342Y-64217157D01*
X162032843Y-64052658D01*
X161839413Y-63923412D01*
X161624485Y-63834386D01*
X161396318Y-63789000D01*
X161163682Y-63789000D01*
X160935515Y-63834386D01*
X160720587Y-63923412D01*
X160527157Y-64052658D01*
X160426000Y-64153815D01*
X160426000Y-63246185D01*
X160527157Y-63347342D01*
X160720587Y-63476588D01*
X160935515Y-63565614D01*
X161163682Y-63611000D01*
X161396318Y-63611000D01*
X161624485Y-63565614D01*
X161839413Y-63476588D01*
X162032843Y-63347342D01*
X162197342Y-63182843D01*
X162326588Y-62989413D01*
X162415614Y-62774485D01*
X162461000Y-62546318D01*
X162461000Y-62313682D01*
X162415614Y-62085515D01*
X162326588Y-61870587D01*
X162197342Y-61677157D01*
X162032843Y-61512658D01*
X161839413Y-61383412D01*
X161624485Y-61294386D01*
X161396318Y-61249000D01*
X161163682Y-61249000D01*
X160935515Y-61294386D01*
X160720587Y-61383412D01*
X160527157Y-61512658D01*
X160426000Y-61613815D01*
X160426000Y-60706185D01*
X160527157Y-60807342D01*
X160720587Y-60936588D01*
X160935515Y-61025614D01*
X161163682Y-61071000D01*
X161396318Y-61071000D01*
X161624485Y-61025614D01*
X161839413Y-60936588D01*
X162032843Y-60807342D01*
X162197342Y-60642843D01*
X162326588Y-60449413D01*
X162415614Y-60234485D01*
X162461000Y-60006318D01*
X162461000Y-59773682D01*
X162415614Y-59545515D01*
X162326588Y-59330587D01*
X162197342Y-59137157D01*
X162032843Y-58972658D01*
X161839413Y-58843412D01*
X161624485Y-58754386D01*
X161396318Y-58709000D01*
X161163682Y-58709000D01*
X160935515Y-58754386D01*
X160720587Y-58843412D01*
X160527157Y-58972658D01*
X160426000Y-59073815D01*
X160426000Y-58166185D01*
X160527157Y-58267342D01*
X160720587Y-58396588D01*
X160935515Y-58485614D01*
X161163682Y-58531000D01*
X161396318Y-58531000D01*
X161624485Y-58485614D01*
X161839413Y-58396588D01*
X162032843Y-58267342D01*
X162197342Y-58102843D01*
X162326588Y-57909413D01*
X162415614Y-57694485D01*
X162461000Y-57466318D01*
X162461000Y-57233682D01*
X162415614Y-57005515D01*
X162326588Y-56790587D01*
X162197342Y-56597157D01*
X162032843Y-56432658D01*
X161839413Y-56303412D01*
X161624485Y-56214386D01*
X161396318Y-56169000D01*
X161163682Y-56169000D01*
X160935515Y-56214386D01*
X160720587Y-56303412D01*
X160527157Y-56432658D01*
X160426000Y-56533815D01*
X160426000Y-55626185D01*
X160527157Y-55727342D01*
X160720587Y-55856588D01*
X160935515Y-55945614D01*
X161163682Y-55991000D01*
X161396318Y-55991000D01*
X161624485Y-55945614D01*
X161839413Y-55856588D01*
X162032843Y-55727342D01*
X162197342Y-55562843D01*
X162326588Y-55369413D01*
X162415614Y-55154485D01*
X162461000Y-54926318D01*
X162461000Y-54693682D01*
X162415614Y-54465515D01*
X162326588Y-54250587D01*
X162197342Y-54057157D01*
X162032843Y-53892658D01*
X161839413Y-53763412D01*
X161624485Y-53674386D01*
X161396318Y-53629000D01*
X161163682Y-53629000D01*
X160935515Y-53674386D01*
X160720587Y-53763412D01*
X160527157Y-53892658D01*
X160426000Y-53993815D01*
X160426000Y-53086185D01*
X160527157Y-53187342D01*
X160720587Y-53316588D01*
X160935515Y-53405614D01*
X161163682Y-53451000D01*
X161396318Y-53451000D01*
X161624485Y-53405614D01*
X161839413Y-53316588D01*
X162032843Y-53187342D01*
X162197342Y-53022843D01*
X162326588Y-52829413D01*
X162415614Y-52614485D01*
X162461000Y-52386318D01*
X162461000Y-52153682D01*
X162415614Y-51925515D01*
X162326588Y-51710587D01*
X162197342Y-51517157D01*
X162032843Y-51352658D01*
X161839413Y-51223412D01*
X161624485Y-51134386D01*
X161396318Y-51089000D01*
X161163682Y-51089000D01*
X160935515Y-51134386D01*
X160720587Y-51223412D01*
X160527157Y-51352658D01*
X160426000Y-51453815D01*
X160426000Y-50546185D01*
X160527157Y-50647342D01*
X160720587Y-50776588D01*
X160935515Y-50865614D01*
X161163682Y-50911000D01*
X161396318Y-50911000D01*
X161624485Y-50865614D01*
X161839413Y-50776588D01*
X162032843Y-50647342D01*
X162197342Y-50482843D01*
X162326588Y-50289413D01*
X162415614Y-50074485D01*
X162461000Y-49846318D01*
X162461000Y-49613682D01*
X162415614Y-49385515D01*
X162326588Y-49170587D01*
X162197342Y-48977157D01*
X162032843Y-48812658D01*
X161839413Y-48683412D01*
X161624485Y-48594386D01*
X161396318Y-48549000D01*
X161163682Y-48549000D01*
X160935515Y-48594386D01*
X160720587Y-48683412D01*
X160527157Y-48812658D01*
X160426000Y-48913815D01*
X160426000Y-48006185D01*
X160527157Y-48107342D01*
X160720587Y-48236588D01*
X160935515Y-48325614D01*
X161163682Y-48371000D01*
X161396318Y-48371000D01*
X161624485Y-48325614D01*
X161839413Y-48236588D01*
X162032843Y-48107342D01*
X162197342Y-47942843D01*
X162326588Y-47749413D01*
X162415614Y-47534485D01*
X162461000Y-47306318D01*
X162461000Y-47073682D01*
X162415614Y-46845515D01*
X162326588Y-46630587D01*
X162197342Y-46437157D01*
X162032843Y-46272658D01*
X161839413Y-46143412D01*
X161624485Y-46054386D01*
X161396318Y-46009000D01*
X161163682Y-46009000D01*
X160935515Y-46054386D01*
X160720587Y-46143412D01*
X160527157Y-46272658D01*
X160426000Y-46373815D01*
X160426000Y-45466185D01*
X160527157Y-45567342D01*
X160720587Y-45696588D01*
X160935515Y-45785614D01*
X161163682Y-45831000D01*
X161396318Y-45831000D01*
X161624485Y-45785614D01*
X161839413Y-45696588D01*
X162032843Y-45567342D01*
X162197342Y-45402843D01*
X162326588Y-45209413D01*
X162415614Y-44994485D01*
X162461000Y-44766318D01*
X162461000Y-44533682D01*
X162415614Y-44305515D01*
X162326588Y-44090587D01*
X162197342Y-43897157D01*
X162032843Y-43732658D01*
X161839413Y-43603412D01*
X161624485Y-43514386D01*
X161396318Y-43469000D01*
X161163682Y-43469000D01*
X160935515Y-43514386D01*
X160720587Y-43603412D01*
X160527157Y-43732658D01*
X160426000Y-43833815D01*
X160426000Y-42926185D01*
X160527157Y-43027342D01*
X160720587Y-43156588D01*
X160935515Y-43245614D01*
X161163682Y-43291000D01*
X161396318Y-43291000D01*
X161624485Y-43245614D01*
X161839413Y-43156588D01*
X162032843Y-43027342D01*
X162197342Y-42862843D01*
X162326588Y-42669413D01*
X162415614Y-42454485D01*
X162461000Y-42226318D01*
X162461000Y-41993682D01*
X162415614Y-41765515D01*
X162326588Y-41550587D01*
X162197342Y-41357157D01*
X162032843Y-41192658D01*
X161839413Y-41063412D01*
X161700335Y-41005804D01*
X162080000Y-41008072D01*
X162204482Y-40995812D01*
X162324180Y-40959502D01*
X162434494Y-40900537D01*
X162531185Y-40821185D01*
X162610537Y-40724494D01*
X162669502Y-40614180D01*
X162705812Y-40494482D01*
X162718072Y-40370000D01*
X162715000Y-39855750D01*
X162556250Y-39697000D01*
X161407000Y-39697000D01*
X161407000Y-39717000D01*
X161153000Y-39717000D01*
X161153000Y-39697000D01*
X161133000Y-39697000D01*
X161133000Y-39443000D01*
X161153000Y-39443000D01*
X161153000Y-39423000D01*
X161407000Y-39423000D01*
X161407000Y-39443000D01*
X162556250Y-39443000D01*
X162715000Y-39284250D01*
X162718072Y-38770000D01*
X162705812Y-38645518D01*
X162669502Y-38525820D01*
X162658908Y-38506000D01*
X176002623Y-38506000D01*
X175960587Y-38523412D01*
%TA.AperFunction,Conductor*%
D19*
G36*
X175960587Y-38523412D02*
G01*
X175767157Y-38652658D01*
X175602658Y-38817157D01*
X175473412Y-39010587D01*
X175384386Y-39225515D01*
X175339000Y-39453682D01*
X175339000Y-39686318D01*
X175384386Y-39914485D01*
X175473412Y-40129413D01*
X175602658Y-40322843D01*
X175767157Y-40487342D01*
X175960587Y-40616588D01*
X176175515Y-40705614D01*
X176403682Y-40751000D01*
X176636318Y-40751000D01*
X176864485Y-40705614D01*
X177079413Y-40616588D01*
X177272843Y-40487342D01*
X177394001Y-40366184D01*
X177394001Y-41313816D01*
X177272843Y-41192658D01*
X177079413Y-41063412D01*
X176864485Y-40974386D01*
X176636318Y-40929000D01*
X176403682Y-40929000D01*
X176175515Y-40974386D01*
X175960587Y-41063412D01*
X175767157Y-41192658D01*
X175602658Y-41357157D01*
X175473412Y-41550587D01*
X175384386Y-41765515D01*
X175339000Y-41993682D01*
X175339000Y-42226318D01*
X175384386Y-42454485D01*
X175473412Y-42669413D01*
X175602658Y-42862843D01*
X175767157Y-43027342D01*
X175960587Y-43156588D01*
X176175515Y-43245614D01*
X176403682Y-43291000D01*
X176636318Y-43291000D01*
X176864485Y-43245614D01*
X177079413Y-43156588D01*
X177272843Y-43027342D01*
X177394001Y-42906184D01*
X177394001Y-43853816D01*
X177272843Y-43732658D01*
X177079413Y-43603412D01*
X176864485Y-43514386D01*
X176636318Y-43469000D01*
X176403682Y-43469000D01*
X176175515Y-43514386D01*
X175960587Y-43603412D01*
X175767157Y-43732658D01*
X175602658Y-43897157D01*
X175473412Y-44090587D01*
X175384386Y-44305515D01*
X175339000Y-44533682D01*
X175339000Y-44766318D01*
X175384386Y-44994485D01*
X175473412Y-45209413D01*
X175602658Y-45402843D01*
X175767157Y-45567342D01*
X175960587Y-45696588D01*
X176175515Y-45785614D01*
X176403682Y-45831000D01*
X176636318Y-45831000D01*
X176864485Y-45785614D01*
X177079413Y-45696588D01*
X177272843Y-45567342D01*
X177394001Y-45446184D01*
X177394001Y-46393816D01*
X177272843Y-46272658D01*
X177079413Y-46143412D01*
X176864485Y-46054386D01*
X176636318Y-46009000D01*
X176403682Y-46009000D01*
X176175515Y-46054386D01*
X175960587Y-46143412D01*
X175767157Y-46272658D01*
X175602658Y-46437157D01*
X175473412Y-46630587D01*
X175384386Y-46845515D01*
X175339000Y-47073682D01*
X175339000Y-47306318D01*
X175384386Y-47534485D01*
X175473412Y-47749413D01*
X175602658Y-47942843D01*
X175767157Y-48107342D01*
X175960587Y-48236588D01*
X176175515Y-48325614D01*
X176403682Y-48371000D01*
X176636318Y-48371000D01*
X176864485Y-48325614D01*
X177079413Y-48236588D01*
X177272843Y-48107342D01*
X177394001Y-47986184D01*
X177394001Y-48933816D01*
X177272843Y-48812658D01*
X177079413Y-48683412D01*
X176864485Y-48594386D01*
X176636318Y-48549000D01*
X176403682Y-48549000D01*
X176175515Y-48594386D01*
X175960587Y-48683412D01*
X175767157Y-48812658D01*
X175602658Y-48977157D01*
X175473412Y-49170587D01*
X175384386Y-49385515D01*
X175339000Y-49613682D01*
X175339000Y-49846318D01*
X175384386Y-50074485D01*
X175473412Y-50289413D01*
X175602658Y-50482843D01*
X175767157Y-50647342D01*
X175960587Y-50776588D01*
X176175515Y-50865614D01*
X176403682Y-50911000D01*
X176636318Y-50911000D01*
X176864485Y-50865614D01*
X177079413Y-50776588D01*
X177272843Y-50647342D01*
X177394001Y-50526184D01*
X177394001Y-51473816D01*
X177272843Y-51352658D01*
X177079413Y-51223412D01*
X176864485Y-51134386D01*
X176636318Y-51089000D01*
X176403682Y-51089000D01*
X176175515Y-51134386D01*
X175960587Y-51223412D01*
X175767157Y-51352658D01*
X175602658Y-51517157D01*
X175473412Y-51710587D01*
X175384386Y-51925515D01*
X175339000Y-52153682D01*
X175339000Y-52386318D01*
X175384386Y-52614485D01*
X175473412Y-52829413D01*
X175602658Y-53022843D01*
X175767157Y-53187342D01*
X175960587Y-53316588D01*
X176175515Y-53405614D01*
X176403682Y-53451000D01*
X176636318Y-53451000D01*
X176864485Y-53405614D01*
X177079413Y-53316588D01*
X177272843Y-53187342D01*
X177394001Y-53066184D01*
X177394001Y-54013816D01*
X177272843Y-53892658D01*
X177079413Y-53763412D01*
X176864485Y-53674386D01*
X176636318Y-53629000D01*
X176403682Y-53629000D01*
X176175515Y-53674386D01*
X175960587Y-53763412D01*
X175767157Y-53892658D01*
X175602658Y-54057157D01*
X175473412Y-54250587D01*
X175384386Y-54465515D01*
X175339000Y-54693682D01*
X175339000Y-54926318D01*
X175384386Y-55154485D01*
X175473412Y-55369413D01*
X175602658Y-55562843D01*
X175767157Y-55727342D01*
X175960587Y-55856588D01*
X176175515Y-55945614D01*
X176403682Y-55991000D01*
X176636318Y-55991000D01*
X176864485Y-55945614D01*
X177079413Y-55856588D01*
X177272843Y-55727342D01*
X177394001Y-55606184D01*
X177394001Y-56553816D01*
X177272843Y-56432658D01*
X177079413Y-56303412D01*
X176864485Y-56214386D01*
X176636318Y-56169000D01*
X176403682Y-56169000D01*
X176175515Y-56214386D01*
X175960587Y-56303412D01*
X175767157Y-56432658D01*
X175602658Y-56597157D01*
X175473412Y-56790587D01*
X175384386Y-57005515D01*
X175339000Y-57233682D01*
X175339000Y-57466318D01*
X175384386Y-57694485D01*
X175473412Y-57909413D01*
X175602658Y-58102843D01*
X175767157Y-58267342D01*
X175960587Y-58396588D01*
X176175515Y-58485614D01*
X176403682Y-58531000D01*
X176636318Y-58531000D01*
X176864485Y-58485614D01*
X177079413Y-58396588D01*
X177272843Y-58267342D01*
X177394001Y-58146184D01*
X177394001Y-59093816D01*
X177272843Y-58972658D01*
X177079413Y-58843412D01*
X176864485Y-58754386D01*
X176636318Y-58709000D01*
X176403682Y-58709000D01*
X176175515Y-58754386D01*
X175960587Y-58843412D01*
X175767157Y-58972658D01*
X175602658Y-59137157D01*
X175473412Y-59330587D01*
X175384386Y-59545515D01*
X175339000Y-59773682D01*
X175339000Y-60006318D01*
X175384386Y-60234485D01*
X175473412Y-60449413D01*
X175602658Y-60642843D01*
X175767157Y-60807342D01*
X175960587Y-60936588D01*
X176175515Y-61025614D01*
X176403682Y-61071000D01*
X176636318Y-61071000D01*
X176864485Y-61025614D01*
X177079413Y-60936588D01*
X177272843Y-60807342D01*
X177394001Y-60686184D01*
X177394001Y-61633816D01*
X177272843Y-61512658D01*
X177079413Y-61383412D01*
X176864485Y-61294386D01*
X176636318Y-61249000D01*
X176403682Y-61249000D01*
X176175515Y-61294386D01*
X175960587Y-61383412D01*
X175767157Y-61512658D01*
X175602658Y-61677157D01*
X175473412Y-61870587D01*
X175384386Y-62085515D01*
X175339000Y-62313682D01*
X175339000Y-62546318D01*
X175384386Y-62774485D01*
X175473412Y-62989413D01*
X175602658Y-63182843D01*
X175767157Y-63347342D01*
X175960587Y-63476588D01*
X176175515Y-63565614D01*
X176403682Y-63611000D01*
X176636318Y-63611000D01*
X176864485Y-63565614D01*
X177079413Y-63476588D01*
X177272843Y-63347342D01*
X177394001Y-63226184D01*
X177394001Y-64173816D01*
X177272843Y-64052658D01*
X177079413Y-63923412D01*
X176864485Y-63834386D01*
X176636318Y-63789000D01*
X176403682Y-63789000D01*
X176175515Y-63834386D01*
X175960587Y-63923412D01*
X175767157Y-64052658D01*
X175602658Y-64217157D01*
X175473412Y-64410587D01*
X175384386Y-64625515D01*
X175339000Y-64853682D01*
X175339000Y-65086318D01*
X175384386Y-65314485D01*
X175473412Y-65529413D01*
X175602658Y-65722843D01*
X175767157Y-65887342D01*
X175960587Y-66016588D01*
X176175515Y-66105614D01*
X176403682Y-66151000D01*
X176636318Y-66151000D01*
X176864485Y-66105614D01*
X177079413Y-66016588D01*
X177272843Y-65887342D01*
X177394001Y-65766184D01*
X177394001Y-66713816D01*
X177272843Y-66592658D01*
X177079413Y-66463412D01*
X176864485Y-66374386D01*
X176636318Y-66329000D01*
X176403682Y-66329000D01*
X176175515Y-66374386D01*
X175960587Y-66463412D01*
X175767157Y-66592658D01*
X175602658Y-66757157D01*
X175473412Y-66950587D01*
X175384386Y-67165515D01*
X175339000Y-67393682D01*
X175339000Y-67626318D01*
X175384386Y-67854485D01*
X175473412Y-68069413D01*
X175602658Y-68262843D01*
X175767157Y-68427342D01*
X175960587Y-68556588D01*
X176175515Y-68645614D01*
X176403682Y-68691000D01*
X176636318Y-68691000D01*
X176864485Y-68645614D01*
X177079413Y-68556588D01*
X177272843Y-68427342D01*
X177394001Y-68306184D01*
X177394000Y-69253815D01*
X177272843Y-69132658D01*
X177079413Y-69003412D01*
X176864485Y-68914386D01*
X176636318Y-68869000D01*
X176403682Y-68869000D01*
X176175515Y-68914386D01*
X175960587Y-69003412D01*
X175767157Y-69132658D01*
X175602658Y-69297157D01*
X175473412Y-69490587D01*
X175384386Y-69705515D01*
X175339000Y-69933682D01*
X175339000Y-70166318D01*
X175384386Y-70394485D01*
X175473412Y-70609413D01*
X175602658Y-70802843D01*
X175767157Y-70967342D01*
X175960587Y-71096588D01*
X176175515Y-71185614D01*
X176403682Y-71231000D01*
X176636318Y-71231000D01*
X176864485Y-71185614D01*
X177079413Y-71096588D01*
X177272843Y-70967342D01*
X177394000Y-70846185D01*
X177394000Y-71793815D01*
X177272843Y-71672658D01*
X177079413Y-71543412D01*
X176864485Y-71454386D01*
X176636318Y-71409000D01*
X176403682Y-71409000D01*
X176175515Y-71454386D01*
X175960587Y-71543412D01*
X175767157Y-71672658D01*
X175602658Y-71837157D01*
X175473412Y-72030587D01*
X175384386Y-72245515D01*
X175339000Y-72473682D01*
X175339000Y-72706318D01*
X175384386Y-72934485D01*
X175473412Y-73149413D01*
X175602658Y-73342843D01*
X175767157Y-73507342D01*
X175960587Y-73636588D01*
X176175515Y-73725614D01*
X176403682Y-73771000D01*
X176636318Y-73771000D01*
X176864485Y-73725614D01*
X177079413Y-73636588D01*
X177272843Y-73507342D01*
X177394000Y-73386185D01*
X177394000Y-74333815D01*
X177272843Y-74212658D01*
X177079413Y-74083412D01*
X176864485Y-73994386D01*
X176636318Y-73949000D01*
X176403682Y-73949000D01*
X176175515Y-73994386D01*
X175960587Y-74083412D01*
X175767157Y-74212658D01*
X175602658Y-74377157D01*
X175473412Y-74570587D01*
X175384386Y-74785515D01*
X175339000Y-75013682D01*
X175339000Y-75246318D01*
X175384386Y-75474485D01*
X175473412Y-75689413D01*
X175602658Y-75882843D01*
X175767157Y-76047342D01*
X175960587Y-76176588D01*
X176175515Y-76265614D01*
X176403682Y-76311000D01*
X176636318Y-76311000D01*
X176864485Y-76265614D01*
X177079413Y-76176588D01*
X177272843Y-76047342D01*
X177394000Y-75926185D01*
X177394000Y-76873815D01*
X177272843Y-76752658D01*
X177079413Y-76623412D01*
X176864485Y-76534386D01*
X176636318Y-76489000D01*
X176403682Y-76489000D01*
X176175515Y-76534386D01*
X175960587Y-76623412D01*
X175767157Y-76752658D01*
X175602658Y-76917157D01*
X175473412Y-77110587D01*
X175384386Y-77325515D01*
X175339000Y-77553682D01*
X175339000Y-77786318D01*
X175384386Y-78014485D01*
X175473412Y-78229413D01*
X175602658Y-78422843D01*
X175767157Y-78587342D01*
X175960587Y-78716588D01*
X176175515Y-78805614D01*
X176403682Y-78851000D01*
X176636318Y-78851000D01*
X176864485Y-78805614D01*
X177079413Y-78716588D01*
X177272843Y-78587342D01*
X177394000Y-78466185D01*
X177394000Y-79413815D01*
X177272843Y-79292658D01*
X177079413Y-79163412D01*
X176864485Y-79074386D01*
X176636318Y-79029000D01*
X176403682Y-79029000D01*
X176175515Y-79074386D01*
X175960587Y-79163412D01*
X175767157Y-79292658D01*
X175602658Y-79457157D01*
X175473412Y-79650587D01*
X175384386Y-79865515D01*
X175339000Y-80093682D01*
X175339000Y-80326318D01*
X175384386Y-80554485D01*
X175473412Y-80769413D01*
X175602658Y-80962843D01*
X175767157Y-81127342D01*
X175960587Y-81256588D01*
X176175515Y-81345614D01*
X176403682Y-81391000D01*
X176636318Y-81391000D01*
X176864485Y-81345614D01*
X177079413Y-81256588D01*
X177272843Y-81127342D01*
X177394000Y-81006185D01*
X177394000Y-81953815D01*
X177272843Y-81832658D01*
X177079413Y-81703412D01*
X176864485Y-81614386D01*
X176636318Y-81569000D01*
X176403682Y-81569000D01*
X176175515Y-81614386D01*
X175960587Y-81703412D01*
X175767157Y-81832658D01*
X175602658Y-81997157D01*
X175473412Y-82190587D01*
X175384386Y-82405515D01*
X175339000Y-82633682D01*
X175339000Y-82866318D01*
X175384386Y-83094485D01*
X175473412Y-83309413D01*
X175602658Y-83502843D01*
X175767157Y-83667342D01*
X175960587Y-83796588D01*
X176175515Y-83885614D01*
X176403682Y-83931000D01*
X176636318Y-83931000D01*
X176864485Y-83885614D01*
X177079413Y-83796588D01*
X177272843Y-83667342D01*
X177394000Y-83546185D01*
X177394000Y-84493815D01*
X177272843Y-84372658D01*
X177079413Y-84243412D01*
X176864485Y-84154386D01*
X176636318Y-84109000D01*
X176403682Y-84109000D01*
X176175515Y-84154386D01*
X175960587Y-84243412D01*
X175767157Y-84372658D01*
X175602658Y-84537157D01*
X175473412Y-84730587D01*
X175384386Y-84945515D01*
X175339000Y-85173682D01*
X175339000Y-85406318D01*
X175384386Y-85634485D01*
X175473412Y-85849413D01*
X175602658Y-86042843D01*
X175767157Y-86207342D01*
X175960587Y-86336588D01*
X176175515Y-86425614D01*
X176403682Y-86471000D01*
X176636318Y-86471000D01*
X176864485Y-86425614D01*
X177079413Y-86336588D01*
X177272843Y-86207342D01*
X177394000Y-86086185D01*
X177394000Y-87033815D01*
X177272843Y-86912658D01*
X177079413Y-86783412D01*
X176864485Y-86694386D01*
X176636318Y-86649000D01*
X176403682Y-86649000D01*
X176175515Y-86694386D01*
X175960587Y-86783412D01*
X175767157Y-86912658D01*
X175602658Y-87077157D01*
X175473412Y-87270587D01*
X175384386Y-87485515D01*
X175339000Y-87713682D01*
X175339000Y-87946318D01*
X175384386Y-88174485D01*
X175473412Y-88389413D01*
X175602658Y-88582843D01*
X175767157Y-88747342D01*
X175960587Y-88876588D01*
X176175515Y-88965614D01*
X176403682Y-89011000D01*
X176636318Y-89011000D01*
X176864485Y-88965614D01*
X177079413Y-88876588D01*
X177272843Y-88747342D01*
X177394000Y-88626185D01*
X177394000Y-89573815D01*
X177272843Y-89452658D01*
X177079413Y-89323412D01*
X176864485Y-89234386D01*
X176636318Y-89189000D01*
X176403682Y-89189000D01*
X176175515Y-89234386D01*
X175960587Y-89323412D01*
X175767157Y-89452658D01*
X175602658Y-89617157D01*
X175473412Y-89810587D01*
X175384386Y-90025515D01*
X175339000Y-90253682D01*
X175339000Y-90486318D01*
X175384386Y-90714485D01*
X175473412Y-90929413D01*
X175602658Y-91122843D01*
X175767157Y-91287342D01*
X175960587Y-91416588D01*
X176175515Y-91505614D01*
X176403682Y-91551000D01*
X176636318Y-91551000D01*
X176864485Y-91505614D01*
X177079413Y-91416588D01*
X177272843Y-91287342D01*
X177394000Y-91166185D01*
X177394000Y-92113815D01*
X177272843Y-91992658D01*
X177079413Y-91863412D01*
X176864485Y-91774386D01*
X176636318Y-91729000D01*
X176403682Y-91729000D01*
X176175515Y-91774386D01*
X175960587Y-91863412D01*
X175767157Y-91992658D01*
X175602658Y-92157157D01*
X175473412Y-92350587D01*
X175384386Y-92565515D01*
X175339000Y-92793682D01*
X175339000Y-93026318D01*
X175384386Y-93254485D01*
X175473412Y-93469413D01*
X175602658Y-93662843D01*
X175767157Y-93827342D01*
X175960587Y-93956588D01*
X176175515Y-94045614D01*
X176403682Y-94091000D01*
X176636318Y-94091000D01*
X176864485Y-94045614D01*
X177079413Y-93956588D01*
X177272843Y-93827342D01*
X177394000Y-93706185D01*
X177394000Y-94653815D01*
X177272843Y-94532658D01*
X177079413Y-94403412D01*
X176864485Y-94314386D01*
X176636318Y-94269000D01*
X176403682Y-94269000D01*
X176175515Y-94314386D01*
X175960587Y-94403412D01*
X175767157Y-94532658D01*
X175602658Y-94697157D01*
X175473412Y-94890587D01*
X175384386Y-95105515D01*
X175339000Y-95333682D01*
X175339000Y-95566318D01*
X175384386Y-95794485D01*
X175473412Y-96009413D01*
X175602658Y-96202843D01*
X175767157Y-96367342D01*
X175960587Y-96496588D01*
X176175515Y-96585614D01*
X176403682Y-96631000D01*
X176636318Y-96631000D01*
X176864485Y-96585614D01*
X177079413Y-96496588D01*
X177272843Y-96367342D01*
X177394000Y-96246185D01*
X177394000Y-97193815D01*
X177272843Y-97072658D01*
X177079413Y-96943412D01*
X176864485Y-96854386D01*
X176636318Y-96809000D01*
X176403682Y-96809000D01*
X176175515Y-96854386D01*
X175960587Y-96943412D01*
X175767157Y-97072658D01*
X175602658Y-97237157D01*
X175506879Y-97380500D01*
X174504239Y-97380500D01*
X174473190Y-97322411D01*
X174394488Y-97226512D01*
X174303220Y-97151611D01*
X174321482Y-97149812D01*
X174441180Y-97113502D01*
X174551494Y-97054537D01*
X174648185Y-96975185D01*
X174727537Y-96878494D01*
X174786502Y-96768180D01*
X174822812Y-96648482D01*
X174835072Y-96524000D01*
X174832000Y-96222250D01*
X174673250Y-96063500D01*
X173599000Y-96063500D01*
X173599000Y-96083500D01*
X173345000Y-96083500D01*
X173345000Y-96063500D01*
X172270750Y-96063500D01*
X172112000Y-96222250D01*
X172111288Y-96292199D01*
X172096508Y-96284299D01*
X172024689Y-96262513D01*
X171950000Y-96255157D01*
X170450000Y-96255157D01*
X170375311Y-96262513D01*
X170303492Y-96284299D01*
X170237304Y-96319678D01*
X170211285Y-96341031D01*
X170180537Y-96283506D01*
X170101185Y-96186815D01*
X170004494Y-96107463D01*
X169894180Y-96048498D01*
X169774482Y-96012188D01*
X169650000Y-95999928D01*
X169185750Y-96003000D01*
X169027000Y-96161750D01*
X169027000Y-97511000D01*
X169047000Y-97511000D01*
X169047000Y-97765000D01*
X169027000Y-97765000D01*
X169027000Y-99114250D01*
X169185750Y-99273000D01*
X169650000Y-99276072D01*
X169774482Y-99263812D01*
X169894180Y-99227502D01*
X170004494Y-99168537D01*
X170101185Y-99089185D01*
X170180537Y-98992494D01*
X170211285Y-98934969D01*
X170237304Y-98956322D01*
X170303492Y-98991701D01*
X170375311Y-99013487D01*
X170450000Y-99020843D01*
X171950000Y-99020843D01*
X172024689Y-99013487D01*
X172096508Y-98991701D01*
X172162696Y-98956322D01*
X172220711Y-98908711D01*
X172268322Y-98850696D01*
X172303701Y-98784508D01*
X172325487Y-98712689D01*
X172332400Y-98642500D01*
X172439761Y-98642500D01*
X172470810Y-98700589D01*
X172549512Y-98796488D01*
X172645411Y-98875190D01*
X172754821Y-98933671D01*
X172873538Y-98969683D01*
X172997000Y-98981843D01*
X173947000Y-98981843D01*
X174070462Y-98969683D01*
X174189179Y-98933671D01*
X174298589Y-98875190D01*
X174394488Y-98796488D01*
X174473190Y-98700589D01*
X174504239Y-98642500D01*
X175535611Y-98642500D01*
X175602658Y-98742843D01*
X175767157Y-98907342D01*
X175960587Y-99036588D01*
X176175515Y-99125614D01*
X176403682Y-99171000D01*
X176636318Y-99171000D01*
X176864485Y-99125614D01*
X177079413Y-99036588D01*
X177272843Y-98907342D01*
X177394000Y-98786185D01*
X177394000Y-99040067D01*
X177392037Y-99060000D01*
X177394000Y-99079933D01*
X177394000Y-99079940D01*
X177399875Y-99139589D01*
X177423090Y-99216120D01*
X177460790Y-99286652D01*
X177511526Y-99348474D01*
X177527024Y-99361193D01*
X179934000Y-101768171D01*
X179934001Y-119360050D01*
X179934000Y-119360060D01*
X179934001Y-121751828D01*
X177631831Y-124054000D01*
X160188171Y-124054000D01*
X157886000Y-121751831D01*
X157886000Y-119800000D01*
X161327157Y-119800000D01*
X161327157Y-121500000D01*
X161334513Y-121574689D01*
X161356299Y-121646508D01*
X161391678Y-121712696D01*
X161439289Y-121770711D01*
X161497304Y-121818322D01*
X161563492Y-121853701D01*
X161635311Y-121875487D01*
X161710000Y-121882843D01*
X163410000Y-121882843D01*
X163484689Y-121875487D01*
X163556508Y-121853701D01*
X163622696Y-121818322D01*
X163680711Y-121770711D01*
X163728322Y-121712696D01*
X163763701Y-121646508D01*
X163785487Y-121574689D01*
X163792843Y-121500000D01*
X163792843Y-120528757D01*
X163869000Y-120528757D01*
X163869000Y-120771243D01*
X163916307Y-121009069D01*
X164009102Y-121233097D01*
X164143820Y-121434717D01*
X164315283Y-121606180D01*
X164516903Y-121740898D01*
X164740931Y-121833693D01*
X164978757Y-121881000D01*
X165221243Y-121881000D01*
X165459069Y-121833693D01*
X165683097Y-121740898D01*
X165884717Y-121606180D01*
X166056180Y-121434717D01*
X166190898Y-121233097D01*
X166283693Y-121009069D01*
X166331000Y-120771243D01*
X166331000Y-120528757D01*
X166409000Y-120528757D01*
X166409000Y-120771243D01*
X166456307Y-121009069D01*
X166549102Y-121233097D01*
X166683820Y-121434717D01*
X166855283Y-121606180D01*
X167056903Y-121740898D01*
X167280931Y-121833693D01*
X167518757Y-121881000D01*
X167761243Y-121881000D01*
X167999069Y-121833693D01*
X168223097Y-121740898D01*
X168424717Y-121606180D01*
X168596180Y-121434717D01*
X168730898Y-121233097D01*
X168823693Y-121009069D01*
X168871000Y-120771243D01*
X168871000Y-120528757D01*
X168949000Y-120528757D01*
X168949000Y-120771243D01*
X168996307Y-121009069D01*
X169089102Y-121233097D01*
X169223820Y-121434717D01*
X169395283Y-121606180D01*
X169596903Y-121740898D01*
X169820931Y-121833693D01*
X170058757Y-121881000D01*
X170301243Y-121881000D01*
X170539069Y-121833693D01*
X170763097Y-121740898D01*
X170964717Y-121606180D01*
X171136180Y-121434717D01*
X171270898Y-121233097D01*
X171318228Y-121118832D01*
X171375843Y-121281252D01*
X171524822Y-121531355D01*
X171719731Y-121747588D01*
X171953080Y-121921641D01*
X172215901Y-122046825D01*
X172363110Y-122091476D01*
X172593000Y-121970155D01*
X172593000Y-120777000D01*
X172573000Y-120777000D01*
X172573000Y-120523000D01*
X172593000Y-120523000D01*
X172593000Y-119329845D01*
X172363110Y-119208524D01*
X172215901Y-119253175D01*
X171953080Y-119378359D01*
X171719731Y-119552412D01*
X171524822Y-119768645D01*
X171375843Y-120018748D01*
X171318228Y-120181168D01*
X171270898Y-120066903D01*
X171136180Y-119865283D01*
X170964717Y-119693820D01*
X170763097Y-119559102D01*
X170539069Y-119466307D01*
X170301243Y-119419000D01*
X170058757Y-119419000D01*
X169820931Y-119466307D01*
X169596903Y-119559102D01*
X169395283Y-119693820D01*
X169223820Y-119865283D01*
X169089102Y-120066903D01*
X168996307Y-120290931D01*
X168949000Y-120528757D01*
X168871000Y-120528757D01*
X168823693Y-120290931D01*
X168730898Y-120066903D01*
X168596180Y-119865283D01*
X168424717Y-119693820D01*
X168223097Y-119559102D01*
X167999069Y-119466307D01*
X167761243Y-119419000D01*
X167518757Y-119419000D01*
X167280931Y-119466307D01*
X167056903Y-119559102D01*
X166855283Y-119693820D01*
X166683820Y-119865283D01*
X166549102Y-120066903D01*
X166456307Y-120290931D01*
X166409000Y-120528757D01*
X166331000Y-120528757D01*
X166283693Y-120290931D01*
X166190898Y-120066903D01*
X166056180Y-119865283D01*
X165884717Y-119693820D01*
X165683097Y-119559102D01*
X165459069Y-119466307D01*
X165221243Y-119419000D01*
X164978757Y-119419000D01*
X164740931Y-119466307D01*
X164516903Y-119559102D01*
X164315283Y-119693820D01*
X164143820Y-119865283D01*
X164009102Y-120066903D01*
X163916307Y-120290931D01*
X163869000Y-120528757D01*
X163792843Y-120528757D01*
X163792843Y-119800000D01*
X163785487Y-119725311D01*
X163763701Y-119653492D01*
X163728322Y-119587304D01*
X163680711Y-119529289D01*
X163622696Y-119481678D01*
X163556508Y-119446299D01*
X163484689Y-119424513D01*
X163410000Y-119417157D01*
X161710000Y-119417157D01*
X161635311Y-119424513D01*
X161563492Y-119446299D01*
X161497304Y-119481678D01*
X161439289Y-119529289D01*
X161391678Y-119587304D01*
X161356299Y-119653492D01*
X161334513Y-119725311D01*
X161327157Y-119800000D01*
X157886000Y-119800000D01*
X157886000Y-118055638D01*
X172287614Y-118055638D01*
X172287614Y-118280144D01*
X172498811Y-118495686D01*
X172595502Y-118575039D01*
X172705816Y-118634003D01*
X172825515Y-118670312D01*
X172949996Y-118682573D01*
X173074477Y-118670312D01*
X173194175Y-118634003D01*
X173304490Y-118575039D01*
X173401181Y-118495686D01*
X173709605Y-118182917D01*
X173709605Y-117958410D01*
X173047223Y-117296028D01*
X172287614Y-118055638D01*
X157886000Y-118055638D01*
X157886000Y-117269633D01*
X163325972Y-117269633D01*
X163325972Y-117494140D01*
X163634396Y-117806909D01*
X163731087Y-117886262D01*
X163841402Y-117945226D01*
X163961100Y-117981535D01*
X164085581Y-117993796D01*
X164210062Y-117981535D01*
X164329761Y-117945226D01*
X164440075Y-117886262D01*
X164536766Y-117806909D01*
X164747963Y-117591367D01*
X164747963Y-117366861D01*
X163988354Y-116607251D01*
X163325972Y-117269633D01*
X157886000Y-117269633D01*
X157886000Y-116330419D01*
X162422204Y-116330419D01*
X162434465Y-116454900D01*
X162470774Y-116574598D01*
X162529738Y-116684913D01*
X162609091Y-116781604D01*
X162921860Y-117090028D01*
X163146367Y-117090028D01*
X163808749Y-116427646D01*
X163049139Y-115668037D01*
X162824633Y-115668037D01*
X162609091Y-115879234D01*
X162529738Y-115975925D01*
X162470774Y-116086239D01*
X162434465Y-116205938D01*
X162422204Y-116330419D01*
X157886000Y-116330419D01*
X157886000Y-103249604D01*
X163867027Y-103249604D01*
X163879288Y-103374085D01*
X163915597Y-103493784D01*
X163974561Y-103604098D01*
X164053914Y-103700789D01*
X164269456Y-103911986D01*
X164493962Y-103911986D01*
X165253572Y-103152377D01*
X164591190Y-102489995D01*
X164366683Y-102489995D01*
X164053914Y-102798419D01*
X163974561Y-102895110D01*
X163915597Y-103005425D01*
X163879288Y-103125123D01*
X163867027Y-103249604D01*
X157886000Y-103249604D01*
X157886000Y-101768169D01*
X160292987Y-99361184D01*
X160308474Y-99348474D01*
X160359210Y-99286653D01*
X160396910Y-99216121D01*
X160420125Y-99139590D01*
X160420261Y-99138207D01*
X160424869Y-99142385D01*
X160666119Y-99287070D01*
X160930960Y-99381909D01*
X161153000Y-99260624D01*
X161153000Y-98117000D01*
X161407000Y-98117000D01*
X161407000Y-99260624D01*
X161629040Y-99381909D01*
X161893881Y-99287070D01*
X162135131Y-99142385D01*
X162343519Y-98953414D01*
X162511037Y-98727420D01*
X162631246Y-98473087D01*
X162671904Y-98339039D01*
X162549915Y-98117000D01*
X161407000Y-98117000D01*
X161153000Y-98117000D01*
X161133000Y-98117000D01*
X161133000Y-97863000D01*
X161153000Y-97863000D01*
X161153000Y-97843000D01*
X161407000Y-97843000D01*
X161407000Y-97863000D01*
X162549915Y-97863000D01*
X162671904Y-97640961D01*
X162631246Y-97506913D01*
X162511037Y-97252580D01*
X162343519Y-97026586D01*
X162135131Y-96837615D01*
X161893881Y-96692930D01*
X161629040Y-96598091D01*
X161407002Y-96719375D01*
X161407002Y-96628875D01*
X161624485Y-96585614D01*
X161773234Y-96524000D01*
X162964928Y-96524000D01*
X162977188Y-96648482D01*
X163013498Y-96768180D01*
X163072463Y-96878494D01*
X163151815Y-96975185D01*
X163248506Y-97054537D01*
X163358820Y-97113502D01*
X163478518Y-97149812D01*
X163496780Y-97151611D01*
X163405512Y-97226512D01*
X163326810Y-97322411D01*
X163268329Y-97431821D01*
X163232317Y-97550538D01*
X163220157Y-97674000D01*
X163220157Y-98349000D01*
X163232317Y-98472462D01*
X163268329Y-98591179D01*
X163326810Y-98700589D01*
X163405512Y-98796488D01*
X163501411Y-98875190D01*
X163610821Y-98933671D01*
X163729538Y-98969683D01*
X163853000Y-98981843D01*
X164803000Y-98981843D01*
X164926462Y-98969683D01*
X165045179Y-98933671D01*
X165154589Y-98875190D01*
X165250488Y-98796488D01*
X165329190Y-98700589D01*
X165360239Y-98642500D01*
X165467600Y-98642500D01*
X165474513Y-98712689D01*
X165496299Y-98784508D01*
X165531678Y-98850696D01*
X165579289Y-98908711D01*
X165637304Y-98956322D01*
X165703492Y-98991701D01*
X165775311Y-99013487D01*
X165850000Y-99020843D01*
X165969000Y-99020843D01*
X165969001Y-101755000D01*
X165968292Y-101762201D01*
X165884898Y-101693761D01*
X165774584Y-101634797D01*
X165654885Y-101598488D01*
X165530404Y-101586227D01*
X165405923Y-101598488D01*
X165286225Y-101634797D01*
X165175910Y-101693761D01*
X165079219Y-101773114D01*
X164770795Y-102085883D01*
X164770795Y-102310390D01*
X165433177Y-102972772D01*
X165447319Y-102958629D01*
X165626925Y-103138235D01*
X165612782Y-103152377D01*
X165626925Y-103166520D01*
X165447320Y-103346125D01*
X165433177Y-103331982D01*
X164673568Y-104091592D01*
X164673568Y-104316098D01*
X164884765Y-104531640D01*
X164981456Y-104610993D01*
X165091770Y-104669957D01*
X165211469Y-104706266D01*
X165335950Y-104718527D01*
X165460431Y-104706266D01*
X165580129Y-104669957D01*
X165690444Y-104610993D01*
X165704629Y-104599352D01*
X165693056Y-104716850D01*
X165705216Y-104840312D01*
X165724336Y-104903342D01*
X163903737Y-106723941D01*
X163879657Y-106743703D01*
X163800804Y-106839786D01*
X163742211Y-106949405D01*
X163706130Y-107068349D01*
X163697000Y-107161049D01*
X163697000Y-107161056D01*
X163693948Y-107192046D01*
X163697000Y-107223036D01*
X163697001Y-113801800D01*
X163693948Y-113832800D01*
X163706130Y-113956497D01*
X163742211Y-114075441D01*
X163800804Y-114185060D01*
X163859897Y-114257065D01*
X163859900Y-114257068D01*
X163879658Y-114281143D01*
X163903733Y-114300901D01*
X164279513Y-114676681D01*
X164260393Y-114739711D01*
X164248233Y-114863173D01*
X164259806Y-114980671D01*
X164245621Y-114969030D01*
X164135306Y-114910066D01*
X164015608Y-114873757D01*
X163891127Y-114861496D01*
X163766646Y-114873757D01*
X163646947Y-114910066D01*
X163536633Y-114969030D01*
X163439942Y-115048383D01*
X163228745Y-115263925D01*
X163228745Y-115488431D01*
X163988354Y-116248041D01*
X164002497Y-116233899D01*
X164182102Y-116413504D01*
X164167959Y-116427646D01*
X164927569Y-117187255D01*
X165152075Y-117187255D01*
X165367617Y-116976058D01*
X165446970Y-116879367D01*
X165505934Y-116769053D01*
X165542243Y-116649354D01*
X165554504Y-116524873D01*
X165542243Y-116400392D01*
X165505934Y-116280694D01*
X165446970Y-116170379D01*
X165435329Y-116156194D01*
X165552827Y-116167767D01*
X165676289Y-116155607D01*
X165742383Y-116135558D01*
X165792116Y-116176373D01*
X165901735Y-116234966D01*
X166020679Y-116271047D01*
X166113379Y-116280177D01*
X166113386Y-116280177D01*
X166144377Y-116283229D01*
X166175367Y-116280177D01*
X170644250Y-116280177D01*
X171035262Y-116671189D01*
X171131161Y-116749891D01*
X171240571Y-116808372D01*
X171359288Y-116844384D01*
X171482750Y-116856544D01*
X171600248Y-116844971D01*
X171588607Y-116859156D01*
X171529643Y-116969471D01*
X171493334Y-117089169D01*
X171481073Y-117213650D01*
X171493334Y-117338131D01*
X171529643Y-117457830D01*
X171588607Y-117568144D01*
X171667960Y-117664835D01*
X171883502Y-117876032D01*
X172108008Y-117876032D01*
X172867618Y-117116423D01*
X173226828Y-117116423D01*
X173889210Y-117778805D01*
X174113717Y-117778805D01*
X174426486Y-117470381D01*
X174505839Y-117373690D01*
X174564803Y-117263375D01*
X174601112Y-117143677D01*
X174613373Y-117019196D01*
X174601112Y-116894715D01*
X174564803Y-116775016D01*
X174505839Y-116664702D01*
X174426486Y-116568011D01*
X174210944Y-116356814D01*
X173986438Y-116356814D01*
X173226828Y-117116423D01*
X172867618Y-117116423D01*
X172853476Y-117102281D01*
X173033081Y-116922676D01*
X173047223Y-116936818D01*
X173806832Y-116177208D01*
X173806832Y-115952702D01*
X173595635Y-115737160D01*
X173498944Y-115657807D01*
X173388630Y-115598843D01*
X173268931Y-115562534D01*
X173144450Y-115550273D01*
X173019969Y-115562534D01*
X172900271Y-115598843D01*
X172789956Y-115657807D01*
X172775771Y-115669448D01*
X172787344Y-115551950D01*
X172775184Y-115428488D01*
X172756064Y-115365458D01*
X174629000Y-113492523D01*
X174629001Y-119591109D01*
X174475283Y-119693820D01*
X174303820Y-119865283D01*
X174169102Y-120066903D01*
X174121772Y-120181168D01*
X174064157Y-120018748D01*
X173915178Y-119768645D01*
X173720269Y-119552412D01*
X173486920Y-119378359D01*
X173224099Y-119253175D01*
X173076890Y-119208524D01*
X172847000Y-119329845D01*
X172847000Y-120523000D01*
X172867000Y-120523000D01*
X172867000Y-120777000D01*
X172847000Y-120777000D01*
X172847000Y-121970155D01*
X173076890Y-122091476D01*
X173224099Y-122046825D01*
X173486920Y-121921641D01*
X173720269Y-121747588D01*
X173915178Y-121531355D01*
X174064157Y-121281252D01*
X174121772Y-121118832D01*
X174169102Y-121233097D01*
X174303820Y-121434717D01*
X174475283Y-121606180D01*
X174676903Y-121740898D01*
X174900931Y-121833693D01*
X175138757Y-121881000D01*
X175381243Y-121881000D01*
X175619069Y-121833693D01*
X175843097Y-121740898D01*
X176044717Y-121606180D01*
X176216180Y-121434717D01*
X176350898Y-121233097D01*
X176443693Y-121009069D01*
X176491000Y-120771243D01*
X176491000Y-120528757D01*
X176443693Y-120290931D01*
X176350898Y-120066903D01*
X176216180Y-119865283D01*
X176044717Y-119693820D01*
X175891000Y-119591110D01*
X175891000Y-113194790D01*
X175894052Y-113163800D01*
X175891000Y-113132809D01*
X175891000Y-113132802D01*
X175881870Y-113040102D01*
X175845789Y-112921158D01*
X175787196Y-112811539D01*
X175708343Y-112715457D01*
X175684264Y-112695696D01*
X175305459Y-112316891D01*
X175285697Y-112292811D01*
X175189615Y-112213958D01*
X175119000Y-112176213D01*
X175119000Y-108219036D01*
X175122052Y-108188046D01*
X175119000Y-108157055D01*
X175119000Y-108157048D01*
X175109870Y-108064348D01*
X175073789Y-107945404D01*
X175015196Y-107835785D01*
X175007246Y-107826098D01*
X174956103Y-107763780D01*
X174956101Y-107763778D01*
X174936343Y-107739703D01*
X174912268Y-107719945D01*
X174534064Y-107341742D01*
X174553184Y-107278712D01*
X174565344Y-107155250D01*
X174553771Y-107037752D01*
X174567956Y-107049393D01*
X174678271Y-107108357D01*
X174797969Y-107144666D01*
X174922450Y-107156927D01*
X175046931Y-107144666D01*
X175166630Y-107108357D01*
X175276944Y-107049393D01*
X175373635Y-106970040D01*
X175584832Y-106754498D01*
X175584832Y-106529992D01*
X174825223Y-105770382D01*
X174811081Y-105784525D01*
X174631476Y-105604920D01*
X174645618Y-105590777D01*
X175004828Y-105590777D01*
X175764438Y-106350386D01*
X175988944Y-106350386D01*
X176204486Y-106139189D01*
X176283839Y-106042498D01*
X176342803Y-105932184D01*
X176379112Y-105812485D01*
X176391373Y-105688004D01*
X176379112Y-105563523D01*
X176342803Y-105443825D01*
X176283839Y-105333510D01*
X176204486Y-105236819D01*
X175891717Y-104928395D01*
X175667210Y-104928395D01*
X175004828Y-105590777D01*
X174645618Y-105590777D01*
X173886008Y-104831168D01*
X173661502Y-104831168D01*
X173445960Y-105042365D01*
X173366607Y-105139056D01*
X173307643Y-105249370D01*
X173271334Y-105369069D01*
X173259073Y-105493550D01*
X173271334Y-105618031D01*
X173307643Y-105737729D01*
X173366607Y-105848044D01*
X173378248Y-105862229D01*
X173260750Y-105850656D01*
X173137288Y-105862816D01*
X173074258Y-105881936D01*
X171619378Y-104427056D01*
X174065614Y-104427056D01*
X174065614Y-104651562D01*
X174825223Y-105411172D01*
X175487605Y-104748790D01*
X175487605Y-104524283D01*
X175179181Y-104211514D01*
X175082490Y-104132161D01*
X174972175Y-104073197D01*
X174852477Y-104036888D01*
X174727996Y-104024627D01*
X174603515Y-104036888D01*
X174483816Y-104073197D01*
X174373502Y-104132161D01*
X174276811Y-104211514D01*
X174065614Y-104427056D01*
X171619378Y-104427056D01*
X171387680Y-104195358D01*
X171367920Y-104171280D01*
X171271838Y-104092427D01*
X171162219Y-104033834D01*
X171043275Y-103997753D01*
X170950575Y-103988623D01*
X170950567Y-103988623D01*
X170919577Y-103985571D01*
X170888587Y-103988623D01*
X168007000Y-103988623D01*
X168007000Y-102592990D01*
X168010052Y-102562000D01*
X168007000Y-102531009D01*
X168007000Y-102531002D01*
X167997870Y-102438302D01*
X167961789Y-102319358D01*
X167903196Y-102209739D01*
X167844535Y-102138261D01*
X167844103Y-102137734D01*
X167844101Y-102137732D01*
X167824343Y-102113657D01*
X167800269Y-102093900D01*
X167231000Y-101524632D01*
X167231000Y-99020843D01*
X167350000Y-99020843D01*
X167424689Y-99013487D01*
X167496508Y-98991701D01*
X167562696Y-98956322D01*
X167588715Y-98934969D01*
X167619463Y-98992494D01*
X167698815Y-99089185D01*
X167795506Y-99168537D01*
X167905820Y-99227502D01*
X168025518Y-99263812D01*
X168150000Y-99276072D01*
X168614250Y-99273000D01*
X168773000Y-99114250D01*
X168773000Y-97765000D01*
X168753000Y-97765000D01*
X168753000Y-97511000D01*
X168773000Y-97511000D01*
X168773000Y-96161750D01*
X168614250Y-96003000D01*
X168150000Y-95999928D01*
X168025518Y-96012188D01*
X167905820Y-96048498D01*
X167795506Y-96107463D01*
X167698815Y-96186815D01*
X167619463Y-96283506D01*
X167588715Y-96341031D01*
X167562696Y-96319678D01*
X167496508Y-96284299D01*
X167424689Y-96262513D01*
X167350000Y-96255157D01*
X165850000Y-96255157D01*
X165775311Y-96262513D01*
X165703492Y-96284299D01*
X165688712Y-96292199D01*
X165688000Y-96222250D01*
X165529250Y-96063500D01*
X164455000Y-96063500D01*
X164455000Y-96083500D01*
X164201000Y-96083500D01*
X164201000Y-96063500D01*
X163126750Y-96063500D01*
X162968000Y-96222250D01*
X162964928Y-96524000D01*
X161773234Y-96524000D01*
X161839413Y-96496588D01*
X162032843Y-96367342D01*
X162197342Y-96202843D01*
X162326588Y-96009413D01*
X162415614Y-95794485D01*
X162461000Y-95566318D01*
X162461000Y-95349000D01*
X162964928Y-95349000D01*
X162968000Y-95650750D01*
X163126750Y-95809500D01*
X164201000Y-95809500D01*
X164201000Y-94872750D01*
X164455000Y-94872750D01*
X164455000Y-95809500D01*
X165529250Y-95809500D01*
X165688000Y-95650750D01*
X165691072Y-95349000D01*
X172108928Y-95349000D01*
X172112000Y-95650750D01*
X172270750Y-95809500D01*
X173345000Y-95809500D01*
X173345000Y-94872750D01*
X173599000Y-94872750D01*
X173599000Y-95809500D01*
X174673250Y-95809500D01*
X174832000Y-95650750D01*
X174835072Y-95349000D01*
X174822812Y-95224518D01*
X174786502Y-95104820D01*
X174727537Y-94994506D01*
X174648185Y-94897815D01*
X174551494Y-94818463D01*
X174441180Y-94759498D01*
X174321482Y-94723188D01*
X174197000Y-94710928D01*
X173757750Y-94714000D01*
X173599000Y-94872750D01*
X173345000Y-94872750D01*
X173186250Y-94714000D01*
X172747000Y-94710928D01*
X172622518Y-94723188D01*
X172502820Y-94759498D01*
X172392506Y-94818463D01*
X172295815Y-94897815D01*
X172216463Y-94994506D01*
X172157498Y-95104820D01*
X172121188Y-95224518D01*
X172108928Y-95349000D01*
X165691072Y-95349000D01*
X165678812Y-95224518D01*
X165642502Y-95104820D01*
X165583537Y-94994506D01*
X165504185Y-94897815D01*
X165407494Y-94818463D01*
X165297180Y-94759498D01*
X165177482Y-94723188D01*
X165053000Y-94710928D01*
X164613750Y-94714000D01*
X164455000Y-94872750D01*
X164201000Y-94872750D01*
X164042250Y-94714000D01*
X163603000Y-94710928D01*
X163478518Y-94723188D01*
X163358820Y-94759498D01*
X163248506Y-94818463D01*
X163151815Y-94897815D01*
X163072463Y-94994506D01*
X163013498Y-95104820D01*
X162977188Y-95224518D01*
X162964928Y-95349000D01*
X162461000Y-95349000D01*
X162461000Y-95333682D01*
X162415614Y-95105515D01*
X162326588Y-94890587D01*
X162197342Y-94697157D01*
X162032843Y-94532658D01*
X161839413Y-94403412D01*
X161624485Y-94314386D01*
X161396318Y-94269000D01*
X161163682Y-94269000D01*
X160935515Y-94314386D01*
X160720587Y-94403412D01*
X160527157Y-94532658D01*
X160426000Y-94633815D01*
X160426000Y-93726185D01*
X160527157Y-93827342D01*
X160720587Y-93956588D01*
X160935515Y-94045614D01*
X161163682Y-94091000D01*
X161396318Y-94091000D01*
X161624485Y-94045614D01*
X161839413Y-93956588D01*
X162032843Y-93827342D01*
X162197342Y-93662843D01*
X162326588Y-93469413D01*
X162415614Y-93254485D01*
X162461000Y-93026318D01*
X162461000Y-92793682D01*
X162415614Y-92565515D01*
X162326588Y-92350587D01*
X162318178Y-92338000D01*
X166361928Y-92338000D01*
X166374188Y-92462482D01*
X166410498Y-92582180D01*
X166469463Y-92692494D01*
X166548815Y-92789185D01*
X166645506Y-92868537D01*
X166755820Y-92927502D01*
X166875518Y-92963812D01*
X167000000Y-92976072D01*
X168614250Y-92973000D01*
X168773000Y-92814250D01*
X168773000Y-91465000D01*
X169027000Y-91465000D01*
X169027000Y-92814250D01*
X169185750Y-92973000D01*
X170800000Y-92976072D01*
X170924482Y-92963812D01*
X171044180Y-92927502D01*
X171154494Y-92868537D01*
X171251185Y-92789185D01*
X171330537Y-92692494D01*
X171389502Y-92582180D01*
X171425812Y-92462482D01*
X171438072Y-92338000D01*
X171435000Y-91623750D01*
X171276250Y-91465000D01*
X169027000Y-91465000D01*
X168773000Y-91465000D01*
X166523750Y-91465000D01*
X166365000Y-91623750D01*
X166361928Y-92338000D01*
X162318178Y-92338000D01*
X162197342Y-92157157D01*
X162032843Y-91992658D01*
X161839413Y-91863412D01*
X161624485Y-91774386D01*
X161396318Y-91729000D01*
X161163682Y-91729000D01*
X160935515Y-91774386D01*
X160720587Y-91863412D01*
X160527157Y-91992658D01*
X160426000Y-92093815D01*
X160426000Y-91186185D01*
X160527157Y-91287342D01*
X160720587Y-91416588D01*
X160935515Y-91505614D01*
X161163682Y-91551000D01*
X161396318Y-91551000D01*
X161624485Y-91505614D01*
X161839413Y-91416588D01*
X162032843Y-91287342D01*
X162197342Y-91122843D01*
X162326588Y-90929413D01*
X162415614Y-90714485D01*
X162461000Y-90486318D01*
X162461000Y-90338000D01*
X166361928Y-90338000D01*
X166365000Y-91052250D01*
X166523750Y-91211000D01*
X168773000Y-91211000D01*
X168773000Y-89861750D01*
X169027000Y-89861750D01*
X169027000Y-91211000D01*
X171276250Y-91211000D01*
X171435000Y-91052250D01*
X171438072Y-90338000D01*
X171425812Y-90213518D01*
X171389502Y-90093820D01*
X171330537Y-89983506D01*
X171251185Y-89886815D01*
X171154494Y-89807463D01*
X171044180Y-89748498D01*
X170924482Y-89712188D01*
X170800000Y-89699928D01*
X169185750Y-89703000D01*
X169027000Y-89861750D01*
X168773000Y-89861750D01*
X168614250Y-89703000D01*
X167000000Y-89699928D01*
X166875518Y-89712188D01*
X166755820Y-89748498D01*
X166645506Y-89807463D01*
X166548815Y-89886815D01*
X166469463Y-89983506D01*
X166410498Y-90093820D01*
X166374188Y-90213518D01*
X166361928Y-90338000D01*
X162461000Y-90338000D01*
X162461000Y-90253682D01*
X162415614Y-90025515D01*
X162326588Y-89810587D01*
X162197342Y-89617157D01*
X162032843Y-89452658D01*
X161839413Y-89323412D01*
X161624485Y-89234386D01*
X161396318Y-89189000D01*
X161163682Y-89189000D01*
X160935515Y-89234386D01*
X160720587Y-89323412D01*
X160527157Y-89452658D01*
X160426000Y-89553815D01*
X160426000Y-88646185D01*
X160527157Y-88747342D01*
X160720587Y-88876588D01*
X160935515Y-88965614D01*
X161163682Y-89011000D01*
X161396318Y-89011000D01*
X161624485Y-88965614D01*
X161839413Y-88876588D01*
X162032843Y-88747342D01*
X162197342Y-88582843D01*
X162326588Y-88389413D01*
X162415614Y-88174485D01*
X162461000Y-87946318D01*
X162461000Y-87713682D01*
X162415614Y-87485515D01*
X162326588Y-87270587D01*
X162197342Y-87077157D01*
X162032843Y-86912658D01*
X161839413Y-86783412D01*
X161624485Y-86694386D01*
X161396318Y-86649000D01*
X161163682Y-86649000D01*
X160935515Y-86694386D01*
X160720587Y-86783412D01*
X160527157Y-86912658D01*
X160426000Y-87013815D01*
X160426000Y-86106185D01*
X160527157Y-86207342D01*
X160720587Y-86336588D01*
X160935515Y-86425614D01*
X161163682Y-86471000D01*
X161396318Y-86471000D01*
X161624485Y-86425614D01*
X161839413Y-86336588D01*
X162032843Y-86207342D01*
X162197342Y-86042843D01*
X162326588Y-85849413D01*
X162415614Y-85634485D01*
X162461000Y-85406318D01*
X162461000Y-85173682D01*
X162415614Y-84945515D01*
X162326588Y-84730587D01*
X162197342Y-84537157D01*
X162032843Y-84372658D01*
X161839413Y-84243412D01*
X161624485Y-84154386D01*
X161396318Y-84109000D01*
X161163682Y-84109000D01*
X160935515Y-84154386D01*
X160720587Y-84243412D01*
X160527157Y-84372658D01*
X160426000Y-84473815D01*
X160426000Y-83566185D01*
X160527157Y-83667342D01*
X160720587Y-83796588D01*
X160935515Y-83885614D01*
X161163682Y-83931000D01*
X161396318Y-83931000D01*
X161624485Y-83885614D01*
X161839413Y-83796588D01*
X162032843Y-83667342D01*
X162197342Y-83502843D01*
X162326588Y-83309413D01*
X162415614Y-83094485D01*
X162461000Y-82866318D01*
X162461000Y-82633682D01*
X162415614Y-82405515D01*
X162326588Y-82190587D01*
X162197342Y-81997157D01*
X162032843Y-81832658D01*
X161839413Y-81703412D01*
X161624485Y-81614386D01*
X161396318Y-81569000D01*
X161163682Y-81569000D01*
X160935515Y-81614386D01*
X160720587Y-81703412D01*
X160527157Y-81832658D01*
X160426000Y-81933815D01*
X160426000Y-81026185D01*
X160527157Y-81127342D01*
X160720587Y-81256588D01*
X160935515Y-81345614D01*
X161163682Y-81391000D01*
X161396318Y-81391000D01*
X161624485Y-81345614D01*
X161839413Y-81256588D01*
X162032843Y-81127342D01*
X162197342Y-80962843D01*
X162326588Y-80769413D01*
X162415614Y-80554485D01*
X162461000Y-80326318D01*
X162461000Y-80093682D01*
X162415614Y-79865515D01*
X162326588Y-79650587D01*
X162197342Y-79457157D01*
X162032843Y-79292658D01*
X161839413Y-79163412D01*
X161624485Y-79074386D01*
X161396318Y-79029000D01*
X161163682Y-79029000D01*
X160935515Y-79074386D01*
X160720587Y-79163412D01*
X160527157Y-79292658D01*
X160426000Y-79393815D01*
X160426000Y-78486185D01*
X160527157Y-78587342D01*
X160720587Y-78716588D01*
X160935515Y-78805614D01*
X161163682Y-78851000D01*
X161396318Y-78851000D01*
X161624485Y-78805614D01*
X161839413Y-78716588D01*
X162032843Y-78587342D01*
X162197342Y-78422843D01*
X162326588Y-78229413D01*
X162415614Y-78014485D01*
X162461000Y-77786318D01*
X162461000Y-77553682D01*
X162415614Y-77325515D01*
X162326588Y-77110587D01*
X162197342Y-76917157D01*
X162032843Y-76752658D01*
X161839413Y-76623412D01*
X161624485Y-76534386D01*
X161396318Y-76489000D01*
X161163682Y-76489000D01*
X160935515Y-76534386D01*
X160720587Y-76623412D01*
X160527157Y-76752658D01*
X160426000Y-76853815D01*
X160426000Y-75946185D01*
X160527157Y-76047342D01*
X160720587Y-76176588D01*
X160935515Y-76265614D01*
X161163682Y-76311000D01*
X161396318Y-76311000D01*
X161624485Y-76265614D01*
X161839413Y-76176588D01*
X162032843Y-76047342D01*
X162197342Y-75882843D01*
X162326588Y-75689413D01*
X162415614Y-75474485D01*
X162461000Y-75246318D01*
X162461000Y-75013682D01*
X162415614Y-74785515D01*
X162326588Y-74570587D01*
X162197342Y-74377157D01*
X162032843Y-74212658D01*
X161839413Y-74083412D01*
X161624485Y-73994386D01*
X161396318Y-73949000D01*
X161163682Y-73949000D01*
X160935515Y-73994386D01*
X160720587Y-74083412D01*
X160527157Y-74212658D01*
X160426000Y-74313815D01*
X160426000Y-73406185D01*
X160527157Y-73507342D01*
X160720587Y-73636588D01*
X160935515Y-73725614D01*
X161163682Y-73771000D01*
X161396318Y-73771000D01*
X161624485Y-73725614D01*
X161839413Y-73636588D01*
X162032843Y-73507342D01*
X162197342Y-73342843D01*
X162326588Y-73149413D01*
X162415614Y-72934485D01*
X162461000Y-72706318D01*
X162461000Y-72473682D01*
X162415614Y-72245515D01*
X162326588Y-72030587D01*
X162197342Y-71837157D01*
X162032843Y-71672658D01*
X161839413Y-71543412D01*
X161624485Y-71454386D01*
X161396318Y-71409000D01*
X161163682Y-71409000D01*
X160935515Y-71454386D01*
X160720587Y-71543412D01*
X160527157Y-71672658D01*
X160426000Y-71773815D01*
X160426000Y-70866185D01*
X160527157Y-70967342D01*
X160720587Y-71096588D01*
X160935515Y-71185614D01*
X161163682Y-71231000D01*
X161396318Y-71231000D01*
X161624485Y-71185614D01*
X161839413Y-71096588D01*
X162032843Y-70967342D01*
X162197342Y-70802843D01*
X162326588Y-70609413D01*
X162415614Y-70394485D01*
X162461000Y-70166318D01*
X162461000Y-69933682D01*
X162415614Y-69705515D01*
X162326588Y-69490587D01*
X162197342Y-69297157D01*
X162032843Y-69132658D01*
X161839413Y-69003412D01*
X161624485Y-68914386D01*
X161396318Y-68869000D01*
X161163682Y-68869000D01*
X160935515Y-68914386D01*
X160720587Y-69003412D01*
X160527157Y-69132658D01*
X160426000Y-69233815D01*
X160426000Y-68326185D01*
X160527157Y-68427342D01*
X160720587Y-68556588D01*
X160935515Y-68645614D01*
X161163682Y-68691000D01*
X161396318Y-68691000D01*
X161624485Y-68645614D01*
X161839413Y-68556588D01*
X162032843Y-68427342D01*
X162197342Y-68262843D01*
X162326588Y-68069413D01*
X162415614Y-67854485D01*
X162461000Y-67626318D01*
X162461000Y-67393682D01*
X162415614Y-67165515D01*
X162326588Y-66950587D01*
X162197342Y-66757157D01*
X162032843Y-66592658D01*
X161839413Y-66463412D01*
X161624485Y-66374386D01*
X161396318Y-66329000D01*
X161163682Y-66329000D01*
X160935515Y-66374386D01*
X160720587Y-66463412D01*
X160527157Y-66592658D01*
X160426000Y-66693815D01*
X160426000Y-65786185D01*
X160527157Y-65887342D01*
X160720587Y-66016588D01*
X160935515Y-66105614D01*
X161163682Y-66151000D01*
X161396318Y-66151000D01*
X161624485Y-66105614D01*
X161839413Y-66016588D01*
X162032843Y-65887342D01*
X162197342Y-65722843D01*
X162326588Y-65529413D01*
X162415614Y-65314485D01*
X162461000Y-65086318D01*
X162461000Y-64853682D01*
X162415614Y-64625515D01*
X162326588Y-64410587D01*
X162197342Y-64217157D01*
X162032843Y-64052658D01*
X161839413Y-63923412D01*
X161624485Y-63834386D01*
X161396318Y-63789000D01*
X161163682Y-63789000D01*
X160935515Y-63834386D01*
X160720587Y-63923412D01*
X160527157Y-64052658D01*
X160426000Y-64153815D01*
X160426000Y-63246185D01*
X160527157Y-63347342D01*
X160720587Y-63476588D01*
X160935515Y-63565614D01*
X161163682Y-63611000D01*
X161396318Y-63611000D01*
X161624485Y-63565614D01*
X161839413Y-63476588D01*
X162032843Y-63347342D01*
X162197342Y-63182843D01*
X162326588Y-62989413D01*
X162415614Y-62774485D01*
X162461000Y-62546318D01*
X162461000Y-62313682D01*
X162415614Y-62085515D01*
X162326588Y-61870587D01*
X162197342Y-61677157D01*
X162032843Y-61512658D01*
X161839413Y-61383412D01*
X161624485Y-61294386D01*
X161396318Y-61249000D01*
X161163682Y-61249000D01*
X160935515Y-61294386D01*
X160720587Y-61383412D01*
X160527157Y-61512658D01*
X160426000Y-61613815D01*
X160426000Y-60706185D01*
X160527157Y-60807342D01*
X160720587Y-60936588D01*
X160935515Y-61025614D01*
X161163682Y-61071000D01*
X161396318Y-61071000D01*
X161624485Y-61025614D01*
X161839413Y-60936588D01*
X162032843Y-60807342D01*
X162197342Y-60642843D01*
X162326588Y-60449413D01*
X162415614Y-60234485D01*
X162461000Y-60006318D01*
X162461000Y-59773682D01*
X162415614Y-59545515D01*
X162326588Y-59330587D01*
X162197342Y-59137157D01*
X162032843Y-58972658D01*
X161839413Y-58843412D01*
X161624485Y-58754386D01*
X161396318Y-58709000D01*
X161163682Y-58709000D01*
X160935515Y-58754386D01*
X160720587Y-58843412D01*
X160527157Y-58972658D01*
X160426000Y-59073815D01*
X160426000Y-58166185D01*
X160527157Y-58267342D01*
X160720587Y-58396588D01*
X160935515Y-58485614D01*
X161163682Y-58531000D01*
X161396318Y-58531000D01*
X161624485Y-58485614D01*
X161839413Y-58396588D01*
X162032843Y-58267342D01*
X162197342Y-58102843D01*
X162326588Y-57909413D01*
X162415614Y-57694485D01*
X162461000Y-57466318D01*
X162461000Y-57233682D01*
X162415614Y-57005515D01*
X162326588Y-56790587D01*
X162197342Y-56597157D01*
X162032843Y-56432658D01*
X161839413Y-56303412D01*
X161624485Y-56214386D01*
X161396318Y-56169000D01*
X161163682Y-56169000D01*
X160935515Y-56214386D01*
X160720587Y-56303412D01*
X160527157Y-56432658D01*
X160426000Y-56533815D01*
X160426000Y-55626185D01*
X160527157Y-55727342D01*
X160720587Y-55856588D01*
X160935515Y-55945614D01*
X161163682Y-55991000D01*
X161396318Y-55991000D01*
X161624485Y-55945614D01*
X161839413Y-55856588D01*
X162032843Y-55727342D01*
X162197342Y-55562843D01*
X162326588Y-55369413D01*
X162415614Y-55154485D01*
X162461000Y-54926318D01*
X162461000Y-54693682D01*
X162415614Y-54465515D01*
X162326588Y-54250587D01*
X162197342Y-54057157D01*
X162032843Y-53892658D01*
X161839413Y-53763412D01*
X161624485Y-53674386D01*
X161396318Y-53629000D01*
X161163682Y-53629000D01*
X160935515Y-53674386D01*
X160720587Y-53763412D01*
X160527157Y-53892658D01*
X160426000Y-53993815D01*
X160426000Y-53086185D01*
X160527157Y-53187342D01*
X160720587Y-53316588D01*
X160935515Y-53405614D01*
X161163682Y-53451000D01*
X161396318Y-53451000D01*
X161624485Y-53405614D01*
X161839413Y-53316588D01*
X162032843Y-53187342D01*
X162197342Y-53022843D01*
X162326588Y-52829413D01*
X162415614Y-52614485D01*
X162461000Y-52386318D01*
X162461000Y-52153682D01*
X162415614Y-51925515D01*
X162326588Y-51710587D01*
X162197342Y-51517157D01*
X162032843Y-51352658D01*
X161839413Y-51223412D01*
X161624485Y-51134386D01*
X161396318Y-51089000D01*
X161163682Y-51089000D01*
X160935515Y-51134386D01*
X160720587Y-51223412D01*
X160527157Y-51352658D01*
X160426000Y-51453815D01*
X160426000Y-50546185D01*
X160527157Y-50647342D01*
X160720587Y-50776588D01*
X160935515Y-50865614D01*
X161163682Y-50911000D01*
X161396318Y-50911000D01*
X161624485Y-50865614D01*
X161839413Y-50776588D01*
X162032843Y-50647342D01*
X162197342Y-50482843D01*
X162326588Y-50289413D01*
X162415614Y-50074485D01*
X162461000Y-49846318D01*
X162461000Y-49613682D01*
X162415614Y-49385515D01*
X162326588Y-49170587D01*
X162197342Y-48977157D01*
X162032843Y-48812658D01*
X161839413Y-48683412D01*
X161624485Y-48594386D01*
X161396318Y-48549000D01*
X161163682Y-48549000D01*
X160935515Y-48594386D01*
X160720587Y-48683412D01*
X160527157Y-48812658D01*
X160426000Y-48913815D01*
X160426000Y-48006185D01*
X160527157Y-48107342D01*
X160720587Y-48236588D01*
X160935515Y-48325614D01*
X161163682Y-48371000D01*
X161396318Y-48371000D01*
X161624485Y-48325614D01*
X161839413Y-48236588D01*
X162032843Y-48107342D01*
X162197342Y-47942843D01*
X162326588Y-47749413D01*
X162415614Y-47534485D01*
X162461000Y-47306318D01*
X162461000Y-47073682D01*
X162415614Y-46845515D01*
X162326588Y-46630587D01*
X162197342Y-46437157D01*
X162032843Y-46272658D01*
X161839413Y-46143412D01*
X161624485Y-46054386D01*
X161396318Y-46009000D01*
X161163682Y-46009000D01*
X160935515Y-46054386D01*
X160720587Y-46143412D01*
X160527157Y-46272658D01*
X160426000Y-46373815D01*
X160426000Y-45466185D01*
X160527157Y-45567342D01*
X160720587Y-45696588D01*
X160935515Y-45785614D01*
X161163682Y-45831000D01*
X161396318Y-45831000D01*
X161624485Y-45785614D01*
X161839413Y-45696588D01*
X162032843Y-45567342D01*
X162197342Y-45402843D01*
X162326588Y-45209413D01*
X162415614Y-44994485D01*
X162461000Y-44766318D01*
X162461000Y-44533682D01*
X162415614Y-44305515D01*
X162326588Y-44090587D01*
X162197342Y-43897157D01*
X162032843Y-43732658D01*
X161839413Y-43603412D01*
X161624485Y-43514386D01*
X161396318Y-43469000D01*
X161163682Y-43469000D01*
X160935515Y-43514386D01*
X160720587Y-43603412D01*
X160527157Y-43732658D01*
X160426000Y-43833815D01*
X160426000Y-42926185D01*
X160527157Y-43027342D01*
X160720587Y-43156588D01*
X160935515Y-43245614D01*
X161163682Y-43291000D01*
X161396318Y-43291000D01*
X161624485Y-43245614D01*
X161839413Y-43156588D01*
X162032843Y-43027342D01*
X162197342Y-42862843D01*
X162326588Y-42669413D01*
X162415614Y-42454485D01*
X162461000Y-42226318D01*
X162461000Y-41993682D01*
X162415614Y-41765515D01*
X162326588Y-41550587D01*
X162197342Y-41357157D01*
X162032843Y-41192658D01*
X161839413Y-41063412D01*
X161700335Y-41005804D01*
X162080000Y-41008072D01*
X162204482Y-40995812D01*
X162324180Y-40959502D01*
X162434494Y-40900537D01*
X162531185Y-40821185D01*
X162610537Y-40724494D01*
X162669502Y-40614180D01*
X162705812Y-40494482D01*
X162718072Y-40370000D01*
X162715000Y-39855750D01*
X162556250Y-39697000D01*
X161407000Y-39697000D01*
X161407000Y-39717000D01*
X161153000Y-39717000D01*
X161153000Y-39697000D01*
X161133000Y-39697000D01*
X161133000Y-39443000D01*
X161153000Y-39443000D01*
X161153000Y-39423000D01*
X161407000Y-39423000D01*
X161407000Y-39443000D01*
X162556250Y-39443000D01*
X162715000Y-39284250D01*
X162718072Y-38770000D01*
X162705812Y-38645518D01*
X162669502Y-38525820D01*
X162658908Y-38506000D01*
X176002623Y-38506000D01*
X175960587Y-38523412D01*
G37*
%TD.AperFunction*%
D18*
X172181890Y-106774304D02*
X172162770Y-106837334D01*
X172150610Y-106960796D01*
X172162770Y-107084258D01*
X172198782Y-107202975D01*
X172213400Y-107230324D01*
X172146858Y-107257887D01*
X172018941Y-107343358D01*
X171910158Y-107452141D01*
X171824687Y-107580058D01*
X171765813Y-107722191D01*
X171735800Y-107873078D01*
X171735800Y-108026922D01*
X171765813Y-108177809D01*
X171824687Y-108319942D01*
X171910158Y-108447859D01*
X172018941Y-108556642D01*
X172146858Y-108642113D01*
X172288991Y-108700987D01*
X172439878Y-108731000D01*
X172593722Y-108731000D01*
X172744609Y-108700987D01*
X172886742Y-108642113D01*
X173014659Y-108556642D01*
X173123442Y-108447859D01*
X173208913Y-108319942D01*
X173247172Y-108227576D01*
X173331742Y-108253230D01*
X173455204Y-108265390D01*
X173578666Y-108253230D01*
X173641696Y-108234110D01*
X173857001Y-108449416D01*
X173857000Y-112479785D01*
X171863696Y-114473090D01*
X171800666Y-114453970D01*
X171677204Y-114441810D01*
X171553742Y-114453970D01*
X171435025Y-114489982D01*
X171394736Y-114511517D01*
X171388187Y-114478591D01*
X171329313Y-114336458D01*
X171243842Y-114208541D01*
X171135059Y-114099758D01*
X171007142Y-114014287D01*
X170865009Y-113955413D01*
X170714122Y-113925400D01*
X170560278Y-113925400D01*
X170409391Y-113955413D01*
X170267258Y-114014287D01*
X170139341Y-114099758D01*
X170030558Y-114208541D01*
X169945087Y-114336458D01*
X169886213Y-114478591D01*
X169856200Y-114629478D01*
X169856200Y-114783322D01*
X169886213Y-114934209D01*
X169920994Y-115018177D01*
X166659081Y-115018177D01*
X166650807Y-114934165D01*
X166621614Y-114837927D01*
X166739942Y-114788913D01*
X166867859Y-114703442D01*
X166976642Y-114594659D01*
X167062113Y-114466742D01*
X167120987Y-114324609D01*
X167151000Y-114173722D01*
X167151000Y-114019878D01*
X167120987Y-113868991D01*
X167062113Y-113726858D01*
X166976642Y-113598941D01*
X166867859Y-113490158D01*
X166739942Y-113404687D01*
X166597809Y-113345813D01*
X166446922Y-113315800D01*
X166293078Y-113315800D01*
X166142191Y-113345813D01*
X166000058Y-113404687D01*
X165872141Y-113490158D01*
X165763358Y-113598941D01*
X165677887Y-113726858D01*
X165638655Y-113821572D01*
X165600552Y-113801205D01*
X165481835Y-113765193D01*
X165358373Y-113753033D01*
X165234911Y-113765193D01*
X165171881Y-113784313D01*
X164959000Y-113571432D01*
X164959000Y-107453414D01*
X166616704Y-105795710D01*
X166679734Y-105814830D01*
X166803196Y-105826990D01*
X166926658Y-105814830D01*
X167045375Y-105778818D01*
X167085664Y-105757283D01*
X167092213Y-105790209D01*
X167151087Y-105932342D01*
X167236558Y-106060259D01*
X167345341Y-106169042D01*
X167473258Y-106254513D01*
X167615391Y-106313387D01*
X167766278Y-106343400D01*
X167920122Y-106343400D01*
X168071009Y-106313387D01*
X168213142Y-106254513D01*
X168341059Y-106169042D01*
X168449842Y-106060259D01*
X168535313Y-105932342D01*
X168594187Y-105790209D01*
X168624200Y-105639322D01*
X168624200Y-105485478D01*
X168594187Y-105334591D01*
X168559406Y-105250623D01*
X170658209Y-105250623D01*
X172181890Y-106774304D01*
%TA.AperFunction,Conductor*%
D19*
G36*
X172181890Y-106774304D02*
G01*
X172162770Y-106837334D01*
X172150610Y-106960796D01*
X172162770Y-107084258D01*
X172198782Y-107202975D01*
X172213400Y-107230324D01*
X172146858Y-107257887D01*
X172018941Y-107343358D01*
X171910158Y-107452141D01*
X171824687Y-107580058D01*
X171765813Y-107722191D01*
X171735800Y-107873078D01*
X171735800Y-108026922D01*
X171765813Y-108177809D01*
X171824687Y-108319942D01*
X171910158Y-108447859D01*
X172018941Y-108556642D01*
X172146858Y-108642113D01*
X172288991Y-108700987D01*
X172439878Y-108731000D01*
X172593722Y-108731000D01*
X172744609Y-108700987D01*
X172886742Y-108642113D01*
X173014659Y-108556642D01*
X173123442Y-108447859D01*
X173208913Y-108319942D01*
X173247172Y-108227576D01*
X173331742Y-108253230D01*
X173455204Y-108265390D01*
X173578666Y-108253230D01*
X173641696Y-108234110D01*
X173857001Y-108449416D01*
X173857000Y-112479785D01*
X171863696Y-114473090D01*
X171800666Y-114453970D01*
X171677204Y-114441810D01*
X171553742Y-114453970D01*
X171435025Y-114489982D01*
X171394736Y-114511517D01*
X171388187Y-114478591D01*
X171329313Y-114336458D01*
X171243842Y-114208541D01*
X171135059Y-114099758D01*
X171007142Y-114014287D01*
X170865009Y-113955413D01*
X170714122Y-113925400D01*
X170560278Y-113925400D01*
X170409391Y-113955413D01*
X170267258Y-114014287D01*
X170139341Y-114099758D01*
X170030558Y-114208541D01*
X169945087Y-114336458D01*
X169886213Y-114478591D01*
X169856200Y-114629478D01*
X169856200Y-114783322D01*
X169886213Y-114934209D01*
X169920994Y-115018177D01*
X166659081Y-115018177D01*
X166650807Y-114934165D01*
X166621614Y-114837927D01*
X166739942Y-114788913D01*
X166867859Y-114703442D01*
X166976642Y-114594659D01*
X167062113Y-114466742D01*
X167120987Y-114324609D01*
X167151000Y-114173722D01*
X167151000Y-114019878D01*
X167120987Y-113868991D01*
X167062113Y-113726858D01*
X166976642Y-113598941D01*
X166867859Y-113490158D01*
X166739942Y-113404687D01*
X166597809Y-113345813D01*
X166446922Y-113315800D01*
X166293078Y-113315800D01*
X166142191Y-113345813D01*
X166000058Y-113404687D01*
X165872141Y-113490158D01*
X165763358Y-113598941D01*
X165677887Y-113726858D01*
X165638655Y-113821572D01*
X165600552Y-113801205D01*
X165481835Y-113765193D01*
X165358373Y-113753033D01*
X165234911Y-113765193D01*
X165171881Y-113784313D01*
X164959000Y-113571432D01*
X164959000Y-107453414D01*
X166616704Y-105795710D01*
X166679734Y-105814830D01*
X166803196Y-105826990D01*
X166926658Y-105814830D01*
X167045375Y-105778818D01*
X167085664Y-105757283D01*
X167092213Y-105790209D01*
X167151087Y-105932342D01*
X167236558Y-106060259D01*
X167345341Y-106169042D01*
X167473258Y-106254513D01*
X167615391Y-106313387D01*
X167766278Y-106343400D01*
X167920122Y-106343400D01*
X168071009Y-106313387D01*
X168213142Y-106254513D01*
X168341059Y-106169042D01*
X168449842Y-106060259D01*
X168535313Y-105932342D01*
X168594187Y-105790209D01*
X168624200Y-105639322D01*
X168624200Y-105485478D01*
X168594187Y-105334591D01*
X168559406Y-105250623D01*
X170658209Y-105250623D01*
X172181890Y-106774304D01*
G37*
%TD.AperFunction*%
%TD*%
M02*
