%TF.GenerationSoftware,KiCad,Pcbnew,(6.0.0)*%
%TF.CreationDate,2022-03-26T20:17:56+01:00*%
%TF.ProjectId,Bluster,426c7573-7465-4722-9e6b-696361645f70,rev?*%
%TF.SameCoordinates,Original*%
%TF.FileFunction,Soldermask,Bot*%
%TF.FilePolarity,Negative*%
%FSLAX46Y46*%
G04 Gerber Fmt 4.6, Leading zero omitted, Abs format (unit mm)*
G04 Created by KiCad (PCBNEW (6.0.0)) date 2022-03-26 20:17:56*
%MOMM*%
%LPD*%
G01*
G04 APERTURE LIST*
G04 Aperture macros list*
%AMRoundRect*
0 Rectangle with rounded corners*
0 $1 Rounding radius*
0 $2 $3 $4 $5 $6 $7 $8 $9 X,Y pos of 4 corners*
0 Add a 4 corners polygon primitive as box body*
4,1,4,$2,$3,$4,$5,$6,$7,$8,$9,$2,$3,0*
0 Add four circle primitives for the rounded corners*
1,1,$1+$1,$2,$3*
1,1,$1+$1,$4,$5*
1,1,$1+$1,$6,$7*
1,1,$1+$1,$8,$9*
0 Add four rect primitives between the rounded corners*
20,1,$1+$1,$2,$3,$4,$5,0*
20,1,$1+$1,$4,$5,$6,$7,0*
20,1,$1+$1,$6,$7,$8,$9,0*
20,1,$1+$1,$8,$9,$2,$3,0*%
G04 Aperture macros list end*
%ADD10R,1.200000X1.200000*%
%ADD11O,1.200000X1.200000*%
%ADD12R,1.700000X1.700000*%
%ADD13O,1.700000X1.700000*%
%ADD14RoundRect,0.250000X0.337500X0.475000X-0.337500X0.475000X-0.337500X-0.475000X0.337500X-0.475000X0*%
%ADD15RoundRect,0.250000X-0.337500X-0.475000X0.337500X-0.475000X0.337500X0.475000X-0.337500X0.475000X0*%
%ADD16RoundRect,0.250000X-0.097227X0.574524X-0.574524X0.097227X0.097227X-0.574524X0.574524X-0.097227X0*%
%ADD17RoundRect,0.250000X0.574524X0.097227X0.097227X0.574524X-0.574524X-0.097227X-0.097227X-0.574524X0*%
%ADD18R,1.500000X2.000000*%
%ADD19R,3.800000X2.000000*%
G04 APERTURE END LIST*
D10*
%TO.C,J1*%
X161280000Y-39570000D03*
D11*
X161280000Y-42110000D03*
X161280000Y-44650000D03*
X161280000Y-47190000D03*
X161280000Y-49730000D03*
X161280000Y-52270000D03*
X161280000Y-54810000D03*
X161280000Y-57350000D03*
X161280000Y-59890000D03*
X161280000Y-62430000D03*
X161280000Y-64970000D03*
X161280000Y-67510000D03*
X161280000Y-70050000D03*
X161280000Y-72590000D03*
X161280000Y-75130000D03*
X161280000Y-77670000D03*
X161280000Y-80210000D03*
X161280000Y-82750000D03*
X161280000Y-85290000D03*
X161280000Y-87830000D03*
X161280000Y-90370000D03*
X161280000Y-92910000D03*
X161280000Y-95450000D03*
X161280000Y-97990000D03*
X176520000Y-97990000D03*
X176520000Y-95450000D03*
X176520000Y-92910000D03*
X176520000Y-90370000D03*
X176520000Y-87830000D03*
X176520000Y-85290000D03*
X176520000Y-82750000D03*
X176520000Y-80210000D03*
X176520000Y-77670000D03*
X176520000Y-75130000D03*
X176520000Y-72590000D03*
X176520000Y-70050000D03*
X176520000Y-67510000D03*
X176520000Y-64970000D03*
X176520000Y-62430000D03*
X176520000Y-59890000D03*
X176520000Y-57350000D03*
X176520000Y-54810000D03*
X176520000Y-52270000D03*
X176520000Y-49730000D03*
X176520000Y-47190000D03*
X176520000Y-44650000D03*
X176520000Y-42110000D03*
X176520000Y-39570000D03*
%TD*%
D12*
%TO.C,J2*%
X168941958Y-80210000D03*
D13*
X168941958Y-82750000D03*
X168941958Y-85290000D03*
X168941958Y-87830000D03*
X168941958Y-90370000D03*
X168941958Y-92910000D03*
%TD*%
D14*
%TO.C,C5*%
X171027500Y-41400000D03*
X168952500Y-41400000D03*
%TD*%
D15*
%TO.C,C6*%
X168732500Y-52375000D03*
X170807500Y-52375000D03*
%TD*%
D16*
%TO.C,C1*%
X171593623Y-72536377D03*
X170126377Y-74003623D03*
%TD*%
%TO.C,C3*%
X166883623Y-61526377D03*
X165416377Y-62993623D03*
%TD*%
%TO.C,C4*%
X165649261Y-71796499D03*
X164182015Y-73263745D03*
%TD*%
D17*
%TO.C,C2*%
X173383623Y-63973623D03*
X171916377Y-62506377D03*
%TD*%
D18*
%TO.C,U2*%
X166420000Y-43800000D03*
X168720000Y-43800000D03*
D19*
X168720000Y-50100000D03*
D18*
X171020000Y-43800000D03*
%TD*%
M02*
