%TF.GenerationSoftware,KiCad,Pcbnew,(6.0.0)*%
%TF.CreationDate,2022-03-26T20:17:56+01:00*%
%TF.ProjectId,Bluster,426c7573-7465-4722-9e6b-696361645f70,rev?*%
%TF.SameCoordinates,Original*%
%TF.FileFunction,Copper,L2,Bot*%
%TF.FilePolarity,Positive*%
%FSLAX46Y46*%
G04 Gerber Fmt 4.6, Leading zero omitted, Abs format (unit mm)*
G04 Created by KiCad (PCBNEW (6.0.0)) date 2022-03-26 20:17:56*
%MOMM*%
%LPD*%
G01*
G04 APERTURE LIST*
G04 Aperture macros list*
%AMRoundRect*
0 Rectangle with rounded corners*
0 $1 Rounding radius*
0 $2 $3 $4 $5 $6 $7 $8 $9 X,Y pos of 4 corners*
0 Add a 4 corners polygon primitive as box body*
4,1,4,$2,$3,$4,$5,$6,$7,$8,$9,$2,$3,0*
0 Add four circle primitives for the rounded corners*
1,1,$1+$1,$2,$3*
1,1,$1+$1,$4,$5*
1,1,$1+$1,$6,$7*
1,1,$1+$1,$8,$9*
0 Add four rect primitives between the rounded corners*
20,1,$1+$1,$2,$3,$4,$5,0*
20,1,$1+$1,$4,$5,$6,$7,0*
20,1,$1+$1,$6,$7,$8,$9,0*
20,1,$1+$1,$8,$9,$2,$3,0*%
G04 Aperture macros list end*
%TA.AperFunction,ComponentPad*%
%ADD10R,1.200000X1.200000*%
%TD*%
%TA.AperFunction,ComponentPad*%
%ADD11O,1.200000X1.200000*%
%TD*%
%TA.AperFunction,ComponentPad*%
%ADD12R,1.700000X1.700000*%
%TD*%
%TA.AperFunction,ComponentPad*%
%ADD13O,1.700000X1.700000*%
%TD*%
%TA.AperFunction,SMDPad,CuDef*%
%ADD14RoundRect,0.250000X0.337500X0.475000X-0.337500X0.475000X-0.337500X-0.475000X0.337500X-0.475000X0*%
%TD*%
%TA.AperFunction,SMDPad,CuDef*%
%ADD15RoundRect,0.250000X-0.337500X-0.475000X0.337500X-0.475000X0.337500X0.475000X-0.337500X0.475000X0*%
%TD*%
%TA.AperFunction,SMDPad,CuDef*%
%ADD16RoundRect,0.250000X-0.097227X0.574524X-0.574524X0.097227X0.097227X-0.574524X0.574524X-0.097227X0*%
%TD*%
%TA.AperFunction,SMDPad,CuDef*%
%ADD17RoundRect,0.250000X0.574524X0.097227X0.097227X0.574524X-0.574524X-0.097227X-0.097227X-0.574524X0*%
%TD*%
%TA.AperFunction,SMDPad,CuDef*%
%ADD18R,1.500000X2.000000*%
%TD*%
%TA.AperFunction,SMDPad,CuDef*%
%ADD19R,3.800000X2.000000*%
%TD*%
%TA.AperFunction,ViaPad*%
%ADD20C,0.800000*%
%TD*%
%TA.AperFunction,Conductor*%
%ADD21C,0.381000*%
%TD*%
%TA.AperFunction,Conductor*%
%ADD22C,0.762000*%
%TD*%
G04 APERTURE END LIST*
D10*
%TO.P,J1,1,GND*%
%TO.N,GND*%
X161280000Y-39570000D03*
D11*
%TO.P,J1,2,~{BG1}*%
%TO.N,/~{BG1}*%
X161280000Y-42110000D03*
%TO.P,J1,3,~{BG2}*%
%TO.N,/~{BG2}*%
X161280000Y-44650000D03*
%TO.P,J1,4,~{BG3}*%
%TO.N,/~{BG3}*%
X161280000Y-47190000D03*
%TO.P,J1,5,~{BG4}*%
%TO.N,/~{BG4}*%
X161280000Y-49730000D03*
%TO.P,J1,6,~{BG5}*%
%TO.N,/~{BG5}*%
X161280000Y-52270000D03*
%TO.P,J1,7,~{BR1}*%
%TO.N,/~{BR1}*%
X161280000Y-54810000D03*
%TO.P,J1,8,~{BR2}*%
%TO.N,/~{BR2}*%
X161280000Y-57350000D03*
%TO.P,J1,9,~{BR3}*%
%TO.N,/~{BR3}*%
X161280000Y-59890000D03*
%TO.P,J1,10,~{BR4}*%
%TO.N,/~{BR4}*%
X161280000Y-62430000D03*
%TO.P,J1,11,~{BR5}*%
%TO.N,/~{BR5}*%
X161280000Y-64970000D03*
%TO.P,J1,12,~{SLAVE1}*%
%TO.N,/~{SLAVE1}*%
X161280000Y-67510000D03*
%TO.P,J1,13,~{SLAVE2}*%
%TO.N,/~{SLAVE2}*%
X161280000Y-70050000D03*
%TO.P,J1,14,~{SLAVE3}*%
%TO.N,/~{SLAVE3}*%
X161280000Y-72590000D03*
%TO.P,J1,15,~{SLAVE4}*%
%TO.N,/~{SLAVE4}*%
X161280000Y-75130000D03*
%TO.P,J1,16,~{SLAVE5}*%
%TO.N,/~{SLAVE5}*%
X161280000Y-77670000D03*
%TO.P,J1,17,~{BG}*%
%TO.N,/~{BG}*%
X161280000Y-80210000D03*
%TO.P,J1,18,~{CDAC}*%
%TO.N,/~{CDAC}*%
X161280000Y-82750000D03*
%TO.P,J1,19,C1*%
%TO.N,/C1*%
X161280000Y-85290000D03*
%TO.P,J1,20,C3*%
%TO.N,/C3*%
X161280000Y-87830000D03*
%TO.P,J1,21,~{C2}*%
%TO.N,/~{C2}*%
X161280000Y-90370000D03*
%TO.P,J1,22,~{C4}*%
%TO.N,/~{C4}*%
X161280000Y-92910000D03*
%TO.P,J1,23,~{GBG}*%
%TO.N,/GBG*%
X161280000Y-95450000D03*
%TO.P,J1,24,GND*%
%TO.N,GND*%
X161280000Y-97990000D03*
%TO.P,J1,25,25*%
%TO.N,/25*%
X176520000Y-97990000D03*
%TO.P,J1,26,~{BEER}*%
%TO.N,/~{BEER}*%
X176520000Y-95450000D03*
%TO.P,J1,27,~{BR}*%
%TO.N,/~{BR}*%
X176520000Y-92910000D03*
%TO.P,J1,28,~{CBR}*%
%TO.N,/~{CBR}*%
X176520000Y-90370000D03*
%TO.P,J1,29,~{CBG}*%
%TO.N,/~{CBG}*%
X176520000Y-87830000D03*
%TO.P,J1,30,A19*%
%TO.N,/~{A19}*%
X176520000Y-85290000D03*
%TO.P,J1,31,A20*%
%TO.N,/~{A20}*%
X176520000Y-82750000D03*
%TO.P,J1,32,A21*%
%TO.N,/~{A21}*%
X176520000Y-80210000D03*
%TO.P,J1,33,A22*%
%TO.N,/~{A22}*%
X176520000Y-77670000D03*
%TO.P,J1,34,A23*%
%TO.N,/~{A23}*%
X176520000Y-75130000D03*
%TO.P,J1,35,READ*%
%TO.N,/READ*%
X176520000Y-72590000D03*
%TO.P,J1,36,~{AS}*%
%TO.N,/~{AS}*%
X176520000Y-70050000D03*
%TO.P,J1,37,~{LDS}*%
%TO.N,/~{LDS}*%
X176520000Y-67510000D03*
%TO.P,J1,38,~{UDS}*%
%TO.N,/~{UDS}*%
X176520000Y-64970000D03*
%TO.P,J1,39,~{BOSS}*%
%TO.N,/~{BOSS}*%
X176520000Y-62430000D03*
%TO.P,J1,40,~{OVR}*%
%TO.N,/~{OVR}*%
X176520000Y-59890000D03*
%TO.P,J1,41,~{OWN}*%
%TO.N,/~{OWN}*%
X176520000Y-57350000D03*
%TO.P,J1,42,~{RST}*%
%TO.N,/~{RST}*%
X176520000Y-54810000D03*
%TO.P,J1,43,TEST*%
%TO.N,/TEST*%
X176520000Y-52270000D03*
%TO.P,J1,44,PTEST*%
%TO.N,/PTEST*%
X176520000Y-49730000D03*
%TO.P,J1,45,~{D2P}*%
%TO.N,/D2P*%
X176520000Y-47190000D03*
%TO.P,J1,46,~{DB0E}*%
%TO.N,/~{DBOE}*%
X176520000Y-44650000D03*
%TO.P,J1,47,DOE*%
%TO.N,/DOE*%
X176520000Y-42110000D03*
%TO.P,J1,48,VCC*%
%TO.N,+5V*%
X176520000Y-39570000D03*
%TD*%
D12*
%TO.P,J2,1,Pin_1*%
%TO.N,/TMS*%
X168941958Y-80210000D03*
D13*
%TO.P,J2,2,Pin_2*%
%TO.N,/TDI*%
X168941958Y-82750000D03*
%TO.P,J2,3,Pin_3*%
%TO.N,/TDO*%
X168941958Y-85290000D03*
%TO.P,J2,4,Pin_4*%
%TO.N,/TCK*%
X168941958Y-87830000D03*
%TO.P,J2,5,Pin_5*%
%TO.N,GND*%
X168941958Y-90370000D03*
%TO.P,J2,6,Pin_6*%
%TO.N,+3V3*%
X168941958Y-92910000D03*
%TD*%
D14*
%TO.P,C5,1*%
%TO.N,+5V*%
X171027500Y-41400000D03*
%TO.P,C5,2*%
%TO.N,GND*%
X168952500Y-41400000D03*
%TD*%
D15*
%TO.P,C6,1*%
%TO.N,+3V3*%
X168732500Y-52375000D03*
%TO.P,C6,2*%
%TO.N,GND*%
X170807500Y-52375000D03*
%TD*%
D16*
%TO.P,C1,1*%
%TO.N,+3V3*%
X171593623Y-72536377D03*
%TO.P,C1,2*%
%TO.N,GND*%
X170126377Y-74003623D03*
%TD*%
%TO.P,C3,1*%
%TO.N,+3V3*%
X166883623Y-61526377D03*
%TO.P,C3,2*%
%TO.N,GND*%
X165416377Y-62993623D03*
%TD*%
%TO.P,C4,1*%
%TO.N,+3V3*%
X165649261Y-71796499D03*
%TO.P,C4,2*%
%TO.N,GND*%
X164182015Y-73263745D03*
%TD*%
D17*
%TO.P,C2,1*%
%TO.N,+3V3*%
X173383623Y-63973623D03*
%TO.P,C2,2*%
%TO.N,GND*%
X171916377Y-62506377D03*
%TD*%
D18*
%TO.P,U2,1,GND*%
%TO.N,GND*%
X166420000Y-43800000D03*
%TO.P,U2,2,VO*%
%TO.N,+3V3*%
X168720000Y-43800000D03*
D19*
X168720000Y-50100000D03*
D18*
%TO.P,U2,3,VI*%
%TO.N,+5V*%
X171020000Y-43800000D03*
%TD*%
D20*
%TO.N,GND*%
X164836000Y-58620000D03*
X164836000Y-56080000D03*
X164836000Y-53540000D03*
X172670000Y-56080000D03*
X172670000Y-53540000D03*
X172670000Y-58620000D03*
X172070000Y-78940000D03*
X172070000Y-76400000D03*
X172070000Y-91640000D03*
X172070000Y-89100000D03*
X172070000Y-84020000D03*
X172070000Y-94180000D03*
X172070000Y-86560000D03*
X172070000Y-81480000D03*
X165407500Y-78940000D03*
X165407500Y-81480000D03*
X165407500Y-91640000D03*
X165407500Y-86560000D03*
X165407500Y-94180000D03*
X165407500Y-84020000D03*
X165407500Y-89100000D03*
X165280500Y-74495000D03*
X176520000Y-73860000D03*
X161280000Y-96720000D03*
X161280000Y-51000000D03*
X161280000Y-86560000D03*
X161280000Y-73860000D03*
X176520000Y-71320000D03*
X161280000Y-84020000D03*
X176520000Y-66240000D03*
X161280000Y-43380000D03*
X176520000Y-76400000D03*
X176520000Y-61160000D03*
X161280000Y-89100000D03*
X176520000Y-96720000D03*
X161280000Y-81480000D03*
X161280000Y-91640000D03*
X176520000Y-89100000D03*
X176520000Y-84020000D03*
X161280000Y-61160000D03*
X161280000Y-45920000D03*
X176520000Y-78940000D03*
X168900000Y-76654000D03*
X161280000Y-48460000D03*
X161280000Y-68780000D03*
X161280000Y-56080000D03*
X163947000Y-66367000D03*
X161280000Y-78940000D03*
X176520000Y-56080000D03*
X176520000Y-86560000D03*
X176520000Y-58620000D03*
X176520000Y-94180000D03*
X161280000Y-53540000D03*
X161280000Y-76400000D03*
X176520000Y-53540000D03*
X161280000Y-40840000D03*
X176520000Y-40840000D03*
X161280000Y-71320000D03*
X164582000Y-69288000D03*
X163756500Y-43380000D03*
X161280000Y-94180000D03*
X176520000Y-81480000D03*
X176520000Y-91640000D03*
X172189069Y-70426015D03*
X161280000Y-58620000D03*
X176520000Y-51000000D03*
X176520000Y-48460000D03*
%TO.N,+3V3*%
X167794237Y-62487878D03*
X170598526Y-71676622D03*
X166439638Y-71006122D03*
X172377036Y-65066911D03*
%TD*%
D21*
%TO.N,+3V3*%
X169798003Y-62487878D02*
X167794237Y-62487878D01*
X172377036Y-65066911D02*
X173266060Y-64177887D01*
X173266060Y-64177887D02*
X173343228Y-64177887D01*
X167110138Y-71676622D02*
X166439638Y-71006122D01*
X172377036Y-65066911D02*
X169798003Y-62487878D01*
X167110138Y-71676622D02*
X167110138Y-91078180D01*
X167794237Y-62487878D02*
X168720000Y-61562115D01*
X170598526Y-71676622D02*
X167110138Y-71676622D01*
X166439638Y-71006122D02*
X165649261Y-71796499D01*
X166947638Y-61608122D02*
X167794237Y-62454721D01*
X171421015Y-72558499D02*
X171421015Y-72499111D01*
X167110138Y-91078180D02*
X168941958Y-92910000D01*
X168720008Y-43799989D02*
X168720008Y-50100001D01*
X170598526Y-66845421D02*
X172377036Y-65066911D01*
X168720000Y-61562115D02*
X168720000Y-50100000D01*
X167794237Y-62454721D02*
X167794237Y-62487878D01*
X166439638Y-63842477D02*
X167794237Y-62487878D01*
X166439638Y-71006122D02*
X166439638Y-63842477D01*
X170598526Y-71676622D02*
X170598526Y-66845421D01*
X171421015Y-72499111D02*
X170598526Y-71676622D01*
D22*
%TO.N,+5V*%
X176520000Y-39570000D02*
X171860000Y-39570000D01*
X171020000Y-40410000D02*
X171020000Y-43800000D01*
X171860000Y-39570000D02*
X171020000Y-40410000D01*
%TD*%
%TA.AperFunction,Conductor*%
%TO.N,GND*%
G36*
X167331392Y-38374002D02*
G01*
X167377885Y-38427658D01*
X167386112Y-38451963D01*
X167411293Y-38562290D01*
X167496933Y-38780497D01*
X167525390Y-38829786D01*
X167593976Y-38948579D01*
X167614139Y-38983503D01*
X167617071Y-38987180D01*
X167617074Y-38987184D01*
X167709481Y-39103058D01*
X167760292Y-39166773D01*
X167763745Y-39169977D01*
X167888270Y-39285520D01*
X167932127Y-39326214D01*
X168125807Y-39458262D01*
X168130052Y-39460306D01*
X168130055Y-39460308D01*
X168332755Y-39557923D01*
X168337004Y-39559969D01*
X168561001Y-39629063D01*
X168565651Y-39629764D01*
X168565656Y-39629765D01*
X168664316Y-39644635D01*
X168792794Y-39664000D01*
X169027206Y-39664000D01*
X169155684Y-39644635D01*
X169254344Y-39629765D01*
X169254349Y-39629764D01*
X169258999Y-39629063D01*
X169482996Y-39559969D01*
X169487245Y-39557923D01*
X169689945Y-39460308D01*
X169689948Y-39460306D01*
X169694193Y-39458262D01*
X169887873Y-39326214D01*
X169931731Y-39285520D01*
X170056255Y-39169977D01*
X170059708Y-39166773D01*
X170110519Y-39103058D01*
X170202926Y-38987184D01*
X170202929Y-38987180D01*
X170205861Y-38983503D01*
X170226025Y-38948579D01*
X170294610Y-38829786D01*
X170323067Y-38780497D01*
X170408707Y-38562290D01*
X170433888Y-38451963D01*
X170468547Y-38390001D01*
X170531203Y-38356613D01*
X170556729Y-38354000D01*
X177420000Y-38354000D01*
X177488121Y-38374002D01*
X177534614Y-38427658D01*
X177546000Y-38480000D01*
X177546000Y-39170906D01*
X177525998Y-39239027D01*
X177472342Y-39285520D01*
X177402068Y-39295624D01*
X177337488Y-39266130D01*
X177305890Y-39223500D01*
X177304925Y-39220529D01*
X177215113Y-39064971D01*
X177164430Y-39008681D01*
X177099344Y-38936396D01*
X177099343Y-38936395D01*
X177094922Y-38931485D01*
X177077064Y-38918510D01*
X176954946Y-38829786D01*
X176954945Y-38829785D01*
X176949604Y-38825905D01*
X176943576Y-38823221D01*
X176943574Y-38823220D01*
X176791541Y-38755531D01*
X176791540Y-38755531D01*
X176785510Y-38752846D01*
X176687184Y-38731946D01*
X176616269Y-38716872D01*
X176616264Y-38716872D01*
X176609812Y-38715500D01*
X176430188Y-38715500D01*
X176423736Y-38716872D01*
X176423731Y-38716872D01*
X176352816Y-38731946D01*
X176254490Y-38752846D01*
X176248460Y-38755531D01*
X176248459Y-38755531D01*
X176096427Y-38823220D01*
X176096425Y-38823221D01*
X176090397Y-38825905D01*
X176032943Y-38867648D01*
X175974050Y-38910436D01*
X175899989Y-38934500D01*
X171939020Y-38934500D01*
X171927791Y-38933971D01*
X171920281Y-38932292D01*
X171912355Y-38932541D01*
X171912354Y-38932541D01*
X171852002Y-38934438D01*
X171848044Y-38934500D01*
X171820017Y-38934500D01*
X171815971Y-38935011D01*
X171804143Y-38935942D01*
X171759795Y-38937336D01*
X171752177Y-38939549D01*
X171752178Y-38939549D01*
X171740254Y-38943013D01*
X171720894Y-38947022D01*
X171708566Y-38948579D01*
X171708563Y-38948580D01*
X171700701Y-38949573D01*
X171693335Y-38952490D01*
X171693329Y-38952491D01*
X171659439Y-38965909D01*
X171648212Y-38969753D01*
X171605607Y-38982131D01*
X171598788Y-38986164D01*
X171598783Y-38986166D01*
X171588091Y-38992490D01*
X171570341Y-39001187D01*
X171551412Y-39008681D01*
X171544996Y-39013342D01*
X171544995Y-39013343D01*
X171515519Y-39034759D01*
X171505595Y-39041278D01*
X171474224Y-39059830D01*
X171474219Y-39059834D01*
X171467401Y-39063866D01*
X171453014Y-39078253D01*
X171437980Y-39091094D01*
X171421513Y-39103058D01*
X171416460Y-39109166D01*
X171393228Y-39137249D01*
X171385238Y-39146029D01*
X170626517Y-39904750D01*
X170618191Y-39912326D01*
X170611697Y-39916447D01*
X170606274Y-39922222D01*
X170564915Y-39966265D01*
X170562173Y-39969094D01*
X170542361Y-39988906D01*
X170539937Y-39992031D01*
X170539929Y-39992040D01*
X170539863Y-39992126D01*
X170532155Y-40001151D01*
X170501783Y-40033494D01*
X170497965Y-40040438D01*
X170497964Y-40040440D01*
X170491978Y-40051329D01*
X170481127Y-40067847D01*
X170468650Y-40083933D01*
X170451024Y-40124666D01*
X170445807Y-40135314D01*
X170424431Y-40174197D01*
X170422460Y-40181872D01*
X170422458Y-40181878D01*
X170419369Y-40193911D01*
X170412966Y-40212613D01*
X170404883Y-40231292D01*
X170403644Y-40239117D01*
X170397940Y-40275127D01*
X170395535Y-40286740D01*
X170384500Y-40329718D01*
X170384500Y-40350065D01*
X170382949Y-40369776D01*
X170379765Y-40389879D01*
X170380511Y-40397771D01*
X170383941Y-40434056D01*
X170384500Y-40445914D01*
X170384500Y-40460421D01*
X170364498Y-40528542D01*
X170342472Y-40552211D01*
X170343126Y-40552865D01*
X170336776Y-40559215D01*
X170329596Y-40564596D01*
X170242929Y-40680236D01*
X170239778Y-40688642D01*
X170235819Y-40695874D01*
X170185562Y-40746021D01*
X170116171Y-40761036D01*
X170049678Y-40736152D01*
X170005774Y-40675243D01*
X169983412Y-40608216D01*
X169977239Y-40595038D01*
X169891937Y-40457193D01*
X169882901Y-40445792D01*
X169768171Y-40331261D01*
X169756760Y-40322249D01*
X169618757Y-40237184D01*
X169605576Y-40231037D01*
X169451290Y-40179862D01*
X169437914Y-40176995D01*
X169343562Y-40167328D01*
X169337145Y-40167000D01*
X169224615Y-40167000D01*
X169209376Y-40171475D01*
X169208171Y-40172865D01*
X169206500Y-40180548D01*
X169206500Y-41528000D01*
X169186498Y-41596121D01*
X169132842Y-41642614D01*
X169080500Y-41654000D01*
X167875116Y-41654000D01*
X167859877Y-41658475D01*
X167858672Y-41659865D01*
X167857001Y-41667548D01*
X167857001Y-41922095D01*
X167857338Y-41928614D01*
X167867257Y-42024206D01*
X167870149Y-42037600D01*
X167921588Y-42191784D01*
X167927761Y-42204962D01*
X168013063Y-42342807D01*
X168014469Y-42344581D01*
X168015052Y-42346021D01*
X168016917Y-42349035D01*
X168016401Y-42349354D01*
X168041105Y-42410391D01*
X168027933Y-42480155D01*
X167979135Y-42531723D01*
X167940307Y-42546421D01*
X167870699Y-42560266D01*
X167860379Y-42567161D01*
X167860378Y-42567162D01*
X167803339Y-42605275D01*
X167735587Y-42626490D01*
X167667120Y-42607707D01*
X167622817Y-42561019D01*
X167614788Y-42546354D01*
X167538285Y-42444276D01*
X167525724Y-42431715D01*
X167423649Y-42355214D01*
X167408054Y-42346676D01*
X167287606Y-42301522D01*
X167272351Y-42297895D01*
X167221486Y-42292369D01*
X167214672Y-42292000D01*
X166692115Y-42292000D01*
X166676876Y-42296475D01*
X166675671Y-42297865D01*
X166674000Y-42305548D01*
X166674000Y-45289884D01*
X166678475Y-45305123D01*
X166679865Y-45306328D01*
X166687548Y-45307999D01*
X167214669Y-45307999D01*
X167221490Y-45307629D01*
X167272352Y-45302105D01*
X167287604Y-45298479D01*
X167408054Y-45253324D01*
X167423649Y-45244786D01*
X167525724Y-45168285D01*
X167538285Y-45155724D01*
X167614788Y-45053646D01*
X167622817Y-45038981D01*
X167673076Y-44988835D01*
X167742467Y-44973821D01*
X167803339Y-44994725D01*
X167870699Y-45039734D01*
X167944933Y-45054500D01*
X168149008Y-45054500D01*
X168217129Y-45074502D01*
X168263622Y-45128158D01*
X168275008Y-45180500D01*
X168275008Y-48719501D01*
X168255006Y-48787622D01*
X168201350Y-48834115D01*
X168149008Y-48845501D01*
X166794934Y-48845501D01*
X166759182Y-48852612D01*
X166732874Y-48857844D01*
X166732872Y-48857845D01*
X166720699Y-48860266D01*
X166710379Y-48867161D01*
X166710378Y-48867162D01*
X166649985Y-48907516D01*
X166636516Y-48916516D01*
X166580266Y-49000699D01*
X166565500Y-49074933D01*
X166565501Y-51125066D01*
X166580266Y-51199301D01*
X166636516Y-51283484D01*
X166720699Y-51339734D01*
X166794933Y-51354500D01*
X167921427Y-51354500D01*
X167989548Y-51374502D01*
X168036041Y-51428158D01*
X168046145Y-51498432D01*
X168022253Y-51556065D01*
X167947929Y-51655236D01*
X167897202Y-51790552D01*
X167890500Y-51852244D01*
X167890500Y-52897756D01*
X167897202Y-52959448D01*
X167947929Y-53094764D01*
X167953309Y-53101943D01*
X167953311Y-53101946D01*
X168000999Y-53165576D01*
X168034596Y-53210404D01*
X168041776Y-53215785D01*
X168143054Y-53291689D01*
X168143057Y-53291691D01*
X168150236Y-53297071D01*
X168158639Y-53300221D01*
X168193229Y-53313188D01*
X168249994Y-53355829D01*
X168274694Y-53422390D01*
X168275000Y-53431170D01*
X168275000Y-61325599D01*
X168254998Y-61393720D01*
X168238095Y-61414694D01*
X168146190Y-61506599D01*
X168083878Y-61540625D01*
X168013063Y-61535560D01*
X167956227Y-61493013D01*
X167942394Y-61469655D01*
X167890803Y-61356186D01*
X167890802Y-61356184D01*
X167887535Y-61348999D01*
X167848651Y-61300637D01*
X167109363Y-60561349D01*
X167061001Y-60522465D01*
X167053816Y-60519198D01*
X167053814Y-60519197D01*
X166937619Y-60466367D01*
X166937618Y-60466367D01*
X166929448Y-60462652D01*
X166920563Y-60461380D01*
X166920561Y-60461379D01*
X166795285Y-60443438D01*
X166786396Y-60442165D01*
X166777507Y-60443438D01*
X166652230Y-60461379D01*
X166652228Y-60461380D01*
X166643343Y-60462652D01*
X166635173Y-60466367D01*
X166635172Y-60466367D01*
X166518978Y-60519197D01*
X166518976Y-60519198D01*
X166511791Y-60522465D01*
X166463429Y-60561349D01*
X165918595Y-61106183D01*
X165879711Y-61154545D01*
X165876444Y-61161730D01*
X165876443Y-61161732D01*
X165850860Y-61218000D01*
X165819898Y-61286097D01*
X165818626Y-61294982D01*
X165818625Y-61294984D01*
X165804485Y-61393720D01*
X165799411Y-61429150D01*
X165819898Y-61572202D01*
X165823612Y-61580370D01*
X165825928Y-61588292D01*
X165825848Y-61659288D01*
X165787396Y-61718971D01*
X165722782Y-61748391D01*
X165648672Y-61736365D01*
X165585462Y-61704780D01*
X165571789Y-61699830D01*
X165413990Y-61662675D01*
X165399545Y-61661003D01*
X165237429Y-61661144D01*
X165222993Y-61662840D01*
X165065255Y-61700273D01*
X165051591Y-61705246D01*
X164906305Y-61778158D01*
X164894822Y-61785587D01*
X164821272Y-61845467D01*
X164816498Y-61849777D01*
X164736928Y-61929348D01*
X164729318Y-61943284D01*
X164729449Y-61945121D01*
X164733701Y-61951737D01*
X165686492Y-62904528D01*
X165720518Y-62966840D01*
X165715453Y-63037655D01*
X165686492Y-63082718D01*
X164834159Y-63935051D01*
X164826545Y-63948995D01*
X164826676Y-63950828D01*
X164830927Y-63957443D01*
X165010926Y-64137442D01*
X165015749Y-64141791D01*
X165090379Y-64202390D01*
X165101890Y-64209812D01*
X165247291Y-64282466D01*
X165260965Y-64287416D01*
X165418764Y-64324571D01*
X165433209Y-64326243D01*
X165595325Y-64326102D01*
X165609761Y-64324406D01*
X165767499Y-64286973D01*
X165781164Y-64282000D01*
X165812122Y-64266463D01*
X165881978Y-64253785D01*
X165947598Y-64280887D01*
X165988149Y-64339163D01*
X165994638Y-64379077D01*
X165994638Y-70468449D01*
X165974636Y-70536570D01*
X165959821Y-70553727D01*
X165960483Y-70554323D01*
X165955403Y-70559965D01*
X165949677Y-70564960D01*
X165945310Y-70571174D01*
X165858740Y-70694350D01*
X165803205Y-70738581D01*
X165732573Y-70745767D01*
X165703508Y-70736602D01*
X165703264Y-70736491D01*
X165703256Y-70736489D01*
X165695086Y-70732774D01*
X165686201Y-70731502D01*
X165686199Y-70731501D01*
X165560923Y-70713560D01*
X165552034Y-70712287D01*
X165543145Y-70713560D01*
X165417868Y-70731501D01*
X165417866Y-70731502D01*
X165408981Y-70732774D01*
X165400811Y-70736489D01*
X165400810Y-70736489D01*
X165284616Y-70789319D01*
X165284614Y-70789320D01*
X165277429Y-70792587D01*
X165229067Y-70831471D01*
X164684233Y-71376305D01*
X164645349Y-71424667D01*
X164642082Y-71431852D01*
X164642081Y-71431854D01*
X164621842Y-71476367D01*
X164585536Y-71556219D01*
X164565049Y-71699272D01*
X164585536Y-71842324D01*
X164589250Y-71850492D01*
X164591566Y-71858414D01*
X164591486Y-71929410D01*
X164553034Y-71989093D01*
X164488420Y-72018513D01*
X164414310Y-72006487D01*
X164351100Y-71974902D01*
X164337427Y-71969952D01*
X164179628Y-71932797D01*
X164165183Y-71931125D01*
X164003067Y-71931266D01*
X163988631Y-71932962D01*
X163830893Y-71970395D01*
X163817229Y-71975368D01*
X163671943Y-72048280D01*
X163660460Y-72055709D01*
X163586910Y-72115589D01*
X163582136Y-72119899D01*
X163502566Y-72199470D01*
X163494956Y-72213406D01*
X163495087Y-72215243D01*
X163499339Y-72221859D01*
X165220670Y-73943190D01*
X165234614Y-73950804D01*
X165236447Y-73950673D01*
X165243062Y-73946422D01*
X165325834Y-73863650D01*
X165330183Y-73858827D01*
X165390782Y-73784197D01*
X165398204Y-73772686D01*
X165470858Y-73627285D01*
X165475808Y-73613611D01*
X165512963Y-73455812D01*
X165514635Y-73441367D01*
X165514494Y-73279251D01*
X165512798Y-73264815D01*
X165475365Y-73107078D01*
X165470392Y-73093413D01*
X165439397Y-73031653D01*
X165426719Y-72961797D01*
X165453821Y-72896177D01*
X165512097Y-72855626D01*
X165587374Y-72854201D01*
X165595262Y-72856508D01*
X165603436Y-72860224D01*
X165746488Y-72880711D01*
X165755377Y-72879438D01*
X165880654Y-72861497D01*
X165880656Y-72861496D01*
X165889541Y-72860224D01*
X165899654Y-72855626D01*
X166013906Y-72803679D01*
X166013908Y-72803678D01*
X166021093Y-72800411D01*
X166040475Y-72784828D01*
X166066796Y-72763665D01*
X166066797Y-72763664D01*
X166069455Y-72761527D01*
X166450043Y-72380939D01*
X166512355Y-72346913D01*
X166583170Y-72351978D01*
X166640006Y-72394525D01*
X166664817Y-72461045D01*
X166665138Y-72470034D01*
X166665138Y-91044293D01*
X166664265Y-91059103D01*
X166660334Y-91092316D01*
X166662026Y-91101579D01*
X166670743Y-91149306D01*
X166671393Y-91153214D01*
X166680006Y-91210506D01*
X166683094Y-91216937D01*
X166684375Y-91223951D01*
X166688716Y-91232307D01*
X166711082Y-91275364D01*
X166712851Y-91278904D01*
X166737930Y-91331132D01*
X166742772Y-91336370D01*
X166746059Y-91342698D01*
X166750322Y-91347689D01*
X166787101Y-91384468D01*
X166790530Y-91388034D01*
X166828763Y-91429394D01*
X166835057Y-91433050D01*
X166841060Y-91438427D01*
X167856488Y-92453855D01*
X167890514Y-92516167D01*
X167887726Y-92580312D01*
X167856965Y-92679378D01*
X167833106Y-92880964D01*
X167846382Y-93083522D01*
X167847803Y-93089118D01*
X167847804Y-93089123D01*
X167868077Y-93168945D01*
X167896350Y-93280269D01*
X167898767Y-93285512D01*
X167935968Y-93366208D01*
X167981335Y-93464616D01*
X167984668Y-93469332D01*
X168040629Y-93548515D01*
X168098491Y-93630389D01*
X168243896Y-93772035D01*
X168412678Y-93884812D01*
X168417981Y-93887090D01*
X168417984Y-93887092D01*
X168506665Y-93925192D01*
X168599186Y-93964942D01*
X168672202Y-93981464D01*
X168791537Y-94008467D01*
X168791542Y-94008468D01*
X168797174Y-94009742D01*
X168802945Y-94009969D01*
X168802947Y-94009969D01*
X168862714Y-94012317D01*
X169000011Y-94017712D01*
X169100457Y-94003148D01*
X169195189Y-93989413D01*
X169195194Y-93989412D01*
X169200903Y-93988584D01*
X169206367Y-93986729D01*
X169206372Y-93986728D01*
X169387651Y-93925192D01*
X169387656Y-93925190D01*
X169393123Y-93923334D01*
X169570234Y-93824147D01*
X169632892Y-93772035D01*
X169721871Y-93698031D01*
X169726303Y-93694345D01*
X169844360Y-93552398D01*
X169852411Y-93542718D01*
X169852413Y-93542715D01*
X169856105Y-93538276D01*
X169955292Y-93361165D01*
X169957148Y-93355698D01*
X169957150Y-93355693D01*
X170018686Y-93174414D01*
X170018687Y-93174409D01*
X170020542Y-93168945D01*
X170021370Y-93163236D01*
X170021371Y-93163231D01*
X170049137Y-92971727D01*
X170049670Y-92968053D01*
X170051190Y-92910000D01*
X170032616Y-92707859D01*
X170026199Y-92685107D01*
X169979083Y-92518046D01*
X169979082Y-92518044D01*
X169977515Y-92512487D01*
X169924495Y-92404971D01*
X169890289Y-92335609D01*
X169887734Y-92330428D01*
X169766278Y-92167779D01*
X169617216Y-92029987D01*
X169612333Y-92026906D01*
X169612329Y-92026903D01*
X169450422Y-91924748D01*
X169445539Y-91921667D01*
X169373572Y-91892955D01*
X169317713Y-91849134D01*
X169294413Y-91782069D01*
X169311069Y-91713054D01*
X169362394Y-91664000D01*
X169384056Y-91655239D01*
X169434210Y-91640192D01*
X169443800Y-91636433D01*
X169635053Y-91542739D01*
X169643903Y-91537464D01*
X169817286Y-91413792D01*
X169825158Y-91407139D01*
X169976010Y-91256812D01*
X169982688Y-91248965D01*
X170106961Y-91076020D01*
X170112271Y-91067183D01*
X170206628Y-90876267D01*
X170210427Y-90866672D01*
X170272335Y-90662910D01*
X170274513Y-90652837D01*
X170275944Y-90641962D01*
X170273733Y-90627778D01*
X170260575Y-90624000D01*
X168813958Y-90624000D01*
X168745837Y-90603998D01*
X168699344Y-90550342D01*
X168687958Y-90498000D01*
X168687958Y-90242000D01*
X168707960Y-90173879D01*
X168761616Y-90127386D01*
X168813958Y-90116000D01*
X170260302Y-90116000D01*
X170273833Y-90112027D01*
X170275138Y-90102947D01*
X170233172Y-89935875D01*
X170229852Y-89926124D01*
X170144930Y-89730814D01*
X170140063Y-89721739D01*
X170024384Y-89542926D01*
X170018094Y-89534757D01*
X169874764Y-89377240D01*
X169867231Y-89370215D01*
X169700097Y-89238222D01*
X169691510Y-89232517D01*
X169505075Y-89129599D01*
X169495663Y-89125369D01*
X169381349Y-89084888D01*
X169323813Y-89043294D01*
X169297897Y-88977196D01*
X169311831Y-88907580D01*
X169361190Y-88856549D01*
X169382901Y-88846804D01*
X169393123Y-88843334D01*
X169570234Y-88744147D01*
X169632892Y-88692035D01*
X169721871Y-88618031D01*
X169726303Y-88614345D01*
X169844360Y-88472398D01*
X169852411Y-88462718D01*
X169852413Y-88462715D01*
X169856105Y-88458276D01*
X169955292Y-88281165D01*
X169957148Y-88275698D01*
X169957150Y-88275693D01*
X170018686Y-88094414D01*
X170018687Y-88094409D01*
X170020542Y-88088945D01*
X170021370Y-88083236D01*
X170021371Y-88083231D01*
X170049137Y-87891727D01*
X170049670Y-87888053D01*
X170051190Y-87830000D01*
X170032616Y-87627859D01*
X170031048Y-87622299D01*
X169979083Y-87438046D01*
X169979082Y-87438044D01*
X169977515Y-87432487D01*
X169966936Y-87411033D01*
X169890289Y-87255609D01*
X169887734Y-87250428D01*
X169766278Y-87087779D01*
X169617216Y-86949987D01*
X169612333Y-86946906D01*
X169612329Y-86946903D01*
X169450422Y-86844748D01*
X169445539Y-86841667D01*
X169256997Y-86766446D01*
X169251337Y-86765320D01*
X169251333Y-86765319D01*
X169063571Y-86727971D01*
X169063568Y-86727971D01*
X169057904Y-86726844D01*
X169052129Y-86726768D01*
X169052125Y-86726768D01*
X168950751Y-86725441D01*
X168854929Y-86724187D01*
X168849232Y-86725166D01*
X168849231Y-86725166D01*
X168660565Y-86757585D01*
X168654868Y-86758564D01*
X168464421Y-86828824D01*
X168289968Y-86932612D01*
X168285628Y-86936418D01*
X168285624Y-86936421D01*
X168198479Y-87012846D01*
X168137350Y-87066455D01*
X168133775Y-87070990D01*
X168133774Y-87070991D01*
X168123633Y-87083855D01*
X168011678Y-87225869D01*
X168008989Y-87230980D01*
X168008987Y-87230983D01*
X167996031Y-87255609D01*
X167917161Y-87405515D01*
X167856965Y-87599378D01*
X167833106Y-87800964D01*
X167846382Y-88003522D01*
X167847803Y-88009118D01*
X167847804Y-88009123D01*
X167868077Y-88088945D01*
X167896350Y-88200269D01*
X167898767Y-88205512D01*
X167935968Y-88286208D01*
X167981335Y-88384616D01*
X167984668Y-88389332D01*
X168040629Y-88468515D01*
X168098491Y-88550389D01*
X168243896Y-88692035D01*
X168412678Y-88804812D01*
X168417981Y-88807090D01*
X168417984Y-88807092D01*
X168514912Y-88848735D01*
X168569605Y-88894003D01*
X168591142Y-88961654D01*
X168572685Y-89030210D01*
X168520094Y-89077904D01*
X168504319Y-89084268D01*
X168418826Y-89112212D01*
X168409317Y-89116209D01*
X168220421Y-89214542D01*
X168211696Y-89220036D01*
X168041391Y-89347905D01*
X168033684Y-89354748D01*
X167886548Y-89508717D01*
X167880062Y-89516727D01*
X167785226Y-89655751D01*
X167730315Y-89700754D01*
X167659790Y-89708925D01*
X167596043Y-89677671D01*
X167559313Y-89616914D01*
X167555138Y-89584747D01*
X167555138Y-85260964D01*
X167833106Y-85260964D01*
X167846382Y-85463522D01*
X167847803Y-85469118D01*
X167847804Y-85469123D01*
X167868077Y-85548945D01*
X167896350Y-85660269D01*
X167898767Y-85665512D01*
X167935968Y-85746208D01*
X167981335Y-85844616D01*
X167984668Y-85849332D01*
X168040629Y-85928515D01*
X168098491Y-86010389D01*
X168243896Y-86152035D01*
X168412678Y-86264812D01*
X168417981Y-86267090D01*
X168417984Y-86267092D01*
X168506665Y-86305192D01*
X168599186Y-86344942D01*
X168672202Y-86361464D01*
X168791537Y-86388467D01*
X168791542Y-86388468D01*
X168797174Y-86389742D01*
X168802945Y-86389969D01*
X168802947Y-86389969D01*
X168862714Y-86392317D01*
X169000011Y-86397712D01*
X169100457Y-86383148D01*
X169195189Y-86369413D01*
X169195194Y-86369412D01*
X169200903Y-86368584D01*
X169206367Y-86366729D01*
X169206372Y-86366728D01*
X169387651Y-86305192D01*
X169387656Y-86305190D01*
X169393123Y-86303334D01*
X169570234Y-86204147D01*
X169632892Y-86152035D01*
X169721871Y-86078031D01*
X169726303Y-86074345D01*
X169844360Y-85932398D01*
X169852411Y-85922718D01*
X169852413Y-85922715D01*
X169856105Y-85918276D01*
X169955292Y-85741165D01*
X169957148Y-85735698D01*
X169957150Y-85735693D01*
X170018686Y-85554414D01*
X170018687Y-85554409D01*
X170020542Y-85548945D01*
X170021370Y-85543236D01*
X170021371Y-85543231D01*
X170049137Y-85351727D01*
X170049670Y-85348053D01*
X170051190Y-85290000D01*
X170032616Y-85087859D01*
X170031048Y-85082299D01*
X169979083Y-84898046D01*
X169979082Y-84898044D01*
X169977515Y-84892487D01*
X169966936Y-84871033D01*
X169890289Y-84715609D01*
X169887734Y-84710428D01*
X169766278Y-84547779D01*
X169617216Y-84409987D01*
X169612333Y-84406906D01*
X169612329Y-84406903D01*
X169450422Y-84304748D01*
X169445539Y-84301667D01*
X169256997Y-84226446D01*
X169251337Y-84225320D01*
X169251333Y-84225319D01*
X169063571Y-84187971D01*
X169063568Y-84187971D01*
X169057904Y-84186844D01*
X169052129Y-84186768D01*
X169052125Y-84186768D01*
X168950751Y-84185441D01*
X168854929Y-84184187D01*
X168849232Y-84185166D01*
X168849231Y-84185166D01*
X168660565Y-84217585D01*
X168654868Y-84218564D01*
X168464421Y-84288824D01*
X168289968Y-84392612D01*
X168285628Y-84396418D01*
X168285624Y-84396421D01*
X168198479Y-84472846D01*
X168137350Y-84526455D01*
X168133775Y-84530990D01*
X168133774Y-84530991D01*
X168123633Y-84543855D01*
X168011678Y-84685869D01*
X168008989Y-84690980D01*
X168008987Y-84690983D01*
X167996031Y-84715609D01*
X167917161Y-84865515D01*
X167856965Y-85059378D01*
X167833106Y-85260964D01*
X167555138Y-85260964D01*
X167555138Y-82720964D01*
X167833106Y-82720964D01*
X167846382Y-82923522D01*
X167847803Y-82929118D01*
X167847804Y-82929123D01*
X167868077Y-83008945D01*
X167896350Y-83120269D01*
X167898767Y-83125512D01*
X167935968Y-83206208D01*
X167981335Y-83304616D01*
X167984668Y-83309332D01*
X168040629Y-83388515D01*
X168098491Y-83470389D01*
X168243896Y-83612035D01*
X168412678Y-83724812D01*
X168417981Y-83727090D01*
X168417984Y-83727092D01*
X168506665Y-83765192D01*
X168599186Y-83804942D01*
X168672202Y-83821464D01*
X168791537Y-83848467D01*
X168791542Y-83848468D01*
X168797174Y-83849742D01*
X168802945Y-83849969D01*
X168802947Y-83849969D01*
X168862714Y-83852317D01*
X169000011Y-83857712D01*
X169100457Y-83843148D01*
X169195189Y-83829413D01*
X169195194Y-83829412D01*
X169200903Y-83828584D01*
X169206367Y-83826729D01*
X169206372Y-83826728D01*
X169387651Y-83765192D01*
X169387656Y-83765190D01*
X169393123Y-83763334D01*
X169570234Y-83664147D01*
X169632892Y-83612035D01*
X169721871Y-83538031D01*
X169726303Y-83534345D01*
X169844360Y-83392398D01*
X169852411Y-83382718D01*
X169852413Y-83382715D01*
X169856105Y-83378276D01*
X169955292Y-83201165D01*
X169957148Y-83195698D01*
X169957150Y-83195693D01*
X170018686Y-83014414D01*
X170018687Y-83014409D01*
X170020542Y-83008945D01*
X170021370Y-83003236D01*
X170021371Y-83003231D01*
X170049137Y-82811727D01*
X170049670Y-82808053D01*
X170051190Y-82750000D01*
X170032616Y-82547859D01*
X170031048Y-82542299D01*
X169979083Y-82358046D01*
X169979082Y-82358044D01*
X169977515Y-82352487D01*
X169966936Y-82331033D01*
X169890289Y-82175609D01*
X169887734Y-82170428D01*
X169766278Y-82007779D01*
X169617216Y-81869987D01*
X169612333Y-81866906D01*
X169612329Y-81866903D01*
X169450422Y-81764748D01*
X169445539Y-81761667D01*
X169256997Y-81686446D01*
X169251337Y-81685320D01*
X169251333Y-81685319D01*
X169063571Y-81647971D01*
X169063568Y-81647971D01*
X169057904Y-81646844D01*
X169052129Y-81646768D01*
X169052125Y-81646768D01*
X168950751Y-81645441D01*
X168854929Y-81644187D01*
X168849232Y-81645166D01*
X168849231Y-81645166D01*
X168660565Y-81677585D01*
X168654868Y-81678564D01*
X168464421Y-81748824D01*
X168289968Y-81852612D01*
X168285628Y-81856418D01*
X168285624Y-81856421D01*
X168198479Y-81932846D01*
X168137350Y-81986455D01*
X168133775Y-81990990D01*
X168133774Y-81990991D01*
X168123633Y-82003855D01*
X168011678Y-82145869D01*
X168008989Y-82150980D01*
X168008987Y-82150983D01*
X167996031Y-82175609D01*
X167917161Y-82325515D01*
X167856965Y-82519378D01*
X167833106Y-82720964D01*
X167555138Y-82720964D01*
X167555138Y-79334933D01*
X167837458Y-79334933D01*
X167837459Y-81085066D01*
X167852224Y-81159301D01*
X167908474Y-81243484D01*
X167992657Y-81299734D01*
X168066891Y-81314500D01*
X168941816Y-81314500D01*
X169817024Y-81314499D01*
X169852776Y-81307388D01*
X169879084Y-81302156D01*
X169879086Y-81302155D01*
X169891259Y-81299734D01*
X169901579Y-81292839D01*
X169901580Y-81292838D01*
X169965126Y-81250377D01*
X169975442Y-81243484D01*
X170031692Y-81159301D01*
X170046458Y-81085067D01*
X170046457Y-79334934D01*
X170031692Y-79260699D01*
X169975442Y-79176516D01*
X169891259Y-79120266D01*
X169817025Y-79105500D01*
X168942100Y-79105500D01*
X168066892Y-79105501D01*
X168031140Y-79112612D01*
X168004832Y-79117844D01*
X168004830Y-79117845D01*
X167992657Y-79120266D01*
X167982337Y-79127161D01*
X167982336Y-79127162D01*
X167921943Y-79167516D01*
X167908474Y-79176516D01*
X167852224Y-79260699D01*
X167837458Y-79334933D01*
X167555138Y-79334933D01*
X167555138Y-74958995D01*
X169536545Y-74958995D01*
X169536676Y-74960828D01*
X169540927Y-74967443D01*
X169720926Y-75147442D01*
X169725749Y-75151791D01*
X169800379Y-75212390D01*
X169811890Y-75219812D01*
X169957291Y-75292466D01*
X169970965Y-75297416D01*
X170128764Y-75334571D01*
X170143209Y-75336243D01*
X170305325Y-75336102D01*
X170319761Y-75334406D01*
X170477499Y-75296973D01*
X170491163Y-75292000D01*
X170636449Y-75219088D01*
X170647932Y-75211659D01*
X170721482Y-75151779D01*
X170726256Y-75147469D01*
X170805826Y-75067898D01*
X170813436Y-75053962D01*
X170813305Y-75052125D01*
X170809053Y-75045509D01*
X170139189Y-74375645D01*
X170125245Y-74368031D01*
X170123412Y-74368162D01*
X170116797Y-74372413D01*
X169544159Y-74945051D01*
X169536545Y-74958995D01*
X167555138Y-74958995D01*
X167555138Y-73826001D01*
X168793757Y-73826001D01*
X168793898Y-73988117D01*
X168795594Y-74002553D01*
X168833027Y-74160290D01*
X168838000Y-74173954D01*
X168910911Y-74319238D01*
X168918342Y-74330723D01*
X168978231Y-74404286D01*
X168982520Y-74409037D01*
X169159329Y-74585845D01*
X169173267Y-74593456D01*
X169175103Y-74593324D01*
X169181715Y-74589075D01*
X169754355Y-74016435D01*
X169761969Y-74002491D01*
X169761838Y-74000658D01*
X169757587Y-73994043D01*
X169087722Y-73324178D01*
X169073778Y-73316564D01*
X169071945Y-73316695D01*
X169065330Y-73320946D01*
X168982558Y-73403718D01*
X168978209Y-73408541D01*
X168917610Y-73483171D01*
X168910188Y-73494682D01*
X168837534Y-73640083D01*
X168832584Y-73653757D01*
X168795429Y-73811556D01*
X168793757Y-73826001D01*
X167555138Y-73826001D01*
X167555138Y-72247622D01*
X167575140Y-72179501D01*
X167628796Y-72133008D01*
X167681138Y-72121622D01*
X170066289Y-72121622D01*
X170134410Y-72141624D01*
X170151088Y-72154428D01*
X170200589Y-72199470D01*
X170216602Y-72214041D01*
X170355819Y-72289630D01*
X170403104Y-72302035D01*
X170416658Y-72305591D01*
X170477473Y-72342225D01*
X170508828Y-72405922D01*
X170510684Y-72427467D01*
X170510684Y-72430261D01*
X170509411Y-72439150D01*
X170529898Y-72582202D01*
X170533612Y-72590370D01*
X170535928Y-72598292D01*
X170535848Y-72669288D01*
X170497396Y-72728971D01*
X170432782Y-72758391D01*
X170358672Y-72746365D01*
X170295462Y-72714780D01*
X170281789Y-72709830D01*
X170123990Y-72672675D01*
X170109545Y-72671003D01*
X169947429Y-72671144D01*
X169932993Y-72672840D01*
X169775255Y-72710273D01*
X169761591Y-72715246D01*
X169616305Y-72788158D01*
X169604822Y-72795587D01*
X169531272Y-72855467D01*
X169526498Y-72859777D01*
X169446928Y-72939348D01*
X169439318Y-72953284D01*
X169439449Y-72955121D01*
X169443701Y-72961737D01*
X171165032Y-74683068D01*
X171178976Y-74690682D01*
X171180809Y-74690551D01*
X171187424Y-74686300D01*
X171270196Y-74603528D01*
X171274545Y-74598705D01*
X171335144Y-74524075D01*
X171342566Y-74512564D01*
X171415220Y-74367163D01*
X171420170Y-74353489D01*
X171457325Y-74195690D01*
X171458997Y-74181245D01*
X171458856Y-74019129D01*
X171457160Y-74004693D01*
X171419727Y-73846956D01*
X171414754Y-73833291D01*
X171383759Y-73771531D01*
X171371081Y-73701675D01*
X171398183Y-73636055D01*
X171456459Y-73595504D01*
X171531736Y-73594079D01*
X171539624Y-73596386D01*
X171547798Y-73600102D01*
X171690850Y-73620589D01*
X171699739Y-73619316D01*
X171825016Y-73601375D01*
X171825018Y-73601374D01*
X171833903Y-73600102D01*
X171879523Y-73579360D01*
X171958268Y-73543557D01*
X171958270Y-73543556D01*
X171965455Y-73540289D01*
X172013817Y-73501405D01*
X172558651Y-72956571D01*
X172597535Y-72908209D01*
X172608657Y-72883749D01*
X172653633Y-72784828D01*
X172653633Y-72784827D01*
X172657348Y-72776657D01*
X172659431Y-72762117D01*
X172676562Y-72642493D01*
X172677835Y-72633604D01*
X172657348Y-72490552D01*
X172624327Y-72417925D01*
X172600803Y-72366186D01*
X172600802Y-72366184D01*
X172597535Y-72358999D01*
X172584049Y-72342225D01*
X172560789Y-72313296D01*
X172560788Y-72313295D01*
X172558651Y-72310637D01*
X171819363Y-71571349D01*
X171800545Y-71556219D01*
X171777154Y-71537412D01*
X171777153Y-71537412D01*
X171771001Y-71532465D01*
X171763816Y-71529198D01*
X171763814Y-71529197D01*
X171647619Y-71476367D01*
X171647618Y-71476367D01*
X171639448Y-71472652D01*
X171630563Y-71471380D01*
X171630561Y-71471379D01*
X171505285Y-71453438D01*
X171496396Y-71452165D01*
X171487507Y-71453438D01*
X171362230Y-71471379D01*
X171362228Y-71471380D01*
X171353343Y-71472652D01*
X171346185Y-71475906D01*
X171275751Y-71475829D01*
X171216067Y-71437380D01*
X171193517Y-71399511D01*
X171185493Y-71378276D01*
X171185489Y-71378269D01*
X171182806Y-71371168D01*
X171093079Y-71240614D01*
X171085708Y-71234046D01*
X171084826Y-71232632D01*
X171082383Y-71229861D01*
X171082845Y-71229454D01*
X171048152Y-71173797D01*
X171043526Y-71139969D01*
X171043526Y-67081936D01*
X171063528Y-67013815D01*
X171080431Y-66992841D01*
X172314413Y-65758859D01*
X172376725Y-65724833D01*
X172405486Y-65721970D01*
X172417449Y-65722158D01*
X172438354Y-65722487D01*
X172438357Y-65722487D01*
X172445952Y-65722606D01*
X172600368Y-65687240D01*
X172670778Y-65651828D01*
X172735108Y-65619474D01*
X172735111Y-65619472D01*
X172741891Y-65616062D01*
X172747662Y-65611133D01*
X172747665Y-65611131D01*
X172856572Y-65518115D01*
X172856572Y-65518114D01*
X172862350Y-65513180D01*
X172954791Y-65384535D01*
X173013878Y-65237552D01*
X173014949Y-65230027D01*
X173026619Y-65148028D01*
X173056020Y-65083406D01*
X173115691Y-65044937D01*
X173169224Y-65041055D01*
X173277506Y-65056562D01*
X173277507Y-65056562D01*
X173286396Y-65057835D01*
X173295285Y-65056562D01*
X173420561Y-65038621D01*
X173420563Y-65038620D01*
X173429448Y-65037348D01*
X173503293Y-65003773D01*
X173553814Y-64980803D01*
X173553816Y-64980802D01*
X173561001Y-64977535D01*
X173609363Y-64938651D01*
X174348651Y-64199363D01*
X174387535Y-64151001D01*
X174391723Y-64141791D01*
X174443633Y-64027619D01*
X174443633Y-64027618D01*
X174447348Y-64019448D01*
X174467835Y-63876396D01*
X174462116Y-63836459D01*
X174448621Y-63742230D01*
X174448620Y-63742228D01*
X174447348Y-63733343D01*
X174432918Y-63701605D01*
X174390803Y-63608978D01*
X174390802Y-63608976D01*
X174387535Y-63601791D01*
X174348651Y-63553429D01*
X173803817Y-63008595D01*
X173801158Y-63006457D01*
X173761608Y-62974658D01*
X173761607Y-62974658D01*
X173755455Y-62969711D01*
X173748270Y-62966444D01*
X173748268Y-62966443D01*
X173632074Y-62913613D01*
X173632073Y-62913613D01*
X173623903Y-62909898D01*
X173615018Y-62908626D01*
X173615016Y-62908625D01*
X173489739Y-62890684D01*
X173480850Y-62889411D01*
X173337798Y-62909898D01*
X173329630Y-62913612D01*
X173321708Y-62915928D01*
X173250712Y-62915848D01*
X173191029Y-62877396D01*
X173161609Y-62812782D01*
X173173635Y-62738672D01*
X173205220Y-62675462D01*
X173210170Y-62661789D01*
X173247325Y-62503990D01*
X173248997Y-62489545D01*
X173248856Y-62327429D01*
X173247160Y-62312993D01*
X173209727Y-62155255D01*
X173204754Y-62141591D01*
X173131842Y-61996305D01*
X173124413Y-61984822D01*
X173064533Y-61911272D01*
X173060223Y-61906498D01*
X172980652Y-61826928D01*
X172966716Y-61819318D01*
X172964879Y-61819449D01*
X172958263Y-61823701D01*
X172005472Y-62776492D01*
X171943160Y-62810518D01*
X171872345Y-62805453D01*
X171827282Y-62776492D01*
X170974949Y-61924159D01*
X170961005Y-61916545D01*
X170959172Y-61916676D01*
X170952557Y-61920927D01*
X170772558Y-62100926D01*
X170768209Y-62105749D01*
X170707610Y-62180379D01*
X170700188Y-62191890D01*
X170627534Y-62337291D01*
X170622584Y-62350965D01*
X170611109Y-62399701D01*
X170576027Y-62461424D01*
X170513144Y-62494382D01*
X170442424Y-62488111D01*
X170399368Y-62459918D01*
X170136630Y-62197180D01*
X170126775Y-62186091D01*
X170111898Y-62167220D01*
X170106067Y-62159823D01*
X170098320Y-62154468D01*
X170098318Y-62154467D01*
X170073345Y-62137208D01*
X170058412Y-62126887D01*
X170055199Y-62124591D01*
X170016163Y-62095758D01*
X170008584Y-62090160D01*
X170001853Y-62087796D01*
X169995987Y-62083742D01*
X169940769Y-62066279D01*
X169937028Y-62065031D01*
X169891217Y-62048943D01*
X169891212Y-62048942D01*
X169882330Y-62045823D01*
X169875201Y-62045543D01*
X169868403Y-62043393D01*
X169861860Y-62042878D01*
X169809844Y-62042878D01*
X169804898Y-62042781D01*
X169804636Y-62042771D01*
X169748619Y-62040570D01*
X169741584Y-62042435D01*
X169733538Y-62042878D01*
X169168944Y-62042878D01*
X169100823Y-62022876D01*
X169054330Y-61969220D01*
X169044226Y-61898946D01*
X169065291Y-61845240D01*
X169077947Y-61826928D01*
X169080995Y-61822518D01*
X169083290Y-61819306D01*
X169106707Y-61787602D01*
X169117718Y-61772695D01*
X169120081Y-61765966D01*
X169124136Y-61760099D01*
X169141596Y-61704890D01*
X169142847Y-61701140D01*
X169158935Y-61655329D01*
X169158936Y-61655321D01*
X169162055Y-61646441D01*
X169162335Y-61639313D01*
X169164485Y-61632515D01*
X169165000Y-61625972D01*
X169165000Y-61573956D01*
X169165097Y-61569010D01*
X169165715Y-61553267D01*
X171326544Y-61553267D01*
X171326676Y-61555103D01*
X171330925Y-61561715D01*
X171903565Y-62134355D01*
X171917509Y-62141969D01*
X171919342Y-62141838D01*
X171925957Y-62137587D01*
X172595822Y-61467722D01*
X172603436Y-61453778D01*
X172603305Y-61451945D01*
X172599054Y-61445330D01*
X172516282Y-61362558D01*
X172511459Y-61358209D01*
X172436829Y-61297610D01*
X172425318Y-61290188D01*
X172279917Y-61217534D01*
X172266243Y-61212584D01*
X172108444Y-61175429D01*
X172093999Y-61173757D01*
X171931883Y-61173898D01*
X171917447Y-61175594D01*
X171759710Y-61213027D01*
X171746046Y-61218000D01*
X171600762Y-61290911D01*
X171589277Y-61298342D01*
X171515714Y-61358231D01*
X171510963Y-61362520D01*
X171334155Y-61539329D01*
X171326544Y-61553267D01*
X169165715Y-61553267D01*
X169166938Y-61522141D01*
X169167308Y-61512731D01*
X169165443Y-61505696D01*
X169165000Y-61497650D01*
X169165000Y-53440542D01*
X169185002Y-53372421D01*
X169238658Y-53325928D01*
X169246771Y-53322560D01*
X169306361Y-53300221D01*
X169306360Y-53300221D01*
X169314764Y-53297071D01*
X169321943Y-53291691D01*
X169321946Y-53291689D01*
X169423224Y-53215785D01*
X169430404Y-53210404D01*
X169517071Y-53094764D01*
X169520223Y-53086355D01*
X169524181Y-53079126D01*
X169574438Y-53028979D01*
X169643829Y-53013964D01*
X169710322Y-53038848D01*
X169754226Y-53099757D01*
X169776588Y-53166784D01*
X169782761Y-53179962D01*
X169868063Y-53317807D01*
X169877099Y-53329208D01*
X169991829Y-53443739D01*
X170003240Y-53452751D01*
X170141243Y-53537816D01*
X170154424Y-53543963D01*
X170308710Y-53595138D01*
X170322086Y-53598005D01*
X170416438Y-53607672D01*
X170422854Y-53608000D01*
X170535385Y-53608000D01*
X170550624Y-53603525D01*
X170551829Y-53602135D01*
X170553500Y-53594452D01*
X170553500Y-53589884D01*
X171061500Y-53589884D01*
X171065975Y-53605123D01*
X171067365Y-53606328D01*
X171075048Y-53607999D01*
X171192095Y-53607999D01*
X171198614Y-53607662D01*
X171294206Y-53597743D01*
X171307600Y-53594851D01*
X171461784Y-53543412D01*
X171474962Y-53537239D01*
X171612807Y-53451937D01*
X171624208Y-53442901D01*
X171738739Y-53328171D01*
X171747751Y-53316760D01*
X171832816Y-53178757D01*
X171838963Y-53165576D01*
X171890138Y-53011290D01*
X171893005Y-52997914D01*
X171902672Y-52903562D01*
X171903000Y-52897146D01*
X171903000Y-52647115D01*
X171898525Y-52631876D01*
X171897135Y-52630671D01*
X171889452Y-52629000D01*
X171079615Y-52629000D01*
X171064376Y-52633475D01*
X171063171Y-52634865D01*
X171061500Y-52642548D01*
X171061500Y-53589884D01*
X170553500Y-53589884D01*
X170553500Y-52247000D01*
X170573502Y-52178879D01*
X170627158Y-52132386D01*
X170679500Y-52121000D01*
X171884884Y-52121000D01*
X171900123Y-52116525D01*
X171901328Y-52115135D01*
X171902999Y-52107452D01*
X171902999Y-51852905D01*
X171902662Y-51846386D01*
X171892743Y-51750794D01*
X171889851Y-51737400D01*
X171838412Y-51583216D01*
X171832239Y-51570038D01*
X171746937Y-51432193D01*
X171737901Y-51420792D01*
X171623171Y-51306261D01*
X171611760Y-51297249D01*
X171473757Y-51212184D01*
X171460576Y-51206037D01*
X171306290Y-51154862D01*
X171292914Y-51151995D01*
X171198562Y-51142328D01*
X171192145Y-51142000D01*
X171000500Y-51142000D01*
X170932379Y-51121998D01*
X170885886Y-51068342D01*
X170874500Y-51016000D01*
X170874499Y-49081123D01*
X170874499Y-49074934D01*
X170859734Y-49000699D01*
X170803484Y-48916516D01*
X170719301Y-48860266D01*
X170645067Y-48845500D01*
X169291008Y-48845500D01*
X169222887Y-48825498D01*
X169176394Y-48771842D01*
X169165008Y-48719500D01*
X169165008Y-45180499D01*
X169185010Y-45112378D01*
X169238666Y-45065885D01*
X169291008Y-45054499D01*
X169495066Y-45054499D01*
X169530818Y-45047388D01*
X169557126Y-45042156D01*
X169557128Y-45042155D01*
X169569301Y-45039734D01*
X169579621Y-45032839D01*
X169579622Y-45032838D01*
X169643168Y-44990377D01*
X169653484Y-44983484D01*
X169709734Y-44899301D01*
X169724500Y-44825067D01*
X169724499Y-42774934D01*
X169709734Y-42700699D01*
X169690509Y-42671927D01*
X169669294Y-42604174D01*
X169688077Y-42535707D01*
X169728972Y-42494780D01*
X169757809Y-42476935D01*
X169769208Y-42467901D01*
X169883739Y-42353171D01*
X169892751Y-42341760D01*
X169977816Y-42203757D01*
X169983964Y-42190574D01*
X170005717Y-42124990D01*
X170046147Y-42066630D01*
X170111712Y-42039393D01*
X170181593Y-42051926D01*
X170235830Y-42104147D01*
X170239777Y-42111357D01*
X170242929Y-42119764D01*
X170329596Y-42235404D01*
X170336775Y-42240784D01*
X170343126Y-42247135D01*
X170341527Y-42248734D01*
X170376578Y-42295607D01*
X170384500Y-42339579D01*
X170384500Y-42419501D01*
X170364498Y-42487622D01*
X170310842Y-42534115D01*
X170258500Y-42545501D01*
X170244934Y-42545501D01*
X170209182Y-42552612D01*
X170182874Y-42557844D01*
X170182872Y-42557845D01*
X170170699Y-42560266D01*
X170160379Y-42567161D01*
X170160378Y-42567162D01*
X170104987Y-42604174D01*
X170086516Y-42616516D01*
X170030266Y-42700699D01*
X170015500Y-42774933D01*
X170015501Y-44825066D01*
X170030266Y-44899301D01*
X170037161Y-44909620D01*
X170037162Y-44909622D01*
X170072213Y-44962078D01*
X170086516Y-44983484D01*
X170170699Y-45039734D01*
X170244933Y-45054500D01*
X171019874Y-45054500D01*
X171795066Y-45054499D01*
X171830818Y-45047388D01*
X171857126Y-45042156D01*
X171857128Y-45042155D01*
X171869301Y-45039734D01*
X171879621Y-45032839D01*
X171879622Y-45032838D01*
X171943168Y-44990377D01*
X171953484Y-44983484D01*
X172009734Y-44899301D01*
X172024500Y-44825067D01*
X172024499Y-42774934D01*
X172009734Y-42700699D01*
X171953484Y-42616516D01*
X171869301Y-42560266D01*
X171795067Y-42545500D01*
X171781500Y-42545500D01*
X171713379Y-42525498D01*
X171666886Y-42471842D01*
X171655500Y-42419500D01*
X171655500Y-42350821D01*
X171675502Y-42282700D01*
X171705935Y-42249995D01*
X171725404Y-42235404D01*
X171806685Y-42126951D01*
X171806689Y-42126946D01*
X171806691Y-42126943D01*
X171812071Y-42119764D01*
X171862798Y-41984448D01*
X171869500Y-41922756D01*
X171869500Y-40877244D01*
X171862798Y-40815552D01*
X171812071Y-40680236D01*
X171806688Y-40673053D01*
X171802377Y-40665179D01*
X171803857Y-40664369D01*
X171782663Y-40607655D01*
X171797710Y-40538271D01*
X171819241Y-40509491D01*
X172086327Y-40242405D01*
X172148639Y-40208379D01*
X172175422Y-40205500D01*
X175899988Y-40205500D01*
X175974049Y-40229564D01*
X176053937Y-40287606D01*
X176090396Y-40314095D01*
X176096424Y-40316779D01*
X176096426Y-40316780D01*
X176215458Y-40369776D01*
X176254490Y-40387154D01*
X176342339Y-40405827D01*
X176423731Y-40423128D01*
X176423736Y-40423128D01*
X176430188Y-40424500D01*
X176609812Y-40424500D01*
X176616264Y-40423128D01*
X176616269Y-40423128D01*
X176697661Y-40405827D01*
X176785510Y-40387154D01*
X176824542Y-40369776D01*
X176943574Y-40316780D01*
X176943576Y-40316779D01*
X176949604Y-40314095D01*
X176986063Y-40287606D01*
X177089578Y-40212398D01*
X177089580Y-40212396D01*
X177094922Y-40208515D01*
X177099426Y-40203513D01*
X177210694Y-40079937D01*
X177210695Y-40079936D01*
X177215113Y-40075029D01*
X177264836Y-39988906D01*
X177301624Y-39925189D01*
X177301625Y-39925187D01*
X177304925Y-39919471D01*
X177305800Y-39916778D01*
X177350874Y-39863749D01*
X177418802Y-39843100D01*
X177487110Y-39862453D01*
X177534111Y-39915664D01*
X177546000Y-39969094D01*
X177546000Y-41710906D01*
X177525998Y-41779027D01*
X177472342Y-41825520D01*
X177402068Y-41835624D01*
X177337488Y-41806130D01*
X177305890Y-41763500D01*
X177304925Y-41760529D01*
X177215113Y-41604971D01*
X177207145Y-41596121D01*
X177099344Y-41476396D01*
X177099343Y-41476395D01*
X177094922Y-41471485D01*
X176949604Y-41365905D01*
X176943576Y-41363221D01*
X176943574Y-41363220D01*
X176791541Y-41295531D01*
X176791540Y-41295531D01*
X176785510Y-41292846D01*
X176697661Y-41274173D01*
X176616269Y-41256872D01*
X176616264Y-41256872D01*
X176609812Y-41255500D01*
X176430188Y-41255500D01*
X176423736Y-41256872D01*
X176423731Y-41256872D01*
X176342339Y-41274173D01*
X176254490Y-41292846D01*
X176248460Y-41295531D01*
X176248459Y-41295531D01*
X176096427Y-41363220D01*
X176096425Y-41363221D01*
X176090397Y-41365905D01*
X176085056Y-41369785D01*
X176085055Y-41369786D01*
X175950422Y-41467602D01*
X175950420Y-41467604D01*
X175945078Y-41471485D01*
X175940657Y-41476395D01*
X175940656Y-41476396D01*
X175832856Y-41596121D01*
X175824887Y-41604971D01*
X175735075Y-41760529D01*
X175733034Y-41766811D01*
X175733033Y-41766813D01*
X175713958Y-41825520D01*
X175679569Y-41931361D01*
X175660793Y-42110000D01*
X175679569Y-42288639D01*
X175681609Y-42294917D01*
X175681609Y-42294918D01*
X175726057Y-42431715D01*
X175735075Y-42459471D01*
X175738378Y-42465193D01*
X175738379Y-42465194D01*
X175747017Y-42480155D01*
X175824887Y-42615029D01*
X175829305Y-42619936D01*
X175829306Y-42619937D01*
X175892731Y-42690378D01*
X175945078Y-42748515D01*
X175950420Y-42752396D01*
X175950422Y-42752398D01*
X175989959Y-42781123D01*
X176090396Y-42854095D01*
X176096424Y-42856779D01*
X176096426Y-42856780D01*
X176248459Y-42924469D01*
X176254490Y-42927154D01*
X176342339Y-42945827D01*
X176423731Y-42963128D01*
X176423736Y-42963128D01*
X176430188Y-42964500D01*
X176609812Y-42964500D01*
X176616264Y-42963128D01*
X176616269Y-42963128D01*
X176697661Y-42945827D01*
X176785510Y-42927154D01*
X176791541Y-42924469D01*
X176943574Y-42856780D01*
X176943576Y-42856779D01*
X176949604Y-42854095D01*
X177050041Y-42781123D01*
X177089578Y-42752398D01*
X177089580Y-42752396D01*
X177094922Y-42748515D01*
X177147269Y-42690378D01*
X177210694Y-42619937D01*
X177210695Y-42619936D01*
X177215113Y-42615029D01*
X177292983Y-42480155D01*
X177301624Y-42465189D01*
X177301625Y-42465187D01*
X177304925Y-42459471D01*
X177305800Y-42456778D01*
X177350874Y-42403749D01*
X177418802Y-42383100D01*
X177487110Y-42402453D01*
X177534111Y-42455664D01*
X177546000Y-42509094D01*
X177546000Y-44250906D01*
X177525998Y-44319027D01*
X177472342Y-44365520D01*
X177402068Y-44375624D01*
X177337488Y-44346130D01*
X177305890Y-44303500D01*
X177304925Y-44300529D01*
X177215113Y-44144971D01*
X177138484Y-44059865D01*
X177099344Y-44016396D01*
X177099343Y-44016395D01*
X177094922Y-44011485D01*
X176949604Y-43905905D01*
X176943576Y-43903221D01*
X176943574Y-43903220D01*
X176791541Y-43835531D01*
X176791540Y-43835531D01*
X176785510Y-43832846D01*
X176697661Y-43814173D01*
X176616269Y-43796872D01*
X176616264Y-43796872D01*
X176609812Y-43795500D01*
X176430188Y-43795500D01*
X176423736Y-43796872D01*
X176423731Y-43796872D01*
X176342339Y-43814173D01*
X176254490Y-43832846D01*
X176248460Y-43835531D01*
X176248459Y-43835531D01*
X176096427Y-43903220D01*
X176096425Y-43903221D01*
X176090397Y-43905905D01*
X176085056Y-43909785D01*
X176085055Y-43909786D01*
X175950422Y-44007602D01*
X175950420Y-44007604D01*
X175945078Y-44011485D01*
X175940657Y-44016395D01*
X175940656Y-44016396D01*
X175901517Y-44059865D01*
X175824887Y-44144971D01*
X175735075Y-44300529D01*
X175733034Y-44306811D01*
X175733033Y-44306813D01*
X175713958Y-44365520D01*
X175679569Y-44471361D01*
X175660793Y-44650000D01*
X175679569Y-44828639D01*
X175681609Y-44834917D01*
X175681609Y-44834918D01*
X175729881Y-44983484D01*
X175735075Y-44999471D01*
X175738378Y-45005193D01*
X175738379Y-45005194D01*
X175754340Y-45032839D01*
X175824887Y-45155029D01*
X175945078Y-45288515D01*
X175950420Y-45292396D01*
X175950422Y-45292398D01*
X176085054Y-45390214D01*
X176090396Y-45394095D01*
X176096424Y-45396779D01*
X176096426Y-45396780D01*
X176248459Y-45464469D01*
X176254490Y-45467154D01*
X176342339Y-45485827D01*
X176423731Y-45503128D01*
X176423736Y-45503128D01*
X176430188Y-45504500D01*
X176609812Y-45504500D01*
X176616264Y-45503128D01*
X176616269Y-45503128D01*
X176697661Y-45485827D01*
X176785510Y-45467154D01*
X176791541Y-45464469D01*
X176943574Y-45396780D01*
X176943576Y-45396779D01*
X176949604Y-45394095D01*
X176954946Y-45390214D01*
X177089578Y-45292398D01*
X177089580Y-45292396D01*
X177094922Y-45288515D01*
X177215113Y-45155029D01*
X177285660Y-45032839D01*
X177301624Y-45005189D01*
X177301625Y-45005187D01*
X177304925Y-44999471D01*
X177305800Y-44996778D01*
X177350874Y-44943749D01*
X177418802Y-44923100D01*
X177487110Y-44942453D01*
X177534111Y-44995664D01*
X177546000Y-45049094D01*
X177546000Y-46790906D01*
X177525998Y-46859027D01*
X177472342Y-46905520D01*
X177402068Y-46915624D01*
X177337488Y-46886130D01*
X177305890Y-46843500D01*
X177304925Y-46840529D01*
X177215113Y-46684971D01*
X177094922Y-46551485D01*
X176949604Y-46445905D01*
X176943576Y-46443221D01*
X176943574Y-46443220D01*
X176791541Y-46375531D01*
X176791540Y-46375531D01*
X176785510Y-46372846D01*
X176697661Y-46354173D01*
X176616269Y-46336872D01*
X176616264Y-46336872D01*
X176609812Y-46335500D01*
X176430188Y-46335500D01*
X176423736Y-46336872D01*
X176423731Y-46336872D01*
X176342339Y-46354173D01*
X176254490Y-46372846D01*
X176248460Y-46375531D01*
X176248459Y-46375531D01*
X176096427Y-46443220D01*
X176096425Y-46443221D01*
X176090397Y-46445905D01*
X176085056Y-46449785D01*
X176085055Y-46449786D01*
X175950422Y-46547602D01*
X175950420Y-46547604D01*
X175945078Y-46551485D01*
X175824887Y-46684971D01*
X175735075Y-46840529D01*
X175733034Y-46846811D01*
X175733033Y-46846813D01*
X175713958Y-46905520D01*
X175679569Y-47011361D01*
X175660793Y-47190000D01*
X175679569Y-47368639D01*
X175735075Y-47539471D01*
X175738378Y-47545193D01*
X175738379Y-47545194D01*
X175749119Y-47563796D01*
X175824887Y-47695029D01*
X175945078Y-47828515D01*
X176090396Y-47934095D01*
X176096424Y-47936779D01*
X176096426Y-47936780D01*
X176248459Y-48004469D01*
X176254490Y-48007154D01*
X176342339Y-48025827D01*
X176423731Y-48043128D01*
X176423736Y-48043128D01*
X176430188Y-48044500D01*
X176609812Y-48044500D01*
X176616264Y-48043128D01*
X176616269Y-48043128D01*
X176697661Y-48025827D01*
X176785510Y-48007154D01*
X176791541Y-48004469D01*
X176943574Y-47936780D01*
X176943576Y-47936779D01*
X176949604Y-47934095D01*
X177094922Y-47828515D01*
X177215113Y-47695029D01*
X177290881Y-47563796D01*
X177301624Y-47545189D01*
X177301625Y-47545187D01*
X177304925Y-47539471D01*
X177305800Y-47536778D01*
X177350874Y-47483749D01*
X177418802Y-47463100D01*
X177487110Y-47482453D01*
X177534111Y-47535664D01*
X177546000Y-47589094D01*
X177546000Y-49330906D01*
X177525998Y-49399027D01*
X177472342Y-49445520D01*
X177402068Y-49455624D01*
X177337488Y-49426130D01*
X177305890Y-49383500D01*
X177304925Y-49380529D01*
X177215113Y-49224971D01*
X177094922Y-49091485D01*
X177072141Y-49074933D01*
X176954946Y-48989786D01*
X176954945Y-48989785D01*
X176949604Y-48985905D01*
X176943576Y-48983221D01*
X176943574Y-48983220D01*
X176791541Y-48915531D01*
X176791540Y-48915531D01*
X176785510Y-48912846D01*
X176697661Y-48894173D01*
X176616269Y-48876872D01*
X176616264Y-48876872D01*
X176609812Y-48875500D01*
X176430188Y-48875500D01*
X176423736Y-48876872D01*
X176423731Y-48876872D01*
X176342339Y-48894173D01*
X176254490Y-48912846D01*
X176248460Y-48915531D01*
X176248459Y-48915531D01*
X176096427Y-48983220D01*
X176096425Y-48983221D01*
X176090397Y-48985905D01*
X176085056Y-48989785D01*
X176085055Y-48989786D01*
X175950422Y-49087602D01*
X175950420Y-49087604D01*
X175945078Y-49091485D01*
X175824887Y-49224971D01*
X175735075Y-49380529D01*
X175733034Y-49386811D01*
X175733033Y-49386813D01*
X175713958Y-49445520D01*
X175679569Y-49551361D01*
X175660793Y-49730000D01*
X175679569Y-49908639D01*
X175735075Y-50079471D01*
X175738378Y-50085193D01*
X175738379Y-50085194D01*
X175749119Y-50103796D01*
X175824887Y-50235029D01*
X175945078Y-50368515D01*
X176090396Y-50474095D01*
X176096424Y-50476779D01*
X176096426Y-50476780D01*
X176248459Y-50544469D01*
X176254490Y-50547154D01*
X176342339Y-50565827D01*
X176423731Y-50583128D01*
X176423736Y-50583128D01*
X176430188Y-50584500D01*
X176609812Y-50584500D01*
X176616264Y-50583128D01*
X176616269Y-50583128D01*
X176697661Y-50565827D01*
X176785510Y-50547154D01*
X176791541Y-50544469D01*
X176943574Y-50476780D01*
X176943576Y-50476779D01*
X176949604Y-50474095D01*
X177094922Y-50368515D01*
X177215113Y-50235029D01*
X177290881Y-50103796D01*
X177301624Y-50085189D01*
X177301625Y-50085187D01*
X177304925Y-50079471D01*
X177305800Y-50076778D01*
X177350874Y-50023749D01*
X177418802Y-50003100D01*
X177487110Y-50022453D01*
X177534111Y-50075664D01*
X177546000Y-50129094D01*
X177546000Y-51870906D01*
X177525998Y-51939027D01*
X177472342Y-51985520D01*
X177402068Y-51995624D01*
X177337488Y-51966130D01*
X177305890Y-51923500D01*
X177304925Y-51920529D01*
X177215113Y-51764971D01*
X177164150Y-51708370D01*
X177099344Y-51636396D01*
X177099343Y-51636395D01*
X177094922Y-51631485D01*
X177012000Y-51571238D01*
X176954946Y-51529786D01*
X176954945Y-51529785D01*
X176949604Y-51525905D01*
X176943576Y-51523221D01*
X176943574Y-51523220D01*
X176791541Y-51455531D01*
X176791540Y-51455531D01*
X176785510Y-51452846D01*
X176688346Y-51432193D01*
X176616269Y-51416872D01*
X176616264Y-51416872D01*
X176609812Y-51415500D01*
X176430188Y-51415500D01*
X176423736Y-51416872D01*
X176423731Y-51416872D01*
X176351654Y-51432193D01*
X176254490Y-51452846D01*
X176248460Y-51455531D01*
X176248459Y-51455531D01*
X176096427Y-51523220D01*
X176096425Y-51523221D01*
X176090397Y-51525905D01*
X176085056Y-51529785D01*
X176085055Y-51529786D01*
X175950422Y-51627602D01*
X175950420Y-51627604D01*
X175945078Y-51631485D01*
X175940657Y-51636395D01*
X175940656Y-51636396D01*
X175875851Y-51708370D01*
X175824887Y-51764971D01*
X175735075Y-51920529D01*
X175733034Y-51926811D01*
X175733033Y-51926813D01*
X175713958Y-51985520D01*
X175679569Y-52091361D01*
X175660793Y-52270000D01*
X175679569Y-52448639D01*
X175735075Y-52619471D01*
X175738378Y-52625193D01*
X175738379Y-52625194D01*
X175749119Y-52643796D01*
X175824887Y-52775029D01*
X175829305Y-52779936D01*
X175829306Y-52779937D01*
X175938449Y-52901153D01*
X175945078Y-52908515D01*
X176090396Y-53014095D01*
X176096424Y-53016779D01*
X176096426Y-53016780D01*
X176248459Y-53084469D01*
X176254490Y-53087154D01*
X176324095Y-53101949D01*
X176423731Y-53123128D01*
X176423736Y-53123128D01*
X176430188Y-53124500D01*
X176609812Y-53124500D01*
X176616264Y-53123128D01*
X176616269Y-53123128D01*
X176715905Y-53101949D01*
X176785510Y-53087154D01*
X176791541Y-53084469D01*
X176943574Y-53016780D01*
X176943576Y-53016779D01*
X176949604Y-53014095D01*
X177094922Y-52908515D01*
X177101551Y-52901153D01*
X177210694Y-52779937D01*
X177210695Y-52779936D01*
X177215113Y-52775029D01*
X177290881Y-52643796D01*
X177301624Y-52625189D01*
X177301625Y-52625187D01*
X177304925Y-52619471D01*
X177305800Y-52616778D01*
X177350874Y-52563749D01*
X177418802Y-52543100D01*
X177487110Y-52562453D01*
X177534111Y-52615664D01*
X177546000Y-52669094D01*
X177546000Y-54410906D01*
X177525998Y-54479027D01*
X177472342Y-54525520D01*
X177402068Y-54535624D01*
X177337488Y-54506130D01*
X177305890Y-54463500D01*
X177304925Y-54460529D01*
X177215113Y-54304971D01*
X177094922Y-54171485D01*
X176949604Y-54065905D01*
X176943576Y-54063221D01*
X176943574Y-54063220D01*
X176791541Y-53995531D01*
X176791540Y-53995531D01*
X176785510Y-53992846D01*
X176697661Y-53974173D01*
X176616269Y-53956872D01*
X176616264Y-53956872D01*
X176609812Y-53955500D01*
X176430188Y-53955500D01*
X176423736Y-53956872D01*
X176423731Y-53956872D01*
X176342339Y-53974173D01*
X176254490Y-53992846D01*
X176248460Y-53995531D01*
X176248459Y-53995531D01*
X176096427Y-54063220D01*
X176096425Y-54063221D01*
X176090397Y-54065905D01*
X176085056Y-54069785D01*
X176085055Y-54069786D01*
X175950422Y-54167602D01*
X175950420Y-54167604D01*
X175945078Y-54171485D01*
X175824887Y-54304971D01*
X175735075Y-54460529D01*
X175733034Y-54466811D01*
X175733033Y-54466813D01*
X175713958Y-54525520D01*
X175679569Y-54631361D01*
X175660793Y-54810000D01*
X175679569Y-54988639D01*
X175735075Y-55159471D01*
X175738378Y-55165193D01*
X175738379Y-55165194D01*
X175749119Y-55183796D01*
X175824887Y-55315029D01*
X175945078Y-55448515D01*
X176090396Y-55554095D01*
X176096424Y-55556779D01*
X176096426Y-55556780D01*
X176248459Y-55624469D01*
X176254490Y-55627154D01*
X176342339Y-55645827D01*
X176423731Y-55663128D01*
X176423736Y-55663128D01*
X176430188Y-55664500D01*
X176609812Y-55664500D01*
X176616264Y-55663128D01*
X176616269Y-55663128D01*
X176697661Y-55645827D01*
X176785510Y-55627154D01*
X176791541Y-55624469D01*
X176943574Y-55556780D01*
X176943576Y-55556779D01*
X176949604Y-55554095D01*
X177094922Y-55448515D01*
X177215113Y-55315029D01*
X177290881Y-55183796D01*
X177301624Y-55165189D01*
X177301625Y-55165187D01*
X177304925Y-55159471D01*
X177305800Y-55156778D01*
X177350874Y-55103749D01*
X177418802Y-55083100D01*
X177487110Y-55102453D01*
X177534111Y-55155664D01*
X177546000Y-55209094D01*
X177546000Y-56950906D01*
X177525998Y-57019027D01*
X177472342Y-57065520D01*
X177402068Y-57075624D01*
X177337488Y-57046130D01*
X177305890Y-57003500D01*
X177304925Y-57000529D01*
X177215113Y-56844971D01*
X177094922Y-56711485D01*
X176949604Y-56605905D01*
X176943576Y-56603221D01*
X176943574Y-56603220D01*
X176791541Y-56535531D01*
X176791540Y-56535531D01*
X176785510Y-56532846D01*
X176697661Y-56514173D01*
X176616269Y-56496872D01*
X176616264Y-56496872D01*
X176609812Y-56495500D01*
X176430188Y-56495500D01*
X176423736Y-56496872D01*
X176423731Y-56496872D01*
X176342339Y-56514173D01*
X176254490Y-56532846D01*
X176248460Y-56535531D01*
X176248459Y-56535531D01*
X176096427Y-56603220D01*
X176096425Y-56603221D01*
X176090397Y-56605905D01*
X176085056Y-56609785D01*
X176085055Y-56609786D01*
X175950422Y-56707602D01*
X175950420Y-56707604D01*
X175945078Y-56711485D01*
X175824887Y-56844971D01*
X175735075Y-57000529D01*
X175733034Y-57006811D01*
X175733033Y-57006813D01*
X175713958Y-57065520D01*
X175679569Y-57171361D01*
X175660793Y-57350000D01*
X175679569Y-57528639D01*
X175735075Y-57699471D01*
X175738378Y-57705193D01*
X175738379Y-57705194D01*
X175749119Y-57723796D01*
X175824887Y-57855029D01*
X175945078Y-57988515D01*
X176090396Y-58094095D01*
X176096424Y-58096779D01*
X176096426Y-58096780D01*
X176248459Y-58164469D01*
X176254490Y-58167154D01*
X176342339Y-58185827D01*
X176423731Y-58203128D01*
X176423736Y-58203128D01*
X176430188Y-58204500D01*
X176609812Y-58204500D01*
X176616264Y-58203128D01*
X176616269Y-58203128D01*
X176697661Y-58185827D01*
X176785510Y-58167154D01*
X176791541Y-58164469D01*
X176943574Y-58096780D01*
X176943576Y-58096779D01*
X176949604Y-58094095D01*
X177094922Y-57988515D01*
X177215113Y-57855029D01*
X177290881Y-57723796D01*
X177301624Y-57705189D01*
X177301625Y-57705187D01*
X177304925Y-57699471D01*
X177305800Y-57696778D01*
X177350874Y-57643749D01*
X177418802Y-57623100D01*
X177487110Y-57642453D01*
X177534111Y-57695664D01*
X177546000Y-57749094D01*
X177546000Y-59490906D01*
X177525998Y-59559027D01*
X177472342Y-59605520D01*
X177402068Y-59615624D01*
X177337488Y-59586130D01*
X177305890Y-59543500D01*
X177304925Y-59540529D01*
X177215113Y-59384971D01*
X177094922Y-59251485D01*
X176949604Y-59145905D01*
X176943576Y-59143221D01*
X176943574Y-59143220D01*
X176791541Y-59075531D01*
X176791540Y-59075531D01*
X176785510Y-59072846D01*
X176697661Y-59054173D01*
X176616269Y-59036872D01*
X176616264Y-59036872D01*
X176609812Y-59035500D01*
X176430188Y-59035500D01*
X176423736Y-59036872D01*
X176423731Y-59036872D01*
X176342339Y-59054173D01*
X176254490Y-59072846D01*
X176248460Y-59075531D01*
X176248459Y-59075531D01*
X176096427Y-59143220D01*
X176096425Y-59143221D01*
X176090397Y-59145905D01*
X176085056Y-59149785D01*
X176085055Y-59149786D01*
X175950422Y-59247602D01*
X175950420Y-59247604D01*
X175945078Y-59251485D01*
X175824887Y-59384971D01*
X175735075Y-59540529D01*
X175733034Y-59546811D01*
X175733033Y-59546813D01*
X175713958Y-59605520D01*
X175679569Y-59711361D01*
X175660793Y-59890000D01*
X175679569Y-60068639D01*
X175735075Y-60239471D01*
X175738378Y-60245193D01*
X175738379Y-60245194D01*
X175749119Y-60263796D01*
X175824887Y-60395029D01*
X175829305Y-60399936D01*
X175829306Y-60399937D01*
X175940656Y-60523604D01*
X175945078Y-60528515D01*
X176090396Y-60634095D01*
X176096424Y-60636779D01*
X176096426Y-60636780D01*
X176248459Y-60704469D01*
X176254490Y-60707154D01*
X176342339Y-60725827D01*
X176423731Y-60743128D01*
X176423736Y-60743128D01*
X176430188Y-60744500D01*
X176609812Y-60744500D01*
X176616264Y-60743128D01*
X176616269Y-60743128D01*
X176697661Y-60725827D01*
X176785510Y-60707154D01*
X176791541Y-60704469D01*
X176943574Y-60636780D01*
X176943576Y-60636779D01*
X176949604Y-60634095D01*
X177094922Y-60528515D01*
X177099344Y-60523604D01*
X177210694Y-60399937D01*
X177210695Y-60399936D01*
X177215113Y-60395029D01*
X177290881Y-60263796D01*
X177301624Y-60245189D01*
X177301625Y-60245187D01*
X177304925Y-60239471D01*
X177305800Y-60236778D01*
X177350874Y-60183749D01*
X177418802Y-60163100D01*
X177487110Y-60182453D01*
X177534111Y-60235664D01*
X177546000Y-60289094D01*
X177546000Y-62030906D01*
X177525998Y-62099027D01*
X177472342Y-62145520D01*
X177402068Y-62155624D01*
X177337488Y-62126130D01*
X177305890Y-62083500D01*
X177304925Y-62080529D01*
X177284888Y-62045823D01*
X177230566Y-61951737D01*
X177215113Y-61924971D01*
X177202779Y-61911272D01*
X177099344Y-61796396D01*
X177099343Y-61796395D01*
X177094922Y-61791485D01*
X177086805Y-61785587D01*
X176954946Y-61689786D01*
X176954945Y-61689785D01*
X176949604Y-61685905D01*
X176943576Y-61683221D01*
X176943574Y-61683220D01*
X176791541Y-61615531D01*
X176791540Y-61615531D01*
X176785510Y-61612846D01*
X176697661Y-61594173D01*
X176616269Y-61576872D01*
X176616264Y-61576872D01*
X176609812Y-61575500D01*
X176430188Y-61575500D01*
X176423736Y-61576872D01*
X176423731Y-61576872D01*
X176342339Y-61594173D01*
X176254490Y-61612846D01*
X176248460Y-61615531D01*
X176248459Y-61615531D01*
X176096427Y-61683220D01*
X176096425Y-61683221D01*
X176090397Y-61685905D01*
X176085056Y-61689785D01*
X176085055Y-61689786D01*
X175950422Y-61787602D01*
X175950420Y-61787604D01*
X175945078Y-61791485D01*
X175940657Y-61796395D01*
X175940656Y-61796396D01*
X175837222Y-61911272D01*
X175824887Y-61924971D01*
X175735075Y-62080529D01*
X175733034Y-62086811D01*
X175733033Y-62086813D01*
X175720010Y-62126894D01*
X175679569Y-62251361D01*
X175678879Y-62257924D01*
X175678879Y-62257925D01*
X175663978Y-62399701D01*
X175660793Y-62430000D01*
X175661483Y-62436565D01*
X175667052Y-62489545D01*
X175679569Y-62608639D01*
X175735075Y-62779471D01*
X175738378Y-62785193D01*
X175738379Y-62785194D01*
X175747826Y-62801556D01*
X175824887Y-62935029D01*
X175829305Y-62939936D01*
X175829306Y-62939937D01*
X175919800Y-63040441D01*
X175945078Y-63068515D01*
X175950420Y-63072396D01*
X175950422Y-63072398D01*
X176048222Y-63143454D01*
X176090396Y-63174095D01*
X176096424Y-63176779D01*
X176096426Y-63176780D01*
X176248459Y-63244469D01*
X176254490Y-63247154D01*
X176342339Y-63265827D01*
X176423731Y-63283128D01*
X176423736Y-63283128D01*
X176430188Y-63284500D01*
X176609812Y-63284500D01*
X176616264Y-63283128D01*
X176616269Y-63283128D01*
X176697661Y-63265827D01*
X176785510Y-63247154D01*
X176791541Y-63244469D01*
X176943574Y-63176780D01*
X176943576Y-63176779D01*
X176949604Y-63174095D01*
X176991778Y-63143454D01*
X177089578Y-63072398D01*
X177089580Y-63072396D01*
X177094922Y-63068515D01*
X177120200Y-63040441D01*
X177210694Y-62939937D01*
X177210695Y-62939936D01*
X177215113Y-62935029D01*
X177292174Y-62801556D01*
X177301624Y-62785189D01*
X177301625Y-62785187D01*
X177304925Y-62779471D01*
X177305800Y-62776778D01*
X177350874Y-62723749D01*
X177418802Y-62703100D01*
X177487110Y-62722453D01*
X177534111Y-62775664D01*
X177546000Y-62829094D01*
X177546000Y-64570906D01*
X177525998Y-64639027D01*
X177472342Y-64685520D01*
X177402068Y-64695624D01*
X177337488Y-64666130D01*
X177305890Y-64623500D01*
X177304925Y-64620529D01*
X177215113Y-64464971D01*
X177094922Y-64331485D01*
X177034267Y-64287416D01*
X176954946Y-64229786D01*
X176954945Y-64229785D01*
X176949604Y-64225905D01*
X176943576Y-64223221D01*
X176943574Y-64223220D01*
X176791541Y-64155531D01*
X176791540Y-64155531D01*
X176785510Y-64152846D01*
X176697661Y-64134173D01*
X176616269Y-64116872D01*
X176616264Y-64116872D01*
X176609812Y-64115500D01*
X176430188Y-64115500D01*
X176423736Y-64116872D01*
X176423731Y-64116872D01*
X176342339Y-64134173D01*
X176254490Y-64152846D01*
X176248460Y-64155531D01*
X176248459Y-64155531D01*
X176096427Y-64223220D01*
X176096425Y-64223221D01*
X176090397Y-64225905D01*
X176085056Y-64229785D01*
X176085055Y-64229786D01*
X175950422Y-64327602D01*
X175950420Y-64327604D01*
X175945078Y-64331485D01*
X175824887Y-64464971D01*
X175735075Y-64620529D01*
X175733034Y-64626811D01*
X175733033Y-64626813D01*
X175713958Y-64685520D01*
X175679569Y-64791361D01*
X175660793Y-64970000D01*
X175661483Y-64976565D01*
X175661615Y-64977816D01*
X175679569Y-65148639D01*
X175735075Y-65319471D01*
X175738378Y-65325193D01*
X175738379Y-65325194D01*
X175749119Y-65343796D01*
X175824887Y-65475029D01*
X175945078Y-65608515D01*
X175950420Y-65612396D01*
X175950422Y-65612398D01*
X176053433Y-65687240D01*
X176090396Y-65714095D01*
X176096424Y-65716779D01*
X176096426Y-65716780D01*
X176190938Y-65758859D01*
X176254490Y-65787154D01*
X176342339Y-65805827D01*
X176423731Y-65823128D01*
X176423736Y-65823128D01*
X176430188Y-65824500D01*
X176609812Y-65824500D01*
X176616264Y-65823128D01*
X176616269Y-65823128D01*
X176697661Y-65805827D01*
X176785510Y-65787154D01*
X176849062Y-65758859D01*
X176943574Y-65716780D01*
X176943576Y-65716779D01*
X176949604Y-65714095D01*
X176986567Y-65687240D01*
X177089578Y-65612398D01*
X177089580Y-65612396D01*
X177094922Y-65608515D01*
X177215113Y-65475029D01*
X177290881Y-65343796D01*
X177301624Y-65325189D01*
X177301625Y-65325187D01*
X177304925Y-65319471D01*
X177305800Y-65316778D01*
X177350874Y-65263749D01*
X177418802Y-65243100D01*
X177487110Y-65262453D01*
X177534111Y-65315664D01*
X177546000Y-65369094D01*
X177546000Y-67110906D01*
X177525998Y-67179027D01*
X177472342Y-67225520D01*
X177402068Y-67235624D01*
X177337488Y-67206130D01*
X177305890Y-67163500D01*
X177304925Y-67160529D01*
X177215113Y-67004971D01*
X177117049Y-66896059D01*
X177099344Y-66876396D01*
X177099343Y-66876395D01*
X177094922Y-66871485D01*
X177042751Y-66833580D01*
X176954946Y-66769786D01*
X176954945Y-66769785D01*
X176949604Y-66765905D01*
X176943576Y-66763221D01*
X176943574Y-66763220D01*
X176791541Y-66695531D01*
X176791540Y-66695531D01*
X176785510Y-66692846D01*
X176697661Y-66674173D01*
X176616269Y-66656872D01*
X176616264Y-66656872D01*
X176609812Y-66655500D01*
X176430188Y-66655500D01*
X176423736Y-66656872D01*
X176423731Y-66656872D01*
X176342339Y-66674173D01*
X176254490Y-66692846D01*
X176248460Y-66695531D01*
X176248459Y-66695531D01*
X176096427Y-66763220D01*
X176096425Y-66763221D01*
X176090397Y-66765905D01*
X176085056Y-66769785D01*
X176085055Y-66769786D01*
X175950422Y-66867602D01*
X175950420Y-66867604D01*
X175945078Y-66871485D01*
X175940657Y-66876395D01*
X175940656Y-66876396D01*
X175922952Y-66896059D01*
X175824887Y-67004971D01*
X175735075Y-67160529D01*
X175733034Y-67166811D01*
X175733033Y-67166813D01*
X175713958Y-67225520D01*
X175679569Y-67331361D01*
X175660793Y-67510000D01*
X175679569Y-67688639D01*
X175735075Y-67859471D01*
X175738378Y-67865193D01*
X175738379Y-67865194D01*
X175749119Y-67883796D01*
X175824887Y-68015029D01*
X175945078Y-68148515D01*
X176090396Y-68254095D01*
X176096424Y-68256779D01*
X176096426Y-68256780D01*
X176248459Y-68324469D01*
X176254490Y-68327154D01*
X176342339Y-68345827D01*
X176423731Y-68363128D01*
X176423736Y-68363128D01*
X176430188Y-68364500D01*
X176609812Y-68364500D01*
X176616264Y-68363128D01*
X176616269Y-68363128D01*
X176697661Y-68345827D01*
X176785510Y-68327154D01*
X176791541Y-68324469D01*
X176943574Y-68256780D01*
X176943576Y-68256779D01*
X176949604Y-68254095D01*
X177094922Y-68148515D01*
X177215113Y-68015029D01*
X177290881Y-67883796D01*
X177301624Y-67865189D01*
X177301625Y-67865187D01*
X177304925Y-67859471D01*
X177305800Y-67856778D01*
X177350874Y-67803749D01*
X177418802Y-67783100D01*
X177487110Y-67802453D01*
X177534111Y-67855664D01*
X177546000Y-67909094D01*
X177546000Y-69650906D01*
X177525998Y-69719027D01*
X177472342Y-69765520D01*
X177402068Y-69775624D01*
X177337488Y-69746130D01*
X177305890Y-69703500D01*
X177304925Y-69700529D01*
X177215113Y-69544971D01*
X177094922Y-69411485D01*
X176949604Y-69305905D01*
X176943576Y-69303221D01*
X176943574Y-69303220D01*
X176791541Y-69235531D01*
X176791540Y-69235531D01*
X176785510Y-69232846D01*
X176697661Y-69214173D01*
X176616269Y-69196872D01*
X176616264Y-69196872D01*
X176609812Y-69195500D01*
X176430188Y-69195500D01*
X176423736Y-69196872D01*
X176423731Y-69196872D01*
X176342339Y-69214173D01*
X176254490Y-69232846D01*
X176248460Y-69235531D01*
X176248459Y-69235531D01*
X176096427Y-69303220D01*
X176096425Y-69303221D01*
X176090397Y-69305905D01*
X176085056Y-69309785D01*
X176085055Y-69309786D01*
X175950422Y-69407602D01*
X175950420Y-69407604D01*
X175945078Y-69411485D01*
X175824887Y-69544971D01*
X175735075Y-69700529D01*
X175733034Y-69706811D01*
X175733033Y-69706813D01*
X175713958Y-69765520D01*
X175679569Y-69871361D01*
X175660793Y-70050000D01*
X175679569Y-70228639D01*
X175735075Y-70399471D01*
X175738378Y-70405193D01*
X175738379Y-70405194D01*
X175749119Y-70423796D01*
X175824887Y-70555029D01*
X175829305Y-70559936D01*
X175829306Y-70559937D01*
X175839424Y-70571174D01*
X175945078Y-70688515D01*
X175950420Y-70692396D01*
X175950422Y-70692398D01*
X176023878Y-70745767D01*
X176090396Y-70794095D01*
X176096424Y-70796779D01*
X176096426Y-70796780D01*
X176248459Y-70864469D01*
X176254490Y-70867154D01*
X176342339Y-70885827D01*
X176423731Y-70903128D01*
X176423736Y-70903128D01*
X176430188Y-70904500D01*
X176609812Y-70904500D01*
X176616264Y-70903128D01*
X176616269Y-70903128D01*
X176697661Y-70885827D01*
X176785510Y-70867154D01*
X176791541Y-70864469D01*
X176943574Y-70796780D01*
X176943576Y-70796779D01*
X176949604Y-70794095D01*
X177016122Y-70745767D01*
X177089578Y-70692398D01*
X177089580Y-70692396D01*
X177094922Y-70688515D01*
X177200576Y-70571174D01*
X177210694Y-70559937D01*
X177210695Y-70559936D01*
X177215113Y-70555029D01*
X177290881Y-70423796D01*
X177301624Y-70405189D01*
X177301625Y-70405187D01*
X177304925Y-70399471D01*
X177305800Y-70396778D01*
X177350874Y-70343749D01*
X177418802Y-70323100D01*
X177487110Y-70342453D01*
X177534111Y-70395664D01*
X177546000Y-70449094D01*
X177546000Y-72190906D01*
X177525998Y-72259027D01*
X177472342Y-72305520D01*
X177402068Y-72315624D01*
X177337488Y-72286130D01*
X177305890Y-72243500D01*
X177304925Y-72240529D01*
X177289266Y-72213406D01*
X177254508Y-72153204D01*
X177215113Y-72084971D01*
X177188766Y-72055709D01*
X177099344Y-71956396D01*
X177099343Y-71956395D01*
X177094922Y-71951485D01*
X177069428Y-71932962D01*
X176954946Y-71849786D01*
X176954945Y-71849785D01*
X176949604Y-71845905D01*
X176943576Y-71843221D01*
X176943574Y-71843220D01*
X176791541Y-71775531D01*
X176791540Y-71775531D01*
X176785510Y-71772846D01*
X176697661Y-71754173D01*
X176616269Y-71736872D01*
X176616264Y-71736872D01*
X176609812Y-71735500D01*
X176430188Y-71735500D01*
X176423736Y-71736872D01*
X176423731Y-71736872D01*
X176342339Y-71754173D01*
X176254490Y-71772846D01*
X176248460Y-71775531D01*
X176248459Y-71775531D01*
X176096427Y-71843220D01*
X176096425Y-71843221D01*
X176090397Y-71845905D01*
X176085056Y-71849785D01*
X176085055Y-71849786D01*
X175950422Y-71947602D01*
X175950420Y-71947604D01*
X175945078Y-71951485D01*
X175940657Y-71956395D01*
X175940656Y-71956396D01*
X175851235Y-72055709D01*
X175824887Y-72084971D01*
X175784786Y-72154428D01*
X175750735Y-72213406D01*
X175735075Y-72240529D01*
X175733034Y-72246811D01*
X175733033Y-72246813D01*
X175685039Y-72394525D01*
X175679569Y-72411361D01*
X175660793Y-72590000D01*
X175679569Y-72768639D01*
X175681609Y-72774917D01*
X175681609Y-72774918D01*
X175726917Y-72914362D01*
X175735075Y-72939471D01*
X175738378Y-72945193D01*
X175738379Y-72945194D01*
X175746344Y-72958989D01*
X175824887Y-73095029D01*
X175945078Y-73228515D01*
X175950420Y-73232396D01*
X175950422Y-73232398D01*
X176066447Y-73316695D01*
X176090396Y-73334095D01*
X176096424Y-73336779D01*
X176096426Y-73336780D01*
X176248459Y-73404469D01*
X176254490Y-73407154D01*
X176316864Y-73420412D01*
X176423731Y-73443128D01*
X176423736Y-73443128D01*
X176430188Y-73444500D01*
X176609812Y-73444500D01*
X176616264Y-73443128D01*
X176616269Y-73443128D01*
X176723136Y-73420412D01*
X176785510Y-73407154D01*
X176791541Y-73404469D01*
X176943574Y-73336780D01*
X176943576Y-73336779D01*
X176949604Y-73334095D01*
X176973553Y-73316695D01*
X177089578Y-73232398D01*
X177089580Y-73232396D01*
X177094922Y-73228515D01*
X177215113Y-73095029D01*
X177293656Y-72958989D01*
X177301624Y-72945189D01*
X177301625Y-72945187D01*
X177304925Y-72939471D01*
X177305800Y-72936778D01*
X177350874Y-72883749D01*
X177418802Y-72863100D01*
X177487110Y-72882453D01*
X177534111Y-72935664D01*
X177546000Y-72989094D01*
X177546000Y-74730906D01*
X177525998Y-74799027D01*
X177472342Y-74845520D01*
X177402068Y-74855624D01*
X177337488Y-74826130D01*
X177305890Y-74783500D01*
X177304925Y-74780529D01*
X177215113Y-74624971D01*
X177094922Y-74491485D01*
X177079024Y-74479934D01*
X176954946Y-74389786D01*
X176954945Y-74389785D01*
X176949604Y-74385905D01*
X176943576Y-74383221D01*
X176943574Y-74383220D01*
X176791541Y-74315531D01*
X176791540Y-74315531D01*
X176785510Y-74312846D01*
X176697661Y-74294173D01*
X176616269Y-74276872D01*
X176616264Y-74276872D01*
X176609812Y-74275500D01*
X176430188Y-74275500D01*
X176423736Y-74276872D01*
X176423731Y-74276872D01*
X176342339Y-74294173D01*
X176254490Y-74312846D01*
X176248460Y-74315531D01*
X176248459Y-74315531D01*
X176096427Y-74383220D01*
X176096425Y-74383221D01*
X176090397Y-74385905D01*
X176085056Y-74389785D01*
X176085055Y-74389786D01*
X175950422Y-74487602D01*
X175950420Y-74487604D01*
X175945078Y-74491485D01*
X175824887Y-74624971D01*
X175735075Y-74780529D01*
X175733034Y-74786811D01*
X175733033Y-74786813D01*
X175713958Y-74845520D01*
X175679569Y-74951361D01*
X175660793Y-75130000D01*
X175679569Y-75308639D01*
X175735075Y-75479471D01*
X175738378Y-75485193D01*
X175738379Y-75485194D01*
X175749119Y-75503796D01*
X175824887Y-75635029D01*
X175945078Y-75768515D01*
X176090396Y-75874095D01*
X176096424Y-75876779D01*
X176096426Y-75876780D01*
X176248459Y-75944469D01*
X176254490Y-75947154D01*
X176342339Y-75965827D01*
X176423731Y-75983128D01*
X176423736Y-75983128D01*
X176430188Y-75984500D01*
X176609812Y-75984500D01*
X176616264Y-75983128D01*
X176616269Y-75983128D01*
X176697661Y-75965827D01*
X176785510Y-75947154D01*
X176791541Y-75944469D01*
X176943574Y-75876780D01*
X176943576Y-75876779D01*
X176949604Y-75874095D01*
X177094922Y-75768515D01*
X177215113Y-75635029D01*
X177290881Y-75503796D01*
X177301624Y-75485189D01*
X177301625Y-75485187D01*
X177304925Y-75479471D01*
X177305800Y-75476778D01*
X177350874Y-75423749D01*
X177418802Y-75403100D01*
X177487110Y-75422453D01*
X177534111Y-75475664D01*
X177546000Y-75529094D01*
X177546000Y-77270906D01*
X177525998Y-77339027D01*
X177472342Y-77385520D01*
X177402068Y-77395624D01*
X177337488Y-77366130D01*
X177305890Y-77323500D01*
X177304925Y-77320529D01*
X177215113Y-77164971D01*
X177094922Y-77031485D01*
X176949604Y-76925905D01*
X176943576Y-76923221D01*
X176943574Y-76923220D01*
X176791541Y-76855531D01*
X176791540Y-76855531D01*
X176785510Y-76852846D01*
X176697661Y-76834173D01*
X176616269Y-76816872D01*
X176616264Y-76816872D01*
X176609812Y-76815500D01*
X176430188Y-76815500D01*
X176423736Y-76816872D01*
X176423731Y-76816872D01*
X176342339Y-76834173D01*
X176254490Y-76852846D01*
X176248460Y-76855531D01*
X176248459Y-76855531D01*
X176096427Y-76923220D01*
X176096425Y-76923221D01*
X176090397Y-76925905D01*
X176085056Y-76929785D01*
X176085055Y-76929786D01*
X175950422Y-77027602D01*
X175950420Y-77027604D01*
X175945078Y-77031485D01*
X175824887Y-77164971D01*
X175735075Y-77320529D01*
X175733034Y-77326811D01*
X175733033Y-77326813D01*
X175713958Y-77385520D01*
X175679569Y-77491361D01*
X175660793Y-77670000D01*
X175679569Y-77848639D01*
X175735075Y-78019471D01*
X175738378Y-78025193D01*
X175738379Y-78025194D01*
X175749119Y-78043796D01*
X175824887Y-78175029D01*
X175945078Y-78308515D01*
X176090396Y-78414095D01*
X176096424Y-78416779D01*
X176096426Y-78416780D01*
X176248459Y-78484469D01*
X176254490Y-78487154D01*
X176342339Y-78505827D01*
X176423731Y-78523128D01*
X176423736Y-78523128D01*
X176430188Y-78524500D01*
X176609812Y-78524500D01*
X176616264Y-78523128D01*
X176616269Y-78523128D01*
X176697661Y-78505827D01*
X176785510Y-78487154D01*
X176791541Y-78484469D01*
X176943574Y-78416780D01*
X176943576Y-78416779D01*
X176949604Y-78414095D01*
X177094922Y-78308515D01*
X177215113Y-78175029D01*
X177290881Y-78043796D01*
X177301624Y-78025189D01*
X177301625Y-78025187D01*
X177304925Y-78019471D01*
X177305800Y-78016778D01*
X177350874Y-77963749D01*
X177418802Y-77943100D01*
X177487110Y-77962453D01*
X177534111Y-78015664D01*
X177546000Y-78069094D01*
X177546000Y-79810906D01*
X177525998Y-79879027D01*
X177472342Y-79925520D01*
X177402068Y-79935624D01*
X177337488Y-79906130D01*
X177305890Y-79863500D01*
X177304925Y-79860529D01*
X177215113Y-79704971D01*
X177094922Y-79571485D01*
X176949604Y-79465905D01*
X176943576Y-79463221D01*
X176943574Y-79463220D01*
X176791541Y-79395531D01*
X176791540Y-79395531D01*
X176785510Y-79392846D01*
X176697661Y-79374173D01*
X176616269Y-79356872D01*
X176616264Y-79356872D01*
X176609812Y-79355500D01*
X176430188Y-79355500D01*
X176423736Y-79356872D01*
X176423731Y-79356872D01*
X176342339Y-79374173D01*
X176254490Y-79392846D01*
X176248460Y-79395531D01*
X176248459Y-79395531D01*
X176096427Y-79463220D01*
X176096425Y-79463221D01*
X176090397Y-79465905D01*
X176085056Y-79469785D01*
X176085055Y-79469786D01*
X175950422Y-79567602D01*
X175950420Y-79567604D01*
X175945078Y-79571485D01*
X175824887Y-79704971D01*
X175735075Y-79860529D01*
X175733034Y-79866811D01*
X175733033Y-79866813D01*
X175713958Y-79925520D01*
X175679569Y-80031361D01*
X175660793Y-80210000D01*
X175679569Y-80388639D01*
X175735075Y-80559471D01*
X175738378Y-80565193D01*
X175738379Y-80565194D01*
X175749119Y-80583796D01*
X175824887Y-80715029D01*
X175945078Y-80848515D01*
X176090396Y-80954095D01*
X176096424Y-80956779D01*
X176096426Y-80956780D01*
X176248459Y-81024469D01*
X176254490Y-81027154D01*
X176342339Y-81045827D01*
X176423731Y-81063128D01*
X176423736Y-81063128D01*
X176430188Y-81064500D01*
X176609812Y-81064500D01*
X176616264Y-81063128D01*
X176616269Y-81063128D01*
X176697661Y-81045827D01*
X176785510Y-81027154D01*
X176791541Y-81024469D01*
X176943574Y-80956780D01*
X176943576Y-80956779D01*
X176949604Y-80954095D01*
X177094922Y-80848515D01*
X177215113Y-80715029D01*
X177290881Y-80583796D01*
X177301624Y-80565189D01*
X177301625Y-80565187D01*
X177304925Y-80559471D01*
X177305800Y-80556778D01*
X177350874Y-80503749D01*
X177418802Y-80483100D01*
X177487110Y-80502453D01*
X177534111Y-80555664D01*
X177546000Y-80609094D01*
X177546000Y-82350906D01*
X177525998Y-82419027D01*
X177472342Y-82465520D01*
X177402068Y-82475624D01*
X177337488Y-82446130D01*
X177305890Y-82403500D01*
X177304925Y-82400529D01*
X177215113Y-82244971D01*
X177147995Y-82170428D01*
X177099344Y-82116396D01*
X177099343Y-82116395D01*
X177094922Y-82111485D01*
X176949604Y-82005905D01*
X176943576Y-82003221D01*
X176943574Y-82003220D01*
X176791541Y-81935531D01*
X176791540Y-81935531D01*
X176785510Y-81932846D01*
X176697661Y-81914173D01*
X176616269Y-81896872D01*
X176616264Y-81896872D01*
X176609812Y-81895500D01*
X176430188Y-81895500D01*
X176423736Y-81896872D01*
X176423731Y-81896872D01*
X176342339Y-81914173D01*
X176254490Y-81932846D01*
X176248460Y-81935531D01*
X176248459Y-81935531D01*
X176096427Y-82003220D01*
X176096425Y-82003221D01*
X176090397Y-82005905D01*
X176085056Y-82009785D01*
X176085055Y-82009786D01*
X175950422Y-82107602D01*
X175950420Y-82107604D01*
X175945078Y-82111485D01*
X175940657Y-82116395D01*
X175940656Y-82116396D01*
X175892006Y-82170428D01*
X175824887Y-82244971D01*
X175735075Y-82400529D01*
X175733034Y-82406811D01*
X175733033Y-82406813D01*
X175681609Y-82565082D01*
X175679569Y-82571361D01*
X175660793Y-82750000D01*
X175679569Y-82928639D01*
X175681609Y-82934917D01*
X175681609Y-82934918D01*
X175707439Y-83014414D01*
X175735075Y-83099471D01*
X175738378Y-83105193D01*
X175738379Y-83105194D01*
X175747083Y-83120269D01*
X175824887Y-83255029D01*
X175829305Y-83259936D01*
X175829306Y-83259937D01*
X175931316Y-83373231D01*
X175945078Y-83388515D01*
X175950420Y-83392396D01*
X175950422Y-83392398D01*
X176063321Y-83474424D01*
X176090396Y-83494095D01*
X176096424Y-83496779D01*
X176096426Y-83496780D01*
X176180799Y-83534345D01*
X176254490Y-83567154D01*
X176342339Y-83585827D01*
X176423731Y-83603128D01*
X176423736Y-83603128D01*
X176430188Y-83604500D01*
X176609812Y-83604500D01*
X176616264Y-83603128D01*
X176616269Y-83603128D01*
X176697661Y-83585827D01*
X176785510Y-83567154D01*
X176859201Y-83534345D01*
X176943574Y-83496780D01*
X176943576Y-83496779D01*
X176949604Y-83494095D01*
X176976679Y-83474424D01*
X177089578Y-83392398D01*
X177089580Y-83392396D01*
X177094922Y-83388515D01*
X177108684Y-83373231D01*
X177210694Y-83259937D01*
X177210695Y-83259936D01*
X177215113Y-83255029D01*
X177292917Y-83120269D01*
X177301624Y-83105189D01*
X177301625Y-83105187D01*
X177304925Y-83099471D01*
X177305800Y-83096778D01*
X177350874Y-83043749D01*
X177418802Y-83023100D01*
X177487110Y-83042453D01*
X177534111Y-83095664D01*
X177546000Y-83149094D01*
X177546000Y-84890906D01*
X177525998Y-84959027D01*
X177472342Y-85005520D01*
X177402068Y-85015624D01*
X177337488Y-84986130D01*
X177305890Y-84943500D01*
X177304925Y-84940529D01*
X177215113Y-84784971D01*
X177147995Y-84710428D01*
X177099344Y-84656396D01*
X177099343Y-84656395D01*
X177094922Y-84651485D01*
X176949604Y-84545905D01*
X176943576Y-84543221D01*
X176943574Y-84543220D01*
X176791541Y-84475531D01*
X176791540Y-84475531D01*
X176785510Y-84472846D01*
X176697661Y-84454173D01*
X176616269Y-84436872D01*
X176616264Y-84436872D01*
X176609812Y-84435500D01*
X176430188Y-84435500D01*
X176423736Y-84436872D01*
X176423731Y-84436872D01*
X176342339Y-84454173D01*
X176254490Y-84472846D01*
X176248460Y-84475531D01*
X176248459Y-84475531D01*
X176096427Y-84543220D01*
X176096425Y-84543221D01*
X176090397Y-84545905D01*
X176085056Y-84549785D01*
X176085055Y-84549786D01*
X175950422Y-84647602D01*
X175950420Y-84647604D01*
X175945078Y-84651485D01*
X175940657Y-84656395D01*
X175940656Y-84656396D01*
X175892006Y-84710428D01*
X175824887Y-84784971D01*
X175735075Y-84940529D01*
X175733034Y-84946811D01*
X175733033Y-84946813D01*
X175681609Y-85105082D01*
X175679569Y-85111361D01*
X175660793Y-85290000D01*
X175679569Y-85468639D01*
X175681609Y-85474917D01*
X175681609Y-85474918D01*
X175707439Y-85554414D01*
X175735075Y-85639471D01*
X175738378Y-85645193D01*
X175738379Y-85645194D01*
X175747083Y-85660269D01*
X175824887Y-85795029D01*
X175829305Y-85799936D01*
X175829306Y-85799937D01*
X175931316Y-85913231D01*
X175945078Y-85928515D01*
X175950420Y-85932396D01*
X175950422Y-85932398D01*
X176063321Y-86014424D01*
X176090396Y-86034095D01*
X176096424Y-86036779D01*
X176096426Y-86036780D01*
X176180799Y-86074345D01*
X176254490Y-86107154D01*
X176342339Y-86125827D01*
X176423731Y-86143128D01*
X176423736Y-86143128D01*
X176430188Y-86144500D01*
X176609812Y-86144500D01*
X176616264Y-86143128D01*
X176616269Y-86143128D01*
X176697661Y-86125827D01*
X176785510Y-86107154D01*
X176859201Y-86074345D01*
X176943574Y-86036780D01*
X176943576Y-86036779D01*
X176949604Y-86034095D01*
X176976679Y-86014424D01*
X177089578Y-85932398D01*
X177089580Y-85932396D01*
X177094922Y-85928515D01*
X177108684Y-85913231D01*
X177210694Y-85799937D01*
X177210695Y-85799936D01*
X177215113Y-85795029D01*
X177292917Y-85660269D01*
X177301624Y-85645189D01*
X177301625Y-85645187D01*
X177304925Y-85639471D01*
X177305800Y-85636778D01*
X177350874Y-85583749D01*
X177418802Y-85563100D01*
X177487110Y-85582453D01*
X177534111Y-85635664D01*
X177546000Y-85689094D01*
X177546000Y-87430906D01*
X177525998Y-87499027D01*
X177472342Y-87545520D01*
X177402068Y-87555624D01*
X177337488Y-87526130D01*
X177305890Y-87483500D01*
X177304925Y-87480529D01*
X177215113Y-87324971D01*
X177147995Y-87250428D01*
X177099344Y-87196396D01*
X177099343Y-87196395D01*
X177094922Y-87191485D01*
X176949604Y-87085905D01*
X176943576Y-87083221D01*
X176943574Y-87083220D01*
X176791541Y-87015531D01*
X176791540Y-87015531D01*
X176785510Y-87012846D01*
X176697661Y-86994173D01*
X176616269Y-86976872D01*
X176616264Y-86976872D01*
X176609812Y-86975500D01*
X176430188Y-86975500D01*
X176423736Y-86976872D01*
X176423731Y-86976872D01*
X176342339Y-86994173D01*
X176254490Y-87012846D01*
X176248460Y-87015531D01*
X176248459Y-87015531D01*
X176096427Y-87083220D01*
X176096425Y-87083221D01*
X176090397Y-87085905D01*
X176085056Y-87089785D01*
X176085055Y-87089786D01*
X175950422Y-87187602D01*
X175950420Y-87187604D01*
X175945078Y-87191485D01*
X175940657Y-87196395D01*
X175940656Y-87196396D01*
X175892006Y-87250428D01*
X175824887Y-87324971D01*
X175735075Y-87480529D01*
X175733034Y-87486811D01*
X175733033Y-87486813D01*
X175681609Y-87645082D01*
X175679569Y-87651361D01*
X175660793Y-87830000D01*
X175679569Y-88008639D01*
X175681609Y-88014917D01*
X175681609Y-88014918D01*
X175707439Y-88094414D01*
X175735075Y-88179471D01*
X175738378Y-88185193D01*
X175738379Y-88185194D01*
X175747083Y-88200269D01*
X175824887Y-88335029D01*
X175829305Y-88339936D01*
X175829306Y-88339937D01*
X175931316Y-88453231D01*
X175945078Y-88468515D01*
X175950420Y-88472396D01*
X175950422Y-88472398D01*
X176063321Y-88554424D01*
X176090396Y-88574095D01*
X176096424Y-88576779D01*
X176096426Y-88576780D01*
X176180799Y-88614345D01*
X176254490Y-88647154D01*
X176342339Y-88665827D01*
X176423731Y-88683128D01*
X176423736Y-88683128D01*
X176430188Y-88684500D01*
X176609812Y-88684500D01*
X176616264Y-88683128D01*
X176616269Y-88683128D01*
X176697661Y-88665827D01*
X176785510Y-88647154D01*
X176859201Y-88614345D01*
X176943574Y-88576780D01*
X176943576Y-88576779D01*
X176949604Y-88574095D01*
X176976679Y-88554424D01*
X177089578Y-88472398D01*
X177089580Y-88472396D01*
X177094922Y-88468515D01*
X177108684Y-88453231D01*
X177210694Y-88339937D01*
X177210695Y-88339936D01*
X177215113Y-88335029D01*
X177292917Y-88200269D01*
X177301624Y-88185189D01*
X177301625Y-88185187D01*
X177304925Y-88179471D01*
X177305800Y-88176778D01*
X177350874Y-88123749D01*
X177418802Y-88103100D01*
X177487110Y-88122453D01*
X177534111Y-88175664D01*
X177546000Y-88229094D01*
X177546000Y-89970906D01*
X177525998Y-90039027D01*
X177472342Y-90085520D01*
X177402068Y-90095624D01*
X177337488Y-90066130D01*
X177305890Y-90023500D01*
X177304925Y-90020529D01*
X177215113Y-89864971D01*
X177094922Y-89731485D01*
X176990684Y-89655751D01*
X176954946Y-89629786D01*
X176954945Y-89629785D01*
X176949604Y-89625905D01*
X176943576Y-89623221D01*
X176943574Y-89623220D01*
X176791541Y-89555531D01*
X176791540Y-89555531D01*
X176785510Y-89552846D01*
X176697661Y-89534173D01*
X176616269Y-89516872D01*
X176616264Y-89516872D01*
X176609812Y-89515500D01*
X176430188Y-89515500D01*
X176423736Y-89516872D01*
X176423731Y-89516872D01*
X176342339Y-89534173D01*
X176254490Y-89552846D01*
X176248460Y-89555531D01*
X176248459Y-89555531D01*
X176096427Y-89623220D01*
X176096425Y-89623221D01*
X176090397Y-89625905D01*
X176085056Y-89629785D01*
X176085055Y-89629786D01*
X175950422Y-89727602D01*
X175950420Y-89727604D01*
X175945078Y-89731485D01*
X175824887Y-89864971D01*
X175735075Y-90020529D01*
X175733034Y-90026811D01*
X175733033Y-90026813D01*
X175713958Y-90085520D01*
X175679569Y-90191361D01*
X175678879Y-90197924D01*
X175678879Y-90197925D01*
X175661483Y-90363435D01*
X175660793Y-90370000D01*
X175661483Y-90376565D01*
X175674247Y-90498000D01*
X175679569Y-90548639D01*
X175681609Y-90554917D01*
X175681609Y-90554918D01*
X175713425Y-90652837D01*
X175735075Y-90719471D01*
X175738378Y-90725193D01*
X175738379Y-90725194D01*
X175749119Y-90743796D01*
X175824887Y-90875029D01*
X175945078Y-91008515D01*
X176090396Y-91114095D01*
X176096424Y-91116779D01*
X176096426Y-91116780D01*
X176173850Y-91151251D01*
X176254490Y-91187154D01*
X176342339Y-91205827D01*
X176423731Y-91223128D01*
X176423736Y-91223128D01*
X176430188Y-91224500D01*
X176609812Y-91224500D01*
X176616264Y-91223128D01*
X176616269Y-91223128D01*
X176697661Y-91205827D01*
X176785510Y-91187154D01*
X176866150Y-91151251D01*
X176943574Y-91116780D01*
X176943576Y-91116779D01*
X176949604Y-91114095D01*
X177094922Y-91008515D01*
X177215113Y-90875029D01*
X177290881Y-90743796D01*
X177301624Y-90725189D01*
X177301625Y-90725187D01*
X177304925Y-90719471D01*
X177305800Y-90716778D01*
X177350874Y-90663749D01*
X177418802Y-90643100D01*
X177487110Y-90662453D01*
X177534111Y-90715664D01*
X177546000Y-90769094D01*
X177546000Y-92510906D01*
X177525998Y-92579027D01*
X177472342Y-92625520D01*
X177402068Y-92635624D01*
X177337488Y-92606130D01*
X177305890Y-92563500D01*
X177304925Y-92560529D01*
X177279313Y-92516167D01*
X177218414Y-92410689D01*
X177215113Y-92404971D01*
X177147995Y-92330428D01*
X177099344Y-92276396D01*
X177099343Y-92276395D01*
X177094922Y-92271485D01*
X176949604Y-92165905D01*
X176943576Y-92163221D01*
X176943574Y-92163220D01*
X176791541Y-92095531D01*
X176791540Y-92095531D01*
X176785510Y-92092846D01*
X176697661Y-92074173D01*
X176616269Y-92056872D01*
X176616264Y-92056872D01*
X176609812Y-92055500D01*
X176430188Y-92055500D01*
X176423736Y-92056872D01*
X176423731Y-92056872D01*
X176342339Y-92074173D01*
X176254490Y-92092846D01*
X176248460Y-92095531D01*
X176248459Y-92095531D01*
X176096427Y-92163220D01*
X176096425Y-92163221D01*
X176090397Y-92165905D01*
X176085056Y-92169785D01*
X176085055Y-92169786D01*
X175950422Y-92267602D01*
X175950420Y-92267604D01*
X175945078Y-92271485D01*
X175940657Y-92276395D01*
X175940656Y-92276396D01*
X175892006Y-92330428D01*
X175824887Y-92404971D01*
X175735075Y-92560529D01*
X175733034Y-92566811D01*
X175733033Y-92566813D01*
X175681609Y-92725082D01*
X175679569Y-92731361D01*
X175660793Y-92910000D01*
X175679569Y-93088639D01*
X175681609Y-93094917D01*
X175681609Y-93094918D01*
X175707439Y-93174414D01*
X175735075Y-93259471D01*
X175738378Y-93265193D01*
X175738379Y-93265194D01*
X175747083Y-93280269D01*
X175824887Y-93415029D01*
X175829305Y-93419936D01*
X175829306Y-93419937D01*
X175931316Y-93533231D01*
X175945078Y-93548515D01*
X175950420Y-93552396D01*
X175950422Y-93552398D01*
X176063321Y-93634424D01*
X176090396Y-93654095D01*
X176096424Y-93656779D01*
X176096426Y-93656780D01*
X176180799Y-93694345D01*
X176254490Y-93727154D01*
X176342339Y-93745827D01*
X176423731Y-93763128D01*
X176423736Y-93763128D01*
X176430188Y-93764500D01*
X176609812Y-93764500D01*
X176616264Y-93763128D01*
X176616269Y-93763128D01*
X176697661Y-93745827D01*
X176785510Y-93727154D01*
X176859201Y-93694345D01*
X176943574Y-93656780D01*
X176943576Y-93656779D01*
X176949604Y-93654095D01*
X176976679Y-93634424D01*
X177089578Y-93552398D01*
X177089580Y-93552396D01*
X177094922Y-93548515D01*
X177108684Y-93533231D01*
X177210694Y-93419937D01*
X177210695Y-93419936D01*
X177215113Y-93415029D01*
X177292917Y-93280269D01*
X177301624Y-93265189D01*
X177301625Y-93265187D01*
X177304925Y-93259471D01*
X177305800Y-93256778D01*
X177350874Y-93203749D01*
X177418802Y-93183100D01*
X177487110Y-93202453D01*
X177534111Y-93255664D01*
X177546000Y-93309094D01*
X177546000Y-95050906D01*
X177525998Y-95119027D01*
X177472342Y-95165520D01*
X177402068Y-95175624D01*
X177337488Y-95146130D01*
X177305890Y-95103500D01*
X177304925Y-95100529D01*
X177215113Y-94944971D01*
X177094922Y-94811485D01*
X176949604Y-94705905D01*
X176943576Y-94703221D01*
X176943574Y-94703220D01*
X176791541Y-94635531D01*
X176791540Y-94635531D01*
X176785510Y-94632846D01*
X176697661Y-94614173D01*
X176616269Y-94596872D01*
X176616264Y-94596872D01*
X176609812Y-94595500D01*
X176430188Y-94595500D01*
X176423736Y-94596872D01*
X176423731Y-94596872D01*
X176342339Y-94614173D01*
X176254490Y-94632846D01*
X176248460Y-94635531D01*
X176248459Y-94635531D01*
X176096427Y-94703220D01*
X176096425Y-94703221D01*
X176090397Y-94705905D01*
X176085056Y-94709785D01*
X176085055Y-94709786D01*
X175950422Y-94807602D01*
X175950420Y-94807604D01*
X175945078Y-94811485D01*
X175824887Y-94944971D01*
X175735075Y-95100529D01*
X175733034Y-95106811D01*
X175733033Y-95106813D01*
X175713958Y-95165520D01*
X175679569Y-95271361D01*
X175660793Y-95450000D01*
X175679569Y-95628639D01*
X175735075Y-95799471D01*
X175738378Y-95805193D01*
X175738379Y-95805194D01*
X175749119Y-95823796D01*
X175824887Y-95955029D01*
X175945078Y-96088515D01*
X176090396Y-96194095D01*
X176096424Y-96196779D01*
X176096426Y-96196780D01*
X176248459Y-96264469D01*
X176254490Y-96267154D01*
X176342339Y-96285827D01*
X176423731Y-96303128D01*
X176423736Y-96303128D01*
X176430188Y-96304500D01*
X176609812Y-96304500D01*
X176616264Y-96303128D01*
X176616269Y-96303128D01*
X176697661Y-96285827D01*
X176785510Y-96267154D01*
X176791541Y-96264469D01*
X176943574Y-96196780D01*
X176943576Y-96196779D01*
X176949604Y-96194095D01*
X177094922Y-96088515D01*
X177215113Y-95955029D01*
X177290881Y-95823796D01*
X177301624Y-95805189D01*
X177301625Y-95805187D01*
X177304925Y-95799471D01*
X177305800Y-95796778D01*
X177350874Y-95743749D01*
X177418802Y-95723100D01*
X177487110Y-95742453D01*
X177534111Y-95795664D01*
X177546000Y-95849094D01*
X177546000Y-97590906D01*
X177525998Y-97659027D01*
X177472342Y-97705520D01*
X177402068Y-97715624D01*
X177337488Y-97686130D01*
X177305890Y-97643500D01*
X177304925Y-97640529D01*
X177215113Y-97484971D01*
X177094922Y-97351485D01*
X176955311Y-97250051D01*
X176954946Y-97249786D01*
X176954945Y-97249785D01*
X176949604Y-97245905D01*
X176943576Y-97243221D01*
X176943574Y-97243220D01*
X176791541Y-97175531D01*
X176791540Y-97175531D01*
X176785510Y-97172846D01*
X176697661Y-97154173D01*
X176616269Y-97136872D01*
X176616264Y-97136872D01*
X176609812Y-97135500D01*
X176430188Y-97135500D01*
X176423736Y-97136872D01*
X176423731Y-97136872D01*
X176342339Y-97154173D01*
X176254490Y-97172846D01*
X176248460Y-97175531D01*
X176248459Y-97175531D01*
X176096427Y-97243220D01*
X176096425Y-97243221D01*
X176090397Y-97245905D01*
X176085056Y-97249785D01*
X176085055Y-97249786D01*
X175950422Y-97347602D01*
X175950420Y-97347604D01*
X175945078Y-97351485D01*
X175824887Y-97484971D01*
X175735075Y-97640529D01*
X175733034Y-97646811D01*
X175733033Y-97646813D01*
X175713958Y-97705520D01*
X175679569Y-97811361D01*
X175660793Y-97990000D01*
X175661483Y-97996565D01*
X175674247Y-98118000D01*
X175679569Y-98168639D01*
X175735075Y-98339471D01*
X175824887Y-98495029D01*
X175945078Y-98628515D01*
X176090396Y-98734095D01*
X176096424Y-98736779D01*
X176096426Y-98736780D01*
X176176415Y-98772393D01*
X176254490Y-98807154D01*
X176342339Y-98825827D01*
X176423731Y-98843128D01*
X176423736Y-98843128D01*
X176430188Y-98844500D01*
X176609812Y-98844500D01*
X176616264Y-98843128D01*
X176616269Y-98843128D01*
X176697661Y-98825827D01*
X176785510Y-98807154D01*
X176863585Y-98772393D01*
X176943574Y-98736780D01*
X176943576Y-98736779D01*
X176949604Y-98734095D01*
X177094922Y-98628515D01*
X177215113Y-98495029D01*
X177304925Y-98339471D01*
X177305800Y-98336778D01*
X177350874Y-98283749D01*
X177418802Y-98263100D01*
X177487110Y-98282453D01*
X177534111Y-98335664D01*
X177546000Y-98389094D01*
X177546000Y-99134000D01*
X177525998Y-99202121D01*
X177472342Y-99248614D01*
X177420000Y-99260000D01*
X161749112Y-99260000D01*
X161680991Y-99239998D01*
X161634498Y-99186342D01*
X161624394Y-99116068D01*
X161653888Y-99051488D01*
X161708610Y-99014687D01*
X161727131Y-99008400D01*
X161737628Y-99003726D01*
X161905233Y-98909863D01*
X161914705Y-98903353D01*
X162062393Y-98780522D01*
X162070522Y-98772393D01*
X162193353Y-98624705D01*
X162199863Y-98615233D01*
X162293726Y-98447628D01*
X162298400Y-98437131D01*
X162359539Y-98257022D01*
X162358252Y-98247993D01*
X162344684Y-98244000D01*
X161152000Y-98244000D01*
X161083879Y-98223998D01*
X161037386Y-98170342D01*
X161026000Y-98118000D01*
X161026000Y-97717885D01*
X161534000Y-97717885D01*
X161538475Y-97733124D01*
X161539865Y-97734329D01*
X161547548Y-97736000D01*
X162341554Y-97736000D01*
X162355085Y-97732027D01*
X162356254Y-97723892D01*
X162320408Y-97596791D01*
X162316283Y-97586044D01*
X162231328Y-97413772D01*
X162225318Y-97403964D01*
X162110385Y-97250051D01*
X162102695Y-97241511D01*
X161961637Y-97111118D01*
X161952514Y-97104117D01*
X161790057Y-97001614D01*
X161779814Y-96996396D01*
X161601406Y-96925218D01*
X161590370Y-96921949D01*
X161551769Y-96914271D01*
X161538894Y-96915423D01*
X161534000Y-96930579D01*
X161534000Y-97717885D01*
X161026000Y-97717885D01*
X161026000Y-96927442D01*
X161022194Y-96914480D01*
X161007278Y-96912544D01*
X160997696Y-96914190D01*
X160986579Y-96917169D01*
X160806366Y-96983653D01*
X160795988Y-96988603D01*
X160630912Y-97086813D01*
X160621600Y-97093579D01*
X160483078Y-97215059D01*
X160418673Y-97244936D01*
X160348341Y-97235250D01*
X160294409Y-97189077D01*
X160274000Y-97120327D01*
X160274000Y-95886796D01*
X160294002Y-95818675D01*
X160347658Y-95772182D01*
X160417932Y-95762078D01*
X160482512Y-95791572D01*
X160509119Y-95823796D01*
X160581585Y-95949311D01*
X160581588Y-95949316D01*
X160584887Y-95955029D01*
X160705078Y-96088515D01*
X160850396Y-96194095D01*
X160856424Y-96196779D01*
X160856426Y-96196780D01*
X161008459Y-96264469D01*
X161014490Y-96267154D01*
X161102339Y-96285827D01*
X161183731Y-96303128D01*
X161183736Y-96303128D01*
X161190188Y-96304500D01*
X161369812Y-96304500D01*
X161376264Y-96303128D01*
X161376269Y-96303128D01*
X161457661Y-96285827D01*
X161545510Y-96267154D01*
X161551541Y-96264469D01*
X161703574Y-96196780D01*
X161703576Y-96196779D01*
X161709604Y-96194095D01*
X161854922Y-96088515D01*
X161975113Y-95955029D01*
X162050881Y-95823796D01*
X162061621Y-95805194D01*
X162061622Y-95805193D01*
X162064925Y-95799471D01*
X162120431Y-95628639D01*
X162139207Y-95450000D01*
X162120431Y-95271361D01*
X162086042Y-95165520D01*
X162066967Y-95106813D01*
X162066966Y-95106811D01*
X162064925Y-95100529D01*
X161975113Y-94944971D01*
X161854922Y-94811485D01*
X161709604Y-94705905D01*
X161703576Y-94703221D01*
X161703574Y-94703220D01*
X161551541Y-94635531D01*
X161551540Y-94635531D01*
X161545510Y-94632846D01*
X161457661Y-94614173D01*
X161376269Y-94596872D01*
X161376264Y-94596872D01*
X161369812Y-94595500D01*
X161190188Y-94595500D01*
X161183736Y-94596872D01*
X161183731Y-94596872D01*
X161102339Y-94614173D01*
X161014490Y-94632846D01*
X161008460Y-94635531D01*
X161008459Y-94635531D01*
X160856427Y-94703220D01*
X160856425Y-94703221D01*
X160850397Y-94705905D01*
X160845056Y-94709785D01*
X160845055Y-94709786D01*
X160710422Y-94807602D01*
X160710420Y-94807604D01*
X160705078Y-94811485D01*
X160584887Y-94944971D01*
X160581588Y-94950684D01*
X160581585Y-94950689D01*
X160509119Y-95076204D01*
X160457736Y-95125197D01*
X160388023Y-95138633D01*
X160322112Y-95112246D01*
X160280930Y-95054414D01*
X160274000Y-95013204D01*
X160274000Y-93346796D01*
X160294002Y-93278675D01*
X160347658Y-93232182D01*
X160417932Y-93222078D01*
X160482512Y-93251572D01*
X160509119Y-93283796D01*
X160581585Y-93409311D01*
X160581588Y-93409316D01*
X160584887Y-93415029D01*
X160589305Y-93419936D01*
X160589306Y-93419937D01*
X160691316Y-93533231D01*
X160705078Y-93548515D01*
X160710420Y-93552396D01*
X160710422Y-93552398D01*
X160823321Y-93634424D01*
X160850396Y-93654095D01*
X160856424Y-93656779D01*
X160856426Y-93656780D01*
X160940799Y-93694345D01*
X161014490Y-93727154D01*
X161102339Y-93745827D01*
X161183731Y-93763128D01*
X161183736Y-93763128D01*
X161190188Y-93764500D01*
X161369812Y-93764500D01*
X161376264Y-93763128D01*
X161376269Y-93763128D01*
X161457661Y-93745827D01*
X161545510Y-93727154D01*
X161619201Y-93694345D01*
X161703574Y-93656780D01*
X161703576Y-93656779D01*
X161709604Y-93654095D01*
X161736679Y-93634424D01*
X161849578Y-93552398D01*
X161849580Y-93552396D01*
X161854922Y-93548515D01*
X161868684Y-93533231D01*
X161970694Y-93419937D01*
X161970695Y-93419936D01*
X161975113Y-93415029D01*
X162052917Y-93280269D01*
X162061621Y-93265194D01*
X162061622Y-93265193D01*
X162064925Y-93259471D01*
X162092562Y-93174414D01*
X162118391Y-93094918D01*
X162118391Y-93094917D01*
X162120431Y-93088639D01*
X162139207Y-92910000D01*
X162120431Y-92731361D01*
X162118391Y-92725082D01*
X162066967Y-92566813D01*
X162066966Y-92566811D01*
X162064925Y-92560529D01*
X161975113Y-92404971D01*
X161907995Y-92330428D01*
X161859344Y-92276396D01*
X161859343Y-92276395D01*
X161854922Y-92271485D01*
X161709604Y-92165905D01*
X161703576Y-92163221D01*
X161703574Y-92163220D01*
X161551541Y-92095531D01*
X161551540Y-92095531D01*
X161545510Y-92092846D01*
X161457661Y-92074173D01*
X161376269Y-92056872D01*
X161376264Y-92056872D01*
X161369812Y-92055500D01*
X161190188Y-92055500D01*
X161183736Y-92056872D01*
X161183731Y-92056872D01*
X161102339Y-92074173D01*
X161014490Y-92092846D01*
X161008460Y-92095531D01*
X161008459Y-92095531D01*
X160856427Y-92163220D01*
X160856425Y-92163221D01*
X160850397Y-92165905D01*
X160845056Y-92169785D01*
X160845055Y-92169786D01*
X160710422Y-92267602D01*
X160710420Y-92267604D01*
X160705078Y-92271485D01*
X160700657Y-92276395D01*
X160700656Y-92276396D01*
X160652006Y-92330428D01*
X160584887Y-92404971D01*
X160581588Y-92410684D01*
X160581585Y-92410689D01*
X160509119Y-92536204D01*
X160457736Y-92585197D01*
X160388023Y-92598633D01*
X160322112Y-92572246D01*
X160280930Y-92514414D01*
X160274000Y-92473204D01*
X160274000Y-90806796D01*
X160294002Y-90738675D01*
X160347658Y-90692182D01*
X160417932Y-90682078D01*
X160482512Y-90711572D01*
X160509119Y-90743796D01*
X160581585Y-90869311D01*
X160581588Y-90869316D01*
X160584887Y-90875029D01*
X160705078Y-91008515D01*
X160850396Y-91114095D01*
X160856424Y-91116779D01*
X160856426Y-91116780D01*
X160933850Y-91151251D01*
X161014490Y-91187154D01*
X161102339Y-91205827D01*
X161183731Y-91223128D01*
X161183736Y-91223128D01*
X161190188Y-91224500D01*
X161369812Y-91224500D01*
X161376264Y-91223128D01*
X161376269Y-91223128D01*
X161457661Y-91205827D01*
X161545510Y-91187154D01*
X161626150Y-91151251D01*
X161703574Y-91116780D01*
X161703576Y-91116779D01*
X161709604Y-91114095D01*
X161854922Y-91008515D01*
X161975113Y-90875029D01*
X162050881Y-90743796D01*
X162061621Y-90725194D01*
X162061622Y-90725193D01*
X162064925Y-90719471D01*
X162086576Y-90652837D01*
X162118391Y-90554918D01*
X162118391Y-90554917D01*
X162120431Y-90548639D01*
X162125754Y-90498000D01*
X162138517Y-90376565D01*
X162139207Y-90370000D01*
X162138517Y-90363435D01*
X162121121Y-90197925D01*
X162121121Y-90197924D01*
X162120431Y-90191361D01*
X162086042Y-90085520D01*
X162066967Y-90026813D01*
X162066966Y-90026811D01*
X162064925Y-90020529D01*
X161975113Y-89864971D01*
X161854922Y-89731485D01*
X161750684Y-89655751D01*
X161714946Y-89629786D01*
X161714945Y-89629785D01*
X161709604Y-89625905D01*
X161703576Y-89623221D01*
X161703574Y-89623220D01*
X161551541Y-89555531D01*
X161551540Y-89555531D01*
X161545510Y-89552846D01*
X161457661Y-89534173D01*
X161376269Y-89516872D01*
X161376264Y-89516872D01*
X161369812Y-89515500D01*
X161190188Y-89515500D01*
X161183736Y-89516872D01*
X161183731Y-89516872D01*
X161102339Y-89534173D01*
X161014490Y-89552846D01*
X161008460Y-89555531D01*
X161008459Y-89555531D01*
X160856427Y-89623220D01*
X160856425Y-89623221D01*
X160850397Y-89625905D01*
X160845056Y-89629785D01*
X160845055Y-89629786D01*
X160710422Y-89727602D01*
X160710420Y-89727604D01*
X160705078Y-89731485D01*
X160584887Y-89864971D01*
X160581588Y-89870684D01*
X160581585Y-89870689D01*
X160509119Y-89996204D01*
X160457736Y-90045197D01*
X160388023Y-90058633D01*
X160322112Y-90032246D01*
X160280930Y-89974414D01*
X160274000Y-89933204D01*
X160274000Y-88266796D01*
X160294002Y-88198675D01*
X160347658Y-88152182D01*
X160417932Y-88142078D01*
X160482512Y-88171572D01*
X160509119Y-88203796D01*
X160581585Y-88329311D01*
X160581588Y-88329316D01*
X160584887Y-88335029D01*
X160589305Y-88339936D01*
X160589306Y-88339937D01*
X160691316Y-88453231D01*
X160705078Y-88468515D01*
X160710420Y-88472396D01*
X160710422Y-88472398D01*
X160823321Y-88554424D01*
X160850396Y-88574095D01*
X160856424Y-88576779D01*
X160856426Y-88576780D01*
X160940799Y-88614345D01*
X161014490Y-88647154D01*
X161102339Y-88665827D01*
X161183731Y-88683128D01*
X161183736Y-88683128D01*
X161190188Y-88684500D01*
X161369812Y-88684500D01*
X161376264Y-88683128D01*
X161376269Y-88683128D01*
X161457661Y-88665827D01*
X161545510Y-88647154D01*
X161619201Y-88614345D01*
X161703574Y-88576780D01*
X161703576Y-88576779D01*
X161709604Y-88574095D01*
X161736679Y-88554424D01*
X161849578Y-88472398D01*
X161849580Y-88472396D01*
X161854922Y-88468515D01*
X161868684Y-88453231D01*
X161970694Y-88339937D01*
X161970695Y-88339936D01*
X161975113Y-88335029D01*
X162052917Y-88200269D01*
X162061621Y-88185194D01*
X162061622Y-88185193D01*
X162064925Y-88179471D01*
X162092562Y-88094414D01*
X162118391Y-88014918D01*
X162118391Y-88014917D01*
X162120431Y-88008639D01*
X162139207Y-87830000D01*
X162120431Y-87651361D01*
X162118391Y-87645082D01*
X162066967Y-87486813D01*
X162066966Y-87486811D01*
X162064925Y-87480529D01*
X161975113Y-87324971D01*
X161907995Y-87250428D01*
X161859344Y-87196396D01*
X161859343Y-87196395D01*
X161854922Y-87191485D01*
X161709604Y-87085905D01*
X161703576Y-87083221D01*
X161703574Y-87083220D01*
X161551541Y-87015531D01*
X161551540Y-87015531D01*
X161545510Y-87012846D01*
X161457661Y-86994173D01*
X161376269Y-86976872D01*
X161376264Y-86976872D01*
X161369812Y-86975500D01*
X161190188Y-86975500D01*
X161183736Y-86976872D01*
X161183731Y-86976872D01*
X161102339Y-86994173D01*
X161014490Y-87012846D01*
X161008460Y-87015531D01*
X161008459Y-87015531D01*
X160856427Y-87083220D01*
X160856425Y-87083221D01*
X160850397Y-87085905D01*
X160845056Y-87089785D01*
X160845055Y-87089786D01*
X160710422Y-87187602D01*
X160710420Y-87187604D01*
X160705078Y-87191485D01*
X160700657Y-87196395D01*
X160700656Y-87196396D01*
X160652006Y-87250428D01*
X160584887Y-87324971D01*
X160581588Y-87330684D01*
X160581585Y-87330689D01*
X160509119Y-87456204D01*
X160457736Y-87505197D01*
X160388023Y-87518633D01*
X160322112Y-87492246D01*
X160280930Y-87434414D01*
X160274000Y-87393204D01*
X160274000Y-85726796D01*
X160294002Y-85658675D01*
X160347658Y-85612182D01*
X160417932Y-85602078D01*
X160482512Y-85631572D01*
X160509119Y-85663796D01*
X160581585Y-85789311D01*
X160581588Y-85789316D01*
X160584887Y-85795029D01*
X160589305Y-85799936D01*
X160589306Y-85799937D01*
X160691316Y-85913231D01*
X160705078Y-85928515D01*
X160710420Y-85932396D01*
X160710422Y-85932398D01*
X160823321Y-86014424D01*
X160850396Y-86034095D01*
X160856424Y-86036779D01*
X160856426Y-86036780D01*
X160940799Y-86074345D01*
X161014490Y-86107154D01*
X161102339Y-86125827D01*
X161183731Y-86143128D01*
X161183736Y-86143128D01*
X161190188Y-86144500D01*
X161369812Y-86144500D01*
X161376264Y-86143128D01*
X161376269Y-86143128D01*
X161457661Y-86125827D01*
X161545510Y-86107154D01*
X161619201Y-86074345D01*
X161703574Y-86036780D01*
X161703576Y-86036779D01*
X161709604Y-86034095D01*
X161736679Y-86014424D01*
X161849578Y-85932398D01*
X161849580Y-85932396D01*
X161854922Y-85928515D01*
X161868684Y-85913231D01*
X161970694Y-85799937D01*
X161970695Y-85799936D01*
X161975113Y-85795029D01*
X162052917Y-85660269D01*
X162061621Y-85645194D01*
X162061622Y-85645193D01*
X162064925Y-85639471D01*
X162092562Y-85554414D01*
X162118391Y-85474918D01*
X162118391Y-85474917D01*
X162120431Y-85468639D01*
X162139207Y-85290000D01*
X162120431Y-85111361D01*
X162118391Y-85105082D01*
X162066967Y-84946813D01*
X162066966Y-84946811D01*
X162064925Y-84940529D01*
X161975113Y-84784971D01*
X161907995Y-84710428D01*
X161859344Y-84656396D01*
X161859343Y-84656395D01*
X161854922Y-84651485D01*
X161709604Y-84545905D01*
X161703576Y-84543221D01*
X161703574Y-84543220D01*
X161551541Y-84475531D01*
X161551540Y-84475531D01*
X161545510Y-84472846D01*
X161457661Y-84454173D01*
X161376269Y-84436872D01*
X161376264Y-84436872D01*
X161369812Y-84435500D01*
X161190188Y-84435500D01*
X161183736Y-84436872D01*
X161183731Y-84436872D01*
X161102339Y-84454173D01*
X161014490Y-84472846D01*
X161008460Y-84475531D01*
X161008459Y-84475531D01*
X160856427Y-84543220D01*
X160856425Y-84543221D01*
X160850397Y-84545905D01*
X160845056Y-84549785D01*
X160845055Y-84549786D01*
X160710422Y-84647602D01*
X160710420Y-84647604D01*
X160705078Y-84651485D01*
X160700657Y-84656395D01*
X160700656Y-84656396D01*
X160652006Y-84710428D01*
X160584887Y-84784971D01*
X160581588Y-84790684D01*
X160581585Y-84790689D01*
X160509119Y-84916204D01*
X160457736Y-84965197D01*
X160388023Y-84978633D01*
X160322112Y-84952246D01*
X160280930Y-84894414D01*
X160274000Y-84853204D01*
X160274000Y-83186796D01*
X160294002Y-83118675D01*
X160347658Y-83072182D01*
X160417932Y-83062078D01*
X160482512Y-83091572D01*
X160509119Y-83123796D01*
X160581585Y-83249311D01*
X160581588Y-83249316D01*
X160584887Y-83255029D01*
X160589305Y-83259936D01*
X160589306Y-83259937D01*
X160691316Y-83373231D01*
X160705078Y-83388515D01*
X160710420Y-83392396D01*
X160710422Y-83392398D01*
X160823321Y-83474424D01*
X160850396Y-83494095D01*
X160856424Y-83496779D01*
X160856426Y-83496780D01*
X160940799Y-83534345D01*
X161014490Y-83567154D01*
X161102339Y-83585827D01*
X161183731Y-83603128D01*
X161183736Y-83603128D01*
X161190188Y-83604500D01*
X161369812Y-83604500D01*
X161376264Y-83603128D01*
X161376269Y-83603128D01*
X161457661Y-83585827D01*
X161545510Y-83567154D01*
X161619201Y-83534345D01*
X161703574Y-83496780D01*
X161703576Y-83496779D01*
X161709604Y-83494095D01*
X161736679Y-83474424D01*
X161849578Y-83392398D01*
X161849580Y-83392396D01*
X161854922Y-83388515D01*
X161868684Y-83373231D01*
X161970694Y-83259937D01*
X161970695Y-83259936D01*
X161975113Y-83255029D01*
X162052917Y-83120269D01*
X162061621Y-83105194D01*
X162061622Y-83105193D01*
X162064925Y-83099471D01*
X162092562Y-83014414D01*
X162118391Y-82934918D01*
X162118391Y-82934917D01*
X162120431Y-82928639D01*
X162139207Y-82750000D01*
X162120431Y-82571361D01*
X162118391Y-82565082D01*
X162066967Y-82406813D01*
X162066966Y-82406811D01*
X162064925Y-82400529D01*
X161975113Y-82244971D01*
X161907995Y-82170428D01*
X161859344Y-82116396D01*
X161859343Y-82116395D01*
X161854922Y-82111485D01*
X161709604Y-82005905D01*
X161703576Y-82003221D01*
X161703574Y-82003220D01*
X161551541Y-81935531D01*
X161551540Y-81935531D01*
X161545510Y-81932846D01*
X161457661Y-81914173D01*
X161376269Y-81896872D01*
X161376264Y-81896872D01*
X161369812Y-81895500D01*
X161190188Y-81895500D01*
X161183736Y-81896872D01*
X161183731Y-81896872D01*
X161102339Y-81914173D01*
X161014490Y-81932846D01*
X161008460Y-81935531D01*
X161008459Y-81935531D01*
X160856427Y-82003220D01*
X160856425Y-82003221D01*
X160850397Y-82005905D01*
X160845056Y-82009785D01*
X160845055Y-82009786D01*
X160710422Y-82107602D01*
X160710420Y-82107604D01*
X160705078Y-82111485D01*
X160700657Y-82116395D01*
X160700656Y-82116396D01*
X160652006Y-82170428D01*
X160584887Y-82244971D01*
X160581588Y-82250684D01*
X160581585Y-82250689D01*
X160509119Y-82376204D01*
X160457736Y-82425197D01*
X160388023Y-82438633D01*
X160322112Y-82412246D01*
X160280930Y-82354414D01*
X160274000Y-82313204D01*
X160274000Y-80646796D01*
X160294002Y-80578675D01*
X160347658Y-80532182D01*
X160417932Y-80522078D01*
X160482512Y-80551572D01*
X160509119Y-80583796D01*
X160581585Y-80709311D01*
X160581588Y-80709316D01*
X160584887Y-80715029D01*
X160705078Y-80848515D01*
X160850396Y-80954095D01*
X160856424Y-80956779D01*
X160856426Y-80956780D01*
X161008459Y-81024469D01*
X161014490Y-81027154D01*
X161102339Y-81045827D01*
X161183731Y-81063128D01*
X161183736Y-81063128D01*
X161190188Y-81064500D01*
X161369812Y-81064500D01*
X161376264Y-81063128D01*
X161376269Y-81063128D01*
X161457661Y-81045827D01*
X161545510Y-81027154D01*
X161551541Y-81024469D01*
X161703574Y-80956780D01*
X161703576Y-80956779D01*
X161709604Y-80954095D01*
X161854922Y-80848515D01*
X161975113Y-80715029D01*
X162050881Y-80583796D01*
X162061621Y-80565194D01*
X162061622Y-80565193D01*
X162064925Y-80559471D01*
X162120431Y-80388639D01*
X162139207Y-80210000D01*
X162120431Y-80031361D01*
X162086042Y-79925520D01*
X162066967Y-79866813D01*
X162066966Y-79866811D01*
X162064925Y-79860529D01*
X161975113Y-79704971D01*
X161854922Y-79571485D01*
X161709604Y-79465905D01*
X161703576Y-79463221D01*
X161703574Y-79463220D01*
X161551541Y-79395531D01*
X161551540Y-79395531D01*
X161545510Y-79392846D01*
X161457661Y-79374173D01*
X161376269Y-79356872D01*
X161376264Y-79356872D01*
X161369812Y-79355500D01*
X161190188Y-79355500D01*
X161183736Y-79356872D01*
X161183731Y-79356872D01*
X161102339Y-79374173D01*
X161014490Y-79392846D01*
X161008460Y-79395531D01*
X161008459Y-79395531D01*
X160856427Y-79463220D01*
X160856425Y-79463221D01*
X160850397Y-79465905D01*
X160845056Y-79469785D01*
X160845055Y-79469786D01*
X160710422Y-79567602D01*
X160710420Y-79567604D01*
X160705078Y-79571485D01*
X160584887Y-79704971D01*
X160581588Y-79710684D01*
X160581585Y-79710689D01*
X160509119Y-79836204D01*
X160457736Y-79885197D01*
X160388023Y-79898633D01*
X160322112Y-79872246D01*
X160280930Y-79814414D01*
X160274000Y-79773204D01*
X160274000Y-78106796D01*
X160294002Y-78038675D01*
X160347658Y-77992182D01*
X160417932Y-77982078D01*
X160482512Y-78011572D01*
X160509119Y-78043796D01*
X160581585Y-78169311D01*
X160581588Y-78169316D01*
X160584887Y-78175029D01*
X160705078Y-78308515D01*
X160850396Y-78414095D01*
X160856424Y-78416779D01*
X160856426Y-78416780D01*
X161008459Y-78484469D01*
X161014490Y-78487154D01*
X161102339Y-78505827D01*
X161183731Y-78523128D01*
X161183736Y-78523128D01*
X161190188Y-78524500D01*
X161369812Y-78524500D01*
X161376264Y-78523128D01*
X161376269Y-78523128D01*
X161457661Y-78505827D01*
X161545510Y-78487154D01*
X161551541Y-78484469D01*
X161703574Y-78416780D01*
X161703576Y-78416779D01*
X161709604Y-78414095D01*
X161854922Y-78308515D01*
X161975113Y-78175029D01*
X162050881Y-78043796D01*
X162061621Y-78025194D01*
X162061622Y-78025193D01*
X162064925Y-78019471D01*
X162120431Y-77848639D01*
X162139207Y-77670000D01*
X162120431Y-77491361D01*
X162086042Y-77385520D01*
X162066967Y-77326813D01*
X162066966Y-77326811D01*
X162064925Y-77320529D01*
X161975113Y-77164971D01*
X161854922Y-77031485D01*
X161709604Y-76925905D01*
X161703576Y-76923221D01*
X161703574Y-76923220D01*
X161551541Y-76855531D01*
X161551540Y-76855531D01*
X161545510Y-76852846D01*
X161457661Y-76834173D01*
X161376269Y-76816872D01*
X161376264Y-76816872D01*
X161369812Y-76815500D01*
X161190188Y-76815500D01*
X161183736Y-76816872D01*
X161183731Y-76816872D01*
X161102339Y-76834173D01*
X161014490Y-76852846D01*
X161008460Y-76855531D01*
X161008459Y-76855531D01*
X160856427Y-76923220D01*
X160856425Y-76923221D01*
X160850397Y-76925905D01*
X160845056Y-76929785D01*
X160845055Y-76929786D01*
X160710422Y-77027602D01*
X160710420Y-77027604D01*
X160705078Y-77031485D01*
X160584887Y-77164971D01*
X160581588Y-77170684D01*
X160581585Y-77170689D01*
X160509119Y-77296204D01*
X160457736Y-77345197D01*
X160388023Y-77358633D01*
X160322112Y-77332246D01*
X160280930Y-77274414D01*
X160274000Y-77233204D01*
X160274000Y-75566796D01*
X160294002Y-75498675D01*
X160347658Y-75452182D01*
X160417932Y-75442078D01*
X160482512Y-75471572D01*
X160509119Y-75503796D01*
X160581585Y-75629311D01*
X160581588Y-75629316D01*
X160584887Y-75635029D01*
X160705078Y-75768515D01*
X160850396Y-75874095D01*
X160856424Y-75876779D01*
X160856426Y-75876780D01*
X161008459Y-75944469D01*
X161014490Y-75947154D01*
X161102339Y-75965827D01*
X161183731Y-75983128D01*
X161183736Y-75983128D01*
X161190188Y-75984500D01*
X161369812Y-75984500D01*
X161376264Y-75983128D01*
X161376269Y-75983128D01*
X161457661Y-75965827D01*
X161545510Y-75947154D01*
X161551541Y-75944469D01*
X161703574Y-75876780D01*
X161703576Y-75876779D01*
X161709604Y-75874095D01*
X161854922Y-75768515D01*
X161975113Y-75635029D01*
X162050881Y-75503796D01*
X162061621Y-75485194D01*
X162061622Y-75485193D01*
X162064925Y-75479471D01*
X162120431Y-75308639D01*
X162139207Y-75130000D01*
X162120431Y-74951361D01*
X162086042Y-74845520D01*
X162066967Y-74786813D01*
X162066966Y-74786811D01*
X162064925Y-74780529D01*
X161975113Y-74624971D01*
X161854922Y-74491485D01*
X161839024Y-74479934D01*
X161714946Y-74389786D01*
X161714945Y-74389785D01*
X161709604Y-74385905D01*
X161703576Y-74383221D01*
X161703574Y-74383220D01*
X161551541Y-74315531D01*
X161551540Y-74315531D01*
X161545510Y-74312846D01*
X161457661Y-74294173D01*
X161376269Y-74276872D01*
X161376264Y-74276872D01*
X161369812Y-74275500D01*
X161190188Y-74275500D01*
X161183736Y-74276872D01*
X161183731Y-74276872D01*
X161102339Y-74294173D01*
X161014490Y-74312846D01*
X161008460Y-74315531D01*
X161008459Y-74315531D01*
X160856427Y-74383220D01*
X160856425Y-74383221D01*
X160850397Y-74385905D01*
X160845056Y-74389785D01*
X160845055Y-74389786D01*
X160710422Y-74487602D01*
X160710420Y-74487604D01*
X160705078Y-74491485D01*
X160584887Y-74624971D01*
X160581588Y-74630684D01*
X160581585Y-74630689D01*
X160509119Y-74756204D01*
X160457736Y-74805197D01*
X160388023Y-74818633D01*
X160322112Y-74792246D01*
X160280930Y-74734414D01*
X160274000Y-74693204D01*
X160274000Y-74219117D01*
X163592183Y-74219117D01*
X163592314Y-74220950D01*
X163596565Y-74227565D01*
X163776564Y-74407564D01*
X163781387Y-74411913D01*
X163856017Y-74472512D01*
X163867528Y-74479934D01*
X164012929Y-74552588D01*
X164026603Y-74557538D01*
X164184402Y-74594693D01*
X164198847Y-74596365D01*
X164360963Y-74596224D01*
X164375399Y-74594528D01*
X164533137Y-74557095D01*
X164546801Y-74552122D01*
X164692087Y-74479210D01*
X164703570Y-74471781D01*
X164777120Y-74411901D01*
X164781894Y-74407591D01*
X164861464Y-74328020D01*
X164869074Y-74314084D01*
X164868943Y-74312247D01*
X164864691Y-74305631D01*
X164194827Y-73635767D01*
X164180883Y-73628153D01*
X164179050Y-73628284D01*
X164172435Y-73632535D01*
X163599797Y-74205173D01*
X163592183Y-74219117D01*
X160274000Y-74219117D01*
X160274000Y-73026796D01*
X160294002Y-72958675D01*
X160347658Y-72912182D01*
X160417932Y-72902078D01*
X160482512Y-72931572D01*
X160509119Y-72963796D01*
X160581585Y-73089311D01*
X160581588Y-73089316D01*
X160584887Y-73095029D01*
X160705078Y-73228515D01*
X160710420Y-73232396D01*
X160710422Y-73232398D01*
X160826447Y-73316695D01*
X160850396Y-73334095D01*
X160856424Y-73336779D01*
X160856426Y-73336780D01*
X161008459Y-73404469D01*
X161014490Y-73407154D01*
X161076864Y-73420412D01*
X161183731Y-73443128D01*
X161183736Y-73443128D01*
X161190188Y-73444500D01*
X161369812Y-73444500D01*
X161376264Y-73443128D01*
X161376269Y-73443128D01*
X161483136Y-73420412D01*
X161545510Y-73407154D01*
X161551541Y-73404469D01*
X161703574Y-73336780D01*
X161703576Y-73336779D01*
X161709604Y-73334095D01*
X161733553Y-73316695D01*
X161849578Y-73232398D01*
X161849580Y-73232396D01*
X161854922Y-73228515D01*
X161975113Y-73095029D01*
X161980255Y-73086123D01*
X162849395Y-73086123D01*
X162849536Y-73248239D01*
X162851232Y-73262675D01*
X162888665Y-73420412D01*
X162893638Y-73434076D01*
X162966549Y-73579360D01*
X162973980Y-73590845D01*
X163033869Y-73664408D01*
X163038158Y-73669159D01*
X163214967Y-73845967D01*
X163228905Y-73853578D01*
X163230741Y-73853446D01*
X163237353Y-73849197D01*
X163809993Y-73276557D01*
X163817607Y-73262613D01*
X163817476Y-73260780D01*
X163813225Y-73254165D01*
X163143360Y-72584300D01*
X163129416Y-72576686D01*
X163127583Y-72576817D01*
X163120968Y-72581068D01*
X163038196Y-72663840D01*
X163033847Y-72668663D01*
X162973248Y-72743293D01*
X162965826Y-72754804D01*
X162893172Y-72900205D01*
X162888222Y-72913879D01*
X162851067Y-73071678D01*
X162849395Y-73086123D01*
X161980255Y-73086123D01*
X162053656Y-72958989D01*
X162061621Y-72945194D01*
X162061622Y-72945193D01*
X162064925Y-72939471D01*
X162073084Y-72914362D01*
X162118391Y-72774918D01*
X162118391Y-72774917D01*
X162120431Y-72768639D01*
X162139207Y-72590000D01*
X162120431Y-72411361D01*
X162114961Y-72394525D01*
X162066967Y-72246813D01*
X162066966Y-72246811D01*
X162064925Y-72240529D01*
X162049266Y-72213406D01*
X162015214Y-72154428D01*
X161975113Y-72084971D01*
X161948766Y-72055709D01*
X161859344Y-71956396D01*
X161859343Y-71956395D01*
X161854922Y-71951485D01*
X161829428Y-71932962D01*
X161714946Y-71849786D01*
X161714945Y-71849785D01*
X161709604Y-71845905D01*
X161703576Y-71843221D01*
X161703574Y-71843220D01*
X161551541Y-71775531D01*
X161551540Y-71775531D01*
X161545510Y-71772846D01*
X161457661Y-71754173D01*
X161376269Y-71736872D01*
X161376264Y-71736872D01*
X161369812Y-71735500D01*
X161190188Y-71735500D01*
X161183736Y-71736872D01*
X161183731Y-71736872D01*
X161102339Y-71754173D01*
X161014490Y-71772846D01*
X161008460Y-71775531D01*
X161008459Y-71775531D01*
X160856427Y-71843220D01*
X160856425Y-71843221D01*
X160850397Y-71845905D01*
X160845056Y-71849785D01*
X160845055Y-71849786D01*
X160710422Y-71947602D01*
X160710420Y-71947604D01*
X160705078Y-71951485D01*
X160700657Y-71956395D01*
X160700656Y-71956396D01*
X160611235Y-72055709D01*
X160584887Y-72084971D01*
X160581588Y-72090684D01*
X160581585Y-72090689D01*
X160509119Y-72216204D01*
X160457736Y-72265197D01*
X160388023Y-72278633D01*
X160322112Y-72252246D01*
X160280930Y-72194414D01*
X160274000Y-72153204D01*
X160274000Y-70486796D01*
X160294002Y-70418675D01*
X160347658Y-70372182D01*
X160417932Y-70362078D01*
X160482512Y-70391572D01*
X160509119Y-70423796D01*
X160581585Y-70549311D01*
X160581588Y-70549316D01*
X160584887Y-70555029D01*
X160589305Y-70559936D01*
X160589306Y-70559937D01*
X160599424Y-70571174D01*
X160705078Y-70688515D01*
X160710420Y-70692396D01*
X160710422Y-70692398D01*
X160783878Y-70745767D01*
X160850396Y-70794095D01*
X160856424Y-70796779D01*
X160856426Y-70796780D01*
X161008459Y-70864469D01*
X161014490Y-70867154D01*
X161102339Y-70885827D01*
X161183731Y-70903128D01*
X161183736Y-70903128D01*
X161190188Y-70904500D01*
X161369812Y-70904500D01*
X161376264Y-70903128D01*
X161376269Y-70903128D01*
X161457661Y-70885827D01*
X161545510Y-70867154D01*
X161551541Y-70864469D01*
X161703574Y-70796780D01*
X161703576Y-70796779D01*
X161709604Y-70794095D01*
X161776122Y-70745767D01*
X161849578Y-70692398D01*
X161849580Y-70692396D01*
X161854922Y-70688515D01*
X161960576Y-70571174D01*
X161970694Y-70559937D01*
X161970695Y-70559936D01*
X161975113Y-70555029D01*
X162050881Y-70423796D01*
X162061621Y-70405194D01*
X162061622Y-70405193D01*
X162064925Y-70399471D01*
X162120431Y-70228639D01*
X162139207Y-70050000D01*
X162120431Y-69871361D01*
X162086042Y-69765520D01*
X162066967Y-69706813D01*
X162066966Y-69706811D01*
X162064925Y-69700529D01*
X161975113Y-69544971D01*
X161854922Y-69411485D01*
X161709604Y-69305905D01*
X161703576Y-69303221D01*
X161703574Y-69303220D01*
X161551541Y-69235531D01*
X161551540Y-69235531D01*
X161545510Y-69232846D01*
X161457661Y-69214173D01*
X161376269Y-69196872D01*
X161376264Y-69196872D01*
X161369812Y-69195500D01*
X161190188Y-69195500D01*
X161183736Y-69196872D01*
X161183731Y-69196872D01*
X161102339Y-69214173D01*
X161014490Y-69232846D01*
X161008460Y-69235531D01*
X161008459Y-69235531D01*
X160856427Y-69303220D01*
X160856425Y-69303221D01*
X160850397Y-69305905D01*
X160845056Y-69309785D01*
X160845055Y-69309786D01*
X160710422Y-69407602D01*
X160710420Y-69407604D01*
X160705078Y-69411485D01*
X160584887Y-69544971D01*
X160581588Y-69550684D01*
X160581585Y-69550689D01*
X160509119Y-69676204D01*
X160457736Y-69725197D01*
X160388023Y-69738633D01*
X160322112Y-69712246D01*
X160280930Y-69654414D01*
X160274000Y-69613204D01*
X160274000Y-67946796D01*
X160294002Y-67878675D01*
X160347658Y-67832182D01*
X160417932Y-67822078D01*
X160482512Y-67851572D01*
X160509119Y-67883796D01*
X160581585Y-68009311D01*
X160581588Y-68009316D01*
X160584887Y-68015029D01*
X160705078Y-68148515D01*
X160850396Y-68254095D01*
X160856424Y-68256779D01*
X160856426Y-68256780D01*
X161008459Y-68324469D01*
X161014490Y-68327154D01*
X161102339Y-68345827D01*
X161183731Y-68363128D01*
X161183736Y-68363128D01*
X161190188Y-68364500D01*
X161369812Y-68364500D01*
X161376264Y-68363128D01*
X161376269Y-68363128D01*
X161457661Y-68345827D01*
X161545510Y-68327154D01*
X161551541Y-68324469D01*
X161703574Y-68256780D01*
X161703576Y-68256779D01*
X161709604Y-68254095D01*
X161854922Y-68148515D01*
X161975113Y-68015029D01*
X162050881Y-67883796D01*
X162061621Y-67865194D01*
X162061622Y-67865193D01*
X162064925Y-67859471D01*
X162120431Y-67688639D01*
X162139207Y-67510000D01*
X162120431Y-67331361D01*
X162086042Y-67225520D01*
X162066967Y-67166813D01*
X162066966Y-67166811D01*
X162064925Y-67160529D01*
X161975113Y-67004971D01*
X161877049Y-66896059D01*
X161859344Y-66876396D01*
X161859343Y-66876395D01*
X161854922Y-66871485D01*
X161802751Y-66833580D01*
X161714946Y-66769786D01*
X161714945Y-66769785D01*
X161709604Y-66765905D01*
X161703576Y-66763221D01*
X161703574Y-66763220D01*
X161551541Y-66695531D01*
X161551540Y-66695531D01*
X161545510Y-66692846D01*
X161457661Y-66674173D01*
X161376269Y-66656872D01*
X161376264Y-66656872D01*
X161369812Y-66655500D01*
X161190188Y-66655500D01*
X161183736Y-66656872D01*
X161183731Y-66656872D01*
X161102339Y-66674173D01*
X161014490Y-66692846D01*
X161008460Y-66695531D01*
X161008459Y-66695531D01*
X160856427Y-66763220D01*
X160856425Y-66763221D01*
X160850397Y-66765905D01*
X160845056Y-66769785D01*
X160845055Y-66769786D01*
X160710422Y-66867602D01*
X160710420Y-66867604D01*
X160705078Y-66871485D01*
X160700657Y-66876395D01*
X160700656Y-66876396D01*
X160682952Y-66896059D01*
X160584887Y-67004971D01*
X160581588Y-67010684D01*
X160581585Y-67010689D01*
X160509119Y-67136204D01*
X160457736Y-67185197D01*
X160388023Y-67198633D01*
X160322112Y-67172246D01*
X160280930Y-67114414D01*
X160274000Y-67073204D01*
X160274000Y-65406796D01*
X160294002Y-65338675D01*
X160347658Y-65292182D01*
X160417932Y-65282078D01*
X160482512Y-65311572D01*
X160509119Y-65343796D01*
X160581585Y-65469311D01*
X160581588Y-65469316D01*
X160584887Y-65475029D01*
X160705078Y-65608515D01*
X160710420Y-65612396D01*
X160710422Y-65612398D01*
X160813433Y-65687240D01*
X160850396Y-65714095D01*
X160856424Y-65716779D01*
X160856426Y-65716780D01*
X160950938Y-65758859D01*
X161014490Y-65787154D01*
X161102339Y-65805827D01*
X161183731Y-65823128D01*
X161183736Y-65823128D01*
X161190188Y-65824500D01*
X161369812Y-65824500D01*
X161376264Y-65823128D01*
X161376269Y-65823128D01*
X161457661Y-65805827D01*
X161545510Y-65787154D01*
X161609062Y-65758859D01*
X161703574Y-65716780D01*
X161703576Y-65716779D01*
X161709604Y-65714095D01*
X161746567Y-65687240D01*
X161849578Y-65612398D01*
X161849580Y-65612396D01*
X161854922Y-65608515D01*
X161975113Y-65475029D01*
X162050881Y-65343796D01*
X162061621Y-65325194D01*
X162061622Y-65325193D01*
X162064925Y-65319471D01*
X162120431Y-65148639D01*
X162138386Y-64977816D01*
X162138517Y-64976565D01*
X162139207Y-64970000D01*
X162120431Y-64791361D01*
X162086042Y-64685520D01*
X162066967Y-64626813D01*
X162066966Y-64626811D01*
X162064925Y-64620529D01*
X161975113Y-64464971D01*
X161854922Y-64331485D01*
X161794267Y-64287416D01*
X161714946Y-64229786D01*
X161714945Y-64229785D01*
X161709604Y-64225905D01*
X161703576Y-64223221D01*
X161703574Y-64223220D01*
X161551541Y-64155531D01*
X161551540Y-64155531D01*
X161545510Y-64152846D01*
X161457661Y-64134173D01*
X161376269Y-64116872D01*
X161376264Y-64116872D01*
X161369812Y-64115500D01*
X161190188Y-64115500D01*
X161183736Y-64116872D01*
X161183731Y-64116872D01*
X161102339Y-64134173D01*
X161014490Y-64152846D01*
X161008460Y-64155531D01*
X161008459Y-64155531D01*
X160856427Y-64223220D01*
X160856425Y-64223221D01*
X160850397Y-64225905D01*
X160845056Y-64229785D01*
X160845055Y-64229786D01*
X160710422Y-64327602D01*
X160710420Y-64327604D01*
X160705078Y-64331485D01*
X160584887Y-64464971D01*
X160581588Y-64470684D01*
X160581585Y-64470689D01*
X160509119Y-64596204D01*
X160457736Y-64645197D01*
X160388023Y-64658633D01*
X160322112Y-64632246D01*
X160280930Y-64574414D01*
X160274000Y-64533204D01*
X160274000Y-62866796D01*
X160294002Y-62798675D01*
X160347658Y-62752182D01*
X160417932Y-62742078D01*
X160482512Y-62771572D01*
X160509119Y-62803796D01*
X160581585Y-62929311D01*
X160581588Y-62929316D01*
X160584887Y-62935029D01*
X160589305Y-62939936D01*
X160589306Y-62939937D01*
X160679800Y-63040441D01*
X160705078Y-63068515D01*
X160710420Y-63072396D01*
X160710422Y-63072398D01*
X160808222Y-63143454D01*
X160850396Y-63174095D01*
X160856424Y-63176779D01*
X160856426Y-63176780D01*
X161008459Y-63244469D01*
X161014490Y-63247154D01*
X161102339Y-63265827D01*
X161183731Y-63283128D01*
X161183736Y-63283128D01*
X161190188Y-63284500D01*
X161369812Y-63284500D01*
X161376264Y-63283128D01*
X161376269Y-63283128D01*
X161457661Y-63265827D01*
X161545510Y-63247154D01*
X161551541Y-63244469D01*
X161703574Y-63176780D01*
X161703576Y-63176779D01*
X161709604Y-63174095D01*
X161751778Y-63143454D01*
X161849578Y-63072398D01*
X161849580Y-63072396D01*
X161854922Y-63068515D01*
X161880200Y-63040441D01*
X161970694Y-62939937D01*
X161970695Y-62939936D01*
X161975113Y-62935029D01*
X162043834Y-62816001D01*
X164083757Y-62816001D01*
X164083898Y-62978117D01*
X164085594Y-62992553D01*
X164123027Y-63150290D01*
X164128000Y-63163954D01*
X164200911Y-63309238D01*
X164208342Y-63320723D01*
X164268231Y-63394286D01*
X164272520Y-63399037D01*
X164449329Y-63575845D01*
X164463267Y-63583456D01*
X164465103Y-63583324D01*
X164471715Y-63579075D01*
X165044355Y-63006435D01*
X165051969Y-62992491D01*
X165051838Y-62990658D01*
X165047587Y-62984043D01*
X164377722Y-62314178D01*
X164363778Y-62306564D01*
X164361945Y-62306695D01*
X164355330Y-62310946D01*
X164272558Y-62393718D01*
X164268209Y-62398541D01*
X164207610Y-62473171D01*
X164200188Y-62484682D01*
X164127534Y-62630083D01*
X164122584Y-62643757D01*
X164085429Y-62801556D01*
X164083757Y-62816001D01*
X162043834Y-62816001D01*
X162052174Y-62801556D01*
X162061621Y-62785194D01*
X162061622Y-62785193D01*
X162064925Y-62779471D01*
X162120431Y-62608639D01*
X162132949Y-62489545D01*
X162138517Y-62436565D01*
X162139207Y-62430000D01*
X162136022Y-62399701D01*
X162121121Y-62257925D01*
X162121121Y-62257924D01*
X162120431Y-62251361D01*
X162079990Y-62126894D01*
X162066967Y-62086813D01*
X162066966Y-62086811D01*
X162064925Y-62080529D01*
X161975113Y-61924971D01*
X161962779Y-61911272D01*
X161859344Y-61796396D01*
X161859343Y-61796395D01*
X161854922Y-61791485D01*
X161846805Y-61785587D01*
X161714946Y-61689786D01*
X161714945Y-61689785D01*
X161709604Y-61685905D01*
X161703576Y-61683221D01*
X161703574Y-61683220D01*
X161551541Y-61615531D01*
X161551540Y-61615531D01*
X161545510Y-61612846D01*
X161457661Y-61594173D01*
X161376269Y-61576872D01*
X161376264Y-61576872D01*
X161369812Y-61575500D01*
X161190188Y-61575500D01*
X161183736Y-61576872D01*
X161183731Y-61576872D01*
X161102339Y-61594173D01*
X161014490Y-61612846D01*
X161008460Y-61615531D01*
X161008459Y-61615531D01*
X160856427Y-61683220D01*
X160856425Y-61683221D01*
X160850397Y-61685905D01*
X160845056Y-61689785D01*
X160845055Y-61689786D01*
X160710422Y-61787602D01*
X160710420Y-61787604D01*
X160705078Y-61791485D01*
X160700657Y-61796395D01*
X160700656Y-61796396D01*
X160597222Y-61911272D01*
X160584887Y-61924971D01*
X160581588Y-61930684D01*
X160581585Y-61930689D01*
X160509119Y-62056204D01*
X160457736Y-62105197D01*
X160388023Y-62118633D01*
X160322112Y-62092246D01*
X160280930Y-62034414D01*
X160274000Y-61993204D01*
X160274000Y-60326796D01*
X160294002Y-60258675D01*
X160347658Y-60212182D01*
X160417932Y-60202078D01*
X160482512Y-60231572D01*
X160509119Y-60263796D01*
X160581585Y-60389311D01*
X160581588Y-60389316D01*
X160584887Y-60395029D01*
X160589305Y-60399936D01*
X160589306Y-60399937D01*
X160700656Y-60523604D01*
X160705078Y-60528515D01*
X160850396Y-60634095D01*
X160856424Y-60636779D01*
X160856426Y-60636780D01*
X161008459Y-60704469D01*
X161014490Y-60707154D01*
X161102339Y-60725827D01*
X161183731Y-60743128D01*
X161183736Y-60743128D01*
X161190188Y-60744500D01*
X161369812Y-60744500D01*
X161376264Y-60743128D01*
X161376269Y-60743128D01*
X161457661Y-60725827D01*
X161545510Y-60707154D01*
X161551541Y-60704469D01*
X161703574Y-60636780D01*
X161703576Y-60636779D01*
X161709604Y-60634095D01*
X161854922Y-60528515D01*
X161859344Y-60523604D01*
X161970694Y-60399937D01*
X161970695Y-60399936D01*
X161975113Y-60395029D01*
X162050881Y-60263796D01*
X162061621Y-60245194D01*
X162061622Y-60245193D01*
X162064925Y-60239471D01*
X162120431Y-60068639D01*
X162139207Y-59890000D01*
X162120431Y-59711361D01*
X162086042Y-59605520D01*
X162066967Y-59546813D01*
X162066966Y-59546811D01*
X162064925Y-59540529D01*
X161975113Y-59384971D01*
X161854922Y-59251485D01*
X161709604Y-59145905D01*
X161703576Y-59143221D01*
X161703574Y-59143220D01*
X161551541Y-59075531D01*
X161551540Y-59075531D01*
X161545510Y-59072846D01*
X161457661Y-59054173D01*
X161376269Y-59036872D01*
X161376264Y-59036872D01*
X161369812Y-59035500D01*
X161190188Y-59035500D01*
X161183736Y-59036872D01*
X161183731Y-59036872D01*
X161102339Y-59054173D01*
X161014490Y-59072846D01*
X161008460Y-59075531D01*
X161008459Y-59075531D01*
X160856427Y-59143220D01*
X160856425Y-59143221D01*
X160850397Y-59145905D01*
X160845056Y-59149785D01*
X160845055Y-59149786D01*
X160710422Y-59247602D01*
X160710420Y-59247604D01*
X160705078Y-59251485D01*
X160584887Y-59384971D01*
X160581588Y-59390684D01*
X160581585Y-59390689D01*
X160509119Y-59516204D01*
X160457736Y-59565197D01*
X160388023Y-59578633D01*
X160322112Y-59552246D01*
X160280930Y-59494414D01*
X160274000Y-59453204D01*
X160274000Y-57786796D01*
X160294002Y-57718675D01*
X160347658Y-57672182D01*
X160417932Y-57662078D01*
X160482512Y-57691572D01*
X160509119Y-57723796D01*
X160581585Y-57849311D01*
X160581588Y-57849316D01*
X160584887Y-57855029D01*
X160705078Y-57988515D01*
X160850396Y-58094095D01*
X160856424Y-58096779D01*
X160856426Y-58096780D01*
X161008459Y-58164469D01*
X161014490Y-58167154D01*
X161102339Y-58185827D01*
X161183731Y-58203128D01*
X161183736Y-58203128D01*
X161190188Y-58204500D01*
X161369812Y-58204500D01*
X161376264Y-58203128D01*
X161376269Y-58203128D01*
X161457661Y-58185827D01*
X161545510Y-58167154D01*
X161551541Y-58164469D01*
X161703574Y-58096780D01*
X161703576Y-58096779D01*
X161709604Y-58094095D01*
X161854922Y-57988515D01*
X161975113Y-57855029D01*
X162050881Y-57723796D01*
X162061621Y-57705194D01*
X162061622Y-57705193D01*
X162064925Y-57699471D01*
X162120431Y-57528639D01*
X162139207Y-57350000D01*
X162120431Y-57171361D01*
X162086042Y-57065520D01*
X162066967Y-57006813D01*
X162066966Y-57006811D01*
X162064925Y-57000529D01*
X161975113Y-56844971D01*
X161854922Y-56711485D01*
X161709604Y-56605905D01*
X161703576Y-56603221D01*
X161703574Y-56603220D01*
X161551541Y-56535531D01*
X161551540Y-56535531D01*
X161545510Y-56532846D01*
X161457661Y-56514173D01*
X161376269Y-56496872D01*
X161376264Y-56496872D01*
X161369812Y-56495500D01*
X161190188Y-56495500D01*
X161183736Y-56496872D01*
X161183731Y-56496872D01*
X161102339Y-56514173D01*
X161014490Y-56532846D01*
X161008460Y-56535531D01*
X161008459Y-56535531D01*
X160856427Y-56603220D01*
X160856425Y-56603221D01*
X160850397Y-56605905D01*
X160845056Y-56609785D01*
X160845055Y-56609786D01*
X160710422Y-56707602D01*
X160710420Y-56707604D01*
X160705078Y-56711485D01*
X160584887Y-56844971D01*
X160581588Y-56850684D01*
X160581585Y-56850689D01*
X160509119Y-56976204D01*
X160457736Y-57025197D01*
X160388023Y-57038633D01*
X160322112Y-57012246D01*
X160280930Y-56954414D01*
X160274000Y-56913204D01*
X160274000Y-55246796D01*
X160294002Y-55178675D01*
X160347658Y-55132182D01*
X160417932Y-55122078D01*
X160482512Y-55151572D01*
X160509119Y-55183796D01*
X160581585Y-55309311D01*
X160581588Y-55309316D01*
X160584887Y-55315029D01*
X160705078Y-55448515D01*
X160850396Y-55554095D01*
X160856424Y-55556779D01*
X160856426Y-55556780D01*
X161008459Y-55624469D01*
X161014490Y-55627154D01*
X161102339Y-55645827D01*
X161183731Y-55663128D01*
X161183736Y-55663128D01*
X161190188Y-55664500D01*
X161369812Y-55664500D01*
X161376264Y-55663128D01*
X161376269Y-55663128D01*
X161457661Y-55645827D01*
X161545510Y-55627154D01*
X161551541Y-55624469D01*
X161703574Y-55556780D01*
X161703576Y-55556779D01*
X161709604Y-55554095D01*
X161854922Y-55448515D01*
X161975113Y-55315029D01*
X162050881Y-55183796D01*
X162061621Y-55165194D01*
X162061622Y-55165193D01*
X162064925Y-55159471D01*
X162120431Y-54988639D01*
X162139207Y-54810000D01*
X162120431Y-54631361D01*
X162086042Y-54525520D01*
X162066967Y-54466813D01*
X162066966Y-54466811D01*
X162064925Y-54460529D01*
X161975113Y-54304971D01*
X161854922Y-54171485D01*
X161709604Y-54065905D01*
X161703576Y-54063221D01*
X161703574Y-54063220D01*
X161551541Y-53995531D01*
X161551540Y-53995531D01*
X161545510Y-53992846D01*
X161457661Y-53974173D01*
X161376269Y-53956872D01*
X161376264Y-53956872D01*
X161369812Y-53955500D01*
X161190188Y-53955500D01*
X161183736Y-53956872D01*
X161183731Y-53956872D01*
X161102339Y-53974173D01*
X161014490Y-53992846D01*
X161008460Y-53995531D01*
X161008459Y-53995531D01*
X160856427Y-54063220D01*
X160856425Y-54063221D01*
X160850397Y-54065905D01*
X160845056Y-54069785D01*
X160845055Y-54069786D01*
X160710422Y-54167602D01*
X160710420Y-54167604D01*
X160705078Y-54171485D01*
X160584887Y-54304971D01*
X160581588Y-54310684D01*
X160581585Y-54310689D01*
X160509119Y-54436204D01*
X160457736Y-54485197D01*
X160388023Y-54498633D01*
X160322112Y-54472246D01*
X160280930Y-54414414D01*
X160274000Y-54373204D01*
X160274000Y-52706796D01*
X160294002Y-52638675D01*
X160347658Y-52592182D01*
X160417932Y-52582078D01*
X160482512Y-52611572D01*
X160509119Y-52643796D01*
X160581585Y-52769311D01*
X160581588Y-52769316D01*
X160584887Y-52775029D01*
X160589305Y-52779936D01*
X160589306Y-52779937D01*
X160698449Y-52901153D01*
X160705078Y-52908515D01*
X160850396Y-53014095D01*
X160856424Y-53016779D01*
X160856426Y-53016780D01*
X161008459Y-53084469D01*
X161014490Y-53087154D01*
X161084095Y-53101949D01*
X161183731Y-53123128D01*
X161183736Y-53123128D01*
X161190188Y-53124500D01*
X161369812Y-53124500D01*
X161376264Y-53123128D01*
X161376269Y-53123128D01*
X161475905Y-53101949D01*
X161545510Y-53087154D01*
X161551541Y-53084469D01*
X161703574Y-53016780D01*
X161703576Y-53016779D01*
X161709604Y-53014095D01*
X161854922Y-52908515D01*
X161861551Y-52901153D01*
X161970694Y-52779937D01*
X161970695Y-52779936D01*
X161975113Y-52775029D01*
X162050881Y-52643796D01*
X162061621Y-52625194D01*
X162061622Y-52625193D01*
X162064925Y-52619471D01*
X162120431Y-52448639D01*
X162139207Y-52270000D01*
X162120431Y-52091361D01*
X162086042Y-51985520D01*
X162066967Y-51926813D01*
X162066966Y-51926811D01*
X162064925Y-51920529D01*
X161975113Y-51764971D01*
X161924150Y-51708370D01*
X161859344Y-51636396D01*
X161859343Y-51636395D01*
X161854922Y-51631485D01*
X161772000Y-51571238D01*
X161714946Y-51529786D01*
X161714945Y-51529785D01*
X161709604Y-51525905D01*
X161703576Y-51523221D01*
X161703574Y-51523220D01*
X161551541Y-51455531D01*
X161551540Y-51455531D01*
X161545510Y-51452846D01*
X161448346Y-51432193D01*
X161376269Y-51416872D01*
X161376264Y-51416872D01*
X161369812Y-51415500D01*
X161190188Y-51415500D01*
X161183736Y-51416872D01*
X161183731Y-51416872D01*
X161111654Y-51432193D01*
X161014490Y-51452846D01*
X161008460Y-51455531D01*
X161008459Y-51455531D01*
X160856427Y-51523220D01*
X160856425Y-51523221D01*
X160850397Y-51525905D01*
X160845056Y-51529785D01*
X160845055Y-51529786D01*
X160710422Y-51627602D01*
X160710420Y-51627604D01*
X160705078Y-51631485D01*
X160700657Y-51636395D01*
X160700656Y-51636396D01*
X160635851Y-51708370D01*
X160584887Y-51764971D01*
X160581588Y-51770684D01*
X160581585Y-51770689D01*
X160509119Y-51896204D01*
X160457736Y-51945197D01*
X160388023Y-51958633D01*
X160322112Y-51932246D01*
X160280930Y-51874414D01*
X160274000Y-51833204D01*
X160274000Y-50166796D01*
X160294002Y-50098675D01*
X160347658Y-50052182D01*
X160417932Y-50042078D01*
X160482512Y-50071572D01*
X160509119Y-50103796D01*
X160581585Y-50229311D01*
X160581588Y-50229316D01*
X160584887Y-50235029D01*
X160705078Y-50368515D01*
X160850396Y-50474095D01*
X160856424Y-50476779D01*
X160856426Y-50476780D01*
X161008459Y-50544469D01*
X161014490Y-50547154D01*
X161102339Y-50565827D01*
X161183731Y-50583128D01*
X161183736Y-50583128D01*
X161190188Y-50584500D01*
X161369812Y-50584500D01*
X161376264Y-50583128D01*
X161376269Y-50583128D01*
X161457661Y-50565827D01*
X161545510Y-50547154D01*
X161551541Y-50544469D01*
X161703574Y-50476780D01*
X161703576Y-50476779D01*
X161709604Y-50474095D01*
X161854922Y-50368515D01*
X161975113Y-50235029D01*
X162050881Y-50103796D01*
X162061621Y-50085194D01*
X162061622Y-50085193D01*
X162064925Y-50079471D01*
X162120431Y-49908639D01*
X162139207Y-49730000D01*
X162120431Y-49551361D01*
X162086042Y-49445520D01*
X162066967Y-49386813D01*
X162066966Y-49386811D01*
X162064925Y-49380529D01*
X161975113Y-49224971D01*
X161854922Y-49091485D01*
X161832141Y-49074933D01*
X161714946Y-48989786D01*
X161714945Y-48989785D01*
X161709604Y-48985905D01*
X161703576Y-48983221D01*
X161703574Y-48983220D01*
X161551541Y-48915531D01*
X161551540Y-48915531D01*
X161545510Y-48912846D01*
X161457661Y-48894173D01*
X161376269Y-48876872D01*
X161376264Y-48876872D01*
X161369812Y-48875500D01*
X161190188Y-48875500D01*
X161183736Y-48876872D01*
X161183731Y-48876872D01*
X161102339Y-48894173D01*
X161014490Y-48912846D01*
X161008460Y-48915531D01*
X161008459Y-48915531D01*
X160856427Y-48983220D01*
X160856425Y-48983221D01*
X160850397Y-48985905D01*
X160845056Y-48989785D01*
X160845055Y-48989786D01*
X160710422Y-49087602D01*
X160710420Y-49087604D01*
X160705078Y-49091485D01*
X160584887Y-49224971D01*
X160581588Y-49230684D01*
X160581585Y-49230689D01*
X160509119Y-49356204D01*
X160457736Y-49405197D01*
X160388023Y-49418633D01*
X160322112Y-49392246D01*
X160280930Y-49334414D01*
X160274000Y-49293204D01*
X160274000Y-47626796D01*
X160294002Y-47558675D01*
X160347658Y-47512182D01*
X160417932Y-47502078D01*
X160482512Y-47531572D01*
X160509119Y-47563796D01*
X160581585Y-47689311D01*
X160581588Y-47689316D01*
X160584887Y-47695029D01*
X160705078Y-47828515D01*
X160850396Y-47934095D01*
X160856424Y-47936779D01*
X160856426Y-47936780D01*
X161008459Y-48004469D01*
X161014490Y-48007154D01*
X161102339Y-48025827D01*
X161183731Y-48043128D01*
X161183736Y-48043128D01*
X161190188Y-48044500D01*
X161369812Y-48044500D01*
X161376264Y-48043128D01*
X161376269Y-48043128D01*
X161457661Y-48025827D01*
X161545510Y-48007154D01*
X161551541Y-48004469D01*
X161703574Y-47936780D01*
X161703576Y-47936779D01*
X161709604Y-47934095D01*
X161854922Y-47828515D01*
X161975113Y-47695029D01*
X162050881Y-47563796D01*
X162061621Y-47545194D01*
X162061622Y-47545193D01*
X162064925Y-47539471D01*
X162120431Y-47368639D01*
X162139207Y-47190000D01*
X162120431Y-47011361D01*
X162086042Y-46905520D01*
X162066967Y-46846813D01*
X162066966Y-46846811D01*
X162064925Y-46840529D01*
X161975113Y-46684971D01*
X161854922Y-46551485D01*
X161709604Y-46445905D01*
X161703576Y-46443221D01*
X161703574Y-46443220D01*
X161551541Y-46375531D01*
X161551540Y-46375531D01*
X161545510Y-46372846D01*
X161457661Y-46354173D01*
X161376269Y-46336872D01*
X161376264Y-46336872D01*
X161369812Y-46335500D01*
X161190188Y-46335500D01*
X161183736Y-46336872D01*
X161183731Y-46336872D01*
X161102339Y-46354173D01*
X161014490Y-46372846D01*
X161008460Y-46375531D01*
X161008459Y-46375531D01*
X160856427Y-46443220D01*
X160856425Y-46443221D01*
X160850397Y-46445905D01*
X160845056Y-46449785D01*
X160845055Y-46449786D01*
X160710422Y-46547602D01*
X160710420Y-46547604D01*
X160705078Y-46551485D01*
X160584887Y-46684971D01*
X160581588Y-46690684D01*
X160581585Y-46690689D01*
X160509119Y-46816204D01*
X160457736Y-46865197D01*
X160388023Y-46878633D01*
X160322112Y-46852246D01*
X160280930Y-46794414D01*
X160274000Y-46753204D01*
X160274000Y-45086796D01*
X160294002Y-45018675D01*
X160347658Y-44972182D01*
X160417932Y-44962078D01*
X160482512Y-44991572D01*
X160509119Y-45023796D01*
X160581585Y-45149311D01*
X160581588Y-45149316D01*
X160584887Y-45155029D01*
X160705078Y-45288515D01*
X160710420Y-45292396D01*
X160710422Y-45292398D01*
X160845054Y-45390214D01*
X160850396Y-45394095D01*
X160856424Y-45396779D01*
X160856426Y-45396780D01*
X161008459Y-45464469D01*
X161014490Y-45467154D01*
X161102339Y-45485827D01*
X161183731Y-45503128D01*
X161183736Y-45503128D01*
X161190188Y-45504500D01*
X161369812Y-45504500D01*
X161376264Y-45503128D01*
X161376269Y-45503128D01*
X161457661Y-45485827D01*
X161545510Y-45467154D01*
X161551541Y-45464469D01*
X161703574Y-45396780D01*
X161703576Y-45396779D01*
X161709604Y-45394095D01*
X161714946Y-45390214D01*
X161849578Y-45292398D01*
X161849580Y-45292396D01*
X161854922Y-45288515D01*
X161975113Y-45155029D01*
X162045660Y-45032839D01*
X162061621Y-45005194D01*
X162061622Y-45005193D01*
X162064925Y-44999471D01*
X162070120Y-44983484D01*
X162115223Y-44844669D01*
X165162001Y-44844669D01*
X165162371Y-44851490D01*
X165167895Y-44902352D01*
X165171521Y-44917604D01*
X165216676Y-45038054D01*
X165225214Y-45053649D01*
X165301715Y-45155724D01*
X165314276Y-45168285D01*
X165416351Y-45244786D01*
X165431946Y-45253324D01*
X165552394Y-45298478D01*
X165567649Y-45302105D01*
X165618514Y-45307631D01*
X165625328Y-45308000D01*
X166147885Y-45308000D01*
X166163124Y-45303525D01*
X166164329Y-45302135D01*
X166166000Y-45294452D01*
X166166000Y-44072115D01*
X166161525Y-44056876D01*
X166160135Y-44055671D01*
X166152452Y-44054000D01*
X165180116Y-44054000D01*
X165164877Y-44058475D01*
X165163672Y-44059865D01*
X165162001Y-44067548D01*
X165162001Y-44844669D01*
X162115223Y-44844669D01*
X162118391Y-44834918D01*
X162118391Y-44834917D01*
X162120431Y-44828639D01*
X162139207Y-44650000D01*
X162120431Y-44471361D01*
X162086042Y-44365520D01*
X162066967Y-44306813D01*
X162066966Y-44306811D01*
X162064925Y-44300529D01*
X161975113Y-44144971D01*
X161898484Y-44059865D01*
X161859344Y-44016396D01*
X161859343Y-44016395D01*
X161854922Y-44011485D01*
X161709604Y-43905905D01*
X161703576Y-43903221D01*
X161703574Y-43903220D01*
X161551541Y-43835531D01*
X161551540Y-43835531D01*
X161545510Y-43832846D01*
X161457661Y-43814173D01*
X161376269Y-43796872D01*
X161376264Y-43796872D01*
X161369812Y-43795500D01*
X161190188Y-43795500D01*
X161183736Y-43796872D01*
X161183731Y-43796872D01*
X161102339Y-43814173D01*
X161014490Y-43832846D01*
X161008460Y-43835531D01*
X161008459Y-43835531D01*
X160856427Y-43903220D01*
X160856425Y-43903221D01*
X160850397Y-43905905D01*
X160845056Y-43909785D01*
X160845055Y-43909786D01*
X160710422Y-44007602D01*
X160710420Y-44007604D01*
X160705078Y-44011485D01*
X160700657Y-44016395D01*
X160700656Y-44016396D01*
X160661517Y-44059865D01*
X160584887Y-44144971D01*
X160581588Y-44150684D01*
X160581585Y-44150689D01*
X160509119Y-44276204D01*
X160457736Y-44325197D01*
X160388023Y-44338633D01*
X160322112Y-44312246D01*
X160280930Y-44254414D01*
X160274000Y-44213204D01*
X160274000Y-43527885D01*
X165162000Y-43527885D01*
X165166475Y-43543124D01*
X165167865Y-43544329D01*
X165175548Y-43546000D01*
X166147885Y-43546000D01*
X166163124Y-43541525D01*
X166164329Y-43540135D01*
X166166000Y-43532452D01*
X166166000Y-42310116D01*
X166161525Y-42294877D01*
X166160135Y-42293672D01*
X166152452Y-42292001D01*
X165625331Y-42292001D01*
X165618510Y-42292371D01*
X165567648Y-42297895D01*
X165552396Y-42301521D01*
X165431946Y-42346676D01*
X165416351Y-42355214D01*
X165314276Y-42431715D01*
X165301715Y-42444276D01*
X165225214Y-42546351D01*
X165216676Y-42561946D01*
X165171522Y-42682394D01*
X165167895Y-42697649D01*
X165162369Y-42748514D01*
X165162000Y-42755328D01*
X165162000Y-43527885D01*
X160274000Y-43527885D01*
X160274000Y-42546796D01*
X160294002Y-42478675D01*
X160347658Y-42432182D01*
X160417932Y-42422078D01*
X160482512Y-42451572D01*
X160509119Y-42483796D01*
X160581585Y-42609311D01*
X160581588Y-42609316D01*
X160584887Y-42615029D01*
X160589305Y-42619936D01*
X160589306Y-42619937D01*
X160652731Y-42690378D01*
X160705078Y-42748515D01*
X160710420Y-42752396D01*
X160710422Y-42752398D01*
X160749959Y-42781123D01*
X160850396Y-42854095D01*
X160856424Y-42856779D01*
X160856426Y-42856780D01*
X161008459Y-42924469D01*
X161014490Y-42927154D01*
X161102339Y-42945827D01*
X161183731Y-42963128D01*
X161183736Y-42963128D01*
X161190188Y-42964500D01*
X161369812Y-42964500D01*
X161376264Y-42963128D01*
X161376269Y-42963128D01*
X161457661Y-42945827D01*
X161545510Y-42927154D01*
X161551541Y-42924469D01*
X161703574Y-42856780D01*
X161703576Y-42856779D01*
X161709604Y-42854095D01*
X161810041Y-42781123D01*
X161849578Y-42752398D01*
X161849580Y-42752396D01*
X161854922Y-42748515D01*
X161907269Y-42690378D01*
X161970694Y-42619937D01*
X161970695Y-42619936D01*
X161975113Y-42615029D01*
X162052983Y-42480155D01*
X162061621Y-42465194D01*
X162061622Y-42465193D01*
X162064925Y-42459471D01*
X162073944Y-42431715D01*
X162118391Y-42294918D01*
X162118391Y-42294917D01*
X162120431Y-42288639D01*
X162139207Y-42110000D01*
X162120431Y-41931361D01*
X162086042Y-41825520D01*
X162066967Y-41766813D01*
X162066966Y-41766811D01*
X162064925Y-41760529D01*
X161975113Y-41604971D01*
X161967145Y-41596121D01*
X161859344Y-41476396D01*
X161859343Y-41476395D01*
X161854922Y-41471485D01*
X161709604Y-41365905D01*
X161703576Y-41363221D01*
X161703574Y-41363220D01*
X161551541Y-41295531D01*
X161551540Y-41295531D01*
X161545510Y-41292846D01*
X161457661Y-41274173D01*
X161376269Y-41256872D01*
X161376264Y-41256872D01*
X161369812Y-41255500D01*
X161190188Y-41255500D01*
X161183736Y-41256872D01*
X161183731Y-41256872D01*
X161102339Y-41274173D01*
X161014490Y-41292846D01*
X161008460Y-41295531D01*
X161008459Y-41295531D01*
X160856427Y-41363220D01*
X160856425Y-41363221D01*
X160850397Y-41365905D01*
X160845056Y-41369785D01*
X160845055Y-41369786D01*
X160710422Y-41467602D01*
X160710420Y-41467604D01*
X160705078Y-41471485D01*
X160700657Y-41476395D01*
X160700656Y-41476396D01*
X160592856Y-41596121D01*
X160584887Y-41604971D01*
X160581588Y-41610684D01*
X160581585Y-41610689D01*
X160509119Y-41736204D01*
X160457736Y-41785197D01*
X160388023Y-41798633D01*
X160322112Y-41772246D01*
X160280930Y-41714414D01*
X160274000Y-41673204D01*
X160274000Y-41127885D01*
X167857000Y-41127885D01*
X167861475Y-41143124D01*
X167862865Y-41144329D01*
X167870548Y-41146000D01*
X168680385Y-41146000D01*
X168695624Y-41141525D01*
X168696829Y-41140135D01*
X168698500Y-41132452D01*
X168698500Y-40185116D01*
X168694025Y-40169877D01*
X168692635Y-40168672D01*
X168684952Y-40167001D01*
X168567905Y-40167001D01*
X168561386Y-40167338D01*
X168465794Y-40177257D01*
X168452400Y-40180149D01*
X168298216Y-40231588D01*
X168285038Y-40237761D01*
X168147193Y-40323063D01*
X168135792Y-40332099D01*
X168021261Y-40446829D01*
X168012249Y-40458240D01*
X167927184Y-40596243D01*
X167921037Y-40609424D01*
X167869862Y-40763710D01*
X167866995Y-40777086D01*
X167857328Y-40871438D01*
X167857000Y-40877855D01*
X167857000Y-41127885D01*
X160274000Y-41127885D01*
X160274000Y-40742162D01*
X160294002Y-40674041D01*
X160347658Y-40627548D01*
X160417932Y-40617444D01*
X160444230Y-40624180D01*
X160562394Y-40668478D01*
X160577649Y-40672105D01*
X160628514Y-40677631D01*
X160635328Y-40678000D01*
X161007885Y-40678000D01*
X161023124Y-40673525D01*
X161024329Y-40672135D01*
X161026000Y-40664452D01*
X161026000Y-40659884D01*
X161534000Y-40659884D01*
X161538475Y-40675123D01*
X161539865Y-40676328D01*
X161547548Y-40677999D01*
X161924669Y-40677999D01*
X161931490Y-40677629D01*
X161982352Y-40672105D01*
X161997604Y-40668479D01*
X162118054Y-40623324D01*
X162133649Y-40614786D01*
X162235724Y-40538285D01*
X162248285Y-40525724D01*
X162324786Y-40423649D01*
X162333324Y-40408054D01*
X162378478Y-40287606D01*
X162382105Y-40272351D01*
X162387631Y-40221486D01*
X162388000Y-40214672D01*
X162388000Y-39842115D01*
X162383525Y-39826876D01*
X162382135Y-39825671D01*
X162374452Y-39824000D01*
X161552115Y-39824000D01*
X161536876Y-39828475D01*
X161535671Y-39829865D01*
X161534000Y-39837548D01*
X161534000Y-40659884D01*
X161026000Y-40659884D01*
X161026000Y-39442000D01*
X161046002Y-39373879D01*
X161099658Y-39327386D01*
X161152000Y-39316000D01*
X162369884Y-39316000D01*
X162385123Y-39311525D01*
X162386328Y-39310135D01*
X162387999Y-39302452D01*
X162387999Y-38925331D01*
X162387629Y-38918510D01*
X162382105Y-38867648D01*
X162378479Y-38852396D01*
X162333324Y-38731946D01*
X162324786Y-38716351D01*
X162248285Y-38614276D01*
X162235724Y-38601715D01*
X162207852Y-38580826D01*
X162165337Y-38523967D01*
X162160311Y-38453148D01*
X162194371Y-38390855D01*
X162256702Y-38356865D01*
X162283417Y-38354000D01*
X167263271Y-38354000D01*
X167331392Y-38374002D01*
G37*
%TD.AperFunction*%
%TD*%
M02*
