%TF.GenerationSoftware,KiCad,Pcbnew,(5.1.9)-1*%
%TF.CreationDate,2021-02-10T01:52:36+01:00*%
%TF.ProjectId,Bluster,426c7573-7465-4722-9e6b-696361645f70,rev?*%
%TF.SameCoordinates,Original*%
%TF.FileFunction,Legend,Bot*%
%TF.FilePolarity,Positive*%
%FSLAX46Y46*%
G04 Gerber Fmt 4.6, Leading zero omitted, Abs format (unit mm)*
G04 Created by KiCad (PCBNEW (5.1.9)-1) date 2021-02-10 01:52:36*
%MOMM*%
%LPD*%
G01*
G04 APERTURE LIST*
%ADD10C,0.150000*%
%ADD11C,0.120000*%
G04 APERTURE END LIST*
D10*
X170280952Y-40213380D02*
X170614285Y-39737190D01*
X170852380Y-40213380D02*
X170852380Y-39213380D01*
X170471428Y-39213380D01*
X170376190Y-39261000D01*
X170328571Y-39308619D01*
X170280952Y-39403857D01*
X170280952Y-39546714D01*
X170328571Y-39641952D01*
X170376190Y-39689571D01*
X170471428Y-39737190D01*
X170852380Y-39737190D01*
X169852380Y-39689571D02*
X169519047Y-39689571D01*
X169376190Y-40213380D02*
X169852380Y-40213380D01*
X169852380Y-39213380D01*
X169376190Y-39213380D01*
X169090476Y-39213380D02*
X168757142Y-40213380D01*
X168423809Y-39213380D01*
X167376190Y-39927666D02*
X166900000Y-39927666D01*
X167471428Y-40213380D02*
X167138095Y-39213380D01*
X166804761Y-40213380D01*
X171995238Y-40863380D02*
X171995238Y-41577666D01*
X172042857Y-41720523D01*
X172138095Y-41815761D01*
X172280952Y-41863380D01*
X172376190Y-41863380D01*
X171566666Y-41577666D02*
X171090476Y-41577666D01*
X171661904Y-41863380D02*
X171328571Y-40863380D01*
X170995238Y-41863380D01*
X170661904Y-41863380D02*
X170661904Y-40863380D01*
X170090476Y-41863380D01*
X170090476Y-40863380D01*
X168900000Y-40958619D02*
X168852380Y-40911000D01*
X168757142Y-40863380D01*
X168519047Y-40863380D01*
X168423809Y-40911000D01*
X168376190Y-40958619D01*
X168328571Y-41053857D01*
X168328571Y-41149095D01*
X168376190Y-41291952D01*
X168947619Y-41863380D01*
X168328571Y-41863380D01*
X167709523Y-40863380D02*
X167614285Y-40863380D01*
X167519047Y-40911000D01*
X167471428Y-40958619D01*
X167423809Y-41053857D01*
X167376190Y-41244333D01*
X167376190Y-41482428D01*
X167423809Y-41672904D01*
X167471428Y-41768142D01*
X167519047Y-41815761D01*
X167614285Y-41863380D01*
X167709523Y-41863380D01*
X167804761Y-41815761D01*
X167852380Y-41768142D01*
X167900000Y-41672904D01*
X167947619Y-41482428D01*
X167947619Y-41244333D01*
X167900000Y-41053857D01*
X167852380Y-40958619D01*
X167804761Y-40911000D01*
X167709523Y-40863380D01*
X166995238Y-40958619D02*
X166947619Y-40911000D01*
X166852380Y-40863380D01*
X166614285Y-40863380D01*
X166519047Y-40911000D01*
X166471428Y-40958619D01*
X166423809Y-41053857D01*
X166423809Y-41149095D01*
X166471428Y-41291952D01*
X167042857Y-41863380D01*
X166423809Y-41863380D01*
X165471428Y-41863380D02*
X166042857Y-41863380D01*
X165757142Y-41863380D02*
X165757142Y-40863380D01*
X165852380Y-41006238D01*
X165947619Y-41101476D01*
X166042857Y-41149095D01*
D11*
%TO.C,U3*%
X165490000Y-92578000D02*
X166750000Y-92578000D01*
X172310000Y-92578000D02*
X171050000Y-92578000D01*
X165490000Y-96338000D02*
X165490000Y-92578000D01*
X172310000Y-98588000D02*
X172310000Y-92578000D01*
%TO.C,C6*%
X165063000Y-97235252D02*
X165063000Y-96712748D01*
X163593000Y-97235252D02*
X163593000Y-96712748D01*
%TO.C,C5*%
X174207000Y-97235252D02*
X174207000Y-96712748D01*
X172737000Y-97235252D02*
X172737000Y-96712748D01*
%TO.C,C4*%
X164386987Y-114989566D02*
X164017520Y-115359033D01*
X165426434Y-116029013D02*
X165056967Y-116398480D01*
%TO.C,C3*%
X166871257Y-103551010D02*
X166501790Y-103181543D01*
X165831810Y-104590457D02*
X165462343Y-104220990D01*
%TO.C,C2*%
X174426590Y-107028857D02*
X174796057Y-106659390D01*
X173387143Y-105989410D02*
X173756610Y-105619943D01*
%TO.C,C1*%
X171609143Y-116717790D02*
X171978610Y-117087257D01*
X172648590Y-115678343D02*
X173018057Y-116047810D01*
%TO.C,U3*%
D10*
X172852380Y-93726095D02*
X173661904Y-93726095D01*
X173757142Y-93773714D01*
X173804761Y-93821333D01*
X173852380Y-93916571D01*
X173852380Y-94107047D01*
X173804761Y-94202285D01*
X173757142Y-94249904D01*
X173661904Y-94297523D01*
X172852380Y-94297523D01*
X172852380Y-94678476D02*
X172852380Y-95297523D01*
X173233333Y-94964190D01*
X173233333Y-95107047D01*
X173280952Y-95202285D01*
X173328571Y-95249904D01*
X173423809Y-95297523D01*
X173661904Y-95297523D01*
X173757142Y-95249904D01*
X173804761Y-95202285D01*
X173852380Y-95107047D01*
X173852380Y-94821333D01*
X173804761Y-94726095D01*
X173757142Y-94678476D01*
%TO.C,C6*%
X166365142Y-96807333D02*
X166412761Y-96759714D01*
X166460380Y-96616857D01*
X166460380Y-96521619D01*
X166412761Y-96378761D01*
X166317523Y-96283523D01*
X166222285Y-96235904D01*
X166031809Y-96188285D01*
X165888952Y-96188285D01*
X165698476Y-96235904D01*
X165603238Y-96283523D01*
X165508000Y-96378761D01*
X165460380Y-96521619D01*
X165460380Y-96616857D01*
X165508000Y-96759714D01*
X165555619Y-96807333D01*
X165460380Y-97664476D02*
X165460380Y-97474000D01*
X165508000Y-97378761D01*
X165555619Y-97331142D01*
X165698476Y-97235904D01*
X165888952Y-97188285D01*
X166269904Y-97188285D01*
X166365142Y-97235904D01*
X166412761Y-97283523D01*
X166460380Y-97378761D01*
X166460380Y-97569238D01*
X166412761Y-97664476D01*
X166365142Y-97712095D01*
X166269904Y-97759714D01*
X166031809Y-97759714D01*
X165936571Y-97712095D01*
X165888952Y-97664476D01*
X165841333Y-97569238D01*
X165841333Y-97378761D01*
X165888952Y-97283523D01*
X165936571Y-97235904D01*
X166031809Y-97188285D01*
%TO.C,C5*%
X175509142Y-96807333D02*
X175556761Y-96759714D01*
X175604380Y-96616857D01*
X175604380Y-96521619D01*
X175556761Y-96378761D01*
X175461523Y-96283523D01*
X175366285Y-96235904D01*
X175175809Y-96188285D01*
X175032952Y-96188285D01*
X174842476Y-96235904D01*
X174747238Y-96283523D01*
X174652000Y-96378761D01*
X174604380Y-96521619D01*
X174604380Y-96616857D01*
X174652000Y-96759714D01*
X174699619Y-96807333D01*
X174604380Y-97712095D02*
X174604380Y-97235904D01*
X175080571Y-97188285D01*
X175032952Y-97235904D01*
X174985333Y-97331142D01*
X174985333Y-97569238D01*
X175032952Y-97664476D01*
X175080571Y-97712095D01*
X175175809Y-97759714D01*
X175413904Y-97759714D01*
X175509142Y-97712095D01*
X175556761Y-97664476D01*
X175604380Y-97569238D01*
X175604380Y-97331142D01*
X175556761Y-97235904D01*
X175509142Y-97188285D01*
%TO.C,C4*%
X163904427Y-114640771D02*
X163971770Y-114640771D01*
X164106457Y-114573427D01*
X164173801Y-114506084D01*
X164241144Y-114371396D01*
X164241144Y-114236709D01*
X164207473Y-114135694D01*
X164106457Y-113967335D01*
X164005442Y-113866320D01*
X163837083Y-113765305D01*
X163736068Y-113731633D01*
X163601381Y-113731633D01*
X163466694Y-113798977D01*
X163399350Y-113866320D01*
X163332007Y-114001007D01*
X163332007Y-114068351D01*
X162894274Y-114842801D02*
X163365679Y-115314206D01*
X162793259Y-114405068D02*
X163466694Y-114741786D01*
X163028961Y-115179519D01*
%TO.C,C3*%
X167220051Y-103068450D02*
X167220051Y-103135793D01*
X167287395Y-103270480D01*
X167354739Y-103337824D01*
X167489426Y-103405167D01*
X167624113Y-103405167D01*
X167725128Y-103371496D01*
X167893487Y-103270480D01*
X167994502Y-103169465D01*
X168095517Y-103001106D01*
X168129189Y-102900091D01*
X168129189Y-102765404D01*
X168061845Y-102630717D01*
X167994502Y-102563373D01*
X167859815Y-102496030D01*
X167792471Y-102496030D01*
X167624113Y-102192984D02*
X167186380Y-101755251D01*
X167152708Y-102260328D01*
X167051693Y-102159312D01*
X166950677Y-102125641D01*
X166883334Y-102125641D01*
X166782319Y-102159312D01*
X166613960Y-102327671D01*
X166580288Y-102428686D01*
X166580288Y-102496030D01*
X166613960Y-102597045D01*
X166815990Y-102799076D01*
X166917006Y-102832748D01*
X166984349Y-102832748D01*
%TO.C,C2*%
X175649928Y-107647026D02*
X175717271Y-107647026D01*
X175851958Y-107579682D01*
X175919302Y-107512339D01*
X175986645Y-107377651D01*
X175986645Y-107242964D01*
X175952974Y-107141949D01*
X175851958Y-106973590D01*
X175750943Y-106872575D01*
X175582584Y-106771560D01*
X175481569Y-106737888D01*
X175346882Y-106737888D01*
X175212195Y-106805232D01*
X175144851Y-106872575D01*
X175077508Y-107007262D01*
X175077508Y-107074606D01*
X174808134Y-107343980D02*
X174740790Y-107343980D01*
X174639775Y-107377651D01*
X174471416Y-107546010D01*
X174437745Y-107647026D01*
X174437745Y-107714369D01*
X174471416Y-107815384D01*
X174538760Y-107882728D01*
X174673447Y-107950071D01*
X175481569Y-107950071D01*
X175043836Y-108387804D01*
%TO.C,C1*%
X170990973Y-117941128D02*
X170990973Y-118008471D01*
X171058317Y-118143158D01*
X171125661Y-118210502D01*
X171260348Y-118277845D01*
X171395035Y-118277845D01*
X171496050Y-118244174D01*
X171664409Y-118143158D01*
X171765424Y-118042143D01*
X171866439Y-117873784D01*
X171900111Y-117772769D01*
X171900111Y-117638082D01*
X171832767Y-117503395D01*
X171765424Y-117436051D01*
X171630737Y-117368708D01*
X171563393Y-117368708D01*
X170250195Y-117335036D02*
X170654256Y-117739097D01*
X170452225Y-117537067D02*
X171159332Y-116829960D01*
X171125661Y-116998319D01*
X171125661Y-117133006D01*
X171159332Y-117234021D01*
%TD*%
M02*
