%TF.GenerationSoftware,KiCad,Pcbnew,(5.1.9)-1*%
%TF.CreationDate,2021-02-10T01:52:36+01:00*%
%TF.ProjectId,Bluster,426c7573-7465-4722-9e6b-696361645f70,rev?*%
%TF.SameCoordinates,Original*%
%TF.FileFunction,Legend,Top*%
%TF.FilePolarity,Positive*%
%FSLAX46Y46*%
G04 Gerber Fmt 4.6, Leading zero omitted, Abs format (unit mm)*
G04 Created by KiCad (PCBNEW (5.1.9)-1) date 2021-02-10 01:52:36*
%MOMM*%
%LPD*%
G01*
G04 APERTURE LIST*
%ADD10C,0.150000*%
%ADD11C,0.500000*%
%ADD12C,0.100000*%
%ADD13C,0.120000*%
G04 APERTURE END LIST*
D10*
X174071428Y-122935571D02*
X174642857Y-122935571D01*
X174357142Y-123221285D02*
X174357142Y-122649857D01*
X174928571Y-122471285D02*
X175392857Y-122471285D01*
X175142857Y-122757000D01*
X175250000Y-122757000D01*
X175321428Y-122792714D01*
X175357142Y-122828428D01*
X175392857Y-122899857D01*
X175392857Y-123078428D01*
X175357142Y-123149857D01*
X175321428Y-123185571D01*
X175250000Y-123221285D01*
X175035714Y-123221285D01*
X174964285Y-123185571D01*
X174928571Y-123149857D01*
X175714285Y-123149857D02*
X175750000Y-123185571D01*
X175714285Y-123221285D01*
X175678571Y-123185571D01*
X175714285Y-123149857D01*
X175714285Y-123221285D01*
X176000000Y-122471285D02*
X176464285Y-122471285D01*
X176214285Y-122757000D01*
X176321428Y-122757000D01*
X176392857Y-122792714D01*
X176428571Y-122828428D01*
X176464285Y-122899857D01*
X176464285Y-123078428D01*
X176428571Y-123149857D01*
X176392857Y-123185571D01*
X176321428Y-123221285D01*
X176107142Y-123221285D01*
X176035714Y-123185571D01*
X176000000Y-123149857D01*
X172138571Y-122507000D02*
X172067142Y-122471285D01*
X171960000Y-122471285D01*
X171852857Y-122507000D01*
X171781428Y-122578428D01*
X171745714Y-122649857D01*
X171710000Y-122792714D01*
X171710000Y-122899857D01*
X171745714Y-123042714D01*
X171781428Y-123114142D01*
X171852857Y-123185571D01*
X171960000Y-123221285D01*
X172031428Y-123221285D01*
X172138571Y-123185571D01*
X172174285Y-123149857D01*
X172174285Y-122899857D01*
X172031428Y-122899857D01*
X172495714Y-123221285D02*
X172495714Y-122471285D01*
X172924285Y-123221285D01*
X172924285Y-122471285D01*
X173281428Y-123221285D02*
X173281428Y-122471285D01*
X173460000Y-122471285D01*
X173567142Y-122507000D01*
X173638571Y-122578428D01*
X173674285Y-122649857D01*
X173710000Y-122792714D01*
X173710000Y-122899857D01*
X173674285Y-123042714D01*
X173638571Y-123114142D01*
X173567142Y-123185571D01*
X173460000Y-123221285D01*
X173281428Y-123221285D01*
X169205714Y-122471285D02*
X169634285Y-122471285D01*
X169420000Y-123221285D02*
X169420000Y-122471285D01*
X170312857Y-123149857D02*
X170277142Y-123185571D01*
X170170000Y-123221285D01*
X170098571Y-123221285D01*
X169991428Y-123185571D01*
X169920000Y-123114142D01*
X169884285Y-123042714D01*
X169848571Y-122899857D01*
X169848571Y-122792714D01*
X169884285Y-122649857D01*
X169920000Y-122578428D01*
X169991428Y-122507000D01*
X170098571Y-122471285D01*
X170170000Y-122471285D01*
X170277142Y-122507000D01*
X170312857Y-122542714D01*
X170634285Y-123221285D02*
X170634285Y-122471285D01*
X171062857Y-123221285D02*
X170741428Y-122792714D01*
X171062857Y-122471285D02*
X170634285Y-122899857D01*
X166647857Y-122471285D02*
X167076428Y-122471285D01*
X166862142Y-123221285D02*
X166862142Y-122471285D01*
X167326428Y-123221285D02*
X167326428Y-122471285D01*
X167505000Y-122471285D01*
X167612142Y-122507000D01*
X167683571Y-122578428D01*
X167719285Y-122649857D01*
X167755000Y-122792714D01*
X167755000Y-122899857D01*
X167719285Y-123042714D01*
X167683571Y-123114142D01*
X167612142Y-123185571D01*
X167505000Y-123221285D01*
X167326428Y-123221285D01*
X168219285Y-122471285D02*
X168362142Y-122471285D01*
X168433571Y-122507000D01*
X168505000Y-122578428D01*
X168540714Y-122721285D01*
X168540714Y-122971285D01*
X168505000Y-123114142D01*
X168433571Y-123185571D01*
X168362142Y-123221285D01*
X168219285Y-123221285D01*
X168147857Y-123185571D01*
X168076428Y-123114142D01*
X168040714Y-122971285D01*
X168040714Y-122721285D01*
X168076428Y-122578428D01*
X168147857Y-122507000D01*
X168219285Y-122471285D01*
X164322142Y-122471285D02*
X164750714Y-122471285D01*
X164536428Y-123221285D02*
X164536428Y-122471285D01*
X165000714Y-123221285D02*
X165000714Y-122471285D01*
X165179285Y-122471285D01*
X165286428Y-122507000D01*
X165357857Y-122578428D01*
X165393571Y-122649857D01*
X165429285Y-122792714D01*
X165429285Y-122899857D01*
X165393571Y-123042714D01*
X165357857Y-123114142D01*
X165286428Y-123185571D01*
X165179285Y-123221285D01*
X165000714Y-123221285D01*
X165750714Y-123221285D02*
X165750714Y-122471285D01*
X161550000Y-122471285D02*
X161978571Y-122471285D01*
X161764285Y-123221285D02*
X161764285Y-122471285D01*
X162228571Y-123221285D02*
X162228571Y-122471285D01*
X162478571Y-123007000D01*
X162728571Y-122471285D01*
X162728571Y-123221285D01*
X163050000Y-123185571D02*
X163157142Y-123221285D01*
X163335714Y-123221285D01*
X163407142Y-123185571D01*
X163442857Y-123149857D01*
X163478571Y-123078428D01*
X163478571Y-123007000D01*
X163442857Y-122935571D01*
X163407142Y-122899857D01*
X163335714Y-122864142D01*
X163192857Y-122828428D01*
X163121428Y-122792714D01*
X163085714Y-122757000D01*
X163050000Y-122685571D01*
X163050000Y-122614142D01*
X163085714Y-122542714D01*
X163121428Y-122507000D01*
X163192857Y-122471285D01*
X163371428Y-122471285D01*
X163478571Y-122507000D01*
X171797666Y-78914952D02*
X171797666Y-78438761D01*
X172083380Y-79010190D02*
X171083380Y-78676857D01*
X172083380Y-78343523D01*
X171178619Y-78057809D02*
X171131000Y-78010190D01*
X171083380Y-77914952D01*
X171083380Y-77676857D01*
X171131000Y-77581619D01*
X171178619Y-77534000D01*
X171273857Y-77486380D01*
X171369095Y-77486380D01*
X171511952Y-77534000D01*
X172083380Y-78105428D01*
X172083380Y-77486380D01*
X171083380Y-76867333D02*
X171083380Y-76772095D01*
X171131000Y-76676857D01*
X171178619Y-76629238D01*
X171273857Y-76581619D01*
X171464333Y-76534000D01*
X171702428Y-76534000D01*
X171892904Y-76581619D01*
X171988142Y-76629238D01*
X172035761Y-76676857D01*
X172083380Y-76772095D01*
X172083380Y-76867333D01*
X172035761Y-76962571D01*
X171988142Y-77010190D01*
X171892904Y-77057809D01*
X171702428Y-77105428D01*
X171464333Y-77105428D01*
X171273857Y-77057809D01*
X171178619Y-77010190D01*
X171131000Y-76962571D01*
X171083380Y-76867333D01*
X171083380Y-75914952D02*
X171083380Y-75819714D01*
X171131000Y-75724476D01*
X171178619Y-75676857D01*
X171273857Y-75629238D01*
X171464333Y-75581619D01*
X171702428Y-75581619D01*
X171892904Y-75629238D01*
X171988142Y-75676857D01*
X172035761Y-75724476D01*
X172083380Y-75819714D01*
X172083380Y-75914952D01*
X172035761Y-76010190D01*
X171988142Y-76057809D01*
X171892904Y-76105428D01*
X171702428Y-76153047D01*
X171464333Y-76153047D01*
X171273857Y-76105428D01*
X171178619Y-76057809D01*
X171131000Y-76010190D01*
X171083380Y-75914952D01*
X171083380Y-74962571D02*
X171083380Y-74867333D01*
X171131000Y-74772095D01*
X171178619Y-74724476D01*
X171273857Y-74676857D01*
X171464333Y-74629238D01*
X171702428Y-74629238D01*
X171892904Y-74676857D01*
X171988142Y-74724476D01*
X172035761Y-74772095D01*
X172083380Y-74867333D01*
X172083380Y-74962571D01*
X172035761Y-75057809D01*
X171988142Y-75105428D01*
X171892904Y-75153047D01*
X171702428Y-75200666D01*
X171464333Y-75200666D01*
X171273857Y-75153047D01*
X171178619Y-75105428D01*
X171131000Y-75057809D01*
X171083380Y-74962571D01*
X171559571Y-73105428D02*
X171607190Y-72962571D01*
X171654809Y-72914952D01*
X171750047Y-72867333D01*
X171892904Y-72867333D01*
X171988142Y-72914952D01*
X172035761Y-72962571D01*
X172083380Y-73057809D01*
X172083380Y-73438761D01*
X171083380Y-73438761D01*
X171083380Y-73105428D01*
X171131000Y-73010190D01*
X171178619Y-72962571D01*
X171273857Y-72914952D01*
X171369095Y-72914952D01*
X171464333Y-72962571D01*
X171511952Y-73010190D01*
X171559571Y-73105428D01*
X171559571Y-73438761D01*
X171416714Y-72010190D02*
X172083380Y-72010190D01*
X171416714Y-72438761D02*
X171940523Y-72438761D01*
X172035761Y-72391142D01*
X172083380Y-72295904D01*
X172083380Y-72153047D01*
X172035761Y-72057809D01*
X171988142Y-72010190D01*
X172035761Y-71581619D02*
X172083380Y-71486380D01*
X172083380Y-71295904D01*
X172035761Y-71200666D01*
X171940523Y-71153047D01*
X171892904Y-71153047D01*
X171797666Y-71200666D01*
X171750047Y-71295904D01*
X171750047Y-71438761D01*
X171702428Y-71534000D01*
X171607190Y-71581619D01*
X171559571Y-71581619D01*
X171464333Y-71534000D01*
X171416714Y-71438761D01*
X171416714Y-71295904D01*
X171464333Y-71200666D01*
X171416714Y-70867333D02*
X171416714Y-70486380D01*
X171083380Y-70724476D02*
X171940523Y-70724476D01*
X172035761Y-70676857D01*
X172083380Y-70581619D01*
X172083380Y-70486380D01*
X172035761Y-69772095D02*
X172083380Y-69867333D01*
X172083380Y-70057809D01*
X172035761Y-70153047D01*
X171940523Y-70200666D01*
X171559571Y-70200666D01*
X171464333Y-70153047D01*
X171416714Y-70057809D01*
X171416714Y-69867333D01*
X171464333Y-69772095D01*
X171559571Y-69724476D01*
X171654809Y-69724476D01*
X171750047Y-70200666D01*
X172083380Y-69295904D02*
X171416714Y-69295904D01*
X171607190Y-69295904D02*
X171511952Y-69248285D01*
X171464333Y-69200666D01*
X171416714Y-69105428D01*
X171416714Y-69010190D01*
X172083380Y-67914952D02*
X171416714Y-67914952D01*
X171607190Y-67914952D02*
X171511952Y-67867333D01*
X171464333Y-67819714D01*
X171416714Y-67724476D01*
X171416714Y-67629238D01*
X172035761Y-66914952D02*
X172083380Y-67010190D01*
X172083380Y-67200666D01*
X172035761Y-67295904D01*
X171940523Y-67343523D01*
X171559571Y-67343523D01*
X171464333Y-67295904D01*
X171416714Y-67200666D01*
X171416714Y-67010190D01*
X171464333Y-66914952D01*
X171559571Y-66867333D01*
X171654809Y-66867333D01*
X171750047Y-67343523D01*
X171416714Y-66438761D02*
X172416714Y-66438761D01*
X171464333Y-66438761D02*
X171416714Y-66343523D01*
X171416714Y-66153047D01*
X171464333Y-66057809D01*
X171511952Y-66010190D01*
X171607190Y-65962571D01*
X171892904Y-65962571D01*
X171988142Y-66010190D01*
X172035761Y-66057809D01*
X172083380Y-66153047D01*
X172083380Y-66343523D01*
X172035761Y-66438761D01*
X172083380Y-65391142D02*
X172035761Y-65486380D01*
X171940523Y-65534000D01*
X171083380Y-65534000D01*
X172083380Y-64581619D02*
X171559571Y-64581619D01*
X171464333Y-64629238D01*
X171416714Y-64724476D01*
X171416714Y-64914952D01*
X171464333Y-65010190D01*
X172035761Y-64581619D02*
X172083380Y-64676857D01*
X172083380Y-64914952D01*
X172035761Y-65010190D01*
X171940523Y-65057809D01*
X171845285Y-65057809D01*
X171750047Y-65010190D01*
X171702428Y-64914952D01*
X171702428Y-64676857D01*
X171654809Y-64581619D01*
X172035761Y-63676857D02*
X172083380Y-63772095D01*
X172083380Y-63962571D01*
X172035761Y-64057809D01*
X171988142Y-64105428D01*
X171892904Y-64153047D01*
X171607190Y-64153047D01*
X171511952Y-64105428D01*
X171464333Y-64057809D01*
X171416714Y-63962571D01*
X171416714Y-63772095D01*
X171464333Y-63676857D01*
X172035761Y-62867333D02*
X172083380Y-62962571D01*
X172083380Y-63153047D01*
X172035761Y-63248285D01*
X171940523Y-63295904D01*
X171559571Y-63295904D01*
X171464333Y-63248285D01*
X171416714Y-63153047D01*
X171416714Y-62962571D01*
X171464333Y-62867333D01*
X171559571Y-62819714D01*
X171654809Y-62819714D01*
X171750047Y-63295904D01*
X172083380Y-62391142D02*
X171416714Y-62391142D01*
X171511952Y-62391142D02*
X171464333Y-62343523D01*
X171416714Y-62248285D01*
X171416714Y-62105428D01*
X171464333Y-62010190D01*
X171559571Y-61962571D01*
X172083380Y-61962571D01*
X171559571Y-61962571D02*
X171464333Y-61914952D01*
X171416714Y-61819714D01*
X171416714Y-61676857D01*
X171464333Y-61581619D01*
X171559571Y-61534000D01*
X172083380Y-61534000D01*
X172035761Y-60676857D02*
X172083380Y-60772095D01*
X172083380Y-60962571D01*
X172035761Y-61057809D01*
X171940523Y-61105428D01*
X171559571Y-61105428D01*
X171464333Y-61057809D01*
X171416714Y-60962571D01*
X171416714Y-60772095D01*
X171464333Y-60676857D01*
X171559571Y-60629238D01*
X171654809Y-60629238D01*
X171750047Y-61105428D01*
X171416714Y-60200666D02*
X172083380Y-60200666D01*
X171511952Y-60200666D02*
X171464333Y-60153047D01*
X171416714Y-60057809D01*
X171416714Y-59914952D01*
X171464333Y-59819714D01*
X171559571Y-59772095D01*
X172083380Y-59772095D01*
X171416714Y-59438761D02*
X171416714Y-59057809D01*
X171083380Y-59295904D02*
X171940523Y-59295904D01*
X172035761Y-59248285D01*
X172083380Y-59153047D01*
X172083380Y-59057809D01*
X173209571Y-81986380D02*
X173257190Y-81843523D01*
X173304809Y-81795904D01*
X173400047Y-81748285D01*
X173542904Y-81748285D01*
X173638142Y-81795904D01*
X173685761Y-81843523D01*
X173733380Y-81938761D01*
X173733380Y-82319714D01*
X172733380Y-82319714D01*
X172733380Y-81986380D01*
X172781000Y-81891142D01*
X172828619Y-81843523D01*
X172923857Y-81795904D01*
X173019095Y-81795904D01*
X173114333Y-81843523D01*
X173161952Y-81891142D01*
X173209571Y-81986380D01*
X173209571Y-82319714D01*
X173066714Y-81414952D02*
X173733380Y-81176857D01*
X173066714Y-80938761D02*
X173733380Y-81176857D01*
X173971476Y-81272095D01*
X174019095Y-81319714D01*
X174066714Y-81414952D01*
X173733380Y-79795904D02*
X172733380Y-79795904D01*
X173447666Y-79462571D01*
X172733380Y-79129238D01*
X173733380Y-79129238D01*
X173733380Y-78224476D02*
X173209571Y-78224476D01*
X173114333Y-78272095D01*
X173066714Y-78367333D01*
X173066714Y-78557809D01*
X173114333Y-78653047D01*
X173685761Y-78224476D02*
X173733380Y-78319714D01*
X173733380Y-78557809D01*
X173685761Y-78653047D01*
X173590523Y-78700666D01*
X173495285Y-78700666D01*
X173400047Y-78653047D01*
X173352428Y-78557809D01*
X173352428Y-78319714D01*
X173304809Y-78224476D01*
X173066714Y-77891142D02*
X173066714Y-77510190D01*
X172733380Y-77748285D02*
X173590523Y-77748285D01*
X173685761Y-77700666D01*
X173733380Y-77605428D01*
X173733380Y-77510190D01*
X173066714Y-77319714D02*
X173066714Y-76938761D01*
X172733380Y-77176857D02*
X173590523Y-77176857D01*
X173685761Y-77129238D01*
X173733380Y-77034000D01*
X173733380Y-76938761D01*
X173733380Y-75843523D02*
X172733380Y-75843523D01*
X173209571Y-75843523D02*
X173209571Y-75272095D01*
X173733380Y-75272095D02*
X172733380Y-75272095D01*
X173733380Y-74367333D02*
X173209571Y-74367333D01*
X173114333Y-74414952D01*
X173066714Y-74510190D01*
X173066714Y-74700666D01*
X173114333Y-74795904D01*
X173685761Y-74367333D02*
X173733380Y-74462571D01*
X173733380Y-74700666D01*
X173685761Y-74795904D01*
X173590523Y-74843523D01*
X173495285Y-74843523D01*
X173400047Y-74795904D01*
X173352428Y-74700666D01*
X173352428Y-74462571D01*
X173304809Y-74367333D01*
X173733380Y-73891142D02*
X173066714Y-73891142D01*
X173257190Y-73891142D02*
X173161952Y-73843523D01*
X173114333Y-73795904D01*
X173066714Y-73700666D01*
X173066714Y-73605428D01*
X173733380Y-73129238D02*
X173685761Y-73224476D01*
X173590523Y-73272095D01*
X172733380Y-73272095D01*
X173066714Y-72319714D02*
X173733380Y-72319714D01*
X173066714Y-72748285D02*
X173590523Y-72748285D01*
X173685761Y-72700666D01*
X173733380Y-72605428D01*
X173733380Y-72462571D01*
X173685761Y-72367333D01*
X173638142Y-72319714D01*
X173733380Y-71843523D02*
X173066714Y-71843523D01*
X173161952Y-71843523D02*
X173114333Y-71795904D01*
X173066714Y-71700666D01*
X173066714Y-71557809D01*
X173114333Y-71462571D01*
X173209571Y-71414952D01*
X173733380Y-71414952D01*
X173209571Y-71414952D02*
X173114333Y-71367333D01*
X173066714Y-71272095D01*
X173066714Y-71129238D01*
X173114333Y-71034000D01*
X173209571Y-70986380D01*
X173733380Y-70986380D01*
X173352428Y-69748285D02*
X173352428Y-68986380D01*
X172781000Y-67224476D02*
X172733380Y-67319714D01*
X172733380Y-67462571D01*
X172781000Y-67605428D01*
X172876238Y-67700666D01*
X172971476Y-67748285D01*
X173161952Y-67795904D01*
X173304809Y-67795904D01*
X173495285Y-67748285D01*
X173590523Y-67700666D01*
X173685761Y-67605428D01*
X173733380Y-67462571D01*
X173733380Y-67367333D01*
X173685761Y-67224476D01*
X173638142Y-67176857D01*
X173304809Y-67176857D01*
X173304809Y-67367333D01*
X173733380Y-66748285D02*
X173066714Y-66748285D01*
X172733380Y-66748285D02*
X172781000Y-66795904D01*
X172828619Y-66748285D01*
X172781000Y-66700666D01*
X172733380Y-66748285D01*
X172828619Y-66748285D01*
X173066714Y-66414952D02*
X173066714Y-66034000D01*
X172733380Y-66272095D02*
X173590523Y-66272095D01*
X173685761Y-66224476D01*
X173733380Y-66129238D01*
X173733380Y-66034000D01*
X173733380Y-65700666D02*
X172733380Y-65700666D01*
X173733380Y-65272095D02*
X173209571Y-65272095D01*
X173114333Y-65319714D01*
X173066714Y-65414952D01*
X173066714Y-65557809D01*
X173114333Y-65653047D01*
X173161952Y-65700666D01*
X173066714Y-64367333D02*
X173733380Y-64367333D01*
X173066714Y-64795904D02*
X173590523Y-64795904D01*
X173685761Y-64748285D01*
X173733380Y-64653047D01*
X173733380Y-64510190D01*
X173685761Y-64414952D01*
X173638142Y-64367333D01*
X173733380Y-63891142D02*
X172733380Y-63891142D01*
X173114333Y-63891142D02*
X173066714Y-63795904D01*
X173066714Y-63605428D01*
X173114333Y-63510190D01*
X173161952Y-63462571D01*
X173257190Y-63414952D01*
X173542904Y-63414952D01*
X173638142Y-63462571D01*
X173685761Y-63510190D01*
X173733380Y-63605428D01*
X173733380Y-63795904D01*
X173685761Y-63891142D01*
X173638142Y-62986380D02*
X173685761Y-62938761D01*
X173733380Y-62986380D01*
X173685761Y-63034000D01*
X173638142Y-62986380D01*
X173733380Y-62986380D01*
X173685761Y-62081619D02*
X173733380Y-62176857D01*
X173733380Y-62367333D01*
X173685761Y-62462571D01*
X173638142Y-62510190D01*
X173542904Y-62557809D01*
X173257190Y-62557809D01*
X173161952Y-62510190D01*
X173114333Y-62462571D01*
X173066714Y-62367333D01*
X173066714Y-62176857D01*
X173114333Y-62081619D01*
X173733380Y-61510190D02*
X173685761Y-61605428D01*
X173638142Y-61653047D01*
X173542904Y-61700666D01*
X173257190Y-61700666D01*
X173161952Y-61653047D01*
X173114333Y-61605428D01*
X173066714Y-61510190D01*
X173066714Y-61367333D01*
X173114333Y-61272095D01*
X173161952Y-61224476D01*
X173257190Y-61176857D01*
X173542904Y-61176857D01*
X173638142Y-61224476D01*
X173685761Y-61272095D01*
X173733380Y-61367333D01*
X173733380Y-61510190D01*
X173733380Y-60748285D02*
X173066714Y-60748285D01*
X173161952Y-60748285D02*
X173114333Y-60700666D01*
X173066714Y-60605428D01*
X173066714Y-60462571D01*
X173114333Y-60367333D01*
X173209571Y-60319714D01*
X173733380Y-60319714D01*
X173209571Y-60319714D02*
X173114333Y-60272095D01*
X173066714Y-60176857D01*
X173066714Y-60034000D01*
X173114333Y-59938761D01*
X173209571Y-59891142D01*
X173733380Y-59891142D01*
X172685761Y-58700666D02*
X173971476Y-59557809D01*
X173733380Y-57891142D02*
X173733380Y-58367333D01*
X172733380Y-58367333D01*
X173733380Y-57557809D02*
X172733380Y-57557809D01*
X172733380Y-57224476D02*
X173733380Y-56891142D01*
X172733380Y-56557809D01*
X172828619Y-56272095D02*
X172781000Y-56224476D01*
X172733380Y-56129238D01*
X172733380Y-55891142D01*
X172781000Y-55795904D01*
X172828619Y-55748285D01*
X172923857Y-55700666D01*
X173019095Y-55700666D01*
X173161952Y-55748285D01*
X173733380Y-56319714D01*
X173733380Y-55700666D01*
D11*
X167018857Y-82113333D02*
X167256952Y-81399047D01*
X167495047Y-81160952D01*
X167971238Y-80922857D01*
X168685523Y-80922857D01*
X169161714Y-81160952D01*
X169399809Y-81399047D01*
X169637904Y-81875238D01*
X169637904Y-83780000D01*
X164637904Y-83780000D01*
X164637904Y-82113333D01*
X164876000Y-81637142D01*
X165114095Y-81399047D01*
X165590285Y-81160952D01*
X166066476Y-81160952D01*
X166542666Y-81399047D01*
X166780761Y-81637142D01*
X167018857Y-82113333D01*
X167018857Y-83780000D01*
X169637904Y-76399047D02*
X169637904Y-78780000D01*
X164637904Y-78780000D01*
X164637904Y-74732380D02*
X168685523Y-74732380D01*
X169161714Y-74494285D01*
X169399809Y-74256190D01*
X169637904Y-73780000D01*
X169637904Y-72827619D01*
X169399809Y-72351428D01*
X169161714Y-72113333D01*
X168685523Y-71875238D01*
X164637904Y-71875238D01*
X169399809Y-69732380D02*
X169637904Y-69018095D01*
X169637904Y-67827619D01*
X169399809Y-67351428D01*
X169161714Y-67113333D01*
X168685523Y-66875238D01*
X168209333Y-66875238D01*
X167733142Y-67113333D01*
X167495047Y-67351428D01*
X167256952Y-67827619D01*
X167018857Y-68780000D01*
X166780761Y-69256190D01*
X166542666Y-69494285D01*
X166066476Y-69732380D01*
X165590285Y-69732380D01*
X165114095Y-69494285D01*
X164876000Y-69256190D01*
X164637904Y-68780000D01*
X164637904Y-67589523D01*
X164876000Y-66875238D01*
X164637904Y-65446666D02*
X164637904Y-62589523D01*
X169637904Y-64018095D02*
X164637904Y-64018095D01*
X167018857Y-60922857D02*
X167018857Y-59256190D01*
X169637904Y-58541904D02*
X169637904Y-60922857D01*
X164637904Y-60922857D01*
X164637904Y-58541904D01*
X169637904Y-53541904D02*
X167256952Y-55208571D01*
X169637904Y-56399047D02*
X164637904Y-56399047D01*
X164637904Y-54494285D01*
X164876000Y-54018095D01*
X165114095Y-53780000D01*
X165590285Y-53541904D01*
X166304571Y-53541904D01*
X166780761Y-53780000D01*
X167018857Y-54018095D01*
X167256952Y-54494285D01*
X167256952Y-56399047D01*
D12*
%TO.C,U2*%
G36*
X166754739Y-103036387D02*
G01*
X166485331Y-103036387D01*
X166485331Y-102766980D01*
X166754739Y-102766980D01*
X166754739Y-103036387D01*
G37*
X166754739Y-103036387D02*
X166485331Y-103036387D01*
X166485331Y-102766980D01*
X166754739Y-102766980D01*
X166754739Y-103036387D01*
D13*
X168238249Y-117044880D02*
X168910000Y-117716631D01*
X168910000Y-117716631D02*
X169581751Y-117044880D01*
X162355120Y-111161751D02*
X161683369Y-110490000D01*
X161683369Y-110490000D02*
X162355120Y-109818249D01*
X175464880Y-109818249D02*
X176136631Y-110490000D01*
X176136631Y-110490000D02*
X175464880Y-111161751D01*
X169581751Y-103935120D02*
X168910000Y-103263369D01*
X168910000Y-103263369D02*
X168238249Y-103935120D01*
X168238249Y-103935120D02*
X167326081Y-103022952D01*
X166718047Y-103065036D02*
G75*
G02*
X166754739Y-103036387I-98012J163352D01*
G01*
%TO.C,U1*%
X167900000Y-38240000D02*
X162440000Y-38240000D01*
X175360000Y-38240000D02*
X169900000Y-38240000D01*
X169900000Y-38240000D02*
G75*
G02*
X167900000Y-38240000I-1000000J0D01*
G01*
%TO.C,J1*%
X176590000Y-121980000D02*
X176590000Y-119320000D01*
X163830000Y-121980000D02*
X176590000Y-121980000D01*
X163830000Y-119320000D02*
X176590000Y-119320000D01*
X163830000Y-121980000D02*
X163830000Y-119320000D01*
X162560000Y-121980000D02*
X161230000Y-121980000D01*
X161230000Y-121980000D02*
X161230000Y-120650000D01*
%TO.C,U2*%
D10*
X173955712Y-104366791D02*
X173383292Y-104939211D01*
X173349620Y-105040226D01*
X173349620Y-105107570D01*
X173383292Y-105208585D01*
X173517979Y-105343272D01*
X173618994Y-105376944D01*
X173686338Y-105376944D01*
X173787353Y-105343272D01*
X174359773Y-104770852D01*
X174595475Y-105141242D02*
X174662818Y-105141242D01*
X174763834Y-105174913D01*
X174932192Y-105343272D01*
X174965864Y-105444287D01*
X174965864Y-105511631D01*
X174932192Y-105612646D01*
X174864849Y-105679990D01*
X174730162Y-105747333D01*
X173922040Y-105747333D01*
X174359773Y-106185066D01*
X166738172Y-107543721D02*
X166502469Y-108722233D01*
X167209576Y-108015126D02*
X166031065Y-108250828D01*
X167243248Y-109328324D02*
X167175904Y-109328324D01*
X167041217Y-109260981D01*
X166973874Y-109193637D01*
X166906530Y-109058950D01*
X166906530Y-108924263D01*
X166940202Y-108823248D01*
X167041217Y-108654889D01*
X167142233Y-108553874D01*
X167310591Y-108452859D01*
X167411607Y-108419187D01*
X167546294Y-108419187D01*
X167680981Y-108486530D01*
X167748324Y-108553874D01*
X167815668Y-108688561D01*
X167815668Y-108755904D01*
X167512622Y-109732385D02*
X167647309Y-109867072D01*
X167748324Y-109900744D01*
X167815668Y-109900744D01*
X167984026Y-109867072D01*
X168152385Y-109766057D01*
X168421759Y-109496683D01*
X168455431Y-109395668D01*
X168455431Y-109328324D01*
X168421759Y-109227309D01*
X168287072Y-109092622D01*
X168186057Y-109058950D01*
X168118713Y-109058950D01*
X168017698Y-109092622D01*
X167849339Y-109260981D01*
X167815668Y-109361996D01*
X167815668Y-109429339D01*
X167849339Y-109530355D01*
X167984026Y-109665042D01*
X168085042Y-109698713D01*
X168152385Y-109698713D01*
X168253400Y-109665042D01*
X169196209Y-110001759D02*
X168859492Y-109665042D01*
X168489103Y-109968087D01*
X168556446Y-109968087D01*
X168657461Y-110001759D01*
X168825820Y-110170118D01*
X168859492Y-110271133D01*
X168859492Y-110338477D01*
X168825820Y-110439492D01*
X168657461Y-110607851D01*
X168556446Y-110641522D01*
X168489103Y-110641522D01*
X168388087Y-110607851D01*
X168219729Y-110439492D01*
X168186057Y-110338477D01*
X168186057Y-110271133D01*
X169465583Y-110271133D02*
X169936988Y-110742538D01*
X168926835Y-111146599D01*
X170105347Y-111045583D02*
X170172690Y-111045583D01*
X170273705Y-111079255D01*
X170442064Y-111247614D01*
X170475736Y-111348629D01*
X170475736Y-111415973D01*
X170442064Y-111516988D01*
X170374721Y-111584331D01*
X170240034Y-111651675D01*
X169431912Y-111651675D01*
X169869644Y-112089408D01*
X170812453Y-111618003D02*
X170576751Y-112796514D01*
X171283858Y-112089408D02*
X170105347Y-112325110D01*
X171182843Y-113402606D02*
X170846125Y-113065888D01*
X171553232Y-112358782D01*
%TO.C,J1*%
X159682380Y-120983333D02*
X160396666Y-120983333D01*
X160539523Y-121030952D01*
X160634761Y-121126190D01*
X160682380Y-121269047D01*
X160682380Y-121364285D01*
X160682380Y-119983333D02*
X160682380Y-120554761D01*
X160682380Y-120269047D02*
X159682380Y-120269047D01*
X159825238Y-120364285D01*
X159920476Y-120459523D01*
X159968095Y-120554761D01*
%TD*%
M02*
