%TF.GenerationSoftware,KiCad,Pcbnew,(6.0.0)*%
%TF.CreationDate,2022-01-16T15:55:41+01:00*%
%TF.ProjectId,Bluster,426c7573-7465-4722-9e6b-696361645f70,rev?*%
%TF.SameCoordinates,Original*%
%TF.FileFunction,Copper,L1,Top*%
%TF.FilePolarity,Positive*%
%FSLAX46Y46*%
G04 Gerber Fmt 4.6, Leading zero omitted, Abs format (unit mm)*
G04 Created by KiCad (PCBNEW (6.0.0)) date 2022-01-16 15:55:41*
%MOMM*%
%LPD*%
G01*
G04 APERTURE LIST*
G04 Aperture macros list*
%AMRoundRect*
0 Rectangle with rounded corners*
0 $1 Rounding radius*
0 $2 $3 $4 $5 $6 $7 $8 $9 X,Y pos of 4 corners*
0 Add a 4 corners polygon primitive as box body*
4,1,4,$2,$3,$4,$5,$6,$7,$8,$9,$2,$3,0*
0 Add four circle primitives for the rounded corners*
1,1,$1+$1,$2,$3*
1,1,$1+$1,$4,$5*
1,1,$1+$1,$6,$7*
1,1,$1+$1,$8,$9*
0 Add four rect primitives between the rounded corners*
20,1,$1+$1,$2,$3,$4,$5,0*
20,1,$1+$1,$4,$5,$6,$7,0*
20,1,$1+$1,$6,$7,$8,$9,0*
20,1,$1+$1,$8,$9,$2,$3,0*%
G04 Aperture macros list end*
%TA.AperFunction,ComponentPad*%
%ADD10R,1.200000X1.200000*%
%TD*%
%TA.AperFunction,ComponentPad*%
%ADD11O,1.200000X1.200000*%
%TD*%
%TA.AperFunction,SMDPad,CuDef*%
%ADD12RoundRect,0.075000X-0.521491X0.415425X0.415425X-0.521491X0.521491X-0.415425X-0.415425X0.521491X0*%
%TD*%
%TA.AperFunction,SMDPad,CuDef*%
%ADD13RoundRect,0.075000X-0.521491X-0.415425X-0.415425X-0.521491X0.521491X0.415425X0.415425X0.521491X0*%
%TD*%
%TA.AperFunction,ComponentPad*%
%ADD14R,1.700000X1.700000*%
%TD*%
%TA.AperFunction,ComponentPad*%
%ADD15O,1.700000X1.700000*%
%TD*%
%TA.AperFunction,ViaPad*%
%ADD16C,0.800000*%
%TD*%
%TA.AperFunction,Conductor*%
%ADD17C,0.127000*%
%TD*%
%TA.AperFunction,Conductor*%
%ADD18C,0.381000*%
%TD*%
%TA.AperFunction,Conductor*%
%ADD19C,0.304800*%
%TD*%
%TA.AperFunction,Conductor*%
%ADD20C,0.152400*%
%TD*%
G04 APERTURE END LIST*
D10*
%TO.P,J1,1,GND*%
%TO.N,GND*%
X161280000Y-39570000D03*
D11*
%TO.P,J1,2,~{BG1}*%
%TO.N,/~{BG1}*%
X161280000Y-42110000D03*
%TO.P,J1,3,~{BG2}*%
%TO.N,/~{BG2}*%
X161280000Y-44650000D03*
%TO.P,J1,4,~{BG3}*%
%TO.N,/~{BG3}*%
X161280000Y-47190000D03*
%TO.P,J1,5,~{BG4}*%
%TO.N,/~{BG4}*%
X161280000Y-49730000D03*
%TO.P,J1,6,~{BG5}*%
%TO.N,/~{BG5}*%
X161280000Y-52270000D03*
%TO.P,J1,7,~{BR1}*%
%TO.N,/~{BR1}*%
X161280000Y-54810000D03*
%TO.P,J1,8,~{BR2}*%
%TO.N,/~{BR2}*%
X161280000Y-57350000D03*
%TO.P,J1,9,~{BR3}*%
%TO.N,/~{BR3}*%
X161280000Y-59890000D03*
%TO.P,J1,10,~{BR4}*%
%TO.N,/~{BR4}*%
X161280000Y-62430000D03*
%TO.P,J1,11,~{BR5}*%
%TO.N,/~{BR5}*%
X161280000Y-64970000D03*
%TO.P,J1,12,~{SLAVE1}*%
%TO.N,/~{SLAVE1}*%
X161280000Y-67510000D03*
%TO.P,J1,13,~{SLAVE2}*%
%TO.N,/~{SLAVE2}*%
X161280000Y-70050000D03*
%TO.P,J1,14,~{SLAVE3}*%
%TO.N,/~{SLAVE3}*%
X161280000Y-72590000D03*
%TO.P,J1,15,~{SLAVE4}*%
%TO.N,/~{SLAVE4}*%
X161280000Y-75130000D03*
%TO.P,J1,16,~{SLAVE5}*%
%TO.N,/~{SLAVE5}*%
X161280000Y-77670000D03*
%TO.P,J1,17,~{BG}*%
%TO.N,/~{BG}*%
X161280000Y-80210000D03*
%TO.P,J1,18,~{CDAC}*%
%TO.N,/~{CDAC}*%
X161280000Y-82750000D03*
%TO.P,J1,19,C1*%
%TO.N,/C1*%
X161280000Y-85290000D03*
%TO.P,J1,20,C3*%
%TO.N,/C3*%
X161280000Y-87830000D03*
%TO.P,J1,21,~{C2}*%
%TO.N,/~{C2}*%
X161280000Y-90370000D03*
%TO.P,J1,22,~{C4}*%
%TO.N,/~{C4}*%
X161280000Y-92910000D03*
%TO.P,J1,23,~{GBG}*%
%TO.N,/GBG*%
X161280000Y-95450000D03*
%TO.P,J1,24,GND*%
%TO.N,GND*%
X161280000Y-97990000D03*
%TO.P,J1,25,25*%
%TO.N,/25*%
X176520000Y-97990000D03*
%TO.P,J1,26,~{BEER}*%
%TO.N,/~{BEER}*%
X176520000Y-95450000D03*
%TO.P,J1,27,~{BR}*%
%TO.N,/~{BR}*%
X176520000Y-92910000D03*
%TO.P,J1,28,~{CBR}*%
%TO.N,/~{CBR}*%
X176520000Y-90370000D03*
%TO.P,J1,29,~{CBG}*%
%TO.N,/~{CBG}*%
X176520000Y-87830000D03*
%TO.P,J1,30,A19*%
%TO.N,/~{A19}*%
X176520000Y-85290000D03*
%TO.P,J1,31,A20*%
%TO.N,/~{A20}*%
X176520000Y-82750000D03*
%TO.P,J1,32,A21*%
%TO.N,/~{A21}*%
X176520000Y-80210000D03*
%TO.P,J1,33,A22*%
%TO.N,/~{A22}*%
X176520000Y-77670000D03*
%TO.P,J1,34,A23*%
%TO.N,/~{A23}*%
X176520000Y-75130000D03*
%TO.P,J1,35,READ*%
%TO.N,/READ*%
X176520000Y-72590000D03*
%TO.P,J1,36,~{AS}*%
%TO.N,/~{AS}*%
X176520000Y-70050000D03*
%TO.P,J1,37,~{LDS}*%
%TO.N,/~{LDS}*%
X176520000Y-67510000D03*
%TO.P,J1,38,~{UDS}*%
%TO.N,/~{UDS}*%
X176520000Y-64970000D03*
%TO.P,J1,39,~{BOSS}*%
%TO.N,/~{BOSS}*%
X176520000Y-62430000D03*
%TO.P,J1,40,~{OVR}*%
%TO.N,/~{OVR}*%
X176520000Y-59890000D03*
%TO.P,J1,41,~{OWN}*%
%TO.N,/~{OWN}*%
X176520000Y-57350000D03*
%TO.P,J1,42,~{RST}*%
%TO.N,/~{RST}*%
X176520000Y-54810000D03*
%TO.P,J1,43,TEST*%
%TO.N,/TEST*%
X176520000Y-52270000D03*
%TO.P,J1,44,PTEST*%
%TO.N,/PTEST*%
X176520000Y-49730000D03*
%TO.P,J1,45,~{D2P}*%
%TO.N,/D2P*%
X176520000Y-47190000D03*
%TO.P,J1,46,~{DB0E}*%
%TO.N,/~{DBOE}*%
X176520000Y-44650000D03*
%TO.P,J1,47,DOE*%
%TO.N,/DOE*%
X176520000Y-42110000D03*
%TO.P,J1,48,VCC*%
%TO.N,+5V*%
X176520000Y-39570000D03*
%TD*%
D12*
%TO.P,U1,1,P1*%
%TO.N,unconnected-(U1-Pad1)*%
X167544958Y-60832157D03*
%TO.P,U1,2,I/O/GTS2*%
%TO.N,unconnected-(U1-Pad2)*%
X167191405Y-61185711D03*
%TO.P,U1,3,VCC*%
%TO.N,+3V3*%
X166837851Y-61539264D03*
%TO.P,U1,4,P4*%
%TO.N,unconnected-(U1-Pad4)*%
X166484298Y-61892818D03*
%TO.P,U1,5,I/O/GTS1*%
%TO.N,/~{BG1}*%
X166130745Y-62246371D03*
%TO.P,U1,6,P6*%
%TO.N,/~{BG2}*%
X165777191Y-62599924D03*
%TO.P,U1,7,P7*%
%TO.N,/~{BG3}*%
X165423638Y-62953478D03*
%TO.P,U1,8,P8*%
%TO.N,/~{BG4}*%
X165070085Y-63307031D03*
%TO.P,U1,9,P9*%
%TO.N,/~{BG5}*%
X164716531Y-63660585D03*
%TO.P,U1,10,P10*%
%TO.N,/~{BR1}*%
X164362978Y-64014138D03*
%TO.P,U1,11,P11*%
%TO.N,/~{BR2}*%
X164009424Y-64367691D03*
%TO.P,U1,12,P12*%
%TO.N,/~{BR3}*%
X163655871Y-64721245D03*
%TO.P,U1,13,P13*%
%TO.N,/~{BR4}*%
X163302318Y-65074798D03*
%TO.P,U1,14,GND*%
%TO.N,GND*%
X162948764Y-65428351D03*
%TO.P,U1,15,I/O/GCK1*%
%TO.N,/~{BR5}*%
X162595211Y-65781905D03*
%TO.P,U1,16,I/O/GCK2*%
%TO.N,/~{SLAVE1}*%
X162241657Y-66135458D03*
D13*
%TO.P,U1,17,I/O/GCK3*%
%TO.N,/~{SLAVE2}*%
X162241657Y-68840142D03*
%TO.P,U1,18,P18*%
%TO.N,/~{SLAVE3}*%
X162595211Y-69193695D03*
%TO.P,U1,19,P19*%
%TO.N,/~{SLAVE4}*%
X162948764Y-69547249D03*
%TO.P,U1,20,P20*%
%TO.N,/~{SLAVE5}*%
X163302318Y-69900802D03*
%TO.P,U1,21,GND*%
%TO.N,GND*%
X163655871Y-70254355D03*
%TO.P,U1,22,P22*%
%TO.N,/~{BG}*%
X164009424Y-70607909D03*
%TO.P,U1,23,P23*%
%TO.N,/~{CDAC}*%
X164362978Y-70961462D03*
%TO.P,U1,24,P24*%
%TO.N,/C1*%
X164716531Y-71315015D03*
%TO.P,U1,25,P25*%
%TO.N,/C3*%
X165070085Y-71668569D03*
%TO.P,U1,26,VCCIO*%
%TO.N,+3V3*%
X165423638Y-72022122D03*
%TO.P,U1,27,P27*%
%TO.N,/~{C2}*%
X165777191Y-72375676D03*
%TO.P,U1,28,TDI*%
%TO.N,/TDI*%
X166130745Y-72729229D03*
%TO.P,U1,29,TMS*%
%TO.N,/TMS*%
X166484298Y-73082782D03*
%TO.P,U1,30,TCK*%
%TO.N,/TCK*%
X166837851Y-73436336D03*
%TO.P,U1,31,P31*%
%TO.N,/~{C4}*%
X167191405Y-73789889D03*
%TO.P,U1,32,P32*%
%TO.N,/GBG*%
X167544958Y-74143443D03*
D12*
%TO.P,U1,33,P33*%
%TO.N,unconnected-(U1-Pad33)*%
X170249642Y-74143443D03*
%TO.P,U1,34,P34*%
%TO.N,unconnected-(U1-Pad34)*%
X170603195Y-73789889D03*
%TO.P,U1,35,P35*%
%TO.N,/25*%
X170956749Y-73436336D03*
%TO.P,U1,36,P36*%
%TO.N,/~{BEER}*%
X171310302Y-73082782D03*
%TO.P,U1,37,VCC*%
%TO.N,+3V3*%
X171663855Y-72729229D03*
%TO.P,U1,38,P38*%
%TO.N,/~{BR}*%
X172017409Y-72375676D03*
%TO.P,U1,39,P39*%
%TO.N,/~{CBR}*%
X172370962Y-72022122D03*
%TO.P,U1,40,P40*%
%TO.N,/~{CBG}*%
X172724515Y-71668569D03*
%TO.P,U1,41,GND*%
%TO.N,GND*%
X173078069Y-71315015D03*
%TO.P,U1,42,P42*%
%TO.N,/~{A19}*%
X173431622Y-70961462D03*
%TO.P,U1,43,P43*%
%TO.N,/~{A20}*%
X173785176Y-70607909D03*
%TO.P,U1,44,P44*%
%TO.N,/~{A21}*%
X174138729Y-70254355D03*
%TO.P,U1,45,P45*%
%TO.N,/~{A22}*%
X174492282Y-69900802D03*
%TO.P,U1,46,P46*%
%TO.N,/~{A23}*%
X174845836Y-69547249D03*
%TO.P,U1,47,P47*%
%TO.N,/READ*%
X175199389Y-69193695D03*
%TO.P,U1,48,P48*%
%TO.N,/~{AS}*%
X175552943Y-68840142D03*
D13*
%TO.P,U1,49,P49*%
%TO.N,/~{LDS}*%
X175552943Y-66135458D03*
%TO.P,U1,50,P50*%
%TO.N,/~{UDS}*%
X175199389Y-65781905D03*
%TO.P,U1,51,P51*%
%TO.N,/~{BOSS}*%
X174845836Y-65428351D03*
%TO.P,U1,52,P52*%
%TO.N,/~{OVR}*%
X174492282Y-65074798D03*
%TO.P,U1,53,TDO*%
%TO.N,/TDO*%
X174138729Y-64721245D03*
%TO.P,U1,54,GND*%
%TO.N,GND*%
X173785176Y-64367691D03*
%TO.P,U1,55,VCCIO*%
%TO.N,+3V3*%
X173431622Y-64014138D03*
%TO.P,U1,56,P56*%
%TO.N,/~{OWN}*%
X173078069Y-63660585D03*
%TO.P,U1,57,P57*%
%TO.N,/~{RST}*%
X172724515Y-63307031D03*
%TO.P,U1,58,P58*%
%TO.N,/TEST*%
X172370962Y-62953478D03*
%TO.P,U1,59,P59*%
%TO.N,/PTEST*%
X172017409Y-62599924D03*
%TO.P,U1,60,P60*%
%TO.N,/D2P*%
X171663855Y-62246371D03*
%TO.P,U1,61,P61*%
%TO.N,/~{DBOE}*%
X171310302Y-61892818D03*
%TO.P,U1,62,P62*%
%TO.N,/DOE*%
X170956749Y-61539264D03*
%TO.P,U1,63,P63*%
%TO.N,unconnected-(U1-Pad63)*%
X170603195Y-61185711D03*
%TO.P,U1,64,I/O/GSR*%
%TO.N,unconnected-(U1-Pad64)*%
X170249642Y-60832157D03*
%TD*%
D14*
%TO.P,J2,1,Pin_1*%
%TO.N,/TMS*%
X168941958Y-80210000D03*
D15*
%TO.P,J2,2,Pin_2*%
%TO.N,/TDI*%
X168941958Y-82750000D03*
%TO.P,J2,3,Pin_3*%
%TO.N,/TDO*%
X168941958Y-85290000D03*
%TO.P,J2,4,Pin_4*%
%TO.N,/TCK*%
X168941958Y-87830000D03*
%TO.P,J2,5,Pin_5*%
%TO.N,GND*%
X168941958Y-90370000D03*
%TO.P,J2,6,Pin_6*%
%TO.N,+3V3*%
X168941958Y-92910000D03*
%TD*%
D16*
%TO.N,GND*%
X164836000Y-58620000D03*
X164836000Y-56080000D03*
X164836000Y-53540000D03*
X172670000Y-56080000D03*
X172670000Y-53540000D03*
X172670000Y-58620000D03*
X172070000Y-78940000D03*
X172070000Y-76400000D03*
X172070000Y-91640000D03*
X172070000Y-89100000D03*
X172070000Y-84020000D03*
X172070000Y-94180000D03*
X172070000Y-86560000D03*
X172070000Y-81480000D03*
X165407500Y-78940000D03*
X165407500Y-81480000D03*
X165407500Y-91640000D03*
X165407500Y-86560000D03*
X165407500Y-94180000D03*
X165407500Y-84020000D03*
X165407500Y-89100000D03*
X165280500Y-74495000D03*
X176520000Y-73860000D03*
X161280000Y-96720000D03*
X161280000Y-51000000D03*
X161280000Y-86560000D03*
X161280000Y-73860000D03*
X176520000Y-71320000D03*
X161280000Y-84020000D03*
X176520000Y-66240000D03*
X161280000Y-43380000D03*
X176520000Y-76400000D03*
X176520000Y-61160000D03*
X161280000Y-89100000D03*
X176520000Y-96720000D03*
X161280000Y-81480000D03*
X161280000Y-91640000D03*
X176520000Y-89100000D03*
X176520000Y-84020000D03*
X161280000Y-61160000D03*
X161280000Y-45920000D03*
X176520000Y-78940000D03*
X168900000Y-76654000D03*
X161280000Y-48460000D03*
X161280000Y-68780000D03*
X161280000Y-56080000D03*
X163947000Y-66367000D03*
X161280000Y-78940000D03*
X176520000Y-56080000D03*
X176520000Y-86560000D03*
X176520000Y-58620000D03*
X176520000Y-94180000D03*
X161280000Y-53540000D03*
X161280000Y-76400000D03*
X176520000Y-53540000D03*
X161280000Y-40840000D03*
X176520000Y-40840000D03*
X161280000Y-71320000D03*
X164582000Y-69288000D03*
X163756500Y-43380000D03*
X161280000Y-94180000D03*
X176520000Y-81480000D03*
X176520000Y-91640000D03*
X172189069Y-70426015D03*
X161280000Y-58620000D03*
X176520000Y-51000000D03*
X176520000Y-48460000D03*
%TO.N,+3V3*%
X167794237Y-62487878D03*
X170598526Y-71676622D03*
X166439638Y-71006122D03*
X172377036Y-65066911D03*
%TD*%
D17*
%TO.N,GND*%
X163655871Y-70214129D02*
X163655871Y-70254355D01*
X163008351Y-65428351D02*
X163947000Y-66367000D01*
D18*
X173785176Y-64367691D02*
X175287924Y-62864943D01*
D17*
X173078069Y-71315015D02*
X172189069Y-70426015D01*
D18*
X175287924Y-62864943D02*
X175287924Y-59286391D01*
D17*
X162948764Y-65428351D02*
X163008351Y-65428351D01*
D18*
X175954315Y-58620000D02*
X176520000Y-58620000D01*
D17*
X164582000Y-69288000D02*
X163655871Y-70214129D01*
D18*
X175287924Y-59286391D02*
X175954315Y-58620000D01*
D19*
%TO.N,+3V3*%
X166185638Y-71260122D02*
X166439638Y-71006122D01*
X166837851Y-61539264D02*
X166845623Y-61539264D01*
X166845623Y-61539264D02*
X167794237Y-62487878D01*
X170598526Y-71676622D02*
X171651133Y-72729229D01*
X173431622Y-64014138D02*
X173429809Y-64014138D01*
X165423638Y-72022122D02*
X166185638Y-71260122D01*
X171651133Y-72729229D02*
X171663855Y-72729229D01*
X173429809Y-64014138D02*
X172377036Y-65066911D01*
D17*
%TO.N,/TCK*%
X167910484Y-87830000D02*
X168941958Y-87830000D01*
X167716622Y-72777138D02*
X168331959Y-73392475D01*
X167497049Y-72777138D02*
X167716622Y-72777138D01*
X166837851Y-73436336D02*
X167497049Y-72777138D01*
X167589622Y-74936138D02*
X167589622Y-87509138D01*
X168331959Y-73392475D02*
X168331959Y-74193801D01*
X167589622Y-87509138D02*
X167910484Y-87830000D01*
X168331959Y-74193801D02*
X167589622Y-74936138D01*
%TO.N,/TDO*%
X173421742Y-66016750D02*
X169093988Y-70344504D01*
X169093988Y-73900504D02*
X170256632Y-75063148D01*
X174101755Y-64721245D02*
X173421742Y-65401258D01*
X174138729Y-64721245D02*
X174101755Y-64721245D01*
X170256632Y-83975326D02*
X168941958Y-85290000D01*
X170256632Y-75063148D02*
X170256632Y-83975326D01*
X169093988Y-70344504D02*
X169093988Y-73900504D01*
X173421742Y-65401258D02*
X173421742Y-66016750D01*
%TO.N,/TDI*%
X168839978Y-73182048D02*
X168839978Y-74027494D01*
X170002622Y-75190138D02*
X170002622Y-81689336D01*
X170002622Y-81689336D02*
X168941958Y-82750000D01*
X166130745Y-72517097D02*
X166378723Y-72269119D01*
X167927052Y-72269120D02*
X168839978Y-73182048D01*
X168839978Y-74027494D02*
X170002622Y-75190138D01*
X166130745Y-72729229D02*
X166130745Y-72517097D01*
X166378723Y-72269119D02*
X167927052Y-72269120D01*
%TO.N,/TMS*%
X168585968Y-74299016D02*
X167843622Y-75041362D01*
X167843622Y-75041362D02*
X167843622Y-79111664D01*
X168585969Y-73287261D02*
X168585968Y-74299016D01*
X167043951Y-72523129D02*
X167821837Y-72523129D01*
X166484298Y-73082782D02*
X167043951Y-72523129D01*
X167821837Y-72523129D02*
X168585969Y-73287261D01*
X167843622Y-79111664D02*
X168941958Y-80210000D01*
%TO.N,/DOE*%
X176520000Y-42110000D02*
X173334502Y-45295498D01*
X173334502Y-59161511D02*
X170956749Y-61539264D01*
X173334502Y-45295498D02*
X173334502Y-59161511D01*
D20*
%TO.N,/GBG*%
X167544958Y-74143443D02*
X164623958Y-77064443D01*
X164623958Y-92106042D02*
X161280000Y-95450000D01*
X164623958Y-77064443D02*
X164623958Y-92106042D01*
D17*
%TO.N,/~{DBOE}*%
X173588022Y-47581978D02*
X173588022Y-59615098D01*
X176520000Y-44650000D02*
X173588022Y-47581978D01*
X173588022Y-59615098D02*
X171310302Y-61892818D01*
D20*
%TO.N,/~{C4}*%
X164319241Y-89870759D02*
X161280000Y-92910000D01*
X164319241Y-76662053D02*
X164319241Y-89870759D01*
X167191405Y-73789889D02*
X164319241Y-76662053D01*
D17*
%TO.N,/D2P*%
X173841542Y-49868458D02*
X173841542Y-60068684D01*
X173841542Y-60068684D02*
X171663855Y-62246371D01*
X176520000Y-47190000D02*
X173841542Y-49868458D01*
D20*
%TO.N,/~{C2}*%
X164039831Y-87610169D02*
X161280000Y-90370000D01*
X164039831Y-74113036D02*
X164039831Y-87610169D01*
X165777191Y-72375676D02*
X164039831Y-74113036D01*
%TO.N,/C3*%
X163760421Y-85349579D02*
X161280000Y-87830000D01*
X163760421Y-72978233D02*
X163760421Y-85349579D01*
X165070085Y-71668569D02*
X163760421Y-72978233D01*
%TO.N,/C1*%
X163481011Y-83088989D02*
X161280000Y-85290000D01*
X164716531Y-71315015D02*
X163481011Y-72550535D01*
X163481011Y-72550535D02*
X163481011Y-83088989D01*
%TO.N,/~{RST}*%
X174614802Y-56715198D02*
X176520000Y-54810000D01*
X174614802Y-61416744D02*
X174614802Y-56715198D01*
X172724515Y-63307031D02*
X174614802Y-61416744D01*
%TO.N,/~{CDAC}*%
X163201601Y-72122839D02*
X163201601Y-80828399D01*
X164362978Y-70961462D02*
X163201601Y-72122839D01*
X163201601Y-80828399D02*
X161280000Y-82750000D01*
%TO.N,/~{OWN}*%
X174894213Y-61844441D02*
X174894213Y-58975787D01*
X174894213Y-58975787D02*
X176520000Y-57350000D01*
X173078069Y-63660585D02*
X174894213Y-61844441D01*
%TO.N,/~{BG}*%
X162922191Y-78567809D02*
X161280000Y-80210000D01*
X162922191Y-71695142D02*
X162922191Y-78567809D01*
X164009424Y-70607909D02*
X162922191Y-71695142D01*
%TO.N,/~{OVR}*%
X175681635Y-60728365D02*
X176520000Y-59890000D01*
X175681635Y-63885445D02*
X175681635Y-60728365D01*
X174492282Y-65074798D02*
X175681635Y-63885445D01*
%TO.N,/~{SLAVE5}*%
X162642780Y-70560340D02*
X162642780Y-76307220D01*
X163302318Y-69900802D02*
X162642780Y-70560340D01*
X162642780Y-76307220D02*
X161280000Y-77670000D01*
%TO.N,/~{BOSS}*%
X174845836Y-65428351D02*
X176520000Y-63754187D01*
X176520000Y-63754187D02*
X176520000Y-62430000D01*
%TO.N,/~{SLAVE4}*%
X162363369Y-70132644D02*
X162363369Y-74046630D01*
X162363369Y-74046630D02*
X161280000Y-75130000D01*
X162948764Y-69547249D02*
X162363369Y-70132644D01*
%TO.N,/~{UDS}*%
X175199389Y-65781905D02*
X176011294Y-64970000D01*
X176011294Y-64970000D02*
X176520000Y-64970000D01*
%TO.N,/~{SLAVE3}*%
X162083201Y-69705705D02*
X162083201Y-70435537D01*
X162595211Y-69193695D02*
X162083201Y-69705705D01*
X162070501Y-70448237D02*
X162070501Y-71799499D01*
X162070501Y-71799499D02*
X161280000Y-72590000D01*
X162083201Y-70435537D02*
X162070501Y-70448237D01*
%TO.N,/~{LDS}*%
X174910958Y-67285443D02*
X174910958Y-66777443D01*
X176520000Y-67510000D02*
X175135515Y-67510000D01*
X174910958Y-66777443D02*
X175552943Y-66135458D01*
X175135515Y-67510000D02*
X174910958Y-67285443D01*
%TO.N,/~{SLAVE2}*%
X162241657Y-68840142D02*
X161280000Y-69801799D01*
X161280000Y-69801799D02*
X161280000Y-70050000D01*
%TO.N,/~{AS}*%
X175552943Y-68840142D02*
X176520000Y-69807199D01*
X176520000Y-69807199D02*
X176520000Y-70050000D01*
%TO.N,/~{SLAVE1}*%
X162241657Y-66516458D02*
X162241657Y-66135458D01*
X161280000Y-67478115D02*
X162241657Y-66516458D01*
X161280000Y-67510000D02*
X161280000Y-67478115D01*
%TO.N,/READ*%
X175672958Y-69667264D02*
X175672958Y-71742958D01*
X175199389Y-69193695D02*
X175672958Y-69667264D01*
X175672958Y-71742958D02*
X176520000Y-72590000D01*
%TO.N,/~{BR5}*%
X161783306Y-64970000D02*
X161280000Y-64970000D01*
X162595211Y-65781905D02*
X161783306Y-64970000D01*
%TO.N,/~{A23}*%
X175393547Y-70094960D02*
X175393547Y-71858695D01*
X174845836Y-69547249D02*
X175393547Y-70094960D01*
X175393547Y-74003547D02*
X176520000Y-75130000D01*
X175393547Y-71858695D02*
X175393547Y-74003547D01*
%TO.N,/~{BR4}*%
X163302318Y-65074798D02*
X161280000Y-63052480D01*
X161280000Y-63052480D02*
X161280000Y-62430000D01*
%TO.N,/~{A22}*%
X174492282Y-69900802D02*
X175114136Y-70522656D01*
X175114136Y-70522656D02*
X175114136Y-76264136D01*
X175114136Y-76264136D02*
X176520000Y-77670000D01*
%TO.N,/~{BR3}*%
X162138855Y-60748855D02*
X161280000Y-59890000D01*
X163655871Y-64721245D02*
X162138855Y-63204229D01*
X162138855Y-63204229D02*
X162138855Y-60748855D01*
%TO.N,/~{A21}*%
X174138729Y-70254355D02*
X174834725Y-70950351D01*
X174834725Y-70950351D02*
X174834725Y-78524725D01*
X174834725Y-78524725D02*
X176520000Y-80210000D01*
%TO.N,/~{BR2}*%
X162418266Y-62776533D02*
X162418266Y-58488266D01*
X162418266Y-58488266D02*
X161280000Y-57350000D01*
X164009424Y-64367691D02*
X162418266Y-62776533D01*
%TO.N,/~{A20}*%
X173785176Y-70607909D02*
X174555316Y-71378049D01*
X174555316Y-71378049D02*
X174555316Y-80785316D01*
X174555316Y-80785316D02*
X176520000Y-82750000D01*
%TO.N,/~{BR1}*%
X162697675Y-62348835D02*
X162697675Y-56227675D01*
X162697675Y-56227675D02*
X161280000Y-54810000D01*
X164362978Y-64014138D02*
X162697675Y-62348835D01*
%TO.N,/~{A19}*%
X174275905Y-71805745D02*
X173431622Y-70961462D01*
X176520000Y-85290000D02*
X174275905Y-83045905D01*
X174275905Y-83045905D02*
X174275905Y-71805745D01*
%TO.N,/~{BG5}*%
X164716531Y-63660585D02*
X162977086Y-61921140D01*
X162977086Y-53967086D02*
X161280000Y-52270000D01*
X162977086Y-61921140D02*
X162977086Y-53967086D01*
%TO.N,/~{CBG}*%
X172724515Y-71668569D02*
X173996494Y-72940548D01*
X173996494Y-72940548D02*
X173996494Y-85306494D01*
X173996494Y-85306494D02*
X176520000Y-87830000D01*
%TO.N,/~{BG4}*%
X165070085Y-63307031D02*
X163256495Y-61493441D01*
X163256495Y-61493441D02*
X163256495Y-51706495D01*
X163256495Y-51706495D02*
X161280000Y-49730000D01*
%TO.N,/~{CBR}*%
X173717083Y-73368243D02*
X173717083Y-87567083D01*
X173717083Y-87567083D02*
X176520000Y-90370000D01*
X172370962Y-72022122D02*
X173717083Y-73368243D01*
%TO.N,/~{BG3}*%
X163535906Y-49445906D02*
X161280000Y-47190000D01*
X163535906Y-61065746D02*
X163535906Y-49445906D01*
X165423638Y-62953478D02*
X163535906Y-61065746D01*
%TO.N,/~{BR}*%
X172017409Y-72375676D02*
X173437674Y-73795941D01*
X173437674Y-73795941D02*
X173437674Y-89827674D01*
X173437674Y-89827674D02*
X176520000Y-92910000D01*
%TO.N,/~{BG2}*%
X163815315Y-60638048D02*
X163815315Y-47185315D01*
X165777191Y-62599924D02*
X163815315Y-60638048D01*
X163815315Y-47185315D02*
X161280000Y-44650000D01*
%TO.N,/~{BEER}*%
X173158263Y-74930743D02*
X173158263Y-92088263D01*
X171310302Y-73082782D02*
X173158263Y-74930743D01*
X173158263Y-92088263D02*
X176520000Y-95450000D01*
%TO.N,/~{BG1}*%
X164094726Y-44924726D02*
X161280000Y-42110000D01*
X164094726Y-60210352D02*
X164094726Y-44924726D01*
X166130745Y-62246371D02*
X164094726Y-60210352D01*
D17*
%TO.N,/PTEST*%
X174095062Y-60522271D02*
X172017409Y-62599924D01*
X174095062Y-52154938D02*
X174095062Y-60522271D01*
X176520000Y-49730000D02*
X174095062Y-52154938D01*
%TO.N,/TEST*%
X174348583Y-56825471D02*
X174348583Y-60975857D01*
X176520000Y-52270000D02*
X174348582Y-54441418D01*
X174348582Y-54441418D02*
X174348583Y-56825471D01*
X174348583Y-60975857D02*
X172370962Y-62953478D01*
%TO.N,/25*%
X172370000Y-74850000D02*
X172370000Y-74849587D01*
X172370000Y-74849587D02*
X170956749Y-73436336D01*
X176520000Y-97990000D02*
X172845000Y-94315000D01*
X172845000Y-94315000D02*
X172845000Y-75325000D01*
X172845000Y-75325000D02*
X172370000Y-74850000D01*
%TD*%
%TA.AperFunction,Conductor*%
%TO.N,GND*%
G36*
X171477372Y-74422781D02*
G01*
X171522434Y-74451741D01*
X172105003Y-75034310D01*
X172112430Y-75042414D01*
X172117128Y-75048013D01*
X172122640Y-75057560D01*
X172131085Y-75064646D01*
X172150746Y-75081144D01*
X172158849Y-75088569D01*
X172337405Y-75267124D01*
X172490095Y-75419814D01*
X172524120Y-75482127D01*
X172527000Y-75508910D01*
X172527000Y-94295608D01*
X172526521Y-94306590D01*
X172523323Y-94343143D01*
X172526177Y-94353794D01*
X172532818Y-94378581D01*
X172535196Y-94389310D01*
X172539652Y-94414579D01*
X172539654Y-94414584D01*
X172541568Y-94425440D01*
X172547081Y-94434987D01*
X172548160Y-94437953D01*
X172549494Y-94440814D01*
X172552348Y-94451466D01*
X172558671Y-94460496D01*
X172573392Y-94481520D01*
X172579297Y-94490790D01*
X172592126Y-94513011D01*
X172592129Y-94513015D01*
X172597640Y-94522560D01*
X172606087Y-94529648D01*
X172625745Y-94546143D01*
X172633849Y-94553569D01*
X175676979Y-97596699D01*
X175711005Y-97659011D01*
X175707717Y-97724728D01*
X175679569Y-97811361D01*
X175660793Y-97990000D01*
X175661483Y-97996565D01*
X175674247Y-98118000D01*
X175679569Y-98168639D01*
X175735075Y-98339471D01*
X175824887Y-98495029D01*
X175945078Y-98628515D01*
X176090396Y-98734095D01*
X176096424Y-98736779D01*
X176096426Y-98736780D01*
X176176415Y-98772393D01*
X176254490Y-98807154D01*
X176342339Y-98825827D01*
X176423731Y-98843128D01*
X176423736Y-98843128D01*
X176430188Y-98844500D01*
X176609812Y-98844500D01*
X176616264Y-98843128D01*
X176616269Y-98843128D01*
X176697661Y-98825827D01*
X176785510Y-98807154D01*
X176863585Y-98772393D01*
X176943574Y-98736780D01*
X176943576Y-98736779D01*
X176949604Y-98734095D01*
X177094922Y-98628515D01*
X177215113Y-98495029D01*
X177304925Y-98339471D01*
X177305800Y-98336778D01*
X177350874Y-98283749D01*
X177418802Y-98263100D01*
X177487110Y-98282453D01*
X177534111Y-98335664D01*
X177546000Y-98389094D01*
X177546000Y-99134000D01*
X177525998Y-99202121D01*
X177472342Y-99248614D01*
X177420000Y-99260000D01*
X161749112Y-99260000D01*
X161680991Y-99239998D01*
X161634498Y-99186342D01*
X161624394Y-99116068D01*
X161653888Y-99051488D01*
X161708610Y-99014687D01*
X161727131Y-99008400D01*
X161737628Y-99003726D01*
X161905233Y-98909863D01*
X161914705Y-98903353D01*
X162062393Y-98780522D01*
X162070522Y-98772393D01*
X162193353Y-98624705D01*
X162199863Y-98615233D01*
X162293726Y-98447628D01*
X162298400Y-98437131D01*
X162359539Y-98257022D01*
X162358252Y-98247993D01*
X162344684Y-98244000D01*
X161152000Y-98244000D01*
X161083879Y-98223998D01*
X161037386Y-98170342D01*
X161026000Y-98118000D01*
X161026000Y-97717885D01*
X161534000Y-97717885D01*
X161538475Y-97733124D01*
X161539865Y-97734329D01*
X161547548Y-97736000D01*
X162341554Y-97736000D01*
X162355085Y-97732027D01*
X162356254Y-97723892D01*
X162320408Y-97596791D01*
X162316283Y-97586044D01*
X162231328Y-97413772D01*
X162225318Y-97403964D01*
X162110385Y-97250051D01*
X162102695Y-97241511D01*
X161961637Y-97111118D01*
X161952514Y-97104117D01*
X161790057Y-97001614D01*
X161779814Y-96996396D01*
X161601406Y-96925218D01*
X161590370Y-96921949D01*
X161551769Y-96914271D01*
X161538894Y-96915423D01*
X161534000Y-96930579D01*
X161534000Y-97717885D01*
X161026000Y-97717885D01*
X161026000Y-96927442D01*
X161022194Y-96914480D01*
X161007278Y-96912544D01*
X160997696Y-96914190D01*
X160986579Y-96917169D01*
X160806366Y-96983653D01*
X160795988Y-96988603D01*
X160630912Y-97086813D01*
X160621600Y-97093579D01*
X160483078Y-97215059D01*
X160418673Y-97244936D01*
X160348341Y-97235250D01*
X160294409Y-97189077D01*
X160274000Y-97120327D01*
X160274000Y-95886796D01*
X160294002Y-95818675D01*
X160347658Y-95772182D01*
X160417932Y-95762078D01*
X160482512Y-95791572D01*
X160509119Y-95823796D01*
X160581585Y-95949311D01*
X160581588Y-95949316D01*
X160584887Y-95955029D01*
X160705078Y-96088515D01*
X160850396Y-96194095D01*
X160856424Y-96196779D01*
X160856426Y-96196780D01*
X161008459Y-96264469D01*
X161014490Y-96267154D01*
X161102339Y-96285827D01*
X161183731Y-96303128D01*
X161183736Y-96303128D01*
X161190188Y-96304500D01*
X161369812Y-96304500D01*
X161376264Y-96303128D01*
X161376269Y-96303128D01*
X161457661Y-96285827D01*
X161545510Y-96267154D01*
X161551541Y-96264469D01*
X161703574Y-96196780D01*
X161703576Y-96196779D01*
X161709604Y-96194095D01*
X161854922Y-96088515D01*
X161975113Y-95955029D01*
X162050881Y-95823796D01*
X162061621Y-95805194D01*
X162061622Y-95805193D01*
X162064925Y-95799471D01*
X162120431Y-95628639D01*
X162139207Y-95450000D01*
X162120431Y-95271361D01*
X162096687Y-95198283D01*
X162094661Y-95127316D01*
X162127426Y-95070254D01*
X163469155Y-93728526D01*
X164843696Y-92353985D01*
X164851799Y-92346559D01*
X164872755Y-92328975D01*
X164872756Y-92328974D01*
X164881197Y-92321891D01*
X164900379Y-92288667D01*
X164906285Y-92279397D01*
X164921973Y-92256992D01*
X164921974Y-92256989D01*
X164928298Y-92247958D01*
X164931152Y-92237309D01*
X164932727Y-92233931D01*
X164933998Y-92230438D01*
X164939509Y-92220893D01*
X164946174Y-92183095D01*
X164948549Y-92172381D01*
X164958482Y-92135309D01*
X164955137Y-92097074D01*
X164954658Y-92086093D01*
X164954658Y-90637966D01*
X167610215Y-90637966D01*
X167640523Y-90772446D01*
X167643603Y-90782275D01*
X167723728Y-90979603D01*
X167728371Y-90988794D01*
X167839652Y-91170388D01*
X167845735Y-91178699D01*
X167985171Y-91339667D01*
X167992538Y-91346883D01*
X168156392Y-91482916D01*
X168164839Y-91488831D01*
X168348714Y-91596279D01*
X168358000Y-91600729D01*
X168507082Y-91657657D01*
X168563585Y-91700644D01*
X168587878Y-91767355D01*
X168572248Y-91836610D01*
X168521657Y-91886421D01*
X168505743Y-91893579D01*
X168464421Y-91908824D01*
X168289968Y-92012612D01*
X168285628Y-92016418D01*
X168285624Y-92016421D01*
X168141691Y-92142648D01*
X168137350Y-92146455D01*
X168133775Y-92150990D01*
X168133774Y-92150991D01*
X168123633Y-92163855D01*
X168011678Y-92305869D01*
X168008989Y-92310980D01*
X168008987Y-92310983D01*
X167996031Y-92335609D01*
X167917161Y-92485515D01*
X167856965Y-92679378D01*
X167833106Y-92880964D01*
X167846382Y-93083522D01*
X167847803Y-93089118D01*
X167847804Y-93089123D01*
X167868077Y-93168945D01*
X167896350Y-93280269D01*
X167898767Y-93285512D01*
X167935968Y-93366208D01*
X167981335Y-93464616D01*
X167984668Y-93469332D01*
X168040629Y-93548515D01*
X168098491Y-93630389D01*
X168243896Y-93772035D01*
X168412678Y-93884812D01*
X168417981Y-93887090D01*
X168417984Y-93887092D01*
X168506665Y-93925192D01*
X168599186Y-93964942D01*
X168672202Y-93981464D01*
X168791537Y-94008467D01*
X168791542Y-94008468D01*
X168797174Y-94009742D01*
X168802945Y-94009969D01*
X168802947Y-94009969D01*
X168862714Y-94012317D01*
X169000011Y-94017712D01*
X169100457Y-94003148D01*
X169195189Y-93989413D01*
X169195194Y-93989412D01*
X169200903Y-93988584D01*
X169206367Y-93986729D01*
X169206372Y-93986728D01*
X169387651Y-93925192D01*
X169387656Y-93925190D01*
X169393123Y-93923334D01*
X169570234Y-93824147D01*
X169632892Y-93772035D01*
X169721871Y-93698031D01*
X169726303Y-93694345D01*
X169844360Y-93552398D01*
X169852411Y-93542718D01*
X169852413Y-93542715D01*
X169856105Y-93538276D01*
X169955292Y-93361165D01*
X169957148Y-93355698D01*
X169957150Y-93355693D01*
X170018686Y-93174414D01*
X170018687Y-93174409D01*
X170020542Y-93168945D01*
X170021370Y-93163236D01*
X170021371Y-93163231D01*
X170049137Y-92971727D01*
X170049670Y-92968053D01*
X170051190Y-92910000D01*
X170032616Y-92707859D01*
X170031048Y-92702299D01*
X169979083Y-92518046D01*
X169979082Y-92518044D01*
X169977515Y-92512487D01*
X169966936Y-92491033D01*
X169890289Y-92335609D01*
X169887734Y-92330428D01*
X169766278Y-92167779D01*
X169617216Y-92029987D01*
X169612333Y-92026906D01*
X169612329Y-92026903D01*
X169450422Y-91924748D01*
X169445539Y-91921667D01*
X169373572Y-91892955D01*
X169317713Y-91849134D01*
X169294413Y-91782069D01*
X169311069Y-91713054D01*
X169362394Y-91664000D01*
X169384056Y-91655239D01*
X169434210Y-91640192D01*
X169443800Y-91636433D01*
X169635053Y-91542739D01*
X169643903Y-91537464D01*
X169817286Y-91413792D01*
X169825158Y-91407139D01*
X169976010Y-91256812D01*
X169982688Y-91248965D01*
X170106961Y-91076020D01*
X170112271Y-91067183D01*
X170206628Y-90876267D01*
X170210427Y-90866672D01*
X170272335Y-90662910D01*
X170274513Y-90652837D01*
X170275944Y-90641962D01*
X170273733Y-90627778D01*
X170260575Y-90624000D01*
X167625183Y-90624000D01*
X167611652Y-90627973D01*
X167610215Y-90637966D01*
X164954658Y-90637966D01*
X164954658Y-77253613D01*
X164974660Y-77185492D01*
X164991563Y-77164518D01*
X167056527Y-75099554D01*
X167118839Y-75065528D01*
X167189654Y-75070593D01*
X167246490Y-75113140D01*
X167271301Y-75179660D01*
X167271622Y-75188649D01*
X167271622Y-87489746D01*
X167271143Y-87500728D01*
X167267945Y-87537281D01*
X167270799Y-87547932D01*
X167277440Y-87572719D01*
X167279818Y-87583448D01*
X167284274Y-87608717D01*
X167284276Y-87608722D01*
X167286190Y-87619578D01*
X167291703Y-87629125D01*
X167292782Y-87632091D01*
X167294116Y-87634952D01*
X167296970Y-87645604D01*
X167303293Y-87654634D01*
X167318014Y-87675658D01*
X167323919Y-87684928D01*
X167336748Y-87707149D01*
X167336751Y-87707153D01*
X167342262Y-87716698D01*
X167350709Y-87723786D01*
X167370367Y-87740281D01*
X167378471Y-87747707D01*
X167671915Y-88041151D01*
X167679341Y-88049255D01*
X167702924Y-88077360D01*
X167712469Y-88082871D01*
X167712473Y-88082874D01*
X167734702Y-88095707D01*
X167743963Y-88101607D01*
X167774018Y-88122651D01*
X167784663Y-88125504D01*
X167787535Y-88126843D01*
X167790501Y-88127922D01*
X167800044Y-88133432D01*
X167810896Y-88135346D01*
X167821258Y-88139117D01*
X167820394Y-88141491D01*
X167870008Y-88166081D01*
X167898940Y-88205887D01*
X167981335Y-88384616D01*
X168009409Y-88424340D01*
X168040629Y-88468515D01*
X168098491Y-88550389D01*
X168243896Y-88692035D01*
X168412678Y-88804812D01*
X168417981Y-88807090D01*
X168417984Y-88807092D01*
X168514912Y-88848735D01*
X168569605Y-88894003D01*
X168591142Y-88961654D01*
X168572685Y-89030210D01*
X168520094Y-89077904D01*
X168504319Y-89084268D01*
X168418826Y-89112212D01*
X168409317Y-89116209D01*
X168220421Y-89214542D01*
X168211696Y-89220036D01*
X168041391Y-89347905D01*
X168033684Y-89354748D01*
X167886548Y-89508717D01*
X167880062Y-89516727D01*
X167760056Y-89692649D01*
X167754958Y-89701623D01*
X167665296Y-89894783D01*
X167661733Y-89904470D01*
X167606347Y-90104183D01*
X167607870Y-90112607D01*
X167620250Y-90116000D01*
X170260302Y-90116000D01*
X170273833Y-90112027D01*
X170275138Y-90102947D01*
X170233172Y-89935875D01*
X170229852Y-89926124D01*
X170144930Y-89730814D01*
X170140063Y-89721739D01*
X170024384Y-89542926D01*
X170018094Y-89534757D01*
X169874764Y-89377240D01*
X169867231Y-89370215D01*
X169700097Y-89238222D01*
X169691510Y-89232517D01*
X169505075Y-89129599D01*
X169495663Y-89125369D01*
X169381349Y-89084888D01*
X169323813Y-89043294D01*
X169297897Y-88977196D01*
X169311831Y-88907580D01*
X169361190Y-88856549D01*
X169382901Y-88846804D01*
X169393123Y-88843334D01*
X169570234Y-88744147D01*
X169632892Y-88692035D01*
X169721871Y-88618031D01*
X169726303Y-88614345D01*
X169844360Y-88472398D01*
X169852411Y-88462718D01*
X169852413Y-88462715D01*
X169856105Y-88458276D01*
X169939027Y-88310208D01*
X169952468Y-88286208D01*
X169952469Y-88286206D01*
X169955292Y-88281165D01*
X169957148Y-88275698D01*
X169957150Y-88275693D01*
X170018686Y-88094414D01*
X170018687Y-88094409D01*
X170020542Y-88088945D01*
X170021370Y-88083236D01*
X170021371Y-88083231D01*
X170049137Y-87891727D01*
X170049670Y-87888053D01*
X170051190Y-87830000D01*
X170032616Y-87627859D01*
X170031048Y-87622299D01*
X169979083Y-87438046D01*
X169979082Y-87438044D01*
X169977515Y-87432487D01*
X169958218Y-87393355D01*
X169890289Y-87255609D01*
X169887734Y-87250428D01*
X169766278Y-87087779D01*
X169617216Y-86949987D01*
X169612333Y-86946906D01*
X169612329Y-86946903D01*
X169450422Y-86844748D01*
X169445539Y-86841667D01*
X169256997Y-86766446D01*
X169251337Y-86765320D01*
X169251333Y-86765319D01*
X169063571Y-86727971D01*
X169063568Y-86727971D01*
X169057904Y-86726844D01*
X169052129Y-86726768D01*
X169052125Y-86726768D01*
X168950751Y-86725441D01*
X168854929Y-86724187D01*
X168849232Y-86725166D01*
X168849231Y-86725166D01*
X168660565Y-86757585D01*
X168654868Y-86758564D01*
X168464421Y-86828824D01*
X168289968Y-86932612D01*
X168285628Y-86936418D01*
X168285624Y-86936421D01*
X168141691Y-87062648D01*
X168137350Y-87066455D01*
X168133776Y-87070989D01*
X168132573Y-87072515D01*
X168131821Y-87073049D01*
X168129798Y-87075181D01*
X168129379Y-87074784D01*
X168074692Y-87113629D01*
X168003772Y-87116923D01*
X167942329Y-87081352D01*
X167909871Y-87018210D01*
X167907622Y-86994510D01*
X167907622Y-86123099D01*
X167927624Y-86054978D01*
X167981280Y-86008485D01*
X168051554Y-85998381D01*
X168116134Y-86027875D01*
X168121542Y-86032844D01*
X168243896Y-86152035D01*
X168412678Y-86264812D01*
X168417981Y-86267090D01*
X168417984Y-86267092D01*
X168506665Y-86305192D01*
X168599186Y-86344942D01*
X168672202Y-86361464D01*
X168791537Y-86388467D01*
X168791542Y-86388468D01*
X168797174Y-86389742D01*
X168802945Y-86389969D01*
X168802947Y-86389969D01*
X168862714Y-86392317D01*
X169000011Y-86397712D01*
X169100457Y-86383148D01*
X169195189Y-86369413D01*
X169195194Y-86369412D01*
X169200903Y-86368584D01*
X169206367Y-86366729D01*
X169206372Y-86366728D01*
X169387651Y-86305192D01*
X169387656Y-86305190D01*
X169393123Y-86303334D01*
X169570234Y-86204147D01*
X169632892Y-86152035D01*
X169721871Y-86078031D01*
X169726303Y-86074345D01*
X169844360Y-85932398D01*
X169852411Y-85922718D01*
X169852413Y-85922715D01*
X169856105Y-85918276D01*
X169955292Y-85741165D01*
X169957148Y-85735698D01*
X169957150Y-85735693D01*
X170018686Y-85554414D01*
X170018687Y-85554409D01*
X170020542Y-85548945D01*
X170021370Y-85543236D01*
X170021371Y-85543231D01*
X170049137Y-85351727D01*
X170049670Y-85348053D01*
X170051190Y-85290000D01*
X170039282Y-85160409D01*
X170033145Y-85093613D01*
X170033144Y-85093610D01*
X170032616Y-85087859D01*
X170018634Y-85038284D01*
X169979083Y-84898046D01*
X169979082Y-84898044D01*
X169977515Y-84892487D01*
X169974962Y-84887311D01*
X169974959Y-84887302D01*
X169955251Y-84847338D01*
X169943061Y-84777396D01*
X169970621Y-84711967D01*
X169979162Y-84702516D01*
X170467783Y-84213895D01*
X170475887Y-84206469D01*
X170495545Y-84189974D01*
X170503992Y-84182886D01*
X170509503Y-84173341D01*
X170509506Y-84173337D01*
X170522335Y-84151116D01*
X170528240Y-84141846D01*
X170542961Y-84120822D01*
X170549284Y-84111792D01*
X170552138Y-84101140D01*
X170553472Y-84098279D01*
X170554551Y-84095313D01*
X170560064Y-84085766D01*
X170561978Y-84074910D01*
X170561980Y-84074905D01*
X170566436Y-84049636D01*
X170568814Y-84038907D01*
X170575457Y-84014114D01*
X170575457Y-84014112D01*
X170578309Y-84003469D01*
X170575111Y-83966910D01*
X170574632Y-83955932D01*
X170574632Y-75120434D01*
X170594634Y-75052313D01*
X170648290Y-75005820D01*
X170700632Y-74994434D01*
X170723167Y-74994434D01*
X170832359Y-74954691D01*
X170870759Y-74925226D01*
X171031425Y-74764560D01*
X171060890Y-74726160D01*
X171066011Y-74712092D01*
X171074157Y-74689710D01*
X171116252Y-74632538D01*
X171149462Y-74614404D01*
X171176851Y-74604435D01*
X171185912Y-74601137D01*
X171224312Y-74571672D01*
X171344244Y-74451740D01*
X171406556Y-74417715D01*
X171477372Y-74422781D01*
G37*
%TD.AperFunction*%
%TA.AperFunction,Conductor*%
G36*
X173371512Y-92769646D02*
G01*
X173378095Y-92775775D01*
X175672574Y-95070254D01*
X175706600Y-95132566D01*
X175703313Y-95198283D01*
X175679569Y-95271361D01*
X175660793Y-95450000D01*
X175679569Y-95628639D01*
X175735075Y-95799471D01*
X175738378Y-95805193D01*
X175738379Y-95805194D01*
X175749119Y-95823796D01*
X175824887Y-95955029D01*
X175945078Y-96088515D01*
X176090396Y-96194095D01*
X176096424Y-96196779D01*
X176096426Y-96196780D01*
X176248459Y-96264469D01*
X176254490Y-96267154D01*
X176342339Y-96285827D01*
X176423731Y-96303128D01*
X176423736Y-96303128D01*
X176430188Y-96304500D01*
X176609812Y-96304500D01*
X176616264Y-96303128D01*
X176616269Y-96303128D01*
X176697661Y-96285827D01*
X176785510Y-96267154D01*
X176791541Y-96264469D01*
X176943574Y-96196780D01*
X176943576Y-96196779D01*
X176949604Y-96194095D01*
X177094922Y-96088515D01*
X177215113Y-95955029D01*
X177290881Y-95823796D01*
X177301624Y-95805189D01*
X177301625Y-95805187D01*
X177304925Y-95799471D01*
X177305800Y-95796778D01*
X177350874Y-95743749D01*
X177418802Y-95723100D01*
X177487110Y-95742453D01*
X177534111Y-95795664D01*
X177546000Y-95849094D01*
X177546000Y-97590906D01*
X177525998Y-97659027D01*
X177472342Y-97705520D01*
X177402068Y-97715624D01*
X177337488Y-97686130D01*
X177305890Y-97643500D01*
X177304925Y-97640529D01*
X177215113Y-97484971D01*
X177094922Y-97351485D01*
X176955311Y-97250051D01*
X176954946Y-97249786D01*
X176954945Y-97249785D01*
X176949604Y-97245905D01*
X176943576Y-97243221D01*
X176943574Y-97243220D01*
X176791541Y-97175531D01*
X176791540Y-97175531D01*
X176785510Y-97172846D01*
X176697661Y-97154173D01*
X176616269Y-97136872D01*
X176616264Y-97136872D01*
X176609812Y-97135500D01*
X176430188Y-97135500D01*
X176423736Y-97136872D01*
X176423731Y-97136872D01*
X176260944Y-97171474D01*
X176260943Y-97171474D01*
X176254490Y-97172846D01*
X176250653Y-97174554D01*
X176180574Y-97176556D01*
X176123511Y-97143791D01*
X173199905Y-94220185D01*
X173165879Y-94157873D01*
X173163000Y-94131090D01*
X173163000Y-92864870D01*
X173183002Y-92796749D01*
X173236658Y-92750256D01*
X173306932Y-92740152D01*
X173371512Y-92769646D01*
G37*
%TD.AperFunction*%
%TA.AperFunction,Conductor*%
G36*
X173697475Y-90555609D02*
G01*
X173704058Y-90561738D01*
X175672574Y-92530254D01*
X175706600Y-92592566D01*
X175703313Y-92658283D01*
X175679569Y-92731361D01*
X175660793Y-92910000D01*
X175679569Y-93088639D01*
X175681609Y-93094917D01*
X175681609Y-93094918D01*
X175707439Y-93174414D01*
X175735075Y-93259471D01*
X175738378Y-93265193D01*
X175738379Y-93265194D01*
X175747083Y-93280269D01*
X175824887Y-93415029D01*
X175829305Y-93419936D01*
X175829306Y-93419937D01*
X175931316Y-93533231D01*
X175945078Y-93548515D01*
X175950420Y-93552396D01*
X175950422Y-93552398D01*
X176063321Y-93634424D01*
X176090396Y-93654095D01*
X176096424Y-93656779D01*
X176096426Y-93656780D01*
X176180799Y-93694345D01*
X176254490Y-93727154D01*
X176342339Y-93745827D01*
X176423731Y-93763128D01*
X176423736Y-93763128D01*
X176430188Y-93764500D01*
X176609812Y-93764500D01*
X176616264Y-93763128D01*
X176616269Y-93763128D01*
X176697661Y-93745827D01*
X176785510Y-93727154D01*
X176859201Y-93694345D01*
X176943574Y-93656780D01*
X176943576Y-93656779D01*
X176949604Y-93654095D01*
X176976679Y-93634424D01*
X177089578Y-93552398D01*
X177089580Y-93552396D01*
X177094922Y-93548515D01*
X177108684Y-93533231D01*
X177210694Y-93419937D01*
X177210695Y-93419936D01*
X177215113Y-93415029D01*
X177292917Y-93280269D01*
X177301624Y-93265189D01*
X177301625Y-93265187D01*
X177304925Y-93259471D01*
X177305800Y-93256778D01*
X177350874Y-93203749D01*
X177418802Y-93183100D01*
X177487110Y-93202453D01*
X177534111Y-93255664D01*
X177546000Y-93309094D01*
X177546000Y-95050906D01*
X177525998Y-95119027D01*
X177472342Y-95165520D01*
X177402068Y-95175624D01*
X177337488Y-95146130D01*
X177305890Y-95103500D01*
X177304925Y-95100529D01*
X177215113Y-94944971D01*
X177094922Y-94811485D01*
X176949604Y-94705905D01*
X176943576Y-94703221D01*
X176943574Y-94703220D01*
X176791541Y-94635531D01*
X176791540Y-94635531D01*
X176785510Y-94632846D01*
X176697661Y-94614173D01*
X176616269Y-94596872D01*
X176616264Y-94596872D01*
X176609812Y-94595500D01*
X176430188Y-94595500D01*
X176423736Y-94596872D01*
X176423731Y-94596872D01*
X176254490Y-94632846D01*
X176253978Y-94630436D01*
X176194161Y-94632161D01*
X176137067Y-94599387D01*
X173525868Y-91988188D01*
X173491842Y-91925876D01*
X173488963Y-91899093D01*
X173488963Y-90650833D01*
X173508965Y-90582712D01*
X173562621Y-90536219D01*
X173632895Y-90526115D01*
X173697475Y-90555609D01*
G37*
%TD.AperFunction*%
%TA.AperFunction,Conductor*%
G36*
X164211290Y-90550556D02*
G01*
X164268126Y-90593103D01*
X164292937Y-90659623D01*
X164293258Y-90668612D01*
X164293258Y-91916871D01*
X164273256Y-91984992D01*
X164256353Y-92005966D01*
X161662933Y-94599386D01*
X161600621Y-94633412D01*
X161545970Y-94630683D01*
X161545510Y-94632846D01*
X161376269Y-94596872D01*
X161376264Y-94596872D01*
X161369812Y-94595500D01*
X161190188Y-94595500D01*
X161183736Y-94596872D01*
X161183731Y-94596872D01*
X161102339Y-94614173D01*
X161014490Y-94632846D01*
X161008460Y-94635531D01*
X161008459Y-94635531D01*
X160856427Y-94703220D01*
X160856425Y-94703221D01*
X160850397Y-94705905D01*
X160845056Y-94709785D01*
X160845055Y-94709786D01*
X160710422Y-94807602D01*
X160710420Y-94807604D01*
X160705078Y-94811485D01*
X160584887Y-94944971D01*
X160581588Y-94950684D01*
X160581585Y-94950689D01*
X160509119Y-95076204D01*
X160457736Y-95125197D01*
X160388023Y-95138633D01*
X160322112Y-95112246D01*
X160280930Y-95054414D01*
X160274000Y-95013204D01*
X160274000Y-93346796D01*
X160294002Y-93278675D01*
X160347658Y-93232182D01*
X160417932Y-93222078D01*
X160482512Y-93251572D01*
X160509119Y-93283796D01*
X160581585Y-93409311D01*
X160581588Y-93409316D01*
X160584887Y-93415029D01*
X160589305Y-93419936D01*
X160589306Y-93419937D01*
X160691316Y-93533231D01*
X160705078Y-93548515D01*
X160710420Y-93552396D01*
X160710422Y-93552398D01*
X160823321Y-93634424D01*
X160850396Y-93654095D01*
X160856424Y-93656779D01*
X160856426Y-93656780D01*
X160940799Y-93694345D01*
X161014490Y-93727154D01*
X161102339Y-93745827D01*
X161183731Y-93763128D01*
X161183736Y-93763128D01*
X161190188Y-93764500D01*
X161369812Y-93764500D01*
X161376264Y-93763128D01*
X161376269Y-93763128D01*
X161457661Y-93745827D01*
X161545510Y-93727154D01*
X161619201Y-93694345D01*
X161703574Y-93656780D01*
X161703576Y-93656779D01*
X161709604Y-93654095D01*
X161736679Y-93634424D01*
X161849578Y-93552398D01*
X161849580Y-93552396D01*
X161854922Y-93548515D01*
X161868684Y-93533231D01*
X161970694Y-93419937D01*
X161970695Y-93419936D01*
X161975113Y-93415029D01*
X162052917Y-93280269D01*
X162061621Y-93265194D01*
X162061622Y-93265193D01*
X162064925Y-93259471D01*
X162092562Y-93174414D01*
X162118391Y-93094918D01*
X162118391Y-93094917D01*
X162120431Y-93088639D01*
X162139207Y-92910000D01*
X162120431Y-92731361D01*
X162096687Y-92658283D01*
X162094661Y-92587316D01*
X162127426Y-92530254D01*
X164078163Y-90579517D01*
X164140475Y-90545491D01*
X164211290Y-90550556D01*
G37*
%TD.AperFunction*%
%TA.AperFunction,Conductor*%
G36*
X173976886Y-88295020D02*
G01*
X173983469Y-88301149D01*
X175672574Y-89990254D01*
X175706600Y-90052566D01*
X175703313Y-90118283D01*
X175679569Y-90191361D01*
X175660793Y-90370000D01*
X175679569Y-90548639D01*
X175681609Y-90554917D01*
X175681609Y-90554918D01*
X175713425Y-90652837D01*
X175735075Y-90719471D01*
X175738378Y-90725193D01*
X175738379Y-90725194D01*
X175749119Y-90743796D01*
X175824887Y-90875029D01*
X175829305Y-90879936D01*
X175829306Y-90879937D01*
X175927321Y-90988794D01*
X175945078Y-91008515D01*
X176090396Y-91114095D01*
X176096424Y-91116779D01*
X176096426Y-91116780D01*
X176248459Y-91184469D01*
X176254490Y-91187154D01*
X176342339Y-91205827D01*
X176423731Y-91223128D01*
X176423736Y-91223128D01*
X176430188Y-91224500D01*
X176609812Y-91224500D01*
X176616264Y-91223128D01*
X176616269Y-91223128D01*
X176697661Y-91205827D01*
X176785510Y-91187154D01*
X176791541Y-91184469D01*
X176943574Y-91116780D01*
X176943576Y-91116779D01*
X176949604Y-91114095D01*
X177094922Y-91008515D01*
X177112679Y-90988794D01*
X177210694Y-90879937D01*
X177210695Y-90879936D01*
X177215113Y-90875029D01*
X177290881Y-90743796D01*
X177301624Y-90725189D01*
X177301625Y-90725187D01*
X177304925Y-90719471D01*
X177305800Y-90716778D01*
X177350874Y-90663749D01*
X177418802Y-90643100D01*
X177487110Y-90662453D01*
X177534111Y-90715664D01*
X177546000Y-90769094D01*
X177546000Y-92510906D01*
X177525998Y-92579027D01*
X177472342Y-92625520D01*
X177402068Y-92635624D01*
X177337488Y-92606130D01*
X177305890Y-92563500D01*
X177304925Y-92560529D01*
X177215113Y-92404971D01*
X177147995Y-92330428D01*
X177099344Y-92276396D01*
X177099343Y-92276395D01*
X177094922Y-92271485D01*
X177074975Y-92256992D01*
X176954946Y-92169786D01*
X176954945Y-92169785D01*
X176949604Y-92165905D01*
X176943576Y-92163221D01*
X176943574Y-92163220D01*
X176791541Y-92095531D01*
X176791540Y-92095531D01*
X176785510Y-92092846D01*
X176697661Y-92074173D01*
X176616269Y-92056872D01*
X176616264Y-92056872D01*
X176609812Y-92055500D01*
X176430188Y-92055500D01*
X176423736Y-92056872D01*
X176423731Y-92056872D01*
X176254490Y-92092846D01*
X176253978Y-92090436D01*
X176194161Y-92092161D01*
X176137067Y-92059387D01*
X173805279Y-89727599D01*
X173771253Y-89665287D01*
X173768374Y-89638504D01*
X173768374Y-88390244D01*
X173788376Y-88322123D01*
X173842032Y-88275630D01*
X173912306Y-88265526D01*
X173976886Y-88295020D01*
G37*
%TD.AperFunction*%
%TA.AperFunction,Conductor*%
G36*
X163906573Y-88315273D02*
G01*
X163963409Y-88357820D01*
X163988220Y-88424340D01*
X163988541Y-88433329D01*
X163988541Y-89681589D01*
X163968539Y-89749710D01*
X163951636Y-89770684D01*
X161662933Y-92059387D01*
X161600621Y-92093413D01*
X161545972Y-92090672D01*
X161545510Y-92092846D01*
X161376269Y-92056872D01*
X161376264Y-92056872D01*
X161369812Y-92055500D01*
X161190188Y-92055500D01*
X161183736Y-92056872D01*
X161183731Y-92056872D01*
X161102339Y-92074173D01*
X161014490Y-92092846D01*
X161008460Y-92095531D01*
X161008459Y-92095531D01*
X160856427Y-92163220D01*
X160856425Y-92163221D01*
X160850397Y-92165905D01*
X160845056Y-92169785D01*
X160845055Y-92169786D01*
X160710422Y-92267602D01*
X160710420Y-92267604D01*
X160705078Y-92271485D01*
X160700657Y-92276395D01*
X160700656Y-92276396D01*
X160652006Y-92330428D01*
X160584887Y-92404971D01*
X160581588Y-92410684D01*
X160581585Y-92410689D01*
X160509119Y-92536204D01*
X160457736Y-92585197D01*
X160388023Y-92598633D01*
X160322112Y-92572246D01*
X160280930Y-92514414D01*
X160274000Y-92473204D01*
X160274000Y-90806796D01*
X160294002Y-90738675D01*
X160347658Y-90692182D01*
X160417932Y-90682078D01*
X160482512Y-90711572D01*
X160509119Y-90743796D01*
X160581585Y-90869311D01*
X160581588Y-90869316D01*
X160584887Y-90875029D01*
X160589305Y-90879936D01*
X160589306Y-90879937D01*
X160687321Y-90988794D01*
X160705078Y-91008515D01*
X160850396Y-91114095D01*
X160856424Y-91116779D01*
X160856426Y-91116780D01*
X161008459Y-91184469D01*
X161014490Y-91187154D01*
X161102339Y-91205827D01*
X161183731Y-91223128D01*
X161183736Y-91223128D01*
X161190188Y-91224500D01*
X161369812Y-91224500D01*
X161376264Y-91223128D01*
X161376269Y-91223128D01*
X161457661Y-91205827D01*
X161545510Y-91187154D01*
X161551541Y-91184469D01*
X161703574Y-91116780D01*
X161703576Y-91116779D01*
X161709604Y-91114095D01*
X161854922Y-91008515D01*
X161872679Y-90988794D01*
X161970694Y-90879937D01*
X161970695Y-90879936D01*
X161975113Y-90875029D01*
X162050881Y-90743796D01*
X162061621Y-90725194D01*
X162061622Y-90725193D01*
X162064925Y-90719471D01*
X162086576Y-90652837D01*
X162118391Y-90554918D01*
X162118391Y-90554917D01*
X162120431Y-90548639D01*
X162139207Y-90370000D01*
X162120431Y-90191361D01*
X162096687Y-90118283D01*
X162094661Y-90047316D01*
X162127426Y-89990254D01*
X163773446Y-88344234D01*
X163835758Y-88310208D01*
X163906573Y-88315273D01*
G37*
%TD.AperFunction*%
%TA.AperFunction,Conductor*%
G36*
X174256295Y-86034429D02*
G01*
X174262878Y-86040558D01*
X175672574Y-87450254D01*
X175706600Y-87512566D01*
X175703313Y-87578283D01*
X175679569Y-87651361D01*
X175678879Y-87657924D01*
X175678879Y-87657925D01*
X175676041Y-87684928D01*
X175660793Y-87830000D01*
X175679569Y-88008639D01*
X175681609Y-88014917D01*
X175681609Y-88014918D01*
X175722735Y-88141491D01*
X175735075Y-88179471D01*
X175738378Y-88185193D01*
X175738379Y-88185194D01*
X175747083Y-88200269D01*
X175824887Y-88335029D01*
X175829305Y-88339936D01*
X175829306Y-88339937D01*
X175874603Y-88390244D01*
X175945078Y-88468515D01*
X175950420Y-88472396D01*
X175950422Y-88472398D01*
X176063321Y-88554424D01*
X176090396Y-88574095D01*
X176096424Y-88576779D01*
X176096426Y-88576780D01*
X176180799Y-88614345D01*
X176254490Y-88647154D01*
X176342339Y-88665827D01*
X176423731Y-88683128D01*
X176423736Y-88683128D01*
X176430188Y-88684500D01*
X176609812Y-88684500D01*
X176616264Y-88683128D01*
X176616269Y-88683128D01*
X176697661Y-88665827D01*
X176785510Y-88647154D01*
X176859201Y-88614345D01*
X176943574Y-88576780D01*
X176943576Y-88576779D01*
X176949604Y-88574095D01*
X176976679Y-88554424D01*
X177089578Y-88472398D01*
X177089580Y-88472396D01*
X177094922Y-88468515D01*
X177165397Y-88390244D01*
X177210694Y-88339937D01*
X177210695Y-88339936D01*
X177215113Y-88335029D01*
X177292917Y-88200269D01*
X177301624Y-88185189D01*
X177301625Y-88185187D01*
X177304925Y-88179471D01*
X177305800Y-88176778D01*
X177350874Y-88123749D01*
X177418802Y-88103100D01*
X177487110Y-88122453D01*
X177534111Y-88175664D01*
X177546000Y-88229094D01*
X177546000Y-89970906D01*
X177525998Y-90039027D01*
X177472342Y-90085520D01*
X177402068Y-90095624D01*
X177337488Y-90066130D01*
X177305890Y-90023500D01*
X177304925Y-90020529D01*
X177215113Y-89864971D01*
X177094922Y-89731485D01*
X177089574Y-89727599D01*
X176954946Y-89629786D01*
X176954945Y-89629785D01*
X176949604Y-89625905D01*
X176943576Y-89623221D01*
X176943574Y-89623220D01*
X176791541Y-89555531D01*
X176791540Y-89555531D01*
X176785510Y-89552846D01*
X176697661Y-89534173D01*
X176616269Y-89516872D01*
X176616264Y-89516872D01*
X176609812Y-89515500D01*
X176430188Y-89515500D01*
X176423736Y-89516872D01*
X176423731Y-89516872D01*
X176254490Y-89552846D01*
X176253978Y-89550436D01*
X176194161Y-89552161D01*
X176137067Y-89519387D01*
X174084688Y-87467008D01*
X174050662Y-87404696D01*
X174047783Y-87377913D01*
X174047783Y-86129653D01*
X174067785Y-86061532D01*
X174121441Y-86015039D01*
X174191715Y-86004935D01*
X174256295Y-86034429D01*
G37*
%TD.AperFunction*%
%TA.AperFunction,Conductor*%
G36*
X163627163Y-86054683D02*
G01*
X163683999Y-86097230D01*
X163708810Y-86163750D01*
X163709131Y-86172739D01*
X163709131Y-87420999D01*
X163689129Y-87489120D01*
X163672226Y-87510094D01*
X161662933Y-89519387D01*
X161600621Y-89553413D01*
X161545972Y-89550672D01*
X161545510Y-89552846D01*
X161376269Y-89516872D01*
X161376264Y-89516872D01*
X161369812Y-89515500D01*
X161190188Y-89515500D01*
X161183736Y-89516872D01*
X161183731Y-89516872D01*
X161102339Y-89534173D01*
X161014490Y-89552846D01*
X161008460Y-89555531D01*
X161008459Y-89555531D01*
X160856427Y-89623220D01*
X160856425Y-89623221D01*
X160850397Y-89625905D01*
X160845056Y-89629785D01*
X160845055Y-89629786D01*
X160710422Y-89727602D01*
X160710420Y-89727604D01*
X160705078Y-89731485D01*
X160584887Y-89864971D01*
X160581588Y-89870684D01*
X160581585Y-89870689D01*
X160509119Y-89996204D01*
X160457736Y-90045197D01*
X160388023Y-90058633D01*
X160322112Y-90032246D01*
X160280930Y-89974414D01*
X160274000Y-89933204D01*
X160274000Y-88266796D01*
X160294002Y-88198675D01*
X160347658Y-88152182D01*
X160417932Y-88142078D01*
X160482512Y-88171572D01*
X160509119Y-88203796D01*
X160581585Y-88329311D01*
X160581588Y-88329316D01*
X160584887Y-88335029D01*
X160589305Y-88339936D01*
X160589306Y-88339937D01*
X160634603Y-88390244D01*
X160705078Y-88468515D01*
X160710420Y-88472396D01*
X160710422Y-88472398D01*
X160823321Y-88554424D01*
X160850396Y-88574095D01*
X160856424Y-88576779D01*
X160856426Y-88576780D01*
X160940799Y-88614345D01*
X161014490Y-88647154D01*
X161102339Y-88665827D01*
X161183731Y-88683128D01*
X161183736Y-88683128D01*
X161190188Y-88684500D01*
X161369812Y-88684500D01*
X161376264Y-88683128D01*
X161376269Y-88683128D01*
X161457661Y-88665827D01*
X161545510Y-88647154D01*
X161619201Y-88614345D01*
X161703574Y-88576780D01*
X161703576Y-88576779D01*
X161709604Y-88574095D01*
X161736679Y-88554424D01*
X161849578Y-88472398D01*
X161849580Y-88472396D01*
X161854922Y-88468515D01*
X161925397Y-88390244D01*
X161970694Y-88339937D01*
X161970695Y-88339936D01*
X161975113Y-88335029D01*
X162052917Y-88200269D01*
X162061621Y-88185194D01*
X162061622Y-88185193D01*
X162064925Y-88179471D01*
X162077266Y-88141491D01*
X162118391Y-88014918D01*
X162118391Y-88014917D01*
X162120431Y-88008639D01*
X162139207Y-87830000D01*
X162123959Y-87684928D01*
X162121121Y-87657925D01*
X162121121Y-87657924D01*
X162120431Y-87651361D01*
X162096687Y-87578283D01*
X162094661Y-87507316D01*
X162127426Y-87450254D01*
X163494036Y-86083644D01*
X163556348Y-86049618D01*
X163627163Y-86054683D01*
G37*
%TD.AperFunction*%
%TA.AperFunction,Conductor*%
G36*
X174535706Y-83773840D02*
G01*
X174542287Y-83779967D01*
X175151976Y-84389657D01*
X175672574Y-84910255D01*
X175706600Y-84972567D01*
X175703312Y-85038285D01*
X175681610Y-85105079D01*
X175679569Y-85111361D01*
X175660793Y-85290000D01*
X175679569Y-85468639D01*
X175681609Y-85474917D01*
X175681609Y-85474918D01*
X175707439Y-85554414D01*
X175735075Y-85639471D01*
X175738378Y-85645193D01*
X175738379Y-85645194D01*
X175749119Y-85663796D01*
X175824887Y-85795029D01*
X175829305Y-85799936D01*
X175829306Y-85799937D01*
X175931316Y-85913231D01*
X175945078Y-85928515D01*
X175950420Y-85932396D01*
X175950422Y-85932398D01*
X176081835Y-86027875D01*
X176090396Y-86034095D01*
X176096424Y-86036779D01*
X176096426Y-86036780D01*
X176180799Y-86074345D01*
X176254490Y-86107154D01*
X176329505Y-86123099D01*
X176423731Y-86143128D01*
X176423736Y-86143128D01*
X176430188Y-86144500D01*
X176609812Y-86144500D01*
X176616264Y-86143128D01*
X176616269Y-86143128D01*
X176710495Y-86123099D01*
X176785510Y-86107154D01*
X176859201Y-86074345D01*
X176943574Y-86036780D01*
X176943576Y-86036779D01*
X176949604Y-86034095D01*
X176958165Y-86027875D01*
X177089578Y-85932398D01*
X177089580Y-85932396D01*
X177094922Y-85928515D01*
X177108684Y-85913231D01*
X177210694Y-85799937D01*
X177210695Y-85799936D01*
X177215113Y-85795029D01*
X177290881Y-85663796D01*
X177301624Y-85645189D01*
X177301625Y-85645187D01*
X177304925Y-85639471D01*
X177305800Y-85636778D01*
X177350874Y-85583749D01*
X177418802Y-85563100D01*
X177487110Y-85582453D01*
X177534111Y-85635664D01*
X177546000Y-85689094D01*
X177546000Y-87430906D01*
X177525998Y-87499027D01*
X177472342Y-87545520D01*
X177402068Y-87555624D01*
X177337488Y-87526130D01*
X177305890Y-87483500D01*
X177304925Y-87480529D01*
X177300688Y-87473189D01*
X177218414Y-87330689D01*
X177215113Y-87324971D01*
X177147995Y-87250428D01*
X177099344Y-87196396D01*
X177099343Y-87196395D01*
X177094922Y-87191485D01*
X176992297Y-87116923D01*
X176954946Y-87089786D01*
X176954945Y-87089785D01*
X176949604Y-87085905D01*
X176943576Y-87083221D01*
X176943574Y-87083220D01*
X176791541Y-87015531D01*
X176791540Y-87015531D01*
X176785510Y-87012846D01*
X176697661Y-86994173D01*
X176616269Y-86976872D01*
X176616264Y-86976872D01*
X176609812Y-86975500D01*
X176430188Y-86975500D01*
X176423736Y-86976872D01*
X176423731Y-86976872D01*
X176254490Y-87012846D01*
X176253978Y-87010436D01*
X176194161Y-87012161D01*
X176137067Y-86979387D01*
X174364099Y-85206419D01*
X174330073Y-85144107D01*
X174327194Y-85117324D01*
X174327194Y-83869064D01*
X174347196Y-83800943D01*
X174400852Y-83754450D01*
X174471126Y-83744346D01*
X174535706Y-83773840D01*
G37*
%TD.AperFunction*%
%TA.AperFunction,Conductor*%
G36*
X163347754Y-83794094D02*
G01*
X163404589Y-83836641D01*
X163429400Y-83903161D01*
X163429721Y-83912150D01*
X163429721Y-85160409D01*
X163409719Y-85228530D01*
X163392816Y-85249504D01*
X161662933Y-86979387D01*
X161600621Y-87013413D01*
X161545972Y-87010672D01*
X161545510Y-87012846D01*
X161376269Y-86976872D01*
X161376264Y-86976872D01*
X161369812Y-86975500D01*
X161190188Y-86975500D01*
X161183736Y-86976872D01*
X161183731Y-86976872D01*
X161102339Y-86994173D01*
X161014490Y-87012846D01*
X161008460Y-87015531D01*
X161008459Y-87015531D01*
X160856427Y-87083220D01*
X160856425Y-87083221D01*
X160850397Y-87085905D01*
X160845056Y-87089785D01*
X160845055Y-87089786D01*
X160710422Y-87187602D01*
X160710420Y-87187604D01*
X160705078Y-87191485D01*
X160700657Y-87196395D01*
X160700656Y-87196396D01*
X160652006Y-87250428D01*
X160584887Y-87324971D01*
X160581588Y-87330684D01*
X160581585Y-87330689D01*
X160509119Y-87456204D01*
X160457736Y-87505197D01*
X160388023Y-87518633D01*
X160322112Y-87492246D01*
X160280930Y-87434414D01*
X160274000Y-87393204D01*
X160274000Y-85726796D01*
X160294002Y-85658675D01*
X160347658Y-85612182D01*
X160417932Y-85602078D01*
X160482512Y-85631572D01*
X160509119Y-85663796D01*
X160581585Y-85789311D01*
X160581588Y-85789316D01*
X160584887Y-85795029D01*
X160589305Y-85799936D01*
X160589306Y-85799937D01*
X160691316Y-85913231D01*
X160705078Y-85928515D01*
X160710420Y-85932396D01*
X160710422Y-85932398D01*
X160841835Y-86027875D01*
X160850396Y-86034095D01*
X160856424Y-86036779D01*
X160856426Y-86036780D01*
X160940799Y-86074345D01*
X161014490Y-86107154D01*
X161089505Y-86123099D01*
X161183731Y-86143128D01*
X161183736Y-86143128D01*
X161190188Y-86144500D01*
X161369812Y-86144500D01*
X161376264Y-86143128D01*
X161376269Y-86143128D01*
X161470495Y-86123099D01*
X161545510Y-86107154D01*
X161619201Y-86074345D01*
X161703574Y-86036780D01*
X161703576Y-86036779D01*
X161709604Y-86034095D01*
X161718165Y-86027875D01*
X161849578Y-85932398D01*
X161849580Y-85932396D01*
X161854922Y-85928515D01*
X161868684Y-85913231D01*
X161970694Y-85799937D01*
X161970695Y-85799936D01*
X161975113Y-85795029D01*
X162050881Y-85663796D01*
X162061621Y-85645194D01*
X162061622Y-85645193D01*
X162064925Y-85639471D01*
X162092562Y-85554414D01*
X162118391Y-85474918D01*
X162118391Y-85474917D01*
X162120431Y-85468639D01*
X162139207Y-85290000D01*
X162120431Y-85111361D01*
X162096687Y-85038283D01*
X162094661Y-84967316D01*
X162127426Y-84910254D01*
X163214626Y-83823055D01*
X163276938Y-83789029D01*
X163347754Y-83794094D01*
G37*
%TD.AperFunction*%
%TA.AperFunction,Conductor*%
G36*
X174815117Y-81513251D02*
G01*
X174821684Y-81519364D01*
X175672576Y-82370257D01*
X175706600Y-82432567D01*
X175703312Y-82498285D01*
X175681610Y-82565079D01*
X175679569Y-82571361D01*
X175660793Y-82750000D01*
X175661483Y-82756565D01*
X175674827Y-82883518D01*
X175679569Y-82928639D01*
X175681609Y-82934917D01*
X175681609Y-82934918D01*
X175685155Y-82945830D01*
X175735075Y-83099471D01*
X175738378Y-83105193D01*
X175738379Y-83105194D01*
X175749119Y-83123796D01*
X175824887Y-83255029D01*
X175945078Y-83388515D01*
X175950420Y-83392396D01*
X175950422Y-83392398D01*
X176081835Y-83487875D01*
X176090396Y-83494095D01*
X176096424Y-83496779D01*
X176096426Y-83496780D01*
X176185336Y-83536365D01*
X176254490Y-83567154D01*
X176329505Y-83583099D01*
X176423731Y-83603128D01*
X176423736Y-83603128D01*
X176430188Y-83604500D01*
X176609812Y-83604500D01*
X176616264Y-83603128D01*
X176616269Y-83603128D01*
X176710495Y-83583099D01*
X176785510Y-83567154D01*
X176854664Y-83536365D01*
X176943574Y-83496780D01*
X176943576Y-83496779D01*
X176949604Y-83494095D01*
X176958165Y-83487875D01*
X177089578Y-83392398D01*
X177089580Y-83392396D01*
X177094922Y-83388515D01*
X177215113Y-83255029D01*
X177290881Y-83123796D01*
X177301624Y-83105189D01*
X177301625Y-83105187D01*
X177304925Y-83099471D01*
X177305800Y-83096778D01*
X177350874Y-83043749D01*
X177418802Y-83023100D01*
X177487110Y-83042453D01*
X177534111Y-83095664D01*
X177546000Y-83149094D01*
X177546000Y-84890906D01*
X177525998Y-84959027D01*
X177472342Y-85005520D01*
X177402068Y-85015624D01*
X177337488Y-84986130D01*
X177305890Y-84943500D01*
X177304925Y-84940529D01*
X177215113Y-84784971D01*
X177208293Y-84777396D01*
X177099344Y-84656396D01*
X177099343Y-84656395D01*
X177094922Y-84651485D01*
X176992297Y-84576923D01*
X176954946Y-84549786D01*
X176954945Y-84549785D01*
X176949604Y-84545905D01*
X176943576Y-84543221D01*
X176943574Y-84543220D01*
X176791541Y-84475531D01*
X176791540Y-84475531D01*
X176785510Y-84472846D01*
X176697661Y-84454173D01*
X176616269Y-84436872D01*
X176616264Y-84436872D01*
X176609812Y-84435500D01*
X176430188Y-84435500D01*
X176423736Y-84436872D01*
X176423731Y-84436872D01*
X176254490Y-84472846D01*
X176253980Y-84470446D01*
X176194110Y-84472146D01*
X176137067Y-84439386D01*
X174643510Y-82945830D01*
X174609485Y-82883518D01*
X174606605Y-82856735D01*
X174606605Y-81608475D01*
X174626607Y-81540354D01*
X174680263Y-81493861D01*
X174750537Y-81483757D01*
X174815117Y-81513251D01*
G37*
%TD.AperFunction*%
%TA.AperFunction,Conductor*%
G36*
X163068343Y-81533503D02*
G01*
X163125179Y-81576050D01*
X163149990Y-81642570D01*
X163150311Y-81651559D01*
X163150311Y-82899818D01*
X163130309Y-82967939D01*
X163113406Y-82988913D01*
X161662933Y-84439386D01*
X161600621Y-84473412D01*
X161545970Y-84470683D01*
X161545510Y-84472846D01*
X161376269Y-84436872D01*
X161376264Y-84436872D01*
X161369812Y-84435500D01*
X161190188Y-84435500D01*
X161183736Y-84436872D01*
X161183731Y-84436872D01*
X161102339Y-84454173D01*
X161014490Y-84472846D01*
X161008460Y-84475531D01*
X161008459Y-84475531D01*
X160856427Y-84543220D01*
X160856425Y-84543221D01*
X160850397Y-84545905D01*
X160845056Y-84549785D01*
X160845055Y-84549786D01*
X160710422Y-84647602D01*
X160710420Y-84647604D01*
X160705078Y-84651485D01*
X160700657Y-84656395D01*
X160700656Y-84656396D01*
X160591708Y-84777396D01*
X160584887Y-84784971D01*
X160581588Y-84790684D01*
X160581585Y-84790689D01*
X160509119Y-84916204D01*
X160457736Y-84965197D01*
X160388023Y-84978633D01*
X160322112Y-84952246D01*
X160280930Y-84894414D01*
X160274000Y-84853204D01*
X160274000Y-83186796D01*
X160294002Y-83118675D01*
X160347658Y-83072182D01*
X160417932Y-83062078D01*
X160482512Y-83091572D01*
X160509119Y-83123796D01*
X160581585Y-83249311D01*
X160581588Y-83249316D01*
X160584887Y-83255029D01*
X160705078Y-83388515D01*
X160710420Y-83392396D01*
X160710422Y-83392398D01*
X160841835Y-83487875D01*
X160850396Y-83494095D01*
X160856424Y-83496779D01*
X160856426Y-83496780D01*
X160945336Y-83536365D01*
X161014490Y-83567154D01*
X161089505Y-83583099D01*
X161183731Y-83603128D01*
X161183736Y-83603128D01*
X161190188Y-83604500D01*
X161369812Y-83604500D01*
X161376264Y-83603128D01*
X161376269Y-83603128D01*
X161470495Y-83583099D01*
X161545510Y-83567154D01*
X161614664Y-83536365D01*
X161703574Y-83496780D01*
X161703576Y-83496779D01*
X161709604Y-83494095D01*
X161718165Y-83487875D01*
X161849578Y-83392398D01*
X161849580Y-83392396D01*
X161854922Y-83388515D01*
X161975113Y-83255029D01*
X162050881Y-83123796D01*
X162061621Y-83105194D01*
X162061622Y-83105193D01*
X162064925Y-83099471D01*
X162114846Y-82945830D01*
X162118391Y-82934918D01*
X162118391Y-82934917D01*
X162120431Y-82928639D01*
X162125174Y-82883518D01*
X162138517Y-82756565D01*
X162139207Y-82750000D01*
X162120431Y-82571361D01*
X162096687Y-82498283D01*
X162094661Y-82427316D01*
X162127426Y-82370254D01*
X162935216Y-81562464D01*
X162997528Y-81528438D01*
X163068343Y-81533503D01*
G37*
%TD.AperFunction*%
%TA.AperFunction,Conductor*%
G36*
X175094528Y-79252663D02*
G01*
X175101108Y-79258789D01*
X175672575Y-79830256D01*
X175706600Y-79892568D01*
X175703312Y-79958287D01*
X175679569Y-80031361D01*
X175660793Y-80210000D01*
X175679569Y-80388639D01*
X175735075Y-80559471D01*
X175738378Y-80565193D01*
X175738379Y-80565194D01*
X175749119Y-80583796D01*
X175824887Y-80715029D01*
X175945078Y-80848515D01*
X176090396Y-80954095D01*
X176096424Y-80956779D01*
X176096426Y-80956780D01*
X176248459Y-81024469D01*
X176254490Y-81027154D01*
X176342339Y-81045827D01*
X176423731Y-81063128D01*
X176423736Y-81063128D01*
X176430188Y-81064500D01*
X176609812Y-81064500D01*
X176616264Y-81063128D01*
X176616269Y-81063128D01*
X176697661Y-81045827D01*
X176785510Y-81027154D01*
X176791541Y-81024469D01*
X176943574Y-80956780D01*
X176943576Y-80956779D01*
X176949604Y-80954095D01*
X177094922Y-80848515D01*
X177215113Y-80715029D01*
X177290881Y-80583796D01*
X177301624Y-80565189D01*
X177301625Y-80565187D01*
X177304925Y-80559471D01*
X177305800Y-80556778D01*
X177350874Y-80503749D01*
X177418802Y-80483100D01*
X177487110Y-80502453D01*
X177534111Y-80555664D01*
X177546000Y-80609094D01*
X177546000Y-82350906D01*
X177525998Y-82419027D01*
X177472342Y-82465520D01*
X177402068Y-82475624D01*
X177337488Y-82446130D01*
X177305890Y-82403500D01*
X177304925Y-82400529D01*
X177215113Y-82244971D01*
X177125882Y-82145869D01*
X177099344Y-82116396D01*
X177099343Y-82116395D01*
X177094922Y-82111485D01*
X176992297Y-82036923D01*
X176954946Y-82009786D01*
X176954945Y-82009785D01*
X176949604Y-82005905D01*
X176943576Y-82003221D01*
X176943574Y-82003220D01*
X176791541Y-81935531D01*
X176791540Y-81935531D01*
X176785510Y-81932846D01*
X176697661Y-81914173D01*
X176616269Y-81896872D01*
X176616264Y-81896872D01*
X176609812Y-81895500D01*
X176430188Y-81895500D01*
X176423736Y-81896872D01*
X176423731Y-81896872D01*
X176254490Y-81932846D01*
X176253980Y-81930446D01*
X176194110Y-81932146D01*
X176137067Y-81899386D01*
X174922921Y-80685241D01*
X174888896Y-80622929D01*
X174886016Y-80596146D01*
X174886016Y-79347887D01*
X174906018Y-79279766D01*
X174959674Y-79233273D01*
X175029948Y-79223169D01*
X175094528Y-79252663D01*
G37*
%TD.AperFunction*%
%TA.AperFunction,Conductor*%
G36*
X162788933Y-79272913D02*
G01*
X162845769Y-79315460D01*
X162870580Y-79381980D01*
X162870901Y-79390969D01*
X162870901Y-80639229D01*
X162850899Y-80707350D01*
X162833996Y-80728324D01*
X161662933Y-81899387D01*
X161600621Y-81933413D01*
X161545972Y-81930672D01*
X161545510Y-81932846D01*
X161376269Y-81896872D01*
X161376264Y-81896872D01*
X161369812Y-81895500D01*
X161190188Y-81895500D01*
X161183736Y-81896872D01*
X161183731Y-81896872D01*
X161102339Y-81914173D01*
X161014490Y-81932846D01*
X161008460Y-81935531D01*
X161008459Y-81935531D01*
X160856427Y-82003220D01*
X160856425Y-82003221D01*
X160850397Y-82005905D01*
X160845056Y-82009785D01*
X160845055Y-82009786D01*
X160710422Y-82107602D01*
X160710420Y-82107604D01*
X160705078Y-82111485D01*
X160700657Y-82116395D01*
X160700656Y-82116396D01*
X160674119Y-82145869D01*
X160584887Y-82244971D01*
X160581588Y-82250684D01*
X160581585Y-82250689D01*
X160509119Y-82376204D01*
X160457736Y-82425197D01*
X160388023Y-82438633D01*
X160322112Y-82412246D01*
X160280930Y-82354414D01*
X160274000Y-82313204D01*
X160274000Y-80646796D01*
X160294002Y-80578675D01*
X160347658Y-80532182D01*
X160417932Y-80522078D01*
X160482512Y-80551572D01*
X160509119Y-80583796D01*
X160581585Y-80709311D01*
X160581588Y-80709316D01*
X160584887Y-80715029D01*
X160705078Y-80848515D01*
X160850396Y-80954095D01*
X160856424Y-80956779D01*
X160856426Y-80956780D01*
X161008459Y-81024469D01*
X161014490Y-81027154D01*
X161102339Y-81045827D01*
X161183731Y-81063128D01*
X161183736Y-81063128D01*
X161190188Y-81064500D01*
X161369812Y-81064500D01*
X161376264Y-81063128D01*
X161376269Y-81063128D01*
X161457661Y-81045827D01*
X161545510Y-81027154D01*
X161551541Y-81024469D01*
X161703574Y-80956780D01*
X161703576Y-80956779D01*
X161709604Y-80954095D01*
X161854922Y-80848515D01*
X161975113Y-80715029D01*
X162050881Y-80583796D01*
X162061621Y-80565194D01*
X162061622Y-80565193D01*
X162064925Y-80559471D01*
X162120431Y-80388639D01*
X162139207Y-80210000D01*
X162120431Y-80031361D01*
X162096687Y-79958283D01*
X162094661Y-79887316D01*
X162127426Y-79830254D01*
X162655806Y-79301874D01*
X162718118Y-79267848D01*
X162788933Y-79272913D01*
G37*
%TD.AperFunction*%
%TA.AperFunction,Conductor*%
G36*
X175373937Y-76992071D02*
G01*
X175380520Y-76998200D01*
X175672574Y-77290254D01*
X175706600Y-77352566D01*
X175703313Y-77418283D01*
X175679569Y-77491361D01*
X175660793Y-77670000D01*
X175679569Y-77848639D01*
X175735075Y-78019471D01*
X175738378Y-78025193D01*
X175738379Y-78025194D01*
X175749119Y-78043796D01*
X175824887Y-78175029D01*
X175945078Y-78308515D01*
X175950420Y-78312396D01*
X175950422Y-78312398D01*
X176041595Y-78378639D01*
X176090396Y-78414095D01*
X176096424Y-78416779D01*
X176096426Y-78416780D01*
X176248459Y-78484469D01*
X176254490Y-78487154D01*
X176342339Y-78505827D01*
X176423731Y-78523128D01*
X176423736Y-78523128D01*
X176430188Y-78524500D01*
X176609812Y-78524500D01*
X176616264Y-78523128D01*
X176616269Y-78523128D01*
X176697661Y-78505827D01*
X176785510Y-78487154D01*
X176791541Y-78484469D01*
X176943574Y-78416780D01*
X176943576Y-78416779D01*
X176949604Y-78414095D01*
X176998405Y-78378639D01*
X177089578Y-78312398D01*
X177089580Y-78312396D01*
X177094922Y-78308515D01*
X177215113Y-78175029D01*
X177290881Y-78043796D01*
X177301624Y-78025189D01*
X177301625Y-78025187D01*
X177304925Y-78019471D01*
X177305800Y-78016778D01*
X177350874Y-77963749D01*
X177418802Y-77943100D01*
X177487110Y-77962453D01*
X177534111Y-78015664D01*
X177546000Y-78069094D01*
X177546000Y-79810906D01*
X177525998Y-79879027D01*
X177472342Y-79925520D01*
X177402068Y-79935624D01*
X177337488Y-79906130D01*
X177305890Y-79863500D01*
X177304925Y-79860529D01*
X177215113Y-79704971D01*
X177094922Y-79571485D01*
X176949604Y-79465905D01*
X176943576Y-79463221D01*
X176943574Y-79463220D01*
X176791541Y-79395531D01*
X176791540Y-79395531D01*
X176785510Y-79392846D01*
X176697661Y-79374173D01*
X176616269Y-79356872D01*
X176616264Y-79356872D01*
X176609812Y-79355500D01*
X176430188Y-79355500D01*
X176423736Y-79356872D01*
X176423731Y-79356872D01*
X176254490Y-79392846D01*
X176253980Y-79390446D01*
X176194110Y-79392146D01*
X176137069Y-79359388D01*
X175202329Y-78424649D01*
X175168305Y-78362338D01*
X175165425Y-78335555D01*
X175165425Y-77087295D01*
X175185427Y-77019174D01*
X175239083Y-76972681D01*
X175309357Y-76962577D01*
X175373937Y-76992071D01*
G37*
%TD.AperFunction*%
%TA.AperFunction,Conductor*%
G36*
X162509523Y-77012323D02*
G01*
X162566359Y-77054870D01*
X162591170Y-77121390D01*
X162591491Y-77130379D01*
X162591491Y-78378639D01*
X162571489Y-78446760D01*
X162554586Y-78467734D01*
X161662933Y-79359387D01*
X161600621Y-79393413D01*
X161545972Y-79390672D01*
X161545510Y-79392846D01*
X161376269Y-79356872D01*
X161376264Y-79356872D01*
X161369812Y-79355500D01*
X161190188Y-79355500D01*
X161183736Y-79356872D01*
X161183731Y-79356872D01*
X161102339Y-79374173D01*
X161014490Y-79392846D01*
X161008460Y-79395531D01*
X161008459Y-79395531D01*
X160856427Y-79463220D01*
X160856425Y-79463221D01*
X160850397Y-79465905D01*
X160845056Y-79469785D01*
X160845055Y-79469786D01*
X160710422Y-79567602D01*
X160710420Y-79567604D01*
X160705078Y-79571485D01*
X160584887Y-79704971D01*
X160581588Y-79710684D01*
X160581585Y-79710689D01*
X160509119Y-79836204D01*
X160457736Y-79885197D01*
X160388023Y-79898633D01*
X160322112Y-79872246D01*
X160280930Y-79814414D01*
X160274000Y-79773204D01*
X160274000Y-78106796D01*
X160294002Y-78038675D01*
X160347658Y-77992182D01*
X160417932Y-77982078D01*
X160482512Y-78011572D01*
X160509119Y-78043796D01*
X160581585Y-78169311D01*
X160581588Y-78169316D01*
X160584887Y-78175029D01*
X160705078Y-78308515D01*
X160710420Y-78312396D01*
X160710422Y-78312398D01*
X160801595Y-78378639D01*
X160850396Y-78414095D01*
X160856424Y-78416779D01*
X160856426Y-78416780D01*
X161008459Y-78484469D01*
X161014490Y-78487154D01*
X161102339Y-78505827D01*
X161183731Y-78523128D01*
X161183736Y-78523128D01*
X161190188Y-78524500D01*
X161369812Y-78524500D01*
X161376264Y-78523128D01*
X161376269Y-78523128D01*
X161457661Y-78505827D01*
X161545510Y-78487154D01*
X161551541Y-78484469D01*
X161703574Y-78416780D01*
X161703576Y-78416779D01*
X161709604Y-78414095D01*
X161758405Y-78378639D01*
X161849578Y-78312398D01*
X161849580Y-78312396D01*
X161854922Y-78308515D01*
X161975113Y-78175029D01*
X162050881Y-78043796D01*
X162061621Y-78025194D01*
X162061622Y-78025193D01*
X162064925Y-78019471D01*
X162120431Y-77848639D01*
X162139207Y-77670000D01*
X162120431Y-77491361D01*
X162096687Y-77418283D01*
X162094661Y-77347316D01*
X162127426Y-77290254D01*
X162376396Y-77041284D01*
X162438708Y-77007258D01*
X162509523Y-77012323D01*
G37*
%TD.AperFunction*%
%TA.AperFunction,Conductor*%
G36*
X168892766Y-74546104D02*
G01*
X168937829Y-74575065D01*
X169647717Y-75284953D01*
X169681743Y-75347265D01*
X169684622Y-75374048D01*
X169684622Y-78979500D01*
X169664620Y-79047621D01*
X169610964Y-79094114D01*
X169558622Y-79105500D01*
X168696476Y-79105501D01*
X168339369Y-79105501D01*
X168271248Y-79085499D01*
X168250274Y-79068596D01*
X168198527Y-79016849D01*
X168164501Y-78954537D01*
X168161622Y-78927754D01*
X168161622Y-75225272D01*
X168181624Y-75157151D01*
X168198527Y-75136177D01*
X168759639Y-74575065D01*
X168821951Y-74541039D01*
X168892766Y-74546104D01*
G37*
%TD.AperFunction*%
%TA.AperFunction,Conductor*%
G36*
X175653348Y-75286514D02*
G01*
X175690669Y-75342802D01*
X175735075Y-75479471D01*
X175738378Y-75485193D01*
X175738379Y-75485194D01*
X175749119Y-75503796D01*
X175824887Y-75635029D01*
X175945078Y-75768515D01*
X175950420Y-75772396D01*
X175950422Y-75772398D01*
X176054317Y-75847882D01*
X176090396Y-75874095D01*
X176096424Y-75876779D01*
X176096426Y-75876780D01*
X176180927Y-75914402D01*
X176254490Y-75947154D01*
X176342339Y-75965827D01*
X176423731Y-75983128D01*
X176423736Y-75983128D01*
X176430188Y-75984500D01*
X176609812Y-75984500D01*
X176616264Y-75983128D01*
X176616269Y-75983128D01*
X176697661Y-75965827D01*
X176785510Y-75947154D01*
X176859073Y-75914402D01*
X176943574Y-75876780D01*
X176943576Y-75876779D01*
X176949604Y-75874095D01*
X176985683Y-75847882D01*
X177089578Y-75772398D01*
X177089580Y-75772396D01*
X177094922Y-75768515D01*
X177215113Y-75635029D01*
X177276275Y-75529094D01*
X177301624Y-75485189D01*
X177301625Y-75485187D01*
X177304925Y-75479471D01*
X177305800Y-75476778D01*
X177350874Y-75423749D01*
X177418802Y-75403100D01*
X177487110Y-75422453D01*
X177534111Y-75475664D01*
X177546000Y-75529094D01*
X177546000Y-77270906D01*
X177525998Y-77339027D01*
X177472342Y-77385520D01*
X177402068Y-77395624D01*
X177337488Y-77366130D01*
X177305890Y-77323500D01*
X177304925Y-77320529D01*
X177215113Y-77164971D01*
X177145174Y-77087295D01*
X177099344Y-77036396D01*
X177099343Y-77036395D01*
X177094922Y-77031485D01*
X177077978Y-77019174D01*
X176954946Y-76929786D01*
X176954945Y-76929785D01*
X176949604Y-76925905D01*
X176943576Y-76923221D01*
X176943574Y-76923220D01*
X176791541Y-76855531D01*
X176791540Y-76855531D01*
X176785510Y-76852846D01*
X176697661Y-76834173D01*
X176616269Y-76816872D01*
X176616264Y-76816872D01*
X176609812Y-76815500D01*
X176430188Y-76815500D01*
X176423736Y-76816872D01*
X176423731Y-76816872D01*
X176254490Y-76852846D01*
X176253978Y-76850436D01*
X176194161Y-76852161D01*
X176137067Y-76819387D01*
X175481741Y-76164061D01*
X175447715Y-76101749D01*
X175444836Y-76074966D01*
X175444836Y-75381738D01*
X175464838Y-75313617D01*
X175518494Y-75267124D01*
X175588768Y-75257020D01*
X175653348Y-75286514D01*
G37*
%TD.AperFunction*%
%TA.AperFunction,Conductor*%
G36*
X162241671Y-75401265D02*
G01*
X162293979Y-75449270D01*
X162312080Y-75514338D01*
X162312080Y-76118050D01*
X162292078Y-76186171D01*
X162275175Y-76207145D01*
X161662933Y-76819387D01*
X161600621Y-76853413D01*
X161545972Y-76850672D01*
X161545510Y-76852846D01*
X161376269Y-76816872D01*
X161376264Y-76816872D01*
X161369812Y-76815500D01*
X161190188Y-76815500D01*
X161183736Y-76816872D01*
X161183731Y-76816872D01*
X161102339Y-76834173D01*
X161014490Y-76852846D01*
X161008460Y-76855531D01*
X161008459Y-76855531D01*
X160856427Y-76923220D01*
X160856425Y-76923221D01*
X160850397Y-76925905D01*
X160845056Y-76929785D01*
X160845055Y-76929786D01*
X160710422Y-77027602D01*
X160710420Y-77027604D01*
X160705078Y-77031485D01*
X160700657Y-77036395D01*
X160700656Y-77036396D01*
X160654827Y-77087295D01*
X160584887Y-77164971D01*
X160581588Y-77170684D01*
X160581585Y-77170689D01*
X160509119Y-77296204D01*
X160457736Y-77345197D01*
X160388023Y-77358633D01*
X160322112Y-77332246D01*
X160280930Y-77274414D01*
X160274000Y-77233204D01*
X160274000Y-75566796D01*
X160294002Y-75498675D01*
X160347658Y-75452182D01*
X160417932Y-75442078D01*
X160482512Y-75471572D01*
X160509119Y-75503796D01*
X160581585Y-75629311D01*
X160581588Y-75629316D01*
X160584887Y-75635029D01*
X160705078Y-75768515D01*
X160710420Y-75772396D01*
X160710422Y-75772398D01*
X160814317Y-75847882D01*
X160850396Y-75874095D01*
X160856424Y-75876779D01*
X160856426Y-75876780D01*
X160940927Y-75914402D01*
X161014490Y-75947154D01*
X161102339Y-75965827D01*
X161183731Y-75983128D01*
X161183736Y-75983128D01*
X161190188Y-75984500D01*
X161369812Y-75984500D01*
X161376264Y-75983128D01*
X161376269Y-75983128D01*
X161457661Y-75965827D01*
X161545510Y-75947154D01*
X161619073Y-75914402D01*
X161703574Y-75876780D01*
X161703576Y-75876779D01*
X161709604Y-75874095D01*
X161745683Y-75847882D01*
X161849578Y-75772398D01*
X161849580Y-75772396D01*
X161854922Y-75768515D01*
X161975113Y-75635029D01*
X162050881Y-75503796D01*
X162061621Y-75485194D01*
X162061622Y-75485193D01*
X162064925Y-75479471D01*
X162066967Y-75473186D01*
X162069651Y-75467158D01*
X162071363Y-75467920D01*
X162106318Y-75416798D01*
X162171714Y-75389160D01*
X162241671Y-75401265D01*
G37*
%TD.AperFunction*%
%TA.AperFunction,Conductor*%
G36*
X165353615Y-73371100D02*
G01*
X165398677Y-73400061D01*
X165509628Y-73511012D01*
X165548028Y-73540477D01*
X165557089Y-73543775D01*
X165584478Y-73553744D01*
X165641649Y-73595840D01*
X165659783Y-73629049D01*
X165673050Y-73665499D01*
X165702515Y-73703899D01*
X165863181Y-73864565D01*
X165901581Y-73894030D01*
X165910642Y-73897328D01*
X165938031Y-73907297D01*
X165995202Y-73949393D01*
X166013336Y-73982603D01*
X166026603Y-74019053D01*
X166056068Y-74057453D01*
X166167020Y-74168405D01*
X166201046Y-74230717D01*
X166195981Y-74301532D01*
X166167022Y-74346592D01*
X164585626Y-75927988D01*
X164523314Y-75962014D01*
X164452498Y-75956949D01*
X164395663Y-75914402D01*
X164370852Y-75847882D01*
X164370531Y-75838893D01*
X164370531Y-74302206D01*
X164390533Y-74234085D01*
X164407432Y-74213115D01*
X165220487Y-73400060D01*
X165282799Y-73366035D01*
X165353615Y-73371100D01*
G37*
%TD.AperFunction*%
%TA.AperFunction,Conductor*%
G36*
X177487110Y-72882453D02*
G01*
X177534111Y-72935664D01*
X177546000Y-72989094D01*
X177546000Y-74730906D01*
X177525998Y-74799027D01*
X177472342Y-74845520D01*
X177402068Y-74855624D01*
X177337488Y-74826130D01*
X177305890Y-74783500D01*
X177304925Y-74780529D01*
X177295706Y-74764560D01*
X177218414Y-74630689D01*
X177215113Y-74624971D01*
X177205599Y-74614404D01*
X177099344Y-74496396D01*
X177099343Y-74496395D01*
X177094922Y-74491485D01*
X177040220Y-74451741D01*
X176954946Y-74389786D01*
X176954945Y-74389785D01*
X176949604Y-74385905D01*
X176943576Y-74383221D01*
X176943574Y-74383220D01*
X176791541Y-74315531D01*
X176791540Y-74315531D01*
X176785510Y-74312846D01*
X176697661Y-74294173D01*
X176616269Y-74276872D01*
X176616264Y-74276872D01*
X176609812Y-74275500D01*
X176430188Y-74275500D01*
X176423736Y-74276872D01*
X176423731Y-74276872D01*
X176254490Y-74312846D01*
X176253978Y-74310436D01*
X176194161Y-74312161D01*
X176137067Y-74279387D01*
X175761152Y-73903472D01*
X175727126Y-73841160D01*
X175724247Y-73814377D01*
X175724247Y-73311498D01*
X175744249Y-73243377D01*
X175797905Y-73196884D01*
X175868179Y-73186780D01*
X175932759Y-73216274D01*
X175935743Y-73219202D01*
X175935754Y-73219190D01*
X175940656Y-73223604D01*
X175945078Y-73228515D01*
X175950420Y-73232396D01*
X175950422Y-73232398D01*
X176085054Y-73330214D01*
X176090396Y-73334095D01*
X176096424Y-73336779D01*
X176096426Y-73336780D01*
X176248459Y-73404469D01*
X176254490Y-73407154D01*
X176342339Y-73425827D01*
X176423731Y-73443128D01*
X176423736Y-73443128D01*
X176430188Y-73444500D01*
X176609812Y-73444500D01*
X176616264Y-73443128D01*
X176616269Y-73443128D01*
X176697661Y-73425827D01*
X176785510Y-73407154D01*
X176791541Y-73404469D01*
X176943574Y-73336780D01*
X176943576Y-73336779D01*
X176949604Y-73334095D01*
X176954946Y-73330214D01*
X177089578Y-73232398D01*
X177089580Y-73232396D01*
X177094922Y-73228515D01*
X177099344Y-73223604D01*
X177210694Y-73099937D01*
X177210695Y-73099936D01*
X177215113Y-73095029D01*
X177276275Y-72989094D01*
X177301624Y-72945189D01*
X177301625Y-72945187D01*
X177304925Y-72939471D01*
X177305800Y-72936778D01*
X177350874Y-72883749D01*
X177418802Y-72863100D01*
X177487110Y-72882453D01*
G37*
%TD.AperFunction*%
%TA.AperFunction,Conductor*%
G36*
X160482512Y-72931572D02*
G01*
X160509119Y-72963796D01*
X160581585Y-73089311D01*
X160581588Y-73089316D01*
X160584887Y-73095029D01*
X160589305Y-73099936D01*
X160589306Y-73099937D01*
X160700656Y-73223604D01*
X160705078Y-73228515D01*
X160710420Y-73232396D01*
X160710422Y-73232398D01*
X160845054Y-73330214D01*
X160850396Y-73334095D01*
X160856424Y-73336779D01*
X160856426Y-73336780D01*
X161008459Y-73404469D01*
X161014490Y-73407154D01*
X161102339Y-73425827D01*
X161183731Y-73443128D01*
X161183736Y-73443128D01*
X161190188Y-73444500D01*
X161369812Y-73444500D01*
X161376264Y-73443128D01*
X161376269Y-73443128D01*
X161457661Y-73425827D01*
X161545510Y-73407154D01*
X161551541Y-73404469D01*
X161703574Y-73336780D01*
X161703576Y-73336779D01*
X161709604Y-73334095D01*
X161716759Y-73328897D01*
X161832608Y-73244727D01*
X161899476Y-73220869D01*
X161968627Y-73236949D01*
X162018107Y-73287863D01*
X162032669Y-73346663D01*
X162032669Y-73857460D01*
X162012667Y-73925581D01*
X161995764Y-73946555D01*
X161662933Y-74279386D01*
X161600621Y-74313412D01*
X161545970Y-74310683D01*
X161545510Y-74312846D01*
X161376269Y-74276872D01*
X161376264Y-74276872D01*
X161369812Y-74275500D01*
X161190188Y-74275500D01*
X161183736Y-74276872D01*
X161183731Y-74276872D01*
X161102339Y-74294173D01*
X161014490Y-74312846D01*
X161008460Y-74315531D01*
X161008459Y-74315531D01*
X160856427Y-74383220D01*
X160856425Y-74383221D01*
X160850397Y-74385905D01*
X160845056Y-74389785D01*
X160845055Y-74389786D01*
X160710422Y-74487602D01*
X160710420Y-74487604D01*
X160705078Y-74491485D01*
X160700657Y-74496395D01*
X160700656Y-74496396D01*
X160594402Y-74614404D01*
X160584887Y-74624971D01*
X160581588Y-74630684D01*
X160581585Y-74630689D01*
X160509119Y-74756204D01*
X160457736Y-74805197D01*
X160388023Y-74818633D01*
X160322112Y-74792246D01*
X160280930Y-74734414D01*
X160274000Y-74693204D01*
X160274000Y-73026796D01*
X160294002Y-72958675D01*
X160347658Y-72912182D01*
X160417932Y-72902078D01*
X160482512Y-72931572D01*
G37*
%TD.AperFunction*%
%TA.AperFunction,Conductor*%
G36*
X173908611Y-65888668D02*
G01*
X173909565Y-65886046D01*
X173946015Y-65899313D01*
X174003187Y-65941408D01*
X174021321Y-65974618D01*
X174034588Y-66011068D01*
X174064053Y-66049468D01*
X174224719Y-66210134D01*
X174263119Y-66239599D01*
X174272180Y-66242897D01*
X174299569Y-66252866D01*
X174356740Y-66294962D01*
X174374874Y-66328172D01*
X174388141Y-66364622D01*
X174417606Y-66403022D01*
X174561960Y-66547376D01*
X174595986Y-66609688D01*
X174592446Y-66662069D01*
X174595407Y-66662591D01*
X174588743Y-66700386D01*
X174586367Y-66711104D01*
X174576434Y-66748176D01*
X174577394Y-66759151D01*
X174577394Y-66759152D01*
X174579779Y-66786411D01*
X174580258Y-66797392D01*
X174580258Y-67265494D01*
X174579779Y-67276475D01*
X174576434Y-67314710D01*
X174586367Y-67351782D01*
X174588742Y-67362496D01*
X174595407Y-67400294D01*
X174600918Y-67409839D01*
X174602189Y-67413332D01*
X174603764Y-67416710D01*
X174606618Y-67427359D01*
X174612942Y-67436390D01*
X174612943Y-67436393D01*
X174628631Y-67458798D01*
X174634536Y-67468067D01*
X174653719Y-67501292D01*
X174662160Y-67508375D01*
X174662161Y-67508376D01*
X174683122Y-67525964D01*
X174691226Y-67533391D01*
X174887575Y-67729740D01*
X174895002Y-67737845D01*
X174919666Y-67767239D01*
X174929212Y-67772750D01*
X174929214Y-67772752D01*
X174952890Y-67786421D01*
X174962161Y-67792327D01*
X174990495Y-67812167D01*
X175034824Y-67867625D01*
X175042132Y-67938244D01*
X175010101Y-68001604D01*
X174979033Y-68025689D01*
X174970226Y-68028894D01*
X174931826Y-68058359D01*
X174771160Y-68219025D01*
X174741695Y-68257425D01*
X174738397Y-68266486D01*
X174728428Y-68293875D01*
X174686332Y-68351046D01*
X174653122Y-68369180D01*
X174625735Y-68379148D01*
X174625733Y-68379149D01*
X174616672Y-68382447D01*
X174578272Y-68411912D01*
X174417606Y-68572578D01*
X174388141Y-68610978D01*
X174384843Y-68620039D01*
X174384842Y-68620041D01*
X174374874Y-68647428D01*
X174332779Y-68704600D01*
X174299569Y-68722734D01*
X174263119Y-68736001D01*
X174224719Y-68765466D01*
X174064053Y-68926132D01*
X174034588Y-68964532D01*
X174031290Y-68973593D01*
X174021321Y-69000982D01*
X173979225Y-69058153D01*
X173946015Y-69076287D01*
X173918628Y-69086255D01*
X173918626Y-69086256D01*
X173909565Y-69089554D01*
X173871165Y-69119019D01*
X173710499Y-69279685D01*
X173681034Y-69318085D01*
X173677736Y-69327146D01*
X173667767Y-69354535D01*
X173625671Y-69411706D01*
X173592462Y-69429840D01*
X173556012Y-69443107D01*
X173517612Y-69472572D01*
X173356946Y-69633238D01*
X173327481Y-69671638D01*
X173324183Y-69680699D01*
X173324182Y-69680701D01*
X173314214Y-69708088D01*
X173272119Y-69765260D01*
X173238909Y-69783394D01*
X173202459Y-69796661D01*
X173164059Y-69826126D01*
X173003393Y-69986792D01*
X172973928Y-70025192D01*
X172970630Y-70034253D01*
X172960661Y-70061642D01*
X172918565Y-70118813D01*
X172885355Y-70136947D01*
X172857968Y-70146915D01*
X172857966Y-70146916D01*
X172848905Y-70150214D01*
X172810505Y-70179679D01*
X172808590Y-70181594D01*
X172744485Y-70211330D01*
X172709368Y-70211643D01*
X172670833Y-70206570D01*
X172654456Y-70206570D01*
X172518639Y-70224452D01*
X172502819Y-70228691D01*
X172376261Y-70281113D01*
X172362075Y-70289303D01*
X172321231Y-70320643D01*
X172312766Y-70332236D01*
X172319399Y-70344213D01*
X172561627Y-70586441D01*
X172590933Y-70632440D01*
X172610358Y-70685810D01*
X172614861Y-70756662D01*
X172580344Y-70818703D01*
X172517764Y-70852233D01*
X172448863Y-70847305D01*
X172395496Y-70827881D01*
X172349497Y-70798575D01*
X172107538Y-70556616D01*
X172094937Y-70549735D01*
X172083931Y-70557873D01*
X172052355Y-70599024D01*
X172044169Y-70613202D01*
X171991742Y-70739769D01*
X171987505Y-70755583D01*
X171969624Y-70891402D01*
X171969624Y-70907779D01*
X171974697Y-70946314D01*
X171963757Y-71016463D01*
X171944812Y-71045372D01*
X171942732Y-71047452D01*
X171913267Y-71085852D01*
X171909969Y-71094913D01*
X171900000Y-71122302D01*
X171857904Y-71179473D01*
X171824695Y-71197607D01*
X171788245Y-71210874D01*
X171749845Y-71240339D01*
X171589179Y-71401005D01*
X171559714Y-71439405D01*
X171556416Y-71448466D01*
X171556415Y-71448468D01*
X171546447Y-71475855D01*
X171504352Y-71533027D01*
X171471142Y-71551161D01*
X171443753Y-71561130D01*
X171434692Y-71564428D01*
X171427041Y-71570299D01*
X171418594Y-71574933D01*
X171417355Y-71572675D01*
X171364415Y-71593141D01*
X171294866Y-71578876D01*
X171244070Y-71529274D01*
X171236069Y-71512122D01*
X171182806Y-71371168D01*
X171150214Y-71323746D01*
X171097381Y-71246873D01*
X171097380Y-71246871D01*
X171093079Y-71240614D01*
X170974801Y-71135233D01*
X170967415Y-71131322D01*
X170841514Y-71064661D01*
X170841515Y-71064661D01*
X170834800Y-71061106D01*
X170681159Y-71022514D01*
X170673560Y-71022474D01*
X170673559Y-71022474D01*
X170607707Y-71022129D01*
X170522747Y-71021684D01*
X170515367Y-71023456D01*
X170515365Y-71023456D01*
X170376089Y-71056893D01*
X170376086Y-71056894D01*
X170368710Y-71058665D01*
X170227940Y-71131322D01*
X170108565Y-71235460D01*
X170017476Y-71365066D01*
X169959932Y-71512659D01*
X169958940Y-71520192D01*
X169958940Y-71520193D01*
X169942788Y-71642883D01*
X169939255Y-71669718D01*
X169940089Y-71677268D01*
X169955014Y-71812453D01*
X169956639Y-71827175D01*
X169959249Y-71834306D01*
X169959249Y-71834308D01*
X170006626Y-71963772D01*
X170011079Y-71975941D01*
X170015315Y-71982244D01*
X170015315Y-71982245D01*
X170088187Y-72090689D01*
X170099434Y-72107427D01*
X170105053Y-72112540D01*
X170105054Y-72112541D01*
X170191177Y-72190906D01*
X170216602Y-72214041D01*
X170355819Y-72289630D01*
X170363161Y-72291556D01*
X170363163Y-72291557D01*
X170397515Y-72300569D01*
X170427284Y-72308379D01*
X170488098Y-72345011D01*
X170519454Y-72408708D01*
X170511395Y-72479246D01*
X170505777Y-72490859D01*
X170504922Y-72492418D01*
X170499054Y-72500065D01*
X170495759Y-72509119D01*
X170495757Y-72509122D01*
X170485787Y-72536515D01*
X170443692Y-72593687D01*
X170410482Y-72611821D01*
X170374032Y-72625088D01*
X170335632Y-72654553D01*
X170174966Y-72815219D01*
X170145501Y-72853619D01*
X170142203Y-72862680D01*
X170132234Y-72890069D01*
X170090138Y-72947240D01*
X170056928Y-72965374D01*
X170029541Y-72975342D01*
X170029539Y-72975343D01*
X170020478Y-72978641D01*
X169982078Y-73008106D01*
X169821412Y-73168772D01*
X169791947Y-73207172D01*
X169788649Y-73216233D01*
X169788648Y-73216235D01*
X169778680Y-73243622D01*
X169736585Y-73300794D01*
X169703375Y-73318928D01*
X169666925Y-73332195D01*
X169628525Y-73361660D01*
X169625600Y-73364585D01*
X169622510Y-73367295D01*
X169621504Y-73366148D01*
X169564771Y-73397128D01*
X169493956Y-73392063D01*
X169437120Y-73349516D01*
X169412309Y-73282996D01*
X169411988Y-73274007D01*
X169411988Y-70528414D01*
X169431990Y-70460293D01*
X169448893Y-70439319D01*
X173632893Y-66255319D01*
X173640997Y-66247893D01*
X173660655Y-66231398D01*
X173669102Y-66224310D01*
X173674613Y-66214765D01*
X173674616Y-66214761D01*
X173687449Y-66192532D01*
X173693349Y-66183271D01*
X173714393Y-66153216D01*
X173717246Y-66142571D01*
X173718585Y-66139699D01*
X173719665Y-66136733D01*
X173725174Y-66127190D01*
X173727087Y-66116341D01*
X173727090Y-66116333D01*
X173731547Y-66091056D01*
X173733925Y-66080328D01*
X173740565Y-66055545D01*
X173740565Y-66055544D01*
X173743419Y-66044893D01*
X173740836Y-66015366D01*
X173754826Y-65945761D01*
X173804225Y-65894769D01*
X173873351Y-65878579D01*
X173908611Y-65888668D01*
G37*
%TD.AperFunction*%
%TA.AperFunction,Conductor*%
G36*
X167331392Y-38374002D02*
G01*
X167377885Y-38427658D01*
X167386112Y-38451963D01*
X167411293Y-38562290D01*
X167496933Y-38780497D01*
X167525390Y-38829786D01*
X167590585Y-38942706D01*
X167614139Y-38983503D01*
X167617071Y-38987180D01*
X167617074Y-38987184D01*
X167719553Y-39115688D01*
X167760292Y-39166773D01*
X167763745Y-39169977D01*
X167888270Y-39285520D01*
X167932127Y-39326214D01*
X168125807Y-39458262D01*
X168130052Y-39460306D01*
X168130055Y-39460308D01*
X168332755Y-39557923D01*
X168337004Y-39559969D01*
X168561001Y-39629063D01*
X168565651Y-39629764D01*
X168565656Y-39629765D01*
X168664316Y-39644635D01*
X168792794Y-39664000D01*
X169027206Y-39664000D01*
X169155684Y-39644635D01*
X169254344Y-39629765D01*
X169254349Y-39629764D01*
X169258999Y-39629063D01*
X169482996Y-39559969D01*
X169487245Y-39557923D01*
X169689945Y-39460308D01*
X169689948Y-39460306D01*
X169694193Y-39458262D01*
X169887873Y-39326214D01*
X169931731Y-39285520D01*
X170056255Y-39169977D01*
X170059708Y-39166773D01*
X170100447Y-39115688D01*
X170202926Y-38987184D01*
X170202929Y-38987180D01*
X170205861Y-38983503D01*
X170229416Y-38942706D01*
X170294610Y-38829786D01*
X170323067Y-38780497D01*
X170408707Y-38562290D01*
X170433888Y-38451963D01*
X170468547Y-38390001D01*
X170531203Y-38356613D01*
X170556729Y-38354000D01*
X177420000Y-38354000D01*
X177488121Y-38374002D01*
X177534614Y-38427658D01*
X177546000Y-38480000D01*
X177546000Y-39170906D01*
X177525998Y-39239027D01*
X177472342Y-39285520D01*
X177402068Y-39295624D01*
X177337488Y-39266130D01*
X177305890Y-39223500D01*
X177304925Y-39220529D01*
X177215113Y-39064971D01*
X177145074Y-38987184D01*
X177099344Y-38936396D01*
X177099343Y-38936395D01*
X177094922Y-38931485D01*
X177077064Y-38918510D01*
X176954946Y-38829786D01*
X176954945Y-38829785D01*
X176949604Y-38825905D01*
X176943576Y-38823221D01*
X176943574Y-38823220D01*
X176791541Y-38755531D01*
X176791540Y-38755531D01*
X176785510Y-38752846D01*
X176687184Y-38731946D01*
X176616269Y-38716872D01*
X176616264Y-38716872D01*
X176609812Y-38715500D01*
X176430188Y-38715500D01*
X176423736Y-38716872D01*
X176423731Y-38716872D01*
X176352816Y-38731946D01*
X176254490Y-38752846D01*
X176248460Y-38755531D01*
X176248459Y-38755531D01*
X176096427Y-38823220D01*
X176096425Y-38823221D01*
X176090397Y-38825905D01*
X176085056Y-38829785D01*
X176085055Y-38829786D01*
X175950422Y-38927602D01*
X175950420Y-38927604D01*
X175945078Y-38931485D01*
X175940657Y-38936395D01*
X175940656Y-38936396D01*
X175894927Y-38987184D01*
X175824887Y-39064971D01*
X175735075Y-39220529D01*
X175733034Y-39226811D01*
X175733033Y-39226813D01*
X175705509Y-39311525D01*
X175679569Y-39391361D01*
X175678879Y-39397924D01*
X175678879Y-39397925D01*
X175672816Y-39455606D01*
X175660793Y-39570000D01*
X175679569Y-39748639D01*
X175681609Y-39754917D01*
X175681609Y-39754918D01*
X175705961Y-39829865D01*
X175735075Y-39919471D01*
X175824887Y-40075029D01*
X175945078Y-40208515D01*
X176090396Y-40314095D01*
X176096424Y-40316779D01*
X176096426Y-40316780D01*
X176248459Y-40384469D01*
X176254490Y-40387154D01*
X176342339Y-40405827D01*
X176423731Y-40423128D01*
X176423736Y-40423128D01*
X176430188Y-40424500D01*
X176609812Y-40424500D01*
X176616264Y-40423128D01*
X176616269Y-40423128D01*
X176697661Y-40405827D01*
X176785510Y-40387154D01*
X176791541Y-40384469D01*
X176943574Y-40316780D01*
X176943576Y-40316779D01*
X176949604Y-40314095D01*
X177094922Y-40208515D01*
X177215113Y-40075029D01*
X177304925Y-39919471D01*
X177305800Y-39916778D01*
X177350874Y-39863749D01*
X177418802Y-39843100D01*
X177487110Y-39862453D01*
X177534111Y-39915664D01*
X177546000Y-39969094D01*
X177546000Y-41710906D01*
X177525998Y-41779027D01*
X177472342Y-41825520D01*
X177402068Y-41835624D01*
X177337488Y-41806130D01*
X177305890Y-41763500D01*
X177304925Y-41760529D01*
X177215113Y-41604971D01*
X177094922Y-41471485D01*
X176949604Y-41365905D01*
X176943576Y-41363221D01*
X176943574Y-41363220D01*
X176791541Y-41295531D01*
X176791540Y-41295531D01*
X176785510Y-41292846D01*
X176697661Y-41274173D01*
X176616269Y-41256872D01*
X176616264Y-41256872D01*
X176609812Y-41255500D01*
X176430188Y-41255500D01*
X176423736Y-41256872D01*
X176423731Y-41256872D01*
X176342339Y-41274173D01*
X176254490Y-41292846D01*
X176248460Y-41295531D01*
X176248459Y-41295531D01*
X176096427Y-41363220D01*
X176096425Y-41363221D01*
X176090397Y-41365905D01*
X176085056Y-41369785D01*
X176085055Y-41369786D01*
X175950422Y-41467602D01*
X175950420Y-41467604D01*
X175945078Y-41471485D01*
X175824887Y-41604971D01*
X175735075Y-41760529D01*
X175733034Y-41766811D01*
X175733033Y-41766813D01*
X175713958Y-41825520D01*
X175679569Y-41931361D01*
X175660793Y-42110000D01*
X175679569Y-42288639D01*
X175681608Y-42294913D01*
X175681609Y-42294918D01*
X175707717Y-42375271D01*
X175709744Y-42446239D01*
X175676979Y-42503302D01*
X173123351Y-45056929D01*
X173115247Y-45064355D01*
X173087142Y-45087938D01*
X173081631Y-45097483D01*
X173081628Y-45097487D01*
X173068799Y-45119708D01*
X173062894Y-45128978D01*
X173041850Y-45159032D01*
X173038996Y-45169684D01*
X173037662Y-45172545D01*
X173036583Y-45175511D01*
X173031070Y-45185058D01*
X173029156Y-45195914D01*
X173029154Y-45195919D01*
X173024698Y-45221188D01*
X173022320Y-45231917D01*
X173016199Y-45254764D01*
X173012825Y-45267355D01*
X173013786Y-45278337D01*
X173016023Y-45303908D01*
X173016502Y-45314890D01*
X173016502Y-58977601D01*
X172996500Y-59045722D01*
X172979597Y-59066696D01*
X171522432Y-60523861D01*
X171460122Y-60557885D01*
X171389307Y-60552821D01*
X171344244Y-60523860D01*
X171224312Y-60403928D01*
X171185912Y-60374463D01*
X171149462Y-60361196D01*
X171092291Y-60319100D01*
X171074157Y-60285890D01*
X171064189Y-60258503D01*
X171064188Y-60258501D01*
X171060890Y-60249440D01*
X171031425Y-60211040D01*
X170870759Y-60050374D01*
X170832359Y-60020909D01*
X170723167Y-59981166D01*
X170606968Y-59981166D01*
X170497776Y-60020909D01*
X170459376Y-60050374D01*
X169467859Y-61041891D01*
X169438394Y-61080291D01*
X169398651Y-61189483D01*
X169398651Y-61305682D01*
X169438394Y-61414874D01*
X169467859Y-61453274D01*
X169628525Y-61613940D01*
X169666925Y-61643405D01*
X169675986Y-61646703D01*
X169703375Y-61656672D01*
X169760546Y-61698768D01*
X169778680Y-61731978D01*
X169782554Y-61742620D01*
X169791947Y-61768428D01*
X169821412Y-61806828D01*
X169982078Y-61967494D01*
X170020478Y-61996959D01*
X170029539Y-62000257D01*
X170029541Y-62000258D01*
X170056928Y-62010226D01*
X170114100Y-62052321D01*
X170132234Y-62085531D01*
X170134678Y-62092246D01*
X170145501Y-62121981D01*
X170174966Y-62160381D01*
X170335632Y-62321047D01*
X170374032Y-62350512D01*
X170383093Y-62353810D01*
X170410482Y-62363779D01*
X170467653Y-62405875D01*
X170485787Y-62439085D01*
X170499054Y-62475535D01*
X170528519Y-62513935D01*
X170689185Y-62674601D01*
X170727585Y-62704066D01*
X170736646Y-62707364D01*
X170764035Y-62717333D01*
X170821206Y-62759429D01*
X170839340Y-62792638D01*
X170852607Y-62829088D01*
X170882072Y-62867488D01*
X171042738Y-63028154D01*
X171081138Y-63057619D01*
X171090199Y-63060917D01*
X171090201Y-63060918D01*
X171117588Y-63070886D01*
X171174760Y-63112981D01*
X171192894Y-63146191D01*
X171206161Y-63182641D01*
X171235626Y-63221041D01*
X171396292Y-63381707D01*
X171434692Y-63411172D01*
X171443753Y-63414470D01*
X171471142Y-63424439D01*
X171528313Y-63466535D01*
X171546447Y-63499745D01*
X171559714Y-63536195D01*
X171589179Y-63574595D01*
X171749845Y-63735261D01*
X171788245Y-63764726D01*
X171797306Y-63768024D01*
X171824695Y-63777993D01*
X171881866Y-63820089D01*
X171900000Y-63853298D01*
X171913267Y-63889748D01*
X171942732Y-63928148D01*
X172103398Y-64088814D01*
X172141798Y-64118279D01*
X172150859Y-64121577D01*
X172150861Y-64121578D01*
X172178248Y-64131546D01*
X172235420Y-64173641D01*
X172253554Y-64206852D01*
X172266821Y-64243302D01*
X172272689Y-64250950D01*
X172274734Y-64254677D01*
X172289962Y-64324021D01*
X172265283Y-64390591D01*
X172208532Y-64433249D01*
X172193680Y-64437800D01*
X172154599Y-64447182D01*
X172154596Y-64447183D01*
X172147220Y-64448954D01*
X172006450Y-64521611D01*
X171887075Y-64625749D01*
X171795986Y-64755355D01*
X171780170Y-64795921D01*
X171763510Y-64838653D01*
X171738442Y-64902948D01*
X171737450Y-64910481D01*
X171737450Y-64910482D01*
X171729615Y-64970000D01*
X171717765Y-65060007D01*
X171726457Y-65138736D01*
X171730896Y-65178939D01*
X171735149Y-65217464D01*
X171737759Y-65224595D01*
X171737759Y-65224597D01*
X171780855Y-65342362D01*
X171789589Y-65366230D01*
X171793825Y-65372533D01*
X171793825Y-65372534D01*
X171858857Y-65469311D01*
X171877944Y-65497716D01*
X171883563Y-65502829D01*
X171883564Y-65502830D01*
X171919788Y-65535791D01*
X171995112Y-65604330D01*
X172134329Y-65679919D01*
X172287558Y-65720118D01*
X172371513Y-65721437D01*
X172438355Y-65722487D01*
X172438358Y-65722487D01*
X172445952Y-65722606D01*
X172600368Y-65687240D01*
X172677486Y-65648454D01*
X172735108Y-65619474D01*
X172735111Y-65619472D01*
X172741891Y-65616062D01*
X172747662Y-65611133D01*
X172747665Y-65611131D01*
X172856572Y-65518115D01*
X172856572Y-65518114D01*
X172862350Y-65513180D01*
X172875422Y-65494989D01*
X172931414Y-65451343D01*
X173002117Y-65444897D01*
X173065081Y-65477699D01*
X173100316Y-65539336D01*
X173103742Y-65568517D01*
X173103742Y-65832840D01*
X173083740Y-65900961D01*
X173066837Y-65921935D01*
X168882837Y-70105935D01*
X168874733Y-70113361D01*
X168846628Y-70136944D01*
X168841117Y-70146489D01*
X168841114Y-70146493D01*
X168828285Y-70168714D01*
X168822380Y-70177984D01*
X168801336Y-70208038D01*
X168798482Y-70218690D01*
X168797148Y-70221551D01*
X168796069Y-70224517D01*
X168790556Y-70234064D01*
X168788642Y-70244920D01*
X168788640Y-70244925D01*
X168784184Y-70270194D01*
X168781806Y-70280923D01*
X168779561Y-70289303D01*
X168772311Y-70316361D01*
X168774409Y-70340345D01*
X168775509Y-70352914D01*
X168775988Y-70363896D01*
X168775988Y-72364146D01*
X168755986Y-72432267D01*
X168702330Y-72478760D01*
X168632056Y-72488864D01*
X168567476Y-72459370D01*
X168560892Y-72453241D01*
X168452663Y-72345011D01*
X168165621Y-72057969D01*
X168158196Y-72049866D01*
X168141698Y-72030205D01*
X168134612Y-72021760D01*
X168125067Y-72016249D01*
X168125063Y-72016246D01*
X168102842Y-72003417D01*
X168093572Y-71997512D01*
X168072548Y-71982791D01*
X168063518Y-71976468D01*
X168052866Y-71973614D01*
X168050005Y-71972280D01*
X168047039Y-71971201D01*
X168037492Y-71965688D01*
X168026636Y-71963774D01*
X168026631Y-71963772D01*
X168001362Y-71959316D01*
X167990633Y-71956938D01*
X167965846Y-71950297D01*
X167955195Y-71947443D01*
X167922574Y-71950297D01*
X167918642Y-71950641D01*
X167907660Y-71951120D01*
X167784093Y-71951120D01*
X166799419Y-71951119D01*
X166731298Y-71931117D01*
X166722726Y-71925090D01*
X166713462Y-71917981D01*
X166704401Y-71914683D01*
X166704399Y-71914682D01*
X166677012Y-71904714D01*
X166619840Y-71862619D01*
X166601706Y-71829409D01*
X166588439Y-71792960D01*
X166590633Y-71792161D01*
X166578275Y-71735904D01*
X166602950Y-71669334D01*
X166659827Y-71627171D01*
X166662970Y-71626451D01*
X166669750Y-71623041D01*
X166669753Y-71623040D01*
X166797710Y-71558685D01*
X166797713Y-71558683D01*
X166804493Y-71555273D01*
X166810264Y-71550344D01*
X166810267Y-71550342D01*
X166919174Y-71457326D01*
X166919174Y-71457325D01*
X166924952Y-71452391D01*
X167017393Y-71323746D01*
X167076480Y-71176763D01*
X167093287Y-71058665D01*
X167098219Y-71024013D01*
X167098219Y-71024010D01*
X167098800Y-71019929D01*
X167098945Y-71006122D01*
X167079914Y-70848855D01*
X167023918Y-70700668D01*
X167011490Y-70682585D01*
X166938493Y-70576373D01*
X166938492Y-70576371D01*
X166934191Y-70570114D01*
X166922769Y-70559937D01*
X166859724Y-70503767D01*
X166815913Y-70464733D01*
X166808527Y-70460822D01*
X166682626Y-70394161D01*
X166682627Y-70394161D01*
X166675912Y-70390606D01*
X166522271Y-70352014D01*
X166514672Y-70351974D01*
X166514671Y-70351974D01*
X166448819Y-70351629D01*
X166363859Y-70351184D01*
X166356479Y-70352956D01*
X166356477Y-70352956D01*
X166217201Y-70386393D01*
X166217198Y-70386394D01*
X166209822Y-70388165D01*
X166069052Y-70460822D01*
X165949677Y-70564960D01*
X165858588Y-70694566D01*
X165855828Y-70701646D01*
X165855826Y-70701649D01*
X165821660Y-70789281D01*
X165778280Y-70845483D01*
X165711401Y-70869310D01*
X165653230Y-70856145D01*
X165652802Y-70857321D01*
X165616352Y-70844054D01*
X165559180Y-70801959D01*
X165541046Y-70768748D01*
X165531078Y-70741361D01*
X165531077Y-70741359D01*
X165527779Y-70732298D01*
X165498314Y-70693898D01*
X165337648Y-70533232D01*
X165299248Y-70503767D01*
X165262798Y-70490500D01*
X165205627Y-70448404D01*
X165187493Y-70415195D01*
X165177524Y-70387806D01*
X165174226Y-70378745D01*
X165144761Y-70340345D01*
X164984095Y-70179679D01*
X164945695Y-70150214D01*
X164936634Y-70146916D01*
X164936632Y-70146915D01*
X164909245Y-70136947D01*
X164852073Y-70094852D01*
X164833939Y-70061642D01*
X164823970Y-70034253D01*
X164820672Y-70025192D01*
X164791207Y-69986792D01*
X164789292Y-69984877D01*
X164759556Y-69920772D01*
X164759243Y-69885656D01*
X164764316Y-69847121D01*
X164764316Y-69830742D01*
X164746434Y-69694925D01*
X164742195Y-69679105D01*
X164689773Y-69552547D01*
X164681583Y-69538361D01*
X164650243Y-69497517D01*
X164638650Y-69489052D01*
X164626673Y-69495685D01*
X164384443Y-69737915D01*
X164338442Y-69767221D01*
X164285077Y-69786644D01*
X164214223Y-69791147D01*
X164152183Y-69756628D01*
X164118654Y-69694048D01*
X164123582Y-69625150D01*
X164143007Y-69571780D01*
X164172313Y-69525781D01*
X164414270Y-69283824D01*
X164421151Y-69271223D01*
X164413013Y-69260217D01*
X164371862Y-69228641D01*
X164357684Y-69220455D01*
X164231117Y-69168028D01*
X164215303Y-69163791D01*
X164079484Y-69145910D01*
X164063107Y-69145910D01*
X164024572Y-69150983D01*
X163954423Y-69140043D01*
X163925517Y-69121101D01*
X163923435Y-69119019D01*
X163885035Y-69089554D01*
X163875974Y-69086256D01*
X163875972Y-69086255D01*
X163848585Y-69076287D01*
X163791413Y-69034192D01*
X163773279Y-69000982D01*
X163763310Y-68973593D01*
X163760012Y-68964532D01*
X163730547Y-68926132D01*
X163569881Y-68765466D01*
X163531481Y-68736001D01*
X163495031Y-68722734D01*
X163437860Y-68680638D01*
X163419726Y-68647428D01*
X163409758Y-68620041D01*
X163409757Y-68620039D01*
X163406459Y-68610978D01*
X163376994Y-68572578D01*
X163216328Y-68411912D01*
X163177928Y-68382447D01*
X163168867Y-68379149D01*
X163168865Y-68379148D01*
X163141478Y-68369180D01*
X163084306Y-68327085D01*
X163066172Y-68293875D01*
X163056203Y-68266486D01*
X163052905Y-68257425D01*
X163023440Y-68219025D01*
X162862774Y-68058359D01*
X162824374Y-68028894D01*
X162715182Y-67989151D01*
X162598983Y-67989151D01*
X162489791Y-68028894D01*
X162451391Y-68058359D01*
X161459874Y-69049876D01*
X161430409Y-69088276D01*
X161421558Y-69112595D01*
X161379465Y-69169765D01*
X161313144Y-69195104D01*
X161303157Y-69195500D01*
X161190188Y-69195500D01*
X161183736Y-69196872D01*
X161183731Y-69196872D01*
X161102339Y-69214173D01*
X161014490Y-69232846D01*
X161008460Y-69235531D01*
X161008459Y-69235531D01*
X160856427Y-69303220D01*
X160856425Y-69303221D01*
X160850397Y-69305905D01*
X160845056Y-69309785D01*
X160845055Y-69309786D01*
X160710422Y-69407602D01*
X160710420Y-69407604D01*
X160705078Y-69411485D01*
X160700657Y-69416395D01*
X160700656Y-69416396D01*
X160590839Y-69538361D01*
X160584887Y-69544971D01*
X160581588Y-69550684D01*
X160581585Y-69550689D01*
X160509119Y-69676204D01*
X160457736Y-69725197D01*
X160388023Y-69738633D01*
X160322112Y-69712246D01*
X160280930Y-69654414D01*
X160274000Y-69613204D01*
X160274000Y-67946796D01*
X160294002Y-67878675D01*
X160347658Y-67832182D01*
X160417932Y-67822078D01*
X160482512Y-67851572D01*
X160509119Y-67883796D01*
X160581585Y-68009311D01*
X160581588Y-68009316D01*
X160584887Y-68015029D01*
X160589305Y-68019936D01*
X160589306Y-68019937D01*
X160602657Y-68034765D01*
X160705078Y-68148515D01*
X160710420Y-68152396D01*
X160710422Y-68152398D01*
X160845054Y-68250214D01*
X160850396Y-68254095D01*
X160856424Y-68256779D01*
X160856426Y-68256780D01*
X161008459Y-68324469D01*
X161014490Y-68327154D01*
X161102339Y-68345827D01*
X161183731Y-68363128D01*
X161183736Y-68363128D01*
X161190188Y-68364500D01*
X161369812Y-68364500D01*
X161376264Y-68363128D01*
X161376269Y-68363128D01*
X161457661Y-68345827D01*
X161545510Y-68327154D01*
X161551541Y-68324469D01*
X161703574Y-68256780D01*
X161703576Y-68256779D01*
X161709604Y-68254095D01*
X161714946Y-68250214D01*
X161849578Y-68152398D01*
X161849580Y-68152396D01*
X161854922Y-68148515D01*
X161957343Y-68034765D01*
X161970694Y-68019937D01*
X161970695Y-68019936D01*
X161975113Y-68015029D01*
X162050881Y-67883796D01*
X162061621Y-67865194D01*
X162061622Y-67865193D01*
X162064925Y-67859471D01*
X162078347Y-67818164D01*
X162118391Y-67694918D01*
X162118391Y-67694917D01*
X162120431Y-67688639D01*
X162139207Y-67510000D01*
X162120431Y-67331361D01*
X162088869Y-67234220D01*
X162086842Y-67163252D01*
X162119607Y-67106190D01*
X162292437Y-66933360D01*
X162354749Y-66899334D01*
X162425564Y-66904399D01*
X162458236Y-66922493D01*
X162482139Y-66940835D01*
X162482141Y-66940836D01*
X162489791Y-66946706D01*
X162598983Y-66986449D01*
X162715182Y-66986449D01*
X162824374Y-66946706D01*
X162862774Y-66917241D01*
X163023440Y-66756575D01*
X163052905Y-66718175D01*
X163066172Y-66681725D01*
X163108268Y-66624554D01*
X163141478Y-66606420D01*
X163168865Y-66596452D01*
X163168867Y-66596451D01*
X163177928Y-66593153D01*
X163216328Y-66563688D01*
X163218242Y-66561774D01*
X163282348Y-66532036D01*
X163317466Y-66531723D01*
X163356000Y-66536796D01*
X163372377Y-66536796D01*
X163508194Y-66518914D01*
X163524014Y-66514675D01*
X163650572Y-66462253D01*
X163664758Y-66454063D01*
X163705602Y-66422723D01*
X163714067Y-66411130D01*
X163707434Y-66399153D01*
X163465205Y-66156924D01*
X163435899Y-66110924D01*
X163416475Y-66057558D01*
X163411972Y-65986705D01*
X163446490Y-65924664D01*
X163509070Y-65891134D01*
X163577970Y-65896062D01*
X163631337Y-65915486D01*
X163677337Y-65944792D01*
X163919295Y-66186750D01*
X163931896Y-66193631D01*
X163942902Y-66185493D01*
X163974478Y-66144342D01*
X163982664Y-66130164D01*
X164035091Y-66003597D01*
X164039328Y-65987783D01*
X164057209Y-65851964D01*
X164057209Y-65835587D01*
X164052136Y-65797053D01*
X164063075Y-65726904D01*
X164082021Y-65697995D01*
X164084101Y-65695915D01*
X164113566Y-65657515D01*
X164126833Y-65621065D01*
X164168929Y-65563894D01*
X164202138Y-65545760D01*
X164229527Y-65535791D01*
X164238588Y-65532493D01*
X164276988Y-65503028D01*
X164437654Y-65342362D01*
X164467119Y-65303962D01*
X164480386Y-65267512D01*
X164522481Y-65210340D01*
X164555691Y-65192206D01*
X164583080Y-65182237D01*
X164592141Y-65178939D01*
X164630541Y-65149474D01*
X164791207Y-64988808D01*
X164820672Y-64950408D01*
X164833939Y-64913958D01*
X164876035Y-64856787D01*
X164909245Y-64838653D01*
X164936632Y-64828685D01*
X164936634Y-64828684D01*
X164945695Y-64825386D01*
X164984095Y-64795921D01*
X165144761Y-64635255D01*
X165174226Y-64596855D01*
X165187493Y-64560405D01*
X165229589Y-64503234D01*
X165262798Y-64485100D01*
X165290187Y-64475131D01*
X165299248Y-64471833D01*
X165337648Y-64442368D01*
X165498314Y-64281702D01*
X165527779Y-64243302D01*
X165532699Y-64229786D01*
X165541046Y-64206852D01*
X165583141Y-64149680D01*
X165616352Y-64131546D01*
X165643739Y-64121578D01*
X165643741Y-64121577D01*
X165652802Y-64118279D01*
X165691202Y-64088814D01*
X165851868Y-63928148D01*
X165881333Y-63889748D01*
X165894600Y-63853298D01*
X165936696Y-63796127D01*
X165969905Y-63777993D01*
X165997294Y-63768024D01*
X166006355Y-63764726D01*
X166044755Y-63735261D01*
X166205421Y-63574595D01*
X166234886Y-63536195D01*
X166248153Y-63499745D01*
X166290248Y-63442573D01*
X166323458Y-63424439D01*
X166350847Y-63414470D01*
X166359908Y-63411172D01*
X166398308Y-63381707D01*
X166558974Y-63221041D01*
X166588439Y-63182641D01*
X166601706Y-63146191D01*
X166643802Y-63089020D01*
X166677012Y-63070886D01*
X166704399Y-63060918D01*
X166704401Y-63060917D01*
X166713462Y-63057619D01*
X166751862Y-63028154D01*
X166912528Y-62867488D01*
X166941993Y-62829088D01*
X166955260Y-62792638D01*
X166997356Y-62735467D01*
X167030567Y-62717333D01*
X167045321Y-62711963D01*
X167116174Y-62707460D01*
X167178215Y-62741978D01*
X167198685Y-62774340D01*
X167200732Y-62773297D01*
X167204180Y-62780063D01*
X167206790Y-62787197D01*
X167211026Y-62793500D01*
X167211026Y-62793501D01*
X167234944Y-62829094D01*
X167295145Y-62918683D01*
X167300764Y-62923796D01*
X167300765Y-62923797D01*
X167306825Y-62929311D01*
X167412313Y-63025297D01*
X167551530Y-63100886D01*
X167704759Y-63141085D01*
X167788714Y-63142404D01*
X167855556Y-63143454D01*
X167855559Y-63143454D01*
X167863153Y-63143573D01*
X168017569Y-63108207D01*
X168091774Y-63070886D01*
X168152309Y-63040441D01*
X168152312Y-63040439D01*
X168159092Y-63037029D01*
X168164863Y-63032100D01*
X168164866Y-63032098D01*
X168273773Y-62939082D01*
X168273773Y-62939081D01*
X168279551Y-62934147D01*
X168371992Y-62805502D01*
X168431079Y-62658519D01*
X168438178Y-62608639D01*
X168452818Y-62505769D01*
X168452818Y-62505766D01*
X168453399Y-62501685D01*
X168453544Y-62487878D01*
X168434513Y-62330611D01*
X168378517Y-62182424D01*
X168334675Y-62118633D01*
X168293092Y-62058129D01*
X168293091Y-62058127D01*
X168288790Y-62051870D01*
X168170512Y-61946489D01*
X168072407Y-61894545D01*
X168021564Y-61844993D01*
X168005582Y-61775818D01*
X168012966Y-61740093D01*
X168015921Y-61731975D01*
X168058017Y-61674805D01*
X168091225Y-61656672D01*
X168118614Y-61646703D01*
X168127675Y-61643405D01*
X168166075Y-61613940D01*
X168326741Y-61453274D01*
X168356206Y-61414874D01*
X168395949Y-61305682D01*
X168395949Y-61189483D01*
X168356206Y-61080291D01*
X168326741Y-61041891D01*
X167335224Y-60050374D01*
X167296824Y-60020909D01*
X167187632Y-59981166D01*
X167071433Y-59981166D01*
X166962241Y-60020909D01*
X166923841Y-60050374D01*
X166763175Y-60211040D01*
X166733710Y-60249440D01*
X166730412Y-60258501D01*
X166730411Y-60258503D01*
X166720443Y-60285890D01*
X166678348Y-60343062D01*
X166645138Y-60361196D01*
X166608688Y-60374463D01*
X166570288Y-60403928D01*
X166409622Y-60564594D01*
X166380157Y-60602994D01*
X166376859Y-60612055D01*
X166366890Y-60639444D01*
X166324794Y-60696615D01*
X166291584Y-60714749D01*
X166264197Y-60724717D01*
X166264195Y-60724718D01*
X166255134Y-60728016D01*
X166216734Y-60757481D01*
X166056068Y-60918147D01*
X166026603Y-60956547D01*
X166023305Y-60965608D01*
X166023304Y-60965610D01*
X166013336Y-60992997D01*
X165971241Y-61050169D01*
X165938031Y-61068303D01*
X165910642Y-61078272D01*
X165901581Y-61081570D01*
X165863181Y-61111035D01*
X165752230Y-61221986D01*
X165689918Y-61256012D01*
X165619103Y-61250947D01*
X165574043Y-61221988D01*
X164462331Y-60110277D01*
X164428305Y-60047965D01*
X164425426Y-60021182D01*
X164425426Y-44944675D01*
X164425905Y-44933694D01*
X164428290Y-44906435D01*
X164428290Y-44906434D01*
X164429250Y-44895459D01*
X164419317Y-44858387D01*
X164416941Y-44847669D01*
X164412191Y-44820729D01*
X164412191Y-44820728D01*
X164410277Y-44809875D01*
X164404766Y-44800330D01*
X164403495Y-44796837D01*
X164401920Y-44793459D01*
X164399066Y-44782810D01*
X164392742Y-44773779D01*
X164392741Y-44773776D01*
X164377053Y-44751371D01*
X164371147Y-44742101D01*
X164357476Y-44718422D01*
X164357475Y-44718421D01*
X164351965Y-44708877D01*
X164322566Y-44684209D01*
X164314464Y-44676783D01*
X162127426Y-42489746D01*
X162093401Y-42427434D01*
X162096687Y-42361716D01*
X162120431Y-42288639D01*
X162139207Y-42110000D01*
X162120431Y-41931361D01*
X162086042Y-41825520D01*
X162066967Y-41766813D01*
X162066966Y-41766811D01*
X162064925Y-41760529D01*
X161975113Y-41604971D01*
X161854922Y-41471485D01*
X161709604Y-41365905D01*
X161703576Y-41363221D01*
X161703574Y-41363220D01*
X161551541Y-41295531D01*
X161551540Y-41295531D01*
X161545510Y-41292846D01*
X161457661Y-41274173D01*
X161376269Y-41256872D01*
X161376264Y-41256872D01*
X161369812Y-41255500D01*
X161190188Y-41255500D01*
X161183736Y-41256872D01*
X161183731Y-41256872D01*
X161102339Y-41274173D01*
X161014490Y-41292846D01*
X161008460Y-41295531D01*
X161008459Y-41295531D01*
X160856427Y-41363220D01*
X160856425Y-41363221D01*
X160850397Y-41365905D01*
X160845056Y-41369785D01*
X160845055Y-41369786D01*
X160710422Y-41467602D01*
X160710420Y-41467604D01*
X160705078Y-41471485D01*
X160584887Y-41604971D01*
X160581588Y-41610684D01*
X160581585Y-41610689D01*
X160509119Y-41736204D01*
X160457736Y-41785197D01*
X160388023Y-41798633D01*
X160322112Y-41772246D01*
X160280930Y-41714414D01*
X160274000Y-41673204D01*
X160274000Y-40742162D01*
X160294002Y-40674041D01*
X160347658Y-40627548D01*
X160417932Y-40617444D01*
X160444230Y-40624180D01*
X160562394Y-40668478D01*
X160577649Y-40672105D01*
X160628514Y-40677631D01*
X160635328Y-40678000D01*
X161007885Y-40678000D01*
X161023124Y-40673525D01*
X161024329Y-40672135D01*
X161026000Y-40664452D01*
X161026000Y-40659884D01*
X161534000Y-40659884D01*
X161538475Y-40675123D01*
X161539865Y-40676328D01*
X161547548Y-40677999D01*
X161924669Y-40677999D01*
X161931490Y-40677629D01*
X161982352Y-40672105D01*
X161997604Y-40668479D01*
X162118054Y-40623324D01*
X162133649Y-40614786D01*
X162235724Y-40538285D01*
X162248285Y-40525724D01*
X162324786Y-40423649D01*
X162333324Y-40408054D01*
X162378478Y-40287606D01*
X162382105Y-40272351D01*
X162387631Y-40221486D01*
X162388000Y-40214672D01*
X162388000Y-39842115D01*
X162383525Y-39826876D01*
X162382135Y-39825671D01*
X162374452Y-39824000D01*
X161552115Y-39824000D01*
X161536876Y-39828475D01*
X161535671Y-39829865D01*
X161534000Y-39837548D01*
X161534000Y-40659884D01*
X161026000Y-40659884D01*
X161026000Y-39442000D01*
X161046002Y-39373879D01*
X161099658Y-39327386D01*
X161152000Y-39316000D01*
X162369884Y-39316000D01*
X162385123Y-39311525D01*
X162386328Y-39310135D01*
X162387999Y-39302452D01*
X162387999Y-38925331D01*
X162387629Y-38918510D01*
X162382105Y-38867648D01*
X162378479Y-38852396D01*
X162333324Y-38731946D01*
X162324786Y-38716351D01*
X162248285Y-38614276D01*
X162235724Y-38601715D01*
X162207852Y-38580826D01*
X162165337Y-38523967D01*
X162160311Y-38453148D01*
X162194371Y-38390855D01*
X162256702Y-38356865D01*
X162283417Y-38354000D01*
X167263271Y-38354000D01*
X167331392Y-38374002D01*
G37*
%TD.AperFunction*%
%TA.AperFunction,Conductor*%
G36*
X177487110Y-70342453D02*
G01*
X177534111Y-70395664D01*
X177546000Y-70449094D01*
X177546000Y-72190906D01*
X177525998Y-72259027D01*
X177472342Y-72305520D01*
X177402068Y-72315624D01*
X177337488Y-72286130D01*
X177305890Y-72243500D01*
X177304925Y-72240529D01*
X177215113Y-72084971D01*
X177190801Y-72057969D01*
X177099344Y-71956396D01*
X177099343Y-71956395D01*
X177094922Y-71951485D01*
X177058581Y-71925081D01*
X176954946Y-71849786D01*
X176954945Y-71849785D01*
X176949604Y-71845905D01*
X176943576Y-71843221D01*
X176943574Y-71843220D01*
X176791541Y-71775531D01*
X176791540Y-71775531D01*
X176785510Y-71772846D01*
X176697661Y-71754173D01*
X176616269Y-71736872D01*
X176616264Y-71736872D01*
X176609812Y-71735500D01*
X176430188Y-71735500D01*
X176423736Y-71736872D01*
X176423731Y-71736872D01*
X176254490Y-71772846D01*
X176253978Y-71770436D01*
X176194161Y-71772161D01*
X176137067Y-71739387D01*
X176040563Y-71642883D01*
X176006537Y-71580571D01*
X176003658Y-71553788D01*
X176003658Y-70949500D01*
X176023660Y-70881379D01*
X176077316Y-70834886D01*
X176147590Y-70824782D01*
X176180906Y-70834393D01*
X176248455Y-70864468D01*
X176248463Y-70864471D01*
X176254490Y-70867154D01*
X176342339Y-70885827D01*
X176423731Y-70903128D01*
X176423736Y-70903128D01*
X176430188Y-70904500D01*
X176609812Y-70904500D01*
X176616264Y-70903128D01*
X176616269Y-70903128D01*
X176697661Y-70885827D01*
X176785510Y-70867154D01*
X176802551Y-70859567D01*
X176943574Y-70796780D01*
X176943576Y-70796779D01*
X176949604Y-70794095D01*
X176956230Y-70789281D01*
X177089578Y-70692398D01*
X177089580Y-70692396D01*
X177094922Y-70688515D01*
X177099344Y-70683604D01*
X177210694Y-70559937D01*
X177210695Y-70559936D01*
X177215113Y-70555029D01*
X177290881Y-70423796D01*
X177301624Y-70405189D01*
X177301625Y-70405187D01*
X177304925Y-70399471D01*
X177305800Y-70396778D01*
X177350874Y-70343749D01*
X177418802Y-70323100D01*
X177487110Y-70342453D01*
G37*
%TD.AperFunction*%
%TA.AperFunction,Conductor*%
G36*
X160482512Y-70391572D02*
G01*
X160509119Y-70423796D01*
X160581585Y-70549311D01*
X160581588Y-70549316D01*
X160584887Y-70555029D01*
X160589305Y-70559936D01*
X160589306Y-70559937D01*
X160700656Y-70683604D01*
X160705078Y-70688515D01*
X160710420Y-70692396D01*
X160710422Y-70692398D01*
X160843770Y-70789281D01*
X160850396Y-70794095D01*
X160856424Y-70796779D01*
X160856426Y-70796780D01*
X160997449Y-70859567D01*
X161014490Y-70867154D01*
X161102339Y-70885827D01*
X161183731Y-70903128D01*
X161183736Y-70903128D01*
X161190188Y-70904500D01*
X161369812Y-70904500D01*
X161376264Y-70903128D01*
X161376269Y-70903128D01*
X161457661Y-70885827D01*
X161545510Y-70867154D01*
X161562551Y-70859567D01*
X161632917Y-70850131D01*
X161697214Y-70880237D01*
X161735029Y-70940325D01*
X161739801Y-70974673D01*
X161739801Y-71610329D01*
X161719799Y-71678450D01*
X161702896Y-71699424D01*
X161662933Y-71739387D01*
X161600621Y-71773413D01*
X161545972Y-71770672D01*
X161545510Y-71772846D01*
X161376269Y-71736872D01*
X161376264Y-71736872D01*
X161369812Y-71735500D01*
X161190188Y-71735500D01*
X161183736Y-71736872D01*
X161183731Y-71736872D01*
X161102339Y-71754173D01*
X161014490Y-71772846D01*
X161008460Y-71775531D01*
X161008459Y-71775531D01*
X160856427Y-71843220D01*
X160856425Y-71843221D01*
X160850397Y-71845905D01*
X160845056Y-71849785D01*
X160845055Y-71849786D01*
X160710422Y-71947602D01*
X160710420Y-71947604D01*
X160705078Y-71951485D01*
X160700657Y-71956395D01*
X160700656Y-71956396D01*
X160609200Y-72057969D01*
X160584887Y-72084971D01*
X160581588Y-72090684D01*
X160581585Y-72090689D01*
X160509119Y-72216204D01*
X160457736Y-72265197D01*
X160388023Y-72278633D01*
X160322112Y-72252246D01*
X160280930Y-72194414D01*
X160274000Y-72153204D01*
X160274000Y-70486796D01*
X160294002Y-70418675D01*
X160347658Y-70372182D01*
X160417932Y-70362078D01*
X160482512Y-70391572D01*
G37*
%TD.AperFunction*%
%TA.AperFunction,Conductor*%
G36*
X177487110Y-65262453D02*
G01*
X177534111Y-65315664D01*
X177546000Y-65369094D01*
X177546000Y-67110906D01*
X177525998Y-67179027D01*
X177472342Y-67225520D01*
X177402068Y-67235624D01*
X177337488Y-67206130D01*
X177305890Y-67163500D01*
X177304925Y-67160529D01*
X177215113Y-67004971D01*
X177195041Y-66982678D01*
X177099344Y-66876396D01*
X177099343Y-66876395D01*
X177094922Y-66871485D01*
X177059602Y-66845823D01*
X176954946Y-66769786D01*
X176954945Y-66769785D01*
X176949604Y-66765905D01*
X176943576Y-66763221D01*
X176943574Y-66763220D01*
X176791541Y-66695531D01*
X176791540Y-66695531D01*
X176785510Y-66692846D01*
X176697661Y-66674173D01*
X176616269Y-66656872D01*
X176616264Y-66656872D01*
X176609812Y-66655500D01*
X176430188Y-66655500D01*
X176423736Y-66656872D01*
X176423731Y-66656872D01*
X176342339Y-66674173D01*
X176254490Y-66692846D01*
X176248460Y-66695531D01*
X176248459Y-66695531D01*
X176096427Y-66763220D01*
X176096425Y-66763221D01*
X176090397Y-66765905D01*
X176085056Y-66769785D01*
X176085055Y-66769786D01*
X175950422Y-66867602D01*
X175950420Y-66867604D01*
X175945078Y-66871485D01*
X175940657Y-66876395D01*
X175940656Y-66876396D01*
X175844960Y-66982678D01*
X175824887Y-67004971D01*
X175766764Y-67105642D01*
X175760611Y-67116300D01*
X175709228Y-67165293D01*
X175651492Y-67179300D01*
X175369425Y-67179300D01*
X175301304Y-67159298D01*
X175254811Y-67105642D01*
X175244707Y-67035368D01*
X175274201Y-66970788D01*
X175303381Y-66947226D01*
X175304809Y-66946706D01*
X175343209Y-66917241D01*
X176334726Y-65925724D01*
X176364191Y-65887324D01*
X176364476Y-65886540D01*
X176411408Y-65839793D01*
X176471575Y-65824500D01*
X176609812Y-65824500D01*
X176616264Y-65823128D01*
X176616269Y-65823128D01*
X176697661Y-65805827D01*
X176785510Y-65787154D01*
X176791541Y-65784469D01*
X176943574Y-65716780D01*
X176943576Y-65716779D01*
X176949604Y-65714095D01*
X176954946Y-65710214D01*
X177089578Y-65612398D01*
X177089580Y-65612396D01*
X177094922Y-65608515D01*
X177180762Y-65513180D01*
X177210694Y-65479937D01*
X177210695Y-65479936D01*
X177215113Y-65475029D01*
X177267360Y-65384535D01*
X177301624Y-65325189D01*
X177301625Y-65325187D01*
X177304925Y-65319471D01*
X177305800Y-65316778D01*
X177350874Y-65263749D01*
X177418802Y-65243100D01*
X177487110Y-65262453D01*
G37*
%TD.AperFunction*%
%TA.AperFunction,Conductor*%
G36*
X175279089Y-62049343D02*
G01*
X175332001Y-62096682D01*
X175350935Y-62163112D01*
X175350935Y-63696275D01*
X175330933Y-63764396D01*
X175314030Y-63785370D01*
X175104734Y-63994666D01*
X175042422Y-64028692D01*
X174971607Y-64023627D01*
X174914771Y-63981080D01*
X174890717Y-63922019D01*
X174875739Y-63808261D01*
X174871500Y-63792441D01*
X174819078Y-63665883D01*
X174810888Y-63651697D01*
X174779548Y-63610853D01*
X174767955Y-63602388D01*
X174755978Y-63609021D01*
X174513748Y-63851251D01*
X174467748Y-63880557D01*
X174414381Y-63899981D01*
X174343529Y-63904484D01*
X174281488Y-63869966D01*
X174247958Y-63807386D01*
X174252886Y-63738485D01*
X174254060Y-63735261D01*
X174272310Y-63685119D01*
X174301616Y-63639119D01*
X174543575Y-63397160D01*
X174550456Y-63384559D01*
X174542318Y-63373553D01*
X174501167Y-63341977D01*
X174486989Y-63333791D01*
X174360422Y-63281364D01*
X174344608Y-63277127D01*
X174230849Y-63262150D01*
X174165922Y-63233427D01*
X174126831Y-63174162D01*
X174125986Y-63103170D01*
X174158201Y-63048133D01*
X175113945Y-62092389D01*
X175122049Y-62084962D01*
X175143944Y-62066590D01*
X175208985Y-62038126D01*
X175279089Y-62049343D01*
G37*
%TD.AperFunction*%
%TA.AperFunction,Conductor*%
G36*
X177487110Y-60182453D02*
G01*
X177534111Y-60235664D01*
X177546000Y-60289094D01*
X177546000Y-62030906D01*
X177525998Y-62099027D01*
X177472342Y-62145520D01*
X177402068Y-62155624D01*
X177337488Y-62126130D01*
X177305890Y-62083500D01*
X177304925Y-62080529D01*
X177296878Y-62066590D01*
X177250555Y-61986358D01*
X177215113Y-61924971D01*
X177187718Y-61894545D01*
X177099344Y-61796396D01*
X177099343Y-61796395D01*
X177094922Y-61791485D01*
X177073359Y-61775818D01*
X176954946Y-61689786D01*
X176954945Y-61689785D01*
X176949604Y-61685905D01*
X176943576Y-61683221D01*
X176943574Y-61683220D01*
X176791541Y-61615531D01*
X176791540Y-61615531D01*
X176785510Y-61612846D01*
X176697661Y-61594173D01*
X176616269Y-61576872D01*
X176616264Y-61576872D01*
X176609812Y-61575500D01*
X176430188Y-61575500D01*
X176423736Y-61576872D01*
X176423731Y-61576872D01*
X176342339Y-61594173D01*
X176254490Y-61612846D01*
X176248460Y-61615531D01*
X176248459Y-61615531D01*
X176189584Y-61641744D01*
X176119217Y-61651178D01*
X176054920Y-61621072D01*
X176017106Y-61560983D01*
X176012335Y-61526637D01*
X176012335Y-60917535D01*
X176032337Y-60849414D01*
X176049240Y-60828440D01*
X176137067Y-60740613D01*
X176199379Y-60706587D01*
X176254028Y-60709328D01*
X176254490Y-60707154D01*
X176423731Y-60743128D01*
X176423736Y-60743128D01*
X176430188Y-60744500D01*
X176609812Y-60744500D01*
X176616264Y-60743128D01*
X176616269Y-60743128D01*
X176702883Y-60724717D01*
X176785510Y-60707154D01*
X176791541Y-60704469D01*
X176943574Y-60636780D01*
X176943576Y-60636779D01*
X176949604Y-60634095D01*
X176963292Y-60624150D01*
X177089578Y-60532398D01*
X177089580Y-60532396D01*
X177094922Y-60528515D01*
X177131542Y-60487844D01*
X177210694Y-60399937D01*
X177210695Y-60399936D01*
X177215113Y-60395029D01*
X177290881Y-60263796D01*
X177301624Y-60245189D01*
X177301625Y-60245187D01*
X177304925Y-60239471D01*
X177305800Y-60236778D01*
X177350874Y-60183749D01*
X177418802Y-60163100D01*
X177487110Y-60182453D01*
G37*
%TD.AperFunction*%
%TA.AperFunction,Conductor*%
G36*
X160482512Y-60231572D02*
G01*
X160509119Y-60263796D01*
X160581585Y-60389311D01*
X160581588Y-60389316D01*
X160584887Y-60395029D01*
X160589305Y-60399936D01*
X160589306Y-60399937D01*
X160668458Y-60487844D01*
X160705078Y-60528515D01*
X160710420Y-60532396D01*
X160710422Y-60532398D01*
X160836708Y-60624150D01*
X160850396Y-60634095D01*
X160856424Y-60636779D01*
X160856426Y-60636780D01*
X161008459Y-60704469D01*
X161014490Y-60707154D01*
X161097117Y-60724717D01*
X161183731Y-60743128D01*
X161183736Y-60743128D01*
X161190188Y-60744500D01*
X161369812Y-60744500D01*
X161376264Y-60743128D01*
X161376269Y-60743128D01*
X161545510Y-60707154D01*
X161546022Y-60709564D01*
X161605839Y-60707839D01*
X161662933Y-60740613D01*
X161771250Y-60848930D01*
X161805276Y-60911242D01*
X161808155Y-60938025D01*
X161808155Y-61535760D01*
X161788153Y-61603881D01*
X161734497Y-61650374D01*
X161664223Y-61660478D01*
X161630909Y-61650868D01*
X161563986Y-61621072D01*
X161551541Y-61615531D01*
X161551540Y-61615531D01*
X161545510Y-61612846D01*
X161457661Y-61594173D01*
X161376269Y-61576872D01*
X161376264Y-61576872D01*
X161369812Y-61575500D01*
X161190188Y-61575500D01*
X161183736Y-61576872D01*
X161183731Y-61576872D01*
X161102339Y-61594173D01*
X161014490Y-61612846D01*
X161008460Y-61615531D01*
X161008459Y-61615531D01*
X160856427Y-61683220D01*
X160856425Y-61683221D01*
X160850397Y-61685905D01*
X160845056Y-61689785D01*
X160845055Y-61689786D01*
X160710422Y-61787602D01*
X160710420Y-61787604D01*
X160705078Y-61791485D01*
X160700657Y-61796395D01*
X160700656Y-61796396D01*
X160612283Y-61894545D01*
X160584887Y-61924971D01*
X160581588Y-61930684D01*
X160581585Y-61930689D01*
X160509119Y-62056204D01*
X160457736Y-62105197D01*
X160388023Y-62118633D01*
X160322112Y-62092246D01*
X160280930Y-62034414D01*
X160274000Y-61993204D01*
X160274000Y-60326796D01*
X160294002Y-60258675D01*
X160347658Y-60212182D01*
X160417932Y-60202078D01*
X160482512Y-60231572D01*
G37*
%TD.AperFunction*%
%TA.AperFunction,Conductor*%
G36*
X177487110Y-57642453D02*
G01*
X177534111Y-57695664D01*
X177546000Y-57749094D01*
X177546000Y-59490906D01*
X177525998Y-59559027D01*
X177472342Y-59605520D01*
X177402068Y-59615624D01*
X177337488Y-59586130D01*
X177305890Y-59543500D01*
X177304925Y-59540529D01*
X177215113Y-59384971D01*
X177094922Y-59251485D01*
X176949604Y-59145905D01*
X176943576Y-59143221D01*
X176943574Y-59143220D01*
X176791541Y-59075531D01*
X176791540Y-59075531D01*
X176785510Y-59072846D01*
X176697661Y-59054173D01*
X176616269Y-59036872D01*
X176616264Y-59036872D01*
X176609812Y-59035500D01*
X176430188Y-59035500D01*
X176423736Y-59036872D01*
X176423731Y-59036872D01*
X176342339Y-59054173D01*
X176254490Y-59072846D01*
X176248460Y-59075531D01*
X176248459Y-59075531D01*
X176096427Y-59143220D01*
X176096425Y-59143221D01*
X176090397Y-59145905D01*
X176085056Y-59149785D01*
X176085055Y-59149786D01*
X175950422Y-59247602D01*
X175950420Y-59247604D01*
X175945078Y-59251485D01*
X175824887Y-59384971D01*
X175735075Y-59540529D01*
X175733034Y-59546811D01*
X175733033Y-59546813D01*
X175713958Y-59605520D01*
X175679569Y-59711361D01*
X175660793Y-59890000D01*
X175679569Y-60068639D01*
X175681608Y-60074913D01*
X175703313Y-60141716D01*
X175705339Y-60212684D01*
X175672574Y-60269746D01*
X175461903Y-60480417D01*
X175453799Y-60487844D01*
X175431904Y-60506216D01*
X175366863Y-60534680D01*
X175296759Y-60523463D01*
X175243847Y-60476124D01*
X175224913Y-60409694D01*
X175224913Y-59164957D01*
X175244915Y-59096836D01*
X175261818Y-59075862D01*
X176137067Y-58200613D01*
X176199379Y-58166587D01*
X176254028Y-58169328D01*
X176254490Y-58167154D01*
X176423731Y-58203128D01*
X176423736Y-58203128D01*
X176430188Y-58204500D01*
X176609812Y-58204500D01*
X176616264Y-58203128D01*
X176616269Y-58203128D01*
X176697661Y-58185827D01*
X176785510Y-58167154D01*
X176791541Y-58164469D01*
X176943574Y-58096780D01*
X176943576Y-58096779D01*
X176949604Y-58094095D01*
X177094922Y-57988515D01*
X177215113Y-57855029D01*
X177276275Y-57749094D01*
X177301624Y-57705189D01*
X177301625Y-57705187D01*
X177304925Y-57699471D01*
X177305800Y-57696778D01*
X177350874Y-57643749D01*
X177418802Y-57623100D01*
X177487110Y-57642453D01*
G37*
%TD.AperFunction*%
%TA.AperFunction,Conductor*%
G36*
X160482512Y-57691572D02*
G01*
X160509119Y-57723796D01*
X160581585Y-57849311D01*
X160581588Y-57849316D01*
X160584887Y-57855029D01*
X160705078Y-57988515D01*
X160850396Y-58094095D01*
X160856424Y-58096779D01*
X160856426Y-58096780D01*
X161008459Y-58164469D01*
X161014490Y-58167154D01*
X161102339Y-58185827D01*
X161183731Y-58203128D01*
X161183736Y-58203128D01*
X161190188Y-58204500D01*
X161369812Y-58204500D01*
X161376264Y-58203128D01*
X161376269Y-58203128D01*
X161545510Y-58167154D01*
X161546022Y-58169564D01*
X161605839Y-58167839D01*
X161662933Y-58200613D01*
X162050661Y-58588341D01*
X162084687Y-58650653D01*
X162087566Y-58677436D01*
X162087566Y-59181622D01*
X162067564Y-59249743D01*
X162013908Y-59296236D01*
X161943634Y-59306340D01*
X161879054Y-59276846D01*
X161867938Y-59265941D01*
X161854922Y-59251485D01*
X161709604Y-59145905D01*
X161703576Y-59143221D01*
X161703574Y-59143220D01*
X161551541Y-59075531D01*
X161551540Y-59075531D01*
X161545510Y-59072846D01*
X161457661Y-59054173D01*
X161376269Y-59036872D01*
X161376264Y-59036872D01*
X161369812Y-59035500D01*
X161190188Y-59035500D01*
X161183736Y-59036872D01*
X161183731Y-59036872D01*
X161102339Y-59054173D01*
X161014490Y-59072846D01*
X161008460Y-59075531D01*
X161008459Y-59075531D01*
X160856427Y-59143220D01*
X160856425Y-59143221D01*
X160850397Y-59145905D01*
X160845056Y-59149785D01*
X160845055Y-59149786D01*
X160710422Y-59247602D01*
X160710420Y-59247604D01*
X160705078Y-59251485D01*
X160584887Y-59384971D01*
X160581588Y-59390684D01*
X160581585Y-59390689D01*
X160509119Y-59516204D01*
X160457736Y-59565197D01*
X160388023Y-59578633D01*
X160322112Y-59552246D01*
X160280930Y-59494414D01*
X160274000Y-59453204D01*
X160274000Y-57786796D01*
X160294002Y-57718675D01*
X160347658Y-57672182D01*
X160417932Y-57662078D01*
X160482512Y-57691572D01*
G37*
%TD.AperFunction*%
%TA.AperFunction,Conductor*%
G36*
X177487110Y-55102453D02*
G01*
X177534111Y-55155664D01*
X177546000Y-55209094D01*
X177546000Y-56950906D01*
X177525998Y-57019027D01*
X177472342Y-57065520D01*
X177402068Y-57075624D01*
X177337488Y-57046130D01*
X177305890Y-57003500D01*
X177304925Y-57000529D01*
X177215113Y-56844971D01*
X177094922Y-56711485D01*
X176949604Y-56605905D01*
X176943576Y-56603221D01*
X176943574Y-56603220D01*
X176791541Y-56535531D01*
X176791540Y-56535531D01*
X176785510Y-56532846D01*
X176697661Y-56514173D01*
X176616269Y-56496872D01*
X176616264Y-56496872D01*
X176609812Y-56495500D01*
X176430188Y-56495500D01*
X176423736Y-56496872D01*
X176423731Y-56496872D01*
X176342339Y-56514173D01*
X176254490Y-56532846D01*
X176248460Y-56535531D01*
X176248459Y-56535531D01*
X176096427Y-56603220D01*
X176096425Y-56603221D01*
X176090397Y-56605905D01*
X176085056Y-56609785D01*
X176085055Y-56609786D01*
X175950422Y-56707602D01*
X175950420Y-56707604D01*
X175945078Y-56711485D01*
X175824887Y-56844971D01*
X175735075Y-57000529D01*
X175733034Y-57006811D01*
X175733033Y-57006813D01*
X175713958Y-57065520D01*
X175679569Y-57171361D01*
X175660793Y-57350000D01*
X175679569Y-57528639D01*
X175681608Y-57534913D01*
X175703313Y-57601716D01*
X175705339Y-57672684D01*
X175672574Y-57729746D01*
X175160597Y-58241723D01*
X175098285Y-58275749D01*
X175027470Y-58270684D01*
X174970634Y-58228137D01*
X174945823Y-58161617D01*
X174945502Y-58152628D01*
X174945502Y-56904368D01*
X174965504Y-56836247D01*
X174982407Y-56815273D01*
X176137067Y-55660613D01*
X176199379Y-55626587D01*
X176254028Y-55629328D01*
X176254490Y-55627154D01*
X176423731Y-55663128D01*
X176423736Y-55663128D01*
X176430188Y-55664500D01*
X176609812Y-55664500D01*
X176616264Y-55663128D01*
X176616269Y-55663128D01*
X176697661Y-55645827D01*
X176785510Y-55627154D01*
X176843609Y-55601287D01*
X176943574Y-55556780D01*
X176943576Y-55556779D01*
X176949604Y-55554095D01*
X177094922Y-55448515D01*
X177215113Y-55315029D01*
X177290881Y-55183796D01*
X177301624Y-55165189D01*
X177301625Y-55165187D01*
X177304925Y-55159471D01*
X177305800Y-55156778D01*
X177350874Y-55103749D01*
X177418802Y-55083100D01*
X177487110Y-55102453D01*
G37*
%TD.AperFunction*%
%TA.AperFunction,Conductor*%
G36*
X160482512Y-55151572D02*
G01*
X160509119Y-55183796D01*
X160581585Y-55309311D01*
X160581588Y-55309316D01*
X160584887Y-55315029D01*
X160705078Y-55448515D01*
X160850396Y-55554095D01*
X160856424Y-55556779D01*
X160856426Y-55556780D01*
X160956391Y-55601287D01*
X161014490Y-55627154D01*
X161102339Y-55645827D01*
X161183731Y-55663128D01*
X161183736Y-55663128D01*
X161190188Y-55664500D01*
X161369812Y-55664500D01*
X161376264Y-55663128D01*
X161376269Y-55663128D01*
X161545510Y-55627154D01*
X161546022Y-55629564D01*
X161605839Y-55627839D01*
X161662933Y-55660613D01*
X162330070Y-56327750D01*
X162364096Y-56390062D01*
X162366975Y-56416845D01*
X162366975Y-57135770D01*
X162346973Y-57203891D01*
X162293317Y-57250384D01*
X162223043Y-57260488D01*
X162158463Y-57230994D01*
X162120488Y-57171905D01*
X162120431Y-57171361D01*
X162079742Y-57046130D01*
X162066967Y-57006813D01*
X162066966Y-57006811D01*
X162064925Y-57000529D01*
X161975113Y-56844971D01*
X161854922Y-56711485D01*
X161709604Y-56605905D01*
X161703576Y-56603221D01*
X161703574Y-56603220D01*
X161551541Y-56535531D01*
X161551540Y-56535531D01*
X161545510Y-56532846D01*
X161457661Y-56514173D01*
X161376269Y-56496872D01*
X161376264Y-56496872D01*
X161369812Y-56495500D01*
X161190188Y-56495500D01*
X161183736Y-56496872D01*
X161183731Y-56496872D01*
X161102339Y-56514173D01*
X161014490Y-56532846D01*
X161008460Y-56535531D01*
X161008459Y-56535531D01*
X160856427Y-56603220D01*
X160856425Y-56603221D01*
X160850397Y-56605905D01*
X160845056Y-56609785D01*
X160845055Y-56609786D01*
X160710422Y-56707602D01*
X160710420Y-56707604D01*
X160705078Y-56711485D01*
X160584887Y-56844971D01*
X160581588Y-56850684D01*
X160581585Y-56850689D01*
X160509119Y-56976204D01*
X160457736Y-57025197D01*
X160388023Y-57038633D01*
X160322112Y-57012246D01*
X160280930Y-56954414D01*
X160274000Y-56913204D01*
X160274000Y-55246796D01*
X160294002Y-55178675D01*
X160347658Y-55132182D01*
X160417932Y-55122078D01*
X160482512Y-55151572D01*
G37*
%TD.AperFunction*%
%TA.AperFunction,Conductor*%
G36*
X177487110Y-52562453D02*
G01*
X177534111Y-52615664D01*
X177546000Y-52669094D01*
X177546000Y-54410906D01*
X177525998Y-54479027D01*
X177472342Y-54525520D01*
X177402068Y-54535624D01*
X177337488Y-54506130D01*
X177305890Y-54463500D01*
X177304925Y-54460529D01*
X177215113Y-54304971D01*
X177094922Y-54171485D01*
X177073962Y-54156256D01*
X176954946Y-54069786D01*
X176954945Y-54069785D01*
X176949604Y-54065905D01*
X176943576Y-54063221D01*
X176943574Y-54063220D01*
X176791541Y-53995531D01*
X176791540Y-53995531D01*
X176785510Y-53992846D01*
X176697661Y-53974173D01*
X176616269Y-53956872D01*
X176616264Y-53956872D01*
X176609812Y-53955500D01*
X176430188Y-53955500D01*
X176423736Y-53956872D01*
X176423731Y-53956872D01*
X176342339Y-53974173D01*
X176254490Y-53992846D01*
X176248460Y-53995531D01*
X176248459Y-53995531D01*
X176096427Y-54063220D01*
X176096425Y-54063221D01*
X176090397Y-54065905D01*
X176085056Y-54069785D01*
X176085055Y-54069786D01*
X175950422Y-54167602D01*
X175950420Y-54167604D01*
X175945078Y-54171485D01*
X175824887Y-54304971D01*
X175735075Y-54460529D01*
X175733034Y-54466811D01*
X175733033Y-54466813D01*
X175681609Y-54625082D01*
X175679569Y-54631361D01*
X175660793Y-54810000D01*
X175679569Y-54988639D01*
X175681608Y-54994913D01*
X175703313Y-55061716D01*
X175705339Y-55132684D01*
X175672574Y-55189746D01*
X174881678Y-55980642D01*
X174819366Y-56014668D01*
X174748551Y-56009603D01*
X174691715Y-55967056D01*
X174666904Y-55900536D01*
X174666583Y-55891547D01*
X174666582Y-54625328D01*
X174686584Y-54557207D01*
X174703487Y-54536233D01*
X176123511Y-53116209D01*
X176185823Y-53082183D01*
X176250604Y-53085424D01*
X176254490Y-53087154D01*
X176260943Y-53088526D01*
X176260944Y-53088526D01*
X176423731Y-53123128D01*
X176423736Y-53123128D01*
X176430188Y-53124500D01*
X176609812Y-53124500D01*
X176616264Y-53123128D01*
X176616269Y-53123128D01*
X176697661Y-53105827D01*
X176785510Y-53087154D01*
X176856034Y-53055755D01*
X176943574Y-53016780D01*
X176943576Y-53016779D01*
X176949604Y-53014095D01*
X177094922Y-52908515D01*
X177215113Y-52775029D01*
X177290881Y-52643796D01*
X177301624Y-52625189D01*
X177301625Y-52625187D01*
X177304925Y-52619471D01*
X177305800Y-52616778D01*
X177350874Y-52563749D01*
X177418802Y-52543100D01*
X177487110Y-52562453D01*
G37*
%TD.AperFunction*%
%TA.AperFunction,Conductor*%
G36*
X160482512Y-52611572D02*
G01*
X160509119Y-52643796D01*
X160581585Y-52769311D01*
X160581588Y-52769316D01*
X160584887Y-52775029D01*
X160705078Y-52908515D01*
X160850396Y-53014095D01*
X160856424Y-53016779D01*
X160856426Y-53016780D01*
X160943966Y-53055755D01*
X161014490Y-53087154D01*
X161102339Y-53105827D01*
X161183731Y-53123128D01*
X161183736Y-53123128D01*
X161190188Y-53124500D01*
X161369812Y-53124500D01*
X161376264Y-53123128D01*
X161376269Y-53123128D01*
X161545510Y-53087154D01*
X161546022Y-53089564D01*
X161605839Y-53087839D01*
X161662933Y-53120613D01*
X162609481Y-54067161D01*
X162643507Y-54129473D01*
X162646386Y-54156256D01*
X162646386Y-55404516D01*
X162626384Y-55472637D01*
X162572728Y-55519130D01*
X162502454Y-55529234D01*
X162437874Y-55499740D01*
X162431291Y-55493611D01*
X162127426Y-55189746D01*
X162093400Y-55127434D01*
X162096687Y-55061716D01*
X162118392Y-54994913D01*
X162120431Y-54988639D01*
X162139207Y-54810000D01*
X162120431Y-54631361D01*
X162118391Y-54625082D01*
X162066967Y-54466813D01*
X162066966Y-54466811D01*
X162064925Y-54460529D01*
X161975113Y-54304971D01*
X161854922Y-54171485D01*
X161833962Y-54156256D01*
X161714946Y-54069786D01*
X161714945Y-54069785D01*
X161709604Y-54065905D01*
X161703576Y-54063221D01*
X161703574Y-54063220D01*
X161551541Y-53995531D01*
X161551540Y-53995531D01*
X161545510Y-53992846D01*
X161457661Y-53974173D01*
X161376269Y-53956872D01*
X161376264Y-53956872D01*
X161369812Y-53955500D01*
X161190188Y-53955500D01*
X161183736Y-53956872D01*
X161183731Y-53956872D01*
X161102339Y-53974173D01*
X161014490Y-53992846D01*
X161008460Y-53995531D01*
X161008459Y-53995531D01*
X160856427Y-54063220D01*
X160856425Y-54063221D01*
X160850397Y-54065905D01*
X160845056Y-54069785D01*
X160845055Y-54069786D01*
X160710422Y-54167602D01*
X160710420Y-54167604D01*
X160705078Y-54171485D01*
X160584887Y-54304971D01*
X160581588Y-54310684D01*
X160581585Y-54310689D01*
X160509119Y-54436204D01*
X160457736Y-54485197D01*
X160388023Y-54498633D01*
X160322112Y-54472246D01*
X160280930Y-54414414D01*
X160274000Y-54373204D01*
X160274000Y-52706796D01*
X160294002Y-52638675D01*
X160347658Y-52592182D01*
X160417932Y-52582078D01*
X160482512Y-52611572D01*
G37*
%TD.AperFunction*%
%TA.AperFunction,Conductor*%
G36*
X177487110Y-50022453D02*
G01*
X177534111Y-50075664D01*
X177546000Y-50129094D01*
X177546000Y-51870906D01*
X177525998Y-51939027D01*
X177472342Y-51985520D01*
X177402068Y-51995624D01*
X177337488Y-51966130D01*
X177305890Y-51923500D01*
X177304925Y-51920529D01*
X177275107Y-51868882D01*
X177218414Y-51770689D01*
X177215113Y-51764971D01*
X177103254Y-51640738D01*
X177099344Y-51636396D01*
X177099343Y-51636395D01*
X177094922Y-51631485D01*
X176949604Y-51525905D01*
X176943576Y-51523221D01*
X176943574Y-51523220D01*
X176791541Y-51455531D01*
X176791540Y-51455531D01*
X176785510Y-51452846D01*
X176697661Y-51434173D01*
X176616269Y-51416872D01*
X176616264Y-51416872D01*
X176609812Y-51415500D01*
X176430188Y-51415500D01*
X176423736Y-51416872D01*
X176423731Y-51416872D01*
X176342339Y-51434173D01*
X176254490Y-51452846D01*
X176248460Y-51455531D01*
X176248459Y-51455531D01*
X176096427Y-51523220D01*
X176096425Y-51523221D01*
X176090397Y-51525905D01*
X176085056Y-51529785D01*
X176085055Y-51529786D01*
X175950422Y-51627602D01*
X175950420Y-51627604D01*
X175945078Y-51631485D01*
X175940657Y-51636395D01*
X175940656Y-51636396D01*
X175936747Y-51640738D01*
X175824887Y-51764971D01*
X175735075Y-51920529D01*
X175733034Y-51926811D01*
X175733033Y-51926813D01*
X175713958Y-51985520D01*
X175679569Y-52091361D01*
X175660793Y-52270000D01*
X175679569Y-52448639D01*
X175707717Y-52535272D01*
X175709744Y-52606238D01*
X175676979Y-52663301D01*
X174628157Y-53712123D01*
X174565845Y-53746149D01*
X174495030Y-53741084D01*
X174438194Y-53698537D01*
X174413383Y-53632017D01*
X174413062Y-53623028D01*
X174413062Y-52338848D01*
X174433064Y-52270727D01*
X174449967Y-52249753D01*
X176123511Y-50576209D01*
X176185823Y-50542183D01*
X176250604Y-50545424D01*
X176254490Y-50547154D01*
X176260943Y-50548526D01*
X176260944Y-50548526D01*
X176423731Y-50583128D01*
X176423736Y-50583128D01*
X176430188Y-50584500D01*
X176609812Y-50584500D01*
X176616264Y-50583128D01*
X176616269Y-50583128D01*
X176697661Y-50565827D01*
X176785510Y-50547154D01*
X176856034Y-50515755D01*
X176943574Y-50476780D01*
X176943576Y-50476779D01*
X176949604Y-50474095D01*
X177094922Y-50368515D01*
X177215113Y-50235029D01*
X177290881Y-50103796D01*
X177301624Y-50085189D01*
X177301625Y-50085187D01*
X177304925Y-50079471D01*
X177305800Y-50076778D01*
X177350874Y-50023749D01*
X177418802Y-50003100D01*
X177487110Y-50022453D01*
G37*
%TD.AperFunction*%
%TA.AperFunction,Conductor*%
G36*
X160482512Y-50071572D02*
G01*
X160509119Y-50103796D01*
X160581585Y-50229311D01*
X160581588Y-50229316D01*
X160584887Y-50235029D01*
X160705078Y-50368515D01*
X160850396Y-50474095D01*
X160856424Y-50476779D01*
X160856426Y-50476780D01*
X160943966Y-50515755D01*
X161014490Y-50547154D01*
X161102339Y-50565827D01*
X161183731Y-50583128D01*
X161183736Y-50583128D01*
X161190188Y-50584500D01*
X161369812Y-50584500D01*
X161376264Y-50583128D01*
X161376269Y-50583128D01*
X161545510Y-50547154D01*
X161546022Y-50549564D01*
X161605839Y-50547839D01*
X161662933Y-50580613D01*
X162888890Y-51806570D01*
X162922916Y-51868882D01*
X162925795Y-51895665D01*
X162925795Y-53143925D01*
X162905793Y-53212046D01*
X162852137Y-53258539D01*
X162781863Y-53268643D01*
X162717283Y-53239149D01*
X162710700Y-53233020D01*
X162127426Y-52649746D01*
X162093400Y-52587434D01*
X162096687Y-52521716D01*
X162120431Y-52448639D01*
X162139207Y-52270000D01*
X162120431Y-52091361D01*
X162086042Y-51985520D01*
X162066967Y-51926813D01*
X162066966Y-51926811D01*
X162064925Y-51920529D01*
X161975113Y-51764971D01*
X161863254Y-51640738D01*
X161859344Y-51636396D01*
X161859343Y-51636395D01*
X161854922Y-51631485D01*
X161709604Y-51525905D01*
X161703576Y-51523221D01*
X161703574Y-51523220D01*
X161551541Y-51455531D01*
X161551540Y-51455531D01*
X161545510Y-51452846D01*
X161457661Y-51434173D01*
X161376269Y-51416872D01*
X161376264Y-51416872D01*
X161369812Y-51415500D01*
X161190188Y-51415500D01*
X161183736Y-51416872D01*
X161183731Y-51416872D01*
X161102339Y-51434173D01*
X161014490Y-51452846D01*
X161008460Y-51455531D01*
X161008459Y-51455531D01*
X160856427Y-51523220D01*
X160856425Y-51523221D01*
X160850397Y-51525905D01*
X160845056Y-51529785D01*
X160845055Y-51529786D01*
X160710422Y-51627602D01*
X160710420Y-51627604D01*
X160705078Y-51631485D01*
X160700657Y-51636395D01*
X160700656Y-51636396D01*
X160696747Y-51640738D01*
X160584887Y-51764971D01*
X160581588Y-51770684D01*
X160581585Y-51770689D01*
X160509119Y-51896204D01*
X160457736Y-51945197D01*
X160388023Y-51958633D01*
X160322112Y-51932246D01*
X160280930Y-51874414D01*
X160274000Y-51833204D01*
X160274000Y-50166796D01*
X160294002Y-50098675D01*
X160347658Y-50052182D01*
X160417932Y-50042078D01*
X160482512Y-50071572D01*
G37*
%TD.AperFunction*%
%TA.AperFunction,Conductor*%
G36*
X177487110Y-47482453D02*
G01*
X177534111Y-47535664D01*
X177546000Y-47589094D01*
X177546000Y-49330906D01*
X177525998Y-49399027D01*
X177472342Y-49445520D01*
X177402068Y-49455624D01*
X177337488Y-49426130D01*
X177305890Y-49383500D01*
X177304925Y-49380529D01*
X177289758Y-49354258D01*
X177218414Y-49230689D01*
X177215113Y-49224971D01*
X177168489Y-49173189D01*
X177099344Y-49096396D01*
X177099343Y-49096395D01*
X177094922Y-49091485D01*
X176949604Y-48985905D01*
X176943576Y-48983221D01*
X176943574Y-48983220D01*
X176791541Y-48915531D01*
X176791540Y-48915531D01*
X176785510Y-48912846D01*
X176697661Y-48894173D01*
X176616269Y-48876872D01*
X176616264Y-48876872D01*
X176609812Y-48875500D01*
X176430188Y-48875500D01*
X176423736Y-48876872D01*
X176423731Y-48876872D01*
X176342339Y-48894173D01*
X176254490Y-48912846D01*
X176248460Y-48915531D01*
X176248459Y-48915531D01*
X176096427Y-48983220D01*
X176096425Y-48983221D01*
X176090397Y-48985905D01*
X176085056Y-48989785D01*
X176085055Y-48989786D01*
X175950422Y-49087602D01*
X175950420Y-49087604D01*
X175945078Y-49091485D01*
X175940657Y-49096395D01*
X175940656Y-49096396D01*
X175871512Y-49173189D01*
X175824887Y-49224971D01*
X175735075Y-49380529D01*
X175733034Y-49386811D01*
X175733033Y-49386813D01*
X175713958Y-49445520D01*
X175679569Y-49551361D01*
X175678879Y-49557924D01*
X175678879Y-49557925D01*
X175673585Y-49608293D01*
X175660793Y-49730000D01*
X175679569Y-49908639D01*
X175707717Y-49995272D01*
X175709744Y-50066238D01*
X175676979Y-50123301D01*
X174374637Y-51425643D01*
X174312325Y-51459669D01*
X174241510Y-51454604D01*
X174184674Y-51412057D01*
X174159863Y-51345537D01*
X174159542Y-51336548D01*
X174159542Y-50052368D01*
X174179544Y-49984247D01*
X174196447Y-49963273D01*
X176123511Y-48036209D01*
X176185823Y-48002183D01*
X176250604Y-48005424D01*
X176254490Y-48007154D01*
X176260943Y-48008526D01*
X176260944Y-48008526D01*
X176423731Y-48043128D01*
X176423736Y-48043128D01*
X176430188Y-48044500D01*
X176609812Y-48044500D01*
X176616264Y-48043128D01*
X176616269Y-48043128D01*
X176697661Y-48025827D01*
X176785510Y-48007154D01*
X176856034Y-47975755D01*
X176943574Y-47936780D01*
X176943576Y-47936779D01*
X176949604Y-47934095D01*
X177094922Y-47828515D01*
X177099344Y-47823604D01*
X177210694Y-47699937D01*
X177210695Y-47699936D01*
X177215113Y-47695029D01*
X177290881Y-47563796D01*
X177301624Y-47545189D01*
X177301625Y-47545187D01*
X177304925Y-47539471D01*
X177305800Y-47536778D01*
X177350874Y-47483749D01*
X177418802Y-47463100D01*
X177487110Y-47482453D01*
G37*
%TD.AperFunction*%
%TA.AperFunction,Conductor*%
G36*
X160482512Y-47531572D02*
G01*
X160509119Y-47563796D01*
X160581585Y-47689311D01*
X160581588Y-47689316D01*
X160584887Y-47695029D01*
X160589305Y-47699936D01*
X160589306Y-47699937D01*
X160700656Y-47823604D01*
X160705078Y-47828515D01*
X160850396Y-47934095D01*
X160856424Y-47936779D01*
X160856426Y-47936780D01*
X160943966Y-47975755D01*
X161014490Y-48007154D01*
X161102339Y-48025827D01*
X161183731Y-48043128D01*
X161183736Y-48043128D01*
X161190188Y-48044500D01*
X161369812Y-48044500D01*
X161376264Y-48043128D01*
X161376269Y-48043128D01*
X161545510Y-48007154D01*
X161546022Y-48009564D01*
X161605839Y-48007839D01*
X161662933Y-48040613D01*
X163168301Y-49545981D01*
X163202327Y-49608293D01*
X163205206Y-49635076D01*
X163205206Y-50883336D01*
X163185204Y-50951457D01*
X163131548Y-50997950D01*
X163061274Y-51008054D01*
X162996694Y-50978560D01*
X162990111Y-50972431D01*
X162127426Y-50109746D01*
X162093400Y-50047434D01*
X162096687Y-49981716D01*
X162120431Y-49908639D01*
X162139207Y-49730000D01*
X162126415Y-49608293D01*
X162121121Y-49557925D01*
X162121121Y-49557924D01*
X162120431Y-49551361D01*
X162086042Y-49445520D01*
X162066967Y-49386813D01*
X162066966Y-49386811D01*
X162064925Y-49380529D01*
X161975113Y-49224971D01*
X161928489Y-49173189D01*
X161859344Y-49096396D01*
X161859343Y-49096395D01*
X161854922Y-49091485D01*
X161709604Y-48985905D01*
X161703576Y-48983221D01*
X161703574Y-48983220D01*
X161551541Y-48915531D01*
X161551540Y-48915531D01*
X161545510Y-48912846D01*
X161457661Y-48894173D01*
X161376269Y-48876872D01*
X161376264Y-48876872D01*
X161369812Y-48875500D01*
X161190188Y-48875500D01*
X161183736Y-48876872D01*
X161183731Y-48876872D01*
X161102339Y-48894173D01*
X161014490Y-48912846D01*
X161008460Y-48915531D01*
X161008459Y-48915531D01*
X160856427Y-48983220D01*
X160856425Y-48983221D01*
X160850397Y-48985905D01*
X160845056Y-48989785D01*
X160845055Y-48989786D01*
X160710422Y-49087602D01*
X160710420Y-49087604D01*
X160705078Y-49091485D01*
X160700657Y-49096395D01*
X160700656Y-49096396D01*
X160631512Y-49173189D01*
X160584887Y-49224971D01*
X160581588Y-49230684D01*
X160581585Y-49230689D01*
X160509119Y-49356204D01*
X160457736Y-49405197D01*
X160388023Y-49418633D01*
X160322112Y-49392246D01*
X160280930Y-49334414D01*
X160274000Y-49293204D01*
X160274000Y-47626796D01*
X160294002Y-47558675D01*
X160347658Y-47512182D01*
X160417932Y-47502078D01*
X160482512Y-47531572D01*
G37*
%TD.AperFunction*%
%TA.AperFunction,Conductor*%
G36*
X160482512Y-44991572D02*
G01*
X160509119Y-45023796D01*
X160581585Y-45149311D01*
X160581588Y-45149316D01*
X160584887Y-45155029D01*
X160589305Y-45159936D01*
X160589306Y-45159937D01*
X160695914Y-45278337D01*
X160705078Y-45288515D01*
X160710420Y-45292396D01*
X160710422Y-45292398D01*
X160733800Y-45309383D01*
X160850396Y-45394095D01*
X160856424Y-45396779D01*
X160856426Y-45396780D01*
X160943966Y-45435755D01*
X161014490Y-45467154D01*
X161102339Y-45485827D01*
X161183731Y-45503128D01*
X161183736Y-45503128D01*
X161190188Y-45504500D01*
X161369812Y-45504500D01*
X161376264Y-45503128D01*
X161376269Y-45503128D01*
X161545510Y-45467154D01*
X161546022Y-45469564D01*
X161605839Y-45467839D01*
X161662933Y-45500613D01*
X163447710Y-47285390D01*
X163481736Y-47347702D01*
X163484615Y-47374485D01*
X163484615Y-48622745D01*
X163464613Y-48690866D01*
X163410957Y-48737359D01*
X163340683Y-48747463D01*
X163276103Y-48717969D01*
X163269520Y-48711840D01*
X162127426Y-47569746D01*
X162093400Y-47507434D01*
X162096687Y-47441716D01*
X162120431Y-47368639D01*
X162139207Y-47190000D01*
X162120431Y-47011361D01*
X162079930Y-46886709D01*
X162066967Y-46846813D01*
X162066966Y-46846811D01*
X162064925Y-46840529D01*
X161975113Y-46684971D01*
X161854922Y-46551485D01*
X161709604Y-46445905D01*
X161703576Y-46443221D01*
X161703574Y-46443220D01*
X161551541Y-46375531D01*
X161551540Y-46375531D01*
X161545510Y-46372846D01*
X161457661Y-46354173D01*
X161376269Y-46336872D01*
X161376264Y-46336872D01*
X161369812Y-46335500D01*
X161190188Y-46335500D01*
X161183736Y-46336872D01*
X161183731Y-46336872D01*
X161102339Y-46354173D01*
X161014490Y-46372846D01*
X161008460Y-46375531D01*
X161008459Y-46375531D01*
X160856427Y-46443220D01*
X160856425Y-46443221D01*
X160850397Y-46445905D01*
X160845056Y-46449785D01*
X160845055Y-46449786D01*
X160710422Y-46547602D01*
X160710420Y-46547604D01*
X160705078Y-46551485D01*
X160584887Y-46684971D01*
X160581588Y-46690684D01*
X160581585Y-46690689D01*
X160509119Y-46816204D01*
X160457736Y-46865197D01*
X160388023Y-46878633D01*
X160322112Y-46852246D01*
X160280930Y-46794414D01*
X160274000Y-46753204D01*
X160274000Y-45086796D01*
X160294002Y-45018675D01*
X160347658Y-44972182D01*
X160417932Y-44962078D01*
X160482512Y-44991572D01*
G37*
%TD.AperFunction*%
%TA.AperFunction,Conductor*%
G36*
X160482512Y-42451572D02*
G01*
X160509119Y-42483796D01*
X160581585Y-42609311D01*
X160581588Y-42609316D01*
X160584887Y-42615029D01*
X160705078Y-42748515D01*
X160850396Y-42854095D01*
X160856424Y-42856779D01*
X160856426Y-42856780D01*
X161003327Y-42922184D01*
X161014490Y-42927154D01*
X161102339Y-42945827D01*
X161183731Y-42963128D01*
X161183736Y-42963128D01*
X161190188Y-42964500D01*
X161369812Y-42964500D01*
X161376264Y-42963128D01*
X161376269Y-42963128D01*
X161545510Y-42927154D01*
X161546020Y-42929554D01*
X161605890Y-42927854D01*
X161662933Y-42960614D01*
X163727121Y-45024802D01*
X163761147Y-45087114D01*
X163764026Y-45113897D01*
X163764026Y-46362156D01*
X163744024Y-46430277D01*
X163690368Y-46476770D01*
X163620094Y-46486874D01*
X163555514Y-46457380D01*
X163548931Y-46451251D01*
X162127426Y-45029746D01*
X162093400Y-44967434D01*
X162096687Y-44901716D01*
X162112488Y-44853084D01*
X162120431Y-44828639D01*
X162139207Y-44650000D01*
X162120431Y-44471361D01*
X162086042Y-44365520D01*
X162066967Y-44306813D01*
X162066966Y-44306811D01*
X162064925Y-44300529D01*
X161975113Y-44144971D01*
X161854922Y-44011485D01*
X161709604Y-43905905D01*
X161703576Y-43903221D01*
X161703574Y-43903220D01*
X161551541Y-43835531D01*
X161551540Y-43835531D01*
X161545510Y-43832846D01*
X161457661Y-43814173D01*
X161376269Y-43796872D01*
X161376264Y-43796872D01*
X161369812Y-43795500D01*
X161190188Y-43795500D01*
X161183736Y-43796872D01*
X161183731Y-43796872D01*
X161102339Y-43814173D01*
X161014490Y-43832846D01*
X161008460Y-43835531D01*
X161008459Y-43835531D01*
X160856427Y-43903220D01*
X160856425Y-43903221D01*
X160850397Y-43905905D01*
X160845056Y-43909785D01*
X160845055Y-43909786D01*
X160710422Y-44007602D01*
X160710420Y-44007604D01*
X160705078Y-44011485D01*
X160584887Y-44144971D01*
X160581588Y-44150684D01*
X160581585Y-44150689D01*
X160509119Y-44276204D01*
X160457736Y-44325197D01*
X160388023Y-44338633D01*
X160322112Y-44312246D01*
X160280930Y-44254414D01*
X160274000Y-44213204D01*
X160274000Y-42546796D01*
X160294002Y-42478675D01*
X160347658Y-42432182D01*
X160417932Y-42422078D01*
X160482512Y-42451572D01*
G37*
%TD.AperFunction*%
%TD*%
M02*
