M48
; DRILL file {KiCad (5.1.9)-1} date 10/06/21 21:05:35
; FORMAT={-:-/ absolute / inch / decimal}
; #@! TF.CreationDate,2021-10-06T21:05:35+02:00
; #@! TF.GenerationSoftware,Kicad,Pcbnew,(5.1.9)-1
; #@! TF.FileFunction,Plated,1,2,PTH
FMAT,2
INCH
T1C0.0157
T2C0.0315
T3C0.0394
%
G90
G05
T1
X6.3496Y-1.6079
X6.3496Y-1.7079
X6.3496Y-1.8079
X6.3496Y-1.9079
X6.3496Y-2.0079
X6.3496Y-2.1079
X6.3496Y-2.2079
X6.3496Y-2.3079
X6.3496Y-2.4079
X6.3496Y-2.7079
X6.3496Y-2.8079
X6.3496Y-2.9079
X6.3496Y-3.0079
X6.3496Y-3.1079
X6.3496Y-3.2079
X6.3496Y-3.3079
X6.3496Y-3.4079
X6.3496Y-3.5079
X6.3496Y-3.6079
X6.3496Y-3.7079
X6.3496Y-3.8079
X6.4471Y-1.7079
X6.4546Y-2.6129
X6.4796Y-2.7279
X6.4896Y-2.1079
X6.4896Y-2.2079
X6.4896Y-2.3079
X6.5071Y-2.9329
X6.5121Y-3.1079
X6.5121Y-3.2079
X6.5121Y-3.3079
X6.5121Y-3.4079
X6.5121Y-3.5079
X6.5121Y-3.6079
X6.5121Y-3.7079
X6.5527Y-2.7955
X6.6061Y-2.4602
X6.6496Y-3.0179
X6.7165Y-2.8219
X6.7696Y-1.9054
X6.7791Y-2.7727
X6.7846Y-3.0079
X6.7846Y-3.1079
X6.7846Y-3.2079
X6.7846Y-3.3079
X6.7846Y-3.4079
X6.7846Y-3.5079
X6.7846Y-3.6079
X6.7846Y-3.7079
X6.7865Y-2.5617
X6.8021Y-2.1079
X6.8021Y-2.2079
X6.8021Y-2.3079
X6.8491Y-1.6077
X6.9496Y-1.6079
X6.9496Y-1.9079
X6.9496Y-2.0079
X6.9496Y-2.1079
X6.9496Y-2.2079
X6.9496Y-2.3079
X6.9496Y-2.4079
X6.9496Y-2.6079
X6.9496Y-2.8079
X6.9496Y-2.9079
X6.9496Y-3.0079
X6.9496Y-3.1079
X6.9496Y-3.2079
X6.9496Y-3.3079
X6.9496Y-3.4079
X6.9496Y-3.5079
X6.9496Y-3.6079
X6.9496Y-3.7079
X6.9496Y-3.8079
T2
X6.3496Y-1.5579
X6.3496Y-1.6579
X6.3496Y-1.7579
X6.3496Y-1.8579
X6.3496Y-1.9579
X6.3496Y-2.0579
X6.3496Y-2.1579
X6.3496Y-2.2579
X6.3496Y-2.3579
X6.3496Y-2.4579
X6.3496Y-2.5579
X6.3496Y-2.6579
X6.3496Y-2.7579
X6.3496Y-2.8579
X6.3496Y-2.9579
X6.3496Y-3.0579
X6.3496Y-3.1579
X6.3496Y-3.2579
X6.3496Y-3.3579
X6.3496Y-3.4579
X6.3496Y-3.5579
X6.3496Y-3.6579
X6.3496Y-3.7579
X6.3496Y-3.8579
X6.9496Y-1.5579
X6.9496Y-1.6579
X6.9496Y-1.7579
X6.9496Y-1.8579
X6.9496Y-1.9579
X6.9496Y-2.0579
X6.9496Y-2.1579
X6.9496Y-2.2579
X6.9496Y-2.3579
X6.9496Y-2.4579
X6.9496Y-2.5579
X6.9496Y-2.6579
X6.9496Y-2.7579
X6.9496Y-2.8579
X6.9496Y-2.9579
X6.9496Y-3.0579
X6.9496Y-3.1579
X6.9496Y-3.2579
X6.9496Y-3.3579
X6.9496Y-3.4579
X6.9496Y-3.5579
X6.9496Y-3.6579
X6.9496Y-3.7579
X6.9496Y-3.8579
T3
X6.6513Y-3.1579
X6.6513Y-3.2579
X6.6513Y-3.3579
X6.6513Y-3.4579
X6.6513Y-3.5579
X6.6513Y-3.6579
T0
M30
