%TF.GenerationSoftware,KiCad,Pcbnew,(5.1.9)-1*%
%TF.CreationDate,2021-10-06T21:40:27+02:00*%
%TF.ProjectId,Bluster,426c7573-7465-4722-9e6b-696361645f70,rev?*%
%TF.SameCoordinates,Original*%
%TF.FileFunction,Legend,Bot*%
%TF.FilePolarity,Positive*%
%FSLAX46Y46*%
G04 Gerber Fmt 4.6, Leading zero omitted, Abs format (unit mm)*
G04 Created by KiCad (PCBNEW (5.1.9)-1) date 2021-10-06 21:40:27*
%MOMM*%
%LPD*%
G01*
G04 APERTURE LIST*
%ADD10C,0.150000*%
%ADD11C,0.120000*%
G04 APERTURE END LIST*
D10*
X170352380Y-40213380D02*
X170685714Y-39737190D01*
X170923809Y-40213380D02*
X170923809Y-39213380D01*
X170542857Y-39213380D01*
X170447619Y-39261000D01*
X170400000Y-39308619D01*
X170352380Y-39403857D01*
X170352380Y-39546714D01*
X170400000Y-39641952D01*
X170447619Y-39689571D01*
X170542857Y-39737190D01*
X170923809Y-39737190D01*
X169923809Y-39689571D02*
X169590476Y-39689571D01*
X169447619Y-40213380D02*
X169923809Y-40213380D01*
X169923809Y-39213380D01*
X169447619Y-39213380D01*
X169161904Y-39213380D02*
X168828571Y-40213380D01*
X168495238Y-39213380D01*
X167066666Y-39689571D02*
X166923809Y-39737190D01*
X166876190Y-39784809D01*
X166828571Y-39880047D01*
X166828571Y-40022904D01*
X166876190Y-40118142D01*
X166923809Y-40165761D01*
X167019047Y-40213380D01*
X167400000Y-40213380D01*
X167400000Y-39213380D01*
X167066666Y-39213380D01*
X166971428Y-39261000D01*
X166923809Y-39308619D01*
X166876190Y-39403857D01*
X166876190Y-39499095D01*
X166923809Y-39594333D01*
X166971428Y-39641952D01*
X167066666Y-39689571D01*
X167400000Y-39689571D01*
X172161904Y-40863380D02*
X171971428Y-40863380D01*
X171876190Y-40911000D01*
X171780952Y-41006238D01*
X171733333Y-41196714D01*
X171733333Y-41530047D01*
X171780952Y-41720523D01*
X171876190Y-41815761D01*
X171971428Y-41863380D01*
X172161904Y-41863380D01*
X172257142Y-41815761D01*
X172352380Y-41720523D01*
X172400000Y-41530047D01*
X172400000Y-41196714D01*
X172352380Y-41006238D01*
X172257142Y-40911000D01*
X172161904Y-40863380D01*
X170733333Y-41768142D02*
X170780952Y-41815761D01*
X170923809Y-41863380D01*
X171019047Y-41863380D01*
X171161904Y-41815761D01*
X171257142Y-41720523D01*
X171304761Y-41625285D01*
X171352380Y-41434809D01*
X171352380Y-41291952D01*
X171304761Y-41101476D01*
X171257142Y-41006238D01*
X171161904Y-40911000D01*
X171019047Y-40863380D01*
X170923809Y-40863380D01*
X170780952Y-40911000D01*
X170733333Y-40958619D01*
X170447619Y-40863380D02*
X169876190Y-40863380D01*
X170161904Y-41863380D02*
X170161904Y-40863380D01*
X168828571Y-40958619D02*
X168780952Y-40911000D01*
X168685714Y-40863380D01*
X168447619Y-40863380D01*
X168352380Y-40911000D01*
X168304761Y-40958619D01*
X168257142Y-41053857D01*
X168257142Y-41149095D01*
X168304761Y-41291952D01*
X168876190Y-41863380D01*
X168257142Y-41863380D01*
X167638095Y-40863380D02*
X167542857Y-40863380D01*
X167447619Y-40911000D01*
X167400000Y-40958619D01*
X167352380Y-41053857D01*
X167304761Y-41244333D01*
X167304761Y-41482428D01*
X167352380Y-41672904D01*
X167400000Y-41768142D01*
X167447619Y-41815761D01*
X167542857Y-41863380D01*
X167638095Y-41863380D01*
X167733333Y-41815761D01*
X167780952Y-41768142D01*
X167828571Y-41672904D01*
X167876190Y-41482428D01*
X167876190Y-41244333D01*
X167828571Y-41053857D01*
X167780952Y-40958619D01*
X167733333Y-40911000D01*
X167638095Y-40863380D01*
X166923809Y-40958619D02*
X166876190Y-40911000D01*
X166780952Y-40863380D01*
X166542857Y-40863380D01*
X166447619Y-40911000D01*
X166400000Y-40958619D01*
X166352380Y-41053857D01*
X166352380Y-41149095D01*
X166400000Y-41291952D01*
X166971428Y-41863380D01*
X166352380Y-41863380D01*
X165400000Y-41863380D02*
X165971428Y-41863380D01*
X165685714Y-41863380D02*
X165685714Y-40863380D01*
X165780952Y-41006238D01*
X165876190Y-41101476D01*
X165971428Y-41149095D01*
D11*
%TO.C,U2*%
X165490000Y-45026000D02*
X166750000Y-45026000D01*
X172310000Y-45026000D02*
X171050000Y-45026000D01*
X165490000Y-48786000D02*
X165490000Y-45026000D01*
X172310000Y-51036000D02*
X172310000Y-45026000D01*
%TO.C,C6*%
X165063000Y-49229252D02*
X165063000Y-48706748D01*
X163593000Y-49229252D02*
X163593000Y-48706748D01*
%TO.C,C5*%
X174207000Y-49229252D02*
X174207000Y-48706748D01*
X172737000Y-49229252D02*
X172737000Y-48706748D01*
%TO.C,C4*%
X164580648Y-71825665D02*
X164211181Y-72195132D01*
X165620095Y-72865112D02*
X165250628Y-73234579D01*
%TO.C,C3*%
X166918472Y-60539509D02*
X166549005Y-60170042D01*
X165879025Y-61578956D02*
X165509558Y-61209489D01*
%TO.C,C2*%
X174411841Y-64148721D02*
X174781308Y-63779254D01*
X173372394Y-63109274D02*
X173741861Y-62739807D01*
%TO.C,C1*%
X171450181Y-73627112D02*
X171819648Y-73996579D01*
X172489628Y-72587665D02*
X172859095Y-72957132D01*
%TO.C,U2*%
D10*
X172852380Y-44650095D02*
X173661904Y-44650095D01*
X173757142Y-44697714D01*
X173804761Y-44745333D01*
X173852380Y-44840571D01*
X173852380Y-45031047D01*
X173804761Y-45126285D01*
X173757142Y-45173904D01*
X173661904Y-45221523D01*
X172852380Y-45221523D01*
X172947619Y-45650095D02*
X172900000Y-45697714D01*
X172852380Y-45792952D01*
X172852380Y-46031047D01*
X172900000Y-46126285D01*
X172947619Y-46173904D01*
X173042857Y-46221523D01*
X173138095Y-46221523D01*
X173280952Y-46173904D01*
X173852380Y-45602476D01*
X173852380Y-46221523D01*
%TO.C,C6*%
X166365142Y-48801333D02*
X166412761Y-48753714D01*
X166460380Y-48610857D01*
X166460380Y-48515619D01*
X166412761Y-48372761D01*
X166317523Y-48277523D01*
X166222285Y-48229904D01*
X166031809Y-48182285D01*
X165888952Y-48182285D01*
X165698476Y-48229904D01*
X165603238Y-48277523D01*
X165508000Y-48372761D01*
X165460380Y-48515619D01*
X165460380Y-48610857D01*
X165508000Y-48753714D01*
X165555619Y-48801333D01*
X165460380Y-49658476D02*
X165460380Y-49468000D01*
X165508000Y-49372761D01*
X165555619Y-49325142D01*
X165698476Y-49229904D01*
X165888952Y-49182285D01*
X166269904Y-49182285D01*
X166365142Y-49229904D01*
X166412761Y-49277523D01*
X166460380Y-49372761D01*
X166460380Y-49563238D01*
X166412761Y-49658476D01*
X166365142Y-49706095D01*
X166269904Y-49753714D01*
X166031809Y-49753714D01*
X165936571Y-49706095D01*
X165888952Y-49658476D01*
X165841333Y-49563238D01*
X165841333Y-49372761D01*
X165888952Y-49277523D01*
X165936571Y-49229904D01*
X166031809Y-49182285D01*
%TO.C,C5*%
X175509142Y-48801333D02*
X175556761Y-48753714D01*
X175604380Y-48610857D01*
X175604380Y-48515619D01*
X175556761Y-48372761D01*
X175461523Y-48277523D01*
X175366285Y-48229904D01*
X175175809Y-48182285D01*
X175032952Y-48182285D01*
X174842476Y-48229904D01*
X174747238Y-48277523D01*
X174652000Y-48372761D01*
X174604380Y-48515619D01*
X174604380Y-48610857D01*
X174652000Y-48753714D01*
X174699619Y-48801333D01*
X174604380Y-49706095D02*
X174604380Y-49229904D01*
X175080571Y-49182285D01*
X175032952Y-49229904D01*
X174985333Y-49325142D01*
X174985333Y-49563238D01*
X175032952Y-49658476D01*
X175080571Y-49706095D01*
X175175809Y-49753714D01*
X175413904Y-49753714D01*
X175509142Y-49706095D01*
X175556761Y-49658476D01*
X175604380Y-49563238D01*
X175604380Y-49325142D01*
X175556761Y-49229904D01*
X175509142Y-49182285D01*
%TO.C,C4*%
X164098088Y-71476870D02*
X164165431Y-71476870D01*
X164300118Y-71409526D01*
X164367462Y-71342183D01*
X164434805Y-71207495D01*
X164434805Y-71072808D01*
X164401134Y-70971793D01*
X164300118Y-70803434D01*
X164199103Y-70702419D01*
X164030744Y-70601404D01*
X163929729Y-70567732D01*
X163795042Y-70567732D01*
X163660355Y-70635076D01*
X163593011Y-70702419D01*
X163525668Y-70837106D01*
X163525668Y-70904450D01*
X163087935Y-71678900D02*
X163559340Y-72150305D01*
X162986920Y-71241167D02*
X163660355Y-71577885D01*
X163222622Y-72015618D01*
%TO.C,C3*%
X167267266Y-60056949D02*
X167267266Y-60124292D01*
X167334610Y-60258979D01*
X167401954Y-60326323D01*
X167536641Y-60393666D01*
X167671328Y-60393666D01*
X167772343Y-60359995D01*
X167940702Y-60258979D01*
X168041717Y-60157964D01*
X168142732Y-59989605D01*
X168176404Y-59888590D01*
X168176404Y-59753903D01*
X168109060Y-59619216D01*
X168041717Y-59551872D01*
X167907030Y-59484529D01*
X167839686Y-59484529D01*
X167671328Y-59181483D02*
X167233595Y-58743750D01*
X167199923Y-59248827D01*
X167098908Y-59147811D01*
X166997892Y-59114140D01*
X166930549Y-59114140D01*
X166829534Y-59147811D01*
X166661175Y-59316170D01*
X166627503Y-59417185D01*
X166627503Y-59484529D01*
X166661175Y-59585544D01*
X166863205Y-59787575D01*
X166964221Y-59821247D01*
X167031564Y-59821247D01*
%TO.C,C2*%
X175635179Y-64766890D02*
X175702522Y-64766890D01*
X175837209Y-64699546D01*
X175904553Y-64632203D01*
X175971896Y-64497515D01*
X175971896Y-64362828D01*
X175938225Y-64261813D01*
X175837209Y-64093454D01*
X175736194Y-63992439D01*
X175567835Y-63891424D01*
X175466820Y-63857752D01*
X175332133Y-63857752D01*
X175197446Y-63925096D01*
X175130102Y-63992439D01*
X175062759Y-64127126D01*
X175062759Y-64194470D01*
X174793385Y-64463844D02*
X174726041Y-64463844D01*
X174625026Y-64497515D01*
X174456667Y-64665874D01*
X174422996Y-64766890D01*
X174422996Y-64834233D01*
X174456667Y-64935248D01*
X174524011Y-65002592D01*
X174658698Y-65069935D01*
X175466820Y-65069935D01*
X175029087Y-65507668D01*
%TO.C,C1*%
X170832011Y-74850450D02*
X170832011Y-74917793D01*
X170899355Y-75052480D01*
X170966699Y-75119824D01*
X171101386Y-75187167D01*
X171236073Y-75187167D01*
X171337088Y-75153496D01*
X171505447Y-75052480D01*
X171606462Y-74951465D01*
X171707477Y-74783106D01*
X171741149Y-74682091D01*
X171741149Y-74547404D01*
X171673805Y-74412717D01*
X171606462Y-74345373D01*
X171471775Y-74278030D01*
X171404431Y-74278030D01*
X170091233Y-74244358D02*
X170495294Y-74648419D01*
X170293263Y-74446389D02*
X171000370Y-73739282D01*
X170966699Y-73907641D01*
X170966699Y-74042328D01*
X171000370Y-74143343D01*
%TD*%
M02*
